<svg width="100%" height="100%" viewBox="0 0 455 102" xmlns="http://www.w3.org/2000/svg">
    <g id="text" transform="translate(119.395349, 28.070175)" fill="currentColor">
        <path
            d="M0,44.8580014 L19.0633804,0.441019676 L28.0867139,0.441019676 L47.1500943,44.8580014 L36.9194135,44.8580014 L32.852559,34.96656 L14.0433569,34.96656 L9.97650244,44.8580014 L0,44.8580014 Z M17.53831,26.3981778 L29.3576059,26.3981778 L23.447958,12.0965397 L17.53831,26.3981778 Z M52.2570973,44.8580014 L52.2570973,0.756033731 L69.6047735,0.756033731 C76.5523514,0.756033731 82.2289457,2.84560606 86.6347267,7.02481341 C91.0405078,11.2040208 93.2433653,16.4647029 93.2433653,22.8070175 C93.2433653,29.1073301 91.0299171,34.3575329 86.6029544,38.5577203 C82.1759917,42.7579077 76.5099881,44.8580014 69.6047735,44.8580014 L52.2570973,44.8580014 Z M62.042966,36.1006106 L69.6047735,36.1006106 C73.6292851,36.1006106 76.8700396,34.8720681 79.3270976,32.4149462 C81.7841678,29.9578243 83.0126844,26.7552134 83.0126844,22.8070175 C83.0126844,18.9008237 81.7735771,15.7087132 79.2953253,13.2305903 C76.8170734,10.7524673 73.5869218,9.51342445 69.6047735,9.51342445 L62.042966,9.51342445 L62.042966,36.1006106 Z M121.607692,45.6140351 C114.702478,45.6140351 109.078837,43.4719609 104.736601,39.1877484 C100.394365,34.9035358 98.2232791,29.4433468 98.2232791,22.8070175 C98.2232791,16.4647029 100.447318,11.0780164 104.895462,6.64679655 C109.343607,2.21557669 114.893113,0 121.544148,0 C125.399206,0 128.66113,0.493517083 131.330016,1.48056606 C133.998903,2.46761503 136.561843,3.99016773 139.018913,6.04826985 L132.855087,13.4195987 C130.991103,11.8655216 129.19069,10.7314824 127.453796,10.0174469 C125.716901,9.30341151 123.64112,8.94639915 121.226425,8.94639915 C117.667909,8.94639915 114.649571,10.300946 112.171319,13.0100804 C109.693067,15.7192149 108.45396,18.9848279 108.45396,22.8070175 C108.45396,26.8392176 109.714249,30.1783332 112.234864,32.8244645 C114.755479,35.4705958 117.98563,36.7936416 121.925415,36.7936416 C125.568657,36.7936416 128.639949,35.911611 131.139383,34.1475235 L131.139383,27.8472424 L121.289969,27.8472424 L121.289969,19.4678686 L140.607528,19.4678686 L140.607528,38.6207231 C135.057939,43.2829544 128.724723,45.6140351 121.607692,45.6140351 Z M168.567153,45.5510323 C162.509204,45.5510323 157.785752,43.8814745 154.396707,40.5423088 C151.007644,37.2031431 149.313139,32.3414748 149.313139,25.9571581 L149.313139,0.756033731 L159.099007,0.756033731 L159.099007,25.7051468 C159.099007,29.2333219 159.93567,31.9319153 161.609019,33.801008 C163.282369,35.6701008 165.644086,36.6046331 168.694242,36.6046331 C171.744398,36.6046331 174.106116,35.7016019 175.779465,33.8955123 C177.452815,32.0894227 178.289477,29.4643318 178.289477,26.0201609 L178.289477,0.756033731 L188.075346,0.756033731 L188.075346,25.642144 C188.075346,32.1944691 186.349068,37.1506407 182.896461,40.5108074 C179.443853,43.8709741 174.667465,45.5510323 168.567153,45.5510323 Z M190.727544,44.8580014 L209.790925,0.441019676 L218.814258,0.441019676 L237.877638,44.8580014 L227.646958,44.8580014 L223.580103,34.96656 L204.770901,34.96656 L200.704046,44.8580014 L190.727544,44.8580014 Z M208.265854,26.3981778 L220.08515,26.3981778 L214.175502,12.0965397 L208.265854,26.3981778 Z M242.984641,44.8580014 L242.984641,0.756033731 L263.318914,0.756033731 C268.95323,0.756033731 273.27422,2.24708534 276.282013,5.2292333 C278.823809,7.74935834 280.094689,11.1514761 280.094689,15.4356887 C280.094689,22.1980242 276.91749,26.7551819 270.562998,29.1072986 L281.429125,44.8580014 L269.991097,44.8580014 L260.332318,30.7453717 L252.77051,30.7453717 L252.77051,44.8580014 L242.984641,44.8580014 Z M252.77051,22.1769894 L262.683468,22.1769894 C265.055811,22.1769894 266.898587,21.5994694 268.211848,20.4444121 C269.52511,19.2893548 270.181731,17.7458014 270.181731,15.8137055 C270.181731,13.7556034 269.503929,12.1910493 268.148304,11.1199961 C266.792679,10.048943 264.907541,9.51342445 262.492834,9.51342445 L252.77051,9.51342445 L252.77051,22.1769894 Z M287.171574,44.8580014 L287.171574,0.756033731 L304.519251,0.756033731 C311.466828,0.756033731 317.143423,2.84560606 321.549204,7.02481341 C325.954985,11.2040208 328.157842,16.4647029 328.157842,22.8070175 C328.157842,29.1073301 325.944394,34.3575329 321.517431,38.5577203 C317.090469,42.7579077 311.424465,44.8580014 304.519251,44.8580014 L287.171574,44.8580014 Z M296.957443,36.1006106 L304.519251,36.1006106 C308.543762,36.1006106 311.784517,34.8720681 314.241575,32.4149462 C316.698645,29.9578243 317.927161,26.7552134 317.927161,22.8070175 C317.927161,18.9008237 316.688054,15.7087132 314.209802,13.2305903 C311.73155,10.7524673 308.501399,9.51342445 304.519251,9.51342445 L296.957443,9.51342445 L296.957443,36.1006106 Z"
            fill-rule="nonzero"></path>
    </g>
    <g id="logo">
        <path
            d="M49.9988939,0 C34.3707758,0 15.5193582,3.58555964 1.5333108e-05,11.4776302 C1.5333108e-05,28.5223698 -0.214205321,70.9859756 49.9988939,100 C100.213103,70.9859756 99.9999924,28.5223698 99.9999924,11.4776302 C84.4795396,3.58555964 65.628122,0 49.9988939,0 L49.9988939,0 Z"
            fill="#68BC71" />
        <path
            d="M50,5.9772276e-09 L50,99.9993609 C-0.214205321,70.9859756 1.53331082e-05,28.5223698 1.53331082e-05,11.4776302 C15.5193582,3.58555964 34.3707758,0 49.9988939,0 Z"
            fill="#67B279" />
        <path
            d="M49.5588954,64.2857143 L78.5714286,25.8442317 C76.4454491,24.1689936 74.5806614,25.351342 73.554117,26.2667086 L73.5166593,26.2696424 L49.32605,51.0089877 L40.2116724,40.2260482 C35.8635382,35.2873719 29.9523029,39.0544573 28.5714286,40.0500162 L49.5588954,64.2857143"
            fill="#FFFFFF" />
    </g>
</svg>
