<svg width="100%" height="100%" viewBox="0 0 87 87" xmlns="http://www.w3.org/2000/svg">
    <path fill-rule="evenodd" clip-rule="evenodd"
        d="M80.3078 43.5C80.3078 48.3337 79.3557 53.12 77.5059 57.5857C75.6562 62.0514 72.9449 66.1091 69.527 69.527C66.1091 72.9449 62.0515 75.6561 57.5858 77.5059C53.12 79.3556 48.3337 80.3077 43.5001 80.3077C38.6664 80.3077 33.8801 79.3556 29.4144 77.5059C24.9487 75.6561 20.891 72.9449 17.4731 69.527C14.0552 66.1091 11.344 62.0514 9.4942 57.5857C7.64444 53.12 6.69238 48.3337 6.69238 43.5C6.69238 38.6664 7.64444 33.88 9.4942 29.4143C11.344 24.9486 14.0552 20.891 17.4731 17.473C20.891 14.0551 24.9487 11.3439 29.4144 9.49414C33.8801 7.64438 38.6664 6.69232 43.5001 6.69232C48.3337 6.69232 53.12 7.64438 57.5858 9.49414C62.0515 11.3439 66.1091 14.0551 69.527 17.473C72.9449 20.891 75.6562 24.9486 77.5059 29.4143C79.3557 33.88 80.3078 38.6664 80.3078 43.5V43.5Z"
        fill="#1E1D51" />
    <path fill-rule="evenodd" clip-rule="evenodd"
        d="M43.3568 17.6654C40.2131 17.7245 37.1973 18.284 34.3936 19.2626V39.4691H43.3568V17.6654ZM27.0532 23.6873C22.3791 27.6545 19.0829 33.1258 17.9622 39.3246H27.0532V23.6873ZM34.0764 46.6381V67.7628C36.9538 68.7397 40.0486 69.2984 43.2749 69.3575V46.6381H34.0764ZM17.9327 46.6957C18.8645 53.297 22.2305 59.1361 27.1108 63.31V46.6957H17.9327Z"
        fill="url(#paint0_linear_809_305)" />
    <path fill-rule="evenodd" clip-rule="evenodd"
        d="M44.0088 17.9258C57.8973 18.1973 69.0747 29.5473 69.0747 43.5007C69.0747 57.4541 57.8973 68.7978 44.0088 69.0692V17.9258Z"
        fill="url(#paint1_linear_809_305)" />
    <path fill-rule="evenodd" clip-rule="evenodd"
        d="M33.7257 19.5837V40.0421H43.2165V46.0814H33.7257V67.4703C31.5316 66.5647 29.4881 65.3712 27.6443 63.9362V46.0814H17.7567C17.674 45.2419 17.6313 44.3907 17.6313 43.5296C17.6313 42.3468 17.7117 41.1829 17.8663 40.0421C17.8781 39.9551 17.8902 39.8684 17.9028 39.7816C17.8902 39.8683 17.8781 39.9552 17.8663 40.0421H27.6443V23.1191C29.488 21.6836 31.5316 20.4897 33.7257 19.5837Z"
        fill="url(#paint2_linear_809_305)" />
    <path fill-rule="evenodd" clip-rule="evenodd"
        d="M27.1848 23.8005C27.109 23.8635 27.0336 23.9273 26.9585 23.9911C27.0339 23.9271 27.1087 23.8637 27.1848 23.8005Z"
        fill="#FFF38D" />
    <path fill-rule="evenodd" clip-rule="evenodd"
        d="M18.0695 46.2756C18.0777 46.3526 18.0861 46.4291 18.095 46.5058C18.0861 46.4293 18.0777 46.3524 18.0695 46.2756Z"
        fill="#FFF38D" />
    <path fill-rule="evenodd" clip-rule="evenodd"
        d="M26.9585 63.0063C27.0336 63.0701 27.109 63.1339 27.1848 63.1969C27.1087 63.1338 27.0339 63.0703 26.9585 63.0063Z"
        fill="#FFF38D" />
    <path d="M59.2816 26.5385H50.4834V27.7662H59.2816V26.5385Z" fill="#9D0D16" />
    <path fill-rule="evenodd" clip-rule="evenodd"
        d="M43.6075 4.82756C30.2176 4.80626 17.1804 11.7437 10.0093 24.1644C-0.663954 42.6511 5.67783 66.3176 24.1645 76.9908C42.6511 87.6641 66.3176 81.3223 76.9908 62.8357C87.6641 44.349 81.3223 20.6826 62.8357 10.0093C56.7697 6.50714 50.1467 4.83797 43.6075 4.82756ZM43.5001 6.69207C63.8179 6.69207 80.308 23.1822 80.308 43.5001C80.308 63.8179 63.8179 80.308 43.5001 80.308C23.1822 80.308 6.69207 63.8179 6.69207 43.5001C6.69207 23.1822 23.1822 6.69207 43.5001 6.69207ZM41.2839 7.98111V15.6105H43.6088V13.0401L45.486 15.6105L48.545 16.0581L45.894 12.6321C46.4757 12.5112 47.5667 11.8936 47.5667 10.5924C47.5667 8.64447 45.8125 8.02203 44.7111 8.02203L41.2839 7.98111ZM44.2213 9.65379C44.8536 9.65379 45.302 10.0824 45.3224 10.5515C45.3428 11.0207 45.0182 11.5298 44.3031 11.5298H43.5678L43.5282 9.69471L44.2213 9.65379ZM55.1807 10.0873C55.1395 10.0871 55.0977 10.0878 55.0567 10.0886C53.051 10.1294 51.355 11.3455 50.9491 13.3316C50.5448 15.3097 52.3414 17.6505 54.5375 18.1489C56.9201 18.6897 59.1437 17.5584 59.645 14.9903C60.0743 12.7912 58.458 10.6319 56.058 10.1743C55.7627 10.118 55.4694 10.0891 55.1807 10.0873ZM27.0469 12.1014L24.9663 13.2025L25.9446 21.8102L28.1479 20.1784L27.8628 18.874L30.2695 17.4456L31.3705 18.2615L33.9 17.2423L27.0469 12.1014ZM55.2344 12.1961C55.3758 12.1965 55.5193 12.2094 55.6641 12.237C56.8221 12.4578 57.5572 13.459 57.3547 14.5209C57.1522 15.5829 56.0881 16.3057 54.9301 16.0849C53.772 15.8641 53.2007 14.7427 53.4032 13.6808C53.5803 12.7516 54.2445 12.1933 55.2344 12.1961ZM27.1287 14.8343L28.882 16.1808L27.6172 16.9149L27.1287 14.8343ZM65.924 15.9366L59.3969 20.4649L61.3139 21.9738L64.4559 19.5262L62.8638 23.4828L63.6797 24.2578L67.6785 22.626L65.2718 25.8896L66.7399 27.9702L71.35 21.3613L69.8806 19.608L66.1273 21.117L67.6376 17.3228L65.924 15.9366ZM43.5001 16.9008C28.8229 16.9008 16.8995 28.8241 16.8995 43.5013C16.8995 58.1785 28.8229 70.1006 43.5001 70.1006C58.1773 70.1006 70.1006 58.1785 70.1006 43.5013C70.1006 28.8241 58.1772 16.9008 43.5001 16.9008ZM19.1323 17.7717L15.9507 21.4431L21.4981 26.3793L23.0493 24.5852L20.9278 22.7079L22.4777 21.0352L21.1311 19.8114L19.5812 21.525L18.8062 20.7909L20.4789 18.9546L19.1323 17.7717ZM42.986 17.9264V39.037H34.7108V19.4725C37.2994 18.5249 40.0835 17.9837 42.986 17.9264ZM44.009 17.9264C53.7495 18.1169 62.156 23.7567 66.3089 31.9217C66.2551 31.85 66.2008 31.7798 66.1452 31.7107C65.1277 30.4468 63.8458 29.6084 62.7538 28.9063C62.667 28.8506 62.5653 28.8226 62.4622 28.8257C62.3031 28.8303 62.1551 28.9088 62.062 29.038C61.8078 29.3899 61.3281 29.6825 60.7026 29.6825H55.9902C55.7537 29.6825 55.5292 29.7469 55.3354 29.8871C55.1417 30.0273 54.9697 30.2782 54.9697 30.5751V31.1122C54.9673 31.1153 54.963 31.1236 54.9428 31.1391C54.8967 31.1745 54.8061 31.212 54.705 31.212H50.6448L50.6486 30.8731V30.8693V30.8667C50.6486 30.2485 50.3334 29.687 49.8468 29.3321L49.8391 29.3257L49.8327 29.3219L48.0577 28.1185L48.0552 28.116L48.0526 28.1147C47.77 27.9281 47.4542 27.8397 47.1562 27.8461C47.0568 27.8483 46.9595 27.8616 46.8659 27.8845C46.4914 27.9762 46.1867 28.2128 45.9899 28.515C45.5962 29.1193 45.6866 30.0747 46.4439 30.616L47.2764 31.2529L47.2828 31.258L47.2892 31.2618C47.4643 31.3872 47.5616 31.5386 47.5616 31.5803L47.5411 32.9294V32.9333V32.9371C47.5411 32.9535 47.5386 32.9576 47.5373 32.9639C47.5139 32.9638 47.4692 32.9586 47.3761 32.9281C47.1793 32.8636 47.0298 32.7804 46.7981 32.6928C46.5664 32.6053 46.2684 32.5355 45.885 32.5355C45.2101 32.5355 44.6556 32.8401 44.3083 33.2453C44.1866 33.3872 44.0874 33.5393 44.009 33.6967V17.9264ZM33.6877 19.8728V40.0601H42.986V46.0193H33.6877V67.1248C31.5381 66.2312 29.5361 65.0535 27.7298 63.6375V46.0193H18.0428C17.9618 45.1909 17.92 44.351 17.92 43.5013C17.92 42.3342 17.9987 41.1858 18.1502 40.0601H27.7298V23.3614C29.5361 21.9448 31.5382 20.7668 33.6877 19.8728ZM51.0271 23.8051C50.6092 23.8051 50.2701 24.1443 50.2701 24.5622C50.2701 24.9801 50.6092 25.3192 51.0271 25.3192C51.445 25.3192 51.7842 24.9801 51.7842 24.5622C51.7842 24.1443 51.445 23.8051 51.0271 23.8051ZM52.9556 23.8051C52.5377 23.8051 52.1985 24.1443 52.1985 24.5622C52.1985 24.9801 52.5377 25.3192 52.9556 25.3192C53.3735 25.3192 53.7126 24.9801 53.7126 24.5622C53.7126 24.1443 53.3735 23.8051 52.9556 23.8051ZM54.8827 23.8051C54.4648 23.8051 54.1257 24.1443 54.1257 24.5622C54.1257 24.9801 54.4648 25.3192 54.8827 25.3192C55.3006 25.3192 55.6398 24.9801 55.6398 24.5622C55.6398 24.1443 55.3006 23.8051 54.8827 23.8051ZM56.8099 23.8051C56.392 23.8051 56.0529 24.1443 56.0529 24.5622C56.0529 24.9801 56.392 25.3192 56.8099 25.3192C57.2278 25.3192 57.567 24.9801 57.567 24.5622C57.567 24.1443 57.2278 23.8051 56.8099 23.8051ZM58.7384 23.8051C58.3205 23.8051 57.9813 24.1443 57.9813 24.5622C57.9813 24.9801 58.3205 25.3192 58.7384 25.3192C59.1562 25.3192 59.4954 24.9801 59.4954 24.5622C59.4954 24.1443 59.1562 23.8051 58.7384 23.8051ZM26.7067 24.2079V39.037H18.3088C19.3442 33.1584 22.3886 27.9702 26.7067 24.2079ZM50.4836 25.7834V27.0111H59.2818V25.7834H50.4836ZM50.4836 27.4356V28.6633H59.2818V27.4356H50.4836ZM74.9805 27.4408L68.0455 30.2554L70.0034 34.8246L71.8385 34.0497L70.8193 31.7235L71.6761 31.3156L72.6556 33.5599L74.327 32.8655L73.3897 30.7043L74.2056 30.3373L75.1839 32.6621L76.8975 31.969L74.9805 27.4408ZM11.6257 28.2976L10.6474 30.4588L17.4187 33.6008L19.5812 29.194L17.9085 28.3372L16.6028 30.6224L11.6257 28.2976ZM47.1856 28.8666C47.2663 28.862 47.3605 28.883 47.4887 28.9677L49.2585 30.1685C49.4791 30.3293 49.6256 30.6267 49.6256 30.8667L49.6051 32.5253V32.5279V32.5317C49.6051 33.1849 49.9355 33.7416 50.3621 34.1302C50.6137 34.3594 50.9018 34.5402 51.21 34.6507C50.9018 34.7612 50.6137 34.942 50.3621 35.1712C49.9355 35.5598 49.6051 36.1165 49.6051 36.7697V36.7735V36.7761L49.6256 38.4411C49.6256 38.681 49.4637 38.9823 49.2432 39.1432L47.4835 40.3363C47.3126 40.4491 47.2079 40.4475 47.1089 40.4232C47.0098 40.399 46.9125 40.3286 46.8467 40.2276C46.7151 40.0255 46.6578 39.7901 47.0385 39.5178L47.0449 39.5127L47.0513 39.5076L47.8979 38.8618C48.1842 38.657 48.5846 38.3127 48.5846 37.7211V37.7173V37.7134L48.5641 36.3566C48.5641 36.0672 48.4601 35.7404 48.1677 35.519C47.8753 35.2977 47.4575 35.2703 47.0577 35.4014C46.7722 35.4949 46.5857 35.5955 46.4362 35.652C46.2867 35.7085 46.1601 35.7428 45.885 35.7428C45.4995 35.7428 45.2628 35.5978 45.0845 35.3898C44.9062 35.1818 44.8147 34.8921 44.8147 34.7018V34.5995C44.8147 34.4093 44.9062 34.1195 45.0845 33.9115C45.2628 33.7035 45.4995 33.5586 45.885 33.5586C46.1601 33.5586 46.2867 33.5929 46.4362 33.6494C46.5857 33.7059 46.7722 33.8064 47.0577 33.9C47.4575 34.0311 47.8753 34.0037 48.1677 33.7824C48.4601 33.561 48.5641 33.2266 48.5641 32.9371L48.5846 31.5879V31.5841V31.5803C48.5846 30.9887 48.1714 30.6355 47.8851 30.4306L47.0513 29.7938L47.0449 29.7887L47.0385 29.7835C46.6578 29.5113 46.7151 29.2759 46.8467 29.0738C46.9125 28.9728 47.0098 28.9024 47.1089 28.8781C47.1336 28.8721 47.1587 28.8682 47.1856 28.8666ZM62.5594 30.0035C63.5386 30.6434 64.5541 31.3659 65.3485 32.3527C66.2402 33.4602 66.8716 34.8852 66.8716 36.9858C66.8716 40.9324 63.186 44.1024 59.6412 44.1024H51.0744C50.831 44.1024 50.582 44.2139 50.4312 44.3863C50.2804 44.5587 50.2199 44.7667 50.2215 44.9656C50.2231 45.1645 50.2872 45.3677 50.4363 45.5372C50.5855 45.7066 50.8306 45.8198 51.0744 45.8198H59.4379C62.4448 45.8198 64.048 47.7551 64.048 50.0399C64.048 52.2665 62.3827 54.3597 59.4583 54.3597H50.8404C50.6316 54.3597 50.4096 54.4544 50.2726 54.6065C50.1357 54.7587 50.0784 54.9437 50.0795 55.1206C50.0806 55.2975 50.1382 55.4796 50.2739 55.6296C50.4096 55.7796 50.6308 55.8751 50.8404 55.8751H57.2549C58.6356 55.8751 59.81 57.2205 59.81 58.5056C59.81 59.1572 59.6248 59.7588 59.2154 60.1962C58.8059 60.6336 58.1518 60.9507 57.0516 60.9507H53.2049C53.0516 60.9507 52.8904 60.9842 52.742 61.0914C52.5936 61.1985 52.4723 61.4031 52.4786 61.6157C52.4849 61.8282 52.6073 62.0105 52.7497 62.1119C52.8921 62.2133 53.0511 62.25 53.2049 62.25H55.7562C56.1161 62.25 56.3822 62.4074 56.5925 62.663C56.8028 62.9187 56.925 63.2769 56.925 63.5633C56.925 63.9199 56.7933 64.2495 56.5605 64.4559C56.4096 64.5898 56.2009 64.6827 55.9147 64.7053C55.9288 64.5579 55.9312 64.391 55.8329 64.1912C55.7162 63.9542 55.3908 63.7654 55.1142 63.7654H53.5835C53.0503 63.7654 52.4619 63.5643 52.0272 63.1848C51.5924 62.8052 51.2944 62.2673 51.2944 61.4929C51.2944 60.7808 51.5921 60.2731 52.0144 59.9085C52.4367 59.5438 52.9976 59.3535 53.4108 59.3535H57.1731C57.3429 59.3535 57.5084 59.3242 57.6667 59.2281C57.825 59.1321 57.9879 58.9298 57.9877 58.6783C57.9875 58.4267 57.8235 58.2242 57.6654 58.1284C57.5073 58.0325 57.3429 58.0043 57.1731 58.0043H51.2791C49.0112 58.0043 47.7483 56.3995 47.7483 54.6692C47.7483 53.1255 49.0704 51.2957 51.0744 51.2957H59.8458C60.0846 51.2957 60.3302 51.1843 60.4763 51.0143C60.6223 50.8444 60.6797 50.6422 60.6783 50.4491C60.6769 50.2561 60.617 50.0576 60.4724 49.8903C60.3279 49.723 60.0851 49.6102 59.8458 49.6102H50.912C48.4146 49.6102 46.4388 47.7583 46.4388 44.9617C46.4388 42.6257 48.3502 40.2301 51.1768 40.2301H59.2742C59.7157 40.2301 60.1119 40.0315 60.3548 39.7416C60.5977 39.4518 60.7059 39.0946 60.7077 38.7429C60.7096 38.3912 60.6047 38.0309 60.3612 37.739C60.1176 37.4472 59.7186 37.2492 59.2742 37.2492H50.6345L50.6281 36.7646C50.6281 36.4654 50.7907 36.1645 51.0514 35.9269C51.3122 35.6894 51.6629 35.5535 51.8775 35.5535H56.7191C56.9064 35.5535 57.0919 35.5102 57.2741 35.3847C57.4564 35.2592 57.6258 34.9886 57.6258 34.6507C57.6258 34.3026 57.5222 34.1266 57.2741 33.9167C57.0919 33.7911 56.9064 33.7479 56.7191 33.7479H51.8775C51.6629 33.7479 51.3122 33.612 51.0514 33.3744C50.7907 33.1369 50.6281 32.8309 50.6281 32.5317L50.632 32.235H56.5414C56.8685 32.235 57.1669 32.1301 57.402 31.9498C57.6371 31.7696 57.8291 31.493 57.8291 31.1442V30.7056H60.7026C61.4481 30.7056 62.0957 30.4278 62.5594 30.0035ZM67.7731 35.4231C68.6178 37.9624 69.075 40.6788 69.075 43.5013C69.075 52.4359 64.4932 60.2999 57.5503 64.8728C57.8214 64.4872 57.948 64.0223 57.948 63.5633C57.948 63.0165 57.7517 62.4619 57.3828 62.0134C57.3682 61.9956 57.3507 61.9796 57.3355 61.9622C58.4992 61.906 59.385 61.5123 59.9622 60.8957C60.586 60.2293 60.833 59.3535 60.833 58.5056C60.833 57.2529 60.1318 56.0476 59.0696 55.3828H59.4583C62.8856 55.3828 65.071 52.7937 65.071 50.0399C65.071 47.705 63.5523 45.6133 61.0261 44.9899C64.6531 44.3085 67.8946 41.0448 67.8946 36.9858C67.8946 36.4302 67.8515 35.9104 67.7731 35.4231ZM44.009 35.6047C44.0874 35.7621 44.1866 35.9142 44.3083 36.0561C44.6556 36.4612 45.2101 36.7658 45.885 36.7658C46.2684 36.7658 46.5664 36.6961 46.7981 36.6085C47.0298 36.521 47.1792 36.4378 47.3761 36.3732C47.4692 36.3428 47.5139 36.3376 47.5373 36.3374C47.5386 36.3439 47.5411 36.3484 47.5411 36.3643V36.3681V36.372L47.5616 37.7288C47.5616 37.7705 47.4643 37.9142 47.2892 38.0395L47.2828 38.0434L47.2764 38.0485L46.4311 38.6956C45.6738 39.237 45.5962 40.182 45.9899 40.7864C46.1574 41.0435 46.4033 41.2524 46.7035 41.3657C45.8841 42.3916 45.4157 43.6734 45.4157 44.9617C45.4157 47.8033 47.2584 49.9574 49.7023 50.4977C47.8719 51.1232 46.7252 52.9516 46.7252 54.6692C46.7252 56.9212 48.5089 59.0274 51.2791 59.0274H51.4798C51.4349 59.0624 51.3891 59.0959 51.3456 59.1335C50.7318 59.6635 50.2714 60.4808 50.2714 61.4929C50.2714 62.5449 50.7162 63.3998 51.3532 63.9559C51.9903 64.512 52.8018 64.7884 53.5835 64.7884H54.8648C54.8384 64.8818 54.8086 64.9687 54.8086 64.9687C54.7458 65.1108 54.751 65.2734 54.8226 65.4112C54.8943 65.549 55.0246 65.6469 55.1769 65.6772C55.543 65.7497 55.889 65.7547 56.2025 65.7015C52.5976 67.7684 48.4414 68.9832 44.009 69.0699V35.6047ZM16.4404 36.496L8.48496 39.1073L8.19979 41.4731L15.7473 45.5525L15.7064 42.8197L14.5657 42.2916L14.7371 39.482L16.0734 39.1483L16.4404 36.496ZM74.9396 36.7415C72.2768 36.7415 70.942 38.9236 70.942 41.1061C70.942 43.2886 72.5211 45.472 74.9396 45.472C77.357 45.472 78.9781 43.4926 78.9781 41.1061C78.9781 38.7604 77.5616 36.7415 74.9396 36.7415ZM50.646 38.2723H59.2742C59.4489 38.2723 59.5131 38.3198 59.576 38.395C59.6388 38.4703 59.6854 38.5999 59.6847 38.7378C59.6839 38.8756 59.6356 39.007 59.5709 39.0843C59.5061 39.1616 59.4415 39.2071 59.2742 39.2071H51.1768C50.9302 39.2071 50.6893 39.2229 50.4542 39.2519C50.5783 39.0021 50.6486 38.725 50.6486 38.4347V38.4321V38.4283L50.646 38.2723ZM74.9907 39.1073C76.1644 39.1073 76.8489 40.2034 76.8489 41.1061C76.8489 41.9885 76.1392 43.1049 74.9907 43.1049C73.8418 43.1049 73.1736 42.1362 73.1736 41.1061C73.1736 40.0761 73.8171 39.1073 74.9907 39.1073ZM12.9467 39.9296L12.8495 41.4949L10.6884 40.4936L12.9467 39.9296ZM18.163 47.0424H26.7067V62.7909C22.1639 58.8344 19.0303 53.2998 18.163 47.0424ZM34.7108 47.0424H42.986V69.0699C40.0835 69.0126 37.2994 68.4709 34.7108 67.5238V47.0424Z"
        fill="url(#paint3_linear_809_305)" />
    <path fill-rule="evenodd" clip-rule="evenodd"
        d="M47.1855 28.8666C47.2662 28.8619 47.3604 28.883 47.4886 28.9676L49.2584 30.1684C49.479 30.3292 49.6255 30.6267 49.6255 30.8666L49.605 32.5253V32.5278V32.5316C49.605 33.1849 49.9354 33.7415 50.3621 34.1302C50.6136 34.3593 50.9017 34.5401 51.2099 34.6506C50.9017 34.7611 50.6136 34.942 50.3621 35.1711C49.9354 35.5598 49.605 36.1164 49.605 36.7696V36.7735V36.776L49.6255 38.441C49.6255 38.681 49.4637 38.9823 49.2431 39.1431L47.4835 40.3362C47.3125 40.4491 47.2078 40.4475 47.1088 40.4232C47.0097 40.3989 46.9124 40.3286 46.8466 40.2275C46.715 40.0255 46.6577 39.79 47.0384 39.5178L47.0448 39.5127L47.0512 39.5076L47.8978 38.8618C48.1841 38.6569 48.5845 38.3126 48.5845 37.7211V37.7172V37.7134L48.564 36.3566C48.564 36.0671 48.4601 35.7403 48.1676 35.5189C47.8752 35.2976 47.4574 35.2702 47.0576 35.4013C46.7721 35.4949 46.5856 35.5955 46.4361 35.6519C46.2866 35.7084 46.16 35.7427 45.8849 35.7427C45.4994 35.7427 45.2627 35.5978 45.0844 35.3898C44.9061 35.1818 44.8146 34.8921 44.8146 34.7018V34.5995C44.8146 34.4092 44.9061 34.1195 45.0844 33.9115C45.2627 33.7035 45.4994 33.5585 45.8849 33.5585C46.16 33.5585 46.2866 33.5928 46.4361 33.6493C46.5856 33.7058 46.7721 33.8064 47.0576 33.9C47.4574 34.031 47.8752 34.0037 48.1676 33.7823C48.4601 33.561 48.564 33.2265 48.564 32.937L48.5845 31.5879V31.5841V31.5802C48.5845 30.9886 48.1713 30.6354 47.885 30.4306L47.0512 29.7937L47.0448 29.7886L47.0384 29.7835C46.6577 29.5113 46.715 29.2758 46.8466 29.0737C46.9124 28.9727 47.0097 28.9024 47.1088 28.8781C47.1335 28.872 47.1586 28.8681 47.1855 28.8666Z"
        fill="#9D0D16" />
    <path fill-rule="evenodd" clip-rule="evenodd"
        d="M62.5595 30.0035C63.5387 30.6434 64.5542 31.3659 65.3486 32.3527C66.2403 33.4602 66.8717 34.8852 66.8717 36.9858C66.8717 40.9324 63.1861 44.1024 59.6413 44.1024H51.0745C50.8311 44.1024 50.5821 44.2139 50.4313 44.3863C50.2805 44.5586 50.22 44.7667 50.2216 44.9656C50.2232 45.1644 50.2873 45.3677 50.4364 45.5372C50.5856 45.7066 50.8307 45.8198 51.0745 45.8198H59.4379C62.4449 45.8198 64.0481 47.7551 64.0481 50.0399C64.0481 52.2664 62.3828 54.3597 59.4584 54.3597H50.8405C50.6317 54.3597 50.4097 54.4544 50.2727 54.6065C50.1357 54.7586 50.0785 54.9437 50.0796 55.1206C50.0807 55.2975 50.1383 55.4795 50.274 55.6296C50.4097 55.7795 50.6309 55.8751 50.8405 55.8751H57.255C58.6357 55.8751 59.8101 57.2205 59.8101 58.5056C59.8101 59.1572 59.6249 59.7588 59.2154 60.1962C58.806 60.6336 58.1519 60.9507 57.0517 60.9507H53.205C53.0517 60.9507 52.8905 60.9842 52.7421 61.0913C52.5937 61.1985 52.4724 61.4031 52.4787 61.6157C52.4849 61.8282 52.6073 62.0104 52.7498 62.1118C52.8922 62.2132 53.0512 62.25 53.205 62.25H55.7563C56.1161 62.25 56.3823 62.4074 56.5926 62.663C56.8029 62.9187 56.9251 63.2769 56.9251 63.5633C56.9251 63.9199 56.7933 64.2495 56.5606 64.4559C56.4097 64.5898 56.201 64.6827 55.9148 64.7053C55.9289 64.5579 55.9313 64.3909 55.833 64.1912C55.7163 63.9541 55.3909 63.7653 55.1143 63.7653H53.5836C53.0504 63.7653 52.462 63.5643 52.0272 63.1848C51.5925 62.8052 51.2945 62.2673 51.2945 61.4929C51.2945 60.7808 51.5921 60.2731 52.0145 59.9085C52.4368 59.5438 52.9977 59.3534 53.4109 59.3534H57.1732C57.343 59.3534 57.5085 59.3241 57.6668 59.2281C57.8251 59.1321 57.988 58.9298 57.9878 58.6782C57.9875 58.4266 57.8236 58.2242 57.6655 58.1283C57.5074 58.0325 57.343 58.0043 57.1732 58.0043H51.2791C49.0113 58.0043 47.7483 56.3995 47.7483 54.6692C47.7483 53.1255 49.0705 51.2957 51.0745 51.2957H59.8459C60.0846 51.2957 60.3303 51.1843 60.4763 51.0143C60.6224 50.8444 60.6798 50.6422 60.6784 50.4491C60.677 50.256 60.6171 50.0575 60.4725 49.8903C60.3279 49.723 60.0852 49.6102 59.8459 49.6102H50.9121C48.4146 49.6102 46.4388 47.7583 46.4388 44.9617C46.4388 42.6257 48.3502 40.2301 51.1768 40.2301H59.2743C59.7158 40.2301 60.112 40.0315 60.3549 39.7416C60.5977 39.4518 60.706 39.0946 60.7078 38.7429C60.7097 38.3912 60.6048 38.0309 60.3612 37.739C60.1177 37.4471 59.7186 37.2492 59.2743 37.2492H50.6346L50.6282 36.7645C50.6282 36.4654 50.7908 36.1644 51.0515 35.9269C51.3123 35.6894 51.663 35.5535 51.8776 35.5535H56.7192C56.9065 35.5535 57.092 35.5102 57.2742 35.3847C57.4564 35.2592 57.6259 34.9886 57.6259 34.6507C57.6259 34.3026 57.5223 34.1266 57.2742 33.9166C57.092 33.7911 56.9065 33.7478 56.7192 33.7478H51.8776C51.663 33.7478 51.3123 33.6119 51.0515 33.3744C50.7908 33.1369 50.6282 32.8308 50.6282 32.5317L50.6321 32.235H56.5414C56.8686 32.235 57.167 32.1301 57.4021 31.9498C57.6371 31.7695 57.8292 31.493 57.8292 31.1442V30.7055H60.7027C61.4481 30.7055 62.0958 30.4278 62.5595 30.0035Z"
        fill="url(#paint4_linear_809_305)" />
    <defs>
        <linearGradient id="paint0_linear_809_305" x1="26.8916" y1="26.704" x2="43.3568" y2="71.415"
            gradientUnits="userSpaceOnUse">
            <stop stop-color="white" />
            <stop offset="1" stop-color="#53EEEF" />
        </linearGradient>
        <linearGradient id="paint1_linear_809_305" x1="42.5402" y1="19.6734" x2="59.7736" y2="69.0692"
            gradientUnits="userSpaceOnUse">
            <stop stop-color="#2F7FBE" />
            <stop offset="1" stop-color="#225D8B" />
        </linearGradient>
        <linearGradient id="paint2_linear_809_305" x1="22.6281" y1="25.1709" x2="45.29" y2="69.4569"
            gradientUnits="userSpaceOnUse">
            <stop stop-color="#D50D16" />
            <stop offset="0.5" stop-color="#880D16" />
            <stop offset="1" stop-color="#520D16" />
        </linearGradient>
        <linearGradient id="paint3_linear_809_305" x1="18.1539" y1="19.459" x2="68.2086" y2="62.2118"
            gradientUnits="userSpaceOnUse">
            <stop stop-color="#F8FFBF" />
            <stop offset="0.508929" stop-color="#F8E45E" />
            <stop offset="0.75" stop-color="#F8D35E" />
            <stop offset="1" stop-color="#EE8E0A" />
        </linearGradient>
        <linearGradient id="paint4_linear_809_305" x1="50.192" y1="33.6474" x2="60.3445" y2="63.8354"
            gradientUnits="userSpaceOnUse">
            <stop stop-color="#157031" />
            <stop offset="1" stop-color="#0F5324" />
        </linearGradient>
    </defs>
</svg>