<svg width="100%" height="100%" viewBox="0 0 90 105" xmlns="http://www.w3.org/2000/svg">
    <clipPath id="_clipRainbowEffect">
        <path
            d="M64.671,0c-5.609,0.387 -12.165,3.953 -15.993,8.602c-3.477,4.218 -6.347,10.479 -5.23,16.562c6.121,0.191 12.453,-3.465 16.128,-8.18c3.43,-4.406 6.04,-10.628 5.095,-16.983l0,-0.001Zm2.074,24.483c-9.449,-0 -13.441,4.493 -19.992,4.493c-6.754,-0 -11.896,-4.484 -20.06,-4.484c-8.027,-0 -16.558,4.879 -21.968,13.207c-0.031,0.051 -0.067,0.1 -0.098,0.155c-2.309,3.613 -3.777,8.195 -4.351,13.348c-0.465,4.145 -0.344,8.668 0.387,13.352c0.683,4.359 1.898,8.868 3.668,13.352c1.648,4.176 3.781,8.34 6.417,12.352c0.219,0.332 0.442,0.668 0.668,1.003c4.332,6.446 10.02,13.274 17.344,13.34c6.852,0.063 8.794,-4.371 18.087,-4.422c9.296,-0.051 11.054,4.469 17.906,4.406c7.02,-0.062 12.808,-7.011 17.117,-13.332c0.422,-0.617 0.828,-1.227 1.223,-1.825c2.926,-4.453 4.147,-6.863 6.261,-11.515c0.172,-0.375 0.349,-0.766 0.536,-1.172c-6.16,-2.328 -10.532,-6.855 -12.895,-12.183c-1.859,-4.18 -2.472,-8.86 -1.742,-13.356c0.813,-4.976 3.282,-9.73 7.547,-13.343c1.2,-1.019 2.542,-1.945 4.035,-2.761c-5.391,-6.723 -12.957,-10.614 -20.089,-10.614l-0.001,-0.001Z" />
    </clipPath>
    <g clip-path="url(#_clipRainbowEffect)">
        <rect id="line1" x="-13.341" y="-13.34" width="116.573" height="117.963" fill="currentColor" />
        <rect id="line2" x="-13.341" y="37.855" width="116.573" height="26.699" fill="none" />
        <rect id="line3" x="-13.341" y="51.207" width="116.573" height="26.695" fill="none" />
        <rect id="line4" x="-13.341" y="64.557" width="116.573" height="26.699" fill="none" />
        <rect id="line5" x="-13.341" y="77.907" width="116.573" height="26.68" fill="none" />
        <rect id="line6" x="-13.341" y="91.267" width="116.573" height="26.68" fill="none" />
    </g>
</svg>