<svg width="100%" height="100%" viewBox="0 0 145 49" xmlns="http://www.w3.org/2000/svg">
    <g>
        <path fill-rule="evenodd" clip-rule="evenodd"
            d="M84.7107 4.12389C80.439 2.04635 76.5538 1.36993 71.9439 1.36993C67.7655 1.36993 63.3971 2.25627 59.432 3.96895C55.3051 2.53283 45.4189 3.38584 43.2581 3.43415C40.784 3.4908 30.5478 2.8727 28.1305 2.8727C25.713 2.8727 20.7149 2.951 16.9447 3.20924C11.2051 3.60409 4.71599 3.0443 3.93296 2.84937C3.5531 2.75608 3.27147 2.98599 3.27147 2.98599C3.10327 3.20924 1.3606 5.17683 1.3606 5.17683L1.53053 5.74162L5.63391 7.82083L5.07253 10.5215L9.06768 12.3225C9.06768 12.3225 9.06768 14.5683 9.2892 14.8498C9.51418 15.1347 13.5093 16.1444 13.5093 16.1444C13.5093 16.1444 13.9075 18.77 14.184 19.0116C14.6522 19.4281 18.854 19.8579 18.854 19.8579C18.854 19.8579 20.1451 22.2187 20.7066 22.4436C21.2697 22.6686 25.7696 23.345 26.6111 23.1184C26.6111 23.1184 26.9842 25.0843 27.7806 25.4392C28.6319 25.8157 33.5284 25.6524 33.5284 25.6524C33.5284 25.6524 34.1365 27.59 35.1112 27.8932C36.0224 28.1748 40.2775 27.0552 40.2775 27.0552C40.2775 27.0552 40.899 28.4914 41.517 28.7429C42.46 29.1278 45.8971 27.9082 45.8971 27.9082C47.6647 35.1905 53.5525 40.3435 60.4865 43.0375L61.4561 44.9868L63.7353 44.1238L64.9266 45.9514L67.0074 44.8202L68.4253 46.5395L70.2945 45.1867L71.9422 46.7161L73.5833 45.1417L75.4575 46.5129L76.8687 44.7969L78.9529 45.9314L80.1475 44.1188L82.4366 44.9968L83.3796 43.0458C89.8072 40.5518 95.7583 35.3588 97.6925 28.7746C98.294 29.0428 99.4351 29.4327 100.378 29.4726C100.378 29.4726 101.453 29.0845 101.889 27.725C101.889 27.725 105.619 28.8895 106.301 28.6813C106.301 28.6813 106.927 28.648 107.505 26.7403C107.887 26.9153 108.204 26.822 108.772 26.9453C111.676 27.5767 112.942 27.2352 112.942 27.2352C112.942 27.2352 113.592 27.1252 114.106 24.6795C114.365 24.7178 114.549 24.7494 114.744 24.7378C114.744 24.7378 119.056 24.8611 119.802 24.4879C119.802 24.4879 120.484 24.3163 120.729 21.8655C122.506 22.1321 124.106 22.2487 125.4 22.1004C125.4 22.1004 126.85 21.6023 127.408 18.7517C128.386 18.6901 131.27 18.4985 131.628 18.0736C131.628 18.0736 132.338 17.7471 132.338 15.1864C133.466 15.1131 135.3 14.8765 135.961 14.1734C135.961 14.1734 136.661 13.3637 136.358 11.4128C139.022 10.8547 139.946 9.98668 139.946 9.98668C139.928 9.0437 139.099 7.30936 139.099 7.30936C139.099 7.30936 142.079 6.15979 142.804 5.57668L143.039 5.14517C143.039 5.14517 141.234 2.98266 140.955 2.92435C140.313 2.79106 134.547 3.62575 130.82 3.62575C127.09 3.62575 120.367 3.0593 117.6 3.0593C114.831 3.0593 106.186 3.68239 102.119 3.68239C98.0507 3.68239 96.4729 3.0593 93.4791 3.0593C91.6181 3.0593 87.3448 3.17758 84.7107 4.12389Z"
            fill="black" />
        <path
            d="M133.616 8.14381C132.65 8.14548 131.687 8.14881 130.724 8.14881C129.078 8.22545 127.312 8.1788 125.612 8.20545C123.375 8.24044 118.223 8.28209 117.962 8.30208C116.894 8.30208 115.824 8.30208 114.758 8.30208C112.94 8.30208 111.336 8.29542 109.52 8.29542C109.212 8.30875 107.371 8.35873 106.789 8.3554C106.53 8.34873 106.06 8.31708 105.801 8.3554C105.372 8.42204 104.67 9.3267 105.515 9.3267C105.552 9.31837 105.591 9.3117 105.631 9.30671C105.717 9.29504 105.801 9.28171 105.888 9.26672C106.125 9.19341 106.433 9.28171 106.674 9.30004C107.124 9.3317 107.579 9.36668 108.031 9.39834C109.219 9.47997 110.405 9.55994 111.589 9.64324C112.441 9.71155 113.295 9.78319 114.147 9.84983C120.383 10.243 126.544 10.8011 133.006 10.8011C134.501 10.8011 135.835 10.1464 136.305 9.99644C136.505 9.93147 136.925 9.88482 137.083 9.74321C137.416 9.45165 137.033 8.39372 136.713 8.20046C136.495 8.06717 133.857 8.13048 133.616 8.14381Z"
            fill="white" />
        <path
            d="M8.1703 8.61786C7.84376 8.74115 7.70048 8.90442 7.65716 9.26595C7.62211 9.52918 7.82203 10.1356 8.46179 10.4672C8.91828 10.6754 10.6527 11.4851 11.0992 11.5801C11.5124 11.6684 37.6225 10.1423 37.6641 10.1356C38.0173 9.97401 38.9753 9.70911 38.892 9.15099C38.8687 8.99105 38.6171 8.83278 38.4771 8.77613C38.1823 8.66451 34.9651 8.95773 34.7252 8.9594C32.5078 8.9594 8.77007 8.61786 8.1703 8.61786Z"
            fill="white" />
        <path
            d="M99.6844 9.0116C99.3963 9.00493 99.1046 9.1782 98.9913 9.48975C98.8965 9.74632 98.8647 10.0962 99.0864 10.2745C99.3163 10.4577 99.6728 10.5094 99.961 10.5843C100.426 10.7043 100.892 10.8242 101.354 10.9442C101.89 11.0758 102.337 11.1508 102.958 11.2124C103.438 11.2574 103.855 11.1508 103.979 10.7659C104.118 10.3194 104.068 10.0212 103.72 9.82296C103.556 9.73133 102.885 9.5414 101.905 9.36147C100.949 9.18653 99.9694 9.02993 99.6844 9.0116Z"
            fill="white" />
        <path
            d="M43.6946 8.99074C42.7832 9.2723 41.8419 9.41058 40.8923 9.58718C40.5207 9.65216 40.0309 9.67215 39.7294 9.88207C39.591 9.9787 39.5144 10.1253 39.4762 10.2803C39.4428 10.4352 39.4644 10.6185 39.5577 10.7284C39.6961 10.8934 40.574 11.2749 41.1438 11.1766C42.0468 10.9583 42.8331 10.6701 43.6728 10.3985C43.9645 10.3136 44.3443 10.2653 44.5542 10.0337C44.7841 9.77878 44.6325 9.49722 44.4509 9.27897C44.2626 9.05905 43.9694 8.92577 43.6946 8.99074Z"
            fill="white" />
        <path
            d="M105.396 10.4403C105.288 10.4886 105.179 10.5203 105.093 10.6102C104.798 10.9101 104.726 11.4049 105.298 11.4049C105.529 11.335 106.156 11.4299 106.379 11.4649C106.794 11.5266 107.207 11.5915 107.619 11.6565C109.29 11.9197 110.962 12.183 112.633 12.4462C114.651 12.7761 116.677 13.1126 118.728 13.3392C120.167 13.4992 121.6 13.7524 123.054 13.8907C125.297 14.1039 127.509 14.4188 129.88 14.4188C130.023 14.4138 130.168 14.4055 130.312 14.4005C130.395 14.3905 130.482 14.3855 130.567 14.3822C130.625 14.3722 130.688 14.3672 130.747 14.3605C130.81 14.3538 130.875 14.3472 130.941 14.3388C131.011 14.3338 131.085 14.3272 131.156 14.3222C131.218 14.3122 131.275 14.3088 131.335 14.3022C131.381 14.2922 131.426 14.2872 131.47 14.2805C131.511 14.2755 131.55 14.2672 131.591 14.2622C131.631 14.2555 131.668 14.2489 131.706 14.2422C131.746 14.2355 131.788 14.2305 131.826 14.2222C132.041 14.1672 132.256 14.1106 132.468 14.0539C133.219 13.824 133.602 13.5091 133.864 12.7644C133.92 12.5962 133.992 12.3596 133.86 12.208C133.742 12.0747 133.559 12.0514 133.379 12.043C132.436 12.043 131.491 12.0397 130.548 12.0397C129.262 11.9931 127.981 11.9447 126.691 11.8981C121.926 11.6748 117.195 11.2933 112.475 10.9901C110.876 10.8668 109.276 10.7435 107.675 10.6186C107.014 10.5669 106.088 10.4403 105.396 10.4403Z"
            fill="white" />
        <path
            d="M44.8228 11.0969C43.9482 11.2668 43.1701 11.6417 42.3471 11.9183C42.0072 12.0299 41.5707 12.1099 41.3192 12.3864C41.1659 12.5547 41.126 12.7696 41.1809 13.0045C41.2159 13.1611 41.2859 13.396 41.3959 13.5193C41.6158 13.7692 42.1972 14.0025 42.5887 14.0025C42.8069 13.9958 43.1435 13.9275 43.2851 13.8709C43.9282 13.5243 44.568 13.1795 45.2111 12.8329C45.431 12.7146 45.7142 12.6796 45.8942 12.4931C46.5073 11.8616 45.3444 11.0086 44.8228 11.0969Z"
            fill="white" />
        <path
            d="M98.4822 11.4157C98.1157 11.5357 97.2827 11.9888 97.6409 12.3937C97.7825 12.5569 98.2374 12.7102 98.4322 12.7768C98.6739 12.8818 98.6572 12.9118 98.8971 13.0168C99.1686 13.1417 99.4352 13.2683 99.7051 13.3916C100.208 13.6365 100.477 13.9031 101.11 13.9031C101.856 13.8864 102.191 14.0014 102.561 13.295C102.661 13.1117 102.594 12.9068 102.487 12.7685C102.312 12.5403 101.323 12.1804 100.893 12.0338C100.05 11.7472 98.7188 11.3524 98.4822 11.4157Z"
            fill="white" />
        <path
            d="M38.3362 11.2145C37.7465 11.2745 33.4365 11.6893 31.8671 11.7893C31.0274 11.8576 16.3696 12.7689 15.0917 12.7872C14.8551 12.8055 11.7563 12.7722 11.4348 13.0455C11.2682 13.1871 11.4531 14.0251 11.613 14.1784C11.9113 14.4666 12.456 14.5515 12.8476 14.6598C13.9854 14.9797 15.0084 15.3429 16.3296 15.3429C16.4163 15.3363 39.3343 12.414 39.7508 12.414C39.8108 12.3557 39.869 12.3141 39.859 12.2208C39.8407 12.0125 39.0393 11.3761 38.8394 11.2845C38.6912 11.2178 38.5195 11.2145 38.3362 11.2145Z"
            fill="white" />
        <path
            d="M104.04 12.1564C103.815 12.2414 103.547 12.358 103.604 12.6696C103.642 12.8928 103.739 13.2477 103.924 13.3893C104.24 13.6325 104.95 13.7275 105.355 13.8325C106.479 14.124 107.609 14.4139 108.735 14.7021C110.399 15.1303 112.077 15.4835 113.77 15.8834C115.817 16.3698 117.935 16.7963 120.044 17.1379C121.205 17.3228 122.37 17.5327 123.566 17.6877C124.183 17.766 124.782 17.8793 125.432 17.8793C125.494 17.8743 125.55 17.8676 125.612 17.8593C125.72 17.8543 125.837 17.8476 125.947 17.841C126.025 17.8343 126.102 17.8293 126.183 17.821C126.24 17.8143 126.298 17.8093 126.358 17.801C126.445 17.796 126.532 17.7893 126.613 17.7826C126.702 17.7743 126.785 17.7676 126.87 17.7643C126.957 17.7543 127.04 17.7493 127.126 17.7427C127.193 17.736 127.256 17.7293 127.321 17.7227C127.381 17.716 127.44 17.7093 127.5 17.7043C127.558 17.696 127.618 17.691 127.676 17.6843C127.735 17.676 127.793 17.671 127.855 17.6627C127.905 17.6577 127.958 17.651 128.008 17.6444C128.049 17.6394 128.088 17.631 128.129 17.6244C128.168 17.6177 128.208 17.6127 128.248 17.6044C128.288 17.5977 128.326 17.5927 128.363 17.5844C128.404 17.5794 128.443 17.5711 128.484 17.5644C128.716 17.4578 128.964 17.4628 129.181 17.3178C129.474 17.1196 130.18 16.1416 129.805 15.8317C129.509 15.5835 127.899 15.6335 127.4 15.5935C125.877 15.4735 124.363 15.2886 122.86 15.1436C120.701 14.9404 118.555 14.5589 116.429 14.2856C113.905 13.9608 111.419 13.5492 108.937 13.1344C107.784 12.9361 106.628 12.7412 105.478 12.5413C104.977 12.4213 104.603 12.1564 104.04 12.1564Z"
            fill="white" />
        <path
            d="M38.0221 13.6381C36.7426 13.8631 35.4664 14.0846 34.1869 14.3079C32.1643 14.6778 24.2091 15.8673 22.2481 16.0856C20.9786 16.2272 19.7124 16.3738 18.4129 16.4771C16.0355 16.3621 15.6157 16.7536 15.9171 17.3884C16.0471 17.6616 16.1755 18.0232 16.4354 18.2197C16.7535 18.458 19.4009 18.9945 20.4254 18.9945C21.6583 19.0361 27.1246 18.1664 28.0292 17.9432C29.4371 17.5983 40.158 14.7127 40.4329 14.5311C40.6445 14.3895 40.4712 13.7448 40.208 13.4166C39.9781 13.1317 38.6119 13.5315 38.0221 13.6381Z"
            fill="white" />
        <path
            d="M46.6727 13.3566C46.2895 13.3749 43.6754 15.001 43.4888 15.2459C43.3606 15.4125 43.3639 15.6141 43.4272 15.8157C43.4772 15.9756 43.5221 16.1422 43.6454 16.2655C43.932 16.5537 44.5717 16.5621 45.0033 16.5621C45.1199 16.5171 45.2382 16.4704 45.3565 16.4238C45.5864 16.2955 45.7713 16.1006 45.9863 15.934C46.4277 15.5758 46.7643 15.3225 47.2058 14.966C47.4307 14.8077 47.9471 14.6778 48.0922 14.4295C48.4636 13.7865 47.1141 13.3466 46.6727 13.3566Z"
            fill="white" />
        <path
            d="M96.7832 13.3567C96.3483 13.38 95.5503 13.6482 95.477 14.223C95.457 14.3696 95.4819 14.5196 95.5903 14.6079C95.7852 14.7712 97.3263 15.5475 97.8177 15.8624C98.1909 16.099 98.4792 16.3839 98.974 16.3839C99.6404 16.3622 99.8769 16.1989 100.04 16.1007C100.329 15.9224 100.675 15.4826 100.425 15.1393C100.205 14.8328 99.737 14.7012 99.4171 14.5546C99.0639 14.388 98.7124 14.2214 98.3575 14.0548C98.1209 13.9365 97.168 13.3567 96.7832 13.3567Z"
            fill="white" />
        <path
            d="M103.174 14.4975C102.942 14.5991 102.712 14.7024 102.481 14.804C102.164 14.9307 101.369 15.1006 101.559 15.5821C101.714 15.9769 105.461 17.0849 106.609 17.4947C109.598 18.5293 112.155 19.4123 115.306 20.107C117.595 20.6119 120.032 21.1816 122.566 21.1816C122.67 21.1766 122.776 21.1716 122.876 21.1633C122.951 21.1566 123.02 21.15 123.095 21.145C123.136 21.1367 123.173 21.1317 123.213 21.125C123.386 21.0367 123.556 20.9984 123.719 20.8868C123.972 20.7052 124.114 20.4353 124.311 20.217C124.492 20.0171 124.764 19.8638 124.872 19.6239C124.919 19.5123 124.924 19.3673 124.851 19.2674C124.766 19.1591 124.637 19.1274 124.511 19.0924C123.929 19.0141 123.346 18.9358 122.761 18.8559C121.627 18.6726 120.494 18.4893 119.358 18.3061C117.835 18.0512 116.305 17.7196 114.814 17.3947C112.427 16.8766 110.083 16.3518 107.757 15.7537C106.676 15.4688 105.593 15.1872 104.512 14.904C104.283 14.8324 104.053 14.7641 103.823 14.6924C103.605 14.6141 103.425 14.5142 103.174 14.4975Z"
            fill="white" />
        <path
            d="M48.9692 15.2012C48.5793 15.2012 47.4431 16.3607 47.0233 16.7006C46.8233 16.8672 46.3318 17.297 46.2302 17.5386C46.0386 18.0118 46.3351 18.265 46.6434 18.4933C46.9266 18.7048 47.7946 18.5699 48.1795 18.2817C48.461 18.0701 50.2687 16.4507 50.3769 16.2608C50.9001 15.3361 49.5772 15.2012 48.9692 15.2012Z"
            fill="white" />
        <path
            d="M41.697 15.2059C41.5437 15.2475 41.3855 15.2925 41.2322 15.3358C40.8273 15.5074 31.4242 18.423 26.9676 19.371C25.6814 19.6442 24.3802 19.8208 23.054 20.0157C22.6475 20.0757 21.7862 20.0191 21.503 20.259C21.3197 20.4239 21.8611 21.2936 22.0161 21.5301C22.4093 22.1149 27.0209 22.3099 29.0717 21.7684C29.9014 21.5252 42.1135 17.2501 42.3634 16.9319C42.6199 16.6037 42.5566 15.7857 42.5217 15.6374C42.4333 15.2609 42.0702 15.2059 41.697 15.2059Z"
            fill="white" />
        <path
            d="M94.558 15.2654C94.1899 15.3637 93.6201 15.2054 93.3902 15.5503C93.2636 15.7352 93.2369 16.0351 93.3552 16.2167C93.4984 16.4316 95.4894 18.0627 95.726 18.1843C96.0392 18.3442 96.4473 18.3342 96.8389 18.3342C97.1688 18.3276 97.8501 18.051 97.7686 17.5279C97.7486 17.3896 97.6553 17.2663 97.5502 17.1697C97.247 16.8948 96.8738 16.7182 96.544 16.4883C96.2625 16.2983 95.9459 16.0584 95.6643 15.8685C95.4077 15.6752 95.1829 15.5303 94.9263 15.337C94.8146 15.282 94.6946 15.2737 94.558 15.2654Z"
            fill="white" />
        <path
            d="M91.5899 16.8383C91.2567 16.92 90.8735 17.0599 90.9384 17.5047C90.9451 17.5897 91.4666 17.9879 91.6648 18.1812C92.113 18.631 92.4429 19.4107 93.0127 19.7172C93.4092 19.9322 93.9956 20.1937 94.4421 19.9655C94.9986 19.6939 94.8553 19.1475 94.7636 19.0292C94.3555 18.4994 93.8007 18.0929 93.3259 17.618C93.096 17.3881 92.8794 17.0549 92.5929 16.9216C92.3179 16.7967 91.9264 16.8383 91.5899 16.8383Z"
            fill="white" />
        <path
            d="M51.2111 16.9101C50.9096 17.085 50.5364 17.5665 50.2981 17.8231C50.1215 18.0114 49.95 18.1996 49.7767 18.3846C49.4251 18.7428 48.6904 19.3575 49.3169 19.7974C49.5768 19.979 50.0082 20.1272 50.2932 20.0439C50.5231 19.9373 50.7397 19.9173 50.9396 19.7474C51.1378 19.5808 51.2711 19.3359 51.4043 19.1243C51.561 18.8877 52.0874 18.1496 52.2191 18.0347C52.4906 17.7948 52.8905 17.6132 52.6239 17.1284C52.5057 16.9084 51.496 16.7468 51.2111 16.9101Z"
            fill="white" />
        <path
            d="M101.047 16.936C100.781 17.051 99.8494 17.3775 99.8661 17.6441C99.8945 18.0306 100.454 18.2006 100.794 18.3172C101.051 18.4071 101.281 18.5521 101.517 18.6737C102 18.9303 102.487 19.1852 102.968 19.4418C103.736 19.8283 104.504 20.2148 105.272 20.6013C106.385 21.1878 107.52 21.7276 108.678 22.209C109.867 22.7039 111.084 23.2953 112.396 23.5369C113.511 23.7418 114.804 23.6818 116.033 23.6818C116.132 23.6735 116.232 23.6685 116.328 23.6618C116.493 23.6552 116.656 23.6485 116.821 23.6418C116.908 23.6352 116.991 23.6285 117.076 23.6235C117.128 23.6135 117.181 23.6102 117.235 23.6018C117.286 23.5952 117.339 23.5902 117.393 23.5819C117.431 23.5752 117.468 23.5702 117.508 23.5619C117.624 23.5102 117.744 23.4569 117.864 23.4069C118.138 23.2137 118.779 22.5506 118.509 22.209C118.256 21.8958 117.185 21.8209 116.763 21.7276C115.842 21.526 114.927 21.311 114.029 21.0861C110.779 20.2731 107.658 19.2118 104.549 18.1572C103.75 17.864 102.948 17.5708 102.149 17.2759C101.794 17.1443 101.452 16.9494 101.047 16.936Z"
            fill="white" />
        <path
            d="M43.3881 17.7222C42.7783 17.7489 40.5809 19.0184 39.7062 19.3833C37.2537 20.4262 34.6964 21.3109 32.1374 22.1639C31.4593 22.3705 30.7779 22.5787 30.0982 22.782C29.6733 22.9019 29.1652 22.9703 28.7869 23.1802C28.6754 23.2385 28.5804 23.3401 28.5621 23.4684C28.5237 23.6966 28.7154 23.8749 28.8753 23.9949C29.0702 24.1381 29.2568 24.3047 29.4833 24.3897C29.8383 24.518 30.2515 24.5097 30.6662 24.5297C31.6343 24.5746 33.5585 24.8779 34.8147 24.3281C35.9709 23.8249 40.8591 21.2509 42.1486 20.5528C42.7567 20.2113 45.4273 18.9651 45.3907 18.472C45.3324 17.6939 44.0796 17.7222 43.3881 17.7222Z"
            fill="white" />
        <path
            d="M98.5906 18.5299C98.3706 18.6749 97.7875 19.118 97.8624 19.4196C97.9491 19.7544 99.0353 20.2559 99.2137 20.3859C100.873 21.6321 102.527 22.8683 104.258 23.9928C105.211 24.6093 106.179 25.2557 107.239 25.6539C108.274 26.0421 109.505 26.177 110.726 26.177C110.796 26.172 110.869 26.1654 110.943 26.1604C111.044 26.1154 111.147 26.0754 111.251 26.0337C111.536 25.8571 112.214 25.279 112.007 24.9108C111.956 24.8225 111.869 24.7592 111.779 24.7176C111.527 24.6326 111.276 24.546 111.024 24.4593C110.589 24.3011 110.153 24.1395 109.72 23.9828C108.372 23.4414 107.057 22.8533 105.749 22.2268C103.957 21.3655 102.194 20.4558 100.465 19.5029C99.9234 19.1947 99.3836 18.8831 98.8454 18.5732C98.8005 18.5616 98.7538 18.5499 98.7088 18.5349C98.6672 18.5349 98.6321 18.5316 98.5906 18.5299Z"
            fill="white" />
        <path
            d="M95.9953 19.6707C95.8936 19.7224 95.8003 19.774 95.7287 19.874C95.6021 20.0506 95.5588 20.2905 95.4788 20.4921C95.4005 20.6737 95.3189 20.8503 95.2372 21.0285C95.2123 21.1285 95.2105 21.2485 95.2523 21.3384C95.3556 21.545 95.6288 21.55 95.812 21.645C95.9687 21.7249 96.1119 21.8316 96.2452 21.9549C97.4564 23.0961 98.5959 24.299 99.8221 25.3786C100.277 25.7834 100.675 26.2832 101.193 26.5598C101.608 26.7847 102.111 26.893 102.579 27.0146C103.304 27.1995 104.009 27.4561 104.825 27.4561C105.122 27.3078 106.003 27.0363 105.855 26.5564C105.848 26.5381 105.84 26.5198 105.83 26.5015C105.812 26.4731 105.792 26.4415 105.772 26.4132C105.473 26.0833 105.025 25.915 104.665 25.6901C103.991 25.2719 103.336 24.8321 102.674 24.3973C101.065 23.3377 99.5406 22.1215 97.9879 20.9569C97.4148 20.5271 97.0249 19.859 96.3085 19.6924C96.2668 19.6874 96.2302 19.684 96.1902 19.6757C96.1586 19.6724 96.1269 19.6724 96.0935 19.6724C96.0586 19.6707 96.0302 19.6707 95.9953 19.6707Z"
            fill="white" />
        <path
            d="M46.0059 19.6881C45.5661 19.8114 35.5083 25.3226 35.3632 25.5609C35.1217 25.9507 35.8648 26.5555 36.2346 26.6371C36.786 26.7588 39.8333 26.4639 41.1544 25.6758C41.5393 25.3876 46.0925 21.809 46.4508 21.5107C46.8873 21.1375 48.3101 20.4012 48.1517 20.0913C47.9718 19.7397 46.4208 19.5565 46.0059 19.6881Z"
            fill="white" />
        <path
            d="M48.8182 21.0857C48.5399 21.0507 46.9372 23.0383 43.1186 25.7106C42.7905 25.9372 42.0457 26.4137 41.8824 26.7519C41.6443 27.4117 42.7338 27.5766 43.1337 27.5766C43.2253 27.5683 45.2962 27.3034 46.2574 26.7452C46.699 26.487 50.9907 22.1736 51.124 21.9837C51.184 21.8987 51.2289 21.4606 51.2106 21.4223C50.9841 21.0791 50.271 21.3156 49.8694 21.264C49.5613 21.2207 49.1214 21.1324 48.8182 21.0857Z"
            fill="white" />
        <path
            d="M93.0046 21.1053C92.6298 21.222 92.2667 21.6668 92.4349 22.11C92.5232 22.3482 92.7798 22.3982 92.9597 22.5481C93.1279 22.6947 93.2512 22.8614 93.3745 23.0363C94.1409 24.0959 94.899 25.1705 95.7203 26.1968C96.0352 26.5866 96.3584 27.0831 96.7899 27.3846C97.3481 27.7778 98.4626 28.166 99.2207 28.166C99.4922 28.0294 100.165 28.0044 100.179 27.5912C100.179 27.5746 100.179 27.5546 100.175 27.5362C100.13 27.1431 99.4056 26.6299 99.119 26.36C97.9812 25.2688 96.8449 24.1775 95.7036 23.0863C95.467 22.8447 95.2289 22.6048 94.9905 22.3649C94.7706 22.115 94.5858 21.8384 94.3159 21.6235C93.9576 21.3336 93.5062 21.1203 93.0046 21.1053Z"
            fill="white" />
        <path
            d="M47.8826 29.4356C47.7093 29.4956 47.7693 29.8071 47.8176 29.9671C47.9025 30.247 49.0205 32.0696 49.5153 32.801C49.9402 33.4308 50.3467 34.0772 50.8514 34.667C52.7591 36.9061 55.0632 38.8937 57.5422 40.1682C57.9205 40.3581 59.983 41.4311 60.4511 41.3877C60.5495 41.3794 60.5828 41.2845 60.5644 41.2278C60.5328 41.1095 60.4295 41.0395 60.3329 40.9779C59.8647 40.758 59.3949 40.5364 58.925 40.3165C58.1171 39.935 57.3207 39.4735 56.5626 38.9837C54.785 37.8308 53.1456 36.4663 51.6362 34.8052C50.9465 34.0472 50.4849 33.2625 49.8602 32.3562C49.2704 31.5048 48.4874 29.9437 48.2891 29.6222C48.1858 29.4523 48.0409 29.3423 47.8826 29.4356Z"
            fill="white" />
        <path
            d="M95.5236 29.6196C95.3237 29.7263 94.2008 31.8055 93.2345 33.2099C92.1598 34.766 90.8021 36.2655 89.3009 37.475C88.0465 38.4879 86.8203 39.226 85.4241 39.9557C84.5494 40.3806 83.4482 40.877 83.2416 41.052C82.965 41.2802 83.105 41.4568 83.4282 41.4568C83.7114 41.3385 84.9976 40.8004 86.2938 40.0857C89.021 38.5829 91.7917 36.0988 93.6926 33.5098C94.5107 32.3919 95.6169 30.3044 95.7369 30.0128C95.8302 29.7846 95.7785 29.6446 95.5236 29.6196Z"
            fill="white" />
        <path fill-rule="evenodd" clip-rule="evenodd"
            d="M61.1648 4.76205C61.1648 4.76205 60.8865 4.24224 61.493 3.93902C62.1061 3.63414 66.6477 2.17969 72.0174 2.17969C77.9152 2.17969 83.0399 4.09063 83.338 4.33387C83.7445 4.66375 83.3747 5.27852 82.9166 5.18688C82.4634 5.09692 77.8152 3.12433 72.079 3.12433C66.3429 3.12433 62.336 4.64709 61.9828 4.85368C61.5629 5.09692 61.1648 4.76205 61.1648 4.76205Z"
            fill="white" />
        <path
            d="M54.9521 23.2412C54.9521 16.1955 62.4909 10.4844 71.7925 10.4844C81.0956 10.4844 88.6361 16.1955 88.6361 23.2412C88.6361 30.2886 81.0956 35.9997 71.7925 35.9997C62.4909 35.9997 54.9521 30.2886 54.9521 23.2412Z"
            stroke="white" stroke-width="0.902493" stroke-miterlimit="3.864" fill="black"/>
        <path
            d="M70.529 13.0034C70.3973 13.08 70.1741 13.0317 70.0174 13.05C69.3361 13.14 68.6546 13.2249 67.9949 13.3499C66.084 13.7048 64.2447 14.4511 62.6886 15.5191C62.2937 15.7906 61.8423 16.1022 61.5273 16.4904C61.5191 16.507 61.5091 16.522 61.4957 16.5404C61.3824 16.7286 61.1825 16.8719 61.1059 17.0785C61.0759 17.1618 61.0475 17.2901 61.0792 17.3834C61.1858 17.6883 61.7539 18.2131 62.0371 18.3813C62.1771 18.4663 62.4154 18.6279 62.437 18.8045C62.467 19.0744 62.407 19.3326 62.3903 19.5709C62.387 19.8924 62.387 20.214 62.387 20.5355V25.2737V27.1597C62.3821 27.4362 62.3754 27.7078 62.367 27.9827C62.3304 28.1193 61.7872 28.6424 61.659 28.7891C61.4891 28.984 61.4007 29.2289 61.2608 29.4355C61.2592 29.4521 61.2508 29.4671 61.2441 29.4821C61.3258 29.5588 61.3107 29.707 61.3674 29.8003C61.5324 30.0719 61.8072 30.3585 62.0688 30.5601C64.1996 32.2244 67.4035 33.1424 70.2524 33.3707C71.3787 33.459 72.5365 33.3757 73.6778 33.3757C73.7744 33.2774 74.4824 33.2774 74.6774 33.2774C74.769 33.1874 75.2655 33.1807 75.4254 33.1807C75.5187 33.0791 75.8303 33.0791 75.9769 33.0791C76.0336 33.0208 76.1418 33.0208 76.2335 33.0208C76.3251 32.9242 76.5416 32.9242 76.6833 32.9242C76.75 32.8492 76.9315 32.8259 77.0381 32.8259C77.1032 32.7559 77.2698 32.7259 77.3713 32.7259C77.4364 32.6543 77.623 32.6293 77.7245 32.6293C77.8262 32.5177 78.1228 32.4327 78.2777 32.4327C78.3543 32.3261 78.4926 32.3094 78.6009 32.2594C78.8758 32.1261 79.1491 31.9928 79.4206 31.8596C80.3719 31.2981 81.2265 30.5401 81.7297 29.5488C81.8297 29.3572 81.9747 29.1706 81.9747 28.9307C82.0529 28.8524 82.0713 28.6991 82.0713 28.5775C82.1862 28.4642 82.1695 28.2026 82.1695 28.0277C82.2961 27.8844 82.2312 27.4462 82.2279 27.2413C82.1995 25.2937 80.6851 23.4194 78.9958 22.6964C78.9641 22.683 78.8858 22.6797 78.8858 22.6381C79.0091 22.5531 79.1773 22.3815 79.3406 22.3815C79.4656 22.1949 79.8755 22.0349 80.0654 21.8717C80.4635 21.5368 81.4231 20.5905 81.4231 20.084C81.4898 20.0207 81.5198 19.9257 81.5198 19.8274C81.5997 19.7525 81.6197 19.6059 81.6197 19.4909C81.7597 19.3443 81.7181 18.9661 81.7181 18.7445C81.843 18.6096 81.7563 18.2897 81.7297 18.1348C81.5598 17.2068 81.185 16.4304 80.5468 15.7473C80.4019 15.5924 80.2402 15.4774 80.097 15.3308C79.6455 14.8627 79.0524 14.5628 78.4993 14.2862C76.9466 13.5098 75.1439 13.095 73.2629 13.0067C72.3483 13.005 71.4386 13.0034 70.529 13.0034Z"
            fill="white" />
        <path
            d="M71.4893 14.6947C72.5539 14.6947 73.6051 14.7863 74.4248 15.2678C75.6977 16.0142 76.0759 17.5553 75.8876 19.0214C75.771 19.8961 75.4795 20.7408 74.818 21.3205C74.1716 21.8853 73.3336 22.0236 72.4556 22.1369C70.5114 22.3868 68.4988 21.7104 67.9457 19.8428C67.8107 19.3913 67.7058 18.8948 67.6991 18.3916C67.7107 18.1434 67.724 17.8918 67.7357 17.6453C67.8191 17.5536 67.8324 17.322 67.8324 17.1921C67.899 17.1254 67.9339 16.9955 67.9339 16.8972C67.9873 16.8489 68.029 16.7589 68.029 16.6806C68.0672 16.6456 68.0889 16.599 68.0889 16.5423C68.1956 16.459 68.3855 16.1691 68.3855 16.0309C68.5388 15.9442 68.6254 15.7743 68.7503 15.656C69.0868 15.3411 69.7166 14.9513 70.1931 14.9513C70.2397 14.898 70.3164 14.893 70.3897 14.893C70.4914 14.783 70.7829 14.793 70.9412 14.793C71.0594 14.6647 71.3444 14.7747 71.4893 14.6947Z"
            fill="black" />
        <path
            d="M71.2377 23.6822C72.5439 23.6822 73.6952 23.7005 74.7315 24.1787C76.9422 25.2 77.1472 28.8769 75.6178 30.5629C74.5098 31.7958 72.1241 32.0124 70.4847 31.5809C70.1099 31.4792 69.7334 31.3993 69.4001 31.211C68.9586 30.9561 68.6105 30.6296 68.3088 30.2131C67.8823 29.6249 67.6375 28.7803 67.6008 28.0072C67.5808 27.5724 67.6375 27.1409 67.6375 26.7277C67.7191 26.6477 67.7357 26.4611 67.7357 26.3362C67.8074 26.2645 67.8323 26.1263 67.8323 26.0213C67.8974 25.968 67.934 25.8714 67.934 25.7847C68.0056 25.7231 68.0889 25.5731 68.0889 25.4682C68.2639 25.3366 68.3788 25.0733 68.5038 24.8984C68.6471 24.6985 69.2102 24.2336 69.4468 24.2336C69.5284 24.1287 69.7434 24.0337 69.88 24.0337C69.9415 23.9621 70.0948 23.9371 70.1932 23.9371C70.2698 23.8521 70.4664 23.8388 70.588 23.8388C70.7312 23.6855 71.0778 23.8188 71.2377 23.6822Z"
            fill="black" />
        <path
            d="M86.9009 5.13993C87.1508 5.06662 87.3941 5.12327 87.5607 5.3032C87.7189 5.47647 87.674 5.76803 87.4707 5.88132C87.3057 5.97295 87.0858 5.98128 86.9009 6.02959C86.426 6.15288 84.7951 6.39112 84.7051 6.95758C84.6567 7.28412 85.0883 7.66231 85.2532 7.77893C85.4781 7.97552 85.0883 7.60566 85.3131 7.80226C85.6414 8.09048 86.3727 8.59529 85.9779 9.11343C85.8813 9.23838 85.723 9.29669 85.5597 9.28003C84.7817 9.20173 83.7204 7.65731 83.6288 7.40241C83.5171 7.08586 83.5622 6.76098 83.7421 6.49942C84.3502 5.62808 85.9662 5.45981 86.9009 5.13993Z"
            fill="black" />
        <path
            d="M99.8791 7.65218C99.8374 8.3136 101.732 8.17865 102.193 8.2203C102.878 8.28194 104.211 8.77509 104.466 8.54684C104.774 8.27194 105.102 6.9691 104.549 6.94411C103.746 6.91079 103.443 7.00076 102.548 7.06907C101.628 7.12571 99.9207 7.00742 99.8791 7.65218Z"
            fill="white" />
        <path
            d="M43.8033 7.88199C43.8299 8.33848 41.8924 8.33348 41.4326 8.37514C40.7495 8.43678 39.6548 8.9066 39.2867 8.50009C39.0084 8.1952 38.6519 7.30554 39.2083 7.28221C40.008 7.24723 40.5729 7.30221 41.4641 7.37051C42.3889 7.42716 43.7617 7.22057 43.8033 7.88199Z"
            fill="white" />
        <path
            d="M58.4809 5.00512C59.3872 5.2317 59.9053 5.20671 60.4284 6.05972C60.6917 6.48289 60.7083 7.16097 60.2669 7.74742C59.9819 8.1306 59.8737 8.25056 59.5605 8.63208C59.2406 9.0186 59.2022 9.28017 58.6608 9.35847C58.4809 9.38513 58.3259 9.34181 58.2259 9.19687C57.8678 8.67873 58.6291 8.05064 59.0307 7.59747C59.184 7.42421 59.5305 6.9094 59.4738 6.69448C59.3672 5.98641 58.5175 5.99808 57.9544 5.82314C57.7478 5.7565 57.1714 5.64988 56.9897 5.53492C56.7715 5.39664 56.8364 5.13007 56.9664 4.93181C57.0681 4.77687 57.5946 4.79686 58.4809 5.00512Z"
            fill="black" />
        <path
            d="M98.4349 7.42759C98.6298 7.47757 98.8763 7.48257 98.9147 7.72081C98.958 8.01737 98.7331 8.29893 98.1317 8.36557C97.7134 8.32225 96.8688 7.57587 96.5405 8.23395C96.2591 8.79041 98.03 9.01199 97.95 9.56345C97.8867 10.0249 97.7185 10.0999 97.3103 10.0999C97.1254 10.1099 96.6889 9.84335 96.5405 9.78837C96.134 9.6001 95.1711 8.83539 94.8079 9.4485C94.4497 10.0549 96.8955 10.878 96.8304 11.3511C96.7655 11.7993 96.3157 12.1525 95.9758 12.0359C95.506 11.9226 94.0015 10.1566 93.3184 10.8496C92.6887 11.4894 95.2044 12.6106 95.0795 13.0005C94.8662 13.6552 94.2931 13.8502 93.495 13.1871C93.0785 12.8405 92.4221 12.1958 92.0473 12.7006C91.5858 13.3237 92.9153 14.1084 93.0319 14.3167C93.3235 14.8415 92.6538 15.4479 92.2122 15.3479C91.8023 15.293 91.1976 13.7469 90.6245 14.2783C90.1847 14.6832 91.2592 15.6478 91.1476 16.0327C91.1026 16.3909 90.1913 16.8624 89.7682 16.5308C89.1867 16.1443 90.5579 14.1351 89.2117 12.2408C88.5602 11.4361 88.0304 10.1865 87.9938 9.96663C87.9422 9.58178 87.9704 8.92036 88.217 8.59049C89.16 7.32596 93.4384 7.41093 95.2661 7.32596C96.4906 7.26765 97.1803 7.42759 98.4349 7.42759Z"
            fill="white" />
        <path
            d="M44.9615 7.61426C44.7149 7.61426 44.5017 7.66757 44.465 7.91414C44.4184 8.21736 44.4633 8.69885 44.9764 8.71218C45.5813 8.72217 46.3193 7.91748 46.6725 8.42562C47.0723 8.99873 45.0064 9.3436 45.3363 10.04C45.7612 10.9297 46.5992 10.115 46.7524 10.06C47.1689 9.86507 48.4685 8.70718 48.9967 9.47022C49.4647 10.1416 47.3306 11.1163 47.0723 11.4361C46.999 11.5294 46.8475 12.0326 46.9057 12.1559C47.3722 13.1921 48.5502 12.1992 49.3399 11.3345C49.6331 11.013 49.8463 10.8364 50.1396 10.7597C50.5443 10.6548 50.8975 10.7347 51.0059 11.0979C51.0708 11.3045 51.0092 11.5478 50.8575 11.6894C50.6927 11.8477 48.8534 13.1755 48.9149 13.572C49.0416 14.3767 49.5281 14.4833 49.8846 14.3117C50.2678 14.1418 51.344 12.3141 51.9789 12.5557C52.1471 12.6207 52.357 12.649 52.4236 12.8106C52.5169 13.0322 52.4803 13.3421 52.3403 13.5287C52.1621 13.7686 51.8256 14.0835 51.599 14.2834C51.4057 14.4533 51.1908 14.6549 51.0759 14.8665C50.776 15.4046 51.2207 15.6512 51.7123 15.6512C51.8856 15.6512 51.9789 15.5546 52.0988 15.4513C52.3987 15.1964 52.7102 14.0602 53.3184 14.3634C53.9548 14.6833 52.7768 15.5829 52.8934 16.221C53.0667 16.7025 53.8315 16.8008 54.043 16.4426C54.2763 15.8711 54.138 14.9898 54.3729 13.9968C54.6012 13.1072 55.241 11.746 55.5491 11.2096C55.7457 10.893 55.984 10.6448 56.074 10.2666C56.0806 10.2399 56.0856 10.2149 56.0906 10.1883C56.1422 9.7901 55.8907 9.46189 55.6208 9.21865C55.1777 8.8138 54.5795 8.56557 54.0248 8.38064C52.3887 7.83584 50.6376 7.78586 48.7617 7.69923C47.5006 7.63758 46.2477 7.61426 44.9615 7.61426Z"
            fill="white" />
        <path
            d="M89.0537 17.8049C89.2836 17.34 90.3283 17.8499 90.4249 17.9382C90.713 18.1914 90.8114 18.6062 91.0247 18.9095C91.2862 19.2826 91.9659 20.0723 91.9277 20.4955C91.8959 20.8387 90.5748 21.8633 90.2865 21.6218C90.2783 21.6134 90.2716 21.6018 90.2583 21.5918C90.0633 20.3156 89.6418 19.0894 89.0237 17.9415C89.0237 17.8915 89.037 17.8449 89.0537 17.8049Z"
            fill="white" />
        <path
            d="M90.4833 22.266C90.8465 22.266 91.4663 22.4076 91.7178 22.6292C91.9261 22.8108 92.031 23.084 92.1794 23.3089L92.9457 24.3902L94.7251 26.781L95.5397 27.8322C95.6914 28.0905 95.6496 28.2821 95.4248 28.4603L95.2864 28.4786C94.4585 28.4786 93.1723 28.1704 92.6092 27.6739C92.3276 27.424 92.1776 27.1275 91.9977 26.8293L91.128 25.2215C90.9881 24.9816 90.4883 24.2469 90.4 23.9853C90.39 23.9554 90.3767 23.9154 90.3667 23.8687C90.38 23.6605 90.385 23.4522 90.385 23.2406C90.385 22.9624 90.375 22.6842 90.355 22.4076C90.385 22.3276 90.4267 22.2743 90.4833 22.266Z"
            fill="white" />
        <path
            d="M51.2977 23.0685C51.7742 22.4088 52.394 21.864 52.972 21.9523C53.1053 21.9573 53.2019 22.0073 53.2652 22.0822C53.2219 22.4638 53.2019 22.852 53.2019 23.2418L53.207 23.4217L53.1919 23.4617C53.0287 24.0465 52.9687 23.9116 52.5739 24.6763C51.9741 25.8342 51.3193 27.4902 50.9328 27.6685C50.3697 27.9284 49.5117 27.8967 48.8919 28.0517C48.0056 28.2766 47.3759 28.0467 47.3759 27.6335C47.3792 27.1037 50.9428 23.605 51.2977 23.0685Z"
            fill="white" />
        <path
            d="M51.5322 28.5381C52.0536 28.5881 52.2186 29.2828 52.8333 29.4294C53.2231 29.5227 53.6747 29.3128 53.9812 29.1362C54.1794 29.0213 54.456 28.7947 54.7192 28.823C56.4852 31.9185 59.6758 34.4392 63.6658 35.9103C63.6742 35.927 63.6809 35.942 63.6892 35.9586C63.7209 36.1136 63.6758 36.2419 63.6225 36.3068C63.4126 36.5468 61.3818 39.7422 60.9669 39.8422C60.6037 39.9705 59.2093 39.0775 58.7077 38.8042C56.0604 37.3714 53.5563 35.4522 51.6188 32.9564C51.0057 32.1717 49.2746 30.1575 49.2946 29.3262C49.3113 28.7397 51.2256 28.5248 51.5322 28.5381Z"
            fill="white" />
        <path
            d="M92.2069 29.0122C92.4268 28.9239 94.0079 29.5087 94.0346 29.8969C94.0195 30.2167 93.0516 31.5729 91.967 33.0273C90.0661 35.5797 87.7086 37.3074 85.0747 38.7752C84.5082 39.09 83.9067 39.3766 83.3069 39.6248L82.7988 39.8248C82.6405 39.8248 82.4972 39.7831 82.3973 39.6765C82.194 39.4666 80.1399 36.4044 80.0432 36.2728C79.9649 36.1678 79.9866 35.9879 80.0599 35.8629C83.8034 34.4485 86.8307 32.111 88.6182 29.2421C88.9199 29.1588 89.4479 29.612 89.6778 29.7252C90.0777 29.9218 90.5826 30.1201 91.0757 29.9835C91.5922 29.8419 91.8021 29.1971 92.2069 29.0122Z"
            fill="white" />
        <path
            d="M74.5808 37.1686C74.789 37.2919 74.8974 37.5268 74.9756 37.685C75.134 38.0083 75.6354 40.9222 75.897 42.0601C75.977 42.4383 76.0819 43.023 76.0203 43.4212C75.967 43.7694 75.5638 44.2559 75.144 44.3125C74.7957 44.3642 74.0993 43.8377 73.9811 43.5745C73.8278 43.2263 73.8527 42.7998 73.8161 42.3933C73.7245 41.1671 73.5446 38.2132 73.5446 37.8966C73.5446 37.71 73.6061 37.4218 73.8011 37.2436C74.0626 37.2219 74.3225 37.1986 74.5808 37.1686Z"
            fill="white" />
        <path
            d="M76.9814 36.7684C77.0931 36.8667 77.1764 36.9884 77.2431 37.0767C77.463 37.3765 78.4893 40.2305 78.954 41.3384C79.1057 41.7032 79.3156 42.278 79.3223 42.6895C79.3305 43.0527 79.0107 43.6158 78.5992 43.7458C78.2527 43.8608 77.4579 43.4559 77.2931 43.2077C77.0731 42.8845 77.0232 42.4496 76.9115 42.0431C76.6016 40.8202 75.8918 37.868 75.8352 37.5498C75.8085 37.3982 75.8103 37.1749 75.8969 36.98C76.265 36.9184 76.6233 36.8467 76.9814 36.7684Z"
            fill="white" />
        <path
            d="M79.1738 36.171C79.3171 36.2593 79.4304 36.3843 79.5203 36.4776C79.7736 36.7475 81.1415 39.4564 81.7379 40.4977C81.9294 40.8426 82.2111 41.3857 82.271 41.7939C82.3193 42.1521 82.0711 42.7485 81.6779 42.9318C81.3497 43.0851 80.51 42.7802 80.3151 42.5553C80.0585 42.2604 79.9568 41.8355 79.7969 41.4457C79.3388 40.2695 78.2759 37.4255 78.1809 37.1157C78.1293 36.9507 78.1042 36.6892 78.2008 36.4659C78.5291 36.3743 78.8557 36.2776 79.1738 36.171Z"
            fill="white" />
        <path
            d="M72.1758 37.3215C72.3657 37.4731 72.4424 37.7163 72.5023 37.8796C72.6207 38.2228 72.7656 41.1767 72.8822 42.3396C72.9173 42.7211 72.9522 43.3175 72.8422 43.7024C72.744 44.0423 72.2875 44.4754 71.8643 44.4821C71.5111 44.4871 70.8814 43.884 70.7997 43.6074C70.6864 43.2426 70.7681 42.8227 70.7781 42.4112C70.838 41.185 71.0146 38.2311 71.0546 37.9196C71.0762 37.7396 71.1662 37.4764 71.3628 37.3215C71.5094 37.3248 71.6527 37.3248 71.7926 37.3248C71.921 37.3248 72.0492 37.3248 72.1758 37.3215Z"
            fill="white" />
        <path
            d="M69.9534 37.2574C70.1067 37.4324 70.1434 37.6806 70.1733 37.8455C70.2384 38.2037 69.9185 41.141 69.8552 42.3105C69.8268 42.692 69.7686 43.2868 69.6002 43.65C69.4487 43.9699 68.9305 44.3264 68.514 44.2665C68.1608 44.2181 67.6394 43.5201 67.5994 43.2352C67.5461 42.8553 67.6894 42.4555 67.7627 42.0523C68.0142 40.8494 68.6539 37.9588 68.7406 37.6573C68.7823 37.5073 68.8872 37.3074 69.0522 37.1741C69.3503 37.2058 69.6519 37.2341 69.9534 37.2574Z"
            fill="white" />
        <path
            d="M67.7139 36.9834C67.9021 37.195 67.8938 37.4982 67.8972 37.6948C67.8972 38.058 67.0724 40.8953 66.8043 42.0332C66.711 42.408 66.551 42.9811 66.3211 43.3127C66.1178 43.5992 65.5463 43.8608 65.1465 43.7292C64.8099 43.6192 64.4118 42.8445 64.4218 42.5546C64.4351 42.1731 64.6467 41.8032 64.7933 41.4184C65.2464 40.2772 66.3777 37.5432 66.516 37.26C66.5877 37.12 66.7243 36.9367 66.9158 36.8318C67.1757 36.8901 67.444 36.9384 67.7139 36.9834Z"
            fill="white" />
        <path
            d="M65.5211 36.5028C65.6543 36.7361 65.5994 37.016 65.5728 37.2009C65.5195 37.5574 64.2599 40.2347 63.8168 41.3177C63.6668 41.6725 63.4169 42.214 63.1404 42.5022C62.8938 42.7571 62.2856 42.9237 61.9108 42.7321C61.5976 42.5705 61.3277 41.7425 61.3826 41.4576C61.4543 41.0844 61.7209 40.7512 61.9258 40.3947C62.5522 39.3384 64.0967 36.816 64.2782 36.5561C64.3532 36.4495 64.4781 36.3212 64.6347 36.2429C64.9264 36.3362 65.2245 36.4212 65.5211 36.5028Z"
            fill="white" />
        <path
            d="M53.6705 17.6999C53.9786 17.6233 54.5917 17.3884 54.705 17.6899C54.0486 18.8412 53.5938 20.0707 53.3673 21.3552C53.129 21.4935 52.5292 21.1453 51.9145 20.8871C51.0831 20.5322 52.3226 19.8275 52.7542 19.191C52.9874 18.8462 53.3739 17.9365 53.6705 17.6999Z"
            fill="white" />
        <path
            d="M53.2905 24.6636C53.4588 25.8848 53.8236 27.056 54.3701 28.1623C54.2485 28.3872 53.0239 28.852 52.3626 28.2939C51.9894 27.8324 52.8673 24.6103 53.2905 24.6636Z"
            fill="white" />
        <path
            d="M137.942 3.7804C138.243 3.7804 138.51 3.7804 138.747 3.90202C139.073 4.06862 140.038 5.02492 140.028 5.40978C140.021 5.6147 138.817 5.99123 138.275 6.19615C137.872 6.37775 136.964 6.74094 136.809 6.79092C136.707 6.82758 135.986 6.83424 135.866 6.83091C135.703 6.83591 134.578 6.84757 134.107 6.84757C133.917 6.85423 130.491 6.9442 129.327 6.9442C128.032 6.9442 126.761 6.97419 125.472 6.97419C125.183 6.97419 123.711 6.99751 123.624 7.00751H118.098H116.9L116.428 7.02584L116.133 7.04416H112.575C112.305 7.04416 110.506 7.09748 109.703 7.14412C108.595 7.23576 106.962 7.37404 106.89 7.37904C106.674 7.37904 106.24 7.46067 106.176 7.2191C106.107 6.96086 106.642 6.83924 106.81 6.80758C108.791 6.41773 110.779 5.94291 113.021 5.66302C116.752 5.19486 118.548 5.13822 119.156 4.95828C119.509 4.84999 119.437 4.39016 119.156 4.35518C115.156 3.88369 106.209 5.63803 104.924 5.90459C102.539 6.4194 100.771 6.54768 100.183 6.55268H94.6199C91.526 6.54768 90.1866 6.88755 89.975 6.92921C89.3769 7.06582 88.8121 7.25408 88.2806 7.52898C87.1544 8.10709 86.438 8.82016 86.9129 10.173C87.0811 10.4645 87.241 10.8661 87.4043 11.1576C87.7875 11.919 88.2806 12.857 88.6789 13.6017C88.967 14.1315 89.1453 14.7962 89.1453 15.461L88.9854 16.2873C88.9754 16.4289 88.6289 17.0387 88.4472 16.9304C88.4289 16.9171 88.3972 16.8821 88.3556 16.8355C88.1373 16.5156 87.9058 16.2007 87.6592 15.8958C87.5793 15.7842 87.516 15.6942 87.4876 15.6609C87.1994 15.2844 88.0324 14.7696 87.9558 14.2914C87.7992 13.3434 86.4064 11.5291 85.3601 10.6645C84.747 10.158 84.1788 9.48657 83.6341 8.86681C83.4091 8.55859 83.1576 8.30369 82.9293 7.9988C82.7294 7.7289 82.6361 7.56063 82.5545 7.23076C82.3962 6.57267 82.7911 6.17282 83.2159 5.83462C83.4691 5.63303 83.9489 5.33314 84.3405 5.1732C85.3968 4.73837 87.8741 4.29853 89.3402 4.10694C89.8267 4.05862 91.0162 3.91701 91.9059 3.89868C92.8989 3.89868 93.8452 3.92867 94.7748 4.00031C96.5875 4.14193 98.3585 4.48013 100.243 4.50679C102.985 4.5501 105.624 4.3785 108.285 4.25022C109.471 4.19357 110.722 4.11527 111.992 4.00864C113.939 3.84204 119.877 3.91701 120.753 3.97199C121.185 3.99698 125.117 4.15859 127.104 4.31186C127.546 4.34518 127.904 4.38683 128.189 4.43681C129.062 4.41849 129.928 4.45681 130.783 4.40516C132.381 4.30353 133.983 4.12693 135.561 4.00031L137.942 3.7804Z"
            fill="white" />
        <path
            d="M27.9622 3.62478C30.4979 3.62478 32.7404 3.83803 35.1895 3.95632C36.4473 4.01297 37.6652 4.03962 38.923 4.09794C40.1909 4.15791 41.492 4.25454 42.7815 4.25454C45.094 4.25454 47.2732 4.1046 49.5241 3.99964L51.255 3.99464C52.3346 3.97631 53.5275 3.93133 54.6188 4.03629C55.2985 4.0996 55.9849 4.1046 56.643 4.18124C57.5377 4.28453 59.0838 4.4678 59.7335 4.76102C60.3333 5.02758 60.7698 5.43243 60.9997 5.68733C61.4411 6.17382 62.0993 6.93353 61.731 7.50665C61.5795 7.79487 61.1579 8.21471 60.938 8.46795C60.6448 8.79616 58.354 10.6988 57.7843 11.5085C57.2678 12.2299 57.1178 12.773 56.7996 13.3394C56.3648 14.0675 56.8429 14.609 56.6829 15.0355C56.2098 15.5386 55.775 16.0634 55.3868 16.6132C55.3019 16.6599 55.2268 16.6748 55.1669 16.6315C54.7737 16.3566 54.8503 15.7685 54.9453 15.0055C54.9869 14.4307 55.4485 13.2428 55.6167 12.9363C55.9399 12.3265 56.9828 11.047 57.0661 10.8154C57.7343 8.94277 55.8733 7.78488 54.4589 7.32338C53.989 7.17011 53.5192 6.99517 53.0261 6.90521C51.2034 6.57533 49.2508 6.61199 47.2849 6.55034C45.9337 6.50869 44.5093 6.45538 43.1331 6.45538L40.1625 6.44871C39.2146 6.37374 38.255 6.31876 37.3702 6.10884C35.8542 5.74898 34.583 5.4191 33.0669 5.08423C31.7774 4.801 30.3846 4.55443 29.0067 4.4678C28.0688 4.40948 26.4361 4.30619 25.4631 4.30619C24.7468 4.30619 19.4404 4.25121 18.6557 4.46946C18.3841 4.52277 18.4274 5.03425 18.6107 5.07923C19.6303 5.37079 23.4155 5.45409 25.9246 5.36746C27.3991 5.4391 29.0467 5.62236 30.4413 5.82228C32.2455 6.07885 33.9116 6.40706 35.5843 6.93686L37.3702 7.40335C37.6652 7.49498 38.05 7.69158 37.6468 7.96814C36.5423 7.96814 35.5209 7.75322 34.4014 7.73656C31.5824 7.73656 27.5157 7.65159 24.6884 7.65159C24.3936 7.63327 10.687 7.48666 9.05095 7.39336C7.23004 7.2884 5.58893 6.41539 4.97583 6.11384C4.74258 6.01055 4.05617 5.47741 4.09789 5.37245C4.22944 5.03425 4.97583 3.75973 5.56067 3.71308C6.8002 3.8297 8.32789 3.99464 9.60581 4.05129C9.60581 4.05129 18.7606 3.94966 19.0305 3.92967C20.41 3.82137 23.6872 3.67976 25.1033 3.65477C25.8879 3.64144 27.2158 3.59146 27.9622 3.62478Z"
            fill="white" />
        <path
            d="M90.4295 25.2973C90.8527 25.244 91.7339 28.8942 91.1741 29.1708C90.6077 29.4724 89.2599 28.781 89.1033 28.5977C89.0733 28.566 89.0567 28.5277 89.0533 28.4877C89.5681 27.5181 89.943 26.4985 90.1612 25.4372C90.2345 25.3622 90.3178 25.3206 90.4295 25.2973Z"
            fill="white" />
        <path
            d="M72.1117 3.90765C67.5268 3.90765 62.6103 5.20383 62.427 5.48372C62.0022 6.15181 62.9152 6.12515 62.8919 7.05313C62.8635 8.18937 61.9805 8.95075 61.6739 9.27896C60.5061 10.5185 59.0167 11.1499 57.9871 12.5344C57.9087 12.6377 57.8321 13.1042 57.9371 13.2475C58.2086 13.6107 58.8467 13.2091 59 13.0875C61.1659 11.3932 63.1984 10.7134 65.6542 9.95037C66.2639 9.75878 69.3577 9.11235 73.3495 9.28395C76.8782 9.43556 80.132 10.3585 82.9643 12.0213C84.0955 12.6843 85.1051 13.509 86.178 14.4004C86.5679 14.7286 86.8728 14.2487 86.8862 14.0705C86.9011 13.8639 86.7329 13.5723 86.6263 13.3991C85.8115 12.0379 84.0139 10.8084 82.7677 9.3456C82.1513 8.62087 81.843 8.3593 81.6115 7.94446C80.85 6.65662 82.0147 6.58331 81.8681 5.99353C81.7548 5.52371 77.2381 3.90765 72.1117 3.90765Z"
            fill="white" />
    </g>
</svg>