<svg width="100%" height="100%" viewBox="0 0 70 70" xmlns="http://www.w3.org/2000/svg">
    <rect width="70" height="70" rx="20" fill="black" />
    <path
        d="M52.1388 27.8511L52.1387 27.851C47.8402 22.9012 40.7262 22.19 36.2493 26.2625L26.2191 35.3868C21.7422 39.4593 21.5977 46.7735 25.8963 51.7233L25.8963 51.7233C30.1949 56.6732 37.3088 57.3844 41.7857 53.3119L51.8159 44.1876C56.2928 40.115 56.4373 32.8009 52.1388 27.8511Z"
        fill="#FF001D" />
    <path
        d="M25.8423 47.3934C32.2919 47.3934 37.8798 42.1751 37.8798 35.5161C37.8798 28.8571 32.8309 23.4589 26.3813 23.4589C19.9316 23.4589 14.7031 28.8571 14.7031 35.5161C14.7031 42.1751 19.3926 47.3934 25.8423 47.3934Z"
        fill="#6DDCE5" />
    <path fill-rule="evenodd" clip-rule="evenodd"
        d="M37.8805 35.5159C37.8805 42.1749 32.2927 47.3932 25.843 47.3932C24.9684 47.3932 24.1261 47.2972 23.3235 47.1147C22.0222 42.9188 23.0014 38.3151 26.2202 35.3871L34.9555 27.4408C36.7821 29.5783 37.8805 32.41 37.8805 35.5159Z"
        fill="#6B289B" />
    <path
        d="M35.307 22.7247C35.307 22.7247 24.8225 23.8294 25.0063 12.7827C35.8589 12.5986 35.307 22.7247 35.307 22.7247Z"
        fill="#0066FF" />
    <mask id="mask0_9174_2455" style="mask-type:alpha" maskUnits="userSpaceOnUse" x="24" y="17" width="12" height="6">
        <rect x="24.7871" y="17.6843" width="10.4632" height="5.10702" fill="#C4C4C4" />
    </mask>
    <g mask="url(#mask0_9174_2455)">
        <path
            d="M35.3051 22.7247C35.3051 22.7247 24.8205 23.8294 25.0043 12.7827C35.8569 12.5986 35.3051 22.7247 35.3051 22.7247Z"
            fill="#FFE500" />
    </g>
</svg>