<svg width="100%" height="100%" viewBox="0 0 170 85" xmlns="http://www.w3.org/2000/svg">
    <path
        d="M17.0421 16.5343C17.7993 14.832 18.4497 13.4495 23.2146 13.4495H50.7212C52.2379 13.4495 53.7529 12.7047 53.7529 10.5789V3.03063C53.7529 2.17481 54.6203 1.00372 56.8937 1.00372H113.857C115.48 1.00372 116.782 1.85568 116.782 3.87651V9.83408C116.782 11.4287 117.539 13.1304 119.922 13.1304H165.621C167.245 13.1304 169.411 13.5544 168.437 15.5774C167.461 17.5961 152.626 47.1565 151.62 49.1315C151.234 49.8885 150.933 50.8978 147.93 50.8978H119.837C118.505 50.8978 116.318 50.8978 116.318 53.4271V60.4625C116.318 61.474 115.547 62.9918 113.101 62.9918H56.7402C54.9807 62.9918 53.6944 62.104 53.6944 60.378V54.1841C53.6944 52.8358 52.9642 50.8575 50.9061 50.8575H3.59576C2.0931 50.8575 0.67814 49.719 1.57928 47.5303C2.48043 45.3377 17.0421 16.5343 17.0421 16.5343Z"
        fill="#C7D6EE" />
    <path d="M5.19556 44.2416L6.51045 44.2455L19.4368 18.9851L18.1213 18.9813L5.19556 44.2416Z"
        fill="url(#paint0_linear_809_7)" />
    <path
        d="M51.0179 47.8089H6.77022C5.22652 47.8089 4.68516 47.1165 5.28611 45.9377C8.63659 39.3926 19.6544 17.8686 19.94 17.2971C20.275 16.6251 21.0862 15.8036 22.5844 15.8036H52.2766C55.3567 15.8036 55.8817 14.4812 55.8817 12.0926V4.97887C55.8817 4.02202 56.5277 3.38595 57.6644 3.38595H112.047C113.508 3.38595 114.155 3.86024 114.155 4.8171V10.0724C114.155 12.1434 113.756 15.4861 118.456 15.4861H163.393C165.412 15.4861 165.935 16.8228 164.867 18.9386C160.891 26.8176 151.105 45.4993 150.801 46.1331C150.415 46.9387 149.218 47.6476 147.307 47.6476H117.809C115.376 47.6476 112.946 49.24 112.946 51.6302V57.701C112.946 58.8069 112.269 59.5904 111.067 59.5904H58.2985C56.666 59.5904 56.0431 58.6821 56.0431 57.4707V51.9477C56.0431 50.0378 54.7462 47.8089 51.0179 47.8089Z"
        fill="#E9CF98" />
    <path
        d="M110.026 46.3838L116.223 52.7285C116.223 52.7285 116.666 51.3376 118.346 50.9925L111.406 44.6335C111.406 44.6335 110.291 45.253 110.026 46.3838Z"
        fill="white" />
    <path
        d="M51.1618 50.9035C51.1618 50.9035 53.6409 50.9924 53.6409 54.2081L59.3941 45.8608L57.8009 44.73L51.1618 50.9035Z"
        fill="white" />
    <path
        d="M112.313 19.2958L118.848 13.0395C118.848 13.0395 117.962 12.9329 117.075 11.5178L110.595 17.9916L112.313 19.2958Z"
        fill="white" />
    <path
        d="M109.487 6.51295L115.525 1.45591C115.525 1.45591 116.19 1.83523 116.466 2.43485L110.152 8.14618L109.487 6.51295Z"
        fill="white" />
    <path
        d="M53.7958 3.28699C53.7958 2.23959 54.7863 1.0039 56.4081 1.0039L60.9886 6.56559C60.9886 6.56559 59.6175 6.56559 59.4022 7.06197C59.1841 7.55889 58.9682 8.62286 58.9682 8.62286L53.7958 3.28699Z"
        fill="white" />
    <path
        d="M51.8187 13.3043C51.8187 13.3043 53.7761 12.9995 53.7761 10.9444L58.3167 16.1914L55.4227 18.2459L51.8187 13.3043Z"
        fill="white" />
    <path
        d="M85.3929 1.0036L85.1843 3.39602H111.349C112.207 3.39602 112.69 3.60804 113.014 4.24023L115.911 1.71033C115.911 1.71033 115.183 1.0036 113.857 1.0036H85.3929V1.0036Z"
        fill="url(#paint1_linear_809_7)" />
    <path
        d="M56.4079 1.00366C55.7102 1.00366 54.9047 1.34268 54.4774 1.86776L56.355 3.87036C56.355 3.87036 56.73 3.39609 58.2327 3.39609H85.1843L85.3929 1.00366H56.4079V1.00366Z"
        fill="url(#paint2_linear_809_7)" />
    <path
        d="M53.796 3.28734V10.5789C53.796 11.7235 53.5627 12.004 53.5627 12.004L55.6343 14.1661C55.6343 14.1661 55.9306 13.4197 55.9306 12.9608V5.73608C55.9306 5.28001 55.9722 4.61524 55.9722 4.61524L54.0271 2.24932C54.0271 2.24932 53.796 2.66287 53.796 3.28734"
        fill="url(#paint3_linear_809_7)" />
    <path
        d="M114.197 4.39321C114.197 4.39321 114.141 5.2413 114.141 5.69737C114.141 6.15343 114.197 12.3125 114.197 12.7697C114.197 13.2258 114.873 14.0717 114.873 14.0717L117.352 11.9172C117.352 11.9172 116.764 11.7234 116.764 10.5788V3.28727C116.764 2.6628 116.244 2.24924 116.244 2.24924L114.197 4.39321V4.39321Z"
        fill="url(#paint4_linear_809_7)" />
    <path
        d="M50.8779 13.4576C50.101 13.4576 23.409 13.488 21.9867 13.488C19.923 13.488 18.7094 14.3819 18.7094 14.3819L20.4071 16.6252C20.4071 16.6252 21.0862 15.8031 22.5849 15.8031H52.7038C53.7528 15.8031 54.5409 15.3371 54.5409 15.3371L52.5728 13.0154C52.5728 13.0154 51.6065 13.4576 50.8779 13.4576"
        fill="url(#paint5_linear_809_7)" />
    <path
        d="M4.39781 46.1333L1.31998 48.2529C1.31998 48.2529 1.07599 49.1292 1.53584 49.8215C1.99681 50.5117 2.70064 50.6188 2.70064 50.6188L6.7066 47.8085C6.7066 47.8085 4.43941 47.7035 5.38271 46.0543C6.32602 44.4051 6.27487 43.7834 6.27487 43.7834C6.27487 43.7834 5.17415 43.9611 4.39781 46.1333Z"
        fill="url(#paint6_linear_809_7)" />
    <path
        d="M12.8494 25.3745C10.395 30.336 2.15145 46.2746 1.86307 46.8439C1.57412 47.4109 1.28461 48.4026 1.28461 48.4026L4.46138 46.1333L19.3468 17.0068C19.3468 17.0068 15.3043 20.4102 12.8494 25.3745"
        fill="url(#paint7_linear_809_7)" />
    <path
        d="M6.77023 47.8775L2.68726 50.7624C2.68726 50.7624 49.1949 50.875 50.3698 50.875C51.543 50.875 52.036 51.0953 52.036 51.0953L54.1306 48.7576C54.1306 48.7576 52.1299 47.8775 51.0185 47.8775H6.77023V47.8775Z"
        fill="url(#paint8_linear_809_7)" />
    <path
        d="M53.2289 52.3736C53.2289 52.3736 53.6572 53.2189 53.6572 53.8936V59.9334C53.6572 60.7975 54.0002 61.5468 54.0002 61.5468L56.0436 59.1825V51.9473C56.0436 50.7928 55.3954 49.8216 55.3954 49.8216L53.2289 52.3736V52.3736Z"
        fill="url(#paint9_linear_809_7)" />
    <path
        d="M112.939 51.2002V58.4354L116.146 61.1912C116.146 61.1912 116.226 60.4563 116.226 59.5944V53.5518C116.226 52.8782 116.424 52.4541 116.424 52.4541L113.621 49.7006C113.621 49.7006 112.939 50.0435 112.939 51.2002"
        fill="url(#paint10_linear_809_7)" />
    <path
        d="M110.541 59.6429H85.3287V63.0038H113.227C114.175 63.0038 115.281 62.3843 115.491 62.2269L112.33 59.2818C112.33 59.2818 112.121 59.6429 110.541 59.6429Z"
        fill="url(#paint11_linear_809_7)" />
    <path
        d="M54.9613 62.5843C54.9613 62.5843 55.6106 63.0365 57.4253 63.0365C59.2382 63.0365 85.3287 63.0039 85.3287 63.0039V59.643H58.4C57.9126 59.643 57.5866 59.5542 57.5866 59.5542L54.9613 62.5843V62.5843Z"
        fill="url(#paint12_linear_809_7)" />
    <path
        d="M62.2037 6.49683C60.7433 6.49683 59.285 7.29411 59.285 8.88703V16.6899C59.285 18.2806 58.3113 18.9183 57.1769 18.9183H24.892C23.5805 18.9183 22.5658 19.4555 21.9828 20.5394C21.5055 21.43 13.443 37.3012 10.8374 42.4306C10.2724 43.5431 10.766 44.2195 12.2158 44.2195H57.3405C59.285 44.2195 59.6099 45.972 59.6099 47.7223V53.7859C59.6099 54.9029 60.7438 56.1766 62.0413 56.1766H84.7419V6.49683H62.2037Z"
        fill="url(#paint13_linear_809_7)" />
    <path
        d="M115.065 48.5433L117.664 51.1676C117.664 51.1676 118.313 50.8148 121.347 50.8148H149.07C149.646 50.8148 150.44 50.5304 150.44 50.5304L135.786 47.6234C135.786 47.6234 118.819 47.635 118.025 47.6234C117.995 47.6229 117.966 47.6223 117.936 47.6223C116.216 47.6223 115.065 48.5433 115.065 48.5433Z"
        fill="url(#paint14_linear_809_7)" />
    <path
        d="M116.041 15.0219C116.041 15.0219 117.308 15.4376 118.343 15.4376H161.993C163.321 15.4376 164.097 15.5348 164.097 15.5348L167.624 13.4698C167.624 13.4698 166.492 13.1523 165.36 13.1523H120.028C118.895 13.1523 118.423 12.8922 118.423 12.8922L116.041 15.0219Z"
        fill="url(#paint15_linear_809_7)" />
    <path
        d="M165.383 16.6512C165.383 16.6512 165.582 17.7389 165.205 18.4782C164.829 19.217 151.636 44.7021 151.04 45.8726C150.443 47.042 149.097 47.4738 149.097 47.4738L150.6 50.4266C150.6 50.4266 151.133 50.0291 151.447 49.6277C151.76 49.2279 167.994 16.7843 168.496 15.6463C168.996 14.5072 168.557 14.0953 168.557 14.0953L165.383 16.6512Z"
        fill="url(#paint16_linear_809_7)" />
    <path
        d="M147.697 47.6936C145.965 47.6936 136.218 47.7665 136.218 47.7665L150.079 50.5305C150.079 50.5305 150.946 50.1788 151.379 49.4665C151.813 48.7576 151.378 48.5456 150.873 48.9702C150.369 49.3981 149.503 48.6891 149.935 48.1922C150.369 47.6936 150.801 46.1333 150.801 46.1333C150.801 46.1333 149.431 47.6936 147.697 47.6936"
        fill="url(#paint17_linear_809_7)" />
    <path
        d="M18.747 45.4994C9.66921 46.0946 6.77014 47.7803 6.77014 47.7803H50.1195C55.0491 47.7803 54.4864 48.4423 54.4588 48.4722L57.9881 44.8065C57.9881 44.8065 49.414 44.8065 43.9667 44.7082C43.2741 44.6955 42.4972 44.6895 41.6489 44.6895C35.8266 44.6895 26.6712 44.981 18.747 45.4994M54.4577 48.4733C54.4577 48.4733 54.4583 48.4727 54.4588 48.4722L54.4577 48.4733Z"
        fill="url(#paint18_linear_809_7)" />
    <path
        d="M120.993 44.7083C117.136 44.8065 111.064 44.8066 111.064 44.8066L115.111 48.5495C115.111 48.5495 115.527 47.6738 119.098 47.6738C122.671 47.6738 148.42 47.5866 148.42 47.5866C148.42 47.5866 148.853 46.204 141.272 45.6729C135.3 45.2538 126.287 44.6978 121.93 44.6978C121.588 44.6978 121.275 44.7011 120.993 44.7083"
        fill="url(#paint19_linear_809_7)" />
    <path
        d="M111.821 19.3098C111.821 19.3098 117.895 19.3098 121.753 19.4086C125.61 19.5074 148.992 18.4661 155.424 17.8709C161.854 17.2768 163.905 15.5917 163.905 15.5917C163.905 15.5917 123.023 15.8059 119.451 15.8059C115.881 15.8059 116.379 15.1108 116.379 15.1108L111.821 19.3098V19.3098Z"
        fill="url(#paint20_linear_809_7)" />
    <path
        d="M55.6107 49.9286C55.6107 49.9286 56.0441 51.3095 56.0441 52.3735V57.16C56.0441 58.4355 56.4781 59.0754 56.4781 59.0754L60.1597 55.4578C60.1597 55.4578 59.6099 54.1823 59.6099 53.2249V47.8289C59.6099 46.581 59.2929 45.5662 59.2929 45.5662L55.6107 49.9286V49.9286Z"
        fill="url(#paint21_linear_809_7)" />
    <path
        d="M109.635 47.7985C109.635 49.0463 109.549 52.3851 109.549 53.3442C109.549 54.2988 109.325 55.4578 109.325 55.4578L113.006 59.0754C113.006 59.0754 113.441 58.4355 113.441 57.16V52.3735C113.441 51.3095 113.874 49.9286 113.874 49.9286L109.931 45.4652C109.931 45.4652 109.635 46.5534 109.635 47.7985Z"
        fill="url(#paint22_linear_809_7)" />
    <path d="M57.6694 59.4995L84.5255 59.7115L84.634 59.7093V56.1767L61.2425 56.0939L57.6694 59.4995Z"
        fill="url(#paint23_linear_809_7)" />
    <path d="M84.7419 56.1767H84.6339V59.7093L112.248 59.3946L107.809 56.0939L84.7419 56.1767Z"
        fill="url(#paint24_linear_809_7)" />
    <path
        d="M58.0319 3.37624C57.2735 3.37624 56.572 3.77764 56.572 3.77764L60.1316 7.21747C60.1316 7.21747 60.4824 6.47043 62.9907 6.47043H84.7419V3.37624H58.0319Z"
        fill="url(#paint25_linear_809_7)" />
    <path
        d="M84.7419 3.37617V6.47036H106.493C109.001 6.47036 109.52 7.5426 109.52 7.5426L113.079 4.10444C113.079 4.10444 112.211 3.37617 111.452 3.37617H84.7419V3.37617Z"
        fill="url(#paint26_linear_809_7)" />
    <path
        d="M55.8935 6.38152V12.6279C55.8935 13.3688 55.5624 14.2467 55.5624 14.2467L59.0483 18.1327C59.0483 18.1327 59.2839 17.8097 59.2839 16.1914C59.2839 14.572 59.4244 8.23505 59.4244 8.23505L55.9396 4.39549C55.9396 4.39549 55.8935 5.41086 55.8935 6.38152"
        fill="url(#paint27_linear_809_7)" />
    <path
        d="M109.666 8.30959V16.076C109.666 17.6949 110.437 18.1327 110.437 18.1327L114.697 13.9177C114.697 13.9177 114.142 13.0359 114.142 12.2971C114.142 11.5562 114.106 7.04022 114.106 6.06901C114.106 5.09779 114.149 4.19947 114.149 4.19947L109.666 8.30959V8.30959Z"
        fill="url(#paint28_linear_809_7)" />
    <path
        d="M53.0119 15.8899H23.124C22.2577 15.8899 20.8489 16.209 20.4161 16.6353L23.124 19.4009C23.124 19.4009 23.8812 18.8698 25.7229 18.8698H56.802C57.6694 18.8698 58.5345 18.549 58.5345 18.549L55.0705 15.0401C55.0705 15.0401 54.2031 15.8899 53.0119 15.8899"
        fill="url(#paint29_linear_809_7)" />
    <path
        d="M146.102 44.3367C146.102 44.3367 147.776 43.7188 148.299 45.6712C148.299 45.6712 148.717 46.289 149.868 44.6431C151.018 43.0005 161.897 21.0198 161.79 20.709C161.685 20.402 159.488 19.9901 159.488 19.9901L146.102 44.3367V44.3367Z"
        fill="url(#paint30_linear_809_7)" />
    <path
        d="M159.803 20.1981C160.328 20.5051 160.85 20.917 160.118 22.4569C159.387 23.9952 151.019 40.0221 149.242 43.1025C147.464 46.1834 149.031 47.4169 149.031 47.4169C149.031 47.4169 150.392 46.7991 150.801 46.1332C151.213 45.4651 163.989 20.6078 164.868 18.9387C165.748 17.269 165.137 16.6009 165.137 16.6009L159.803 20.1981V20.1981Z"
        fill="url(#paint31_linear_809_7)" />
    <path
        d="M84.7419 6.49683V56.1766H107.108C108.404 56.1766 109.539 55.6985 109.539 54.2629V46.8538C109.539 45.421 110.511 44.3084 111.647 44.3084H145.387C146.572 44.3084 147.635 43.6282 148.252 42.5079C151.009 37.5011 158.602 22.9815 159.177 21.811C159.878 20.382 159.444 19.5544 157.818 19.5544H113.106C111.161 19.5544 109.7 18.1227 109.7 16.3707V8.24931C109.7 7.13454 109.052 6.49683 107.593 6.49683H84.7419V6.49683Z"
        fill="url(#paint32_linear_809_7)" />
    <path
        d="M6.40472 46.3978L10.7334 43.8199C10.7334 43.8199 10.2375 43.6079 11.0167 42.0757C11.797 40.5435 19.1056 25.9074 19.1056 25.9074L17.4748 25.5606L6.40472 46.3978V46.3978Z"
        fill="url(#paint33_linear_809_7)" />
    <path
        d="M6.01284 44.5022C4.92956 46.4176 5.14768 47.1608 5.14768 47.1608L7.74599 45.4591C7.74599 45.4591 19.3327 23.4425 20.5239 20.8889C21.7157 18.3369 19.9398 17.2972 19.9398 17.2972C19.9398 17.2972 7.09613 42.5885 6.01284 44.5022"
        fill="url(#paint34_linear_809_7)" />
    <path
        d="M7.76613 47.8714C7.59411 47.9846 6.0105 48.1762 5.70131 47.8714C5.391 47.5688 4.87325 47.3325 5.287 46.9935C5.70131 46.6539 10.7945 43.6806 10.7945 43.6806C10.7945 43.6806 10.1761 44.018 15.4093 44.018H57.2723C58.3741 44.018 59.4063 44.7606 59.5446 45.2349C59.6828 45.7092 59.4068 45.9113 59.0628 45.8445C58.7199 45.776 57.8232 45.5055 57.6169 45.1665C57.4106 44.8291 57.8924 44.5585 54.8623 44.5585C51.8328 44.5585 28.6982 44.8976 23.4662 45.3702C18.233 45.8445 11.3454 45.5055 7.76613 47.8714Z"
        fill="white" />
    <path
        d="M162.392 15.6801C162.564 15.5691 164.149 15.3775 164.458 15.6801C164.767 15.9849 165.285 16.2212 164.871 16.5602C164.458 16.8976 159.363 19.873 159.363 19.873C159.363 19.873 159.981 19.5357 154.749 19.5357H112.885C111.783 19.5357 110.751 18.7931 110.614 18.3188C110.476 17.8439 110.751 17.6402 111.093 17.7092C111.44 17.7777 112.334 18.0482 112.542 18.385C112.748 18.7246 112.265 18.9929 115.296 18.9929C118.326 18.9929 141.458 18.6561 146.693 18.1835C151.925 17.7092 158.813 18.0482 162.392 15.6801Z"
        fill="white" />
    <path
        d="M21.2825 19.5925C21.2825 19.1138 21.5529 18.21 21.337 17.9455C21.12 17.6788 21.7699 17.3597 22.2033 17.6241C22.6362 17.8908 23.5564 18.1029 23.6644 18.3165C23.7729 18.5285 23.6104 19.0597 23.0151 19.2734C22.4192 19.4854 21.8778 19.9641 20.9576 21.9303C20.0367 23.9003 14.7839 33.8973 14.7839 33.8973C14.7839 33.8973 15.5428 32.3028 15.2179 32.2481C14.893 32.1956 14.1357 33.5257 14.1357 33.5257L21.2825 19.5925Z"
        fill="white" />
    <path
        d="M57.4864 18.6519C57.0384 18.6961 56.913 18.2141 57.2953 18.1511C57.6798 18.0882 58.1886 18.0584 58.6344 16.3341C59.0824 14.6103 58.7637 9.37986 58.699 8.44067C58.6344 7.50038 58.1892 6.37346 58.8278 5.87267C59.4647 5.37023 59.9116 6.43641 61.5705 6.43641C63.2284 6.43641 66.9926 6.31107 66.9926 6.31107C66.9926 6.31107 61.6982 6.68487 60.8038 6.81186C59.9111 6.9372 59.1454 7.62516 59.2724 8.87907C59.4012 10.1324 59.0824 16.5864 58.8278 17.2749C58.572 17.9634 58.1245 18.589 57.4864 18.6519Z"
        fill="white" />
    <path
        d="M93.2064 6.34962C92.5042 6.38165 106.657 6.51306 107.549 6.51306C108.442 6.51306 109.462 6.77919 109.655 7.65543C109.846 8.53389 109.71 11.4089 109.71 11.4089C109.71 11.4089 110.15 7.71838 110.788 7.02986C111.425 6.33913 111.234 5.33811 110.405 5.52362C109.575 5.71356 103.008 5.91564 93.2064 6.34962Z"
        fill="white" />
    <path
        d="M112.106 44.7586C111.661 44.694 111.151 44.6333 111.023 45.0087C110.895 45.382 111.595 45.6326 110.895 46.0059C110.197 46.3813 109.676 46.6116 109.676 46.2991C109.676 45.986 110.037 44.3809 111.374 44.3809C112.71 44.3809 145.698 44.3186 146.21 44.3186C146.718 44.3186 147.355 44.3809 147.609 44.8817C147.863 45.382 148.18 46.632 148.373 47.0075C148.563 47.3829 148.245 47.3829 147.671 46.632C147.099 45.8811 145.636 45.5703 144.492 45.6326C143.346 45.695 112.106 44.7586 112.106 44.7586Z"
        fill="white" />
    <path
        d="M148.499 45.8202C148.499 45.8202 148.181 45.1339 147.99 44.6938C147.799 44.2576 147.227 44.0721 147.227 44.0721C147.227 44.0721 147.863 43.319 148.753 41.6957C149.645 40.073 153.844 32.3209 154.289 31.2586C154.289 31.2586 153.334 34.1358 155.18 31.7594C155.18 31.7594 149.199 42.8812 148.817 43.6321C148.436 44.383 148.499 45.8202 148.499 45.8202Z"
        fill="white" />
    <path
        d="M60.0063 54.5677C60.0063 54.5677 60.0821 55.466 59.5509 55.8393C59.0185 56.2131 58.7903 56.885 59.2468 57.1843C59.7032 57.483 60.0074 57.3334 60.3115 56.885C60.6156 56.4372 61.6815 56.0634 62.3656 56.2131C62.3656 56.2131 60.0063 56.5096 60.0063 54.5677Z"
        fill="white" />
    <path
        d="M92.7963 56.1686C92.7963 56.1686 105.636 56.8328 106.397 56.867C107.155 56.9012 107.69 56.9255 107.69 56.9255C107.69 56.9255 106.327 56.7135 106.73 56.2834L92.7963 56.1686Z"
        fill="white" />
    <path
        d="M108.015 56.0636C108.015 56.0636 107.635 56.6611 108.243 56.9581C108.852 57.2568 109.462 57.5555 109.842 57.1072C110.221 56.6594 109.537 55.464 109.613 54.6424C109.613 54.6424 109.917 55.914 108.015 56.0636Z"
        fill="white" />
    <g fill="currentColor">
        <path
            d="M123.675 57.1456H122.964V58.3289H123.675C124.037 58.3289 124.144 58.1875 124.144 57.9551V57.5172C124.144 57.2185 124.002 57.1456 123.675 57.1456ZM123.675 58.712H122.964V59.6855H122.531V56.7558H123.675C124.322 56.7558 124.577 57.0385 124.577 57.5172V57.9551C124.577 58.2725 124.465 58.4862 124.144 58.6276L124.947 59.6855H124.434L123.675 58.712ZM123.541 60.5777C125.068 60.5777 125.87 59.5496 125.87 58.288C125.87 57.0264 125.068 55.9828 123.541 55.9828C122.013 55.9828 121.193 57.0264 121.193 58.288C121.193 59.5496 122.013 60.5777 123.541 60.5777M123.541 55.5952C125.234 55.5952 126.267 56.7967 126.267 58.2825C126.267 59.7479 125.234 60.967 123.541 60.967C121.839 60.967 120.797 59.7479 120.797 58.2825C120.797 56.7967 121.839 55.5952 123.541 55.5952Z" />
        <path
            d="M36.5057 74.9077H31.7812V69.0021H27.222V83.6837H31.7812V77.3532H36.5057V83.6837H41.0696V69.0021H36.5057V74.9077Z" />
        <path d="M120.38 81.24V69.0018H115.82V83.6833H126.907V81.24H120.38Z" />
        <path d="M146.308 69.002V71.4503H150.458V83.6835H155.017V71.4503H159.17V69.002H146.308Z" />
        <path
            d="M10.7705 72.0585C10.7705 70.2237 11.899 69.0017 13.5918 69.0017H22.7374V71.4479H16.1807C15.6709 71.4479 15.3357 71.8187 15.3357 72.3667V80.3181C15.3357 80.8704 15.6709 81.2398 16.1807 81.2398H22.7374V83.6832H13.5918C11.899 83.6832 10.7705 82.4583 10.7705 80.6256V72.0585Z" />
        <path
            d="M90.0958 77.7277L94.0383 83.6837H89.1903L85.6999 77.6276V75.7135H87.5839C88.0917 75.7135 88.4296 75.342 88.4296 74.7947V72.3672C88.4296 71.8192 88.0917 71.4505 87.5839 71.4505H84.3935V83.6837H79.8303V69.0021H90.1708C91.8689 69.0021 92.9914 70.2242 92.9914 72.059L92.9961 75.0265C92.9961 76.6432 92.0023 77.7277 90.5047 77.7277H90.0958Z" />
        <path
            d="M105.906 81.24C106.411 81.24 106.751 80.8713 106.751 80.3212V72.3669C106.751 71.8196 106.411 71.448 105.906 71.448H102.725C102.218 71.448 101.877 71.8196 101.877 72.3669V80.3212C101.877 80.8713 102.218 81.24 102.725 81.24H105.906ZM97.3168 72.0587C97.3168 70.2239 98.4414 69.0018 100.135 69.0018H108.492C110.184 69.0018 111.315 70.2239 111.315 72.0587V80.6265C111.315 82.4592 110.184 83.6833 108.492 83.6833H100.135C98.4414 83.6833 97.3168 82.4592 97.3168 80.6265V72.0587V72.0587Z" />
        <path
            d="M61.3643 69.002H66.256L69.1749 80.3523C69.1968 80.4552 69.2718 80.5157 69.3774 80.5157C69.4809 80.5157 69.5619 80.4552 69.5812 80.3523L72.419 69.002H76.2474L72.7111 81.6009C72.283 83.0354 71.5096 83.6835 69.8859 83.6835H67.6096C66.5654 83.6835 65.7137 83.1542 65.2019 81.5901L61.3643 69.002Z" />
        <path
            d="M50.2409 80.7766C50.2409 81.0581 50.4095 81.2375 50.6658 81.2375H58.1618V83.6837H48.4984C46.8063 83.6837 45.6791 82.4588 45.6791 80.629V72.059C45.6791 70.2242 46.8063 69.0021 48.4984 69.0021H58.1618V71.4505H50.6658C50.4095 71.4505 50.2409 71.6327 50.2409 71.9092V74.9056H57.3014V77.3539H50.2409V80.7766Z" />
        <path
            d="M134.647 80.7766C134.647 81.0581 134.814 81.2375 135.066 81.2375H142.566V83.6837H132.902C131.21 83.6837 130.076 82.4588 130.076 80.629V72.059C130.076 70.2242 131.21 69.0021 132.902 69.0021H142.566V71.4505H135.066C134.814 71.4505 134.647 71.6327 134.647 71.9092V74.9056H141.703V77.3539H134.647V80.7766Z" />
    </g>
    <defs>
        <linearGradient id="paint0_linear_809_7" x1="18.5587" y1="19.4133" x2="18.4925" y2="44.381"
            gradientUnits="userSpaceOnUse">
            <stop stop-color="#C7D6EE" />
            <stop offset="0.185394" stop-color="#91AFC8" />
            <stop offset="1" stop-color="#002334" />
        </linearGradient>
        <linearGradient id="paint1_linear_809_7" x1="92.1815" y1="-5.66406" x2="107.52" y2="9.95249"
            gradientUnits="userSpaceOnUse">
            <stop stop-color="#E1E8F5" />
            <stop offset="0.89888" stop-color="#92A5C1" />
            <stop offset="0.955063" stop-color="#476886" />
            <stop offset="1" stop-color="#E1E8F5" />
        </linearGradient>
        <linearGradient id="paint2_linear_809_7" x1="62.4586" y1="9.86517" x2="78.1494" y2="-6.11047"
            gradientUnits="userSpaceOnUse">
            <stop stop-color="#E1E8F5" />
            <stop offset="0.0393219" stop-color="#476886" />
            <stop offset="0.0898895" stop-color="#92A5C1" />
            <stop offset="1" stop-color="#E1E8F5" />
        </linearGradient>
        <linearGradient id="paint3_linear_809_7" x1="52.2247" y1="10.595" x2="57.34" y2="5.73835"
            gradientUnits="userSpaceOnUse">
            <stop stop-color="#E1E8F5" />
            <stop offset="0.157303" stop-color="#C7D6EE" />
            <stop offset="1" stop-color="#E1E8F5" />
        </linearGradient>
        <linearGradient id="paint4_linear_809_7" x1="118.427" y1="10.7858" x2="113.01" y2="5.64345"
            gradientUnits="userSpaceOnUse">
            <stop stop-color="#E1E8F5" />
            <stop offset="0.157303" stop-color="#C7D6EE" />
            <stop offset="1" stop-color="#E1E8F5" />
        </linearGradient>
        <linearGradient id="paint5_linear_809_7" x1="27.6172" y1="23.7069" x2="45.2156" y2="5.78908"
            gradientUnits="userSpaceOnUse">
            <stop stop-color="#476886" />
            <stop offset="0.129211" stop-color="#92A5C1" />
            <stop offset="1" stop-color="#E1E8F5" />
        </linearGradient>
        <linearGradient id="paint6_linear_809_7" x1="5.16369" y1="48.5683" x2="3.11401" y2="45.5879"
            gradientUnits="userSpaceOnUse">
            <stop stop-color="#002334" />
            <stop offset="0.106735" stop-color="white" />
            <stop offset="0.185394" stop-color="#91AFC8" />
            <stop offset="0.241577" stop-color="#002334" />
            <stop offset="0.533707" stop-color="#5E738F" />
            <stop offset="0.758423" stop-color="#002334" />
            <stop offset="1" stop-color="#002334" />
        </linearGradient>
        <linearGradient id="paint7_linear_809_7" x1="20.1596" y1="27.7841" x2="4.10844" y2="36.1011"
            gradientUnits="userSpaceOnUse">
            <stop stop-color="#91AFC8" />
            <stop offset="1" stop-color="#002334" />
        </linearGradient>
        <linearGradient id="paint8_linear_809_7" x1="28.9598" y1="52.8263" x2="27.7626" y2="45.9129"
            gradientUnits="userSpaceOnUse">
            <stop stop-color="#A5B9CC" />
            <stop offset="1" stop-color="#002334" />
        </linearGradient>
        <linearGradient id="paint9_linear_809_7" x1="53.7363" y1="55.6841" x2="55.7966" y2="55.6841"
            gradientUnits="userSpaceOnUse">
            <stop stop-color="#5E738F" />
            <stop offset="0.48877" stop-color="#91AFC8" />
            <stop offset="1" stop-color="#91AFC8" />
        </linearGradient>
        <linearGradient id="paint10_linear_809_7" x1="115.796" y1="55.4457" x2="113.245" y2="55.4457"
            gradientUnits="userSpaceOnUse">
            <stop stop-color="#5E738F" />
            <stop offset="0.320221" stop-color="#91AFC8" />
            <stop offset="1" stop-color="#91AFC8" />
        </linearGradient>
        <linearGradient id="paint11_linear_809_7" x1="96.6307" y1="67.3644" x2="103.421" y2="55.3888"
            gradientUnits="userSpaceOnUse">
            <stop stop-color="#A5B9CC" />
            <stop offset="1" stop-color="#002334" />
        </linearGradient>
        <linearGradient id="paint12_linear_809_7" x1="67.2281" y1="56.1511" x2="74.0716" y2="68.2195"
            gradientUnits="userSpaceOnUse">
            <stop stop-color="#002334" />
            <stop offset="0.775284" stop-color="#A5B9CC" />
            <stop offset="1" stop-color="#A5B9CC" />
        </linearGradient>
        <linearGradient id="paint13_linear_809_7" x1="39.292" y1="10.7249" x2="69.8536" y2="64.62"
            gradientUnits="userSpaceOnUse">
            <stop stop-color="#FFEFCF" />
            <stop offset="0.460678" stop-color="#FFE4A6" />
            <stop offset="1" stop-color="#BC956E" />
        </linearGradient>
        <linearGradient id="paint14_linear_809_7" x1="126.752" y1="56.1059" x2="135.385" y2="46.3086"
            gradientUnits="userSpaceOnUse">
            <stop stop-color="#5E738F" />
            <stop offset="0.606735" stop-color="#91AFC8" />
            <stop offset="1" stop-color="#C7DFF4" />
        </linearGradient>
        <linearGradient id="paint15_linear_809_7" x1="135.551" y1="3.55998" x2="146.932" y2="23.6301"
            gradientUnits="userSpaceOnUse">
            <stop stop-color="#E1E8F5" />
            <stop offset="0.814606" stop-color="#7F97B4" />
            <stop offset="0.904495" stop-color="#476886" />
            <stop offset="1" stop-color="#002334" />
        </linearGradient>
        <linearGradient id="paint16_linear_809_7" x1="149.113" y1="48.9653" x2="167.66" y2="16.2576"
            gradientUnits="userSpaceOnUse">
            <stop stop-color="#8CA0B5" />
            <stop offset="0.140442" stop-color="#E1E8F5" />
            <stop offset="0.814606" stop-color="#7F97B4" />
            <stop offset="0.904495" stop-color="#476886" />
            <stop offset="1" stop-color="#002334" />
        </linearGradient>
        <linearGradient id="paint17_linear_809_7" x1="142.523" y1="49.513" x2="149.211" y2="45.5813"
            gradientUnits="userSpaceOnUse">
            <stop stop-color="#002334" />
            <stop offset="0.814606" stop-color="#A5B9CC" />
            <stop offset="0.887634" stop-color="#002334" />
            <stop offset="1" stop-color="#002334" />
        </linearGradient>
        <linearGradient id="paint18_linear_809_7" x1="20.8666" y1="34.9864" x2="42.5462" y2="57.0596"
            gradientUnits="userSpaceOnUse">
            <stop stop-color="#D4BC7B" />
            <stop offset="0.331467" stop-color="#7F5F39" />
            <stop offset="1" stop-color="#D4BC7B" />
        </linearGradient>
        <linearGradient id="paint19_linear_809_7" x1="138.01" y1="38.0753" x2="122.525" y2="53.8417"
            gradientUnits="userSpaceOnUse">
            <stop stop-color="#D4BC7B" />
            <stop offset="0.331467" stop-color="#7F5F39" />
            <stop offset="1" stop-color="#D4BC7B" />
        </linearGradient>
        <linearGradient id="paint20_linear_809_7" x1="151.213" y1="4.33862" x2="126.183" y2="29.8225"
            gradientUnits="userSpaceOnUse">
            <stop stop-color="#D4BC7B" />
            <stop offset="0.331467" stop-color="#7F5F39" />
            <stop offset="1" stop-color="#D4BC7B" />
        </linearGradient>
        <linearGradient id="paint21_linear_809_7" x1="56.4316" y1="52.3208" x2="59.7608" y2="52.3208"
            gradientUnits="userSpaceOnUse">
            <stop stop-color="#D3BD8B" />
            <stop offset="1" stop-color="#7F5F39" />
        </linearGradient>
        <linearGradient id="paint22_linear_809_7" x1="113.053" y1="52.2704" x2="109.724" y2="52.2704"
            gradientUnits="userSpaceOnUse">
            <stop stop-color="#D3BD8B" />
            <stop offset="1" stop-color="#7F5F39" />
        </linearGradient>
        <linearGradient id="paint23_linear_809_7" x1="68.7072" y1="53.6794" x2="74.7297" y2="64.3001"
            gradientUnits="userSpaceOnUse">
            <stop stop-color="#7F5F39" />
            <stop offset="0.646072" stop-color="#D3BD8B" />
            <stop offset="0.887634" stop-color="#FFE4A6" />
            <stop offset="1" stop-color="#FFE4A6" />
        </linearGradient>
        <linearGradient id="paint24_linear_809_7" x1="100.824" y1="53.7317" x2="94.2451" y2="65.3341"
            gradientUnits="userSpaceOnUse">
            <stop stop-color="#7F5F39" />
            <stop offset="0.455063" stop-color="#D3BD8B" />
            <stop offset="0.887634" stop-color="#FFE4A6" />
            <stop offset="1" stop-color="#FFE4A6" />
        </linearGradient>
        <linearGradient id="paint25_linear_809_7" x1="64.3001" y1="11.3682" x2="78.3328" y2="-2.91914"
            gradientUnits="userSpaceOnUse">
            <stop stop-color="#D4BC7B" />
            <stop offset="0.0393219" stop-color="#7F5F39" />
            <stop offset="0.106735" stop-color="#D1AC75" />
            <stop offset="1" stop-color="#D4BC7B" />
        </linearGradient>
        <linearGradient id="paint26_linear_809_7" x1="105.392" y1="11.6542" x2="91.1145" y2="-2.88278"
            gradientUnits="userSpaceOnUse">
            <stop stop-color="#D4BC7B" />
            <stop offset="0.0393219" stop-color="#7F5F39" />
            <stop offset="0.106735" stop-color="#D1AC75" />
            <stop offset="1" stop-color="#D4BC7B" />
        </linearGradient>
        <linearGradient id="paint27_linear_809_7" x1="54.8373" y1="13.6976" x2="60.0619" y2="8.73713"
            gradientUnits="userSpaceOnUse">
            <stop stop-color="#FFE292" />
            <stop offset="0.157303" stop-color="#D1AC75" />
            <stop offset="1" stop-color="#FFE292" />
        </linearGradient>
        <linearGradient id="paint28_linear_809_7" x1="114.972" y1="13.6285" x2="109.526" y2="8.45746"
            gradientUnits="userSpaceOnUse">
            <stop stop-color="#FFE292" />
            <stop offset="0.157303" stop-color="#D1AC75" />
            <stop offset="1" stop-color="#FFE292" />
        </linearGradient>
        <linearGradient id="paint29_linear_809_7" x1="30.7808" y1="26.1323" x2="47.0816" y2="9.53561"
            gradientUnits="userSpaceOnUse">
            <stop stop-color="#7F5F39" />
            <stop offset="1" stop-color="#BD9B6A" />
        </linearGradient>
        <linearGradient id="paint30_linear_809_7" x1="150.514" y1="29.1437" x2="157.449" y2="36.2049"
            gradientUnits="userSpaceOnUse">
            <stop stop-color="#7F5F39" />
            <stop offset="1" stop-color="#D4BC7B" />
        </linearGradient>
        <linearGradient id="paint31_linear_809_7" x1="148.169" y1="46.6656" x2="163.316" y2="16.9616"
            gradientUnits="userSpaceOnUse">
            <stop stop-color="#A78A5E" />
            <stop offset="0.764038" stop-color="#7F5F39" />
            <stop offset="0.915726" stop-color="#674C2B" />
            <stop offset="1" stop-color="#674C2B" />
        </linearGradient>
        <linearGradient id="paint32_linear_809_7" x1="135.064" y1="53.3765" x2="91.7017" y2="0.761497"
            gradientUnits="userSpaceOnUse">
            <stop stop-color="#FFEFCF" />
            <stop offset="0.460678" stop-color="#FFE4A6" />
            <stop offset="1" stop-color="#BC956E" />
        </linearGradient>
        <linearGradient id="paint33_linear_809_7" x1="4.66549" y1="43.9606" x2="19.7019" y2="28.6513"
            gradientUnits="userSpaceOnUse">
            <stop stop-color="#7F5F39" />
            <stop offset="1" stop-color="#E9CF98" />
        </linearGradient>
        <linearGradient id="paint34_linear_809_7" x1="1.95949" y1="43.0493" x2="22.2081" y2="22.4331"
            gradientUnits="userSpaceOnUse">
            <stop stop-color="#7F5F39" />
            <stop offset="1" stop-color="#E4CB90" />
        </linearGradient>
    </defs>
</svg>