<svg xmlns="http://www.w3.org/2000/svg" width="100%" height="100%" viewBox="0 0 52 24">
    <g fill="currentColor" id="logo">
        <path
            d="M14.0506 11.0902C13.5077 11.0902 13.0753 11.5326 13.0753 12.0655C13.0753 14.8606 10.803 17.1329 8.0079 17.1329C5.21278 17.1329 2.94052 14.8606 2.94052 12.0655C2.94052 9.2704 5.21278 6.99813 8.0079 6.99813C9.24459 6.99813 10.4109 7.44051 11.3259 8.2348L8.28942 11.1606C7.8973 11.5326 7.88725 12.156 8.25926 12.5481C8.45029 12.7492 8.71172 12.8498 8.96308 12.8498C9.21444 12.8498 9.45574 12.7593 9.64677 12.5783L13.3971 8.96878L13.4172 8.94866C13.4373 8.92855 13.4473 8.9185 13.4574 8.8984C13.4574 8.8984 13.4674 8.87829 13.4775 8.86823C13.4875 8.84813 13.5077 8.83808 13.5177 8.81797C13.5177 8.81797 13.5177 8.8079 13.5278 8.79785C13.5378 8.77774 13.5579 8.75763 13.568 8.73752C13.568 8.73752 13.568 8.72748 13.568 8.71742C13.578 8.69732 13.5881 8.66715 13.5981 8.64704C13.5981 8.64704 13.5981 8.64703 13.5981 8.63697C13.6082 8.60681 13.6182 8.58671 13.6283 8.55655C13.6283 8.52639 13.6484 8.50626 13.6484 8.4761C13.6484 8.4761 13.6484 8.47612 13.6484 8.46607C13.6484 8.4359 13.6484 8.41578 13.6585 8.38561C13.6585 8.38561 13.6585 8.37557 13.6585 8.36552C13.6585 8.33535 13.6585 8.31526 13.6585 8.28509C13.6585 8.28509 13.6585 8.27502 13.6585 8.26497C13.6585 8.24486 13.6585 8.21469 13.6585 8.19458C13.6585 8.19458 13.6585 8.17447 13.6585 8.16442C13.6585 8.14431 13.6585 8.1242 13.6585 8.10409C13.6585 8.09404 13.6585 8.08398 13.6585 8.07393C13.6585 8.05382 13.6585 8.03371 13.6484 8.01361C13.6484 8.00355 13.6484 7.9935 13.6484 7.98344C13.6484 7.96334 13.6383 7.94323 13.6283 7.92312C13.6283 7.92312 13.6283 7.90301 13.6183 7.89296C13.6183 7.87285 13.5982 7.85274 13.5881 7.83263C13.5881 7.83263 13.5881 7.81253 13.578 7.80247C13.568 7.78236 13.5579 7.76226 13.5479 7.74215C13.5479 7.74215 13.5378 7.72204 13.5278 7.71199C13.5177 7.69188 13.5077 7.67175 13.4875 7.6617C12.1403 6.00272 10.1596 5.05762 8.02803 5.05762C4.15709 5.05762 1 8.21471 1 12.0856C1 15.9566 4.15709 19.1136 8.02803 19.1136C11.899 19.1136 15.056 15.9566 15.056 12.0856C15.056 11.5427 14.6136 11.1104 14.0808 11.1104L14.0506 11.0902Z" />
        <path
            d="M37.0143 0.161016C35.2246 -0.22105 33.6058 0.0805969 32.4395 1.02571C31.5548 1.73957 30.499 3.19745 30.499 6.0529V6.40478C30.499 6.40478 30.499 6.42488 30.499 6.43494C30.499 6.44499 30.499 6.45504 30.499 6.4651V18.1181C30.499 18.6611 30.9414 19.0934 31.4743 19.0934C32.0072 19.0934 32.4496 18.651 32.4496 18.1181V7.41021H36.7931C37.336 7.41021 37.7683 6.96782 37.7683 6.43494C37.7683 5.90206 37.326 5.45966 36.7931 5.45966H32.4596C32.5501 4.11237 32.9624 3.11701 33.6561 2.55396C34.1488 2.16184 35.0537 1.75967 36.5819 2.08141C37.1148 2.192 37.6276 1.86021 37.7482 1.32733C37.8588 0.794445 37.5271 0.281668 36.9942 0.161016H37.0143Z" />
        <path
            d="M50.7087 5.10795C50.206 4.90687 49.6329 5.15821 49.4419 5.66093C49.3213 5.96256 47.2098 11.3316 45.6313 15.5645L41.6397 5.65087C41.4386 5.14815 40.8655 4.90687 40.3628 5.10795C39.8601 5.30904 39.6188 5.88213 39.8199 6.38485L44.6259 18.3094C44.5253 18.6009 44.4248 18.8724 44.3443 19.1137C43.3188 22.1099 41.6196 22.0496 41.3984 22.0295C41.3783 22.0295 41.3481 22.0295 41.328 22.0295C40.7851 22.0295 40.3527 22.4719 40.3427 23.0148C40.3427 23.5477 40.7549 23.98 41.3079 24.0001C41.3079 24.0001 41.318 24.0001 41.328 24.0001C42.4139 23.99 44.8873 23.5376 46.1843 19.7572C47.4511 16.027 51.2115 6.47534 51.2517 6.38485C51.4528 5.88213 51.2014 5.30902 50.6987 5.11799L50.7087 5.10795Z" />
        <path
            d="M26.5588 5.0376C26.0159 5.0376 25.5835 5.47999 25.5835 6.01287V13.8151C25.5835 15.645 24.0955 17.133 22.2656 17.133C20.4357 17.133 18.9476 15.645 18.9476 13.8151V6.01287C18.9476 5.46994 18.5052 5.0376 17.9723 5.0376C17.4395 5.0376 16.9971 5.47999 16.9971 6.01287V13.8151C16.9971 16.7208 19.3599 19.0836 22.2656 19.0836C25.1713 19.0836 27.5341 16.7208 27.5341 13.8151V6.01287C27.5341 5.46994 27.0917 5.0376 26.5588 5.0376Z" />
    </g>
</svg>