<svg width="100%" height="100%" viewBox="0 0 800 300" xmlns="http://www.w3.org/2000/svg">
  <g id="orgejo">
    <path
      d="M717.333,241.983c-11.787,0 -22.365,-2.569 -31.734,-7.706c-9.217,-5.289 -16.546,-12.543 -21.986,-21.76c-5.289,-9.218 -7.934,-19.72 -7.934,-31.507c0,-11.938 2.645,-22.44 7.933,-31.507c5.44,-9.218 12.769,-16.395 21.987,-21.533c9.218,-5.289 19.796,-7.933 31.734,-7.933c11.786,-0 22.289,2.644 31.506,7.933c9.369,5.138 16.698,12.315 21.987,21.533c5.289,9.067 7.933,19.569 7.933,31.507c0,11.787 -2.644,22.289 -7.933,31.507c-5.289,9.217 -12.618,16.471 -21.987,21.76c-9.217,5.137 -19.72,7.706 -31.506,7.706Zm-0,-16.546c8.16,-0 15.413,-1.814 21.76,-5.44c6.346,-3.778 11.333,-8.991 14.96,-15.64c3.777,-6.8 5.666,-14.583 5.666,-23.347c0,-8.916 -1.889,-16.698 -5.666,-23.347c-3.627,-6.649 -8.614,-11.786 -14.96,-15.413c-6.347,-3.627 -13.6,-5.44 -21.76,-5.44c-8.16,-0 -15.414,1.813 -21.76,5.44c-6.347,3.627 -11.409,8.764 -15.187,15.413c-3.627,6.649 -5.44,14.431 -5.44,23.347c-0,8.764 1.813,16.547 5.44,23.347c3.778,6.649 8.84,11.862 15.187,15.64c6.346,3.626 13.6,5.44 21.76,5.44Z"
      style="fill:#f50;fill-rule:nonzero;" />
    <path
      d="M601.862,285.957c-4.987,-0 -9.747,-0.605 -14.28,-1.814c-4.533,-1.209 -8.311,-3.097 -11.333,-5.666l6.346,-14.28c4.685,3.778 10.729,5.666 18.134,5.666c6.044,0 10.653,-1.813 13.826,-5.44c3.325,-3.626 4.987,-9.066 4.987,-16.32l0,-106.933l19.04,-0l0,106.933c0,11.636 -3.173,20.854 -9.52,27.654c-6.346,6.8 -15.413,10.2 -27.2,10.2l0,-0Z"
      style="fill:#f50;fill-rule:nonzero;" />
    <circle cx="628" cy="108.9" r="17.25" style="fill:none;stroke:#f50;stroke-width:13.8px;" />
    <path
      d="M547.138,242.247c-12.542,-0 -23.648,-2.569 -33.32,-7.707c-9.52,-5.289 -17,-12.542 -22.44,-21.76c-5.289,-9.218 -7.933,-19.72 -7.933,-31.507c0,-11.786 2.569,-22.289 7.707,-31.506c5.137,-9.218 12.164,-16.396 21.08,-21.534c9.066,-5.289 19.342,-7.933 30.826,-7.933c10.88,-0 20.627,2.418 29.24,7.253c8.614,4.836 15.489,11.636 20.627,20.4c5.289,8.614 8.085,18.738 8.387,30.374l-101.774,19.946l-0.906,-13.826l91.573,-17.68l-7.026,9.973c-0,-7.556 -1.738,-14.356 -5.214,-20.4c-3.324,-6.044 -8.009,-10.804 -14.053,-14.28c-6.045,-3.627 -12.996,-5.44 -20.854,-5.44c-8.008,0 -15.186,1.813 -21.533,5.44c-6.195,3.627 -11.031,8.689 -14.507,15.187c-3.475,6.497 -5.213,14.129 -5.213,22.893c0,9.218 1.889,17.302 5.667,24.253c3.929,6.8 9.293,12.089 16.093,15.867c6.951,3.627 14.96,5.44 24.027,5.44c7.253,0 13.902,-1.209 19.947,-3.627c6.044,-2.568 11.257,-6.422 15.64,-11.56l10.426,12.24c-5.138,6.347 -11.711,11.183 -19.72,14.507c-8.009,3.325 -16.924,4.987 -26.747,4.987Z"
      style="fill:#f50;fill-rule:nonzero;" />
    <path
      d="M405.148,285.957c-10.881,-0 -21.458,-1.587 -31.734,-4.76c-10.124,-3.022 -18.436,-7.405 -24.933,-13.147l9.52,-14.733c5.591,4.986 12.466,8.915 20.626,11.786c8.311,2.871 16.925,4.307 25.84,4.307c14.658,0 25.463,-3.476 32.414,-10.427c6.951,-6.8 9.394,-17.339 10.426,-31.506l2,-27.427l2.267,-22.213l-1.587,-22.214l8.721,-9.746c11.18,15.476 7.413,50.817 7.413,79.56c-0,20.853 -5.138,36.115 -15.413,45.786c-10.276,9.823 -25.463,14.734 -45.56,14.734Zm1.279,-49.867c-11.484,0 -21.835,-2.418 -31.053,-7.253c-9.067,-4.987 -16.244,-11.863 -21.533,-20.627c-5.289,-8.764 -7.934,-18.889 -7.934,-30.373c0,-11.485 2.645,-21.534 7.934,-30.147c5.289,-8.765 12.466,-15.565 21.533,-20.4c9.218,-4.836 19.569,-7.254 31.054,-7.254c10.426,0.001 23.795,2.192 32.106,6.574c8.462,4.231 15.187,10.653 20.173,19.267c5.138,8.613 5.707,19.266 5.707,31.96c0,12.844 -4.569,23.573 -9.707,32.186c-4.986,8.614 -11.711,15.111 -20.173,19.494c-8.311,4.382 -17.68,6.573 -28.106,6.573Zm-0.187,-16.773c8.462,-0 15.942,-1.738 22.44,-5.214c6.498,-3.475 11.56,-8.311 15.186,-14.506c3.778,-6.347 5.667,-13.6 5.667,-21.76c0,-8.16 -1.889,-15.338 -5.666,-21.534c-3.627,-6.195 -8.689,-10.955 -15.187,-14.28c-6.498,-3.475 -13.978,-5.213 -22.44,-5.213c-8.311,-0 -15.716,1.738 -22.214,5.213c-6.497,3.325 -11.635,8.085 -15.413,14.28c-3.627,6.196 -5.44,13.374 -5.44,21.534c0,8.16 1.813,15.413 5.44,21.76c3.778,6.195 8.916,11.031 15.413,14.506c6.498,3.476 13.903,5.214 22.214,5.214Z"
      style="fill:#f50;fill-rule:nonzero;" />
    <path
      d="M279.851,240.85l-0,-119.68l18.133,-0l-0,32.64l-1.813,-7.027c3.324,-8.613 8.915,-15.186 16.773,-19.72c7.858,-4.684 17.604,-7.027 29.24,-7.027l-0,18.587c-0.756,-0.151 -1.511,-0.227 -2.267,-0.227c-0.755,-0.151 -1.511,-0.226 -2.266,-0.226c-11.938,-0 -21.383,3.702 -28.334,11.106c-6.951,7.254 -10.426,17.68 -10.426,31.28l-0,60.294l-19.041,-0Z"
      style="fill:#f50;fill-rule:nonzero;" />
    <path
      d="M202.327,241.983c-11.787,0 -22.365,-2.569 -31.734,-7.706c-9.217,-5.289 -16.546,-12.543 -21.986,-21.76c-5.289,-9.218 -7.934,-19.72 -7.934,-31.507c0,-11.938 2.645,-22.44 7.934,-31.507c5.44,-9.218 12.769,-16.395 21.986,-21.533c9.218,-5.289 19.796,-7.933 31.734,-7.933c11.786,-0 22.289,2.644 31.506,7.933c9.369,5.138 16.698,12.315 21.987,21.533c5.289,9.067 7.933,19.569 7.933,31.507c0,11.787 -2.644,22.289 -7.933,31.507c-5.289,9.217 -12.618,16.471 -21.987,21.76c-9.217,5.137 -19.72,7.706 -31.506,7.706Zm-0,-16.546c8.16,-0 15.413,-1.814 21.76,-5.44c6.346,-3.778 11.333,-8.991 14.96,-15.64c3.778,-6.8 5.666,-14.583 5.666,-23.347c0,-8.916 -1.888,-16.698 -5.666,-23.347c-3.627,-6.649 -8.614,-11.786 -14.96,-15.413c-6.347,-3.627 -13.6,-5.44 -21.76,-5.44c-8.16,-0 -15.414,1.813 -21.76,5.44c-6.347,3.627 -11.409,8.764 -15.187,15.413c-3.627,6.649 -5.44,14.431 -5.44,23.347c0,8.764 1.813,16.547 5.44,23.347c3.778,6.649 8.84,11.862 15.187,15.64c6.346,3.626 13.6,5.44 21.76,5.44l-0,-0Z"
      style="fill:#f50;fill-rule:nonzero;" />
  </g>
  <g id="forgejo_f">
    <path d="M34.15,206.65l0,-115c0,-31.544 25.956,-57.5 57.5,-57.5l23,-0"
      style="fill:none;fill-rule:nonzero;stroke:#f50;stroke-width:27px;" />
    <circle cx="126.15" cy="34.15" r="19" style="fill:none;stroke:#f50;stroke-width:16px;" />
    <path d="M34.15,206.65l0,-40.25c0,-31.544 25.956,-57.5 57.5,-57.5l23,-0"
      style="fill:none;fill-rule:nonzero;stroke:#c00;stroke-width:27px;" />
    <circle cx="126.15" cy="108.9" r="19" style="fill:none;stroke:#c00;stroke-width:16px;" />
    <circle cx="34.15" cy="218.15" r="19" style="fill:none;stroke:#c00;stroke-width:16px;" />
  </g>
</svg>