<svg width="100%" height="100%" viewBox="0 0 365 100" xmlns="http://www.w3.org/2000/svg"
    style="fill-rule:evenodd;clip-rule:evenodd;stroke-linejoin:round;stroke-miterlimit:2;">
    <g fill="currentColor">
        <path
            d="M71.373,42.691l-30.267,0c-0.781,0 -1.414,0.634 -1.414,1.415l0,14.798c0,0.781 0.633,1.417 1.414,1.417l11.807,0l0,18.385c0,-0 -2.651,0.904 -9.981,0.904c-8.647,0 -20.727,-3.16 -20.727,-29.724c0,-26.569 12.579,-30.065 24.388,-30.065c10.223,0 14.626,1.8 17.429,2.667c0.881,0.27 1.695,-0.607 1.695,-1.388l3.376,-14.298c0,-0.366 -0.124,-0.806 -0.54,-1.105c-1.138,-0.812 -8.081,-4.697 -25.621,-4.697c-20.206,0 -40.932,8.597 -40.932,49.922c-0,41.326 23.73,47.485 43.727,47.485c16.557,0 26.601,-7.076 26.601,-7.076c0.414,-0.228 0.459,-0.807 0.459,-1.072l0,-46.153c0,-0.781 -0.633,-1.415 -1.414,-1.415Z" />
        <path
            d="M227.357,5.952c0,-0.787 -0.624,-1.423 -1.406,-1.423l-17.042,-0c-0.778,-0 -1.411,0.636 -1.411,1.423c0,0.004 0.005,32.934 0.005,32.934l-26.565,0l0,-32.934c0,-0.787 -0.626,-1.423 -1.406,-1.423l-17.041,-0c-0.775,-0 -1.408,0.636 -1.408,1.423l0,89.178c0,0.786 0.633,1.426 1.408,1.426l17.041,-0c0.78,-0 1.406,-0.64 1.406,-1.426l0,-38.145l26.565,0c0,0 -0.047,38.142 -0.047,38.145c0,0.786 0.632,1.426 1.412,1.426l17.082,-0c0.781,-0 1.405,-0.64 1.407,-1.426l0,-89.178Z" />
        <path
            d="M103.532,17.654c0,-6.136 -4.919,-11.095 -10.989,-11.095c-6.064,-0 -10.988,4.959 -10.988,11.095c0,6.13 4.924,11.103 10.988,11.103c6.07,-0 10.989,-4.973 10.989,-11.103Z" />
        <path
            d="M102.314,94.267l0,-59.114c0,-0.781 -0.631,-1.42 -1.41,-1.42l-16.989,0c-0.779,0 -1.476,0.803 -1.476,1.585l0,58.977c0,1.733 1.08,2.248 2.477,2.248l15.306,-0c1.68,-0 2.092,-0.824 2.092,-2.276Z" />
        <path
            d="M292.124,33.867l-16.911,0c-0.775,0 -1.407,0.639 -1.407,1.426l-0,43.726c-0,0 -4.297,3.144 -10.395,3.144c-6.097,-0 -7.715,-2.767 -7.715,-8.738l0,-38.132c0,-0.787 -0.63,-1.426 -1.407,-1.426l-17.164,0c-0.774,0 -1.409,0.639 -1.409,1.426l-0,41.019c-0,17.735 9.884,22.074 23.481,22.074c11.156,0 20.15,-6.163 20.15,-6.163c0,-0 0.428,3.248 0.622,3.633c0.193,0.384 0.698,0.772 1.244,0.772l10.919,-0.048c0.774,0 1.409,-0.64 1.409,-1.424l-0.006,-59.863c-0,-0.787 -0.631,-1.426 -1.411,-1.426Z" />
        <path
            d="M331.676,82.109c-5.866,-0.179 -9.845,-2.841 -9.845,-2.841l0,-28.24c0,0 3.925,-2.406 8.741,-2.836c6.09,-0.546 11.958,1.294 11.958,15.821c-0,15.32 -2.648,18.343 -10.854,18.096Zm6.67,-50.245c-9.605,0 -16.138,4.285 -16.138,4.285l0,-30.197c0,-0.787 -0.63,-1.423 -1.406,-1.423l-17.091,-0c-0.777,-0 -1.408,0.636 -1.408,1.423l0,89.178c0,0.786 0.631,1.426 1.41,1.426l11.858,-0c0.534,-0 0.938,-0.275 1.237,-0.757c0.295,-0.479 0.72,-4.112 0.72,-4.112c0,0 6.988,6.623 20.217,6.623c15.532,-0 24.439,-7.878 24.439,-35.366c0,-27.488 -14.226,-31.08 -23.838,-31.08Z" />
        <path
            d="M151.294,33.725l-12.784,0c0,0 -0.019,-16.885 -0.019,-16.889c0,-0.639 -0.33,-0.959 -1.069,-0.959l-17.42,0c-0.678,0 -1.041,0.299 -1.041,0.949l0,17.453c0,-0 -8.73,2.107 -9.321,2.277c-0.587,0.171 -1.02,0.713 -1.02,1.36l0,10.967c0,0.788 0.63,1.424 1.409,1.424l8.932,0l0,26.385c0,19.596 13.746,21.521 23.021,21.521c4.239,0 9.309,-1.361 10.146,-1.67c0.506,-0.186 0.8,-0.71 0.8,-1.279l0.015,-12.064c0,-0.787 -0.665,-1.424 -1.414,-1.424c-0.746,0 -2.65,0.303 -4.612,0.303c-6.28,0 -8.407,-2.919 -8.407,-6.698c0,-3.777 -0.001,-25.074 -0.001,-25.074l12.785,0c0.778,0 1.41,-0.636 1.41,-1.424l0,-13.737c0,-0.787 -0.632,-1.421 -1.41,-1.421Z" />
    </g>
</svg>