<svg width="100%" height="100%" viewBox="0 0 700 155" xmlns="http://www.w3.org/2000/svg">
  <g id="text" fill="currentColor">
    <path
      d="M283.8,59l22.9,0c-3.8,-24.2 -24.8,-41.1 -52.1,-41.1c-27.3,0 -56.5,23.7 -56.5,63.5c-0,39.8 23.1,63.3 57.2,63.3c34.1,-0 52.4,-19.6 52.4,-51.5l-0,-14.8l-50.1,-0l-0,17.5l28.4,-0c-0.4,17.6 -12.1,28.7 -30.7,28.7c-18.6,-0 -34.8,-15.5 -34.8,-43.4c-0,-27.9 14.4,-43.2 34.3,-43.2c19.9,-0 25,8 29,21Z"
      />
    <path
      d="M322.8,143l21.8,0l0,-92.5l-21.8,0l0,92.5Zm10.9,-107.2c6.9,0 12.6,-5.3 12.6,-11.8c0,-6.5 -5.7,-11.9 -12.6,-11.9c-6.9,-0 -12.7,5.3 -12.7,11.9c0,6.6 5.7,11.8 12.7,11.8Z"
      />
    <path
      d="M409.9,50.5l-18.3,0l0,-22.2l-21.8,0l0,22.2l-13.1,0l0,16.9l13.1,0l0,51.5c0,17.4 12.5,26 28.9,25.5c6.2,-0.2 10.5,-1.4 12.8,-2.2l-3.7,-17.1c-1.2,0.3 -3.7,0.8 -6.4,0.8c-5.5,-0 -9.9,-1.9 -9.9,-10.7l-0,-47.8l18.3,0l-0,-16.9l0.1,0Z"
      />
    <path d="M426.8,143l76.7,0l0,-18.7l-54.3,0l0,-104.7l-22.4,0l0,123.4Z" />
    <path
      d="M545.3,144.9c14.5,-0 23.2,-6.8 27.2,-14.6l0.7,-0l0,12.7l21,-0l0,-61.9c0,-24.5 -19.9,-31.8 -37.6,-31.8c-17.7,-0 -34.4,8.7 -39.2,25.5l20.4,2.9c2.2,-6.3 8.3,-11.7 19,-11.7c10.7,-0 15.7,5.2 15.7,14.3l0,0.4c0,6.3 -6.6,6.6 -22.9,8.3c-18,1.9 -35.1,7.3 -35.1,28.1c0,20.8 13.3,27.8 31,27.8l-0.2,-0Zm7.1,-16.1c-9.1,0 -15.6,-4.2 -15.6,-12.2c0,-8 7.3,-11.9 17.1,-13.3c5.7,-0.8 17.2,-2.2 20,-4.5l0,10.9c0,10.3 -8.3,19 -21.5,19l0,0.1Z"
      />
    <path
      d="M610.2,143l21.4,0l0,-14.6l1.3,0c3.4,6.7 10.6,16.2 26.5,16.2c15.9,0 38.1,-17.3 38.1,-47.8c0,-30.5 -16.8,-47.6 -38.2,-47.6c-21.4,0 -23.1,9.8 -26.5,16.5l-0.9,0l0,-46.2l-21.8,0l0,123.4l0.1,0l0,0.1Zm21.4,-46.3c0,-18 7.7,-29.6 21.8,-29.6c14.1,0 22,12.4 22,29.6c0,17.2 -7.6,30 -22,30c-14.4,0 -21.8,-12.1 -21.8,-30Z"
      />
  </g>
  <g id="logo">
    <path
      d="M157,61.9l-0.2,-0.6l-21.2,-55.3c-0.4,-1.1 -1.2,-2 -2.2,-2.6c-1,-0.6 -2.1,-0.9 -3.3,-0.9c-1.2,0 -2.3,0.5 -3.2,1.2c-0.9,0.7 -1.6,1.7 -1.9,2.9l-14.3,43.8l-57.9,0l-14.3,-43.8c-0.3,-1.1 -1,-2.1 -1.9,-2.9c-0.9,-0.7 -2,-1.2 -3.2,-1.2c-1.2,0 -2.3,0.2 -3.3,0.9c-1,0.6 -1.8,1.5 -2.2,2.6l-21.2,55.3l-0.2,0.6c-6.3,16.4 -0.9,34.9 13.1,45.5l0.2,0c0,0.1 32.3,24.3 32.3,24.3l16,12.1l9.7,7.3c2.3,1.8 5.6,1.8 7.9,0l9.7,-7.3l16,-12.1l32.5,-24.3c14,-10.6 19.3,-29.1 13,-45.5l0.1,-0Z"
      style="fill:#e24329;fill-rule:nonzero;" />
    <path
      d="M157,61.9l-0.2,-0.6c-10.5,2.2 -20.2,6.6 -28.5,12.8c-0.1,0 -25.2,19.1 -46.6,35.2c15.8,12 29.6,22.4 29.6,22.4l32.5,-24.3c14,-10.6 19.3,-29.1 13,-45.5l0.2,0Z"
      style="fill:#fc6d26;fill-rule:nonzero;" />
    <path
      d="M52,131.7l16,12.1l9.7,7.3c2.3,1.8 5.6,1.8 7.9,0l9.7,-7.3l16,-12.1c-0,0 -13.8,-10.4 -29.6,-22.4c-15.9,12 -29.7,22.4 -29.7,22.4Z"
      style="fill:#fca326;fill-rule:nonzero;" />
    <path
      d="M35.1,74.1c-8.3,-6.2 -18,-10.7 -28.5,-12.8l-0.2,0.6c-6.3,16.4 -0.9,34.9 13.1,45.5l0.2,-0c-0,0.1 32.3,24.3 32.3,24.3c0,-0 13.8,-10.4 29.7,-22.4c-21.3,-16.1 -46.4,-35.1 -46.6,-35.2Z"
      style="fill:#fc6d26;fill-rule:nonzero;" />
  </g>
</svg>