<svg width="100%" height="100%" viewBox="0 0 800 317" xmlns="http://www.w3.org/2000/svg">
    <g fill="currentColor">
        <path
            d="M609.05,316.51l-0,-238.9l60.16,0l-0,27.15c9.488,-26 35.08,-31.9 53.8,-32.02c30.05,0 76.9,20.76 76.9,94.23c-0,56.76 -27.9,98.16 -76.2,98.3c-24.37,0.076 -42.73,-8.565 -53.8,-22.9l-0,74.14l-60.86,0Zm59.4,-147.5c-0.68,35.32 7.018,53.9 36.4,53.9c29.32,0 33.63,-31.75 33.63,-55.98c0,-24.27 -5.68,-47.76 -36.45,-47.76c-18.8,0 -32.8,14.47 -33.58,49.82"
            style="fill-rule:nonzero;" />
        <path
            d="M497.528,70.48c51,0 95.9,19.43 95.9,108.6l-121.1,0c0,28.47 11.92,40.22 32.9,40.22c20.9,0 27.93,-16.54 27.93,-16.54l59.5,0c0,25.6 -35.66,60.14 -89.58,59.6c-61.52,0 -91.68,-45.12 -91.68,-91.42c0,-46.4 26.73,-100.5 86.1,-100.5m36.43,72.7c0,-17.3 -9.786,-33.95 -32.2,-33.95c-21.75,0 -29.4,15.34 -29.4,33.95l61.6,0Z"
            style="fill-rule:nonzero;" />
        <path
            d="M303.45,70.63c51,0 95.9,19.43 95.9,108.6l-121.1,-0c-0,28.47 11.92,40.22 32.9,40.22c20.9,-0 27.93,-16.54 27.93,-16.54l59.5,-0c-0,25.6 -35.66,60.14 -89.58,59.6c-61.52,-0 -91.68,-45.12 -91.68,-91.42c-0,-46.4 26.73,-100.5 86.1,-100.5m36.43,72.7c-0,-17.3 -9.786,-33.95 -32.2,-33.95c-21.75,-0 -29.4,15.34 -29.4,33.95l61.6,-0Z"
            style="fill-rule:nonzero;" />
        <path
            d="M137.65,0.01l65.12,0l-0,169c-0,29.1 -12.6,89.97 -102.8,89.97c-90.2,0 -99.97,-56.73 -99.97,-88.67l-0,-31.13l62.95,0l-0,30.52c-0,18.67 12.42,36 36.34,36c23.78,0 38.38,-13.18 38.38,-35.4l-0,-170.3l-0.02,0.01Z"
            style="fill-rule:nonzero;" />
    </g>
</svg>