<svg width="1020" height="320" viewBox="0 0 1020 320" xmlns="http://www.w3.org/2000/svg">
	<g id="text" fill="currentColor" fill-rule="evenodd" stroke="none">
		<path id="Path"
			d="M 917.142822 190.038086 L 917.142822 71.249527 C 917.142822 69.680008 916.472351 69.001907 914.872375 69.001907 L 888.365662 69.001907 C 886.811462 69.001907 886.14093 69.687622 886.14093 71.249527 L 886.148621 198.571426 C 886.148621 221.46666 894.940979 225.420959 915.177124 225.420959 C 915.801941 225.420959 916.304749 225.344757 916.777161 224.872375 C 917.234253 224.445709 917.142822 223.257141 917.142822 223.257141 L 917.142822 190.038086 Z M 430.095245 190.944763 L 430.095245 181.809525 L 430.087616 72.156189 C 430.087616 70.601913 429.379059 69.900955 427.824768 69.900955 L 401.295227 69.900955 C 399.740967 69.900955 399.047638 70.601913 399.047638 72.156189 L 399.047638 199.485718 C 399.055237 222.380951 407.855225 226.335236 428.076172 226.335236 C 428.746674 226.335236 429.219055 226.281891 429.706665 225.794281 C 430.133331 225.352386 430.087616 224.179047 430.087616 224.179047 L 430.087616 190.944763 Z M 511.291443 225.504761 C 509.721924 225.504761 509.043823 224.841904 509.043823 223.257141 L 509.043823 139.66095 C 509.043823 138.769516 508.58667 138.335236 507.718109 138.335236 L 501.013336 138.335236 C 499.459045 138.335236 498.803802 137.672379 498.803802 136.09523 L 498.803802 117.588577 C 498.803802 116.064758 499.459045 115.363815 501.013336 115.363815 L 507.718109 115.363815 C 508.594269 115.363815 509.036194 114.914291 509.036194 114.045715 L 509.036194 106.251434 C 509.036194 80.163803 521.089539 69.009521 546.93335 69.009521 L 563.756226 69.009521 C 565.318115 69.009521 565.996216 69.672379 565.996216 71.249527 L 565.996216 91.371429 C 565.996216 92.956192 565.325745 93.603806 563.756226 93.603806 L 552.29718 93.603806 C 542.453369 93.603806 540.053345 96.057144 540.053345 105.21524 L 540.053345 114.053329 C 540.053345 114.914291 540.47998 115.363815 541.348572 115.363815 L 555.580994 115.363815 C 557.135193 115.363815 557.820984 116.057144 557.820984 117.588577 L 557.820984 136.102859 C 557.820984 137.672379 557.135193 138.335236 555.580994 138.335236 L 541.356201 138.335236 C 540.47998 138.335236 540.053345 138.769516 540.053345 139.66095 L 540.053345 223.257141 C 540.053345 224.841904 539.344727 225.512375 537.805725 225.512375 L 511.291443 225.512375 Z M 453.356171 225.504761 C 451.809509 225.504761 451.12381 224.841904 451.12381 223.257141 L 451.11618 117.588577 C 451.11618 116.064758 451.80191 115.363815 453.356171 115.363815 L 480.106659 115.363815 C 481.66095 115.363815 482.33905 116.057144 482.33905 117.588577 L 482.33905 223.264755 C 482.33905 224.841904 481.66095 225.512375 480.114288 225.512375 L 453.356171 225.512375 Z M 453.356171 93.420959 C 451.80191 93.420959 451.11618 92.773331 451.11618 91.211426 L 451.11618 71.249527 C 451.11618 69.672379 451.80191 69.009521 453.348572 69.009521 L 480.106659 69.009521 C 481.66095 69.009521 482.331421 69.672379 482.331421 71.249527 L 482.331421 91.211426 C 482.331421 92.773331 481.66095 93.420959 480.106659 93.420959 L 453.348572 93.420959 Z M 680.068542 195.203812 C 677.828552 188.720016 677.005737 180.011429 677.005737 169.314285 C 677.005737 158.609512 677.828552 149.908585 680.068542 143.46286 C 686.308594 123.60762 703.481873 112.918091 726.697144 112.918091 C 744.502869 112.918091 759.451416 120.971436 767.459045 133.199997 C 768.121887 134.327621 768.121887 135.440002 767.017151 136.33905 L 747.611389 149.024765 C 746.285706 149.908585 745.16571 149.71048 744.297119 148.590485 C 739.801941 142.358093 734.034302 139.21904 727.116211 139.21904 C 718.399963 139.21904 712.860962 143.028564 710.400024 150.815247 C 709.051453 154.594284 708.396179 160.872375 708.396179 169.314285 C 708.396179 177.80191 709.051453 184.019058 710.400024 187.836197 C 712.860962 195.622864 718.399963 199.417145 727.12384 199.417145 C 734.034302 199.417145 739.80957 196.308563 744.297119 190.068588 C 745.16571 188.956207 746.278137 188.720016 747.611389 189.611435 L 767.02478 202.335236 C 768.121887 203.196198 768.121887 204.316193 767.459045 205.459045 C 759.459045 217.679993 744.502869 225.733337 726.697144 225.733337 C 703.489502 225.733337 686.316162 215.028564 680.068542 195.203812 M 839.80957 157.961899 C 840.723816 157.961899 841.112366 157.497131 841.135254 156.628571 C 841.135254 153.718109 840.716187 151.051437 840.022888 148.590485 C 837.37146 140.788574 831.878113 136.780945 822.506653 136.780945 C 814.209534 136.780945 806.582886 140.788574 803.90094 148.590485 C 803.184143 151.209915 802.81781 153.912827 802.811401 156.628571 C 802.811401 157.497131 803.245728 157.961899 804.121887 157.961899 L 839.801941 157.961899 Z M 775.596191 194.990479 C 773.150513 187.379059 772.068542 178.891434 772.068542 169.314285 C 772.068542 159.302856 772.899048 150.594284 775.367615 143.46286 C 781.615234 124.072388 798.780945 112.910477 821.729553 112.910477 C 845.135254 112.910477 862.087585 124.300964 868.365662 143.257141 C 870.780945 150.815247 871.23053 161.954285 871.23053 176.476196 C 871.23053 178.022858 870.34668 178.678101 868.754272 178.678101 L 804.693359 178.678101 C 803.809509 178.678101 803.359985 179.150482 803.359985 180.011429 C 803.60376 182.251434 803.474243 184.255249 804.121887 186.030487 C 807.009521 195.630478 814.582825 200.308578 826.445679 200.316193 C 835.078125 200.331436 841.973328 197.596191 846.300964 194.58667 C 850.262817 191.828568 850.194275 190.853333 852.419067 192.651428 L 869.005737 204.559998 C 870.514282 205.641907 870.34668 206.563812 869.219055 207.66095 C 857.866638 219.714279 842.704773 225.733337 823.306702 225.733337 C 799.001892 225.733337 781.843811 214.571442 775.596191 194.982849 Z M 634.194336 157.961899 C 635.100952 157.961899 635.527588 157.504761 635.527588 156.628571 C 635.527588 153.725723 635.100952 151.051437 634.407654 148.590485 C 631.763855 140.788574 626.278137 136.780945 616.929504 136.780945 C 608.556152 136.780945 600.975281 140.788574 598.316162 148.590485 C 597.574036 151.205383 597.197144 153.91037 597.196167 156.628571 C 597.196167 157.497131 597.622864 157.961899 598.53717 157.961899 L 634.194336 157.961899 Z M 569.973328 194.990479 C 567.542847 187.379059 566.453308 178.891434 566.453308 169.314285 C 566.453308 159.302856 567.291382 150.594284 569.767639 143.46286 C 576 124.072388 593.17334 112.910477 616.137146 112.910477 C 639.52002 112.910477 656.48761 124.300964 662.7276 143.257141 C 665.16571 150.815247 665.615234 161.954285 665.615234 176.476196 C 665.615234 178.022858 664.731445 178.678101 663.177124 178.678101 L 599.085754 178.678101 C 598.209473 178.678101 597.790527 179.150482 597.790527 180.011429 C 597.965698 182.251434 597.874268 184.255249 598.552368 186.030487 C 601.417175 195.630478 608.982849 200.308578 620.838074 200.316193 C 629.508545 200.331436 636.38092 197.596191 640.723816 194.58667 C 644.662842 191.828568 644.617126 190.853333 646.819031 192.651428 L 663.405762 204.559998 C 664.891479 205.641907 664.746643 206.563812 663.657166 207.66095 C 652.251404 219.714279 637.119995 225.733337 617.729553 225.733337 C 593.394287 225.733337 576.213379 214.571442 569.973328 194.982849 Z M 966.965698 189.75238 L 966.965698 70.963806 C 966.965698 69.394287 966.287598 68.716187 964.702881 68.716187 L 938.188599 68.716187 C 936.61908 68.716187 935.940979 69.401917 935.940979 70.963806 L 935.940979 198.285721 C 935.963806 221.180939 944.763794 225.142853 964.961914 225.142853 C 965.594299 225.142853 966.089539 225.066666 966.584778 224.594284 C 967.011414 224.167618 966.965698 222.979034 966.965698 222.979034 L 966.965698 189.76001 Z" />
	</g>
	<g id="logo" fill="#ffc40c" stroke="none">
		<path id="path1"
			d="M 338.281921 73.493332 C 326.769531 55.329529 312.811432 40.457153 296.506653 28.906677 C 280.209534 17.348572 261.542847 9.104767 240.620941 4.190491 C 206.266663 -3.862854 172.872375 -0.228577 140.666656 14.186676 C 123.012337 22.045044 107.028534 33.215607 93.580948 47.093323 C 76.643806 64.540955 64.422859 84.29715 56.96381 106.361908 L 56.773335 106.956192 C 56.514286 107.733337 56.278095 108.525711 56.034286 109.310471 C 48.39238 134.819046 55.539047 148.914291 66.777145 137.104767 C 67.211426 136.601913 67.668571 136.09906 68.118095 135.596191 C 68.285713 135.390472 68.453331 135.207626 68.620949 134.994293 C 81.763809 118.468567 102.678093 104.693329 102.678093 104.693329 L 102.685715 104.700943 C 108.019043 100.990479 113.542862 97.523804 119.295242 94.300949 C 125.870476 90.453339 132.742859 86.918091 139.150482 84.53334 C 139.150482 84.53334 145.108566 81.813339 146.693329 73.523804 L 146.792389 73.066666 C 146.800003 72.982864 146.822861 72.914276 146.838089 72.822861 C 147.90477 65.927612 155.295242 46.956177 176.209534 45.714294 C 182.630417 44.855164 189.162338 45.896118 194.998093 48.708557 C 205.085709 53.508575 212.826675 63.108582 214.396194 74.674286 C 215.638092 83.870483 213.443802 92.540955 208.750473 99.405716 C 208.482529 99.815353 208.195236 100.21199 207.889526 100.594284 L 207.615234 100.960007 C 203.582123 106.155029 198.114899 110.054153 191.889511 112.175232 C 188.209061 113.551193 184.327515 114.31308 180.399994 114.430481 L 180.384766 114.430481 C 178.038101 114.735245 175.432373 114.430481 172.819046 113.790482 C 170.028992 113.242661 167.340622 112.266006 164.849533 110.895233 C 160.811432 108.998093 157.535248 106.857147 156.323807 105.75238 C 155.483612 104.973557 154.458038 104.422745 153.344757 104.152374 C 151.543259 103.842346 149.690475 104.062042 148.011429 104.78476 L 147.973328 104.800003 C 147.241898 105.119995 146.678101 105.485718 146.266663 105.782852 C 141.295273 109.927811 136.527771 114.311371 131.980957 118.918091 C 120.118095 131.390488 110.159996 145.539047 105.489525 152.53334 C 103.02095 156.495239 100.666664 160.556183 98.449524 164.73143 C 96.39238 168.594284 94.487617 172.502869 92.712379 176.457138 C 89.790466 183.050385 87.20929 189.789444 84.97905 196.647614 L 84.659042 197.638092 L 84.232384 199.009521 L 83.828575 200.358093 C 69.44381 249.65332 95.348572 278.102844 117.055237 248.380951 C 118.243805 246.499054 119.455238 244.640015 120.689522 242.788574 L 120.727615 242.727615 C 143.478088 203.360001 190.15239 174.940948 190.15239 174.940948 L 190.175247 174.940948 C 193.032379 173.119995 195.912369 171.36763 198.830475 169.683807 L 198.845703 169.668564 L 199.386673 169.363815 C 207.386658 164.792374 215.615234 160.678101 224.080002 157.097137 C 231.60762 153.744766 239.60762 150.620941 246.243805 149.005707 C 246.243805 149.005707 254.015244 146.97905 256.102875 137.417145 L 256.110474 137.409515 C 257.60379 130.552383 262.563812 120.510483 273.809509 115.116196 C 279.104126 112.383484 285.023224 111.088257 290.97525 111.360001 L 290.998108 111.352386 C 292.651367 111.299469 294.303101 111.497269 295.897156 111.939056 C 310.152374 114.689529 321.839996 126.39238 323.539063 141.813339 C 325.596191 160.510468 312.598083 177.394287 294.015228 179.725723 C 284.742859 180.891434 276.34668 178.857147 269.192383 173.440002 C 261.161896 170.095245 254.982849 172.243805 252.758087 173.287613 C 245.777298 177.095245 239.0439 181.339874 232.598099 185.996201 C 223.659683 192.695267 215.225555 200.042023 207.3638 207.977142 C 199.227646 216.379761 191.884735 225.515671 185.428574 235.26857 L 184.415237 236.853333 L 184.148575 237.279999 C 175.608459 250.963684 168.730698 265.616974 163.66095 280.929535 C 157.542862 301.622864 170.815247 309.866638 186.15239 312.868561 C 186.15239 312.868561 198.175232 315.184753 215.485703 313.912384 C 216.499054 313.828552 217.405716 313.737152 218.182846 313.65332 C 222.556198 313.119995 226.944763 312.655243 231.272385 311.916199 C 261.139038 306.82666 287.546661 294.354279 310.09906 274.095215 C 338.47998 248.586655 355.584778 216.800003 360.895233 179.047623 C 366.213318 141.234283 358.746643 105.790482 338.281921 73.500961" />
	</g>
</svg>
