<svg id="Artwork" xmlns="http://www.w3.org/2000/svg" viewBox="0 0 408 225">
    <g fill="currentColor">
        <path
            d="M2.52,169.23c2.34-.33,4.6-.49,6.77-.49,2.29,0,4.54.16,6.77.49l14.5,30.09,14.94-30.09c1.82-.33,3.84-.49,6.06-.49s4.36.16,6.41.49l2.99,55.26c-2.23.33-4.33.49-6.33.49s-3.95-.16-5.89-.49l-1.58-39.96-12.83,27.62c-.82.11-1.67.21-2.55.29-.88.08-1.76.12-2.64.12-.76,0-1.52-.03-2.28-.08-.76-.05-1.55-.16-2.37-.33l-11.95-28.19-1.23,40.53c-1.87.33-3.69.49-5.45.49-1.88,0-3.81-.16-5.8-.49l2.46-55.26h0ZM384.91,190.83h-5.27l-.41-1.62,15.17-19.39h1.87v12.25h9.82c.16.81.27,1.54.33,2.19.05.65.08,1.32.08,2.03,0,.76-.03,1.49-.08,2.19-.05.7-.16,1.49-.33,2.35h-9.82v16.47c0,1.68.14,3.03.41,4.06.27,1.03.66,1.84,1.18,2.43.51.59,1.15,1,1.91,1.22.76.22,1.65.32,2.68.32.81,0,1.61-.07,2.39-.2.78-.14,1.47-.26,2.07-.36.38,1.03.65,2.1.81,3.2.16,1.11.24,2.1.24,2.96,0,.59-.01,1.09-.04,1.5-.03.4-.07.8-.12,1.18-2.49.6-5.06.89-7.71.89-4.92,0-8.68-1.15-11.28-3.45-2.6-2.3-3.89-6.04-3.89-11.24v-18.98h0ZM356.85,205.76c-3.03-.87-5.39-2.15-7.1-3.85-1.7-1.7-2.56-4.26-2.56-7.67,0-4.11,1.47-7.33,4.42-9.65,2.95-2.33,6.96-3.49,12.05-3.49,2.11,0,4.19.19,6.25.57,2.06.38,4.14.95,6.25,1.7-.11,1.41-.38,2.87-.81,4.38-.43,1.51-.95,2.84-1.54,3.98-1.3-.54-2.73-1.01-4.3-1.42-1.57-.4-3.22-.61-4.95-.61-1.84,0-3.27.28-4.3.85-1.03.57-1.54,1.47-1.54,2.72s.36,2.03,1.09,2.52c.73.49,1.77.95,3.12,1.38l4.62,1.38c1.51.43,2.88.96,4.1,1.58,1.22.62,2.26,1.39,3.12,2.31.87.92,1.54,2.06,2.03,3.41.49,1.35.73,3,.73,4.95s-.42,3.87-1.26,5.6c-.84,1.73-2.06,3.23-3.65,4.5-1.6,1.27-3.53,2.27-5.8,3-2.27.73-4.84,1.1-7.71,1.1-1.3,0-2.49-.04-3.57-.12-1.08-.08-2.12-.22-3.12-.41-1-.19-1.99-.42-2.96-.69-.97-.27-2.03-.62-3.16-1.05.11-1.46.37-2.93.77-4.42.41-1.49.93-2.93,1.58-4.34,1.78.7,3.48,1.23,5.07,1.58,1.6.35,3.26.53,4.99.53.76,0,1.58-.07,2.47-.2.89-.14,1.72-.38,2.47-.73.76-.35,1.39-.81,1.91-1.38.51-.57.77-1.31.77-2.23,0-1.3-.39-2.23-1.18-2.8-.78-.57-1.88-1.07-3.28-1.5l-5.03-1.46h0ZM321.86,224.98c-3.41,0-6.37-.55-8.88-1.66-2.51-1.11-4.6-2.65-6.25-4.62-1.65-1.97-2.89-4.29-3.73-6.94-.84-2.65-1.26-5.52-1.26-8.6s.42-5.98,1.26-8.68c.84-2.7,2.08-5.04,3.73-7.02,1.65-1.97,3.73-3.53,6.25-4.66,2.51-1.14,5.48-1.7,8.88-1.7s6.38.57,8.92,1.7c2.54,1.14,4.65,2.69,6.33,4.66,1.68,1.97,2.92,4.31,3.73,7.02.81,2.7,1.22,5.6,1.22,8.68s-.41,5.95-1.22,8.6c-.81,2.65-2.06,4.96-3.73,6.94-1.68,1.97-3.79,3.52-6.33,4.62-2.54,1.11-5.52,1.66-8.92,1.66h0ZM321.86,216.22c3.03,0,5.21-1.12,6.53-3.37,1.33-2.24,1.99-5.48,1.99-9.69s-.66-7.45-1.99-9.69c-1.32-2.24-3.5-3.37-6.53-3.37s-5.12,1.12-6.45,3.37c-1.33,2.24-1.99,5.48-1.99,9.69s.66,7.45,1.99,9.69c1.32,2.24,3.47,3.37,6.45,3.37h0ZM237.57,182.07c.76-.16,1.51-.28,2.27-.36.76-.08,1.6-.12,2.52-.12s1.73.04,2.43.12c.7.08,1.43.2,2.19.36.16.27.31.66.45,1.18.13.51.26,1.05.37,1.62.11.57.2,1.12.28,1.66.08.54.15,1,.2,1.38.43-.81,1-1.62,1.7-2.43.7-.81,1.54-1.54,2.51-2.19.97-.65,2.07-1.18,3.29-1.58,1.22-.41,2.58-.61,4.1-.61,6.54,0,10.73,2.49,12.57,7.46,1.08-2,2.61-3.74,4.58-5.23,1.97-1.49,4.48-2.23,7.5-2.23,4.76,0,8.26,1.31,10.5,3.94,2.24,2.62,3.37,6.72,3.37,12.29v26.69c-1.95.32-3.87.49-5.76.49s-3.81-.16-5.76-.49v-23.69c0-2.92-.37-5.16-1.1-6.73-.73-1.57-2.2-2.35-4.42-2.35-.92,0-1.83.14-2.72.41-.89.27-1.7.77-2.43,1.5-.73.73-1.32,1.76-1.79,3.08-.46,1.32-.69,3.04-.69,5.15v22.63c-1.95.32-3.87.49-5.76.49s-3.81-.16-5.76-.49v-23.69c0-2.92-.36-5.16-1.09-6.73-.73-1.57-2.2-2.35-4.42-2.35-.92,0-1.84.14-2.76.41-.92.27-1.74.8-2.47,1.58-.73.78-1.31,1.88-1.74,3.29-.43,1.41-.65,3.24-.65,5.52v21.98c-1.95.32-3.87.49-5.76.49s-3.81-.16-5.76-.49v-41.94h0ZM206.86,182.07c.81-.16,1.58-.28,2.31-.36.73-.08,1.53-.12,2.39-.12.81,0,1.61.06,2.39.16.78.11,1.56.24,2.31.41.16.27.31.66.45,1.18.14.51.26,1.05.37,1.62.11.57.2,1.13.28,1.7.08.57.15,1.04.2,1.42,1.19-1.68,2.65-3.18,4.38-4.5,1.73-1.33,3.89-1.99,6.49-1.99.54,0,1.16.03,1.87.08.7.05,1.22.13,1.54.24.11.54.19,1.16.24,1.86.06.7.08,1.43.08,2.19,0,.92-.04,1.92-.12,3-.08,1.08-.23,2.11-.45,3.08-.59-.11-1.26-.16-1.99-.16h-1.34c-.92,0-1.95.1-3.08.28-1.13.19-2.22.69-3.24,1.5-1.03.81-1.88,2.03-2.56,3.65-.68,1.62-1.01,3.89-1.01,6.81v19.95c-.97.16-1.95.27-2.92.32-.97.05-1.92.08-2.84.08s-1.85-.03-2.8-.08c-.95-.05-1.93-.16-2.96-.32v-42.02h0ZM175.12,206.57c.22,3.24,1.35,5.6,3.41,7.06,2.05,1.46,4.76,2.19,8.11,2.19,1.84,0,3.72-.18,5.64-.53,1.92-.35,3.74-.85,5.48-1.5.59,1.08,1.11,2.38,1.54,3.89.43,1.51.68,3.14.73,4.87-4.22,1.62-8.98,2.43-14.28,2.43-3.89,0-7.23-.54-10.02-1.62-2.78-1.08-5.06-2.58-6.81-4.5-1.76-1.92-3.06-4.2-3.89-6.85-.84-2.65-1.26-5.54-1.26-8.68s.43-5.98,1.3-8.68c.86-2.7,2.15-5.06,3.85-7.06,1.7-2,3.81-3.58,6.33-4.75,2.51-1.16,5.45-1.74,8.8-1.74,2.92,0,5.52.51,7.79,1.54,2.27,1.03,4.2,2.43,5.8,4.22,1.6,1.78,2.8,3.91,3.61,6.37s1.22,5.1,1.22,7.91c0,1.03-.04,2.04-.12,3.04-.08,1-.18,1.8-.28,2.39h-26.93ZM191.59,198.54c-.11-2.6-.82-4.69-2.15-6.29-1.32-1.6-3.18-2.39-5.56-2.39-2.7,0-4.76.76-6.16,2.27-1.41,1.51-2.24,3.65-2.51,6.41h16.38ZM138.31,190.83h-5.27l-.41-1.62,15.17-19.39h1.87v12.25h9.82c.16.81.27,1.54.32,2.19.05.65.08,1.32.08,2.03,0,.76-.03,1.49-.08,2.19-.05.7-.16,1.49-.32,2.35h-9.82v16.47c0,1.68.14,3.03.41,4.06.27,1.03.66,1.84,1.18,2.43.51.59,1.15,1,1.91,1.22.76.22,1.65.32,2.68.32.81,0,1.61-.07,2.39-.2.78-.14,1.47-.26,2.07-.36.38,1.03.65,2.1.81,3.2.16,1.11.24,2.1.24,2.96,0,.59-.01,1.09-.04,1.5-.03.4-.07.8-.12,1.18-2.49.6-5.06.89-7.71.89-4.92,0-8.68-1.15-11.28-3.45-2.6-2.3-3.89-6.04-3.89-11.24v-18.98h0ZM107.87,190.83h-5.27l-.41-1.62,15.17-19.39h1.87v12.25h9.82c.16.81.27,1.54.33,2.19.05.65.08,1.32.08,2.03,0,.76-.03,1.49-.08,2.19-.05.7-.16,1.49-.33,2.35h-9.82v16.47c0,1.68.14,3.03.41,4.06.27,1.03.66,1.84,1.18,2.43.51.59,1.15,1,1.91,1.22.76.22,1.65.32,2.68.32.81,0,1.61-.07,2.39-.2.78-.14,1.47-.26,2.07-.36.38,1.03.65,2.1.81,3.2.16,1.11.24,2.1.24,2.96,0,.59-.01,1.09-.04,1.5-.03.4-.07.8-.12,1.18-2.49.6-5.06.89-7.71.89-4.92,0-8.68-1.15-11.28-3.45-2.6-2.3-3.89-6.04-3.89-11.24v-18.98h0ZM89,204.79c-.65-.11-1.35-.2-2.11-.28-.76-.08-1.43-.12-2.03-.12-2.65,0-4.75.47-6.29,1.42-1.54.95-2.31,2.47-2.31,4.58,0,1.41.3,2.49.89,3.24.59.76,1.31,1.31,2.15,1.66.84.35,1.73.57,2.68.65.95.08,1.77.12,2.47.12.81,0,1.62-.07,2.43-.2.81-.14,1.51-.26,2.11-.37v-10.71h0ZM89,196.43c0-1.3-.22-2.35-.65-3.16-.43-.81-1.03-1.45-1.78-1.9-.76-.46-1.69-.77-2.8-.93-1.11-.16-2.34-.24-3.69-.24-2.92,0-6.03.57-9.33,1.7-.76-1.41-1.32-2.73-1.7-3.97-.38-1.24-.57-2.73-.57-4.46,2.38-.81,4.76-1.41,7.14-1.78,2.38-.38,4.6-.57,6.65-.57,5.62,0,10.02,1.35,13.18,4.06,3.16,2.7,4.75,7.03,4.75,12.98v24.34c-1.89.59-4.19,1.16-6.9,1.7-2.7.54-5.76.81-9.17.81-2.76,0-5.29-.24-7.59-.73-2.3-.49-4.27-1.3-5.92-2.43-1.65-1.13-2.92-2.6-3.81-4.38-.89-1.79-1.34-3.98-1.34-6.57s.55-4.77,1.66-6.53c1.11-1.76,2.54-3.16,4.3-4.22,1.76-1.05,3.72-1.81,5.88-2.27,2.16-.46,4.33-.69,6.49-.69,1.57,0,3.3.08,5.19.24v-.97Z" />
        <path
            d="M245.31,13.43l.74,14.92c12.1,13.36,16.87,32.29,10.85,50.08-8.99,26.55-38.63,40.51-66.21,31.18-27.58-9.33-42.64-38.43-33.65-64.98,6.04-17.85,21.41-30.01,39.22-33.22L205.88.04c-30.01-.81-58.32,17.82-68.45,47.74-12.45,36.77,7.27,76.66,44.04,89.11,36.77,12.45,76.66-7.27,89.11-44.04,10.11-29.88-1.01-61.82-25.26-79.42Z" />
        <path
            d="M228.08,57.46l-.51-20.86-.41-12-.28-10.4s.06-5.01-.12-6.19c-.04-.25-.11-.45-.21-.63-.01-.02-.02-.05-.04-.07-.01-.02-.03-.04-.04-.06-.19-.33-.49-.6-.89-.73s-.81-.1-1.17.05c0,0-.01,0-.02,0-.04.02-.08.04-.12.06-.17.08-.34.19-.51.35-.85.83-3.86,4.85-3.86,4.85l-6.54,8.09-7.62,9.29-13.08,16.26s-6,7.49-4.67,16.71,8.18,13.71,13.5,15.51,13.49,2.4,20.14-4.12,6.44-16.11,6.44-16.11Z" />
    </g>
</svg>