<svg width="100%" height="100%" viewBox="0 0 600 190" xmlns="http://www.w3.org/2000/svg">
	<path
		d="M454.2,75.8c-14.1,-4.9 -18.5,-7.8 -18.5,-13.1c0,-5.9 4.9,-9.4 13.6,-9.4c7.1,0 14.2,2 19.5,4.1l2.3,-25.6c-6.5,-1.8 -14.4,-3.2 -23,-3.2c-28.5,0 -46.8,16.2 -46.8,37.6c-0.2,13.6 8.9,26.5 32.7,34.6c13.4,4.5 16.9,7.3 16.9,13.1c0,5.9 -4.5,9.6 -15.3,9.6c-10.5,0 -24.1,-4.7 -30.8,-8.7l-6.3,25.6c8.7,4.7 22,8 37.2,8c33,0 49.8,-15.7 49.8,-37.2c-0.2,-16.9 -9.3,-27.9 -31.3,-35.4Zm86.5,43.5c-10.8,-0 -14.1,-6.3 -14.1,-20.2l0,-99.1l-35,8l0,23.1l-13.3,0l-2.4,26.3l15.8,0l0,46.9c0,16.2 3.3,27.2 9.9,34.1c5.6,5.9 15.2,9.9 26.7,9.9c10.1,0 18.5,-1.2 23.2,-3.1l-0.2,-27c-2.6,0.5 -6.1,1 -10.6,1.1Zm-11.3,-61.8l21.9,-0l0,-26.4l-21.9,-0l0,26.4Zm-396.9,33.1c-0.7,-17.6 -1.3,-38.9 -1.3,-60.2l-0.7,-0c-4.7,18.7 -11.1,39.6 -17,56.7l-18.6,57.2l-26.9,0l-16.3,-56.8c-5,-17.2 -10.2,-38.1 -13.8,-57.2l-0.4,0c-0.9,19.7 -1.6,42.4 -2.7,60.7l-2.7,55.6l-32.1,0l9.7,-146.5l46,0l14.9,48.9c4.7,16.9 9.5,35.3 12.9,52.4l0.7,0c4.3,-16.9 9.5,-36.4 14.5,-52.6l16.3,-48.7l45.1,0l8.4,146.5l-33.8,0l-2.2,-56Zm189.3,9.4c1.2,14.8 15.7,21.8 32.5,21.8c12.2,0 22,-1.6 31.8,-4.7l4.7,24.2c-11.7,4.7 -26,7 -41.6,7c-39,0 -61.3,-22.5 -61.3,-58.5c0,-29.1 18.1,-61.3 58,-61.3c37.2,0 51.2,28.8 51.2,57.3c0,6.1 -0.7,11.5 -1.2,14.1l-74.1,0.1Zm42.1,-24.5c0,-8.7 -3.8,-23.2 -20.2,-23.2c-15,0 -21.1,13.6 -22,23.2l42.2,0Z"
		fill="#0862af" />
	<path
		d="M575.8,0.2l24.2,44.1l-24.2,44.3l-24.5,-0l24.2,-44.3l-24.3,-44.1c-0,-0 24.6,-0.1 24.6,-0Zm-299.5,189.8l-98.4,0l-0,-24.4l98.4,0l-0,24.4Zm-69.5,-90.1c1.2,14.8 15.7,21.8 32.5,21.8c12.2,0 22,-1.6 31.8,-4.7l4.7,24.2c-11.7,4.7 -26,7 -41.6,7c-39,0 -61.3,-22.5 -61.3,-58.5c-0,-29.1 18.1,-61.3 58,-61.3c37.2,0 51.2,28.8 51.2,57.3c-0,6.1 -0.7,11.5 -1.2,14.1l-74.1,0l-0,0.1Zm42.1,-24.5c-0,-8.7 -3.8,-23.2 -20.2,-23.2c-15,0 -21.1,13.6 -22.1,23.2l42.3,0Z"
		fill="#ed1c24" />
</svg>