<svg width="100%" height="100%" viewBox="0 0 74 74" fill="none" xmlns="http://www.w3.org/2000/svg">
    <path
        d="M53.0528 5.80734C64.1897 11.6644 71.7975 23.3416 71.7975 36.8017C71.7975 50.2619 64.1897 61.9759 53.0528 67.797V63.7948C57.3119 61.2469 60.9146 57.6819 63.5362 53.4624L53.0528 49.207V42.7315L64.5542 51.7172C66.9567 47.2786 68.3033 42.2215 68.3033 36.8008C68.3033 25.3777 62.1877 15.338 53.0528 9.80775V5.80734ZM36.8561 1.84192C42.68 1.84192 48.1752 3.2613 53.0528 5.80734V9.80959C48.5756 7.11627 43.3344 5.51647 37.8024 5.33422L41.8055 33.9648L53.0528 42.7324V49.208L36.7825 42.6228L20.6216 49.2439V42.8042L31.9417 33.9639L35.9089 5.3333C30.3032 5.51555 25.0988 7.11627 20.6216 9.80775V5.80734C25.4633 3.2613 30.9954 1.84192 36.8561 1.84192ZM53.0528 67.797C48.1752 70.3431 42.6791 71.7974 36.8561 71.7974C30.9963 71.7974 25.4642 70.3431 20.6225 67.8329V63.7948C25.3547 66.6676 30.9227 68.3051 36.8561 68.3051C42.7527 68.3051 48.2857 66.6676 53.0528 63.7948V67.797ZM20.6225 67.8329C9.44791 61.9759 1.84106 50.2619 1.84106 36.8017C1.84106 23.3416 9.44791 11.6644 20.6225 5.80734V9.80959C11.4499 15.3389 5.3352 25.3427 5.3352 36.8017C5.3352 42.2215 6.71869 47.3523 9.12114 51.7899L20.6225 42.8042V49.2439L10.176 53.5351C12.7966 57.7205 16.3635 61.2478 20.6225 63.7948V67.8329Z"
        fill="currentColor" />
</svg>