<svg width="100%" height="100%" viewBox="0 0 128 128" xmlns="http://www.w3.org/2000/svg">
    <path
        d="M42.946,4.47l37.391,-0l-38.815,115.004c-0.815,2.418 -3.097,4.056 -5.648,4.056l-29.099,-0c-1.916,-0.001 -3.718,-0.925 -4.836,-2.481c-1.118,-1.555 -1.419,-3.559 -0.805,-5.374l36.163,-107.15c0.816,-2.418 3.097,-4.056 5.649,-4.057l-0,0.002Z"
        style="fill:url(#_Linear1);fill-rule:nonzero;" />
    <path
        d="M97.28,81.607l-59.293,0c-0.002,-0 -0.004,-0 -0.005,-0c-1.505,-0 -2.743,1.238 -2.743,2.743c-0,0.761 0.317,1.489 0.874,2.008l38.1,35.562c1.109,1.034 2.571,1.609 4.087,1.61l33.574,0l-14.594,-41.923Z"
        style="fill:#0078d4;fill-rule:nonzero;" />
    <path
        d="M42.946,4.47c-2.582,-0.011 -4.886,1.671 -5.662,4.134l-36.105,106.973c-0.231,0.644 -0.349,1.323 -0.349,2.006c0,3.262 2.684,5.947 5.946,5.947c0.005,-0 0.01,-0 0.015,-0l29.85,-0c2.26,-0.404 4.135,-1.998 4.897,-4.165l7.199,-21.219l25.72,23.988c1.077,0.891 2.429,1.384 3.827,1.396l33.45,-0l-14.671,-41.923l-42.765,0.01l26.174,-77.147l-37.526,-0Z"
        style="fill:url(#_Linear2);fill-rule:nonzero;" />
    <path
        d="M90.703,8.519c-0.815,-2.414 -3.093,-4.049 -5.641,-4.049l-41.671,-0c2.548,0.001 4.825,1.636 5.64,4.049l36.165,107.155c0.207,0.614 0.313,1.258 0.313,1.906c0,3.265 -2.687,5.951 -5.952,5.951c-0,0 -0.001,0 -0.001,0l41.672,0c3.266,-0.002 5.952,-2.689 5.952,-5.955c-0,-0.647 -0.106,-1.289 -0.312,-1.902l-36.165,-107.155Z"
        style="fill:url(#_Linear3);fill-rule:nonzero;" />
    <defs>
        <linearGradient id="_Linear1" x1="0" y1="0" x2="1" y2="0" gradientUnits="userSpaceOnUse"
            gradientTransform="matrix(-38.8313,114.715,-114.715,-38.8313,56.574,13.2926)">
            <stop offset="0" style="stop-color:#114a8b;stop-opacity:1" />
            <stop offset="1" style="stop-color:#0669bc;stop-opacity:1" />
        </linearGradient>
        <linearGradient id="_Linear2" x1="0" y1="0" x2="1" y2="0" gradientUnits="userSpaceOnUse"
            gradientTransform="matrix(-8.98178,3.03651,-3.03651,-8.98178,68.7035,66.7532)">
            <stop offset="0" style="stop-color:#000;stop-opacity:0.3" />
            <stop offset="0.07" style="stop-color:#000;stop-opacity:0.2" />
            <stop offset="0.32" style="stop-color:#000;stop-opacity:0.1" />
            <stop offset="0.62" style="stop-color:#000;stop-opacity:0.05" />
            <stop offset="1" style="stop-color:#000;stop-opacity:0" />
        </linearGradient>
        <linearGradient id="_Linear3" x1="0" y1="0" x2="1" y2="0" gradientUnits="userSpaceOnUse"
            gradientTransform="matrix(42.6251,113.56,-113.56,42.6251,63.7636,9.9464)">
            <stop offset="0" style="stop-color:#3ccbf4;stop-opacity:1" />
            <stop offset="1" style="stop-color:#2892df;stop-opacity:1" />
        </linearGradient>
    </defs>
</svg>
