<svg width="100%" height="100%" viewBox="0 0 500 219.323" xmlns="http://www.w3.org/2000/svg">
    <g fill="currentColor">
        <path id="path5" d="m314.3591 85.0631v49.1214h11.0279v-49.1214z" />
        <path id="path4"
            d="m259.667 85.0631v49.1214h10.2458v-32.0319l22.0191 32.0319h11.0655v-49.1214h-10.2455v32.8029l-22.3534-32.8029z" />
        <path id="path3" d="m238.0595 85.0631v49.1214h11.0277v-49.1214z" />
        <path id="path2"
            d="m174.6131 85.0631v49.1214h10.244v-38.6665l10.8055 38.6665h10.6177l10.8417-38.6665v38.6665h10.2458v-49.1214h-16.5424l-9.798 33.507-9.9098-33.507z" />
        <path id="path1"
            d="m250 0a109.6238 109.6238 0 0 0-92.3926 50.65234h-157.6074l15.68945 15.68946h133.7304a109.6238 109.6238 0 0 0-6.0195 18.28125h-109.4316l15.5 15.49805h91.39455a109.6238 109.6238 0 0 0-0.4863 9.5039 109.6238 109.6238 0 0 0 0.4375 8.7773h-73.0645l15.49805 15.4981h59.95115a109.6238 109.6238 0 0 0 5.7813 18.2793h-47.4532l15.6895 15.6914h40.0684a109.6238 109.6238 0 0 0 92.7148 51.3769 109.6238 109.6238 0 0 0 92.7148-51.3769h40.0664l15.6915-15.6914h-47.4532a109.6238 109.6238 0 0 0 5.7813-18.2793h59.9512l15.498-15.4981h-73.0645a109.6238 109.6238 0 0 0 0.4375-8.7773 109.6238 109.6238 0 0 0-0.4843-9.5039h91.3925l15.5-15.49805h-109.4316a109.6238 109.6238 0 0 0-6.0195-18.28125h133.7304l15.6895-15.68946h-157.6074a109.6238 109.6238 0 0 0-92.3926-50.65234zm0 14.85938a94.76514 94.76514 0 0 1 94.7637 94.76562 94.76514 94.76514 0 0 1-94.7637 94.7656 94.76514 94.76514 0 0 1-94.7656-94.7656 94.76514 94.76514 0 0 1 94.7656-94.76562z" />
    </g>
</svg>
