<svg width="100%" height="100%" viewBox="0 0 500 500" xmlns="http://www.w3.org/2000/svg">
    <path id="background" fill="#000000" fill-rule="evenodd" stroke="none"
        d="M 0 470 C -0 486.568542 13.431458 500 30 500 L 470 500 C 486.568542 500 500 486.568542 500 470 L 500 30 C 500 13.431458 486.568542 0 470 0 L 30 0 C 13.431458 0 0 13.431458 0 30 Z" />
    <g id="text" fill="#ffffff" stroke="none">
        <path
            d="M 165.832596 291.28302 L 165.832596 233.147736 C 165.832596 216.656921 156.9505 208.828003 142.036041 208.828003 C 129.634674 208.828003 118.909729 216.157349 114.21714 223.486694 C 111.200958 214.325195 103.65937 208.828003 91.761093 208.828003 C 79.359734 208.828003 68.634781 216.490143 65.282707 221.321045 L 65.282707 210.826935 L 43.999985 210.826935 L 43.999985 291.28302 L 65.282707 291.28302 L 65.282707 237.145599 C 68.466835 232.648193 74.667145 227.651276 82.040787 227.651276 C 90.755676 227.651276 94.107018 232.98172 94.107018 240.477112 L 94.107018 291.28302 L 115.557655 291.28302 L 115.557655 236.979553 C 118.573837 232.648193 124.774879 227.651276 132.315735 227.651276 C 141.030624 227.651276 144.381958 232.98172 144.381958 240.477112 L 144.381958 291.28302 L 165.832596 291.28302 Z" />
        <path
            d="M 220.610077 291.28302 C 247.422882 291.28302 263.511414 272.417511 263.511414 249.974457 C 263.511414 227.693481 247.422882 208.828003 220.610077 208.828003 C 193.963791 208.828003 177.875992 227.693481 177.875992 249.974457 C 177.875992 272.417511 193.963791 291.28302 220.610077 291.28302 Z M 220.610077 272.905243 C 207.37056 272.905243 199.996887 262.334595 199.996887 249.974457 C 199.996887 237.776398 207.37056 227.20578 220.610077 227.20578 C 233.848938 227.20578 241.38974 237.776398 241.38974 249.974457 C 241.38974 262.334595 233.848938 272.905243 220.610077 272.905243 Z" />
        <path
            d="M 356.887146 291.28302 L 356.887146 234.480347 C 356.887146 218.822571 348.340912 208.828003 330.576721 208.828003 C 317.33786 208.828003 307.450409 215.157532 302.255493 221.321045 L 302.255493 210.826935 L 280.972015 210.826935 L 280.972015 291.28302 L 302.255493 291.28302 L 302.255493 237.145599 C 305.77475 232.31543 312.310181 227.651276 320.689209 227.651276 C 329.738495 227.651276 335.604401 231.482361 335.604401 242.642761 L 335.604401 291.28302 L 356.887146 291.28302 Z" />
        <path
            d="M 412.862396 291.28302 C 439.675873 291.28302 455.762207 272.417511 455.762207 249.974457 C 455.762207 227.693481 439.675873 208.828003 412.862396 208.828003 C 386.21756 208.828003 370.128998 227.693481 370.128998 249.974457 C 370.128998 272.417511 386.21756 291.28302 412.862396 291.28302 Z M 412.862396 272.905243 C 399.624268 272.905243 392.249939 262.334595 392.249939 249.974457 C 392.249939 237.776398 399.624268 227.20578 412.862396 227.20578 C 426.103394 227.20578 433.643524 237.776398 433.643524 249.974457 C 433.643524 262.334595 426.103394 272.905243 412.862396 272.905243 Z" />
    </g>
</svg>
