<svg width="275" height="280" viewBox="0 0 275 280" xmlns="http://www.w3.org/2000/svg">
    <path id="ugid2039" fill="#ffffff" stroke="none" d="M 77.762482 126.708618 L 81.076683 127.292999 C 80.704506 128.286041 80.300217 129.265701 79.863167 130.23204 C 77.105652 136.331528 73.313232 141.441635 68.296577 145.454422 C 61.994194 150.493469 54.609871 153.07222 46.586033 152.967194 C 40.870792 152.893219 35.391205 151.38858 30.176991 148.623611 C 24.037914 145.354233 18.897743 140.725998 14.619501 134.881241 C 10.798794 129.676575 7.961721 123.86467 6.06353 117.508698 C 4.232746 111.373764 3.371944 105.142151 3.532377 98.832733 C 3.548952 98.242889 3.56662 97.808212 3.610943 96.816986 C 3.622406 96.560638 3.63018 96.384888 3.636591 96.235077 C 3.637054 96.007706 3.643446 95.78479 3.654789 95.563538 L 3.451185 95.045349 L 5.133091 85.50679 L 5.586767 85.041016 C 6.262705 82.563416 7.182049 80.128189 8.329285 77.688416 C 11.079836 71.822739 14.808979 66.892944 19.684361 63.007904 C 25.636993 58.272156 32.564877 55.71637 40.12878 55.548462 C 46.087349 55.42189 51.821129 56.844894 57.264412 59.638214 C 62.832932 62.500824 67.636887 66.525238 71.692406 71.549484 C 77.023323 78.13092 80.654152 85.70694 82.708633 94.1875 L 81.783104 99.436401 C 76.926659 95.075699 73.091118 89.766388 70.125099 83.565903 C 66.797989 76.598999 64.859329 69.10817 64.210487 61.132019 C 63.867172 56.927795 63.912277 52.705383 64.335449 48.530243 C 64.536278 46.447784 64.692963 45.168533 64.963043 43.912628 C 66.405487 36.036438 68.851318 29.20787 72.609062 22.960052 C 75.811729 17.625397 79.70079 13.145752 84.426117 9.581024 C 90.201996 5.212708 96.64846 2.632813 103.676704 2.113434 C 110.839287 1.57608 117.687164 3.22113 124.002548 6.858673 C 129.030762 9.759766 133.3134 13.671509 136.930344 18.480408 C 142.020569 25.236862 145.386902 32.983887 147.235565 41.676651 C 148.338806 46.872009 148.814468 52.154724 148.671646 57.509186 C 148.590897 60.515732 148.321304 63.503998 147.855865 66.503418 C 147.236832 70.407593 146.310684 74.143417 145.047821 77.715485 C 144.228119 80.041092 143.29953 82.266998 142.25473 84.392456 L 138.69931 83.765533 C 138.479309 80.96402 138.466522 78.124634 138.650497 75.246643 C 138.843979 72.144455 139.247086 69.109314 139.867355 66.151245 C 141.31163 59.228241 143.758926 52.642822 147.182007 46.44838 C 150.940475 39.633224 155.602097 33.724091 161.246017 28.773712 C 166.481918 24.182281 172.176865 20.750397 178.449066 18.587891 C 183.586212 16.813721 188.848053 16.055756 194.182739 16.38443 L 194.283844 16.391144 C 197.124435 16.593079 198.685104 16.871124 201.460617 17.64328 L 201.580124 17.676514 L 201.698837 17.712524 C 211.970627 20.827515 219.592117 27.688049 224.394363 37.541656 C 227.276749 43.459412 228.801239 49.863556 229.202835 56.870193 C 229.504288 62.307541 229.057144 67.766998 227.903778 73.256805 C 225.86792 82.942169 221.937042 91.852127 216.157486 99.906158 C 211.962982 105.753754 207.026688 110.685471 201.288315 114.636856 C 198.241104 116.729996 195.103241 118.453918 191.853409 119.785019 L 192.867905 114.031464 C 194.622726 111.528351 196.587204 109.125153 198.755447 106.823273 C 201.381943 104.027557 204.27861 101.517975 207.441788 99.296509 C 214.267349 94.522766 221.531357 91.494965 229.414246 90.411072 C 234.489456 89.725189 239.446228 89.952728 244.253174 91.193298 C 252.045532 93.19931 258.539612 97.536514 263.329071 103.986633 C 267.401764 109.472809 269.697632 115.812012 270.466187 122.879196 C 270.864746 126.546661 270.814941 130.199265 270.299622 133.808121 L 270.27475 133.98233 L 270.080414 135.084503 L 270.046417 135.247589 C 269.90567 135.92276 269.779785 136.639969 269.66507 137.416061 L 269.643219 137.56395 L 269.440735 138.712234 L 269.387054 138.952087 C 267.708771 146.449982 264.469727 153.407455 259.786194 159.939224 C 256.192902 164.933273 251.970306 169.264893 247.132813 172.86998 C 240.45639 177.854446 233.240662 181.127075 225.39418 182.486008 C 220.083496 183.406235 214.853577 183.319336 209.732162 182.121216 C 201.706696 180.234024 195.00473 175.904419 190.052444 169.340103 C 186.163864 164.179825 183.852829 158.219559 182.943497 151.61969 C 182.645844 149.480408 182.503189 147.332108 182.511581 145.178711 L 186.314911 145.849335 C 186.322998 145.868607 186.331085 145.887909 186.339203 145.907272 C 188.872513 151.937088 190.925858 156.366974 193.165573 160.474197 C 195.596924 164.937042 198.402344 169.15155 201.582092 173.117996 C 206.546677 179.312225 210.638229 185.876862 213.845413 192.896378 C 216.780853 199.367493 218.79039 205.890427 219.815338 212.568314 C 220.685303 218.233337 220.810226 223.781815 220.131027 229.25679 C 219.022507 238.253296 215.897064 246.371948 210.634399 253.431824 C 205.712982 260.041077 199.340546 265.108765 191.694931 268.662018 C 185.999619 271.307922 180.201935 272.893951 174.246521 273.30481 C 172.251312 273.448608 170.266693 273.463837 168.316925 273.346588 L 167.726563 273.606537 L 156.776306 271.67572 L 156.580399 271.47168 C 153.379211 270.66452 150.376785 269.536865 145.984955 267.665314 C 143.027023 266.399811 140.732925 265.329742 135.733475 262.93158 L 135.698288 262.914703 C 132.21788 261.245178 130.681046 260.518677 128.792282 259.664734 C 124.177338 257.583405 120.015152 255.986206 115.975906 254.786621 C 113.438751 254.032013 110.637672 253.461426 107.267784 252.986145 C 105.456001 252.729095 103.418465 252.641937 100.546341 252.671295 C 96.448105 252.720642 93.019264 252.968506 85.361801 253.679291 L 85.251472 253.689514 C 85.090103 253.704498 85.090103 253.704498 84.945885 253.717865 C 76.024208 254.560364 71.752495 254.846527 66.346909 254.781708 C 62.80481 254.730652 60.337524 254.566803 57.629433 254.075104 C 57.612007 254.073212 57.591125 254.070923 57.566124 254.068207 C 56.871269 253.992554 56.486671 253.941833 55.858467 253.815613 L 55.776428 253.799133 C 55.767151 253.79776 55.756943 253.796265 55.745743 253.794647 C 55.220741 253.717896 54.938927 253.672028 54.474068 253.572815 C 54.000313 253.47171 53.530769 253.348816 53.057251 253.195374 C 52.966591 253.173187 52.862328 253.147675 52.737122 253.117096 C 52.380608 253.029999 52.224937 252.991882 52.022614 252.941925 C 51.337761 252.772858 50.78595 252.631592 50.201218 252.472595 C 42.519638 250.35968 35.832157 246.474274 30.383259 240.835297 C 21.320297 231.4543 16.426395 220.033844 16.00856 207.04834 C 15.860142 202.263351 16.387356 197.484436 17.540352 192.709305 C 18.804592 187.422913 20.780464 182.346741 23.441219 177.439728 C 27.39238 170.156982 32.568638 163.643784 38.921906 157.787979 C 43.437565 153.625748 48.402443 149.945023 53.796318 146.729141 C 57.442978 144.552094 61.063255 141.931458 64.822945 138.786957 C 68.659012 135.572281 72.200523 132.236221 77.762482 126.708618 Z M 164.694229 272.98822 L 164.68634 272.986328 C 164.694626 272.988403 164.703964 272.990692 164.714294 272.993164 C 164.707443 272.991486 164.700745 272.989838 164.694229 272.98822 Z M 164.16452 272.888977 C 164.16713 272.88974 164.175674 272.891907 164.185577 272.894379 C 164.178329 272.892548 164.17131 272.890747 164.16452 272.888977 Z M 160.713806 272.272369 L 160.70723 272.271729 C 160.694473 272.270569 160.681244 272.269348 160.667587 272.268036 C 160.689575 272.270325 160.70549 272.27179 160.713806 272.272369 Z M 57.436371 254.039581 C 57.443283 254.040894 57.450089 254.042175 57.456787 254.043396 C 57.449783 254.042084 57.443077 254.040833 57.436371 254.039581 Z M 5.014288 87.081421 C 5.006325 87.113068 4.998672 87.144119 4.991306 87.174622 C 4.998856 87.143311 5.006479 87.112488 5.014288 87.081421 Z"/>
    <path id="Path" fill="#000000" stroke="none" d="M 56.148941 242.881897 C 55.116989 242.625549 54.079613 242.383118 53.051727 242.103668 C 47.295288 240.520294 42.265396 237.660492 38.109745 233.359863 C 30.94046 225.938995 27.082462 217.072571 26.749081 206.711899 C 26.628338 202.819229 27.077774 198.991379 27.990898 195.209579 C 29.052719 190.769577 30.712254 186.574844 32.884521 182.56871 C 36.353073 176.175507 40.864727 170.614929 46.200813 165.696671 C 50.222397 161.989838 54.604416 158.763153 59.299835 155.963715 C 63.694183 153.340302 67.797981 150.311539 71.720718 147.03067 C 76.658012 142.893127 81.258186 138.395615 85.818413 133.855347 C 89.849754 129.840759 93.831497 125.787674 98.034439 121.96106 C 101.196556 119.072769 104.477806 116.333435 108.021019 113.925949 C 112.453247 110.919403 117.177643 108.544632 122.454544 107.395081 C 126.414047 106.531006 130.391739 106.405121 134.398148 107.025269 C 138.929001 107.717056 143.307983 108.950424 147.506958 110.800751 C 153.932388 113.638809 159.17392 117.94046 163.343674 123.591553 C 166.193665 127.471512 168.441193 131.688614 170.453857 136.042847 C 172.589325 140.65976 174.46524 145.385651 176.433258 150.077194 C 178.653 155.360641 180.98381 160.586319 183.730652 165.623489 C 186.465652 170.643692 189.623306 175.387283 193.198883 179.847488 C 197.523468 185.243195 201.182907 191.045349 204.060532 197.343475 C 206.509277 202.741699 208.293976 208.338257 209.194351 214.204422 C 209.896057 218.773849 210.036545 223.34549 209.466141 227.943558 C 208.605591 234.927551 206.247299 241.335007 202.018494 247.007965 C 198.103226 252.266022 193.0905 256.158142 187.172256 258.9086 C 182.821793 260.929749 178.280777 262.247742 173.477509 262.579163 C 171.776352 262.701752 170.069656 262.704346 168.36911 262.571136 C 168.131927 262.553131 167.899826 262.556824 167.669235 262.55188 C 167.428635 262.637421 167.203171 262.502441 166.96785 262.490692 C 166.773331 262.483185 166.587143 262.361084 166.384476 262.450317 L 162.096405 261.694214 C 161.948486 261.540192 161.740402 261.592773 161.563171 261.537689 L 160.659515 261.378357 C 157.022568 260.615082 153.606094 259.224091 150.211319 257.777435 C 144.461105 255.317322 138.906723 252.436462 133.209534 249.860718 C 128.59433 247.779266 123.898132 245.921631 119.039764 244.47876 C 115.673279 243.477478 112.236069 242.826752 108.778992 242.339203 C 106.01432 241.94693 103.211273 241.890106 100.419876 241.918655 C 94.906662 241.985046 89.423599 242.503113 83.939178 243.011993 C 78.136299 243.559967 72.334953 244.099274 66.504517 244.029388 C 64.133682 243.995209 61.769119 243.9086 59.430588 243.472443 C 58.950996 243.381927 58.460541 243.369843 57.976212 243.272522 C 57.363571 243.128784 56.734123 243.13089 56.148941 242.881897 Z M 198.579987 28.00386 C 206.128876 30.293106 211.326843 35.262558 214.734802 42.25528 C 217.070343 47.050308 218.169373 52.159973 218.473663 57.468719 C 218.727081 62.039429 218.32988 66.563889 217.388245 71.045898 C 215.657257 79.280945 212.330368 86.806091 207.428558 93.636932 C 204.03302 98.370667 200.004715 102.469116 195.208725 105.771576 C 190.937698 108.705383 186.315643 110.836334 181.195572 111.769531 C 177.599457 112.42392 174.019821 112.429535 170.460114 111.581665 C 164.295959 110.122803 159.446899 106.708664 155.767761 101.590424 C 152.632828 97.222809 150.840103 92.294357 149.926163 87.026901 C 149.287811 83.343506 149.137375 79.636017 149.37532 75.913727 C 149.534485 73.361847 149.863953 70.837036 150.38623 68.346222 C 151.613098 62.465332 153.687378 56.894562 156.589737 51.64238 C 159.673721 46.050262 163.524734 41.072495 168.326782 36.860535 C 172.366943 33.317657 176.852936 30.511047 181.952286 28.752899 C 185.699799 27.458649 189.550858 26.873016 193.519623 27.117523 C 195.696075 27.272247 196.555237 27.440582 198.579987 28.00386 Z M 15.667374 89.007599 C 16.204506 86.668182 17.036182 84.425339 18.056942 82.254517 C 20.035267 78.035645 22.707031 74.34375 26.37011 71.424744 C 30.463661 68.16803 35.122833 66.415588 40.354012 66.299469 C 44.601395 66.209259 48.58902 67.27243 52.352364 69.203659 C 56.67836 71.427521 60.299774 74.550781 63.343994 78.322144 C 68.076431 84.164719 71.02858 90.847946 72.596832 98.17688 C 73.415779 102.01413 73.766258 105.899719 73.64743 109.821564 C 73.590752 111.724945 73.391014 113.615021 73.097656 115.497498 C 72.535896 119.07045 71.561264 122.511108 70.073029 125.801682 C 68.088211 130.192001 65.37323 134.028046 61.590416 137.053879 C 57.248268 140.525635 52.287743 142.287445 46.727848 142.214676 C 42.648121 142.161865 38.825413 141.038483 35.227119 139.130402 C 30.390472 136.554642 26.498871 132.910599 23.280148 128.513321 C 20.138584 124.233795 17.876842 119.508316 16.359966 114.429138 C 14.873358 109.44754 14.141356 104.343109 14.273825 99.132202 C 14.299702 98.211319 14.348602 97.294495 14.385483 96.37854 C 14.362772 95.951965 14.47397 95.5401 14.447874 95.115936 C 14.431852 94.937531 14.48625 94.780487 14.508657 94.602936 C 14.515165 94.38089 14.653725 94.167267 14.559507 93.92749 L 15.139626 90.637466 C 15.396877 90.373352 15.355183 90.020813 15.434689 89.704529 C 15.494194 89.468048 15.478539 89.20343 15.667374 89.007599 Z M 75.499062 46.033356 C 76.676552 39.506958 78.641846 33.78009 81.819847 28.496185 C 84.218803 24.500259 87.166122 20.978943 90.903664 18.159363 C 94.930267 15.114044 99.411217 13.211151 104.477249 12.836761 C 109.544304 12.456635 114.248016 13.649048 118.633499 16.175018 C 122.495789 18.403412 125.678757 21.404724 128.349411 24.95549 C 132.615158 30.617569 135.256393 37.010895 136.724579 43.91452 C 137.656769 48.304382 138.049377 52.741943 137.929855 57.223114 C 137.861618 59.764221 137.634399 62.298157 137.242966 64.820969 C 136.739929 67.993637 135.985657 71.110107 134.914154 74.140884 C 132.681503 80.475281 129.402466 86.16391 124.517975 90.843414 C 121.48114 93.744873 118.022293 95.976776 114.023026 97.318878 C 109.55423 98.816254 105.025108 98.972855 100.469193 97.800537 C 96.349854 96.743881 92.740433 94.69696 89.525391 91.92804 C 85.330727 88.319824 82.199203 83.899246 79.820732 78.927032 C 77.001213 73.02301 75.450706 66.771439 74.920479 60.253387 C 74.629318 56.687744 74.670654 53.121216 75.031448 49.560425 C 75.1604 48.223267 75.305267 46.880005 75.499062 46.033356 Z M 259.035095 135.845245 L 258.901245 136.604248 C 257.503082 142.850708 254.777161 148.482147 251.066437 153.657242 C 248.149902 157.710678 244.712616 161.267609 240.70874 164.25148 C 235.569229 168.088516 229.914764 170.790283 223.563522 171.890259 C 219.75882 172.54953 215.963165 172.534912 212.192856 171.652878 C 206.628311 170.344376 202.081787 167.435898 198.632706 162.86409 C 195.785538 159.085815 194.226929 154.781891 193.586533 150.133987 C 193.006744 145.966949 193.208099 141.812668 194.067322 137.697021 C 195.950974 128.646759 200.278671 120.881485 206.583572 114.187943 C 208.713257 111.921036 211.055847 109.894012 213.595932 108.110138 C 218.818665 104.457382 224.496765 101.941299 230.849625 101.067764 C 234.460922 100.579712 238.042725 100.696487 241.573456 101.607697 C 246.966675 102.996094 251.369446 105.911957 254.702606 110.400818 C 257.709473 114.451279 259.242432 119.069077 259.783508 124.044632 C 260.082214 126.793289 260.05368 129.546738 259.662018 132.289719 L 259.527161 133.054504 C 259.334534 133.978714 259.173553 134.908508 259.035095 135.845245 Z"/>
</svg>
