<svg xmlns="http://www.w3.org/2000/svg" width="100%" height="100%" x="0px" y="0px" viewBox="0 0 168 112">
	<g fill="#FCC900" stroke="#FFFFFF" stroke-width="1">
		<path
			d="M68.5,10.5c-8.9,5.6-13.6,14-13.9,25.1c-0.1,9.9,4.1,18.5,13.7,25.2L58.8,70c-11.2-8.4-17.8-20.4-17.8-34.5 C41.1,21.4,48.1,8.8,59,1L68.5,10.5z" />
		<path
			d="M109.9,69.9L68.4,28.9c1.8-4.2,4.9-7.5,9.1-9.3L110,51.6c3-4.7,4-10.1,4-16.1c0-10.5-5.4-19.7-13.5-25.1 l9.3-9.4c10.8,7.8,17.8,20.3,17.8,34.5C127.5,49.8,120.7,62.2,109.9,69.9" />
	</g>
	<g fill="#244DCF" stroke="#FFFFFF" stroke-width="1">
		<path
			d="M100.3,60.7c-4.6,3-10.1,4.7-16.1,4.7c-16.4,0-29.7-13.4-29.7-29.9c0-16.5,13.3-29.9,29.7-29.9 c5.9,0,11.6,1.8,16.2,4.8L91,19.9c-2.2-1-4.6-1.6-7.2-1.6C74.6,18.3,67,26,67,35.5c0,9.5,7.5,17.2,16.9,17.2c2.5,0,4.8-0.5,6.9-1.5 L100.3,60.7z" />
	</g>

	<g id="text" fill="#244DCF">
		<path d="M18.2,101.2L6.4,85.7H1v24.6h5.6l0-15.9l12.2,16h5V85.8h-5.6L18.2,101.2z" />
		<path d="M35.2,110.3H49v-4.4l-13.8,0v-5.7l11.7,0v-4.4H35.2l0-5.7H49v-4.4H35.2h-5.6v24.6L35.2,110.3z" />
		<path d="M154.9,104.8l-7.1-10.5v16h-5.6V85.8l5.6,0l7.1,10.5l7.1-10.5l5.6,0v24.6H162v-16L154.9,104.8z" />
		<path
			d="M66.5,90.1c-4.4,0-7.9,3.6-7.9,8c0,4.4,3.6,8,7.9,8c4.4,0,7.9-3.6,7.9-8C74.4,93.6,70.9,90.1,66.5,90.1 M66.5,85.1c7.4,0,13.4,5.8,13.4,12.9s-6,12.9-13.4,12.9c-7.4,0-13.4-5.8-13.4-12.9S59.1,85.1,66.5,85.1" />
		<path
			d="M107.1,89.2c-2.4-2.7-6-4.4-10-4.4c-7.4,0-13.4,5.8-13.4,12.9c0,7.1,6,12.9,13.4,12.9c4,0,7.6-1.7,10-4.4 l-3-2.9c-1.5,1.8-3.8,2.9-6.3,2.9c-4.5,0-8.2-3.6-8.2-8.1c0-4.5,3.7-8.1,8.2-8.1c2.4,0,4.5,1,6,2.6L107.1,89.2z" />
		<path
			d="M123.7,90c-4.4,0-7.9,3.6-7.9,8c0,4.4,3.6,8,7.9,8c4.4,0,7.9-3.6,7.9-8C131.6,93.5,128,90,123.7,90 M123.7,85 c7.4,0,13.4,5.8,13.4,12.9c0,7.1-6,12.9-13.4,12.9c-7.4,0-13.4-5.8-13.4-12.9C110.3,90.8,116.3,85,123.7,85" />
	</g>
</svg>