<svg width="100%" height="100%" viewBox="0 0 11667 1667" version="1.1" xmlns="http://www.w3.org/2000/svg">
    <path id="nika-path" fill="#fbc02d"
        d="M0,1666.6l0,-1664.03l202.677,-0c139.101,-0 207.738,13.06 218.811,41.636c41.636,107.456 732.281,1026.96 763.553,1016.57c24.329,-8.082 35.521,-176.667 35.521,-535.037l-0,-523.237l364.583,0.069l0,1664.03l-220.805,0c-192.917,0 -225.373,-8.454 -256.979,-66.94c-98.195,-181.708 -674.291,-939.421 -706.189,-928.819c-25.57,8.498 -36.588,160.279 -36.588,503.994l-0,491.834l-182.292,-0.035l-182.292,-0.034Zm2013.13,-0.004l0,-1664.03l396.287,-0l-0,1664.03l-396.287,0Zm792.573,0l-0,-1664.03l396.286,-0l0,361.062c0,198.584 8.816,361.062 19.592,361.062c28.697,0 212.951,-161.236 526.36,-460.603l276.477,-264.09l250.688,9.134l250.688,9.133l-343.638,298.269c-189.002,164.048 -344.195,321.384 -344.874,349.637c-0.679,28.253 163.451,264.905 364.733,525.895l365.967,474.526l-498.754,0l-251.328,-368.911c-138.23,-202.901 -268.508,-368.911 -289.506,-368.911c-20.998,-0 -103.029,53.685 -182.292,119.3l-144.113,119.3l0,499.222l-396.286,0Zm1948.21,-243.324c64.057,-133.829 236.832,-508.095 383.947,-831.704l267.483,-588.379l3130.66,-0.309l3130.66,-0.309l-0,1664.03l-5482.84,-0l-68.735,-158.237c-37.805,-87.03 -94.329,-171.801 -125.609,-188.38c-74.477,-39.474 -682.468,-39.047 -757.143,0.532c-31.832,16.871 -83.645,101.642 -115.14,188.38l-57.262,157.705l-422.489,-0l116.465,-243.324l-0,-0Zm1096.99,-424.818c19.132,-49.375 -190.332,-534.869 -237.483,-550.434c-35.927,-11.86 -216.393,358.022 -246.051,504.301l-17.505,86.341l242.73,0c168.036,0 247.523,-12.373 258.309,-40.208Z" />
        <g id="ru-group" fill="none">
            <path
                d="M7038.77,1336.34c-10.536,-31.46 -24.496,-71.44 -41.88,-119.941c-17.384,-48.501 -36.086,-100.935 -56.104,-157.301c-20.018,-56.366 -41.354,-114.37 -64.006,-174.013c-22.652,-59.643 -43.988,-116.009 -64.006,-169.098c-20.018,-53.089 -38.719,-100.607 -56.104,-142.554c-17.384,-41.946 -31.344,-74.062 -41.88,-96.346c-11.59,154.679 -21.072,322.138 -28.447,502.378c-7.375,180.24 -13.697,362.119 -18.965,545.636l-150.137,-0c4.214,-117.976 8.955,-236.934 14.223,-356.876c5.268,-119.941 11.326,-237.916 18.175,-353.925c6.848,-116.009 14.223,-229.069 22.125,-339.179c7.902,-110.111 16.594,-214.322 26.077,-312.635l134.333,0c28.447,57.677 59.001,125.84 91.663,204.491c32.661,78.65 65.323,160.905 97.984,246.765c32.662,85.859 64.27,171.719 94.824,257.579c30.554,85.86 58.474,164.182 83.761,234.967c25.286,-70.785 53.206,-149.107 83.761,-234.967c30.554,-85.86 62.162,-171.72 94.823,-257.579c32.662,-85.86 65.323,-168.115 97.985,-246.765c32.661,-78.651 63.215,-146.814 91.662,-204.491l134.334,0c35.822,439.13 62.689,893.335 80.6,1362.62l-150.137,-0c-5.268,-183.517 -11.59,-365.396 -18.965,-545.636c-7.375,-180.24 -16.858,-347.699 -28.447,-502.378c-10.536,22.284 -24.496,54.4 -41.881,96.346c-17.384,41.947 -36.085,89.465 -56.104,142.554c-20.018,53.089 -41.353,109.455 -64.006,169.098c-22.652,59.643 -43.987,117.647 -64.005,174.013c-20.019,56.366 -38.72,108.8 -56.104,157.301c-17.385,48.501 -31.345,88.481 -41.881,119.941l-123.271,0Z"
                style="fill-rule:nonzero;" />
            <path
                d="M7923.79,1525.11l-0,-1362.62l668.506,0l0,163.199l-515.208,0l-0,405.049l458.314,-0l0,159.266l-458.314,0l-0,471.902l554.718,-0l0,163.199l-708.016,-0Z"
                style="fill-rule:nonzero;" />
            <path
                d="M9121.73,1536.9c-22.125,0 -46.095,-0.655 -71.908,-1.966c-25.813,-1.311 -51.626,-3.277 -77.439,-5.899c-25.813,-2.621 -51.363,-5.899 -76.649,-9.831c-25.286,-3.933 -48.466,-9.176 -69.537,-15.73l-0,-1321.32c21.071,-6.555 44.251,-11.798 69.537,-15.73c25.286,-3.933 50.836,-7.21 76.649,-9.832c25.813,-2.621 51.363,-4.588 76.649,-5.898c25.286,-1.311 48.992,-1.967 71.118,-1.967c63.215,0 122.48,5.899 177.794,17.697c55.314,11.797 103.252,31.787 143.816,59.97c40.563,28.183 72.435,65.215 95.614,111.094c23.179,45.879 34.768,102.245 34.768,169.098c0,74.717 -14.223,135.999 -42.67,183.845c-28.447,47.845 -66.377,83.565 -113.789,107.16c64.27,23.595 115.369,60.954 153.298,112.077c37.93,51.123 56.895,123.219 56.895,216.288c-0,136.327 -40.3,238.9 -120.9,307.719c-80.601,68.819 -208.349,103.228 -383.246,103.228Zm-143.816,-646.898l0,479.767c11.59,1.31 25.287,2.621 41.091,3.932c13.696,1.311 29.764,2.294 48.202,2.949c18.437,0.656 39.773,0.984 64.005,0.984c45.305,-0 88.239,-3.605 128.803,-10.815c40.563,-7.209 76.122,-19.99 106.676,-38.342c30.554,-18.351 55.05,-43.913 73.488,-76.684c18.438,-32.771 27.657,-74.062 27.657,-123.874c0,-44.568 -6.848,-82.255 -20.545,-113.059c-13.697,-30.805 -33.451,-55.383 -59.265,-73.735c-25.813,-18.352 -56.63,-31.46 -92.453,-39.325c-35.822,-7.865 -75.858,-11.798 -120.109,-11.798l-197.55,0Zm0,-153.367l161.2,-0c37.93,-0 73.752,-3.278 107.467,-9.832c33.715,-6.554 62.953,-18.351 87.712,-35.392c24.76,-17.041 44.251,-39.325 58.475,-66.853c14.223,-27.528 21.335,-62.265 21.335,-104.212c-0,-39.325 -7.375,-72.423 -22.126,-99.295c-14.75,-26.873 -35.032,-48.501 -60.845,-64.887c-25.813,-16.385 -56.104,-28.51 -90.872,-36.376c-34.769,-7.865 -71.645,-11.797 -110.628,-11.797c-38.983,-0 -69.537,0.655 -91.663,1.966c-22.125,1.311 -42.144,3.277 -60.055,5.899l0,420.779Z"
                style="fill-rule:nonzero;" />
            <path
                d="M9842.39,1525.11l-0,-1362.62l668.506,0l0,163.199l-515.208,0l-0,405.049l458.314,-0l-0,159.266l-458.314,0l-0,471.902l554.718,-0l-0,163.199l-708.016,-0Z"
                style="fill-rule:nonzero;" />
            <path d="M11403.8,1359.94l0,165.166l-659.024,-0l0,-1362.62l153.298,0l0,1197.45l505.726,0Z"
                style="fill-rule:nonzero;" />
        </g>
        <g id="ua-group" fill="black">
            <path
                d="M7185.19,1329.23c-11.729,-31.46 -27.271,-71.441 -46.624,-119.942c-19.354,-48.5 -40.174,-100.934 -62.46,-157.3c-22.286,-56.366 -46.038,-114.37 -71.256,-174.013c-25.219,-59.644 -48.971,-116.01 -71.257,-169.098c-22.286,-53.089 -43.106,-100.607 -62.459,-142.554c-19.354,-41.947 -34.896,-74.062 -46.625,-96.346c-12.902,154.678 -23.459,322.138 -31.67,502.378c-8.21,180.24 -15.248,362.118 -21.113,545.635l-167.145,0c4.692,-117.975 9.97,-236.933 15.835,-356.875c5.865,-119.941 12.609,-237.917 20.234,-353.926c7.624,-116.009 15.834,-229.068 24.631,-339.179c8.798,-110.11 18.474,-214.321 29.031,-312.634l149.551,-0c31.669,57.677 65.685,125.84 102.046,204.49c36.361,78.651 72.723,160.906 109.084,246.765c36.361,85.86 71.55,171.72 105.565,257.58c34.016,85.86 65.099,164.182 93.25,234.967c28.15,-70.785 59.233,-149.107 93.249,-234.967c34.015,-85.86 69.204,-171.72 105.565,-257.58c36.362,-85.859 72.723,-168.114 109.084,-246.765c36.362,-78.65 70.377,-146.813 102.047,-204.49l149.55,-0c39.881,439.13 69.791,893.335 89.731,1362.61l-167.145,0c-5.865,-183.517 -12.903,-365.395 -21.113,-545.635c-8.211,-180.24 -18.767,-347.7 -31.67,-502.378c-11.729,22.284 -27.271,54.399 -46.624,96.346c-19.354,41.947 -40.174,89.465 -62.46,142.554c-22.286,53.088 -46.038,109.454 -71.256,169.098c-25.219,59.643 -48.971,117.647 -71.257,174.013c-22.286,56.366 -43.106,108.8 -62.459,157.3c-19.354,48.501 -34.896,88.482 -46.625,119.942l-137.235,-0Z"
                style="fill-rule:nonzero;" />
            <path
                d="M8170.47,1517.99l-0,-1362.61l744.235,-0l-0,163.199l-573.571,0l-0,405.049l510.232,-0l-0,159.266l-510.232,0l-0,471.901l617.556,0l0,163.199l-788.22,0Z"
                style="fill-rule:nonzero;" />
            <path
                d="M9504.11,1529.79c-24.632,-0 -51.317,-0.655 -80.054,-1.966c-28.737,-1.311 -57.474,-3.277 -86.212,-5.899c-28.737,-2.622 -57.181,-5.899 -85.332,-9.831c-28.15,-3.933 -53.955,-9.176 -77.414,-15.73l-0,-1321.32c23.459,-6.554 49.264,-11.797 77.414,-15.73c28.151,-3.932 56.595,-7.209 85.332,-9.831c28.738,-2.622 57.182,-4.588 85.332,-5.899c28.151,-1.311 54.542,-1.966 79.174,-1.966c70.377,0 136.355,5.899 197.935,17.696c61.58,11.798 114.949,31.788 160.107,59.971c45.159,28.183 80.64,65.214 106.445,111.094c25.805,45.879 38.707,102.245 38.707,169.097c0,74.718 -15.834,136 -47.504,183.845c-31.669,47.846 -73.896,83.566 -126.678,107.161c71.55,23.595 128.438,60.954 170.664,112.077c42.226,51.122 63.339,123.218 63.339,216.288c-0,136.327 -44.865,238.9 -134.596,307.719c-89.73,68.819 -231.95,103.228 -426.659,103.228Zm-160.108,-646.898l0,479.766c12.903,1.311 28.151,2.622 45.745,3.933c15.249,1.311 33.136,2.294 53.663,2.949c20.526,0.656 44.278,0.983 71.256,0.983c50.437,0 98.234,-3.604 143.393,-10.814c45.158,-7.21 84.745,-19.99 118.761,-38.342c34.015,-18.352 61.286,-43.913 81.813,-76.684c20.526,-32.771 30.79,-74.062 30.79,-123.874c-0,-44.568 -7.624,-82.255 -22.873,-113.06c-15.248,-30.804 -37.241,-55.383 -65.978,-73.734c-28.737,-18.352 -63.046,-31.46 -102.926,-39.325c-39.88,-7.865 -84.452,-11.798 -133.716,-11.798l-219.928,0Zm0,-153.368l179.461,0c42.226,0 82.107,-3.277 119.641,-9.831c37.534,-6.554 70.083,-18.352 97.648,-35.393c27.564,-17.04 49.263,-39.325 65.098,-66.852c15.835,-27.528 23.752,-62.265 23.752,-104.212c0,-39.325 -8.21,-72.423 -24.631,-99.296c-16.422,-26.872 -39.001,-48.501 -67.738,-64.886c-28.737,-16.385 -62.46,-28.511 -101.167,-36.376c-38.707,-7.865 -79.76,-11.797 -123.159,-11.797c-43.399,-0 -77.415,0.655 -102.047,1.966c-24.632,1.311 -46.918,3.277 -66.858,5.899l0,420.778Z"
                style="fill-rule:nonzero;" />
            <path d="M11040.1,1352.83l-0,165.165l-733.679,0l0,-1362.61l170.664,-0l0,1197.45l563.015,0Z"
                style="fill-rule:nonzero;" />
            <rect x="11219.5" y="155.38" width="170.664" height="1362.62" style="fill-rule:nonzero;" />
        </g>
</svg>