<svg width="100%" height="100%" viewBox="0 0 101 85" fill="none" xmlns="http://www.w3.org/2000/svg">
    <g fill="currentColor">
        <path
            d="M58.6835 45.4956C58.6036 45.5156 58.2839 45.5156 58.144 45.5156H47.8341V47.9132H58.3239C58.4038 47.9132 59.0232 47.9132 59.1431 47.8933C61.281 47.6935 62.26 45.9152 62.26 44.3567C62.26 42.7583 61.241 41.04 59.3029 40.8601C58.9233 40.8202 58.6036 40.8202 58.4637 40.8202H51.6104C51.3107 40.8202 50.971 40.8002 50.8511 40.7602C50.3117 40.6204 50.1119 40.1408 50.1119 39.7412C50.1119 39.3816 50.3117 38.902 50.8711 38.7422C51.031 38.7022 51.2108 38.6823 51.5904 38.6823H61.4808V36.3246H51.4306C51.011 36.3246 50.6913 36.3445 50.4316 36.3845C48.7132 36.6243 47.5144 38.0029 47.5144 39.7612C47.5144 41.1998 48.4135 42.8782 50.3916 43.1579C50.7512 43.1978 51.2508 43.1978 51.4705 43.1978H58.144C58.2639 43.1978 58.5636 43.1978 58.6236 43.2178C59.3828 43.3177 59.6426 43.8772 59.6426 44.3767C59.6426 44.8562 59.3429 45.3757 58.6835 45.4956Z" />
        <path
            d="M39.1425 45.4956C39.0626 45.5156 38.7429 45.5156 38.623 45.5156H28.2931V47.9132H38.7828C38.8628 47.9132 39.4822 47.9132 39.602 47.8933C41.74 47.6935 42.719 45.9152 42.719 44.3567C42.719 42.7583 41.7 41.04 39.7619 40.8601C39.3823 40.8202 39.0626 40.8202 38.9227 40.8202H32.0694C31.7697 40.8202 31.43 40.8002 31.3101 40.7602C30.7707 40.6204 30.5709 40.1408 30.5709 39.7412C30.5709 39.3816 30.7707 38.902 31.3301 38.7422C31.49 38.7022 31.6698 38.6823 32.0494 38.6823H41.9398V36.3246H31.8896C31.47 36.3246 31.1503 36.3445 30.8905 36.3845C29.1722 36.6243 27.9734 38.0029 27.9734 39.7612C27.9734 41.1998 28.8725 42.8782 30.8506 43.1579C31.2102 43.1978 31.7097 43.1978 31.9295 43.1978H38.603C38.7229 43.1978 39.0226 43.1978 39.0825 43.2178C39.8418 43.3177 40.1016 43.8772 40.1016 44.3767C40.1016 44.8562 39.8218 45.3757 39.1425 45.4956V45.4956Z" />
        <path d="M22.9183 36.2446H20.3208V47.9731H22.9183V36.2446Z" />
        <path
            d="M14.5865 47.9731V36.2446H11.989V44.996L3.33748 36.2446H0.000732422V47.9731H2.5982V39.1817L11.3097 47.9731H14.5865Z" />
        <path
            d="M98.125 36.2446V44.996L89.4735 36.2446H86.1367V47.9731H88.7342V39.1817L97.4257 47.9731H100.703V36.2446H98.125Z" />
        <path
            d="M72.6096 36.2446L65.2968 47.9731H68.4537L69.7524 45.8752H78.2841L79.5828 47.9731H82.7198L75.4069 36.2446H72.6096ZM76.9454 43.6573H71.0911L74.0282 38.9419L76.9454 43.6573Z" />
        <path
            d="M14.4466 29.5911C19.6814 14.306 34.1074 4.03606 50.3715 4.03606C66.6356 4.03606 81.0815 14.306 86.2964 29.5911L86.3364 29.711H97.7852V28.3324L93.0299 27.7729C90.0927 27.4332 89.4733 26.1345 88.6741 24.4961L88.4743 24.0965C81.601 9.47076 66.6356 0 50.3715 0C34.0874 0 19.142 9.47076 12.2687 24.1365L12.0689 24.5361C11.2697 26.1745 10.6503 27.4732 7.71312 27.8129L2.95776 28.3723V29.751H14.3866L14.4466 29.5911Z" />
        <path
            d="M86.3364 54.5268L86.2964 54.6467C81.0615 69.9318 66.6356 80.1818 50.3715 80.1818C34.1073 80.1818 19.6614 69.9118 14.4465 54.6267L14.4066 54.5068H2.97772V55.8855L7.73308 56.4449C10.6702 56.7846 11.2896 58.0833 12.0888 59.7217L12.2886 60.1214C19.1619 74.787 34.1273 84.2578 50.3915 84.2578C66.6556 84.2578 81.621 74.787 88.4943 60.1413L88.6941 59.7417C89.4933 58.1033 90.1127 56.8046 93.0498 56.4649L97.8052 55.9055V54.5268H86.3364Z" />
    </g>
</svg>
