<svg class="header__logo" viewBox="0 0 176 22" fill="none" xmlns="http://www.w3.org/2000/svg">
    <path
        d="M17.402 6.257v9.481l3.512-3.47a1.78 1.78 0 0 0 0-2.531l-3.512-3.475v-.005ZM12.619 13.207H8.836v4.405H5.94l3.513 3.476a1.825 1.825 0 0 0 2.557 0l3.512-3.476H12.62v-4.404ZM8.834 8.792h3.783V4.388h2.894L12 .912a1.825 1.825 0 0 0-2.557 0L5.93 4.388h2.904v4.404ZM.532 12.268l3.512 3.47V6.257L.532 9.737a1.78 1.78 0 0 0 0 2.53ZM38.288 14.46h-.2L34.99 5.358a1.27 1.27 0 0 0-.515-.692 1.46 1.46 0 0 0-.848-.263H26.93v3.43h1.899v9.76h3.532V7.54h.2l3.43 10.057h5.83V4.407h-3.533V14.46ZM54.337 5.14c-1.062-.59-2.231-.884-3.513-.884-1.28 0-2.48.293-3.542.884a6.672 6.672 0 0 0-2.517 2.425c-.618 1.025-.93 2.162-.93 3.41 0 1.248.307 2.414.93 3.44a6.788 6.788 0 0 0 2.517 2.44c1.062.6 2.24.899 3.543.899 1.301 0 2.45-.298 3.512-.9a6.67 6.67 0 0 0 2.501-2.44c.608-1.025.909-2.171.909-3.44 0-1.267-.301-2.378-.909-3.409a6.558 6.558 0 0 0-2.501-2.425Zm-1.323 8.093a2.936 2.936 0 0 1-2.184.92 3.065 3.065 0 0 1-2.236-.92c-.608-.612-.909-1.364-.909-2.263 0-.9.301-1.637.909-2.228.607-.591 1.352-.884 2.236-.884.883 0 1.587.303 2.184.9.598.6.894 1.338.894 2.212 0 .874-.296 1.651-.894 2.263ZM68.929 4.453l-3.446 9.765h-.2l-3.41-9.765h-4.037l4.799 13.104h5.4L72.87 4.453h-3.941ZM76.986 4.453 71.82 17.562h3.906l.862-2.395h5.365l.827 2.395h4.074l-5.13-13.109h-4.738Zm.664 7.764 1.557-4.39h.2l1.52 4.39H77.65ZM99.536 12.808h3.512c-.245.546-.628.97-1.159 1.278-.531.309-1.159.46-1.889.46-1.016 0-1.838-.328-2.466-.985-.627-.657-.944-1.505-.944-2.556 0-1.05.301-1.808.909-2.41.607-.6 1.409-.899 2.399-.899.684 0 1.271.187 1.756.556h4.538c-.311-1.202-1.026-2.167-2.154-2.9-1.128-.732-2.471-1.096-4.038-1.096-1.368 0-2.598.288-3.69.87-1.093.58-1.95 1.383-2.568 2.409-.618 1.025-.93 2.187-.93 3.475 0 1.288.297 2.506.894 3.521a6.194 6.194 0 0 0 2.501 2.374c1.072.566 2.282.854 3.625.854 1.342 0 2.44-.329 3.277-.985h.133v.788h3.144V9.863h-6.855v2.95l.005-.005ZM112.882 4.453h-3.773v13.104h10.532V13.89h-6.759V4.453ZM130.985 5.14c-1.062-.59-2.231-.884-3.512-.884-1.281 0-2.481.293-3.543.884a6.674 6.674 0 0 0-2.517 2.425c-.617 1.025-.929 2.162-.929 3.41 0 1.248.307 2.414.929 3.44a6.79 6.79 0 0 0 2.517 2.44c1.062.6 2.241.899 3.543.899s2.45-.298 3.512-.9a6.664 6.664 0 0 0 2.501-2.44c.608-1.025.909-2.171.909-3.44 0-1.267-.301-2.378-.909-3.409a6.552 6.552 0 0 0-2.501-2.425Zm-1.322 8.093a2.935 2.935 0 0 1-2.185.92 3.066 3.066 0 0 1-2.236-.92c-.607-.612-.909-1.364-.909-2.263 0-.9.302-1.637.909-2.228.608-.591 1.353-.884 2.236-.884.883 0 1.588.303 2.185.9.597.6.893 1.338.893 2.212 0 .874-.296 1.651-.893 2.263ZM146.785 10.808c.995-.611 1.49-1.52 1.49-2.718 0-1.09-.393-1.97-1.174-2.636-.786-.667-1.827-1-3.129-1h-7.484v13.108h7.484c1.389 0 2.506-.344 3.344-1.03.837-.688 1.261-1.602 1.261-2.739 0-1.333-.598-2.328-1.787-2.98l-.005-.005Zm-6.657-3.344h3.048c.377 0 .679.096.908.293.23.197.347.45.347.753a.952.952 0 0 1-.347.752c-.229.197-.536.293-.908.293h-3.048V7.46v.005Zm4.237 6.784c-.245.197-.551.293-.929.293h-3.313V12.38h3.313c.373 0 .684.096.929.293.245.197.363.46.363.788a.97.97 0 0 1-.363.788ZM154.221 4.453l-5.166 13.109h3.905l.863-2.395h5.365l.827 2.395h4.073l-5.13-13.109h-4.737Zm.663 7.764 1.557-4.39h.199l1.522 4.39h-3.278ZM169.246 13.89V4.453h-3.777v13.104H176V13.89h-6.754Z"
        fill="currentColor"></path>
</svg>