<svg data-v-3153e3cf="" width="100%" height="100%" viewBox="0 0 62 80" fill="none" xmlns="http://www.w3.org/2000/svg">
    <g fill="currentColor">
        <path
            d="M28.06 55.617h-1.209c-1.41 0-2.418 1.21-2.216 2.62h6.045c1.814-1.814 3.829-3.224 6.045-4.232-.604-2.418-1.007-5.038-.806-7.456-1.813.202-3.425.403-5.239 1.008-.604.201-.806.604-.604 1.209l1.813 4.232c-1.209.806-2.216 1.612-3.224 2.62h-.604zm16.121-23.98c-.403.806-.403 1.814.403 2.62 1.612 1.41 3.426 2.217 4.434 4.232.604 1.007 1.41 3.022-.403 3.224-1.613.201-4.03-1.41-5.441-2.418.604.806.806 1.813 1.209 2.62.201.402.403.604.604.604 1.612.806 4.232 1.41 5.441-.202 1.21-1.41.806-3.224-.403-4.836-1.209-2.015-3.224-2.62-4.635-4.232-.201-.201-.403-.604-.201-.806.201-.604.806-.806 1.41-.806.807-.201 1.814-.403 2.419-.604.604-.403.806-1.008 1.007-1.41l.202-1.008c-1.41.403-3.023.806-4.232 1.41-.403.403-1.41 1.008-1.814 1.612zm-20.755-8.463c2.62-4.635 5.642-9.068 8.866-13.3.605-2.015.202-3.627-.604-5.24l-1.612-3.626a144.276 144.276 0 00-9.068 17.531c-.403.806-.202 1.814.403 2.418.604.605 1.41 1.41 2.015 2.217zm-9.471 35.063c5.239-7.456 13.702-12.292 22.77-12.695.806 2.62 2.217 5.037 3.83 7.254 3.022-.605 6.044-.403 8.866.403l.806 2.015c0 .202 0 .403-.202.403h-.806c-1.41 0-2.418 1.21-2.217 2.62h5.643c.806 0 1.41-.806 1.209-1.612l-2.418-6.247c-1.612-.605-3.224-.806-4.837-1.008l-3.425-8.866c-.605-1.612-2.62-2.418-4.03-2.821-1.612-.403-3.628-.605-5.441-.403 2.015-1.008 4.03-2.016 6.247-2.822 1.209-.403 2.015-1.41 2.418-2.418.403-1.007.604-1.813 1.007-2.82-1.813.805-3.627 1.611-5.44 2.619l3.627-2.418c1.612-1.008 2.418-2.015 2.82-3.627.202-1.21.404-2.217.605-3.426-2.216.806-4.634 2.015-6.65 3.022 1.008-.806 2.62-1.813 3.628-2.418 2.216-1.41 3.425-3.627 3.627-6.247V13.3c-3.023 1.813-6.045 3.627-8.867 5.844 1.612-1.612 3.225-3.225 5.038-4.635 2.62-2.418 3.627-5.643 3.023-9.068-.403-1.814-.806-3.627-1.41-5.441-3.426 3.224-6.65 6.851-9.673 10.479-3.224 4.03-6.247 8.463-9.068 12.896-.403.806-.403 1.612 0 2.217 1.007 1.41 2.015 3.023 2.418 4.635 1.209 4.634-1.21 6.045-3.627 7.859-.605.403-.605 0-.403-.202l.604-.604c1.814-1.613 2.015-4.635.806-6.852-1.612-2.82-3.828-5.44-6.448-7.456-.403 1.008-1.008 2.015-2.62 3.023-1.007.604-3.224 2.217-5.037 4.836.806 1.21 1.612 2.015 2.82 2.821.404-.403.807-.806 1.411-1.209.403-.403 1.008-.201 1.21.202.402-.403.402.201 0 .604l-.404.403c-.403.403-1.007.202-1.209-.201 0 0 0-.202-.201-.202l-.403.403c.403.806 1.007 2.217 1.209 2.217.201 0 .201 0 .403-.202l1.612-1.41c0-.202.201 0 .201.201-1.612 3.023-3.425 6.65-4.433 9.875-.201.604 0 1.209.202 1.612.806 1.41 2.216 2.82 2.62 3.224-1.411 1.813-2.62 3.829-3.628 5.844-.201.403-.604.604-1.209.604H8.917c-1.41 0-2.418 1.21-2.217 2.62h7.255zm16.322 7.859h-4.03L20.2 71.939v-5.843h-3.224v13.501h3.224V75.97l2.217-2.015 4.03 5.844h4.232l-5.642-8.061 5.24-5.642zm16.121 0h-4.03l-6.046 5.843v-5.843h-3.224v13.501h3.224V75.97l2.217-2.015 4.03 5.844h4.232l-5.642-8.061 5.239-5.642zm-35.869 0c-1.008-.202-2.217-.403-3.224-.403-1.008 0-2.217.201-3.224.403a4.77 4.77 0 00-3.628 3.627c-.604 2.217-.604 4.232 0 6.448a4.77 4.77 0 003.628 3.627c1.007 0 2.216.202 3.224.202 1.007 0 2.216-.201 3.224-.403a4.77 4.77 0 003.627-3.627c.605-2.217.605-4.232 0-6.449-.403-1.612-1.813-3.022-3.627-3.425zm.604 9.068c-.201.604-.604 1.209-1.41 1.209-1.612.403-3.224.403-5.038 0-.604-.202-1.209-.605-1.41-1.21a9.823 9.823 0 010-4.835c.201-.605.604-1.21 1.41-1.21 1.612-.403 3.224-.403 5.038 0 .604.202 1.209.605 1.41 1.21a9.824 9.824 0 010 4.836zm49.975-5.643a4.77 4.77 0 00-3.627-3.627c-1.007-.201-2.217-.403-3.224-.403-1.008 0-2.217.202-3.224.403a4.77 4.77 0 00-3.627 3.627c-.605 2.217-.605 4.232 0 6.449a4.77 4.77 0 003.627 3.627c1.007.202 2.216.403 3.224.403s2.217-.201 3.224-.403a4.77 4.77 0 003.627-3.627c.605-2.015.605-4.232 0-6.449zm-3.022 5.643c-.202.604-.605 1.209-1.41 1.209-1.613.403-3.225.403-5.039 0-.604-.202-1.209-.605-1.41-1.21a9.824 9.824 0 010-4.835c.201-.605.604-1.21 1.41-1.21 1.612-.403 3.224-.403 5.038 0 .605.202 1.21.605 1.41 1.21a9.822 9.822 0 010 4.836z">
        </path>
    </g>
</svg>
