<svg width="100%" height="100%" viewBox="0 0 500 500" xmlns="http://www.w3.org/2000/svg">
    <path id="background" fill="#e60c2a"
        d="M500,50l0,400c0,27.596 -22.404,50 -50,50l-400,0c-27.596,0 -50,-22.404 -50,-50l0,-400c0,-27.596 22.404,-50 50,-50l400,0c27.596,0 50,22.404 50,50Z" />
    <g id="letters" fill="#fff">
        <path
            d="M149.8,249.7l-0.3,41.8l-24,0l-0.3,-30.3l-0.2,-30.2l-29,0l-0.2,30.2l-0.3,30.3l-24,0l-0.3,-41.8l-0.2,-41.7l79,0l-0.2,41.7Z" />
        <path
            d="M190.4,229.7c6,12 11.1,21.2 11.3,20.6c0.3,-0.7 3.3,-10.4 6.7,-21.5l6.3,-20.3l13.1,-0.3c7.3,-0.1 13.2,0 13.2,0.4c0,1 -26.6,74.3 -28.9,79.7c-4.6,10.7 -12.3,19.2 -21.6,23.7c-6.4,3.2 -20.1,5.8 -21.6,4.3c-0.6,-0.6 -0.8,-6.1 -0.7,-12.4c0.3,-11.4 0.3,-11.4 5.7,-12.1c7.4,-1.1 11.5,-3.3 13.7,-7.4c1.9,-3.4 1.9,-3.4 -16.4,-39.9l-18.2,-36.5l26.5,-0l10.9,21.7Z" />
        <path
            d="M279.5,224.2l10,15.7l3.9,-6.2c17.8,-27.9 15.3,-25.7 28.6,-25.7l12,-0l-0.2,41.7l-0.3,41.8l-23,-0l-0.3,-21.9l-0.2,-21.9l-9.1,13.4c-5,7.4 -9.7,14 -10.4,14.7c-1,1.2 -3,-1.1 -11.1,-12.9l-9.9,-14.3l-0.5,21.5l-0.5,21.4l-23,-0l-0.3,-41.8l-0.2,-41.8l12.2,0.3c12.2,0.3 12.2,0.3 22.3,16" />
        <path
            d="M412.7,181.5c5,3.1 9.4,5.9 9.7,6.4c0.3,0.4 -0.7,2.8 -2.3,5.3c-3.4,5.4 -11.2,10.7 -21.8,14.9c-12.1,4.8 -21.2,9.9 -23.9,13.4c-1.3,1.8 -2.4,3.4 -2.4,3.7c0,0.3 2.5,-0.8 5.5,-2.3c19.5,-9.8 43.6,0.9 49.9,22.1c3.9,13.1 -0.1,28.8 -9.9,38.5c-7.9,8 -17.8,11.7 -30.9,11.6c-20.9,-0 -37.6,-12.1 -43.1,-31.3c-2.4,-8 -2.4,-23.7 -0.2,-32.5c4.8,-18.4 14.6,-28.9 37.7,-40.2c7.9,-3.9 12.8,-7 16,-10.2c2.5,-2.5 4.9,-4.7 5.5,-4.7c0.5,-0.1 5.1,2.3 10.2,5.3Zm-37.1,59.8c-9.5,5.3 -10.7,18.7 -2.4,26.4c5.2,4.9 15.5,5.8 22.3,2c4.5,-2.5 8.5,-9.2 8.5,-14.2c0,-5.4 -4,-11.7 -9,-14.3c-6,-3 -14.1,-3 -19.4,0.1Z" />
    </g>
</svg>
