<svg width="100%" height="100%" viewBox="0 0 113 113" xmlns="http://www.w3.org/2000/svg">
   <path id="path1948"
      d="M55.827,0.279c-4.584,0.021 -8.961,0.412 -12.813,1.094c-11.346,2.004 -13.406,6.2 -13.406,13.937l-0,10.219l26.812,0l0,3.406l-36.875,0c-7.792,0 -14.615,4.684 -16.75,13.594c-2.462,10.213 -2.571,16.586 0,27.25c1.906,7.938 6.458,13.594 14.25,13.594l9.219,-0l0,-12.25c0,-8.85 7.657,-16.656 16.75,-16.656l26.781,-0c7.455,-0 13.407,-6.139 13.407,-13.625l-0,-25.532c-0,-7.266 -6.13,-12.724 -13.407,-13.937c-4.606,-0.767 -9.385,-1.115 -13.968,-1.094Zm-14.5,8.219c2.769,-0 5.031,2.299 5.031,5.125c-0,2.816 -2.262,5.094 -5.031,5.094c-2.78,-0 -5.032,-2.278 -5.032,-5.094c0,-2.826 2.252,-5.125 5.032,-5.125Z"
      style="fill:url(#_LinearGradientMain_01293);fill-rule:nonzero;" />
   <path id="path1950"
      d="M86.545,28.935l0,11.907c0,9.23 -7.826,17 -16.75,17l-26.781,-0c-7.336,-0 -13.406,6.278 -13.406,13.625l-0,25.531c-0,7.266 6.318,11.54 13.406,13.625c8.487,2.496 16.626,2.947 26.781,-0c6.75,-1.954 13.407,-5.888 13.407,-13.625l-0,-10.219l-26.782,0l0,-3.406l40.188,-0c7.792,-0 10.696,-5.436 13.406,-13.594c2.799,-8.399 2.68,-16.476 0,-27.25c-1.926,-7.757 -5.604,-13.594 -13.406,-13.594l-10.063,0Zm-15.062,64.657c2.779,-0 5.031,2.277 5.031,5.093c0,2.827 -2.252,5.125 -5.031,5.125c-2.77,0 -5.031,-2.298 -5.031,-5.125c-0,-2.816 2.261,-5.093 5.031,-5.093Z"
      style="fill:url(#_LinearGradientMain_48722);fill-rule:nonzero;" />
   <defs>
      <linearGradient id="_LinearGradientMain_01293" x1="0" y1="0" x2="1" y2="0" gradientUnits="userSpaceOnUse"
         gradientTransform="matrix(61.3261,53.2723,-53.2723,61.3261,0.907758,0.27822)">
         <stop offset="0" style="stop-color:#5a9fd4;stop-opacity:1" />
         <stop offset="1" style="stop-color:#306998;stop-opacity:1" />
      </linearGradient>
      <linearGradient id="_LinearGradientMain_48722" x1="0" y1="0" x2="1" y2="0" gradientUnits="userSpaceOnUse"
         gradientTransform="matrix(-21.8995,-31.2832,31.2832,-21.8995,70.8385,97.8263)">
         <stop offset="0" style="stop-color:#ffd43b;stop-opacity:1" />
         <stop offset="1" style="stop-color:#ffe873;stop-opacity:1" />
      </linearGradient>
   </defs>
</svg>