<svg width="100%" height="100%" viewBox="0 0 500 500" xmlns="http://www.w3.org/2000/svg">
   <path
      d="M479.897,200.025l-159.945,0c-0.042,0.001 -0.083,0.001 -0.125,0.001c-10.925,-0 -19.915,-8.99 -19.915,-19.915c-0,-0.042 0,-0.084 0,-0.126c0,0 0,-159.945 0,-159.945c0,-10.925 -8.99,-19.915 -19.915,-19.915c-0.041,0 -0.083,0 -0.125,0.001l-59.869,-0c-0.042,-0.001 -0.084,-0.001 -0.126,-0.001c-10.925,0 -19.915,8.99 -19.915,19.915c0,0 0,159.945 0,159.945c0.001,0.042 0.001,0.084 0.001,0.126c-0,10.925 -8.99,19.915 -19.915,19.915c-0.042,-0 -0.084,-0 -0.126,-0.001l-59.869,0c-0.042,0.001 -0.084,0.001 -0.126,0.001c-10.925,-0 -19.915,-8.99 -19.915,-19.915c0,-0.042 0,-0.084 0.001,-0.126l-0,-159.945c-0,-0.041 0,-0.083 0,-0.125c0,-10.925 -8.99,-19.915 -19.915,-19.915c-0.042,0 -0.084,0 -0.125,0c-0,0 -59.996,0 -59.996,0c-10.925,0 -19.915,8.99 -19.915,19.915c0,0.042 0.001,0.084 0.001,0.125l-0,459.92c-0,0.042 -0.001,0.084 -0.001,0.126c0,10.925 8.99,19.914 19.915,19.914c0.042,0 0.084,0 0.126,0l459.794,0c0.042,0 0.084,0 0.126,0c10.925,0 19.915,-8.989 19.915,-19.914c-0,-0.042 -0.001,-0.084 -0.001,-0.126l0,-259.519c0.004,-0.167 0.006,-0.334 0.006,-0.501c0,-10.925 -8.989,-19.915 -19.914,-19.915c-0.044,-0 -0.088,0 -0.132,0Zm-80.411,169.84c0.001,0.042 0.001,0.083 0.001,0.125c-0,16.422 -13.513,29.935 -29.935,29.935l-40.081,-0c-16.422,-0 -29.935,-13.513 -29.935,-29.935c0,-0.042 0,-0.083 0.001,-0.125l-0,-39.955c-0.001,-0.042 -0.001,-0.084 -0.001,-0.125c0,-16.422 13.513,-29.935 29.935,-29.935l40.081,-0c16.422,-0 29.935,13.513 29.935,29.935c-0,0.041 -0,0.083 -0.001,0.125l0,39.955Z"
      style="fill:#f60;fill-rule:nonzero;" />
</svg>