<svg width="100%" height="100%" viewBox="0 0 465 150" xmlns="http://www.w3.org/2000/svg">

	<g id="text" fill="currentColor">
		<path
			d="M252.315,47.155c0,3.619 -2.973,6.849 -6.85,6.849c-2.973,0 -5.557,0.776 -7.754,2.456c-2.455,1.552 -4.394,3.748 -5.944,6.203c-3.102,4.136 -4.651,9.046 -5.298,10.854l0,24.554c0,3.748 -3.23,6.85 -7.107,6.85c-3.748,0 -6.849,-3.102 -6.849,-6.85l0,-50.916c0,-3.748 3.101,-6.72 6.849,-6.72c3.877,0 7.107,2.973 7.107,6.72l0,0.905c0.775,-0.905 1.809,-1.938 2.714,-2.585c4.265,-2.842 9.821,-5.169 16.282,-5.04c3.877,0 6.85,2.973 6.85,6.72Z" />
		<path
			d="M248.52,72.613c0.13,-17.575 13.828,-32.307 31.531,-32.307c16.8,0 30.11,12.535 31.145,29.98l0,0.646c0,0.259 0,0.904 -0.129,1.163c-0.389,3.102 -3.102,5.17 -6.721,5.17l-41.094,0c0.646,2.973 2.067,6.332 4.394,8.529c2.714,3.102 7.883,5.426 12.405,5.814c4.652,0.387 10.209,-0.775 13.44,-3.23c2.713,-2.844 8.012,-2.455 9.692,-0.389c1.68,1.811 2.972,5.688 0,8.4c-6.333,5.814 -13.957,8.529 -23.133,8.529c-17.702,-0.127 -31.4,-14.73 -31.53,-32.305Zm14.086,-6.332l36.571,0c-1.292,-5.169 -7.883,-12.793 -19.126,-13.698c-10.983,0.516 -16.411,8.4 -17.445,13.698Z" />
		<path
			d="M377.037,97.942c0,3.748 -3.102,6.979 -6.979,6.979c-3.489,0 -6.202,-2.455 -6.849,-5.557c-4.91,3.359 -11.113,5.557 -17.575,5.557c-17.445,0 -31.402,-14.732 -31.402,-32.178c0,-17.705 13.957,-32.437 31.402,-32.437c6.333,0 12.535,2.067 17.316,5.427l0,-24.294c0,-3.748 3.102,-6.979 7.107,-6.979c3.877,0 6.979,3.231 6.979,6.979l0,76.503l0.001,0Zm-31.402,-43.55c-4.652,0 -8.917,1.938 -12.146,5.298c-3.231,3.231 -5.17,7.882 -5.17,13.052c0,4.91 1.938,9.562 5.17,12.793c3.229,3.361 7.494,5.299 12.146,5.299c4.781,0 8.917,-1.938 12.147,-5.299c3.23,-3.23 5.169,-7.883 5.169,-12.793c0,-5.17 -1.938,-9.821 -5.169,-13.052c-3.23,-3.36 -7.366,-5.298 -12.147,-5.298Z" />
		<path
			d="M401.623,24.153c0,3.877 -2.972,7.107 -6.979,7.107c-3.877,0 -6.978,-3.23 -6.978,-7.107l0,-2.714c0,-3.877 3.101,-6.979 6.978,-6.979c4.007,0 6.979,3.102 6.979,6.979l0,2.714Zm0,23.39l0,50.399c0,3.877 -2.972,6.979 -6.979,6.979c-3.877,0 -6.978,-3.102 -6.978,-6.979l0,-50.399c0,-4.135 3.101,-7.108 6.978,-7.108c4.008,0 6.979,2.973 6.979,7.108Z" />
		<path
			d="M410.507,86.44c2.326,-3.1 6.85,-3.488 9.692,-1.033c3.36,2.844 9.176,5.814 14.215,5.686c3.489,0 6.72,-1.162 8.788,-2.455c1.809,-1.551 2.325,-2.842 2.325,-3.877c0,-0.646 -0.129,-0.904 -0.387,-1.293c-0.13,-0.387 -0.646,-0.904 -1.681,-1.549c-1.809,-1.293 -5.686,-2.715 -10.338,-3.619l-0.129,0c-4.007,-0.775 -7.884,-1.809 -11.243,-3.361c-3.489,-1.679 -6.591,-4.005 -8.917,-7.494c-1.421,-2.326 -2.196,-5.169 -2.196,-8.141c0,-5.945 3.36,-10.985 7.624,-14.216c4.523,-3.101 9.951,-4.781 15.896,-4.781c8.916,0 15.248,4.265 19.384,7.107c3.102,2.068 4.006,6.333 2.067,9.562c-2.067,3.102 -6.332,4.007 -9.562,1.81c-4.135,-2.713 -7.754,-4.782 -11.889,-4.782c-3.231,0 -6.074,1.034 -7.754,2.326c-1.68,1.164 -2.067,2.327 -2.067,2.973c0,0.516 0,0.646 0.258,1.033c0.13,0.258 0.517,0.775 1.422,1.292c1.681,1.163 5.04,2.326 9.434,3.102l0.129,0.13l0.13,0c4.265,0.774 8.271,1.938 12.018,3.747c3.489,1.551 6.979,4.006 9.176,7.624c1.551,2.584 2.455,5.557 2.455,8.529c0,6.332 -3.489,11.631 -8.142,14.99c-4.652,3.23 -10.468,5.17 -16.8,5.17c-10.079,-0.129 -17.833,-4.781 -23.002,-8.916c-2.844,-2.326 -3.231,-6.721 -0.906,-9.564Z" />
	</g>
	<g id="logo">
		<path
			d="M165.448,114.422c-9.078,4.732 -56.106,24.068 -66.118,29.287c-10.012,5.221 -15.574,5.17 -23.483,1.389c-7.909,-3.781 -57.955,-23.996 -66.97,-28.305c-4.506,-2.154 -6.875,-3.971 -6.875,-5.688l0,-17.195c0,0 65.153,-14.184 75.672,-17.957c10.518,-3.774 14.167,-3.91 23.118,-0.631c8.952,3.279 62.474,12.936 71.321,16.176c0,0 -0.004,15.357 -0.004,16.951c0.001,1.7 -2.04,3.565 -6.661,5.973Z"
			style="fill:#a41e11;fill-rule:nonzero;" />
		<path
			d="M165.448,97.223c-9.078,4.73 -56.106,24.068 -66.118,29.287c-10.012,5.221 -15.574,5.17 -23.483,1.389c-7.91,-3.779 -57.955,-23.998 -66.97,-28.305c-9.015,-4.309 -9.204,-7.275 -0.348,-10.742c8.855,-3.469 58.626,-22.996 69.146,-26.77c10.518,-3.772 14.167,-3.91 23.118,-0.63c8.952,3.279 55.699,21.886 64.545,25.126c8.848,3.243 9.188,5.913 0.11,10.645Z"
			style="fill:#d82c20;fill-rule:nonzero;" />
		<path
			d="M165.448,86.383c-9.078,4.732 -56.106,24.068 -66.118,29.289c-10.012,5.219 -15.574,5.168 -23.483,1.387c-7.91,-3.779 -57.955,-23.996 -66.97,-28.305c-4.506,-2.154 -6.875,-3.969 -6.875,-5.686l0,-17.197c0,0 65.153,-14.183 75.672,-17.957c10.518,-3.773 14.167,-3.91 23.118,-0.631c8.952,3.279 62.474,12.934 71.321,16.175c0,0 -0.004,15.357 -0.004,16.953c0.001,1.699 -2.04,3.564 -6.661,5.972Z"
			style="fill:#a41e11;fill-rule:nonzero;" />
		<path
			d="M165.448,69.184c-9.078,4.732 -56.106,24.068 -66.118,29.289c-10.012,5.219 -15.574,5.168 -23.483,1.387c-7.91,-3.779 -57.955,-23.997 -66.97,-28.305c-9.015,-4.308 -9.204,-7.274 -0.348,-10.743c8.855,-3.467 58.626,-22.995 69.146,-26.768c10.518,-3.773 14.167,-3.91 23.118,-0.631c8.952,3.279 55.699,21.885 64.545,25.126c8.848,3.242 9.188,5.913 0.11,10.645Z"
			style="fill:#d82c20;fill-rule:nonzero;" />
		<path
			d="M165.448,57.306c-9.078,4.732 -56.106,24.069 -66.118,29.29c-10.012,5.219 -15.574,5.168 -23.483,1.387c-7.91,-3.779 -57.955,-23.997 -66.97,-28.305c-4.506,-2.154 -6.875,-3.97 -6.875,-5.686l0,-17.197c0,0 65.153,-14.183 75.672,-17.956c10.518,-3.774 14.167,-3.91 23.118,-0.631c8.952,3.279 62.474,12.934 71.321,16.175c0,0 -0.004,15.357 -0.004,16.952c0.001,1.698 -2.04,3.563 -6.661,5.971Z"
			style="fill:#a41e11;fill-rule:nonzero;" />
		<path
			d="M165.448,40.107c-9.078,4.732 -56.106,24.069 -66.118,29.289c-10.012,5.219 -15.574,5.168 -23.483,1.388c-7.909,-3.78 -57.955,-23.997 -66.97,-28.305c-9.015,-4.308 -9.204,-7.275 -0.348,-10.743c8.855,-3.468 58.626,-22.994 69.146,-26.768c10.518,-3.774 14.167,-3.91 23.118,-0.63c8.952,3.279 55.699,21.885 64.545,25.126c8.848,3.24 9.188,5.912 0.11,10.643Z"
			style="fill:#d82c20;fill-rule:nonzero;" />
		<path
			d="M89.729,15.667l11.217,-3.669l-3.036,7.268l11.431,4.278l-14.734,1.529l-3.302,7.944l-5.335,-8.861l-17.019,-1.529l12.701,-4.583l-3.81,-7.029l11.887,4.652Z"
			style="fill:#fff;fill-rule:nonzero;" />
		<path d="M90.427,62.068l-27.517,-11.41l39.42,-6.051l-11.903,17.461Z" style="fill:#fff;fill-rule:nonzero;" />
		<ellipse cx="52.286" cy="36.128" rx="21.069" ry="8.167" style="fill:#fff;" />
		<path d="M126.768,25.713l23.327,9.227l-23.314,9.204l-0.013,-18.431Z" style="fill:#7a0c00;fill-rule:nonzero;" />
		<path d="M126.768,25.713l0.013,18.431l-2.525,0.996l-23.301,-9.217l25.813,-10.21Z"
			style="fill:#ad2115;fill-rule:nonzero;" />
	</g>

</svg>
