<svg width="100%" height="100%" viewBox="0 0 49 61" xmlns="http://www.w3.org/2000/svg">
    <g fill="currentColor">
        <path fill-rule="evenodd" clip-rule="evenodd"
            d="M3.20174 51.9514V4.69905C3.20174 4.69905 3.36586 2.05817 1.96336 1.16296V0.834711H20.166C21.7518 0.834054 23.3346 0.973856 24.8957 1.25248C27.1999 1.66087 29.3452 2.70175 31.092 4.25886C32.8388 5.81598 34.1184 7.82804 34.7878 10.0703C35.4925 12.3679 35.6517 14.7981 35.2528 17.1679C34.8539 19.5378 33.908 21.782 32.4901 23.7223C31.118 25.4936 29.5061 27.0653 27.7007 28.3923C27.2979 28.6758 27.0592 28.825 26.6414 29.0936C29.0504 32.7327 31.0093 36.6505 32.4752 40.7612C33.7255 44.3501 34.6689 48.0387 35.2951 51.7872C35.683 54.8906 36.6081 55.204 36.7871 55.2636V55.6068H25.8954V55.2636C26.2236 55.0846 29.1778 53.7716 29.1928 49.1911C29.0691 45.3159 28.2818 41.4907 26.8652 37.8816C25.9719 35.4096 24.91 33.0018 23.6872 30.6751V30.6751C21.589 31.5192 19.416 32.1636 17.1969 32.5998C15.7795 32.8684 14.3471 33.0922 12.5716 33.2862C10.7961 33.4801 9.58759 33.5697 8.61778 33.6293V51.9812C8.61778 52.384 8.72222 54.5475 10.1098 55.2935V55.6367H1.70972V55.2935C3.06746 54.5773 3.20174 52.384 3.20174 51.9812M20.4047 3.93812H8.57302V30.2275C11.1355 30.0891 13.6787 29.7043 16.1674 29.0787C24.7913 26.5273 28.9093 20.5145 28.9689 13.4274C28.9689 9.30939 27.4769 6.78788 25.9849 5.44506C25.0173 4.70029 23.8689 4.22652 22.6577 4.0724C21.9311 3.97137 21.1979 3.92647 20.4644 3.93812M19.2708 32.943V35.7182C21.153 35.6036 23.0265 35.3744 24.8808 35.0318C25.3881 36.1956 25.8357 37.2997 26.149 38.1502V38.2695C25.2091 38.4336 24.2094 38.5679 23.165 38.6873C21.673 38.8663 20.1809 38.9559 19.3006 39.0155V56.9198C19.3006 57.3077 19.3902 59.4264 20.7927 60.1575V60.5156H12.5418V60.1873C13.8697 59.4861 14.0338 57.3376 14.0338 56.9496V33.8979C15.8048 33.6711 17.5628 33.3524 19.3006 32.943M30.1476 33.3011C32.8767 32.1129 35.1961 30.1484 36.817 27.652C38.438 25.1556 39.2889 22.2376 39.2639 19.2612C39.2639 15.2178 37.8763 12.7709 36.2799 11.4281L35.9964 11.2789C35.877 10.8014 35.7576 10.3389 35.6084 9.89128C35.3051 8.9856 34.9257 8.10716 34.4745 7.26532C34.758 7.26532 35.0266 7.35484 35.2802 7.39961C37.5382 7.80433 39.6403 8.82535 41.3544 10.3499C43.0685 11.8744 44.3279 13.8431 44.9933 16.0384C45.6897 18.2975 45.8487 20.688 45.4575 23.0194C45.0664 25.3508 44.1359 27.5585 42.7403 29.4666C41.3928 31.1989 39.8111 32.7355 38.0404 34.0322C37.6525 34.3157 37.4138 34.4649 37.0109 34.7334C39.3695 38.2965 41.2836 42.1346 42.7105 46.1623C43.9341 49.6808 44.8673 53.2936 45.5005 56.9645C45.8586 59.9486 46.7688 60.247 46.9926 60.3067V60.5156H36.2799V60.1873C36.6081 60.0232 39.5026 58.8296 39.5175 54.3088C39.409 50.5101 38.6416 46.7591 37.2497 43.223C36.343 40.8097 35.2814 38.4573 34.0717 36.1807V36.1807C33.5345 36.4194 32.7587 36.688 31.9082 36.9715C31.3562 35.6883 30.7892 34.5246 30.1476 33.3459M27.7306 9.95096H19.2708V27.0197C18.1904 27.5262 17.0732 27.9502 15.9287 28.2879C15.2955 28.475 14.6531 28.6294 14.004 28.7504V10.697C14.004 10.697 14.1532 8.11578 12.7059 7.23548V6.90724H26.2386C26.9361 7.78857 27.444 8.80447 27.7306 9.89128" />
    </g>
</svg>
