<svg width="100%" height="100%" viewBox="0 0 38 61" xmlns="http://www.w3.org/2000/svg">
    <g >
        <path
            d="M2.81494 6.07217C2.81494 4.20065 4.33984 2.67492 6.21237 2.67492H32.3828C34.2826 2.67492 35.8073 4.20065 35.8073 6.07217V55.3596C35.8073 57.2318 34.2826 58.7567 32.3828 58.7567H6.21237C4.34001 58.7567 2.81494 57.2318 2.81494 55.3596V6.07217Z"
            fill="white" />
        <path
            d="M4.22485 11.8875V6.07215C4.22485 4.97884 5.11889 4.08666 6.21236 4.08666H32.3828C33.5052 4.08666 34.3976 4.97884 34.3976 6.07215V11.8875H4.22485Z"
            fill="#004990" />
        <path d="M34.3957 13.2991H4.22485V48.1355H34.3957V13.2991Z" fill="#004990" />
        <path
            d="M28.0347 9.03886C28.15 9.21082 28.4098 9.41279 28.5812 9.49877C29.0715 9.7584 29.5049 9.84421 29.9637 9.84421C30.6839 9.84421 31.1155 9.52693 31.1155 9.06735C31.1155 8.51859 30.5671 8.43261 29.7334 8.31949C28.6691 8.175 28.0932 7.68474 28.0932 6.8219C28.1205 5.95788 28.9289 5.29397 30.108 5.29397C30.9123 5.29397 31.4611 5.46779 31.8067 5.63975V6.7634C31.6914 6.5621 31.4316 6.41762 31.1741 6.30349C30.8263 6.18716 30.4811 6.12967 30.108 6.12967C29.5321 6.12967 29.1863 6.36013 29.1863 6.64994C29.1863 7.13716 29.6472 7.19566 30.6549 7.3978C31.6622 7.59876 32.2673 8.03153 32.2381 8.9227C32.209 9.95852 31.4024 10.6504 29.9637 10.6504C29.3289 10.6504 28.5246 10.5344 28.0347 10.2765V9.03886Z"
            fill="white" />
        <path
            d="M10.1563 6.96536C10.1563 7.48378 9.7249 7.68473 9.06302 7.68473H7.8544V6.21564H9.06302C9.7249 6.21564 10.1563 6.41761 10.1563 6.96536ZM10.904 9.2683C10.6462 8.77939 10.4451 8.40546 10.0703 8.23164C10.8767 8.05968 11.279 7.59892 11.279 6.90787C11.279 6.24599 10.99 5.72842 10.4453 5.52645C10.0998 5.38196 9.66606 5.38196 9.00435 5.38196H6.35681C6.61644 5.55393 6.75907 6.07217 6.75907 6.53394V9.44111C6.75907 9.87253 6.61627 10.4201 6.35681 10.5648H8.25446C7.99686 10.4201 7.8544 9.87253 7.8544 9.44111V8.51841H8.65874C9.06302 8.51841 9.29314 8.66289 9.46511 8.98119C9.75205 9.44111 9.95537 10.0745 10.3008 10.5648H11.8255C11.3668 10.2483 11.1345 9.75822 10.904 9.2683Z"
            fill="white" />
        <path
            d="M14.9358 10.7082C15.6542 10.7082 16.2614 10.5059 16.7203 10.1019C17.2689 9.64301 17.6417 8.95078 17.6417 7.97262C17.6417 7.0238 17.2689 6.30341 16.7203 5.84165C16.2614 5.46771 15.6542 5.26574 14.9358 5.26574C14.2153 5.26574 13.6119 5.46771 13.1493 5.84165C12.6046 6.30341 12.2296 7.0238 12.2296 7.97262C12.2296 8.95078 12.6046 9.64301 13.1493 10.1019C13.6119 10.5059 14.2446 10.7082 14.9358 10.7082ZM13.8423 9.35506C13.5262 9.06711 13.3818 8.6072 13.3818 7.97262C13.3818 7.36739 13.5262 6.90781 13.8423 6.59137C14.1001 6.33157 14.4751 6.15994 14.9358 6.15994C15.3964 6.15994 15.7714 6.33157 16.0291 6.59137C16.3474 6.90764 16.519 7.36739 16.519 7.97262C16.519 8.60736 16.3473 9.06711 16.0291 9.35506C15.7712 9.61469 15.3964 9.78648 14.9358 9.78648C14.4751 9.78648 14.1001 9.61469 13.8423 9.35506Z"
            fill="white" />
        <path
            d="M22.4216 9.2388C22.1324 9.61458 21.5292 9.72906 20.8673 9.72906H19.8597V6.53394C19.8597 6.10151 20.0025 5.55376 20.2328 5.38196H18.3624C18.6199 5.55393 18.7664 6.10167 18.7664 6.53394V9.44111C18.7664 9.90271 18.6199 10.3909 18.3624 10.5648H22.2476L22.4216 9.2388Z"
            fill="white" />
        <path
            d="M27.1131 9.2388C26.8243 9.61458 26.2209 9.75822 25.559 9.72906H24.5223V6.53394C24.5223 6.10151 24.665 5.55376 24.9263 5.38196H23.0541C23.3117 5.55393 23.458 6.10167 23.458 6.53394V9.4411C23.458 9.9027 23.3117 10.4201 23.0541 10.5919H26.9102L27.1131 9.2388Z"
            fill="white" />
        <path
            d="M37.5353 6.07213C37.5353 3.22245 35.2314 0.919514 32.3829 0.919514H6.21233C3.36181 0.919514 1.05786 3.22245 1.05786 6.07213V55.3596C1.05786 58.2121 3.36181 60.5141 6.21233 60.5141H32.3827C35.2312 60.5141 37.5353 58.2121 37.5353 55.3596V6.07213ZM2.81491 6.07213C2.81491 4.20061 4.3398 2.67487 6.21233 2.67487H32.3827C34.2826 2.67487 35.8073 4.20061 35.8073 6.07213V55.3596C35.8073 57.2318 34.2826 58.7567 32.3827 58.7567H6.21233C4.33997 58.7567 2.81491 57.2318 2.81491 55.3596V6.07213Z"
            fill="#004990" />
        <path
            d="M4.22485 49.5451V55.3594C4.22485 56.4566 5.11889 57.3469 6.21236 57.3469H32.3828C33.5052 57.3469 34.3976 56.4566 34.3976 55.3594V49.5451H4.22485Z"
            fill="#004990" />
        <path
            d="M17.1518 42.5787V34.8336C17.8996 34.8062 18.62 34.7768 19.3406 34.7182C19.0808 34.1129 18.8211 33.5097 18.5049 32.9338C18.0733 32.9903 17.6147 32.9903 17.1518 33.0198V31.4089C16.1441 31.639 15.051 31.811 13.9283 31.9263V42.5787C13.9283 44.9372 12.833 45.5718 12.1713 46.0034H18.9071C18.2766 45.5718 17.1518 44.9372 17.1518 42.5787Z"
            fill="white" />
        <path
            d="M32.8142 45.976C32.2676 45.4566 31.5744 44.6504 31.231 43.0689C30.5981 40.1597 29.2725 35.9852 26.4806 32.8751C29.216 31.3795 30.8852 29.017 30.8852 26.1119C30.9125 24.0374 29.8484 21.8506 27.9487 20.5552C27.1425 20.0347 26.1933 19.6608 25.069 19.4303C25.473 20.2945 25.7309 21.216 25.7892 22.1386C26.9685 23.0582 27.6033 24.4698 27.6033 26.1682C27.6033 28.3277 26.5098 30.8601 22.6813 32.1564C22.9954 32.7597 23.3116 33.3943 23.5714 33.9977C23.7744 33.9412 23.9754 33.8842 24.1785 33.8257C25.963 35.8992 27.4001 39.1522 27.8315 42.1745C28.15 44.3631 27.3728 45.4566 26.8556 45.976H32.8142Z"
            fill="white" />
        <path
            d="M11.3082 29.5366V17.4459H15.8847C17.5558 17.4742 18.7939 17.8198 19.7722 18.509C21.0665 19.4303 21.7597 20.8989 21.7597 22.656C21.7597 25.6198 19.7136 29.392 11.3082 29.5366ZM26.1058 42.4909C25.5296 41.9735 24.8407 41.1668 24.5223 39.5838C23.8895 36.6766 22.6222 32.5881 20.0902 29.6789C20.2035 29.6224 20.2913 29.5929 20.4044 29.5365C23.2845 28.0679 25.0415 25.6198 25.0415 22.6258C25.069 20.5248 24.003 18.3655 22.105 17.0699C20.6074 16.0626 18.5928 15.6603 16.0292 15.6603H6.32751C6.9894 16.0917 8.08287 16.7245 8.08287 19.0849V39.0664C8.08287 41.4541 6.9894 42.0595 6.32751 42.4909H13.0635C12.4308 42.0593 11.3082 41.4541 11.3082 39.0664V31.321C13.6688 31.321 15.8847 31.0322 17.7552 30.544C19.4558 32.5883 20.7229 35.7551 21.1252 38.6622C21.4121 40.8529 20.6644 41.9737 20.1468 42.4911H26.1058V42.4909Z"
            fill="white" />
        <path
            d="M17.1517 27.8105V20.9868H20.7794C20.522 20.2371 20.059 19.6327 19.4283 19.1709H12.171C12.8329 19.6032 13.9281 20.2086 13.9281 22.5973V28.6148C15.1369 28.443 16.23 28.1854 17.1517 27.8105Z"
            fill="white" />
        <path
            d="M23.7452 53.4616C23.7452 54.4379 24.3213 55.1876 25.3288 55.1876C26.049 55.1876 26.7109 54.9865 26.9982 54.6411L26.8244 55.7655C26.5666 55.8788 26.1058 56.0233 25.3581 56.0233C23.7454 56.0233 22.6224 55.0723 22.6224 53.4616C22.6224 52.5988 22.9682 51.9348 23.4856 51.5034C23.9464 51.0993 24.5789 50.8689 25.358 50.8689C26.1058 50.8689 26.5664 51.0132 26.8242 51.1576V52.2238C26.5098 51.8784 26.0489 51.7046 25.3286 51.7046C24.3213 51.7046 23.7452 52.4543 23.7452 53.4616Z"
            fill="white" />
        <path
            d="M9.98249 52.4815C9.98249 52.9714 9.58041 53.1726 8.94769 53.1726H7.79588V51.7923H8.94769C9.58041 51.7923 9.98249 51.964 9.98249 52.4815ZM10.703 54.6702C10.4726 54.2094 10.2713 53.8345 9.92585 53.692C10.6756 53.5475 11.0485 53.0866 11.0778 52.4542C11.0778 51.7923 10.7905 51.3021 10.2713 51.0991C9.95518 50.9839 9.52342 50.9839 8.88902 50.9839H6.38428C6.61643 51.1284 6.75922 51.6185 6.75922 52.0771V54.8438C6.75922 55.2459 6.61643 55.7653 6.38428 55.9371H8.1688C7.94036 55.7652 7.79588 55.2457 7.79588 54.8438V53.9496H8.54375C8.94769 53.9496 9.17613 54.1216 9.35197 54.4102C9.60957 54.8436 9.81087 55.4452 10.127 55.9076L11.5971 55.9371C11.1345 55.5937 10.9352 55.1582 10.703 54.6702Z"
            fill="white" />
        <path
            d="M14.5335 56.0527C15.2227 56.0527 15.7986 55.8515 16.23 55.4764C16.7474 55.045 17.1244 54.3813 17.1244 53.4616C17.1244 52.5403 16.7476 51.8784 16.23 51.4154C15.7986 51.0717 15.2227 50.8689 14.5335 50.8689C13.8696 50.8689 13.2937 51.0717 12.8622 51.4154C12.3447 51.8784 11.9697 52.5403 11.9697 53.4616C11.9697 54.3813 12.3447 55.0452 12.8622 55.4764C13.2938 55.8515 13.8697 56.0527 14.5335 56.0527ZM13.4948 54.7581C13.2079 54.4962 13.0634 54.0648 13.0634 53.4616C13.0634 52.8564 13.2079 52.4268 13.4948 52.136C13.7546 51.8785 14.1 51.7339 14.561 51.7339C14.9924 51.7339 15.3378 51.8784 15.5976 52.136C15.8846 52.427 16.0292 52.8564 16.0292 53.4616C16.0292 54.0648 15.8847 54.4964 15.5976 54.7581C15.3378 55.0157 14.9924 55.1876 14.561 55.1876C14.1 55.1876 13.7546 55.0158 13.4948 54.7581Z"
            fill="white" />
        <path
            d="M20.9805 50.984C21.0978 51.0717 21.1543 51.1575 21.1251 51.2709C21.1251 51.3879 21.0663 51.5599 20.9532 51.7337L19.973 53.1433L18.9948 51.7044C18.8797 51.5324 18.7666 51.3608 18.7939 51.2145C18.8212 51.1285 18.8526 51.0425 18.9658 50.984H16.9799C17.3236 51.1285 17.4973 51.3879 17.7552 51.7629L19.3698 54.0356V54.8439C19.3698 55.2459 19.2253 55.7654 18.9948 55.9078H20.7794C20.5489 55.7654 20.4044 55.2459 20.4044 54.8439V54.0356L21.8745 51.9638C22.105 51.6769 22.4214 51.1575 22.7669 50.9838H20.9805"
            fill="white" />
        <path
            d="M30.5397 55.131H29.2724V53.778H31.1743L31.2874 53.0283H29.2724V51.7926H30.3952C31.0296 51.7926 31.5472 51.8195 31.8068 52.0773V50.9842H27.8627C28.0931 51.1577 28.2358 51.6771 28.2358 52.0773V54.844C28.2358 55.2736 28.0931 55.7656 27.8627 55.9373H31.836L32.0076 54.7265C31.719 55.1016 31.1745 55.131 30.5397 55.131Z"
            fill="white" />
    </g>
</svg>
