<svg version="1.1" xmlns="http://www.w3.org/2000/svg" x="0px" y="0px"
	viewBox="0 0 334 75" enable-background="new 0 0 334 75" xml:space="preserve">
	<path fill="#199FC0" d="M235.3,44.8v2.3c0,3.1-1.1,5.4-3.5,6.7c-2.2,1.2-5.1,1.8-8.9,1.8c-3,0-6-0.2-9-0.6l-0.9-0.1v-0.9v-3.7v-1.2
	l1.2,0.2c4.2,0.7,7.1,1,8.8,1c2.1,0,3.5-0.2,4.4-0.5c0.4-0.2,0.5-0.2,0.6-0.5c0.2-0.3,0.3-0.5,0.2-1v-2.7c0-0.9-0.3-1.2-0.6-1.4
	c-0.5-0.3-1.4-0.5-3-0.5h-2.9c-2.8,0-5.1-0.6-6.8-1.9c-1.7-1.3-2.5-3.2-2.5-5.5v-2.4c0-2.5,1.2-4.3,3.5-5.5c2.2-1.1,5.2-1.7,9.1-1.7
	c0.9,0,3.5,0.2,7.9,0.4l1,0.1v1v3.5v1.3l-1.2-0.2c-2.6-0.5-5.2-0.7-7.8-0.8c-2.5,0-4,0.3-4.6,0.6c-0.5,0.3-0.8,0.7-0.8,1.6v2.2
	c0,0.5,0.2,0.8,0.6,1c0.5,0.3,1.5,0.5,3,0.5h1.9h1.1c2.8,0,5.1,0.5,6.8,1.8C234.5,40.6,235.3,42.5,235.3,44.8z M201.1,17.4H200V19
	v34.9V55h1.1h4.8h1.1v-1.1V19v-1.6h-1.1H201.1z M264.5,36.3V42v1.2h-1.1h-16.2v2.7c0,1.6,0.5,2.5,1.4,3c1,0.6,2.7,1,5.1,1
	c2.4,0,5.1-0.4,8.4-1.2l1.4-0.3v1.4v3.6v0.9l-0.9,0.2c-3.1,0.7-6.4,1.1-9.6,1.1c-4.1,0-7.2-0.6-9.5-2.1c-2.3-1.6-3.4-3.9-3.4-6.9
	V36.3c0-3.4,1-6,3.1-7.7c2.1-1.6,5.3-2.3,9.3-2.3c3.8,0,6.8,0.6,8.8,2.2C263.6,30.1,264.5,32.8,264.5,36.3z M257.5,34.8
	c0-1.3-0.4-2-0.9-2.3c-0.7-0.4-2-0.7-4.2-0.7c-2.1,0-3.4,0.3-4.2,0.7c-0.5,0.3-1,1-1,2.4v3.1h10.3V34.8z M188.3,26.9h-1.1v1.1v19.6
	c0,1-0.3,1.5-0.9,1.8c-0.8,0.4-2.4,0.6-5.1,0.6c-0.9,0-1.8-0.1-2.7-0.3c-0.5-0.1-0.8-0.3-1.1-0.6c-0.2-0.3-0.4-0.5-0.5-0.9
	c-0.1-0.5-0.2-0.9-0.1-1.3V27.9v-1.1h-1.1h-4.8h-1.1v1.1V47c0,2.7,0.7,4.9,2.3,6.4c1.6,1.6,4.3,2.1,7.8,2.1c2.6,0,4.8-0.3,6.4-1
	c0.3-0.2,0.6-0.3,1-0.5v1h1.1h4.8h1.1v-1.1v-26v-1.1h-1.1H188.3z M313.2,35.9c-2.2,0-4.1,1.2-5,3h-6.3l-2.8-23.6h-5.8l-8.2,31.4
	l-2.1-8.8h-12.4v5.4h7.6l3.9,16.6h5.6l7.3-27.5l1.6,11.1l0.2,0.9h11.5c1,1.8,2.8,3,5,3c3.1,0,5.7-2.5,5.7-5.6
	C318.9,38.5,316.3,35.9,313.2,35.9z M163.5,22.4c0.5,1.1,0.9,3.6,0.9,3.6v7.2c0,3.3-1.3,5.8-4,7.2c-2.5,1.3-5.9,2-10.2,2h-4.2v11.5
	V55h-1.1h-5.2h-1.1v-1.1V19.1V18h1.1H151c1.5,0,2.7,0.1,3.7,0.1c1.1,0.1,2.3,0.3,3.4,0.5c1.1,0.2,2.2,0.7,3.1,1.3
	C162.2,20.6,162.9,21.4,163.5,22.4z M157.1,26.5c0.1-0.6-0.1-1.2-0.5-1.7c-0.4-0.5-0.9-0.8-1.5-0.9c-0.7-0.2-1.4-0.3-2.1-0.4
	c-0.6-0.1-1.3-0.1-2.2-0.1h-4.7v13.6h4.8c1.9,0,3.4-0.3,4.8-1c1-0.5,1.6-1.5,1.6-3.1L157.1,26.5z M31.2,32.9H27
	c-2.2,0-3.4-0.3-3.9-0.6c-0.5-0.3-0.8-0.8-0.8-1.8v-4c0-1.3,0.4-2,1.1-2.4c0.4-0.2,1-0.4,2.1-0.6c1-0.2,2.3-0.2,3.9-0.2
	c2.2,0,5.2,0.3,9.1,0.9l1.2,0.2v-1.2v-4v-1l-1-0.1c-3-0.4-6-0.6-9-0.6c-5.2,0-9,0.6-11.3,2.2c-2.2,1.6-3.3,3.9-3.3,7v2.8
	c0,2.9,0.7,5.3,2.3,7c1.7,1.7,4.5,2.5,8.1,2.5h4.1c2.2,0,3.3,0.3,3.8,0.7c0.5,0.3,0.8,1,0.8,2.3v4.5c0,0.7-0.1,1.1-0.3,1.6
	c-0.2,0.4-0.4,0.6-1,0.8c-1.1,0.5-2.8,0.8-5.2,0.8c-3,0-6.5-0.4-10.6-1.3l-1.3-0.3v1.3v4.3v0.9l1,0.2c3.5,0.5,7.1,0.8,10.7,0.9
	c4.5,0,8.1-0.7,10.4-2.3c2.5-1.7,3.6-4.7,3.6-8.6v-2.5c0-3-0.6-5.4-2.2-6.9C37.6,33.5,34.8,32.9,31.2,32.9z M131,17.4h1.1V19v34.9
	V55H131h-4.7h-1.1v-1.1c-0.3,0.2-0.5,0.3-0.8,0.4c-1.7,0.8-4.1,1.2-6.8,1.2c-3.8,0-6.7-0.6-8.5-2c-1.9-1.5-2.7-4.1-2.7-7.4V34.8
	c0-2.8,0.9-5.1,2.9-6.5c1.9-1.3,4.9-1.9,8.6-1.9c2,0,4.1,0.3,5.9,0.9c0.4,0.2,0.9,0.3,1.3,0.5c0-1.4-0.1-2.7-0.1-3.5V19v-1.6h1.1
	h3.7H131z M125.2,34.3c0-0.7-0.3-1.2-1.2-1.7c-1-0.5-2.5-0.8-4.8-0.8c-1.4,0-2.5,0.1-3.4,0.2c-0.9,0.1-1.4,0.3-1.7,0.4
	c-0.3,0.2-0.7,0.6-0.7,1.9v12.8c0,1.2,0.4,1.8,1,2.2c0.7,0.4,2.1,0.8,4.4,0.8c2.6,0,4.3-0.3,5.2-0.8c0.8-0.4,1.2-1,1.2-2.1V34.3
	L125.2,34.3z M71,36.3V42v1.2H70H53.7v2.7c0,1.6,0.5,2.5,1.4,3c1,0.6,2.7,1,5.1,1c2.4,0,5.1-0.4,8.4-1.2l1.4-0.3v1.4v3.6v0.9
	l-0.9,0.2c-3.1,0.7-6.4,1.1-9.6,1.1c-4,0-7.2-0.6-9.5-2.1c-2.3-1.6-3.4-3.9-3.4-6.9V36.3c0-3.4,1-6,3.1-7.7c2.1-1.6,5.3-2.3,9.3-2.3
	c3.8,0,6.8,0.6,8.8,2.2C70.2,30.1,71,32.8,71,36.3z M64.1,37.8l-0.1-3.1c0-1.3-0.4-2-0.9-2.3c-0.7-0.4-2-0.7-4.2-0.7
	c-2.1,0-3.4,0.3-4.2,0.7c-0.5,0.3-1,1-1,2.4l0.1,3.1L64.1,37.8L64.1,37.8z M91.1,26.3c-2.6,0-4.8,0.3-6.4,1c-0.3,0.2-0.6,0.3-1,0.5
	v-1h-1.1h-4.8h-1.1v1.1v26V55h1.1h4.8h1.1v-1.1V35.1c0-1.4,0.4-2.1,0.9-2.5c0.6-0.4,2.2-0.8,5.1-0.8c0.9,0,1.8,0.1,2.7,0.3
	c0.5,0.1,0.8,0.3,1.1,0.6c0.2,0.3,0.4,0.5,0.4,0.9c0.1,0.5,0.2,0.9,0.1,1.3v18.8V55h1.1h4.8h1.1v-1.1V34.9c0-2.7-0.7-4.9-2.2-6.4
	C97.2,26.9,94.5,26.3,91.1,26.3z" />
</svg>