<svg width="100%" height="100%" viewBox="0 0 300 300" version="1.1" xmlns="http://www.w3.org/2000/svg">
	<path id="background"
		d="M300,30l0,240c0,16.557 -13.443,30 -30,30l-240,0c-16.557,0 -30,-13.443 -30,-30l0,-240c0,-16.557 13.443,-30 30,-30l240,0c16.557,0 30,13.443 30,30Z"
		fill="#009fc1" />
	<path id="logo"
		d="M117.8,250.5l-25.9,0l-18.3,-75.1l-34.6,0l0,-24.2l57.1,0l9.5,39.8l37.5,-141.5l26.7,0l13,106.6l29.1,-0c4.4,-8 13,-13.4 23,-13.4c14.4,-0 26,11.3 26,25.4c0,14 -11.7,25.4 -26,25.4c-10,-0 -18.4,-5.4 -23,-13.4l-52.8,-0l-7.8,-53.8l-33.5,124.2Z"
		fill="#fff" />
</svg>
