<svg width="100%" height="100%" viewBox="0 0 103 60"
    xmlns="http://www.w3.org/2000/svg">
    <path
        d="M51.304 0C64.1471 0 77.9136 2.6165 88.867 9.57247C95.9855 14.1214 102.608 21.0218 102.608 30.0085C102.608 40.5088 93.6426 48.1445 85.0534 52.6122C74.8311 57.9051 62.7533 60 51.304 60C38.4652 60 24.7242 57.4134 13.7666 50.4318C6.65242 45.8786 0 38.9825 0 30.0128C0 19.4656 8.94399 11.8598 17.5545 7.3835C27.8068 2.09919 39.8589 0 51.304 0ZM51.1971 3.1894C39.2561 3.1894 26.3916 5.4254 16.0325 11.6674C9.51689 15.5665 3.07824 21.7016 3.07824 29.8504C3.07824 39.4228 11.7999 46.1223 19.5981 49.9701C29.2518 54.6815 40.5344 56.5113 51.1971 56.5113C63.1595 56.5113 76.0325 54.2753 86.3916 48.0333C92.8773 44.1086 99.3416 38.0034 99.3416 29.8504C99.3416 20.2608 90.6413 13.5485 82.8217 9.73493C73.168 5.01497 61.8811 3.1894 51.1971 3.1894ZM6.1351 23.2236L25.7888 19.8717L31.7059 7.03292L37.5973 19.8675L57.2467 23.2193L37.5973 26.6054L31.7059 39.4741L25.7888 26.6054L6.1351 23.2236ZM49.3416 33.0098L58.012 31.4878L60.5985 25.6776L63.1894 31.4878L71.8598 33.0098L63.1894 34.5062L60.5985 40.3206L58.012 34.5062L49.3416 33.0098ZM67.2809 17.5289L75.9513 16.0325L78.5378 10.1967L81.1287 16.0282L89.7991 17.5246L81.1287 19.0509L78.5378 24.8653L75.947 19.0509L67.2809 17.5289ZM58.0162 45.0064L66.6524 43.51L69.2475 37.6742L71.864 43.51L80.5301 45.0064L71.864 46.5327L69.2475 52.3472L66.6567 46.5327L58.0162 45.0064ZM31.3809 47.1056L40.0513 45.6092L42.6678 39.7691L45.2544 45.6092L53.9247 47.1056L45.2544 48.6319L42.6678 54.4421L40.0513 48.6319L31.3809 47.1056ZM74.9722 32.7704L83.6169 31.2441L86.2035 25.4339L88.82 31.2441L97.4904 32.7704L88.82 34.2668L86.2035 40.0684L83.6126 34.2668L74.9722 32.7704Z"
        fill="currentColor" />
</svg>
