<svg width="100%" height="100%" viewBox="0 0 340 457" xmlns="http://www.w3.org/2000/svg">
  <path1 id="path3156"
    d="M65.412,155.072c0,-0 24.668,-21.475 97.677,-21.475c66.978,0 85.801,15.194 104.918,21.475l-99.736,48.735l-102.859,-48.735Z"
    style="fill:#c9781f;fill-rule:nonzero;" />
  <g id="g3158">
    <path id="path3160"
      d="M54.999,219.707c0.451,9.315 9.757,5.005 13.973,2.093c4.001,-2.765 5.171,-0.467 5.521,-5.924c0.231,-3.586 0.644,-7.172 0.44,-10.773c-6.05,-0.549 -12.631,0.892 -17.591,4.496c-2.554,1.857 -7.345,7.782 -2.343,10.108"
      style="fill:#f6d2a2;fill-rule:nonzero;" />
    <path id="path3162" d="M54.999,219.707c1.354,-0.504 2.789,-0.862 3.709,-2.087"
      style="fill:#c6b198;fill-rule:nonzero;" />
    <path id="path3164" d="M76.505,108.733c-35.661,-10.028 -9.144,-55.395 19.492,-36.735l-19.492,36.735Z"
      style="fill:#37abc8;fill-rule:nonzero;" />
    <path id="path3166" d="M234.944,68.593c28.227,-19.826 53.734,24.905 20.93,36.16l-20.93,-36.16Z"
      style="fill:#37abc8;fill-rule:nonzero;" />
    <path id="path3168"
      d="M241.016,334.353c7.17,4.437 20.275,17.85 9.519,24.355c-10.334,9.462 -16.118,-10.386 -25.188,-13.136c3.906,-5.305 8.857,-10.142 15.669,-11.219Z"
      style="fill:#f6d2a2;fill-rule:nonzero;" />
    <path id="path3170" d="M250.535,358.707c-1.594,-3.171 -2.13,-6.871 -4.792,-9.426"
      style="fill:none;fill-rule:nonzero;" />
    <path id="path3172"
      d="M112.925,349.513c-8.415,1.302 -13.152,8.894 -20.167,12.75c-6.611,3.941 -9.14,-1.262 -9.735,-2.319c-1.037,-0.472 -0.95,0.44 -2.549,-1.17c-6.129,-9.672 6.385,-16.742 12.901,-21.547c9.077,-1.835 14.765,6.034 19.55,12.286Z"
      style="fill:#f6d2a2;fill-rule:nonzero;" />
    <path id="path3174" d="M83.023,359.944c0.32,-3.686 3.244,-6.155 4.635,-9.272"
      style="fill:none;fill-rule:nonzero;" />
    <path id="path3176"
      d="M77.993,96.203c-4.705,-2.489 -8.157,-5.869 -5.279,-11.311c2.665,-5.037 7.615,-4.491 12.32,-2.002l-7.041,13.313Z"
      style="fill:#077e91;fill-rule:nonzero;" />
    <path id="path3178"
      d="M248.441,91.471c4.705,-2.488 8.156,-5.868 5.279,-11.31c-2.665,-5.038 -7.614,-4.491 -12.32,-2.002l7.041,13.312Z"
      style="fill:#077e91;fill-rule:nonzero;" />
    <path id="path3180"
      d="M280.827,218.523c-0.452,9.316 -9.758,5.006 -13.973,2.093c-4.001,-2.764 -5.171,-0.466 -5.522,-5.922c-0.23,-3.587 -0.644,-7.173 -0.44,-10.774c6.05,-0.548 12.631,0.893 17.591,4.496c2.555,1.856 7.345,7.782 2.344,10.107"
      style="fill:#f6d2a2;fill-rule:nonzero;" />
    <path id="path3182" d="M280.827,218.523c-1.355,-0.503 -2.79,-0.861 -3.709,-2.086"
      style="fill:#c6b198;fill-rule:nonzero;" />
    <g id="g3184">
      <path id="path3186"
        d="M164.339,49.751c35.701,-0 69.168,5.105 86.615,39.405c15.659,38.446 10.091,79.903 12.479,120.535c2.051,34.889 6.599,75.195 -9.587,107.527c-17.027,34.015 -59.573,42.571 -94.627,41.318c-27.534,-0.985 -60.795,-9.968 -76.334,-35.124c-18.231,-29.511 -9.6,-73.393 -8.276,-106.232c1.569,-38.898 -10.536,-77.914 2.243,-115.978c13.256,-39.484 49.009,-48.407 87.487,-51.451"
        style="fill:#37abc8;fill-rule:nonzero;" />
    </g>
    <path id="path3188"
      d="M170.642,97.677c6.41,37.262 67.317,27.41 58.568,-10.17c-7.844,-33.7 -60.698,-24.372 -58.568,10.17"
      style="fill:#fff;fill-rule:nonzero;" />
    <path id="path3190"
      d="M97.858,103.704c8.308,32.439 60.245,24.134 58.287,-8.406c-2.345,-38.972 -66.229,-31.452 -58.287,8.406"
      style="fill:#fff;fill-rule:nonzero;" />
    <path id="path3192"
      d="M182.465,141.111c0.029,4.98 1.179,9.847 0.185,15.437c-1.237,2.337 -3.662,2.585 -5.754,3.529c-2.892,-0.454 -5.324,-2.353 -6.484,-5.058c-0.742,-5.882 0.277,-11.578 0.464,-17.462l11.589,3.554Z"
      style="fill:#fff;fill-rule:nonzero;" />
    <g id="g3194">
      <ellipse id="ellipse3196" cx="112.183" cy="98.413" rx="8.77" ry="9.499" />
      <ellipse id="ellipse3198" cx="116.172" cy="100.557" rx="2.067" ry="2.414" style="fill:#fff;" />
    </g>
    <g id="g3200">
      <ellipse id="ellipse3202" cx="185.665" cy="96.047" rx="8.624" ry="9.499" />
      <ellipse id="ellipse3204" cx="189.588" cy="98.191" rx="2.033" ry="2.414" style="fill:#fff;" />
    </g>
    <path id="path3206"
      d="M157.403,141.862c-3.827,9.274 2.133,27.817 12.516,14.14c-0.743,-5.883 0.276,-11.578 0.464,-17.462l-12.98,3.322Z"
      style="fill:#fff;fill-rule:nonzero;" />
    <g id="g3208">
      <path id="path3210"
        d="M156.794,124.003c-7.132,0.608 -12.962,9.088 -9.253,15.796c4.91,8.886 15.871,-0.786 22.698,0.12c7.857,0.161 14.294,8.308 20.605,1.473c7.019,-7.602 -3.022,-15.006 -10.868,-18.316l-23.182,0.927Z"
        style="fill:#f6d2a2;fill-rule:nonzero;" />
    </g>
  </g>
  <g id="g3212">
    <path id="path3214"
      d="M65.412,155.072c0,-0 2.258,24.458 2.103,35.002c-0.154,10.542 9.947,3.886 10.471,20.466c0.525,16.581 -6.119,13.436 -9.619,21.552c-3.5,8.115 -5.878,46.119 -5.878,46.119c-0,0 3.591,7.101 14.809,13.495c11.218,6.394 29.256,9.985 44.875,9.278c15.619,-0.708 26.775,-4.054 29.565,-5.904c2.789,-1.851 7.419,-7.704 9.16,-12.23c1.741,-4.527 5.379,-41.809 5.126,-63.143c-0.254,-21.334 -3.779,-41.019 -3.779,-41.019l-96.833,-23.616Z"
      style="fill:#ef9325;fill-rule:nonzero;" />
    <path id="path3216"
      d="M164.351,258.947c-45.996,5.134 -99.366,-9.06 -99.366,-9.06c0,-0 0.784,-14.397 4.236,-19.464c47.838,14.822 96.099,10.122 96.099,10.122c0.716,6.722 0.212,12.065 -0.969,18.402Z"
      style="fill:#e5e5e5;fill-rule:nonzero;" />
    <path id="path3218"
      d="M158.562,287.321c-45.997,5.135 -96.073,-9.629 -96.073,-9.629c-0,-0 -0.161,-13.828 1.666,-19.901c47.838,14.822 98.934,11.128 98.934,11.128c-0.43,7.296 -1.456,14.477 -4.527,18.402Z"
      style="fill:#e5e5e5;fill-rule:nonzero;" />
  </g>
  <g id="g3220">
    <path id="path3222"
      d="M268.007,155.072c0,-0 -0.312,24.458 -0.155,35.002c0.156,10.542 -6.123,3.886 -6.654,20.466c-0.532,16.581 6.195,13.436 9.739,21.552c3.544,8.115 5.953,46.119 5.953,46.119c0,0 -3.637,7.101 -14.995,13.495c-11.358,6.394 -29.623,9.985 -45.439,9.278c-15.815,-0.708 -27.111,-4.054 -29.936,-5.904c-2.825,-1.851 -7.512,-7.704 -9.275,-12.23c-1.763,-4.527 -5.448,-41.809 -5.191,-63.143c0.257,-21.334 3.826,-41.019 3.826,-41.019l92.127,-23.616Z"
      style="fill:#ef9325;fill-rule:nonzero;" />
    <path id="path3224"
      d="M173.748,258.947c46.574,5.134 100.615,-9.06 100.615,-9.06c-0,-0 -0.794,-14.397 -4.289,-19.464c-48.44,14.822 -97.307,10.122 -97.307,10.122c-0.725,6.722 -0.215,12.065 0.981,18.402Z"
      style="fill:#e5e5e5;fill-rule:nonzero;" />
    <path id="path3226"
      d="M179.61,287.321c46.574,5.135 97.28,-9.629 97.28,-9.629c-0,-0 0.162,-13.828 -1.688,-19.901c-48.44,14.822 -100.177,11.128 -100.177,11.128c0.436,7.296 1.475,14.477 4.585,18.402Z"
      style="fill:#e5e5e5;fill-rule:nonzero;" />
  </g>
  <g id="g3228">
    <path id="path3230"
      d="M286.587,199.932c-1.447,2.731 -4.312,4.049 -6.398,2.944l-1.672,-0.886c-2.086,-1.105 -2.605,-4.216 -1.158,-6.947l32.593,-61.518c1.446,-2.731 4.311,-4.05 6.398,-2.944l1.672,0.886c2.086,1.105 2.605,4.216 1.158,6.947l-32.593,61.518Z"
      style="fill:#d2e261;fill-rule:nonzero;" />
    <path id="path3232"
      d="M271.195,228.985c-0.843,1.591 -3.218,1.985 -5.305,0.879l-1.671,-0.885c-2.087,-1.106 -3.096,-3.292 -2.252,-4.883l15.291,-28.862c0.843,-1.591 3.218,-1.985 5.304,-0.879l1.672,0.885c2.087,1.105 3.095,3.292 2.252,4.883l-15.291,28.862Z"
      style="fill-rule:nonzero;" />
    <path id="path3234"
      d="M284.791,194.189l-1.672,-0.886c-2.086,-1.105 -4.221,-1.165 -4.768,-0.134l-0.977,1.845c0.546,-1.032 2.681,-0.972 4.768,0.134l1.671,0.886c2.087,1.105 3.336,2.838 2.79,3.869l0.977,-1.845c0.547,-1.031 -0.703,-2.763 -2.789,-3.869Z"
      style="fill:#9b9b9b;fill-rule:nonzero;" />
  </g>
  <path id="ellipse3236"
    d="M272.957,205.677c3.711,1.381 5.857,4.833 4.788,7.704c-1.068,2.871 -4.949,4.081 -8.66,2.7c-3.712,-1.381 -5.857,-4.834 -4.789,-7.705c1.069,-2.871 4.949,-4.081 8.661,-2.699Z"
    style="fill:#f6d2a2;" />
  <g id="g3238">
    <path id="path3240"
      d="M50.417,200.925c1.32,2.795 4.121,4.243 6.256,3.234l1.71,-0.808c2.136,-1.009 2.797,-4.092 1.476,-6.887l-29.737,-62.948c-1.32,-2.795 -4.121,-4.243 -6.256,-3.234l-1.71,0.808c-2.135,1.008 -2.796,4.092 -1.476,6.886l29.737,62.949Z"
      style="fill:#d2e261;fill-rule:nonzero;" />
    <path id="path3242"
      d="M64.461,230.653c0.769,1.629 3.123,2.13 5.259,1.122l1.71,-0.808c2.135,-1.008 3.243,-3.146 2.473,-4.774l-13.951,-29.534c-0.769,-1.628 -3.124,-2.13 -5.26,-1.122l-1.71,0.808c-2.135,1.009 -3.243,3.147 -2.473,4.775l13.952,29.533Z"
      style="fill-rule:nonzero;" />
    <path id="path3244"
      d="M52.475,195.27l1.71,-0.808c2.135,-1.009 4.27,-0.971 4.769,0.085l0.891,1.888c-0.498,-1.055 -2.633,-1.093 -4.768,-0.085l-1.711,0.808c-2.135,1.009 -3.462,2.682 -2.963,3.738l-0.892,-1.889c-0.498,-1.054 0.829,-2.728 2.964,-3.737Z"
      style="fill:#9b9b9b;fill-rule:nonzero;" />
  </g>
  <path id="ellipse3246"
    d="M68.847,216.884c-3.711,1.382 -7.592,0.172 -8.661,-2.699c-1.068,-2.871 1.077,-6.324 4.789,-7.705c3.711,-1.381 7.592,-0.172 8.66,2.699c1.069,2.872 -1.077,6.324 -4.788,7.705Z"
    style="fill:#f6d2a2;" />
  <g id="g3248">
    <g id="g3250">
      <path id="path3252"
        d="M80.688,122.714c-1.418,2.578 -4.763,3.461 -7.471,1.971l-3.115,-1.712c-2.709,-1.49 -3.755,-4.787 -2.337,-7.365l32.419,-58.959c1.418,-2.578 4.763,-3.461 7.471,-1.972l3.115,1.713c2.709,1.489 3.408,4.276 2.337,7.365c-11.356,32.767 -32.419,58.959 -32.419,58.959Z"
        style="fill:#960000;fill-rule:nonzero;" />
      <path id="path3254"
        d="M89.264,89.037c9.858,-17.929 16.336,-33.35 14.793,-35.099l0.036,-0.065c-0.042,-0.023 -0.087,-0.039 -0.129,-0.062c-0.005,-0.003 -0.006,-0.013 -0.012,-0.016l-0.005,0.008c-15.149,-8.208 -35.532,-0.079 -45.601,18.234c-10.069,18.312 -6.015,39.877 9.032,48.273l-0.005,0.009c0.006,0.003 0.015,-0.002 0.021,0.001c0.042,0.024 0.078,0.053 0.121,0.076l0.036,-0.066c2.303,0.367 11.854,-13.364 21.713,-31.293Z"
        style="fill:#595959;fill-rule:nonzero;" />
    </g>
    <g id="g3256">
      <path id="path3258"
        d="M251.73,122.837c1.342,2.618 4.66,3.598 7.41,2.187l3.164,-1.623c2.75,-1.41 3.891,-4.676 2.548,-7.294l-30.704,-59.87c-1.343,-2.618 -4.661,-3.597 -7.411,-2.186l-3.163,1.622c-2.75,1.411 -3.53,4.177 -2.549,7.294c10.407,33.081 30.705,59.87 30.705,59.87Z"
        style="fill:#960000;fill-rule:nonzero;" />
      <path id="path3260"
        d="M244.129,88.927c-9.337,-18.206 -15.367,-33.807 -13.774,-35.511l-0.034,-0.067c0.042,-0.022 0.088,-0.036 0.131,-0.058c0.005,-0.003 0.007,-0.013 0.012,-0.016l0.005,0.009c15.38,-7.768 35.519,0.947 45.056,19.542c9.536,18.595 4.862,40.035 -10.421,47.993l0.005,0.009c-0.006,0.002 -0.015,-0.002 -0.021,0c-0.043,0.023 -0.08,0.051 -0.123,0.073l-0.034,-0.067c-2.313,0.299 -11.465,-13.701 -20.802,-31.907Z"
        style="fill:#595959;fill-rule:nonzero;" />
    </g>
    <path id="path3262"
      d="M274.53,81.25c0,-0 -11.344,-28.413 -24.5,-43.435c-13.156,-15.021 -141.876,-20.145 -163.014,-0c-21.138,20.144 -29.108,43.435 -29.108,43.435l0,-6.293c0,-0 9.778,-27.66 29.108,-43.435c19.33,-15.775 146.356,-14.945 162.745,0c16.387,14.945 24.769,43.435 24.769,43.435l0,6.293Z"
      style="fill:#353535;fill-rule:nonzero;" />
    <path id="ellipse3264"
      d="M279.319,83.441c-2.182,1.119 -6.172,-2.299 -8.905,-7.629c-2.732,-5.329 -3.18,-10.563 -0.998,-11.682c2.181,-1.119 6.171,2.299 8.904,7.628c2.733,5.33 3.18,10.564 0.999,11.683Z"
      style="fill:#960000;" />
    <path id="ellipse3266"
      d="M64.72,63.535c2.148,1.182 1.55,6.402 -1.336,11.65c-2.886,5.248 -6.973,8.55 -9.121,7.369c-2.148,-1.182 -1.55,-6.401 1.336,-11.65c2.885,-5.248 6.972,-8.55 9.121,-7.369Z"
      style="fill:#960000;" />
  </g>
  <g id="g3268">
    <path id="path3270"
      d="M226.029,75.255l-120.06,0c-21.555,0 -21.481,57.282 -1.243,60.584l41.85,-2.692c5.06,0 15.163,-19.596 17.058,-21.137c1.895,-1.54 8.137,-1.728 10.596,0c2.458,1.729 8.05,19.163 13.109,19.163l41.85,4.665c19.548,-8.996 14.62,-60.583 -3.16,-60.583Z"
      style="fill:#fff;fill-opacity:0.6;fill-rule:nonzero;" />
    <path id="path3272"
      d="M137.846,87.099c-13.223,-0.296 -33.913,-0.175 -45.214,-0.083c-1.895,6.213 -4.008,14.079 -2.96,21.717c10.264,-0 32.577,0.05 48.445,0.05c9.554,-0 17.587,1.802 25.057,3.755c0.185,-0.235 0.339,-0.408 0.46,-0.506c1.895,-1.541 8.137,-1.729 10.596,-0c0.636,0.447 1.485,1.955 2.476,3.931c3.815,0.804 7.635,1.359 11.605,1.409c10.813,0.137 36.155,0.094 52.462,0.048c2.077,-6.941 0.545,-14.381 0.079,-21.372c-15.921,-0 -41.224,-0.359 -53.354,-0.359c-17.093,-0.001 -32.016,-8.196 -49.652,-8.59Z"
      style="fill:#fff;fill-opacity:0.5;fill-rule:nonzero;" />
  </g>
  <path id="path3274"
    d="M155.896,123.631c-0.528,-12.355 23.029,-13.9 25.811,-3.558c2.775,10.319 -24.651,12.715 -25.811,3.558c-0.925,-7.311 0,0 0,0Z"
    style="fill-rule:nonzero;" />
  <g id="g4788">
    <g id="text" fill="currentColor">
      <path
        d="M65.095,436.33l2.838,0c1.154,0 2.084,-0.032 2.789,-0.096c0.738,-0.064 1.459,-0.208 2.165,-0.433c0.737,-0.224 1.282,-0.577 1.635,-1.058c0.353,-0.513 0.529,-1.17 0.529,-1.972c0,-0.898 -0.305,-1.683 -0.914,-2.357c-0.609,-0.673 -1.443,-1.01 -2.501,-1.01l-0.288,0l-3.271,0.145l-0.529,-0c-2.02,-0 -3.495,-0.722 -4.425,-2.165c-0.93,-1.475 -1.395,-3.864 -1.395,-7.166l-0,-26.214l8.85,0c2.116,0 3.174,-0.914 3.174,-2.741c0,-0.866 -0.272,-1.572 -0.817,-2.117c-0.513,-0.545 -1.299,-0.817 -2.357,-0.817l-8.85,-0l-0,-13.949c-0,-1.122 -0.321,-1.972 -0.962,-2.549c-0.641,-0.609 -1.443,-0.914 -2.405,-0.914c-1.026,0 -1.972,0.369 -2.838,1.106c-0.833,0.738 -1.282,1.62 -1.346,2.646l-1.155,13.66l-5.916,-0c-1.058,-0 -1.86,0.272 -2.405,0.817c-0.545,0.513 -0.817,1.187 -0.817,2.02c-0,0.866 0.272,1.556 0.817,2.069c0.577,0.513 1.395,0.769 2.453,0.769l5.868,0l0,27.705c0,4.97 1.09,8.657 3.271,11.062c2.18,2.373 5.114,3.559 8.802,3.559" />
      <path
        d="M89.529,435.657c1.186,0 2.212,-0.353 3.078,-1.058c0.898,-0.706 1.347,-1.7 1.347,-2.982l-0,-24.771c-0,-3.751 1.186,-6.749 3.559,-8.994c2.405,-2.244 5.772,-3.367 10.1,-3.367c1.026,0 1.812,-0.336 2.357,-1.01c0.545,-0.705 0.818,-1.539 0.818,-2.501c-0,-1.026 -0.305,-1.924 -0.914,-2.693c-0.577,-0.77 -1.379,-1.155 -2.405,-1.155c-3.399,0 -6.317,1.01 -8.754,3.03c-2.405,1.988 -4.008,4.474 -4.81,7.456l0.049,-5.772c-0,-1.219 -0.433,-2.165 -1.299,-2.838c-0.834,-0.705 -1.844,-1.058 -3.03,-1.058c-1.187,-0 -2.213,0.353 -3.079,1.058c-0.865,0.673 -1.298,1.651 -1.298,2.934l-0,39.681c-0,1.282 0.417,2.276 1.25,2.982c0.834,0.705 1.844,1.058 3.031,1.058" />
      <path
        d="M207.184,435.657c1.186,0 2.213,-0.369 3.078,-1.106c0.866,-0.77 1.299,-1.828 1.299,-3.175l-0,-37.372l8.129,0c2.052,0 3.078,-0.93 3.078,-2.789c-0,-0.834 -0.257,-1.524 -0.77,-2.069c-0.481,-0.545 -1.25,-0.817 -2.308,-0.817l-8.129,-0l-0,-3.752c-0,-2.597 0.096,-4.649 0.289,-6.157c0.224,-1.539 0.625,-2.709 1.202,-3.511c0.609,-0.833 1.299,-1.362 2.068,-1.587c0.77,-0.256 1.844,-0.385 3.223,-0.385l4.088,0c0.962,0 1.7,-0.32 2.213,-0.962c0.545,-0.641 0.817,-1.41 0.817,-2.308c0,-0.898 -0.272,-1.668 -0.817,-2.309c-0.513,-0.673 -1.235,-1.01 -2.165,-1.01l-5.868,-0c-4.297,-0 -7.663,1.218 -10.1,3.655c-2.437,2.405 -3.656,6.478 -3.656,12.217l0,6.109l-6.301,-0c-1.058,-0 -1.843,0.272 -2.356,0.817c-0.513,0.545 -0.77,1.235 -0.77,2.069c0,0.801 0.257,1.475 0.77,2.02c0.513,0.513 1.298,0.769 2.356,0.769l6.301,0l0,37.372c0,1.347 0.417,2.405 1.251,3.175c0.866,0.737 1.892,1.106 3.078,1.106" />
      <path
        d="M237.534,376.737c1.699,0 3.062,-0.481 4.088,-1.443c1.026,-0.994 1.539,-2.276 1.539,-3.848c0,-1.603 -0.513,-2.886 -1.539,-3.848c-1.026,-0.994 -2.373,-1.491 -4.04,-1.491c-1.699,0 -3.078,0.497 -4.136,1.491c-1.027,0.995 -1.54,2.277 -1.54,3.848c0,1.572 0.513,2.854 1.54,3.848c1.026,0.962 2.388,1.443 4.088,1.443m-0.048,58.92c1.186,0 2.212,-0.385 3.078,-1.154c0.898,-0.802 1.347,-1.876 1.347,-3.223l-0,-39.103c-0,-1.347 -0.433,-2.405 -1.299,-3.175c-0.834,-0.769 -1.828,-1.154 -2.982,-1.154c-1.186,-0 -2.228,0.385 -3.126,1.154c-0.866,0.77 -1.299,1.828 -1.299,3.175l0,39.103c0,1.411 0.417,2.501 1.251,3.271c0.833,0.737 1.843,1.106 3.03,1.106" />
      <path
        d="M260.621,435.657c1.186,0 2.212,-0.385 3.078,-1.154c0.898,-0.77 1.347,-1.844 1.347,-3.223l-0,-20.971l22.606,24.049c0.802,0.898 1.764,1.347 2.886,1.347c1.058,0 1.988,-0.401 2.79,-1.202c0.833,-0.802 1.25,-1.716 1.25,-2.742c0,-0.93 -0.353,-1.763 -1.058,-2.501l-19.095,-20.105l17.46,-15.632c0.769,-0.737 1.154,-1.555 1.154,-2.453c-0,-0.994 -0.401,-1.892 -1.202,-2.693c-0.77,-0.802 -1.668,-1.203 -2.694,-1.203c-0.802,0 -1.555,0.305 -2.261,0.914l-21.836,20.009l-0,-36.795c-0,-1.347 -0.433,-2.405 -1.299,-3.174c-0.833,-0.77 -1.827,-1.155 -2.982,-1.155c-1.186,0 -2.228,0.385 -3.126,1.155c-0.866,0.769 -1.299,1.827 -1.299,3.174l0,59.978c0,1.411 0.417,2.501 1.251,3.271c0.833,0.737 1.843,1.106 3.03,1.106" />
    </g>
    <path id="path4507"
      d="M129.951,435.641c-5.542,-0.478 -9.776,-2.15 -12.856,-5.075c-3.134,-2.977 -4.478,-6.858 -3.948,-11.394c0.611,-5.22 3.092,-8.907 7.441,-11.057c3.352,-1.658 6.696,-2.288 12.142,-2.289c3.869,-0.002 7.112,0.315 12.057,1.175c1.222,0.213 2.281,0.387 2.352,0.387c0.104,0 0.186,-0.389 0.41,-1.945c0.406,-2.815 0.479,-3.786 0.368,-4.914c-0.129,-1.313 -0.297,-1.938 -0.794,-2.955c-1.283,-2.625 -4.329,-4.231 -9.22,-4.861c-1.399,-0.181 -4.627,-0.206 -6.028,-0.047c-2.348,0.265 -3.658,0.603 -6.579,1.698c-1.71,0.64 -1.717,0.642 -2.399,0.602c-1.172,-0.068 -1.973,-0.599 -2.486,-1.648c-0.211,-0.432 -0.248,-0.61 -0.248,-1.192c-0,-0.874 0.227,-1.338 1.02,-2.079c1.777,-1.663 4.767,-3.078 7.785,-3.686c1.932,-0.389 2.883,-0.471 5.429,-0.467c2.635,0.007 4.319,0.153 6.661,0.588c3.894,0.724 6.851,2 9.08,3.919c0.662,0.57 1.659,1.69 2.087,2.344c0.13,0.2 0.265,0.364 0.299,0.364c0.034,-0 0.25,-0.241 0.48,-0.534c3.376,-4.302 9.062,-6.737 15.724,-6.734c4.712,0 9.092,1.195 12.357,3.363c2.589,1.721 4.693,4.371 5.543,6.983c0.487,1.5 0.562,2.054 0.566,4.232c0.003,1.356 -0.034,2.27 -0.11,2.694c-0.764,4.282 -2.584,7.248 -5.743,9.36c-2.541,1.699 -5.733,2.694 -9.907,3.086c-2.101,0.198 -5.945,0.179 -8.434,-0.041c-2.113,-0.186 -4.708,-0.515 -5.815,-0.736c-0.926,-0.185 -4.099,-0.715 -4.125,-0.689c-0.012,0.012 -0.163,0.961 -0.336,2.109c-0.276,1.834 -0.315,2.292 -0.321,3.756c-0.006,1.489 0.015,1.75 0.195,2.437c0.578,2.209 1.85,3.687 4.16,4.829c2.271,1.124 4.653,1.611 8.251,1.686c1.593,0.033 2.409,0.01 3.406,-0.096c2.416,-0.256 3.517,-0.537 6.727,-1.717c0.799,-0.294 1.615,-0.561 1.813,-0.594c0.424,-0.071 1.214,0.075 1.675,0.309c0.831,0.422 1.53,1.548 1.525,2.459c-0.004,1.065 -0.363,1.709 -1.417,2.548c-2.52,2.004 -5.737,3.234 -9.577,3.659c-1.369,0.152 -4.495,0.175 -6.005,0.044c-4.253,-0.37 -7.206,-1.097 -9.904,-2.44c-2.106,-1.048 -3.712,-2.348 -4.912,-3.975c-0.295,-0.4 -0.545,-0.737 -0.556,-0.749c-0.012,-0.012 -0.207,0.219 -0.436,0.513c-1.009,1.302 -2.552,2.701 -4.059,3.681c-2.177,1.415 -5.302,2.495 -8.464,2.924c-0.943,0.128 -4.072,0.234 -4.874,0.165Zm5.43,-6.093c2.581,-0.572 4.882,-1.861 6.552,-3.672c1.523,-1.652 2.773,-4.127 3.461,-6.854c0.387,-1.538 1.032,-5.817 0.889,-5.905c-0.057,-0.035 -0.397,-0.09 -0.757,-0.122c-0.36,-0.033 -1.385,-0.154 -2.279,-0.269c-5.307,-0.687 -8.563,-0.954 -10.389,-0.851c-3.47,0.194 -4.885,0.497 -6.969,1.492c-1.067,0.51 -1.804,1.063 -2.387,1.793c-0.836,1.046 -1.341,2.086 -1.693,3.487c-0.256,1.02 -0.282,3.69 -0.044,4.55c0.4,1.449 0.875,2.269 1.944,3.355c1.463,1.487 3.392,2.479 5.785,2.975c1.224,0.254 1.187,0.251 3.236,0.22c1.487,-0.022 2.043,-0.064 2.651,-0.199Zm33.818,-20.062c2.159,-0.19 3.487,-0.526 5.118,-1.292c1.356,-0.637 2.145,-1.289 2.891,-2.389c1.098,-1.619 1.526,-3.151 1.515,-5.428c-0.008,-1.623 -0.145,-2.298 -0.705,-3.463c-1.252,-2.603 -4.193,-4.468 -8.049,-5.104c-0.963,-0.159 -3.546,-0.131 -4.532,0.049c-1.898,0.346 -3.502,0.977 -4.917,1.934c-2.614,1.768 -4.418,4.433 -5.422,8.011c-0.395,1.405 -0.5,1.945 -0.852,4.367l-0.324,2.234l0.434,0.048c1.313,0.146 4.274,0.504 5.993,0.726c1.082,0.139 2.409,0.288 2.95,0.331c1.564,0.122 4.367,0.111 5.9,-0.024l-0,0Z"
      style="fill:#37abc8;fill-rule:nonzero;" />
  </g>
</svg>
