<svg width="100%" height="100%" viewBox="0 0 330 330" xmlns="http://www.w3.org/2000/svg">
    <g id="bottom">
        <g transform="matrix(2.58818,0,0,1.11961,-168.299,-170.231)">
            <path d="M192.275,283.984C192.281,284.403 192.284,284.823 192.284,285.244L192.284,404.714C192.284,427.074 184.431,445.228 174.758,445.228L82.797,445.228C73.124,445.228 65.271,427.074 65.271,404.714L65.271,285.244C65.271,284.444 65.281,283.65 65.301,282.861L65.301,260.708C65.301,260.708 65.851,251.585 68.335,247.42L118.533,161.501C124.684,150.973 133.089,150.973 139.239,161.501L188.855,246.424C190.792,249.877 191.893,254.991 192.275,260.708L192.275,283.984Z" style="fill:rgb(8,113,75);"/>
        </g>
        <g transform="matrix(2.58818,0,0,1.1364,-168.299,-177.707)">
            <path d="M65.271,285.244C65.271,284.444 192.284,284.823 192.284,285.244L192.284,404.714C192.284,427.074 184.431,445.228 174.758,445.228L82.797,445.228C73.124,445.228 65.271,427.074 65.271,404.714L65.271,285.244Z" style="fill:rgb(20,194,97);"/>
        </g>
    </g>
    <g id="letter">
        <g transform="matrix(1.18421,0,0,1.04691,-50.3897,-45.1014)">
            <path d="M312.65,102.657L312.65,254.834C312.65,270.256 301.582,282.777 287.948,282.777L75.684,282.777C62.051,282.777 50.982,270.256 50.982,254.834L50.982,102.657C50.982,87.235 62.051,74.714 75.684,74.714L287.948,74.714C301.582,74.714 312.65,87.235 312.65,102.657Z" style="fill:rgb(224,225,226);"/>
        </g>
        <g transform="matrix(1.09224,0,0,1,-33.7713,-31.8361)">
            <path d="M312.65,96.532L312.65,260.96C312.65,273.001 303.7,282.777 292.676,282.777L70.956,282.777C59.932,282.777 50.982,273.001 50.982,260.96L50.982,96.532C50.982,84.49 59.932,74.714 70.956,74.714L292.676,74.714C303.7,74.714 312.65,84.49 312.65,96.532Z" style="fill:white;"/>
        </g>
        <g transform="matrix(1,0,0,1.2106,-21.8881,-42.7338)">
            <path d="M166.537,101.957L166.537,101.976C166.537,105.275 163.295,107.953 159.301,107.953L92.5,107.953C88.507,107.953 85.264,105.275 85.264,101.976L85.264,101.957C85.264,98.658 88.507,95.98 92.5,95.98L159.301,95.98C163.295,95.98 166.537,98.658 166.537,101.957Z" style="fill:rgb(194,194,194);"/>
        </g>
        <g transform="matrix(1,0,0,1.2106,-21.8881,21.2061)">
            <path d="M166.537,101.957L166.537,101.976C166.537,105.275 163.295,107.953 159.301,107.953L92.5,107.953C88.507,107.953 85.264,105.275 85.264,101.976L85.264,101.957C85.264,98.658 88.507,95.98 92.5,95.98L159.301,95.98C163.295,95.98 166.537,98.658 166.537,101.957Z" style="fill:rgb(194,194,194);"/>
        </g>
        <g transform="matrix(2.52689,0,0,1.2106,-152.078,-10.8252)">
            <path d="M166.537,101.957L166.537,101.976C166.537,105.275 165.254,107.953 163.673,107.953L88.128,107.953C86.548,107.953 85.264,105.275 85.264,101.976L85.264,101.957C85.264,98.658 86.548,95.98 88.128,95.98L163.673,95.98C165.254,95.98 166.537,98.658 166.537,101.957Z" style="fill:rgb(194,194,194);"/>
        </g>
    </g>
    <g id="top">
        <g transform="matrix(5.73617e-17,0.928822,-0.991201,6.11981e-17,275.332,116.583)">
            <path d="M98.386,154.394L183.1,277.074L13.672,277.074L98.386,154.394Z" style="fill:rgb(4,179,81);"/>
        </g>
        <g transform="matrix(5.73617e-17,0.928822,-0.991201,6.11981e-17,275.332,116.583)">
            <path d="M28.243,255.972L98.386,154.394L168.529,255.972L28.243,255.972Z" style="fill:rgb(1,185,82);"/>
        </g>
        <g transform="matrix(5.63862e-17,-0.928822,0.991201,6.0189e-17,54.4908,299.423)">
            <path d="M98.386,154.394L183.1,277.074L13.672,277.074L98.386,154.394Z" style="fill:rgb(1,185,82);"/>
        </g>
        <g transform="matrix(1.61131,0,0,1.12786,-111.962,-74.4515)">
            <path d="M273.882,318.001C273.449,339.659 261.006,357.052 245.742,357.052L98.029,357.052C82.947,357.052 70.619,340.07 69.91,318.772L159.387,236.612C167.263,229.38 177.368,229.38 185.244,236.612L273.882,318.001Z" style="fill:rgb(20,194,97);"/>
        </g>
        <g transform="matrix(1.61131,0,0,1.12786,-111.962,-74.4515)">
            <path d="M269.757,337.82C268.755,338.041 267.728,338.156 266.683,338.156L103.045,338.156C92.028,338.156 82.875,325.367 82.875,309.628L82.888,306.85L159.387,236.612C167.263,229.38 177.368,229.38 185.244,236.612L273.882,318.001C273.737,325.249 272.247,332.019 269.757,337.82Z" style="fill:rgb(24,206,105);"/>
        </g>
    </g>
</svg>
