<svg width="100%" height="100%" viewBox="0 0 62 61" fill="none"
    xmlns="http://www.w3.org/2000/svg">
    <path
        d="M31.0057 12.0001C36.0957 12.0001 40.6203 14.0738 43.9199 17.373C47.3138 20.6723 49.2928 25.291 49.2928 30.3818C49.2928 35.3775 47.3138 39.9964 43.9199 43.2957C40.6206 46.595 36.0957 48.669 31.0057 48.669C25.9152 48.669 21.3905 46.5953 17.9972 43.2957C14.6979 39.9964 12.6243 35.3778 12.6243 30.3818C12.6243 25.2913 14.6979 20.6726 17.9972 17.373C21.3905 14.0738 25.9152 12.0001 31.0057 12.0001ZM31.0057 12.2825C26.0098 12.2825 21.4852 14.3561 18.2796 17.5617C14.9803 20.8607 12.9067 25.3856 12.9067 30.3815C12.9067 35.3772 14.9803 39.9021 18.2796 43.1068C21.4849 46.4061 26.0098 48.386 31.0057 48.386C36.0014 48.386 40.5266 46.4064 43.731 43.1068C47.0303 39.9021 49.0102 35.3772 49.0102 30.3815C49.0102 25.3856 47.0303 20.8607 43.731 17.5617C40.5266 14.3564 36.0014 12.2825 31.0057 12.2825Z"
        fill="#C5C5C1" />
    <path
        d="M31.0055 2.29057C37.4154 2.29057 43.3546 4.45827 48.067 8.04082L51.1774 4.93018L56.6452 10.3972L53.5346 13.6024C57.0225 18.316 59.0016 24.0653 59.0016 30.2869C59.0016 45.7464 46.4647 58.3779 31.0052 58.3779C15.5458 58.3779 3.0083 45.7464 3.0083 30.2869C3.00859 14.828 15.546 2.29057 31.0055 2.29057ZM31.0055 8.88915C19.2223 8.88915 9.60716 18.5037 9.60716 30.2869C9.60716 42.1647 19.2223 51.6853 31.0055 51.6853C42.7887 51.6853 52.4033 42.1647 52.4033 30.2869C52.4033 18.5037 42.7887 8.88915 31.0055 8.88915Z"
        fill="url(#paint0_radial_601_1567)" />
    <path
        d="M31.0056 8.79453C36.9445 8.79453 42.3175 11.1514 46.2765 15.1104C50.1408 18.9754 52.5921 24.3483 52.5921 30.3812C52.5921 36.3201 50.1411 41.6925 46.2765 45.652C42.3172 49.5164 36.9442 51.9676 31.0056 51.9676C25.0668 51.9676 19.5998 49.5167 15.7348 45.652C11.8699 41.6922 9.41895 36.3198 9.41895 30.3812C9.41895 24.3483 11.8699 18.9754 15.7348 15.1104C19.5998 11.1514 25.0668 8.79453 31.0056 8.79453ZM31.0056 9.07778C25.1614 9.07778 19.7881 11.4341 15.9232 15.2991C12.0583 19.1634 9.70163 24.4426 9.70163 30.3815C9.70163 36.2258 12.058 41.5987 15.9232 45.4637C19.7881 49.234 25.1614 51.685 31.0056 51.685C36.8499 51.685 42.2229 49.234 46.0881 45.4637C49.9522 41.5987 52.3094 36.2258 52.3094 30.3815C52.3094 24.4426 49.9522 19.1634 46.0881 15.2991C42.2229 11.4341 36.8499 9.07778 31.0056 9.07778Z"
        fill="url(#paint1_linear_601_1567)" />
    <path
        d="M31.0056 2.10193C37.4155 2.10193 43.4484 4.26992 48.162 7.94621L48.0674 8.04082C43.3547 4.45827 37.4155 2.29057 31.0059 2.29057C15.5464 2.29057 3.00896 14.828 3.00896 30.2869C3.00896 45.7464 15.5464 58.3779 31.0059 58.3779C46.4653 58.3779 59.0022 45.7464 59.0022 30.2869C59.0022 24.0656 57.0232 18.316 53.5352 13.6024L53.6293 13.5078C57.1172 18.2214 59.1909 23.9713 59.1909 30.2869C59.1909 38.1108 55.9862 45.1807 50.8956 50.271C45.8051 55.3615 38.8298 58.4725 31.0059 58.4725C23.2757 58.4725 16.2061 55.3618 11.1161 50.271C6.02556 45.0864 2.82031 38.1108 2.82031 30.2869C2.82031 22.5573 6.02556 15.4877 11.1161 10.3972C16.2058 5.3066 23.1814 2.10193 31.0056 2.10193Z"
        fill="url(#paint2_radial_601_1567)" />
    <path
        d="M31.0058 8.9832C42.7889 8.9832 52.4035 18.5041 52.4035 30.3818C52.4035 42.165 42.7889 51.7796 31.0058 51.7796C19.2226 51.7796 9.60742 42.165 9.60742 30.3818C9.60742 18.5038 19.2226 8.9832 31.0058 8.9832ZM31.0058 12.0001C20.9193 12.0001 12.7181 20.2013 12.7181 30.3818C12.7181 40.4683 20.9193 48.6687 31.0058 48.6687C41.0923 48.6687 49.2926 40.4681 49.2926 30.3818C49.2926 20.201 41.0923 12.0001 31.0058 12.0001Z"
        fill="url(#paint3_radial_601_1567)" />
    <path opacity="0.67"
        d="M13.6406 36.0868H3.61694C3.86414 37.2645 4.20682 38.4047 4.59738 39.5236H15.1895C14.5619 38.4417 14.0383 37.2939 13.6406 36.0868Z"
        fill="url(#paint4_linear_601_1567)" />
    <path opacity="0.86"
        d="M48.3837 36.0868H58.4076C58.1601 37.2645 57.8174 38.4047 57.4269 39.5236H46.8347C47.4627 38.4417 47.9862 37.2939 48.3837 36.0868Z"
        fill="url(#paint5_linear_601_1567)" />
    <path
        d="M58.9081 23.217C59.5678 25.4796 59.8505 27.836 59.8505 30.2869C59.8505 32.8325 59.4737 35.2834 58.9081 37.6398H3.19751V37.5452H58.8138C59.474 35.1888 59.7567 32.7379 59.7567 30.1929C59.7564 27.7419 59.4737 25.3856 58.9081 23.217Z"
        fill="#1A171B" />
    <path
        d="M3.10334 23.1233H58.9082C59.4739 25.3856 59.7563 27.7419 59.7563 30.1929C59.7563 32.7379 59.4739 35.1888 58.8133 37.5452H3.19738C2.5374 35.1888 2.1604 32.7379 2.1604 30.1929C2.1604 27.7419 2.5374 25.3856 3.10334 23.1233Z"
        fill="url(#paint6_radial_601_1567)" />
    <path
        d="M52.3091 3.04488L58.5307 9.26645L53.9117 13.8851L54.1944 14.2621L50.8951 16.902L49.8579 17.279L56.6454 10.3972L51.1775 4.93018L44.3909 11.7174L44.6738 10.7745L52.3091 3.04488Z"
        fill="url(#paint7_linear_601_1567)" />
    <path d="M46.0879 2.38461C51.5549 5.3069 55.9855 9.83152 59.0018 15.2045V2.38461H46.0879Z"
        fill="url(#paint8_radial_601_1567)" />
    <path d="M46.0879 2.38461C51.5549 5.3069 55.9855 9.83152 59.0018 15.2045" stroke="#B1B0A8" stroke-width="0.643982"
        stroke-linecap="round" />
    <path d="M46.0879 2.38461C51.4608 5.3069 55.9855 9.83152 58.9077 15.2045" stroke="#CBCAC4" stroke-width="0.446926"
        stroke-linecap="round" />
    <path d="M45.9937 2.38461C51.4612 5.3069 55.8912 9.83152 58.9081 15.2991" stroke="#E6E6E1" stroke-width="0.250627"
        stroke-linecap="round" />
    <path d="M45.9937 2.38461C51.3666 5.40151 55.8912 9.83152 58.8135 15.2991" stroke="white" stroke-width="0.0535705"
        stroke-linecap="round" />
    <path
        d="M59.0017 2.10193C59.0963 2.10193 59.1904 2.19596 59.1904 2.38432H46.0878H45.8992C45.8992 2.19596 45.9932 2.10193 46.0878 2.10193H59.0017Z"
        fill="url(#paint9_linear_601_1567)" />
    <path
        d="M59.1906 15.2045C59.1906 15.3931 59.0966 15.4877 59.002 15.4877L58.9082 15.2991V2.10193C58.9082 2.10193 58.9082 2.10193 59.002 2.10193C59.0966 2.10193 59.1906 2.19596 59.1906 2.38432V15.2045Z"
        fill="url(#paint10_linear_601_1567)" />
    <path
        d="M3.20442 23.2317C2.63877 25.4943 2.26147 27.8507 2.26147 30.3016C2.26147 30.5044 2.33128 31.7055 2.33618 31.9069L2.49973 33.7276C2.49714 33.5804 2.4256 30.6129 2.4256 30.4652C2.4256 28.0142 2.83405 25.741 3.3997 23.4784L23.1475 23.3953L31.6709 23.2317H3.20442V23.2317Z"
        fill="url(#paint11_linear_601_1567)" />
    <path
        d="M51.178 33.7834C48.6789 33.7834 46.6453 32.2573 46.6453 30.3815C46.6453 28.5051 48.6789 26.9789 51.178 26.9789C53.7302 26.9789 55.8065 28.5054 55.8065 30.3815C55.8062 32.2573 53.7299 33.7834 51.178 33.7834ZM51.178 27.9392C50.255 27.9392 49.5852 28.9663 49.5852 30.3815C49.5852 31.7199 50.27 32.7292 51.178 32.7292C52.0422 32.7292 52.772 31.6541 52.772 30.3815C52.772 29.0347 52.0569 27.9392 51.178 27.9392ZM22.522 33.7834C20.0223 33.7834 17.9887 32.2573 17.9887 30.3815C17.9887 28.5882 20.0647 27.0735 22.522 27.0735C25.0736 27.0735 27.1493 28.5576 27.1493 30.3815C27.1493 32.2573 25.0736 33.7834 22.522 33.7834ZM22.522 28.0329C21.6134 28.0329 20.928 29.0425 20.928 30.3815C20.928 31.7199 21.6134 32.7292 22.522 32.7292C23.3862 32.7292 24.116 31.6541 24.116 30.3815C24.1163 29.1085 23.3862 28.0329 22.522 28.0329ZM39.3011 33.5948L36.3716 28.1232L34.8711 28.1278L34.8625 27.2711L41.2813 27.2625L41.29 28.1192L39.6784 28.1278L41.9485 31.9798L43.9126 28.1154L42.789 28.1278L42.7804 27.2711L47.2194 27.2625L47.228 28.1192L45.711 28.1278L42.7942 33.5951H39.3011V33.5948ZM27.518 33.5948L27.5093 32.5492L29.026 32.5405L29.0173 28.1192L27.518 28.1278L27.5093 27.2711L33.4568 27.2625L33.4655 28.1192L31.948 28.1278L31.9566 32.5495L33.5506 32.5408C34.066 32.5408 35.4249 32.2036 35.5216 30.6639L36.4726 30.6558L36.4812 33.5951H27.518V33.5948ZM10.6445 33.5948L7.71473 28.1232L6.21422 28.1278L6.20557 27.2711L12.6241 27.2625L12.6328 28.1192L11.0215 28.1278L13.2913 31.9798L15.35 28.1151L14.1322 28.1278L14.1235 27.2711L18.563 27.2625L18.5717 28.1192L17.0544 28.1278L14.1376 33.5951H10.6445V33.5948Z"
        fill="white" />
    <path
        d="M51.1779 26.9876C53.7238 26.9876 55.7977 28.4962 55.7977 30.3818C55.7977 32.2668 53.724 33.7751 51.1779 33.7751C48.7278 33.7751 46.6539 32.2668 46.6539 30.3818C46.6539 28.4962 48.7275 26.9876 51.1779 26.9876ZM51.1779 32.7379C52.0262 32.7379 52.7808 31.7009 52.7808 30.3815C52.7808 28.9675 52.0265 27.9306 51.1779 27.9306C50.2358 27.9306 49.5761 28.9675 49.5761 30.3815C49.5761 31.7009 50.2358 32.7379 51.1779 32.7379ZM22.5219 27.0822C25.0669 27.0822 27.1405 28.5905 27.1405 30.3815C27.1405 32.2665 25.0669 33.7748 22.5219 33.7748C20.0709 33.7748 17.997 32.2665 17.997 30.3815C17.9972 28.5903 20.0709 27.0822 22.5219 27.0822ZM22.5219 32.7379C23.3702 32.7379 24.1245 31.7009 24.1245 30.3815C24.1245 29.0622 23.3702 28.0243 22.5219 28.0243C21.5789 28.0243 20.9192 29.0622 20.9192 30.3815C20.9192 31.7009 21.5789 32.7379 22.5219 32.7379ZM47.2189 27.2709V28.1189H45.7106L42.7886 33.5859H39.3007L36.3787 28.1189H34.8707V27.2709H41.2809V28.1189H39.678L41.9406 31.9839L43.9196 28.1189H42.7886V27.2709H47.2189ZM33.4567 27.2709V28.1189H31.9481V32.5489C31.9481 32.5489 32.9851 32.5489 33.551 32.5489C34.1167 32.5489 35.436 32.1725 35.5307 30.6639C36.2844 30.6639 36.473 30.6639 36.473 30.6639V33.5859H29.0258H27.5178V32.5489H29.0258V28.1189H27.5178V27.2709H33.4567ZM18.5629 27.2709V28.1189H17.0543L14.1323 33.5859H10.6444L7.72239 28.1189H6.21408V27.2709H12.6243V28.1189H11.0217L13.284 31.9839L15.3576 28.1189H14.132V27.2709H18.5629ZM51.1779 26.97C48.6739 26.97 46.6368 28.5005 46.6368 30.3815C46.6368 32.2622 48.6742 33.7919 51.1779 33.7919C53.7347 33.7919 55.8147 32.2619 55.8147 30.3815C55.8147 28.5005 53.7347 26.97 51.1779 26.97ZM51.1779 32.7209C50.2745 32.7209 49.5934 31.7153 49.5934 30.3818C49.5934 28.9716 50.2601 27.9482 51.1779 27.9482C52.0522 27.9482 52.7635 29.0399 52.7635 30.3818C52.7635 31.6496 52.0372 32.7209 51.1779 32.7209ZM22.5219 27.0649C20.0597 27.0649 17.9797 28.5839 17.9797 30.3818C17.9797 32.2625 20.0173 33.7922 22.5219 33.7922C25.0781 33.7922 27.1578 32.2622 27.1578 30.3818C27.1581 28.5528 25.0784 27.0649 22.5219 27.0649ZM22.5219 32.7209C21.6182 32.7209 20.9366 31.7153 20.9366 30.3818C20.9366 29.0477 21.6182 28.0419 22.5219 28.0419C23.3812 28.0419 24.1072 29.1135 24.1072 30.3818C24.1072 31.6496 23.3812 32.7209 22.5219 32.7209ZM47.2362 27.2536H47.2189H42.7889H42.7716V27.2709V28.1189V28.1362H42.7889H43.8917L41.9394 31.9478L39.7083 28.1362H41.2809H41.2982V28.1189V27.2709V27.2536H41.2809H34.8707H34.8534V27.2709V28.1189V28.1362H34.8707H36.3683L39.2854 33.594L39.2903 33.6029H39.3007H42.7886H42.799L42.8039 33.594L45.721 28.1362H47.2186H47.2359V28.1189V27.2709V27.2536H47.2362ZM33.474 27.2536H33.4567H27.5178H27.5005V27.2709V28.1189V28.1362H27.5178H29.0085V32.5319H27.5178H27.5005V32.5492V33.5862V33.6035H27.5178H29.0258H36.4727H36.49V33.5862V30.6642V30.6469H36.4727H35.5304H35.5139L35.5131 30.6631C35.4167 32.1962 34.0639 32.5319 33.5505 32.5319H31.9648V28.1362H33.4564H33.4737V28.1189V27.2709V27.2536H33.474ZM18.5802 27.2536H18.5629H14.132H14.1147V27.2709V28.1189V28.1362H14.132H15.3285L13.2831 31.9487L11.0517 28.1365H12.6243H12.6416V28.1192V27.2712V27.2539H12.6243H6.21408H6.19678V27.2712V28.1192V28.1365H6.21408H7.71171L10.6291 33.5943L10.634 33.6032H10.6444H14.1323H14.1427L14.1476 33.5943L17.0647 28.1362H18.5629H18.5802V28.1189V27.2709V27.2536V27.2536Z"
        fill="#1D2D28" />
    <defs>
        <radialGradient id="paint0_radial_601_1567" cx="0" cy="0" r="1" gradientUnits="userSpaceOnUse"
            gradientTransform="translate(10.9877 24.7648) scale(58.4772)">
            <stop stop-color="white" />
            <stop offset="0.0469" stop-color="#FCFCFB" />
            <stop offset="0.2247" stop-color="#FAFAF9" />
            <stop offset="0.3719" stop-color="#B9B9B8" />
            <stop offset="0.4972" stop-color="#888887" />
            <stop offset="0.5923" stop-color="#6A6A69" />
            <stop offset="0.6461" stop-color="#5F5F5E" />
            <stop offset="0.7275" stop-color="#555554" />
            <stop offset="0.8673" stop-color="#3A3939" />
            <stop offset="1" stop-color="#1B1919" />
        </radialGradient>
        <linearGradient id="paint1_linear_601_1567" x1="19.9557" y1="26.5672" x2="40.9216" y2="33.7863"
            gradientUnits="userSpaceOnUse">
            <stop stop-color="#E2E2DC" />
            <stop offset="1" stop-color="white" />
        </linearGradient>
        <radialGradient id="paint2_radial_601_1567" cx="0" cy="0" r="1" gradientUnits="userSpaceOnUse"
            gradientTransform="translate(47.6458 48.3314) scale(64.1766 64.1766)">
            <stop stop-color="#C5C6C2" />
            <stop offset="1" stop-color="#868680" />
        </radialGradient>
        <radialGradient id="paint3_radial_601_1567" cx="0" cy="0" r="1" gradientUnits="userSpaceOnUse"
            gradientTransform="translate(41.1009 40.4768) scale(45.0676 45.0676)">
            <stop stop-color="white" />
            <stop offset="0.1986" stop-color="#F2F2F3" />
            <stop offset="0.2978" stop-color="#EAEAEB" />
            <stop offset="0.2992" stop-color="#E9E9EA" />
            <stop offset="0.3715" stop-color="#C3C3C3" />
            <stop offset="0.443" stop-color="#A5A5A5" />
            <stop offset="0.5126" stop-color="#8F8F8F" />
            <stop offset="0.5794" stop-color="#828281" />
            <stop offset="0.6404" stop-color="#7E7E7D" />
            <stop offset="0.7534" stop-color="#545352" />
            <stop offset="0.8551" stop-color="#353333" />
            <stop offset="0.9408" stop-color="#222020" />
            <stop offset="1" stop-color="#1B1919" />
        </radialGradient>
        <linearGradient id="paint4_linear_601_1567" x1="9.40319" y1="39.6874" x2="9.40319" y2="37.6692"
            gradientUnits="userSpaceOnUse">
            <stop stop-color="white" stop-opacity="0" />
            <stop offset="0.17" stop-color="#FAFAF9" stop-opacity="0" />
            <stop offset="0.427" stop-color="#BBBBB8" stop-opacity="0.1" />
            <stop offset="0.5232" stop-color="#8F8F8C" stop-opacity="0.2" />
            <stop offset="0.6238" stop-color="#686866" stop-opacity="0.3" />
            <stop offset="0.7234" stop-color="#4A4948" stop-opacity="0.6" />
            <stop offset="0.8206" stop-color="#343432" stop-opacity="0.8" />
            <stop offset="0.9141" stop-color="#272625" stop-opacity="0.9" />
            <stop offset="1" stop-color="#232221" />
        </linearGradient>
        <linearGradient id="paint5_linear_601_1567" x1="52.6212" y1="39.6874" x2="52.6212" y2="37.6692"
            gradientUnits="userSpaceOnUse">
            <stop stop-color="white" stop-opacity="0" />
            <stop offset="0.17" stop-color="#FAFAF9" stop-opacity="0" />
            <stop offset="0.427" stop-color="#BBBBB8" stop-opacity="0" />
            <stop offset="0.5232" stop-color="#8F8F8C" stop-opacity="0" />
            <stop offset="0.6238" stop-color="#686866" stop-opacity="0" />
            <stop offset="0.7234" stop-color="#4A4948" stop-opacity="0.25" />
            <stop offset="0.8206" stop-color="#343432" stop-opacity="0.5" />
            <stop offset="0.9141" stop-color="#272625" stop-opacity="0.75" />
            <stop offset="1" stop-color="#232221" />
        </linearGradient>
        <radialGradient id="paint6_radial_601_1567" cx="0" cy="0" r="1" gradientUnits="userSpaceOnUse"
            gradientTransform="translate(4.7711 24.7675) scale(36.3816 36.3816)">
            <stop stop-color="#006AB1" />
            <stop offset="0.0016" stop-color="#006AB1" />
            <stop offset="0.1275" stop-color="#0061A4" />
            <stop offset="0.2416" stop-color="#005E9F" />
            <stop offset="0.5062" stop-color="#00548E" />
            <stop offset="0.8371" stop-color="#004374" />
            <stop offset="0.9588" stop-color="#004173" />
            <stop offset="1" stop-color="#003B6F" />
        </radialGradient>
        <linearGradient id="paint7_linear_601_1567" x1="57.9788" y1="17.0571" x2="43.8003" y2="2.87865"
            gradientUnits="userSpaceOnUse">
            <stop offset="0.0056" stop-color="#212111" />
            <stop offset="0.6461" stop-color="#41403F" />
            <stop offset="0.6508" stop-color="#454443" />
            <stop offset="0.6558" stop-color="#52514F" />
            <stop offset="0.6608" stop-color="#666564" />
            <stop offset="0.6659" stop-color="#838281" />
            <stop offset="0.6711" stop-color="#A9A8A6" />
            <stop offset="0.6762" stop-color="#D6D5D2" />
            <stop offset="0.68" stop-color="#FDFCF9" />
            <stop offset="0.6826" stop-color="#FAF9F6" />
            <stop offset="0.6842" stop-color="#F2F1EE" />
            <stop offset="0.6856" stop-color="#E3E2DF" />
            <stop offset="0.6869" stop-color="#CECECA" />
            <stop offset="0.688" stop-color="#B3B3AF" />
            <stop offset="0.6891" stop-color="#93938E" />
            <stop offset="0.69" stop-color="#70706B" />
            <stop offset="0.6924" stop-color="#6D6D68" />
            <stop offset="0.7145" stop-color="#535250" />
            <stop offset="0.7396" stop-color="#3E3C3D" />
            <stop offset="0.7692" stop-color="#2E2B2D" />
            <stop offset="0.8059" stop-color="#222023" />
            <stop offset="0.8573" stop-color="#1C191D" />
            <stop offset="1" stop-color="#1A171B" />
        </linearGradient>
        <radialGradient id="paint8_radial_601_1567" cx="0" cy="0" r="1" gradientUnits="userSpaceOnUse"
            gradientTransform="translate(56.8126 3.81899) scale(15.2044 15.2044)">
            <stop stop-color="#555552" />
            <stop offset="1" stop-color="#50504D" />
        </radialGradient>
        <linearGradient id="paint9_linear_601_1567" x1="45.8991" y1="2.24324" x2="59.1903" y2="2.24324"
            gradientUnits="userSpaceOnUse">
            <stop stop-color="#5D5D5F" />
            <stop offset="0.0852" stop-color="#505051" />
            <stop offset="0.2581" stop-color="#3C3C3C" />
            <stop offset="0.4497" stop-color="#2E2D2D" />
            <stop offset="0.6724" stop-color="#262524" />
            <stop offset="1" stop-color="#232221" />
        </linearGradient>
        <linearGradient id="paint10_linear_601_1567" x1="59.0492" y1="15.4878" x2="59.0492" y2="2.10196"
            gradientUnits="userSpaceOnUse">
            <stop stop-color="#5D5D5F" />
            <stop offset="0.096" stop-color="#555456" />
            <stop offset="0.4584" stop-color="#393939" />
            <stop offset="0.7723" stop-color="#292827" />
            <stop offset="1" stop-color="#232221" />
        </linearGradient>
        <linearGradient id="paint11_linear_601_1567" x1="9.86625" y1="18.7151" x2="18.3768" y2="30.2259"
            gradientUnits="userSpaceOnUse">
            <stop stop-color="white" />
            <stop offset="0.1091" stop-color="#D8E8F3" />
            <stop offset="0.3376" stop-color="#8CBCDC" />
            <stop offset="0.5419" stop-color="#5099C9" />
            <stop offset="0.7143" stop-color="#257FBC" />
            <stop offset="0.8481" stop-color="#0A70B4" />
            <stop offset="0.927" stop-color="#006AB1" />
            <stop offset="0.9288" stop-color="#046BB2" />
            <stop offset="0.9489" stop-color="#2678B8" />
            <stop offset="0.968" stop-color="#3E81BD" />
            <stop offset="0.9856" stop-color="#4D86C0" />
            <stop offset="1" stop-color="#5288C1" />
        </linearGradient>
    </defs>
</svg>