<svg id="logo" viewBox="0 0 130 40" fill="none" stroke="none" height="100%" width="100%"
    xmlns="http://www.w3.org/2000/svg">
    <g>
        <path
            d="M79.37 12.49l-2.1 7.61c-.17.68-.79 3.47-1 5.52h-.18c-.2-2.23-.76-4.63-1-5.68l-1.67-7.46h-5.33l-1.68 7.46c-.23 1.05-.8 3.45-1 5.68h-.18c-.2-2.05-.82-4.85-1-5.52l-2.1-7.61H56l5.5 17.36c.68 2.13 1.79 3.24 3.7 3.24 1.88 0 3.08-1.17 3.55-3.24l.82-3.54c.36-1.49.86-3.65 1.09-5.29h.17c.23 1.64.73 3.8 1.08 5.3l.83 3.53c.5 2.07 1.68 3.24 3.55 3.24 1.91 0 3.03-1.11 3.7-3.24l5.5-17.36h-6.12zM96 12.05c-6.24 0-11.02 4.59-11.02 10.52S89.78 33.09 96 33.09c6.23 0 11.01-4.59 11.01-10.52.01-5.93-4.78-10.52-11-10.52zm0 15.93a5.36 5.36 0 01-5.45-5.41A5.36 5.36 0 0196 17.16a5.36 5.36 0 015.44 5.41 5.36 5.36 0 01-5.44 5.41zM129.8 21.06h-11.84v4.15h6.49c-.32 1.52-2.24 3.01-4.88 3.01-3.66 0-5.61-2.46-5.61-5.64a5.36 5.36 0 015.52-5.44c2.2 0 3.88 1.12 4.8 2.81l5.08-2.07c-1.8-3.51-5.11-5.81-9.87-5.81-6.17 0-11.01 4.56-11.01 10.52s4.64 10.52 11.01 10.52c6.99-.01 11.48-5.48 10.3-12.05z"
            fill="#009345"></path>
        <path d="M42.61 0a6.67 6.67 0 00-6 9.62l6 12.1 6-12.1a6.67 6.67 0 00-6-9.62z" fill="#8BC53F"></path>
        <path
            d="M21.23 29.02L15.77 40 .7 9.6A6.65 6.65 0 013.73.7a6.71 6.71 0 018.96 3.02l8.53 17.17a9.16 9.16 0 010 8.14zM39.18 29.02L33.72 40 18.65 9.6A6.65 6.65 0 0121.68.7a6.71 6.71 0 018.96 3.02l8.54 17.18a9.17 9.17 0 010 8.13z"
            fill="#009345"></path>
    </g>
</svg>