<svg width="100%" height="100%" viewBox="0 0 1000 278" xmlns="http://www.w3.org/2000/svg">
  <path id="yahoo" fill="#7d2eff"
    d="M358.66,0l0,220.402l54.274,0l-0,-83.394c-0,-11.726 6.811,-23.395 19.88,-23.395c12.84,0 18.508,11.495 18.508,23.395l0,83.394l53.875,0l0,-96.632c0,-35.162 -19.349,-59.768 -52.375,-59.768c-26.999,-0 -39.888,17.939 -39.888,17.939l-0,-81.941l-54.274,0Zm576.701,0l-57.582,138.332l64.881,0l57.34,-138.332l-64.639,0Zm-687.863,63.982c-44.7,0 -72.957,40.09 -72.957,80.012c0,44.925 30.981,80.541 72.109,80.541c30.681,0 42.248,-18.691 42.248,-18.691l0,14.56l51.891,0l0,-152.892l-51.891,-0l0,13.9c0,0 -12.906,-17.43 -41.4,-17.43Zm350.234,0.018c-51.19,0 -81.671,38.927 -81.671,80.631c-0,47.46 36.905,79.904 81.865,79.904c43.576,0 81.707,-30.973 81.707,-79.109c-0,-52.67 -39.923,-81.426 -81.901,-81.426Zm172.319,0c-51.19,0 -81.672,38.927 -81.672,80.631c-0,47.46 36.906,79.904 81.865,79.904c43.577,0 81.707,-30.973 81.707,-79.109c0,-52.67 -39.923,-81.426 -81.9,-81.426Zm-770.051,3.512l65.512,154.215l-23.875,55.597l58.293,0l87.224,-209.812l-57.925,-0l-35.094,88.629l-34.641,-88.629l-59.494,-0Zm258.535,45.605c20.625,0 31.27,16.319 31.27,31.045c-0,15.857 -11.404,31.418 -31.27,31.418c-16.464,0 -31.342,-13.454 -31.342,-30.742c0,-17.533 11.967,-31.721 31.342,-31.721Zm339.686,0.449c18.082,0 30.593,15.061 30.593,31.121c0,13.699 -11.658,30.594 -30.593,30.594c-17.351,0 -30.371,-13.918 -30.371,-30.744c-0,-16.209 10.825,-30.971 30.371,-30.971Zm172.318,0c18.082,0 30.594,15.061 30.594,31.121c-0,13.699 -11.659,30.594 -30.594,30.594c-17.35,0 -30.371,-13.918 -30.371,-30.744c-0,-16.209 10.825,-30.971 30.371,-30.971Zm124.238,38.004c-19.904,0 -36.039,16.135 -36.039,36.039c0,19.905 16.135,36.039 36.039,36.039c19.904,0 36.039,-16.134 36.039,-36.039c0,-19.904 -16.135,-36.039 -36.039,-36.039Z" />
</svg>
