<svg width="100%" height="100%" viewBox="0 0 2500 972" xmlns="http://www.w3.org/2000/svg">
    <path
        d="M2499.59,724.777c-0,136.518 -110.685,247.202 -247.203,247.202l-978.283,0c-136.517,0 -247.202,-110.684 -247.202,-247.202l-0,-477.575c-0,-136.517 110.685,-247.202 247.202,-247.202l978.263,-0c136.517,-0 247.202,110.685 247.202,247.202l0,477.575l0.021,-0Z"
        fill="#ec2027" fill-rule="nonzero" />
    <g>
        <path
            d="M1272.54,775.227l-0,-516.056l-102.074,0l-0,-102.074l292.584,0l0,102.074l-102.033,0l0,516.056l-88.477,-0Zm467.171,-464.205l0,464.205l-81.082,-0l-0,-46.124c-17.099,38.996 -42.087,58.484 -75.068,58.484c-53.107,-0 -79.681,-37.328 -79.681,-111.942l-0,-364.623l79.846,-0l0,303.317c0,24.885 1.422,42.663 4.285,53.375c5.13,18.458 15.388,27.708 30.736,27.708c16.603,-0 27.666,-10.012 33.207,-30.097c3.028,-11.536 4.594,-30.756 4.594,-57.784l0,-296.519l83.163,-0Zm71.318,464.205l-0,-618.13l82.71,0l-0,193.209c13.843,-34.443 37.245,-51.644 70.143,-51.644c42.025,-0 69.547,29.952 82.504,89.837c6.634,30.221 9.909,82.483 9.909,156.83c-0,72.183 -3.605,123.786 -10.795,154.81c-13.575,58.278 -41.365,87.427 -83.327,87.427c-35,0 -59.164,-20.291 -72.534,-60.914l0,48.534l-78.61,0.041Zm123.478,-386.398c-22.599,-0 -36.483,23.814 -41.654,71.421c-1.051,9.641 -1.545,43.734 -1.545,102.342c-0,45.196 0.927,73.398 2.802,84.646c5.376,34.485 18.849,51.768 40.438,51.768c20.126,0 32.321,-21.136 36.668,-63.407c1.051,-8.838 1.566,-39.161 1.566,-91.074c-0,-53.746 -0.433,-84.419 -1.257,-91.877c-4.367,-42.56 -16.686,-63.819 -37.018,-63.819Zm341.263,227.117l77.745,0c-0,2.143 0.103,5.15 0.309,9.023c0.247,3.873 0.329,6.901 0.329,9.023c0,53.499 -9.867,92.433 -29.623,116.927c-19.755,24.431 -50.388,36.668 -91.98,36.668c-43.013,-0 -73.996,-14.853 -92.907,-44.517c-15.038,-23.567 -24.596,-57.907 -28.757,-103.063c-1.855,-19.797 -2.782,-57.104 -2.782,-111.941c0,-44.126 0.927,-75.521 2.782,-94.226c3.728,-37.986 11.824,-66.847 24.411,-86.624c20.6,-32.342 53.684,-48.534 99.396,-48.534c44.043,0 76.2,17.511 96.573,52.49c16.481,28.325 24.68,85.47 24.68,171.517l-0,35.247l-162.351,-0c-0.597,5.109 -0.927,15.017 -0.927,29.705c0,34.547 1.422,59.185 4.326,73.893c5.974,30.262 18.335,45.383 37.04,45.383c27.83,-0 41.736,-30.324 41.736,-90.971Zm-82.854,-131.676l80.073,-0l-0,-19.612c-0,-26.698 -1.855,-45.65 -5.583,-56.856c-5.748,-17.881 -17.387,-26.822 -34.856,-26.822c-14.605,0 -25.029,6.139 -31.188,18.417c-7.396,15.223 -10.507,36.977 -9.25,65.261l0.433,6.407c0.247,4.532 0.371,8.94 0.371,13.205Z"
            fill="#fff" fill-rule="nonzero" />
    </g>
    <g>
        <path fill="#000" fill-rule="evenodd"
            d="M125.826,778.729l0,-263.559l-125.393,-358.073l98.716,0l72.327,233.854l71.38,-233.854l95.915,0l-123.148,358.052l-0,263.58l-89.797,-0Zm243.68,-233.194c0,-80.403 6.098,-137.404 18.314,-171.065c18.19,-49.996 54.178,-75.025 107.965,-75.025c53.746,-0 89.879,25.008 108.275,75.025c12.216,33.352 18.314,90.374 18.314,171.065c-0,80.649 -6.098,137.671 -18.314,171.002c-18.396,49.749 -54.508,74.634 -108.275,74.634c-53.787,0 -89.775,-25.008 -107.965,-75.026c-12.216,-33.331 -18.314,-90.228 -18.314,-170.61Zm85.264,6.035c0,57.805 0.309,89.22 0.927,94.329c4.306,41.653 17.469,62.48 39.47,62.48c22.022,0 35.474,-17.86 40.397,-53.602c1.03,-7.807 1.545,-36.956 1.545,-87.489l0,-45.547c0,-47.318 -0.618,-75.808 -1.833,-85.47c-5.171,-35.473 -18.334,-53.21 -39.491,-53.21c-20.579,-0 -33.434,15.615 -38.584,46.783c-1.627,9.929 -2.451,36.133 -2.451,78.59l0.02,43.136Zm465.709,-239.662l0,466.821l-81.535,-0l-0,-46.392c-17.202,39.223 -42.375,58.814 -75.48,58.814c-53.437,-0 -80.155,-37.513 -80.155,-112.539l0,-366.704l80.3,-0l-0,305.027c-0,25.05 1.442,42.91 4.305,53.643c5.15,18.581 15.471,27.892 30.9,27.892c16.687,0 27.831,-10.094 33.393,-30.261c3.049,-11.598 4.635,-30.942 4.635,-58.093l0,-298.208l83.637,-0Z"
            style="fill-rule:nonzero;" />
    </g>
</svg>