<svg width="100%" height="100%" viewBox="0 0 512 512" version="1.1" xmlns="http://www.w3.org/2000/svg">
    <g id="logo">
        <path id="background"
            d="M430.698,431.608l72.69,-72.69l-0,-205.771l-145.379,-145.38l-205.872,0l-145.379,145.38l0,205.771l145.579,145.58l205.772,0l72.589,-72.89Z"
            style="fill:#fdbe36;fill-rule:nonzero;stroke:#000;stroke-width:15px;" />
        <g id="mqtt">
            <path
                d="M367.407,449.606c0.7,-0.4 1.2,-1 1.3,-1.9c0.1,-0.4 0.1,-8.599 0.1,-22.097l0,-21.397l6.799,0c4.199,0 6.999,0 7.199,-0.1c0.6,-0.2 1.2,-0.6 1.5,-1.1l0.3,-0.5l0,-6.299c0,-6.899 0,-7.099 -0.6,-7.799c-0.2,-0.2 -0.5,-0.4 -0.8,-0.6l-0.5,-0.2l-23.997,0c-19.697,0 -23.996,0 -24.396,0.2c-0.6,0.2 -1.1,0.6 -1.4,1.2c-0.3,0.5 -0.3,0.5 -0.3,6.999l0,6.499l0.3,0.6c0.2,0.4 0.5,0.7 0.8,0.9l0.6,0.3l13.998,0l0,43.594l0.3,0.6c0.4,0.8 0.9,1.2 1.9,1.4l16.197,0l0.7,-0.3Z"
                style="fill-rule:nonzero;" />
            <path
                d="M310.515,449.706c0.3,-0.1 0.7,-0.4 0.8,-0.6c0.7,-0.8 0.7,0.5 0.7,-23.197l0,-21.697l6.799,0c4.199,0 6.999,0 7.199,-0.1c0.6,-0.2 1.2,-0.6 1.5,-1.1l0.3,-0.5l0,-12.998l-0.3,-0.6c-0.2,-0.5 -0.4,-0.6 -1,-0.9l-0.7,-0.3l-23.997,0c-26.096,0 -24.396,0 -25.196,0.6c-0.8,0.7 -0.8,0.7 -0.8,7.799c0,6.999 0,6.799 0.7,7.599c0.7,0.7 0.8,0.7 8.299,0.7l6.799,0l0,21.197c0,12.998 0,21.497 0.1,21.997c0.2,1.4 0.8,2.1 2,2.4c0.199,0 3.899,0.1 8.298,0.1c7.799,-0.2 7.999,-0.2 8.499,-0.4"
                style="fill-rule:nonzero;" />
            <path
                d="M242.925,386.314l-2.4,0c-5.599,0.1 -8.599,0.4 -12.098,1.3c-6.899,1.7 -10.899,4.9 -12.499,9.699c-0.5,1.4 -0.799,3.1 -0.899,4.699c-0.2,1.9 -0.2,31.196 0,32.696c0.499,5.199 2.699,9.298 6.099,11.498c2.199,1.5 5.699,2.7 9.698,3.4l1.1,0.2l0,5.799l0.3,0.7c0.4,0.8 1,1.2 2,1.3c0.4,0.099 3.899,0.099 7.899,0.099c6.599,0 7.199,0 7.699,-0.199c0.6,-0.2 1.299,-0.9 1.499,-1.5c0.1,-0.3 0.2,-1.6 0.2,-3.3c0,-1.6 0.1,-2.899 0.1,-2.899l1.4,-0.2c8.199,-1.4 13.098,-5 14.798,-10.699c0.7,-2.5 0.7,-1.3 0.7,-19.797c0,-11.498 0,-17.098 -0.1,-17.798c-0.4,-2.999 -1.1,-5.099 -2.2,-6.899c-2.099,-3.299 -5.699,-5.499 -11.098,-6.799c-3.5,-0.9 -6.899,-1.3 -12.198,-1.3m-0.6,16.998c1.3,0 2.599,0.1 3.099,0.2c2.2,0.4 3.4,1.5 3.7,3.3c0.1,0.8 0.1,23.696 0,24.696c-0.1,0.9 -0.5,1.6 -1.1,2.2c-0.5,0.6 -1.1,0.8 -2.2,1.1c-0.6,0.1 -1.5,0.2 -3.599,0.2c-3,0 -4.2,-0.1 -5.4,-0.5c-0.899,-0.3 -1.799,-1.2 -2.099,-2.1c-0.2,-0.6 -0.2,-0.7 -0.2,-13.198c0,-12.398 0,-12.598 0.2,-13.198c0.5,-1.3 1.5,-2 3.199,-2.4c0.8,-0.3 2.7,-0.3 4.4,-0.3"
                style="fill-rule:nonzero;" />
            <path
                d="M159.936,449.706c0.6,-0.3 0.9,-0.6 1.2,-1.2l0.2,-0.5l0.2,-31.596l2.7,5c3.799,7.099 3.799,7.099 7.999,7.199c3.399,0.1 4.599,-0.1 5.699,-1c0.7,-0.6 1,-1 3.799,-6.299l2.5,-4.7l0.1,15.798c0.1,14.898 0.1,15.798 0.3,16.198c0.3,0.6 0.7,1 1.3,1.3c0.5,0.2 1.099,0.2 8.298,0.2l7.799,0l0.6,-0.3c0.4,-0.2 0.7,-0.5 0.9,-0.8l0.3,-0.6l0,-58.992l-0.3,-0.5c-0.2,-0.4 -0.5,-0.6 -1,-0.9l-0.7,-0.3l-16.197,0l-0.6,0.3c-0.7,0.3 -1.7,1.2 -2.2,2.1c-0.2,0.3 -2.1,3.799 -4.299,7.799c-2.2,3.999 -4.1,7.399 -4.3,7.599c-0.3,0.4 -0.4,0.4 -1.2,0.4c-0.899,0 -1.099,-0.1 -1.499,-0.7c-0.1,-0.2 -2,-3.6 -4.2,-7.499c-2.199,-3.9 -4.199,-7.499 -4.499,-7.899c-0.6,-0.9 -1.1,-1.3 -1.9,-1.7l-0.5,-0.3l-16.198,0l-0.699,0.3c-0.5,0.2 -0.7,0.4 -1,0.9l-0.3,0.5l0,29.496c0,28.396 0,29.496 0.2,29.896c0.4,0.7 0.9,1 1.699,1.3c0.2,0 3.7,0.1 7.699,0.1c7.099,-0.4 7.699,-0.4 8.099,-0.6"
                style="fill-rule:nonzero;" />
        </g>
        <path id="two"
            d="M296.517,343.52c-1.3,0 -4.899,0.1 -7.899,0.2c-5.899,0.1 -5.999,0 -6.899,-0.499c-0.4,-0.2 -0.8,-0.8 -1,-1.5c-0.1,-0.4 -1.499,-80.189 -1.399,-81.289c0.1,-0.9 0.399,-1.6 0.899,-2c0.9,-0.6 0.9,-0.7 8.999,-0.799c4.1,-0.1 7.699,-0.1 8.099,-0.1c1.5,0.199 2.3,0.899 2.5,2.499c0.1,0.8 1.499,79.489 1.399,80.689c-0.1,1.3 -0.599,2.1 -1.599,2.5c-0.5,0.199 -0.8,0.199 -3.1,0.299Zm-57.992,1c-8.799,0.2 -9.298,0.2 -10.198,0c-1.4,-0.2 -2.1,-0.7 -2.5,-1.999c-0.2,-0.4 -0.3,-7.199 -0.9,-39.495c-0.3,-21.397 -0.6,-39.694 -0.6,-40.694c0.1,-1.6 0.1,-1.8 0.4,-2.3c0.2,-0.3 0.5,-0.7 0.7,-0.8c0.8,-0.5 1.1,-0.6 9.299,-0.7c7.199,-0.1 7.799,-0.1 8.399,0.1c0.5,0.2 0.899,0.4 1.199,0.7c0.9,0.9 0.7,-2.799 1.5,40.695c0.4,21.397 0.7,39.694 0.7,40.694c0,1.6 0,1.8 -0.3,2.3c-0.3,0.599 -1,1.099 -1.8,1.299c-0.2,0 -2.899,0.1 -5.899,0.2Z" />
        <g id="bee">
            <path
                d="M269.121,161.646c6.299,-0.4 10.399,-1 15.398,-2.2c1.3,-0.3 2.1,-0.6 2.1,-0.7c0,-0.2 -1.1,-3.499 -1.8,-5.299c-1,-2.7 -3.1,-7.499 -3.3,-7.799c-0.1,-0.1 -0.4,-0.1 -0.8,-0c-5.499,1.1 -10.498,1.7 -16.097,2c-2.8,0.1 -9.799,0.1 -12.499,-0c-4.199,-0.2 -9.298,-0.8 -12.498,-1.3c-0.5,-0.1 -1,-0.1 -1.1,-0.1c-0.5,0.5 -4.799,11.598 -4.599,11.798c0.2,0.2 4.899,1.3 7.499,1.8c4.999,0.9 11.298,1.6 15.998,1.8c3.199,0.2 9.298,0.1 11.698,-0Z"
                style="fill:#fff;fill-rule:nonzero;" />
            <path
                d="M271.021,206.34c6.599,-0.5 11.898,-1.4 16.397,-2.8l1.4,-0.4l0.4,-1.2c0.7,-2.399 1.3,-5.199 1.7,-7.499c0.2,-1.499 0.5,-4.599 0.5,-5.399l0,-0.5l-1.3,0.4c-16.698,4.799 -40.694,4.499 -58.692,-0.9l-1.5,-0.5l0.1,1.4c0.2,3.5 0.7,7.099 1.6,10.499c0.7,2.799 0.4,2.499 2.5,3.099c7.499,2.3 16.398,3.7 25.896,4c2,0.1 8.699,0 10.999,-0.2"
                style="fill:#fff;fill-rule:nonzero;" />
            <path
                d="M171.835,172.944c6.299,-0.4 11.898,-1.099 16.997,-2.199c7.599,-1.7 12.498,-3.6 15.598,-5.999c4.399,-3.4 14.198,-11.899 20.397,-17.698c2.7,-2.5 8.599,-8.399 10.299,-10.399c0.8,-0.899 1.599,-1.799 1.799,-1.999l0.4,-0.4l2,3.799l0.7,0.1c1,0.2 4.499,0.7 6.399,0.9c8.599,0.9 17.998,0.9 26.196,-0.2c3.6,-0.5 8.699,-1.4 8.799,-1.6c1,-2.299 1.3,-2.899 1.3,-2.899c0,-0 0.5,0.5 1.1,1.2c6.599,7.299 15.898,15.897 28.296,26.196c3.999,3.399 4.699,3.799 6.899,4.799c8.499,3.8 23.197,6.199 35.995,5.899c17.697,-0.4 30.696,-5.199 37.595,-13.798c1.599,-1.999 2.999,-4.599 3.899,-6.899c0.7,-1.899 0.8,-2.399 0.8,-4.499c0,-1.7 0,-2 -0.3,-2.9c-0.6,-1.999 -1.6,-3.699 -3.199,-5.599c-6.2,-7.299 -19.698,-13.698 -42.795,-20.397c-9.098,-2.6 -21.996,-5.799 -39.794,-9.899c-14.698,-3.399 -25.996,-6.099 -26.396,-6.499l-1,-1.999c-1.4,-2.8 -2.7,-4.9 -3.4,-5.6l-0.6,-0.5l0.4,-1.199c1.6,-4.5 1.8,-9.499 0.6,-14.198c-1.599,-6.3 -5.699,-11.699 -11.198,-14.598l-0.9,-0.5l3,-10.299c1.599,-5.699 2.999,-10.298 2.999,-10.298c0,0 3.9,-0.2 8.699,-0.3c5.799,-0.2 8.699,-0.4 8.899,-0.4c0.2,-0.1 0.4,-0.3 0.5,-0.6l0.2,-0.4l-0.2,-0.4c-0.2,-0.3 -0.3,-0.5 -0.6,-0.6c-0.3,-0.1 -2.5,-0.1 -9.199,0.2c-4.899,0.2 -8.999,0.4 -9.199,0.4c-0.2,0 -0.5,0.2 -0.6,0.3c-0.1,0.1 -2.499,4.899 -5.199,10.498l-4.999,10.199l-0.8,-0.1c-0.5,0 -1.3,-0.1 -1.8,-0.1c-0.5,0 -1.3,0 -1.8,0.1l-0.799,0.1l-5,-10.299c-2.799,-5.599 -5.099,-10.398 -5.299,-10.498c-0.3,-0.3 0.5,-0.3 -10.199,-0.7c-9.098,-0.3 -8.998,-0.3 -9.398,0.2c-0.3,0.4 -0.2,0.8 0.1,1.3c0.4,0.4 -0.7,0.4 9.898,0.8l7.999,0.3l2.9,9.998c1.6,5.499 2.899,10.099 2.899,10.299c0.1,0.4 0.1,0.4 -0.7,0.8c-4.899,2.499 -8.898,7.299 -10.798,12.898c-0.9,2.699 -1.2,4.699 -1.2,7.799c0,2.899 0.4,5.299 1.3,7.999l0.4,1.199l-0.6,0.6c-0.9,0.8 -2.6,3.8 -3.799,6.699l-0.5,1.2l-1.4,0.4c-5.899,1.6 -11.799,3.1 -23.997,5.899c-20.697,4.7 -31.495,7.399 -40.894,10.099c-23.597,6.699 -37.595,13.298 -43.994,20.697c-1.6,1.9 -2.6,3.6 -3.199,5.599c-0.4,1.4 -0.5,3.6 -0.2,5.1c0.699,3.699 3.299,8.198 6.599,11.498c6.799,6.799 18.097,10.698 32.795,11.498c1.8,0 8.599,0 10.299,-0.1"
                style="fill-rule:nonzero;" />
            <path
                d="M269.821,183.343c7.599,-0.5 13.598,-1.5 19.397,-3.4c1.4,-0.5 1.8,-0.6 1.8,-0.8c0,-0.399 -0.4,-3.699 -0.6,-5.299c-0.3,-2.399 -1.4,-7.899 -1.5,-8.099c0,-0 -0.6,0.1 -1.3,0.3c-11.698,3.1 -28.396,3.7 -42.894,1.5c-3.899,-0.6 -8.598,-1.5 -11.398,-2.3c-0.7,-0.2 -1.2,-0.3 -1.3,-0.3c-0.2,0.3 -1.3,5.9 -1.6,8.399c-0.2,1.4 -0.6,4.6 -0.6,4.9c0,0.3 6.8,2.199 10.599,2.999c4.699,1 12.098,1.9 16.798,2c2.999,0.3 10.298,0.3 12.598,0.1"
                style="fill-rule:nonzero;" />
            <path
                d="M262.822,230.036c2.999,-0.6 5.599,-1.899 9.998,-5.199c3.1,-2.4 6.4,-5.599 8.699,-8.499c0.7,-0.9 2.3,-3.299 2.3,-3.399c0,0 -0.4,0 -0.8,0.1c-1.8,0.4 -5.799,1 -8.899,1.3c-7.199,0.699 -15.798,0.699 -23.296,0c-4.8,-0.5 -9.999,-1.3 -13.999,-2.3c-0.699,-0.2 -1.299,-0.3 -1.299,-0.2c0,0 0.2,0.5 0.6,1.1c2.699,4.399 6.199,8.199 10.398,11.398c1.8,1.4 5.099,3.6 6.299,4.2c1.3,0.599 3.1,1.299 4.3,1.499c1.299,0.3 4.299,0.3 5.699,0"
                style="fill-rule:nonzero;" />
        </g>
    </g>
</svg>
