<svg xmlns:svg="http://www.w3.org/2000/svg" width="82.5mm" height="55mm" viewBox="0 0 248.69 165.793">
  <g id="wezhi">
    <g id="_174718976">
      <polygon points="248.69,82.2182 248.69,0 0,0 0,81.9499 0,82.2338 248.69,82.2338 " id="_174730736"
        style="fill:#0098db" />
      <polygon points="248.69,165.793 248.69,82.2338 0,82.2338 0,165.793 " id="_174725264" style="fill:#dedddd" />
    </g>
    <rect width="248.69" height="15.0721" x="-0.000146793" y="75.360802" id="rect13" style="fill:#00a85a" />
    <g id="_174722696">
      <path
        d="m 58.9209,83.9822 c 0.7105,-0.495572 1.70466,-0.806359 2.79829,-0.870566 l 0.0087,-6.03e-4 14.5247,0 c 1.82674,0 3.48799,-0.747577 4.69225,-1.95184 1.20426,-1.20426 1.95184,-2.86551 1.95184,-4.69225 l 0,-54.0893 -51.0243,0 0,54.0893 c 0,1.82674 0.747577,3.48799 1.95184,4.69225 1.20426,1.20426 2.86551,1.95184 4.69256,1.95184 l 14.5386,0 0.009,6.03e-4 c 1.09333,0.06421 2.08779,0.374995 2.79799,0.870566 0.690906,0.482007 1.11684,1.13795 1.11684,1.91567 l 0,0.228192 0.825048,0 0,-0.228192 c 0,-0.777722 0.425938,-1.43366 1.11654,-1.91567 z"
        id="_174726296" style="fill:#ffffff;fill-rule:nonzero" />
      <path
        d="m 32.6296,75.3239 0,1.14307 c 0,3.23599 2.65119,5.88687 5.88717,5.88687 l 14.5657,0 0.02683,0.0015 c 1.56841,0.09224 3.49221,0.721955 4.28229,2.19058 0.790081,-1.46863 2.71389,-2.09834 4.28229,-2.19058 l 0.02713,-0.0015 14.5515,0 c 3.23599,0 5.88687,-2.65089 5.88687,-5.88687 l 0,-1.14307 -49.5098,0 z"
        id="_174702584" style="fill:#00a85a" />
      <path
        d="m 82.1395,23.1348 c -16.5034,0 -33.0065,0 -49.5098,0 l 0,52.1918 0,0.04311 49.5098,0 0,-0.0048 0,-52.23 z"
        id="_174723680" style="fill:#0098db" />
      <path
        d="m 47.7774,71.1857 -6.45599,0 0,-21.5435 3.93714,0.0057 c 0,-0.847054 -0.163683,-2.05403 -0.494366,-2.97886 -1.28987,-3.87293 -4.94426,-6.6667 -9.25037,-6.6667 0,-3.80722 0,-0.144994 0,-2.93605 l 0.03798,0 12.2256,0 c 0,11.3731 0,22.7463 0,34.1194 z m 19.2142,0 6.45599,0 0,-21.5435 -3.93714,0.0057 c 0,-0.847054 0.163985,-2.05403 0.494366,-2.97886 1.29017,-3.87293 4.94456,-6.6667 9.25037,-6.6667 0,-3.80722 0,-0.144994 0,-2.93605 l -0.03798,0 -12.2256,0 c 0,11.3731 0,22.7463 0,34.1194 z m -4.95511,-37.5139 3.3852,0 0,3.20494 -3.3852,0 0,-3.20494 z m 17.2109,10.2876 -0.02231,3.01e-4 c -0.404536,0.0015 -0.798823,0.04461 -1.17985,0.125099 l -0.890461,-3.55913 c 0.675533,-0.153434 1.3785,-0.234522 2.10045,-0.234522 l 0,3.66825 -0.0078,0 z m -1.4409,0.181167 c -0.268887,0.06903 -0.530539,0.15675 -0.783148,0.261954 l -0.549228,-1.21089 1.01164,-0.333697 0.320735,1.28264 z m -2.2976,-3.07773 c 0.452164,-0.195033 0.922113,-0.356607 1.40744,-0.479897 l 0.508835,2.03323 -1.05535,0.345152 -0.86092,-1.89849 z m 1.29017,3.43886 c -0.80877,0.378009 -1.51565,0.937185 -2.0688,1.62568 l -3.04367,-2.05011 c 0.935376,-1.24556 2.17039,-2.25268 3.59862,-2.91405 l 1.51384,3.33848 z m -6.02222,1.05143 c 0.221862,-0.447039 0.478088,-0.874183 0.765061,-1.27781 l 1.72516,1.16176 -0.55375,0.962807 -1.93647,-0.846752 z m 3.8039,0.76898 c -0.163683,0.221862 -0.311692,0.456083 -0.442518,0.700552 l -1.19311,-0.521496 0.528429,-0.924826 1.1072,0.745769 z m -0.55375,0.919701 c -0.298127,0.619163 -0.489543,1.29952 -0.550133,2.01695 l -0.0033,0.04492 -3.6562,0 c -0.0024,-0.455178 0.08923,-1.01164 0.187799,-1.53917 0.148611,-0.694825 0.373186,-1.36131 0.665284,-1.99043 l 3.35656,1.46772 z m -5.95409,24.2987 6.65073,0 0,2.74403 -6.65073,0 0,-2.74403 z m -0.324352,0 -4.5554,0 0,2.7576 4.5554,0 0,-2.7576 z m -1.11383,-39.256 0,14.3845 c -1.28867,-3.86962 -4.93763,-6.66158 -9.23861,-6.6667 -4.30098,0.0051 -7.97316,2.79709 -9.26182,6.6667 l 0,-14.3845 c 6.16691,0 12.3338,0 18.5004,0 z m -7.55777,4.59218 0,-3.20494 c -1.1283,0 -2.2566,0 -3.3849,0 l 0,3.20494 c 1.1283,0 2.2566,0 3.3849,0 z m 8.63452,-5.41511 c -6.88465,0 -13.7693,0 -20.6536,0 l 0.632125,0.486528 c 6.46323,0 12.9262,0 19.3891,0 l 0.632426,-0.486528 z m 0.49316,-3.91122 -2.78292,0 0,2.28102 -3.3852,0 0,-2.28102 -2.95956,0 0,2.28102 c -1.1283,0 -2.2566,0 -3.3849,0 l 0,-2.28102 -2.95956,0 0,2.28102 -3.3852,0 0,-2.28102 -2.78292,0 0,3.58053 c 7.21352,0 14.427,0 21.6403,0 l 0,-3.58053 z m -1.56991,-1.61694 c -6.16661,0 -12.3335,0 -18.5004,0 l 0,1.29922 1.54851,0 0,2.28132 2.71419,0 0,-2.28132 3.63057,0 0,2.28132 c 0.904629,0 1.80926,0 2.71419,0 l 0,-2.28132 3.63027,0 0,2.28132 2.71419,0 0,-2.28132 1.54851,0 0,-1.29922 z m 0,23.7088 0,21.5435 -3.44278,0 0,-21.5435 3.44278,0 z m -9.23861,-5.68279 c 0.404837,0.0048 0.801837,0.0416 1.19854,0.1254 l 0.890461,-3.55913 c -0.6686,-0.151626 -1.38031,-0.265872 -2.09412,-0.26738 -0.71261,0 -1.41196,0.109725 -2.10678,0.26738 l 0.890461,3.55913 c 0.403029,-0.08531 0.809675,-0.120276 1.22145,-0.1254 z m 1.43728,0.181167 c 0.268887,0.06903 0.530539,0.15675 0.783148,0.261954 l 0.548927,-1.21089 -1.01134,-0.333697 -0.320735,1.28264 z m 2.2976,-3.07773 c -0.452164,-0.195033 -0.922113,-0.356607 -1.40744,-0.479897 l -0.508835,2.03323 1.05535,0.345152 0.86092,-1.89849 z m -1.29017,3.43886 c 0.80877,0.378009 1.51565,0.937185 2.0685,1.62568 l 3.04397,-2.05011 c -0.935376,-1.24556 -2.17069,-2.25268 -3.59862,-2.91405 l -1.51384,3.33848 z m 6.02222,1.05143 c -0.221862,-0.447039 -0.478088,-0.874183 -0.765061,-1.27781 l -1.72516,1.16176 0.55375,0.962807 1.93647,-0.846752 z m -3.8039,0.76898 c 0.163382,0.221862 0.31139,0.456083 0.442518,0.700552 l 1.19311,-0.521496 -0.528429,-0.924826 -1.1072,0.745769 z m 0.55375,0.919701 c 0.298127,0.619163 0.489543,1.29952 0.549831,2.01695 l 0.0036,0.04491 3.4684,0 0,-1.53917 c -0.148611,-0.694825 -0.373186,-1.36131 -0.665284,-1.99043 l -3.35656,1.46772 z m 16.6423,-13.3349 -1.18768,0 0,1.44632 -2.70695,0 0,-1.44632 -2.76875,0 0,1.44632 -2.75157,0 0,-1.44632 -2.80372,0 -0.04492,0 0,2.00731 0.04371,0 12.2199,0 0,-2.00731 z m -12.2636,2.33799 12.2199,0 0.04371,0 0,0.486528 -0.04311,0 -12.2205,0 0,-0.486528 z m -14.2591,-2.57311 -3.3852,0 0,3.20494 3.3852,0 0,-3.20494 z m -17.2109,10.2876 0.02231,3.01e-4 c 0.404536,0.0015 0.799124,0.04461 1.17985,0.125099 l 0.890461,-3.55913 c -0.675533,-0.153434 -1.3785,-0.234522 -2.10045,-0.234522 l 0,3.66825 0.0078,0 z m 1.4409,0.181167 c 0.269188,0.06903 0.530539,0.15675 0.783148,0.261954 l 0.549228,-1.21089 -1.01134,-0.333697 -0.321036,1.28264 z m 2.2976,-3.07773 c -0.451862,-0.195033 -0.922113,-0.356607 -1.40744,-0.479897 l -0.508835,2.03323 1.05565,0.345152 0.860618,-1.89849 z m -1.29017,3.43886 c 0.80877,0.378009 1.51565,0.937185 2.0688,1.62568 l 3.04367,-2.05011 c -0.935376,-1.24556 -2.17039,-2.25268 -3.59832,-2.91405 l -1.51415,3.33848 z m 6.02222,1.05143 c -0.221862,-0.447039 -0.477786,-0.874183 -0.765061,-1.27781 l -1.72485,1.16176 0.553449,0.962807 1.93647,-0.846752 z m -3.8036,0.76898 c 0.163382,0.221862 0.31139,0.456083 0.442216,0.700552 l 1.19311,-0.521496 -0.528429,-0.924826 -1.1069,0.745769 z m 0.553449,0.919701 c 0.298127,0.619163 0.489844,1.29952 0.550133,2.01695 l 0.0036,0.04491 3.6559,0 c 0.0024,-0.455178 -0.08892,-1.01164 -0.187497,-1.53917 -0.148611,-0.694825 -0.373487,-1.36131 -0.665585,-1.99043 l -3.35656,1.46772 z m 5.95409,24.2987 -6.65073,0 0,2.74403 6.65073,0 0,-2.74403 z m 0.324352,0 4.5554,0 0,2.7576 -4.5554,0 0,-2.7576 z m 1.11383,-21.8983 0,21.5435 3.44278,0 0,-21.5435 -3.44278,0 z m 7.80163,-5.50163 c -0.269188,0.06903 -0.53084,0.15675 -0.783449,0.261954 l -0.548927,-1.21089 1.01134,-0.333697 0.321036,1.28264 z m -2.2979,-3.07773 c 0.452164,-0.195033 0.922414,-0.356607 1.40774,-0.479897 l 0.508534,2.03323 -1.05535,0.345152 -0.86092,-1.89849 z m 1.29048,3.43886 c -0.80877,0.378009 -1.51565,0.937185 -2.0688,1.62568 l -3.04367,-2.05011 c 0.935075,-1.24556 2.17039,-2.25268 3.59832,-2.91405 l 1.51415,3.33848 z m -6.02252,1.05143 c 0.222163,-0.447039 0.478088,-0.874183 0.765363,-1.27781 l 1.72485,1.16176 -0.55375,0.962807 -1.93647,-0.846752 z m 3.8039,0.76898 c -0.163382,0.221862 -0.31139,0.456083 -0.442518,0.700552 l -1.19281,-0.521496 0.528429,-0.924826 1.1069,0.745769 z M 52.1564,47.241835 c -0.298428,0.619163 -0.489844,1.29952 -0.550133,2.01695 l -0.0036,0.04491 -3.4684,0 0,-1.53917 c 0.148611,-0.694825 0.373487,-1.36131 0.665585,-1.99043 l 3.35656,1.46772 z m -16.6426,-13.3349 1.18768,0 0,1.44632 2.70695,0 0,-1.44632 2.76875,0 0,1.44632 2.75187,0 0,-1.44632 2.80372,0 0.04461,0 0,2.00731 -0.04371,0 -12.2199,0 0,-2.00731 z m 12.2636,2.33799 -12.2199,0 -0.04371,0 0,0.486528 0.04341,0 12.2202,0 0,-0.486528 z"
        id="_174726944" style="fill:#dedddd" />
    </g>
  </g>
</svg>
