<svg width="100%" height="100%" viewBox="0 0 128 128" xmlns="http://www.w3.org/2000/svg">
    <g id="logo">
        <path
            d="M63.9985842,0 C43.994593,0 19.8647785,4.58951634 1.96263782e-05,14.6913667 C1.96263782e-05,36.5086333 -0.27418281,90.8620487 63.9985842,128 C128.272772,90.8620487 127.99999,36.5086333 127.99999,14.6913667 C108.133811,4.58951634 84.0039962,0 63.9985842,0 L63.9985842,0 Z"
            fill="#68BC71" />
        <path
            d="M64,7.65088259e-09 L64,127.999182 C-0.27418281,90.8620487 1.96263784e-05,36.5086333 1.96263784e-05,14.6913667 C19.8647785,4.58951634 43.994593,0 63.9985842,0 Z"
            fill="#67B279" />
    </g>
    <path id="checkmark"
        d="M63.4353861,82.2857143 L100.571429,33.0806166 C97.8501749,30.9363118 95.4632466,32.4497178 94.1492698,33.6213869 L94.1013239,33.6251423 L63.1373441,65.2915043 L51.4709406,51.4893417 C45.9053288,45.1678361 38.3389477,49.9897053 36.5714286,51.2640207 L63.4353861,82.2857143"
        fill="#FFFFFF" />
</svg>
