<svg width="1000" height="301" viewBox="0 0 1000 301" xmlns="http://www.w3.org/2000/svg">
    <g fill="#ff9900" fill-rule="evenodd" stroke="none" id="arrow">
        <path
            d="M 620.380432 235.314178 C 562.268738 278.147095 478.039398 301 405.519531 301 C 303.8349 301 212.292709 263.390625 143.037476 200.838943 C 137.596313 195.92009 142.471573 189.216583 149.001007 193.04715 C 223.740906 236.53299 316.153748 262.694153 411.613647 262.694153 C 475.99353 262.694153 546.815796 249.374146 611.93573 221.733032 C 621.773376 217.554169 630.000427 228.175369 620.380432 235.314178" />
        <path
            d="M 644.539246 207.67305 C 637.139221 198.18364 595.43811 203.189514 576.72052 205.409515 C 571.018127 206.106003 570.147583 201.143631 575.283997 197.574203 C 608.496887 174.198944 662.995667 180.945999 669.350952 188.781281 C 675.706238 196.66011 667.696838 251.289474 636.486267 277.363525 C 631.698059 281.368225 627.127502 279.235321 629.260437 273.924713 C 636.268677 256.425903 651.982788 217.205978 644.539246 207.67305" />
    </g>
    <g fill="currentColor" fill-rule="evenodd" id="text">
        <path
            d="M 578.026367 32.554413 L 578.026367 9.832092 C 578.026367 6.39328 580.638123 4.086212 583.772278 4.086212 L 685.500366 4.086212 C 688.765076 4.086212 691.376831 6.436798 691.376831 9.832092 L 691.376831 29.289703 C 691.333313 32.554413 688.590942 36.820282 683.715637 43.567322 L 631.001587 118.829605 C 650.589844 118.350815 671.266296 121.267242 689.026245 131.279007 C 693.030945 133.542526 694.119202 136.850754 694.423889 140.115479 L 694.423889 164.361343 C 694.423889 167.669571 690.767395 171.54364 686.936829 169.541321 C 655.639221 153.130737 614.068665 151.346039 579.46283 169.715439 C 575.936951 171.630753 572.237 167.800171 572.237 164.491913 L 572.237 141.46489 C 572.237 137.764908 572.280457 131.45311 575.980469 125.83783 L 637.052185 38.256775 L 583.902832 38.256775 C 580.638123 38.256775 578.026367 35.949738 578.026367 32.554413" />
        <path
            d="M 206.938568 174.329529 L 175.989212 174.329529 C 173.029221 174.111923 170.678635 171.891922 170.460968 169.062469 L 170.460968 10.223877 C 170.460968 7.046234 173.116272 4.521515 176.4245 4.521515 L 205.284454 4.521515 C 208.28801 4.652008 210.682098 6.959167 210.899765 9.832092 L 210.899765 30.595612 L 211.465652 30.595612 C 218.996216 10.528564 233.14325 1.169739 252.209122 1.169739 C 271.579651 1.169739 283.680817 10.528564 292.386688 30.595612 C 299.873749 10.528564 316.893707 1.169739 335.132538 1.169739 C 348.104279 1.169739 362.294861 6.523865 370.957214 18.537964 C 380.751312 31.901459 378.748962 51.315567 378.748962 68.335571 L 378.705444 168.583679 C 378.705444 171.761322 376.05014 174.329529 372.741943 174.329529 L 341.83606 174.329529 C 338.745514 174.111923 336.264343 171.630753 336.264343 168.583679 L 336.264343 84.397888 C 336.264343 77.694382 336.873688 60.979095 335.393738 54.623795 C 333.08667 43.959137 326.165527 40.955566 317.198425 40.955566 C 309.711395 40.955566 301.876129 45.961456 298.698456 53.970871 C 295.520813 61.980286 295.825531 75.387299 295.825531 84.397888 L 295.825531 168.583679 C 295.825531 171.761322 293.170227 174.329529 289.862 174.329529 L 258.956177 174.329529 C 255.822083 174.111923 253.38443 171.630753 253.38443 168.583679 L 253.340927 84.397888 C 253.340927 66.681458 256.257355 40.607361 234.27507 40.607361 C 212.03154 40.607361 212.90213 66.028488 212.90213 84.397888 L 212.90213 168.583679 C 212.90213 171.761322 210.246826 174.329529 206.938599 174.329529" />
        <path
            d="M 778.957886 1.169739 C 824.881409 1.169739 849.736633 40.607361 849.736633 90.753189 C 849.736633 139.20134 822.269592 177.637772 778.957886 177.637772 C 733.86145 177.637772 709.310913 138.200165 709.310913 89.055527 C 709.310913 39.606171 734.166199 1.169739 778.957886 1.169739 M 779.219055 33.599152 C 756.409668 33.599152 754.973206 64.679077 754.973206 84.049667 C 754.973206 103.46376 754.668518 144.903702 778.957886 144.903702 C 802.942566 144.903702 804.074341 111.473175 804.074341 91.101395 C 804.074341 77.694382 803.508484 61.675568 799.460205 48.964981 C 795.977844 37.908539 789.056702 33.599152 779.219055 33.599152" />
        <path
            d="M 909.28479 174.329529 L 878.466003 174.329529 C 875.375427 174.111923 872.894226 171.630753 872.894226 168.583679 L 872.850769 9.701508 C 873.111938 6.785034 875.680176 4.521515 878.81427 4.521515 L 907.500122 4.521515 C 910.198914 4.652008 912.418945 6.480347 913.028381 8.961517 L 913.028381 33.250885 L 913.594238 33.250885 C 922.256592 11.529755 934.401245 1.169739 955.77417 1.169739 C 969.660034 1.169739 983.197693 6.175629 991.903564 19.88736 C 1000 32.597931 1000 53.970871 1000 69.336716 L 1000 169.323685 C 999.651794 172.109543 997.083557 174.329529 994.036499 174.329529 L 963.000061 174.329529 C 960.170654 174.111923 957.820068 172.022507 957.515381 169.323685 L 957.515381 83.048492 C 957.515381 65.680267 959.5177 40.259094 938.144775 40.259094 C 930.614197 40.259094 923.693054 45.308533 920.254211 52.969681 C 915.901306 62.676758 915.335388 72.340271 915.335388 83.048492 L 915.335388 168.583679 C 915.291931 171.761322 912.593079 174.329529 909.284851 174.329529" />
        <path
            d="M 496.931152 98.45787 C 496.931152 110.515503 497.23587 120.57077 491.141754 131.279007 C 486.222931 139.984909 478.387665 145.339005 469.725342 145.339005 C 457.841797 145.339005 450.877106 136.284882 450.877106 122.921356 C 450.877106 96.542587 474.51355 91.754364 496.931152 91.754364 L 496.931152 98.45787 M 528.141724 173.894241 C 526.095886 175.722473 523.135803 175.853058 520.828796 174.634262 C 510.555847 166.102509 508.684082 162.141342 503.068817 154.001358 C 486.092346 171.326019 474.034698 176.506012 452.052368 176.506012 C 425.978302 176.506012 405.737152 160.443665 405.737152 128.275513 C 405.737152 103.159042 419.318329 86.052017 438.732422 77.694382 C 455.53476 70.294357 478.99704 68.98851 496.931152 66.942627 L 496.931152 62.937927 C 496.931152 55.581436 497.49704 46.875565 493.144104 40.520325 C 489.400604 34.817932 482.174683 32.467346 475.775879 32.467346 C 463.979431 32.467346 453.488861 38.517944 450.920624 51.054398 C 450.398285 53.840286 448.352417 56.582642 445.52298 56.713226 L 415.53125 53.492035 C 413.006531 52.926178 410.177155 50.880264 410.917145 47.00618 C 417.7948 10.615631 450.703003 -0.35379 480.128815 -0.35379 C 495.190002 -0.35379 514.865234 3.65094 526.748779 15.055603 C 541.809937 29.115601 540.373474 47.87674 540.373474 68.292038 L 540.373474 116.522552 C 540.373474 131.017853 546.380493 137.373108 552.039307 145.20842 C 553.998169 147.994278 554.433472 151.346039 551.90863 153.43544 C 545.596863 158.70253 534.366272 168.496628 528.18512 173.981323 L 528.141602 173.894119" />
        <path
            d="M 91.194031 98.45787 C 91.194031 110.515503 91.498703 120.57077 85.404625 131.279007 C 80.485779 139.984909 72.694031 145.339005 63.988155 145.339005 C 52.104637 145.339005 45.183483 136.284882 45.183483 122.921356 C 45.183483 96.542587 68.819916 91.754364 91.194031 91.754364 L 91.194031 98.45787 M 122.404564 173.894241 C 120.358696 175.722473 117.398666 175.853058 115.091614 174.634262 C 104.818718 166.102509 102.990456 162.141342 97.331642 154.001358 C 80.355186 171.326019 68.341118 176.506012 46.315231 176.506012 C 20.284664 176.506012 1.4e-05 160.443665 1.4e-05 128.275513 C 1.4e-05 103.159042 13.624701 86.052017 32.995255 77.694382 C 49.797585 70.294357 73.259911 68.98851 91.194031 66.942627 L 91.194031 62.937927 C 91.194031 55.581436 91.759911 46.875565 87.4505 40.520325 C 83.663422 34.817932 76.437576 32.467346 70.082268 32.467346 C 58.285839 32.467346 47.751709 38.517944 45.183483 51.054398 C 44.661118 53.840286 42.615242 56.582642 39.829376 56.713226 L 9.794121 53.492035 C 7.269413 52.926178 4.48353 50.880264 5.180001 47.00618 C 12.101172 10.615631 44.965828 -0.35379 74.391693 -0.35379 C 89.452827 -0.35379 109.128098 3.65094 121.011612 15.055603 C 136.072784 29.115601 134.636292 47.87674 134.636292 68.292038 L 134.636292 116.522552 C 134.636292 131.017853 140.643372 137.373108 146.3022 145.20842 C 148.304535 147.994278 148.739822 151.346039 146.215088 153.43544 C 139.903351 158.70253 128.672791 168.496628 122.491585 173.981323 L 122.404587 173.894119" />
    </g>
</svg>
