<svg width="100%" height="100%" viewBox="0 0 450 450" xmlns="http://www.w3.org/2000/svg">
	<defs>
		<linearGradient id="_Linear_18746" x1="0" y1="0" x2="1" y2="0" gradientUnits="userSpaceOnUse"
			gradientTransform="matrix(2.75546e-14,450,-450,2.75546e-14,225,0)">
			<stop offset="0" style="stop-color:#ffa80b;stop-opacity:1" />
			<stop offset="1" style="stop-color:#f27218;stop-opacity:1" />
		</linearGradient>
	</defs>
	<g id="logo">
		<path
			d="M450,140.554l0,-29.165c0,-9.948 -0.829,-19.972 -2.487,-29.92c-1.658,-9.948 -4.974,-19.143 -9.119,-28.262c-4.145,-9.119 -9.948,-16.656 -17.484,-24.117c-7.461,-6.632 -15.826,-12.51 -24.117,-17.485c-9.119,-4.974 -18.314,-7.461 -28.262,-9.119c-9.948,-1.657 -19.971,-2.486 -29.919,-2.486l-227.223,-0c-9.948,-0 -19.972,0.829 -29.92,2.487c-9.948,1.658 -19.143,4.974 -28.262,9.119c-9.119,4.145 -16.656,9.948 -24.117,17.485c-6.632,6.632 -12.51,14.997 -17.485,24.117c-4.975,9.12 -7.461,18.314 -9.119,28.262c-1.657,9.947 -2.486,19.97 -2.486,29.918l-0,227.222c-0,9.948 0.829,19.972 2.487,29.92c1.658,9.948 4.974,19.143 9.119,28.262c4.145,9.119 9.948,16.656 17.485,24.117c6.632,6.632 14.997,13.339 24.117,17.484c9.119,4.974 18.314,7.461 28.262,9.119c9.948,1.658 19.97,2.488 29.918,2.488l227.147,-0c9.948,-0 19.972,-0.829 29.92,-2.487c9.948,-1.658 19.143,-4.974 28.262,-9.119c9.119,-4.145 16.656,-9.948 24.117,-17.484c6.632,-6.632 12.51,-14.997 17.484,-24.117c4.974,-9.119 7.461,-18.314 9.119,-28.262c1.658,-9.948 2.487,-19.972 2.487,-29.92l0,-198.057l0.076,0Z"
			style="fill:url(#_Linear_18746)" />
		<path
			d="M207.855,126.386c7.461,11.681 11.681,14.997 11.681,47.404l-0,182.231c-0,7.461 -0,-18.314 -25.775,-37.456c-26.604,-20.801 -72.425,-22.459 -109.806,4.974c-6.632,4.974 -11.681,4.145 -11.681,-3.316l-0,-177.257c-0,-7.461 0.829,-15.826 11.681,-24.117c37.306,-25.774 94.734,-26.603 123.9,7.537Zm169.72,17.484c-0,-7.461 -0.829,-15.826 -11.681,-24.117c-37.456,-27.433 -94.884,-27.433 -123.974,6.632c-7.461,11.681 -11.681,14.997 -11.681,47.404l-0,182.231c-0,7.461 -0,-18.314 25.775,-37.456c26.604,-20.801 72.425,-22.459 109.806,4.974c6.632,4.974 11.681,4.145 11.681,-3.316c0.074,-39.867 0.074,-135.58 0.074,-176.352Z"
			style="fill:#fff" />
	</g>

</svg>
