<svg width="100%" height="100%" viewBox="0 0 1100 1100" version="1.1" xmlns="http://www.w3.org/2000/svg" xmlns:xlink="http://www.w3.org/1999/xlink" xml:space="preserve" style="fill-rule:evenodd;clip-rule:evenodd;stroke-linejoin:round;stroke-miterlimit:2;"><g><path d="M695.579,184.597c18.506,-22.393 33.973,-49.186 43.976,-78.123c10.015,-28.955 14.535,-60.049 11.135,-91.073c-26.66,1.075 -56.128,9.969 -83.708,24.178c-27.568,14.218 -53.264,33.758 -72.385,56.136c-17.138,19.821 -33.225,45.599 -44.007,74.022c-10.781,28.414 -16.259,59.488 -12.21,89.89c29.729,2.308 59.775,-5.251 87.016,-18.978c27.243,-13.733 51.673,-33.644 70.183,-56.052Z"/><path d="M900.01,745.451c35.18,33.47 70.36,46.979 71.14,47.319c-0.59,1.891 -6.15,20.9 -17.96,48.77c-11.8,27.88 -29.83,64.62 -55.38,101.95c-22.08,32.27 -44.58,64.5 -70.58,88.8c-26.02,24.32 -55.52,40.73 -91.634,41.4c-35.476,0.65 -58.913,-9.86 -83.622,-20.55c-24.716,-10.68 -50.703,-21.52 -91.26,-21.52c-40.548,-0 -67.156,10.18 -92.028,20.7c-24.874,10.51 -47.998,21.35 -81.589,22.68c-34.841,1.32 -65.535,-16.14 -93.082,-41.96c-27.559,-25.82 -51.961,-60.01 -74.218,-92.16c-45.502,-65.79 -85.641,-158.719 -102.729,-255.487c-17.086,-96.758 -11.131,-197.342 35.566,-278.41c23.192,-40.264 55.508,-73.131 93.276,-96.107c37.77,-22.975 80.994,-36.059 125.981,-36.71c34.228,-0.649 67.49,10.865 97.422,22.537c29.938,11.677 56.546,23.519 77.467,23.519c20.906,-0 50.986,-14.242 86.163,-27.436c35.167,-13.188 75.419,-25.336 116.687,-21.15c17.28,0.716 50.16,4.211 86.51,18.909c36.34,14.706 76.16,40.624 107.3,86.2c-2.51,1.555 -31.44,18.448 -59.59,51.704c-78.5,92.761 -72.3,232.832 16.16,317.002Z"/></g></svg>
