<svg width="100%" height="100%" viewBox="0 0 600 600" xmlns="http://www.w3.org/2000/svg">
   <g id="center">
      <path id="blue"
         d="M477.778,300c-0,98.248 -79.53,177.778 -177.778,177.778l-0,-177.778l177.778,-0Zm-177.778,-177.778l-0,177.778l-177.778,-0c0,-98.248 79.53,-177.778 177.778,-177.778Z"
         style="fill:#0166b1;fill-rule:nonzero;" />
      <path id="white"
         d="M300,122.222c98.248,0 177.778,79.53 177.778,177.778l-177.778,0l0,-177.778Zm-177.778,177.778l177.778,0l0,177.778c-98.248,-0 -177.778,-79.53 -177.778,-177.778Z"
         style="fill:#fff;fill-rule:nonzero;" />
   </g>
   <g id="grey">
      <path id="path14"
         d="M300,122.222l0,9.748c92.643,-0 168.031,75.369 168.031,168.03l9.747,-0c-0,-98.178 -79.6,-177.778 -177.778,-177.778m0,345.808c-92.643,0 -168.03,-75.369 -168.03,-168.03l-9.748,-0c0,98.178 79.6,177.778 177.778,177.778m0,-477.778c-165.681,0 -300,134.319 -300,300c0,165.681 134.319,300 300,300c165.681,-0 300,-134.319 300,-300c-0,-165.681 -134.319,-300 -300,-300Zm280.492,300c-0,154.904 -125.571,280.492 -280.492,280.492c-154.921,-0 -280.492,-125.588 -280.492,-280.492c0,-154.904 125.588,-280.492 280.492,-280.492c154.904,0 280.492,125.588 280.492,280.492Z"
         style="fill:#6f6f6f;fill-rule:nonzero;" />
      <path id="B_x5F_22d_61_"
         d="M171.797,155.274c9.586,-10.028 15.014,-21.614 5.427,-32.674c-5.216,-6.003 -13.974,-7.316 -21.235,-4.358l-0.722,0.28l0.229,-0.63c1.075,-2.853 1.762,-11.953 -6.045,-18.236c-3.806,-3.063 -8.582,-4.201 -13.41,-3.711c-9.005,0.911 -15.931,7.018 -34.787,27.897c-5.692,6.3 -13.975,16.241 -18.944,22.681l51.792,48.793c17.164,-18.866 24.161,-25.884 37.695,-40.042Zm-67.583,-11.936c10.433,-12.671 21.517,-24.169 26.54,-28.719c1.586,-1.435 3.313,-2.87 5.41,-3.43c3.401,-0.928 6.908,1.47 7.701,4.935c0.793,3.483 -1.41,6.791 -3.859,9.521c-5.516,6.178 -25.747,27.196 -25.747,27.196l-10.045,-9.503Zm20.284,19.111c-0,0 19.702,-20.686 26.134,-27.301c2.555,-2.625 4.194,-4.218 5.956,-5.076c2.274,-1.102 4.758,-1.33 6.979,0.14c2.185,1.453 3.19,3.956 2.643,6.441c-0.652,2.957 -3.084,5.775 -5.093,7.928c-2.713,2.887 -26.081,27.721 -26.116,27.756l-10.503,-9.888Zm181.423,-65.366l16.583,-36.892l1.057,-3.273l-0.299,3.413l1.744,49.3c5.816,0.543 11.825,1.348 17.746,2.328l-2.696,-73.014c-8.283,-0.91 -16.53,-1.558 -24.777,-1.908l-16.336,40.27l-0.582,2.993l-0.581,-2.993l-16.319,-40.27c-8.247,0.35 -16.494,0.998 -24.777,1.908l-2.696,73.014c5.921,-0.98 11.93,-1.768 17.746,-2.328l1.744,-49.3l-0.299,-3.413l1.057,3.273l16.583,36.892l15.102,0l0,0Zm137.72,76.322c4.07,4.34 9.939,11.341 13.234,15.593l60.692,-38.257c-3.031,-3.938 -7.86,-9.923 -11.472,-14.141l-38.435,25.237l-2.626,2.24l1.956,-2.835l16.971,-33.637l-12.001,-11.918l-33.888,16.853l-2.855,1.943l2.273,-2.608l25.43,-38.152c-4.476,-3.78 -8.776,-7.246 -14.257,-11.446l-38.523,60.221c4.882,3.728 11.314,9.206 15.42,12.933l36.267,-18.691l2.326,-1.697l-1.709,2.31l-18.803,36.052Z"
         style="fill:#6f6f6f;fill-rule:nonzero;" />
   </g>
</svg>
