<svg width="100%" height="100%" viewBox="0 0 512 512" xmlns="http://www.w3.org/2000/svg">
   <path id="path34-4"
      d="M255.993,255.994l110.851,63.997l-110.851,191.994c141.381,-0 255.992,-114.611 255.992,-255.991c-0,-46.641 -12.536,-90.331 -34.331,-127.997l-221.663,0l0.002,127.997Z"
      style="fill:url(#_Linear1);fill-rule:nonzero;" />
   <path id="path36-1"
      d="M255.991,0c-94.751,0 -177.414,51.513 -221.679,128.027l110.828,191.964l110.851,-63.997l-0,-127.997l221.663,0c-44.272,-76.495 -126.925,-127.997 -221.663,-127.997Z"
      style="fill:url(#_Linear2);fill-rule:nonzero;" />
   <path id="path38-7"
      d="M0.002,255.994c-0,141.38 114.607,255.991 255.991,255.991l110.851,-191.994l-110.851,-63.997l-110.85,63.997l-110.828,-191.964c-21.784,37.655 -34.315,81.329 -34.315,127.964"
      style="fill:url(#_Linear3);fill-rule:nonzero;" />
   <path id="path40"
      d="M383.991,255.994c-0,70.69 -57.307,127.997 -127.998,127.997c-70.69,0 -127.998,-57.307 -127.998,-127.997c0,-70.69 57.308,-127.997 127.998,-127.997c70.691,0 127.998,57.307 127.998,127.997"
      style="fill:#fff;fill-rule:nonzero;" />
   <path id="path42-5"
      d="M359.992,255.994c-0,57.436 -46.563,103.998 -103.999,103.998c-57.436,0 -103.998,-46.562 -103.998,-103.998c-0,-57.435 46.562,-103.998 103.998,-103.998c57.436,0 103.999,46.563 103.999,103.998"
      style="fill:url(#_Linear4);fill-rule:nonzero;" />
   <defs>
      <linearGradient id="_Linear1" x1="0" y1="0" x2="1" y2="0" gradientUnits="userSpaceOnUse"
         gradientTransform="matrix(-0.546731,384.516,-384.516,-0.546731,384.534,127.469)">
         <stop offset="0" style="stop-color:#afccfb;stop-opacity:1" />
         <stop offset="1" style="stop-color:#8bb5f8;stop-opacity:1" />
      </linearGradient>
      <linearGradient id="_Linear2" x1="0" y1="0" x2="1" y2="0" gradientUnits="userSpaceOnUse"
         gradientTransform="matrix(21.1592,344.01,-344.01,21.1592,218.865,3.90022)">
         <stop offset="0" style="stop-color:#1972e7;stop-opacity:1" />
         <stop offset="1" style="stop-color:#1969d5;stop-opacity:1" />
      </linearGradient>
      <linearGradient id="_Linear3" x1="0" y1="0" x2="1" y2="0" gradientUnits="userSpaceOnUse"
         gradientTransform="matrix(-1.40824e-05,383.957,-383.957,-1.40824e-05,183.422,128.027)">
         <stop offset="0" style="stop-color:#659cf6;stop-opacity:1" />
         <stop offset="1" style="stop-color:#4285f4;stop-opacity:1" />
      </linearGradient>
      <linearGradient id="_Linear4" x1="0" y1="0" x2="1" y2="0" gradientUnits="userSpaceOnUse"
         gradientTransform="matrix(1.0606,207.6,-207.6,1.0606,254.933,152.392)">
         <stop offset="0" style="stop-color:#3680f0;stop-opacity:1" />
         <stop offset="1" style="stop-color:#2678ec;stop-opacity:1" />
      </linearGradient>
   </defs>
</svg>
