<svg viewBox="0 0 109.08 61.87" xmlns="http://www.w3.org/2000/svg" width="500" height="500">
    <path
        d="m2.51 52-.36-.18a1.43 1.43 0 0 1 -.47-1.14v-6.58h2.14v5.5.34a.51.51 0 0 0 .13.28.43.43 0 0 0 .27.13 1.41 1.41 0 0 0 .28 0h2.5a4.57 4.57 0 0 0 1.49-.23 2 2 0 0 0 1-.84 3.72 3.72 0 0 0 .39-1 10.59 10.59 0 0 0 .12-2.19c0-.24 0-.49 0-.74a4.76 4.76 0 0 0 -.11-.77 2.72 2.72 0 0 0 -.24-.73 2 2 0 0 0 -.43-.62 1.76 1.76 0 0 0 -.53-.42 2.07 2.07 0 0 0 -.69-.25 2.79 2.79 0 0 0 -.65-.14h-.61-5.06c-1.46-.13-1.82-1.42-1.68-1.73h7.72a4.68 4.68 0 0 1 2 .38 4.33 4.33 0 0 1 1.34 1 4.13 4.13 0 0 1 .64 1 5.56 5.56 0 0 1 .3 1.02 7 7 0 0 1 .15 1.11v1.06s0 .66 0 1a9.72 9.72 0 0 1 -.15 1.21 7.19 7.19 0 0 1 -.31 1.19 3.79 3.79 0 0 1 -.53 1 3.9 3.9 0 0 1 -.45.48 3.51 3.51 0 0 1 -.65.46 4.14 4.14 0 0 1 -.91.34 4.55 4.55 0 0 1 -1.15.15h-4.59a2.21 2.21 0 0 1 -.9-.09zm13.8-10.12a2.49 2.49 0 0 1 .71-1 2 2 0 0 1 1.16-.28 2 2 0 0 1 1.14.28 2.5 2.5 0 0 1 .72 1l4.27 10.25h-2.24l-1.17-2.92h-5.46l-1.15 2.88h-2.29zm-.31 5.8h4.37l-1.86-4.68a1.94 1.94 0 0 0 -.14-.3c-.06-.11-.12-.17-.19-.17s-.15.06-.19.17a1.94 1.94 0 0 0 -.14.3zm10.5 4.41 3.55-9.09a3.11 3.11 0 0 1 .12-.3c0-.11.13-.17.19-.17s.15.06.21.17.09.21.12.3l3.56 9.06h2.26l-4.28-10.22a2.59 2.59 0 0 0 -.71-1 2.05 2.05 0 0 0 -1.16-.28 1.93 1.93 0 0 0 -1.15.28 2.59 2.59 0 0 0 -.71 1l-4.28 10.25zm32.2-11.4h-2.14v4.67h-5.9v-4.67h-2.13v11.4h2.13v-5h5.9v5h2.14zm8.54-.12a8.15 8.15 0 0 1 1.2.13 5.24 5.24 0 0 1 1.19.36 3.7 3.7 0 0 1 1 .69 3.47 3.47 0 0 1 .7 1 7.92 7.92 0 0 1 .4 1.19 8.68 8.68 0 0 1 .16 1.26v1.19s0 .77 0 1.19a7.26 7.26 0 0 1 -.17 1.24 6.3 6.3 0 0 1 -.35 1.18 3.25 3.25 0 0 1 -.7 1 3.53 3.53 0 0 1 -1 .7 5.84 5.84 0 0 1 -1.19.37 7.18 7.18 0 0 1 -1.2.12h-2.23a7.18 7.18 0 0 1 -1.2-.12 5.31 5.31 0 0 1 -1.17-.37 3.54 3.54 0 0 1 -1.81-1.77 7 7 0 0 1 -.39-1.23c-.07-.42-.12-.84-.15-1.24s0-.76 0-1.08 0-.8 0-1.22a6.28 6.28 0 0 1 .16-1.23 5.27 5.27 0 0 1 .39-1.18 3.21 3.21 0 0 1 .73-1 3.48 3.48 0 0 1 1-.69 4.8 4.8 0 0 1 1.17-.36 8 8 0 0 1 1.22-.13h1.11s.74-.02 1.13 0zm-4.67 7a6 6 0 0 0 .15.9 6.48 6.48 0 0 0 .23.64 2.88 2.88 0 0 0 .26.43 2.05 2.05 0 0 0 .57.5 2.23 2.23 0 0 0 .7.28 3.43 3.43 0 0 0 .8.14h1.72a3.45 3.45 0 0 0 .78-.14 2.34 2.34 0 0 0 .72-.28 2.42 2.42 0 0 0 .58-.5 3 3 0 0 0 .26-.45 4.52 4.52 0 0 0 .23-.64c0-.23.1-.55.15-.89a10.43 10.43 0 0 0 .06-1.2 11.63 11.63 0 0 0 -.06-1.27q-.08-.52-.15-.9a3.5 3.5 0 0 0 -.24-.62 1.93 1.93 0 0 0 -.25-.41 2.16 2.16 0 0 0 -1.28-.77 8.71 8.71 0 0 0 -1.65-.16 8.58 8.58 0 0 0 -1.66.16 2.23 2.23 0 0 0 -1.27.77 3.14 3.14 0 0 0 -.5 1.15 7.94 7.94 0 0 0 -.19 2c-.01.54.02.96.04 1.29zm29.31-7a8.15 8.15 0 0 1 1.2.13 5 5 0 0 1 1.19.36 3.7 3.7 0 0 1 1 .69 3.47 3.47 0 0 1 .7 1 5.56 5.56 0 0 1 .4 1.19 7.49 7.49 0 0 1 .17 1.26v1.19s0 .77 0 1.19a6.38 6.38 0 0 1 -.16 1.24 5.7 5.7 0 0 1 -.38 1.18 3.25 3.25 0 0 1 -.7 1 3.53 3.53 0 0 1 -1 .7 5.48 5.48 0 0 1 -1.19.37 7 7 0 0 1 -1.2.12h-2.21a7.07 7.07 0 0 1 -1.2-.12 5.57 5.57 0 0 1 -1.18-.37 3.45 3.45 0 0 1 -1-.7 3.29 3.29 0 0 1 -.75-1.07 5.13 5.13 0 0 1 -.38-1.23 6.76 6.76 0 0 1 -.19-1.23q0-.6 0-1.08c0-.39 0-.8 0-1.22a8.27 8.27 0 0 1 .16-1.23 6.53 6.53 0 0 1 .39-1.18 3.38 3.38 0 0 1 .73-1 3.6 3.6 0 0 1 1-.69 5 5 0 0 1 1.18-.36 7.89 7.89 0 0 1 1.18-.13h1.12s.73-.03 1.12-.01zm-4.66 7a5.9 5.9 0 0 0 .16.9 4.81 4.81 0 0 0 .21.64 4 4 0 0 0 .27.43 1.81 1.81 0 0 0 .57.5 2.18 2.18 0 0 0 .69.28 3.43 3.43 0 0 0 .8.14h1.71a3.54 3.54 0 0 0 .79-.14 2.39 2.39 0 0 0 .71-.28 2.24 2.24 0 0 0 .58-.5 2.32 2.32 0 0 0 .27-.45 3.61 3.61 0 0 0 .22-.64c.06-.23.1-.55.15-.89a10.43 10.43 0 0 0 .06-1.2 11.63 11.63 0 0 0 -.06-1.27c0-.35-.09-.65-.15-.9a3.5 3.5 0 0 0 -.2-.59 2.45 2.45 0 0 0 -.25-.41 2.16 2.16 0 0 0 -1.28-.77 8.71 8.71 0 0 0 -1.65-.16 8.58 8.58 0 0 0 -1.66.16 2.17 2.17 0 0 0 -1.26.77 3.32 3.32 0 0 0 -.51 1.15 8.41 8.41 0 0 0 -.19 2c-.04.51-.01.93.02 1.26zm12.7 4.61a2.7 2.7 0 0 0 1-.18 1.78 1.78 0 0 0 .84-.77l4.79-7.59a.05.05 0 0 1 0 0l.1-.2a.19.19 0 0 1 .34.15v8.51h2.08v-10a1.4 1.4 0 0 0 -.46-1.12 1.89 1.89 0 0 0 -1.28-.42 2 2 0 0 0 -1.15.27 1.64 1.64 0 0 0 -.64.64l-4.82 7.63a1.62 1.62 0 0 0 -.1.18.16.16 0 0 1 -.15.1c-.09 0-.15 0-.16-.12a.3.3 0 0 1 0-.16v-8.4h-2.09v9.92a1.41 1.41 0 0 0 .51 1.23 1.86 1.86 0 0 0 1.19.36zm-62.92-11.48v9.67a4.62 4.62 0 0 0 0 .63 1.16 1.16 0 0 0 .34.63 1.43 1.43 0 0 0 .66.37 2.69 2.69 0 0 0 .66.08h5.89a4.24 4.24 0 0 0 .58-.08 3.07 3.07 0 0 0 .6-.21 1.71 1.71 0 0 0 .56-.4 2 2 0 0 0 .45-.64 2.8 2.8 0 0 0 .26-.75 3.6 3.6 0 0 0 .11-.81 6.7 6.7 0 0 0 0-.76c0-.22 0-.49 0-.77a5.25 5.25 0 0 0 -.14-.87 2.6 2.6 0 0 0 -.28-.81 2 2 0 0 0 -.53-.67 2.31 2.31 0 0 0 -.78-.4 2.8 2.8 0 0 0 -1-.15h-5.3v-4zm6.18 5.73a6.15 6.15 0 0 1 .74.06 1.05 1.05 0 0 1 .66.37 2.09 2.09 0 0 1 .21.34 2.33 2.33 0 0 1 .1.44 2.52 2.52 0 0 1 .06.41v.37a4.84 4.84 0 0 1 -.06.83 1.25 1.25 0 0 1 -.34.73 1.06 1.06 0 0 1 -.67.34 5.74 5.74 0 0 1 -.65 0h-3.71a.56.56 0 0 1 -.26-.14.35.35 0 0 1 -.12-.25 1.43 1.43 0 0 1 0-.29v-3.21zm62.89-7.31v-1.7h-5v1.7zm-30.87 13h5.9a4 4 0 0 0 .58-.08 3.07 3.07 0 0 0 .6-.21 1.71 1.71 0 0 0 .56-.4 2.14 2.14 0 0 0 .46-.64 3.66 3.66 0 0 0 .25-.77 4.28 4.28 0 0 0 .12-.81c0-.27 0-.52 0-.76a7.14 7.14 0 0 0 0-.77 6.5 6.5 0 0 0 -.12-.87 4.35 4.35 0 0 0 -.3-.81 2 2 0 0 0 -.53-.67 2.13 2.13 0 0 0 -.78-.4 2.7 2.7 0 0 0 -1-.15h-5.3v-1.78a2.45 2.45 0 0 1 0-.25.52.52 0 0 1 .14-.25.26.26 0 0 1 .22-.12 1.06 1.06 0 0 1 .25 0h5.26c1.47-.1 1.81-1.35 1.65-1.7h-8.09a2.79 2.79 0 0 0 -.61.07 1.25 1.25 0 0 0 -.6.4 2 2 0 0 0 -.25.53 2.3 2.3 0 0 0 -.09.64v2.68 5.36a4.62 4.62 0 0 0 0 .65 1.1 1.1 0 0 0 .34.63 1.44 1.44 0 0 0 .64.35 2.42 2.42 0 0 0 .68.09zm4.57-1.71h-3.71a.45.45 0 0 1 -.25-.14.43.43 0 0 1 -.14-.25 2.81 2.81 0 0 1 0-.29v-3.3h4.06a6.33 6.33 0 0 1 .73.06 1.06 1.06 0 0 1 .65.37 1.57 1.57 0 0 1 .21.34c0 .15.08.29.11.44a1.36 1.36 0 0 1 0 .41v.37a4.84 4.84 0 0 1 -.06.83 1.25 1.25 0 0 1 -.34.73 1.06 1.06 0 0 1 -.66.34 6.25 6.25 0 0 1 -.62.05zm-43.1 10.59h-1.35a3.68 3.68 0 0 1 -.88-.1 1 1 0 0 1 -.59-.45.57.57 0 0 1 -.09-.16 2.12 2.12 0 0 1 -.09-.27 1.72 1.72 0 0 1 -.07-.38 4.36 4.36 0 0 1 0-.54 4.24 4.24 0 0 1 .09-1 1.79 1.79 0 0 1 .22-.53 1 1 0 0 1 .29-.28 1.06 1.06 0 0 1 .34-.15 1 1 0 0 1 .4-.08h1.74c.72-.05.9-.67.81-.85h-2.6-.38a2.14 2.14 0 0 0 -.48.07 2.31 2.31 0 0 0 -.52.23 1.79 1.79 0 0 0 -.51.49 1.83 1.83 0 0 0 -.28.46 2.41 2.41 0 0 0 -.16.54 3.81 3.81 0 0 0 -.08.59v.6s0 .31 0 .5a5 5 0 0 0 .07.54 5.52 5.52 0 0 0 .18.53 1.69 1.69 0 0 0 .31.49 1.58 1.58 0 0 0 .42.36 3 3 0 0 0 .46.19 2.77 2.77 0 0 0 .47.09 3.24 3.24 0 0 0 .43 0h2.65c.11-.2-.07-.81-.8-.89zm9.09.85v-.85h-3.22a.37.37 0 0 1 -.14 0 .28.28 0 0 1 -.08-.22v-1.35h3.32v-.85h-3.32v-1.13s0-.09 0-.13a.23.23 0 0 1 .07-.13.21.21 0 0 1 .15-.08h3.18v-.85h-3.6a1.47 1.47 0 0 0 -.34 0 .49.49 0 0 0 -.33.17q-.08.12-.15.27a1.76 1.76 0 0 0 0 .31v4 .35a.62.62 0 0 0 .18.31.5.5 0 0 0 .3.16 1.83 1.83 0 0 0 .34 0zm4.06 0v-4.75a1.55 1.55 0 0 1 0-.31.52.52 0 0 1 .16-.32.56.56 0 0 1 .31-.17 1.32 1.32 0 0 1 .33 0h2.67.25.29a1.11 1.11 0 0 1 .29.1.77.77 0 0 1 .29.19 1.73 1.73 0 0 1 .22.31 1.79 1.79 0 0 1 .13.39 1.83 1.83 0 0 1 .05.4v.39s0 .24 0 .37a1.76 1.76 0 0 1 -.06.41 1.9 1.9 0 0 1 -.15.42.94.94 0 0 1 -.27.33 1.14 1.14 0 0 1 -.38.21 1.78 1.78 0 0 1 -.47.06h-2.59v2zm3.07-2.85h.37a.53.53 0 0 0 .33-.17 1.51 1.51 0 0 0 .09-.18 1.29 1.29 0 0 0 .06-.21 2.11 2.11 0 0 1 0-.21v-.18c0-.11 0-.27 0-.41a.68.68 0 0 0 -.18-.36.5.5 0 0 0 -.33-.16h-.33-1.82a.19.19 0 0 0 -.12.07.17.17 0 0 0 -.07.12v1.69zm9.64-2.79h.24a.84.84 0 0 1 .27 0 .93.93 0 0 1 .26.1 1.08 1.08 0 0 1 .24.18.9.9 0 0 1 .2.28 2 2 0 0 1 .1.32 1.06 1.06 0 0 1 0 .31 1.52 1.52 0 0 1 0 .29 2.42 2.42 0 0 1 0 .47 1 1 0 0 1 -.22.46.88.88 0 0 1 -.24.2.9.9 0 0 1 -.28.08.88.88 0 0 1 .36.1.85.85 0 0 1 .25.2.7.7 0 0 1 .15.23 1.34 1.34 0 0 1 .09.26 2.06 2.06 0 0 1 0 .26v.26a4.4 4.4 0 0 1 -.05.59 1.09 1.09 0 0 1 -.28.58 1.13 1.13 0 0 1 -.24.21 1 1 0 0 1 -.27.1.66.66 0 0 1 -.25 0h-2.86a2.42 2.42 0 0 1 -.39 0 .57.57 0 0 1 -.37-.21 1.65 1.65 0 0 1 -.11-.19.75.75 0 0 1 -.08-.37v-4a1.06 1.06 0 0 1 0-.31.68.68 0 0 1 .13-.27.53.53 0 0 1 .3-.19 1.11 1.11 0 0 1 .3 0zm-2.48 2.36h2.38a.61.61 0 0 0 .26-.18 1.16 1.16 0 0 0 .08-.16 1.43 1.43 0 0 0 0-.42 1.78 1.78 0 0 0 0-.28.49.49 0 0 0 -.16-.31.43.43 0 0 0 -.24-.14h-2.13a.2.2 0 0 0 -.11.06.42.42 0 0 0 -.07.13v.12zm0 2a.62.62 0 0 0 0 .21.12.12 0 0 0 .05.11.21.21 0 0 0 .16.08h1.84.31a.44.44 0 0 0 .31-.17.83.83 0 0 0 .12-.27 1.62 1.62 0 0 0 0-.3 1.79 1.79 0 0 0 0-.3.59.59 0 0 0 -.1-.28 1.14 1.14 0 0 0 -.18-.15.94.94 0 0 0 -.39-.07h-2.12zm9.14 1.25v-5.57h-1.06v5.62zm8.33-.82h-1.37a3.87 3.87 0 0 1 -.88-.1 1 1 0 0 1 -.59-.45.7.7 0 0 0 -.09-.16 2.56 2.56 0 0 1 -.07-.27 2.49 2.49 0 0 1 -.08-.38c0-.15 0-.33 0-.54a4.24 4.24 0 0 1 .09-1 1.56 1.56 0 0 1 .22-.53.81.81 0 0 1 .27-.28 1.3 1.3 0 0 1 .34-.15 1.16 1.16 0 0 1 .42-.08h1.72a.78.78 0 0 0 .82-.85h-2.61-.37a1.95 1.95 0 0 0 -1 .3 1.64 1.64 0 0 0 -.46.38 1.83 1.83 0 0 0 -.28.46 2 2 0 0 0 -.17.54 3.81 3.81 0 0 0 -.07.59v.6s0 .31 0 .5 0 .36.08.54a5.34 5.34 0 0 0 .16.53 2.34 2.34 0 0 0 .33.49 1.71 1.71 0 0 0 .41.36 3.45 3.45 0 0 0 .46.19 3.08 3.08 0 0 0 .48.09 3.24 3.24 0 0 0 .43 0h2.65c.06-.09-.11-.7-.84-.78zm-34.73-28.44a15.88 15.88 0 0 0 1.75-.1l.46-.06 1.22-.21.75-.2.83-.23.87-.31.63-.26.95-.46.47-.25 1-.59.33-.23 1-.76.18-.14 1.05-1a13.3 13.3 0 0 0 1.52-1.76l.48-.65c2-3.56 2.73-6.19 2.73-9a16.26 16.26 0 0 0 -16.2-16.35h-18.19c.24 5.55 5.32 7.39 10.08 7.43h8.09a8.83 8.83 0 0 1 0 17.65h-10.72v-8.77h-7.43v8.81 7.42h10.08zm25.41 0 8.1-.06h10.06c-.24-5.5-5.36-7.37-10.08-7.41h-8.08a8.89 8.89 0 0 1 -7.9-4.9 18.92 18.92 0 0 1 -3.74 7.81 16.24 16.24 0 0 0 11.64 4.59zm-7.88-20.22a8.83 8.83 0 0 1 7.88-4.9h8.08c4.72-.04 9.84-1.88 10.08-7.44h-18.16a16.27 16.27 0 0 0 -11.61 4.75 18.7 18.7 0 0 1 3.73 7.59z"
        fill="currentColor" />
</svg>
