<svg width="500" height="500" viewBox="0 0 500 500" xmlns="http://www.w3.org/2000/svg">
    <g fill="#e22b28" stroke="none">
        <path
            d="M 381.346222 38.285858 C 359.903687 36.168884 303.296783 33.004089 249.909134 33.004089 C 196.517792 33.004089 139.916061 36.168884 118.483032 38.285858 C 94.010231 40.781525 82.629738 53.214264 82.629738 77.440002 C 82.629738 123.432587 84.323906 195.10022 87.464439 237.19635 C 90.271889 274.721741 92.462395 304.351349 139.186615 332.736786 C 172.613373 353.055054 205.856308 370.468079 249.141434 392.80188 L 249.88414 393.222473 L 250.650345 392.80188 C 294.033264 370.394562 327.337982 352.981506 360.630157 332.736786 C 407.379395 304.327087 409.581665 274.721741 412.350128 237.19635 C 415.51712 194.900208 417.223785 123.307587 417.223785 77.440002 C 417.223785 53.214264 405.818298 40.781525 381.346222 38.285858 Z M 397.859283 236.174255 C 395.187866 272.08493 393.418671 295.832703 353.10199 320.320221 C 321.462799 339.548035 293.550903 354.204346 251.356247 376.119019 L 249.909134 376.813141 L 248.474518 376.119019 C 207.613708 354.934509 178.464294 339.598022 146.730972 320.320221 C 106.398849 295.832703 104.60688 272.059937 101.960472 236.135284 C 98.830231 194.259735 97.150032 123.123718 97.150032 77.440002 C 97.150032 60.708618 102.889915 54.501068 119.930145 52.755432 C 141.124924 50.664154 197.125168 47.522919 249.909134 47.522919 C 302.715912 47.522919 358.679382 50.664154 379.898407 52.755432 C 396.938629 54.501068 402.668945 60.708618 402.668945 77.440002 C 402.668945 123.10022 400.985077 194.21048 397.859283 236.174255 Z" />
        <path
            d="M 247.669357 140.583832 L 242.634644 157.491699 C 224.404678 120.231018 202.642242 100.67746 176.298065 100.67746 C 147.828049 100.67746 133.892334 119.738373 129.774567 125.759125 C 137.09317 107.393097 156.399643 91.242645 182.110001 91.242645 C 217.344894 91.242645 237.258743 119.066254 247.669357 140.583832 Z" />
        <path
            d="M 115.63884 178.776184 C 115.860909 240.846466 133.918808 270.70105 160.876266 270.70105 C 173.367081 270.70105 182.31955 262.836853 182.31955 250.048981 C 182.31955 239.139069 177.583389 230.485138 175.656128 227.009277 C 176.385544 230.581482 177.054688 234.641144 177.054688 239.211853 C 177.054688 249.912186 169.829483 253.361557 163.918991 253.361557 C 145.988297 253.361557 128.05687 218.487701 122.983917 178.776184 C 120.722816 178.776184 115.57634 178.776184 115.63884 178.776184 Z" />
        <path
            d="M 317.745758 91.242645 C 343.464935 91.242645 362.733887 107.393097 370.092926 125.759125 C 365.973724 119.738373 352.035797 100.67746 323.529755 100.67746 C 297.239258 100.67746 275.470215 120.231018 257.228485 157.491699 L 252.194504 140.583832 C 262.585968 119.066254 282.531433 91.242645 317.745758 91.242645 Z" />
        <path
            d="M 376.881409 178.776184 C 371.826111 218.487701 353.879974 253.361557 335.919098 253.361557 C 330.023346 253.361557 322.826813 249.912186 322.826813 239.211853 C 322.826813 234.641144 323.465088 230.581482 324.186401 227.009277 C 322.279724 230.485138 317.542816 239.139069 317.542816 250.048981 C 317.542816 262.836853 326.487213 270.70105 338.988342 270.70105 C 365.924438 270.70105 384.017639 240.846466 384.212494 178.776184 C 384.292664 178.776184 379.159424 178.776184 376.881409 178.776184 Z" />
        <path
            d="M 340.264099 125.38855 C 317.234711 125.38855 294.725952 143.753784 281.260101 186.132294 L 289.966248 192.205292 L 285.796997 213.045624 L 269.509735 219.784821 L 266.554474 240.262634 L 274.495178 230.532196 L 283.00351 227.009277 L 280.354889 240.239105 L 265.677979 246.336349 L 260.531525 281.746979 L 264.11618 293.048798 L 249.93338 298.676178 L 235.737366 293.048798 L 239.333069 281.746979 L 234.174805 246.336349 L 219.4832 240.239105 L 216.863998 227.009277 L 225.359116 230.532196 L 233.324066 240.262634 L 230.330582 219.784821 L 214.066849 213.045624 L 209.874069 192.205292 L 218.59346 186.132294 C 205.139389 143.753784 182.643097 125.38855 159.589447 125.38855 C 131.109894 125.38855 119.30954 152.423157 120.844872 174.695923 L 127.709061 174.695923 C 133.409241 206.192474 149.425903 232.880066 161.472595 232.880066 C 165.156525 232.880066 167.083801 230.073364 167.083801 225.463654 C 167.083801 214.358185 159.505615 202.734253 159.505615 181.494659 C 159.505615 171.714966 162.696167 165.5802 170.040497 165.5802 C 175.049484 165.5802 179.145203 170.848755 181.579834 176.59964 C 177.12822 192.464844 177.795135 205.749054 190.460236 211.403656 C 196.718536 214.181671 204.261414 217.49942 204.261414 217.49942 C 204.261414 217.49942 212.301346 251.557083 212.882996 253.993195 C 213.411697 256.218994 214.795532 259.261719 215.813232 261.140472 C 217.282394 263.700134 227.834183 281.77124 227.834183 281.77124 C 227.834183 281.77124 231.421066 299.790222 232.185074 303.621918 C 234.252762 313.935486 241.611816 313.96048 249.93338 313.935486 C 258.231445 313.96048 265.589752 313.935486 267.667755 303.621918 C 268.432495 299.790222 272.033325 281.77124 272.033325 281.77124 C 272.033325 281.77124 282.55719 263.700134 284.064606 261.140472 C 285.066101 259.261719 286.440399 256.218994 286.94632 253.993195 C 287.527191 251.557083 295.579651 217.49942 295.579651 217.49942 C 295.579651 217.49942 303.135773 214.181671 309.40799 211.403656 C 322.059113 205.749054 322.739288 192.464844 318.272247 176.59964 C 320.710541 170.848755 324.819519 165.5802 329.823334 165.5802 C 337.172089 165.5802 340.347198 171.714966 340.347198 181.494659 C 340.347198 202.734253 332.767548 214.358185 332.767548 225.463654 C 332.767548 230.073364 334.697754 232.880066 338.380951 232.880066 C 350.401917 232.880066 366.443604 206.192474 372.16803 174.695923 L 379.008667 174.695923 C 380.544769 152.423157 368.756866 125.38855 340.264099 125.38855 Z M 195.41629 205.265991 C 186.452774 201.458496 185.538773 190.845673 188.529297 176.723907 L 198.347992 192.156006 L 201.998108 208.075623 C 201.998108 208.075623 198.450195 206.555695 195.41629 205.265991 Z M 304.446075 205.265991 C 301.395294 206.555695 297.841461 208.075623 297.841461 208.075623 L 301.48053 192.156006 L 311.30954 176.723907 C 314.305969 190.845673 313.400787 201.458496 304.446075 205.265991 Z" />
    </g>
    <g fill="#2b2a29" stroke="none" id="text">
        <path
            d="M 230.529861 439.623138 L 230.529861 456.664825 C 230.529861 456.664825 247.928909 456.664825 253.741608 456.664825 C 266.591248 456.664825 271.452423 451.521301 271.452423 444.423279 C 271.452423 439.759918 269.136169 432.230286 253.940125 432.230286 C 248.608353 432.230286 214.737473 432.230286 214.737473 432.230286 L 214.737473 422.642456 C 214.737473 422.642456 241.298569 422.642456 255.633575 422.642456 C 281.657135 422.642456 287.730133 433.650879 287.730133 444.423279 C 287.730133 457.344269 278.996033 466.287933 255.57106 466.287933 C 241.176498 466.287933 214.737473 466.287933 214.737473 466.287933 L 214.737473 439.623138 L 230.529861 439.623138 Z" />
        <path
            d="M 57.154694 439.623138 L 57.154694 456.664825 C 57.154694 456.664825 74.578018 456.664825 80.380409 456.664825 C 93.227852 456.664825 98.076538 451.521301 98.076538 444.423279 C 98.076538 439.759918 95.776466 432.230286 80.565712 432.230286 C 75.232452 432.230286 41.386562 432.230286 41.386562 432.230286 L 41.386562 422.642456 C 41.386562 422.642456 67.95208 422.642456 82.273109 422.642456 C 108.315819 422.642456 114.387329 433.650879 114.387329 444.423279 C 114.387329 457.344269 105.620148 466.287933 82.223839 466.287933 C 67.815315 466.287933 41.386562 466.287933 41.386562 466.287933 L 41.386562 439.623138 L 57.154694 439.623138 Z" />
        <path
            d="M 334.412445 439.574615 L 334.412445 449.232269 L 357.553589 449.232269 L 357.553589 456.664825 C 357.553589 456.664825 340.372925 456.664825 334.536713 456.664825 C 321.462799 456.664825 316.619293 451.521301 316.619293 444.423279 C 316.619293 436.506134 323.19519 432.254547 333.633759 432.254547 C 338.961884 432.254547 373.317322 432.254547 373.317322 432.254547 L 373.317322 422.642456 C 373.317322 422.642456 347.36142 422.642456 333.0271 422.642456 C 312.336761 422.642456 300.342285 429.186066 300.342285 444.423279 C 300.342285 459.35022 311.932343 466.287933 332.422699 466.287933 C 346.829742 466.287933 373.317322 466.287933 373.317322 466.287933 L 373.317322 439.574615 L 334.412445 439.574615 Z" />
        <path
            d="M 408.394165 432.177368 L 458.095642 432.177368 L 458.095642 422.642456 L 391.571564 422.642456 L 391.571564 466.287933 L 458.630249 466.287933 L 458.630249 456.664825 L 408.394165 456.664825 L 408.394165 449.208008 L 455.436737 449.208008 L 455.436737 439.598877 L 408.394165 439.598877 Z" />
        <path
            d="M 164.017532 466.982056 C 137.09317 466.982056 126.819328 458.151672 126.819328 444.423279 C 126.819328 430.807434 137.430695 421.913788 164.017532 421.913788 C 190.597015 421.913788 201.205429 430.807434 201.205429 444.423279 C 201.205429 458.151672 190.597015 466.982056 164.017532 466.982056 Z M 184.907867 444.423279 C 184.907867 436.966461 177.671616 431.497894 164.017532 431.497894 C 150.253876 431.497894 143.11615 436.966461 143.11615 444.423279 C 143.11615 451.545593 149.535461 457.369263 164.017532 457.369263 C 178.6996 457.369263 184.907867 451.545593 184.907867 444.423279 Z" />
    </g>
</svg>
