<svg xmlns="http://www.w3.org/2000/svg" xmlns:xlink="http://www.w3.org/1999/xlink" width="1020" height="320"
	viewBox="0 0 120 42">
	<defs>
		<path id="prefix__a" d="M.012.619h4.071v20.53H.012z"></path>
		<path id="prefix__c" d="M0 0h40.648v41.25H0z"></path>
	</defs>
	<g fill="none" fill-rule="evenodd">
		<path fill="#FFF"
			d="M113.7 26.255V10.664c0-.206-.088-.295-.298-.295h-3.479c-.204 0-.292.09-.292.295l.001 16.711c0 3.005 1.154 3.524 3.81 3.524.082 0 .148-.01.21-.072.06-.056.048-.212.048-.212v-4.36zm-63.925.119v-1.199l-.001-14.392c0-.204-.093-.296-.297-.296h-3.482c-.204 0-.295.092-.295.296v16.712c.001 3.005 1.156 3.524 3.81 3.524.088 0 .15-.007.214-.071.056-.058.05-.212.05-.212v-4.362zm10.657 4.536c-.206 0-.295-.087-.295-.295V19.643c0-.117-.06-.174-.174-.174h-.88c-.204 0-.29-.087-.29-.294v-2.429c0-.2.086-.292.29-.292h.88c.115 0 .173-.059.173-.173v-1.023c0-3.424 1.582-4.888 4.974-4.888h2.208c.205 0 .294.087.294.294v2.641c0 .208-.088.293-.294.293h-1.504c-1.292 0-1.607.322-1.607 1.524v1.16c0 .113.056.172.17.172h1.868c.204 0 .294.091.294.292v2.43c0 .206-.09.293-.294.293h-1.867c-.115 0-.171.057-.171.174v10.972c0 .208-.093.296-.295.296h-3.48zm-7.604 0c-.203 0-.293-.087-.293-.295l-.001-13.869c0-.2.09-.292.294-.292h3.511c.204 0 .293.091.293.292v13.87c0 .207-.089.295-.292.295h-3.512zm0-17.336c-.204 0-.294-.085-.294-.29v-2.62c0-.207.09-.294.293-.294h3.512c.204 0 .292.087.292.294v2.62c0 .205-.088.29-.292.29h-3.512zm29.756 13.359c-.294-.851-.402-1.994-.402-3.398 0-1.405.108-2.547.402-3.393.819-2.606 3.073-4.009 6.12-4.009 2.337 0 4.299 1.057 5.35 2.662.087.148.087.294-.058.412l-2.547 1.665c-.174.116-.321.09-.435-.057-.59-.818-1.347-1.23-2.255-1.23-1.144 0-1.871.5-2.194 1.522-.177.496-.263 1.32-.263 2.428 0 1.114.086 1.93.263 2.431.323 1.022 1.05 1.52 2.195 1.52.907 0 1.665-.408 2.254-1.227.114-.146.26-.177.435-.06l2.548 1.67c.144.113.144.26.057.41-1.05 1.604-3.013 2.661-5.35 2.661-3.046 0-5.3-1.405-6.12-4.007m20.966-4.888c.12 0 .171-.061.174-.175 0-.382-.055-.732-.146-1.055-.348-1.024-1.069-1.55-2.299-1.55-1.089 0-2.09.526-2.442 1.55a4.033 4.033 0 00-.143 1.055c0 .114.057.175.172.175h4.683zm-8.428 4.86c-.321-.999-.463-2.113-.463-3.37 0-1.314.109-2.457.433-3.393.82-2.545 3.073-4.01 6.085-4.01 3.072 0 5.297 1.495 6.121 3.983.317.992.376 2.454.376 4.36 0 .203-.116.289-.325.289h-8.408c-.116 0-.175.062-.175.175.032.294.015.557.1.79.379 1.26 1.373 1.874 2.93 1.875 1.133.002 2.038-.357 2.606-.752.52-.362.511-.49.803-.254l2.177 1.563c.198.142.176.263.028.407-1.49 1.582-3.48 2.372-6.026 2.372-3.19 0-5.442-1.465-6.262-4.036zm-18.559-4.86c.119 0 .175-.06.175-.175 0-.381-.056-.732-.147-1.055-.347-1.024-1.067-1.55-2.294-1.55-1.099 0-2.094.526-2.443 1.55a3.869 3.869 0 00-.147 1.055c0 .114.056.175.176.175h4.68zm-8.429 4.86c-.319-.999-.462-2.113-.462-3.37 0-1.314.11-2.457.435-3.393.818-2.545 3.072-4.01 6.086-4.01 3.069 0 5.296 1.495 6.115 3.983.32.992.379 2.454.379 4.36 0 .203-.116.289-.32.289h-8.412c-.115 0-.17.062-.17.175.023.294.011.557.1.79.376 1.26 1.369 1.874 2.925 1.875 1.138.002 2.04-.357 2.61-.752.517-.362.511-.49.8-.254l2.177 1.563c.195.142.176.263.033.407-1.497 1.582-3.483 2.372-6.028 2.372-3.194 0-5.449-1.465-6.268-4.036z">
		</path>
		<g transform="translate(115.5 9.75)">
			<mask id="prefix__b" fill="#fff">
				<use xlink:href="#prefix__a"></use>
			</mask>
			<path fill="#FFF"
				d="M4.083 16.505V.914c0-.206-.089-.295-.297-.295H.306C.1.619.011.709.011.914v16.711C.014 20.63 1.169 21.15 3.82 21.15c.083 0 .148-.01.213-.072.056-.056.05-.212.05-.212v-4.36z"
				mask="url(#prefix__b)"></path>
		</g>
		<mask id="prefix__d" fill="#fff">
			<use xlink:href="#prefix__c"></use>
		</mask>
		<path fill="#FFC40C"
			d="M37.462 9.646c-1.511-2.384-3.343-4.336-5.483-5.852C29.84 2.277 27.39 1.195 24.644.55c-4.509-1.057-8.892-.58-13.119 1.312a19.84 19.84 0 00-6.18 4.319C3.122 8.471 1.518 11.064.539 13.96l-.025.078c-.034.102-.065.206-.097.309-1.003 3.348-.065 5.198 1.41 3.648.057-.066.117-.132.176-.198.022-.027.044-.051.066-.079 1.725-2.169 4.47-3.977 4.47-3.977l.001.001c.7-.487 1.425-.942 2.18-1.365.863-.505 1.765-.969 2.606-1.282 0 0 .782-.357.99-1.445l.013-.06c.001-.011.004-.02.006-.032.14-.905 1.11-3.395 3.855-3.558a4.351 4.351 0 012.466.393c1.324.63 2.34 1.89 2.546 3.408.163 1.207-.125 2.345-.741 3.246a2.022 2.022 0 01-.113.156l-.036.048a4.416 4.416 0 01-2.064 1.472 4.708 4.708 0 01-1.508.296h-.002c-.308.04-.65 0-.993-.084a3.614 3.614 0 01-1.046-.38c-.53-.249-.96-.53-1.119-.675a.881.881 0 00-.391-.21 1.239 1.239 0 00-.7.083l-.005.002c-.096.042-.17.09-.224.129a26.282 26.282 0 00-1.875 1.724c-1.557 1.637-2.864 3.494-3.477 4.412-.324.52-.633 1.053-.924 1.601-.27.507-.52 1.02-.753 1.539a27.63 27.63 0 00-1.015 2.65l-.042.13-.056.18-.053.177c-1.888 6.47 1.512 10.204 4.361 6.303.156-.247.315-.491.477-.734l.005-.008c2.986-5.167 9.112-8.897 9.112-8.897h.003c.375-.239.753-.469 1.136-.69l.002-.002.071-.04c1.05-.6 2.13-1.14 3.241-1.61.988-.44 2.038-.85 2.909-1.062 0 0 1.02-.266 1.294-1.521l.001-.001c.196-.9.847-2.218 2.323-2.926a4.468 4.468 0 012.253-.493l.003-.001a2.15 2.15 0 01.643.077c1.871.361 3.405 1.897 3.628 3.921.27 2.454-1.436 4.67-3.875 4.976-1.217.153-2.319-.114-3.258-.825-1.054-.439-1.865-.157-2.157-.02a24.792 24.792 0 00-2.646 1.668 29.931 29.931 0 00-3.312 2.885 24.938 24.938 0 00-2.879 3.582l-.133.208-.035.056a26.628 26.628 0 00-2.689 5.729c-.803 2.716.939 3.798 2.952 4.192 0 0 1.578.304 3.85.137.133-.011.252-.023.354-.034.574-.07 1.15-.131 1.718-.228 3.92-.668 7.386-2.305 10.346-4.964 3.725-3.348 5.97-7.52 6.667-12.475.698-4.963-.282-9.615-2.968-13.853"
			mask="url(#prefix__d)"></path>
	</g>
</svg>
