<svg width="100%" height="100%" viewBox="0 0 922 743" xmlns="http://www.w3.org/2000/svg">
  <g id="g178" transform="matrix(0.721085,0,0,0.721085,-1426.03,-18.1676)">
    <path id="path34"
      d="M2367.33,1055.08L3099.94,1055.08C3185.65,1055.08 3255.14,985.593 3255.14,899.88L3255.14,374.944C3255.14,329.344 3232.3,287.475 3192.69,264.88L2809.4,46.918C2758.45,17.854 2695.92,17.961 2645.07,47.199L2210.73,296.945L2210.73,898.469C2210.73,984.961 2280.84,1055.08 2367.33,1055.08Z"
      style="fill:rgb(21,143,218);fill-rule:nonzero;" />
    <path id="path35"
      d="M2512.51,955.905C2516.61,908.759 2546.41,867.735 2589.99,849.28C2589.99,849.28 2986.86,626.391 3183.62,511.056C3244.52,475.36 3255.14,402.99 3255.14,402.99L3255.14,898.207C3255.14,984.844 3184.9,1055.08 3098.27,1055.08L2622.55,1055.08C2565.89,1055.08 2518.38,1012.26 2512.51,955.905Z"
      style="fill:url(#_Linear_43875);fill-rule:nonzero;" />
    <g id="g42" transform="matrix(1,0,0,1,1651.46,0)">
      <path id="path41"
        d="M1519.88,251.217L837.525,628.328L973.584,710.785C1024.07,741.383 1097.27,757.941 1148.74,729.033L1511.98,525.041C1560.63,497.72 1603.67,452.766 1603.67,374.944C1603.67,295.896 1549.15,269.807 1519.88,251.217Z"
        style="fill:rgb(1,69,155);fill-rule:nonzero;" />
      <path id="path38"
        d="M1079.79,26.322C1049.89,26.251 1019.97,33.811 993.057,49.008L416.916,374.299L635.438,506.732L1305.64,128.908L1166.42,49.422C1139.58,34.097 1109.69,26.394 1079.79,26.322Z"
        style="fill:rgb(38,174,233);fill-rule:nonzero;" />
      <path id="path40"
        d="M1305.64,128.908L635.438,506.732L854.613,639.563L1537.88,262.451C1532.46,258.39 1525.85,254.624 1519.88,251.217L1305.64,128.908Z"
        style="fill:rgb(0,120,211);fill-rule:nonzero;" />
    </g>
    <g id="g6" transform="matrix(0.999869,-0.016209,0.016209,0.999869,1647.05,10.5561)">
      <path id="path5"
        d="M380.535,208.223L917.635,216.872C946.375,217.335 969.766,241.106 969.766,269.85C969.766,270.204 969.763,270.557 969.755,270.911L959.286,793.792C958.688,823.659 933.685,847.776 903.815,847.295L372.691,838.742C342.501,838.256 317.931,813.287 317.931,783.094C317.931,782.722 317.935,782.351 317.942,781.98L328.424,258.485C328.986,230.427 352.475,207.771 380.535,208.223Z"
        style="fill:url(#_Linear_43756);fill-rule:nonzero;" />
      <path id="path21"
        d="M490.163,435.729C503.42,408.208 524.819,385.177 551.611,369.596C581.282,353.045 615.065,344.793 649.241,345.75C680.916,345.081 712.171,352.904 739.592,368.366C765.375,383.347 786.14,405.297 799.367,431.554C813.772,460.486 820.951,492.326 820.319,524.477C821.018,558.077 813.631,591.37 798.751,621.689C785.209,648.884 763.785,671.616 737.128,687.078C731.063,690.471 724.82,693.506 718.433,696.174C694.825,706.035 669.242,710.883 643.401,710.295C611.05,711.055 579.105,703.143 551.054,687.421C525.048,672.421 504.023,650.445 490.487,624.119C475.996,595.605 468.731,564.123 469.3,532.311C468.696,498.996 475.829,465.98 490.163,435.729ZM555.66,590.981C562.729,608.38 574.715,623.469 590.228,634.498C606.029,645.259 624.95,650.81 644.222,650.338C664.746,651.129 684.976,645.388 701.855,633.983C717.172,622.989 728.843,607.859 735.425,590.466C742.782,571.043 746.413,550.468 746.136,529.766C746.363,508.867 742.95,488.081 736.041,468.294C729.939,450.43 718.644,434.676 703.527,422.948C687.071,411.003 666.896,404.945 646.393,405.793C626.704,405.296 607.359,410.891 591.138,421.776C575.362,432.852 563.148,448.074 555.924,465.664C539.899,505.982 539.816,550.663 555.689,591.039L555.66,590.981Z"
        style="fill:white;fill-rule:nonzero;" />
    </g>
  </g>
  <defs>
    <linearGradient id="_Linear_43875" x1="0" y1="0" x2="1" y2="0" gradientUnits="userSpaceOnUse"
      gradientTransform="matrix(499.166,-210.259,210.259,499.166,2755.97,939.293)">
      <stop offset="0" style="stop-color:rgb(77,226,251);stop-opacity:1" />
      <stop offset="1" style="stop-color:rgb(40,174,232);stop-opacity:1" />
    </linearGradient>
    <linearGradient id="_Linear_43756" x1="0" y1="0" x2="1" y2="0" gradientUnits="userSpaceOnUse"
      gradientTransform="matrix(-10.8322,630.471,-630.471,-10.8322,649.085,212.548)">
      <stop offset="0" style="stop-color:rgb(21,130,216);stop-opacity:1" />
      <stop offset="1" style="stop-color:rgb(10,100,204);stop-opacity:1" />
    </linearGradient>
  </defs>
</svg>
