<svg width="100%" height="100%" viewBox="0 0 1832 1704" xmlns="http://www.w3.org/2000/svg">
	<path
		d="M1831.08,894.25C1831.18,879.932 1823.79,866.606 1811.58,859.119L1811.37,859.119L1810.6,858.693L1176.11,483.108C1173.37,481.257 1170.53,479.565 1167.59,478.041C1143.09,465.402 1113.99,465.402 1089.49,478.041C1086.56,479.566 1083.72,481.257 1080.98,483.108L446.486,858.693L445.72,859.119C426.328,871.178 420.383,896.675 432.442,916.067C435.995,921.781 440.889,926.541 446.699,929.935L1081.19,1305.52C1083.94,1307.36 1086.78,1309.05 1089.71,1310.59C1114.21,1323.23 1143.31,1323.23 1167.81,1310.59C1170.73,1309.05 1173.57,1307.36 1176.32,1305.52L1810.82,929.935C1823.49,922.545 1831.23,908.923 1831.08,894.25Z"
		style="fill:rgb(10,39,103);fill-rule:nonzero;" />
	<path
		d="M520.453,643.477L936.833,643.477L936.833,1025.15L520.453,1025.15L520.453,643.477ZM1745.92,255.5L1745.92,80.908C1746.92,37.256 1712.37,1.046 1668.71,0L588.204,0C544.552,1.046 510,37.256 511,80.908L511,255.5L1149.75,425.833L1745.92,255.5Z"
		style="fill:rgb(3,100,184);fill-rule:nonzero;" />
	<rect x="511" y="255.5" width="425.833" height="383.25" style="fill:rgb(0,120,212);fill-rule:nonzero;" />
	<path d="M1362.67,255.5L936.833,255.5L936.833,638.75L1362.67,1022L1745.92,1022L1745.92,638.75L1362.67,255.5Z"
		style="fill:rgb(40,168,234);fill-rule:nonzero;" />
	<rect x="936.833" y="638.75" width="425.833" height="383.25" style="fill:rgb(0,120,212);fill-rule:nonzero;" />
	<rect x="936.833" y="1022" width="425.833" height="383.25" style="fill:rgb(3,100,184);fill-rule:nonzero;" />
	<rect x="520.453" y="1025.15" width="416.38" height="346.969" style="fill:rgb(20,68,125);fill-rule:nonzero;" />
	<rect x="1362.67" y="1022" width="383.25" height="383.25" style="fill:rgb(0,120,212);fill-rule:nonzero;" />
	<path
		d="M1811.58,927.593L1810.77,928.019L1176.28,1284.87C1173.51,1286.57 1170.7,1288.19 1167.76,1289.64C1156.99,1294.77 1145.28,1297.66 1133.36,1298.15L1098.69,1277.88C1095.76,1276.41 1092.92,1274.78 1090.17,1272.99L447.167,906.003L446.869,906.003L425.833,894.25L425.833,1616.63C426.161,1664.83 465.486,1703.64 513.682,1703.33L1744.6,1703.33C1745.32,1703.33 1745.96,1702.99 1746.73,1702.99C1756.9,1702.34 1766.94,1700.25 1776.53,1696.78C1780.68,1695.02 1784.68,1692.94 1788.5,1690.56C1791.35,1688.94 1796.25,1685.41 1796.25,1685.41C1818.06,1669.27 1830.98,1643.77 1831.08,1616.63L1831.08,894.25C1831.07,908.067 1823.62,920.807 1811.58,927.593Z"
		style="fill:url(#_Linear1);fill-rule:nonzero;" />
	<path
		d="M1797.02,891.397L1797.02,935.684L1133.57,1392.48L446.699,906.301C446.699,906.066 446.508,905.875 446.273,905.875L383.25,867.976L383.25,836.038L409.226,835.612L464.158,867.124L465.435,867.55L470.119,870.531C470.119,870.531 1115.68,1238.88 1117.39,1239.73L1142.08,1254.21C1144.21,1253.35 1146.34,1252.5 1148.9,1251.65C1150.17,1250.8 1789.78,890.97 1789.78,890.97L1797.02,891.397Z"
		style="fill:rgb(10,39,103);fill-opacity:0.5;fill-rule:nonzero;" />
	<path
		d="M1811.58,927.593L1810.77,928.061L1176.28,1284.91C1173.51,1286.61 1170.7,1288.23 1167.76,1289.68C1143.12,1301.72 1114.31,1301.72 1089.66,1289.68C1086.75,1288.23 1083.9,1286.64 1081.15,1284.91L446.657,928.061L445.891,927.593C433.641,920.951 425.961,908.184 425.834,894.25L425.834,1616.63C426.139,1664.82 465.45,1703.64 513.637,1703.33L1743.28,1703.33C1791.47,1703.64 1830.78,1664.83 1831.08,1616.64L1831.08,894.25C1831.07,908.067 1823.62,920.807 1811.58,927.593Z"
		style="fill:rgb(20,144,223);fill-rule:nonzero;" />
	<path
		d="M1185.52,1279.63L1176.02,1284.95C1173.27,1286.7 1170.43,1288.31 1167.51,1289.76C1157.05,1294.9 1145.67,1297.91 1134.04,1298.62L1375.44,1584.1L1796.55,1685.58C1808.09,1676.86 1817.27,1665.4 1823.25,1652.23L1185.52,1279.63Z"
		style="fill-opacity:0.1;fill-rule:nonzero;" />
	<path
		d="M1228.53,1255.44L1176.02,1284.95C1173.27,1286.7 1170.43,1288.31 1167.51,1289.76C1157.05,1294.9 1145.67,1297.91 1134.04,1298.62L1247.14,1610.46L1796.68,1685.45C1818.33,1669.19 1831.07,1643.7 1831.08,1616.63L1831.08,1607.31L1228.53,1255.44Z"
		style="fill-opacity:0.05;fill-rule:nonzero;" />
	<path
		d="M514.833,1703.33C514.832,1703.33 1743.15,1703.33 1743.15,1703.33C1762.05,1703.43 1780.48,1697.46 1795.74,1686.3L1098.65,1277.97C1095.72,1276.5 1092.88,1274.86 1090.13,1273.07L447.125,906.088L446.827,906.088L425.834,894.25L425.834,1614.16C425.786,1663.36 465.632,1703.29 514.833,1703.33Z"
		style="fill:rgb(40,168,234);fill-rule:nonzero;" />
	<g fill="black">
		<path
			d="M1022,418.722L1022,1327.03C1021.92,1358.87 1002.56,1387.5 973.029,1399.42C963.881,1403.35 954.029,1405.38 944.072,1405.38L425.833,1405.38L425.833,383.25L511,383.25L511,340.667L944.073,340.667C987.092,340.83 1021.91,375.702 1022,418.722Z"
			style="fill-opacity:0.1;fill-rule:nonzero;" />
		<path
			d="M979.417,461.305L979.417,1369.61C979.524,1379.89 977.343,1390.08 973.029,1399.41C961.203,1428.56 932.946,1447.69 901.489,1447.83L425.833,1447.83L425.833,383.25L901.489,383.25C913.845,383.126 926.022,386.208 936.833,392.193C962.937,405.344 979.407,432.076 979.417,461.305Z"
			style="fill-opacity:0.2;fill-rule:nonzero;" />
		<path
			d="M979.417,461.305L979.417,1284.44C979.209,1327.44 944.489,1362.29 901.49,1362.67L425.833,1362.67L425.833,383.25L901.489,383.25C913.845,383.126 926.022,386.208 936.833,392.193C962.937,405.344 979.407,432.076 979.417,461.305Z"
			style="fill-opacity:0.2;fill-rule:nonzero;" />
		<path
			d="M936.833,461.305L936.833,1284.44C936.787,1327.51 901.972,1362.46 858.906,1362.67L425.833,1362.67L425.833,383.25L858.905,383.25C901.967,383.273 936.856,418.201 936.832,461.263C936.833,461.277 936.833,461.291 936.833,461.305Z"
			style="fill-opacity:0.2;fill-rule:nonzero;" />
	</g>
	<path
		d="M78.055,383.25L858.778,383.25C901.887,383.25 936.833,418.197 936.833,461.305L936.833,1242.03C936.833,1285.14 901.887,1320.08 858.778,1320.08L78.055,1320.08C34.946,1320.08 0,1285.14 0,1242.03L0,461.305C0,418.197 34.947,383.25 78.055,383.25Z"
		style="fill:url(#_Linear2);fill-rule:nonzero;" />
	<path
		d="M243.96,710.631C263.198,669.643 294.25,635.342 333.13,612.136C376.187,587.485 425.211,575.196 474.805,576.621C520.77,575.624 566.126,587.276 605.919,610.304C643.333,632.616 673.466,665.308 692.661,704.413C713.565,747.503 723.983,794.925 723.066,842.809C724.079,892.852 713.36,942.437 691.767,987.592C672.115,1028.1 641.026,1061.95 602.342,1084.98C561.015,1108.71 513.975,1120.67 466.331,1119.56C419.384,1120.69 373.028,1108.91 332.321,1085.49C294.583,1063.15 264.072,1030.42 244.429,991.211C223.401,948.744 212.859,901.856 213.684,854.476C212.808,804.859 223.158,755.686 243.96,710.631ZM339.006,941.858C349.263,967.77 366.657,990.243 389.169,1006.67C412.099,1022.7 439.556,1030.96 467.522,1030.26C497.305,1031.44 526.662,1022.89 551.156,1005.9C573.383,989.528 590.32,966.994 599.871,941.091C610.548,912.163 615.817,881.519 615.414,850.687C615.744,819.56 610.791,788.603 600.765,759.133C591.91,732.526 575.519,709.064 553.583,691.596C529.703,673.806 500.425,664.783 470.673,666.046C442.101,665.306 414.029,673.639 390.489,689.85C367.596,706.346 349.872,729.018 339.389,755.215C316.134,815.264 316.013,881.81 339.048,941.943L339.006,941.858Z"
		style="fill:white;fill-rule:nonzero;" />
	<rect x="1362.67" y="255.5" width="383.25" height="383.25" style="fill:rgb(80,217,255);fill-rule:nonzero;" />
	<defs>
		<linearGradient id="_Linear1" x1="0" y1="0" x2="1" y2="0" gradientUnits="userSpaceOnUse"
			gradientTransform="matrix(4.95422e-14,809.085,-809.085,4.95422e-14,1128.46,894.25)">
			<stop offset="0" style="stop-color:rgb(53,184,241);stop-opacity:1" />
			<stop offset="1" style="stop-color:rgb(40,168,234);stop-opacity:1" />
		</linearGradient>
		<linearGradient id="_Linear2" x1="0" y1="0" x2="1" y2="0" gradientUnits="userSpaceOnUse"
			gradientTransform="matrix(611.34,1058.81,-1058.81,611.34,162.747,322.259)">
			<stop offset="0" style="stop-color:rgb(23,132,217);stop-opacity:1" />
			<stop offset="0.5" style="stop-color:rgb(16,122,213);stop-opacity:1" />
			<stop offset="1" style="stop-color:rgb(10,99,201);stop-opacity:1" />
		</linearGradient>
	</defs>
</svg>
