<svg xmlns="http://www.w3.org/2000/svg" viewBox="45.6 43 108.67 24">
<g>
<path d="M62.0682 58.0574V50.1787C62.0682 47.9438 60.8676 46.8828 58.8516 46.8828C57.1753 46.8828 55.7256 47.8761 55.0913 48.8694C54.6836 47.6278 53.6642 46.8828 52.0559 46.8828C50.3796 46.8828 48.9299 47.9212 48.4768 48.5759V47.1537H45.6V58.0574H48.4768V50.7205C48.9072 50.111 49.7453 49.4338 50.742 49.4338C51.92 49.4338 52.373 50.1562 52.373 51.172V58.0574H55.2725V50.698C55.6802 50.111 56.5184 49.4338 57.5377 49.4338C58.7157 49.4338 59.1687 50.1562 59.1687 51.172V58.0574H62.0682Z"/>
<path d="M69.964 58.3283C73.5883 58.3283 75.763 55.7096 75.763 52.5943C75.763 49.5015 73.5883 46.8828 69.964 46.8828C66.3622 46.8828 64.1876 49.5015 64.1876 52.5943C64.1876 55.7096 66.3622 58.3283 69.964 58.3283ZM69.964 55.7773C68.1744 55.7773 67.1777 54.31 67.1777 52.5943C67.1777 50.9011 68.1744 49.4338 69.964 49.4338C71.7535 49.4338 72.7728 50.9011 72.7728 52.5943C72.7728 54.31 71.7535 55.7773 69.964 55.7773Z"/>
<path d="M88.1587 58.0574V50.3593C88.1587 48.2373 87.0035 46.8828 84.6023 46.8828C82.8128 46.8828 81.4763 47.7406 80.7741 48.5759V47.1537H77.8972V58.0574H80.7741V50.7205C81.2498 50.0659 82.1332 49.4338 83.2658 49.4338C84.489 49.4338 85.2819 49.953 85.2819 51.4655V58.0574H88.1587Z"/>
<path d="M96.0892 58.3283C99.7136 58.3283 101.888 55.7096 101.888 52.5943C101.888 49.5015 99.7136 46.8828 96.0892 46.8828C92.4876 46.8828 90.3129 49.5015 90.3129 52.5943C90.3129 55.7096 92.4876 58.3283 96.0892 58.3283ZM96.0892 55.7773C94.2998 55.7773 93.303 54.31 93.303 52.5943C93.303 50.9011 94.2998 49.4338 96.0892 49.4338C97.879 49.4338 98.8982 50.9011 98.8982 52.5943C98.8982 54.31 97.879 55.7773 96.0892 55.7773Z"/>
<path d="M106.9 54.5584V50.6981C107.375 49.9757 108.44 49.4339 109.368 49.4339C111.045 49.4339 112.155 50.7206 112.155 52.6169C112.155 54.5132 111.045 55.7774 109.368 55.7774C108.44 55.7774 107.375 55.2582 106.9 54.5584ZM106.9 58.0575V56.6578C107.76 57.7414 108.961 58.3284 110.274 58.3284C113.038 58.3284 115.122 56.2515 115.122 52.6169C115.122 49.0501 113.061 46.8829 110.274 46.8829C108.984 46.8829 107.76 47.4473 106.9 48.5534V43H104.023V58.0575H106.9Z"/>
<path d="M126.742 58.0574V51.014C126.742 47.8761 124.454 46.8828 121.962 46.8828C120.24 46.8828 118.519 47.4246 117.182 48.5985L118.269 50.5174C119.198 49.6595 120.285 49.2306 121.463 49.2306C122.913 49.2306 123.865 49.953 123.865 51.0592V52.5265C123.14 51.6687 121.849 51.1946 120.399 51.1946C118.655 51.1946 116.593 52.1653 116.593 54.7163C116.593 57.1544 118.655 58.3283 120.399 58.3283C121.826 58.3283 123.117 57.8091 123.865 56.9287V58.0574H126.742ZM121.554 56.3869C120.421 56.3869 119.493 55.7999 119.493 54.784C119.493 53.723 120.421 53.1361 121.554 53.1361C122.483 53.1361 123.389 53.4521 123.865 54.0842V55.4387C123.389 56.0708 122.483 56.3869 121.554 56.3869Z"/>
<path d="M139.856 58.0574V50.3593C139.856 48.2373 138.701 46.8828 136.3 46.8828C134.511 46.8828 133.174 47.7406 132.472 48.5759V47.1537H129.595V58.0574H132.472V50.7205C132.947 50.0659 133.831 49.4338 134.963 49.4338C136.187 49.4338 136.979 49.953 136.979 51.4655V58.0574H139.856Z"/>
<path d="M153.405 58.0575L148.942 52.0977L153.269 47.1538H149.735L145.59 52.0074V43H142.713V58.0575H145.59V55.2582L146.904 53.8585L149.803 58.0575H153.405Z"/>
<g>
<path d="M151.679 62.9976H152.405V65.3143H152.446L153.39 64.2015L154.06 64.1997L153.024 65.4161L154.272 66.9374H153.436L152.415 65.5214H152.405V66.9374H151.679V62.9976Z" fill="#7F7F7F"/>
<path d="M117.157 63.1738V65.3343C117.157 66.0702 117.374 66.4725 117.983 66.4725C118.565 66.4725 118.798 65.9847 118.798 65.3768V63.1738H119.485V65.5113C119.485 66.4617 118.864 67.0002 117.961 67.0002C116.928 67.0002 116.39 66.4993 116.39 65.4737V63.1738H117.157Z" fill="#7F7F7F"/>
<path d="M121.089 64.5653C121.335 64.3078 121.677 64.1841 122.02 64.1841C122.656 64.1841 122.993 64.5272 122.993 65.2042V66.9349H122.271V65.2856C122.271 64.909 122.103 64.6616 121.726 64.6616C121.373 64.6616 121.095 64.8929 121.095 65.334V66.9349H120.372V64.248H121.089V64.5653Z" fill="#7F7F7F"/>
<path d="M123.843 66.9359H124.566V64.2489H123.843V66.9359ZM123.772 63.4432C123.772 63.2393 123.946 63.0293 124.191 63.0293C124.441 63.0293 124.636 63.2338 124.636 63.4432C124.636 63.674 124.468 63.8945 124.202 63.8945C123.946 63.8945 123.772 63.674 123.772 63.4432Z" fill="#7F7F7F"/>
<path d="M126.166 66.9347L125.009 64.2363H125.775C126.009 64.8545 126.253 65.4359 126.481 66.1826H126.492C126.737 65.4359 126.969 64.8545 127.219 64.2363H127.897L126.672 66.9347H126.166Z" fill="#7F7F7F"/>
<path d="M130.049 65.2695C130.077 64.86 129.93 64.5814 129.572 64.5814C129.157 64.5814 128.971 64.909 128.979 65.2695H130.049ZM128.967 65.6564C128.951 66.1619 129.309 66.5373 129.761 66.5373C130.029 66.5373 130.31 66.446 130.491 66.3221L130.697 66.6986C130.327 66.9133 129.941 67 129.631 67C128.809 67 128.195 66.4244 128.195 65.5379C128.195 64.71 128.804 64.1841 129.582 64.1841C130.43 64.1841 130.784 64.8553 130.731 65.6564H128.967Z" fill="#7F7F7F"/>
<path d="M132.15 64.7208H132.161L132.308 64.5114C132.388 64.3927 132.552 64.1841 132.775 64.1841C132.938 64.1841 133.113 64.2701 133.265 64.4253L132.993 64.9198C132.873 64.86 132.797 64.8285 132.65 64.8285C132.4 64.8285 132.155 65.0274 132.155 65.6073V66.9349H131.43V64.248H132.15V64.7208Z" fill="#7F7F7F"/>
<path d="M135.196 64.7529C135.033 64.6348 134.864 64.5814 134.734 64.5814C134.571 64.5814 134.407 64.6724 134.407 64.8553C134.407 65.0703 134.669 65.1943 134.973 65.4137C135.361 65.6998 135.474 65.979 135.474 66.2249C135.474 66.6024 135.054 67 134.457 67C134.081 67 133.804 66.8705 133.549 66.6934L133.777 66.3221C133.939 66.4518 134.173 66.5799 134.368 66.5799C134.577 66.5799 134.761 66.4723 134.761 66.2468C134.761 65.9942 134.477 65.8547 134.217 65.6718C133.907 65.4626 133.695 65.2582 133.695 64.9256C133.695 64.5003 134.107 64.1841 134.641 64.1841C134.941 64.1841 135.234 64.2588 135.431 64.4315L135.196 64.7529Z" fill="#7F7F7F"/>
<path d="M137.257 65.5055C136.904 65.6184 136.725 65.8171 136.725 66.1231C136.725 66.3599 136.877 66.5213 137.052 66.5213C137.339 66.5213 137.715 66.1663 137.661 65.3766L137.257 65.5055ZM137.487 66.6773C137.29 66.8387 137.04 67 136.791 67C136.366 67 136.012 66.6773 136.012 66.1829C136.012 65.6718 136.388 65.3874 137.019 65.2042L137.661 65.0161C137.623 64.7693 137.4 64.6138 137.167 64.6138C136.856 64.6138 136.638 64.7267 136.448 64.888L136.213 64.5493C136.551 64.2754 136.882 64.1841 137.257 64.1841C137.759 64.1841 138.374 64.3442 138.374 65.1835V66.2792C138.374 66.4944 138.4 66.7476 138.488 66.9349H137.721C137.665 66.8433 137.65 66.6881 137.65 66.5429L137.487 66.6773Z" fill="#7F7F7F"/>
<path d="M139.184 66.9353H139.908V62.9858H139.184V66.9353Z" fill="#7F7F7F"/>
<path d="M146.316 65.5055C145.962 65.6184 145.782 65.8171 145.782 66.1231C145.782 66.3599 145.934 66.5213 146.109 66.5213C146.396 66.5213 146.772 66.1663 146.719 65.3766L146.316 65.5055ZM146.543 66.6773C146.348 66.8387 146.098 67 145.847 67C145.423 67 145.069 66.6773 145.069 66.1829C145.069 65.6718 145.444 65.3874 146.077 65.2042L146.719 65.0161C146.679 64.7693 146.458 64.6138 146.222 64.6138C145.913 64.6138 145.695 64.7267 145.504 64.888L145.27 64.5493C145.608 64.2754 145.94 64.1841 146.316 64.1841C146.815 64.1841 147.43 64.3442 147.43 65.1835V66.2792C147.43 66.4944 147.457 66.7476 147.543 66.9349H146.778C146.724 66.8433 146.706 66.6881 146.706 66.5429L146.543 66.6773Z" fill="#7F7F7F"/>
<path d="M148.959 64.5653C149.204 64.3078 149.547 64.1841 149.89 64.1841C150.526 64.1841 150.863 64.5272 150.863 65.2042V66.9349H150.14V65.2856C150.14 64.909 149.971 64.6616 149.596 64.6616C149.242 64.6616 148.964 64.8929 148.964 65.334V66.9349H148.241V64.248H148.959V64.5653Z" fill="#7F7F7F"/>
<path d="M142.548 66.4828H142.939C143.364 66.4828 143.686 66.2628 143.686 65.8442C143.686 65.4031 143.354 65.2153 142.935 65.2153H142.548V66.4828ZM142.548 64.7532H142.788C143.229 64.7532 143.529 64.474 143.529 64.124C143.529 63.7915 143.277 63.6468 142.945 63.6468H142.548V64.7532ZM141.781 66.9454V63.1841H143.158C143.8 63.1841 144.252 63.4741 144.252 63.9846C144.252 64.5861 143.757 64.834 143.49 64.9034V64.9142C143.964 64.9361 144.491 65.2579 144.491 65.8328C144.491 66.4828 143.941 66.9454 143.044 66.9454H141.781Z" fill="#7F7F7F"/>
</g>
</g>

</svg>