<svg id="parts_paw" preserveAspectRatio="xMidYMid slice" version="1.1" viewBox="0 0 275 280"
    xmlns="http://www.w3.org/2000/svg">
    <g fill="none" fill-rule="evenodd" id="ugid2041" stroke="none" stroke-width="1">
        <g fill-rule="nonzero" id="ugid2042" transform="translate(-917.000000, -94.000000)">
            <g id="ugid2043" transform="translate(900.000000, 80.000000)">
                <rect height="300" id="ugid2044" width="300" x="0" y="0"></rect>
                <g id="ugid2045">
                    <g fill="black" fill-opacity="1">
                        <path
                            d="M94.7624847,140.708611 L98.0766795,141.292993 C97.7045064,142.286046 97.3002186,143.265695 96.8631646,144.232048 C94.1056493,150.33153 90.3132357,155.441633 85.2965742,159.454416 C78.9941962,164.493475 71.6098728,167.072217 63.5860338,166.967198 C57.8707928,166.893219 52.391206,165.388587 47.1769888,162.623608 C41.0379127,159.354235 35.8977421,154.726001 31.6195012,148.881242 C27.7987942,143.676572 24.9617206,137.864676 23.0635302,131.508692 C21.2327458,125.373762 20.3719439,119.142155 20.5323776,112.832741 C20.5489527,112.242885 20.5666191,111.808214 20.6109423,110.816996 C20.622406,110.56063 20.6301806,110.384895 20.6365915,110.235081 C20.6370553,110.007702 20.6434454,109.784779 20.6547886,109.563542 L20.4511846,109.045355 L22.1330915,99.5067866 L22.586768,99.0410143 C23.2627041,96.563419 24.1820486,94.1281887 25.3292844,91.6884076 C28.0798354,85.8227354 31.8089789,80.892946 36.6843604,77.0079119 C42.6369939,72.2721658 49.5648784,69.7163595 57.128779,69.5484606 C63.0873478,69.4218921 68.8211291,70.844895 74.2644142,73.6382172 C79.832931,76.5008188 84.63689,80.525232 88.6924086,85.5494809 C94.0233199,92.1309112 97.6541517,99.7069476 99.7086297,108.187499 L98.7831071,113.436398 C93.9266601,109.075702 90.0911183,103.766398 87.1250982,97.5659044 C83.7979862,90.5989976 81.8593265,83.1081713 81.2104853,75.1320145 C80.8671752,70.9278046 80.9122747,66.7053941 81.3354523,62.5302368 C81.5362775,60.4477902 81.6929614,59.1685302 81.9630418,57.9126316 C83.4054885,50.0364417 85.8513146,43.2078732 89.609063,36.9600397 C92.8117286,31.6253939 96.7007872,27.1457675 101.426116,23.581026 C107.201996,19.2127043 113.648461,16.6328006 120.676701,16.1134327 C127.839283,15.5760778 134.687171,17.2211284 141.002544,20.858684 C146.030763,23.7597734 150.313399,27.6715175 153.930339,32.480415 C159.020568,39.2368619 162.386896,46.9838783 164.235567,55.6766549 C165.338799,60.8720133 165.814465,66.1547218 165.671647,71.5091899 C165.590904,74.5157291 165.3213,77.5039911 164.855863,80.5034225 C164.23683,84.4076015 163.310691,88.1434175 162.047817,91.7154799 C161.228119,94.0410891 160.299523,96.2669936 159.254732,98.3924515 L155.699315,97.7655356 C155.479316,94.9640132 155.466519,92.1246289 155.650498,89.2466476 C155.843983,86.1444581 156.247084,83.1093223 156.867352,80.151243 C158.311627,73.2282488 160.758928,66.6428288 164.182006,60.4483837 C167.94047,53.6332289 172.602096,47.7240946 178.246021,42.773705 C183.481911,38.1822728 189.176864,34.7504069 195.449068,32.5878818 C200.586217,30.8137059 205.848049,30.0557495 211.182736,30.3844235 L211.283847,30.3911321 C214.124438,30.593069 215.685099,30.8711235 218.460624,31.6432707 L218.580129,31.6765171 L218.698836,31.7125155 C228.970634,34.8275026 236.592122,41.6880422 241.394359,51.5416471 C244.276744,57.4594095 245.801245,63.863548 246.202833,70.8701972 C246.504289,76.3075422 246.057137,81.7669873 244.903771,87.2567973 C242.867919,96.9421805 238.937047,105.852129 233.157481,113.906162 C228.962983,119.753752 224.026685,124.685472 218.288317,128.636849 C215.241105,130.729997 212.10324,132.453918 208.853403,133.785021 L209.86791,128.031466 C211.622719,125.528355 213.587207,123.125163 215.755451,120.823271 C218.381948,118.027559 221.278616,115.517981 224.441791,113.296512 C231.267345,108.522762 238.531363,105.49497 246.414241,104.411079 C251.489456,103.725191 256.446241,103.952733 261.253164,105.193298 C269.045525,107.19932 275.539621,111.536512 280.32906,117.986638 C284.401751,123.472799 286.69764,129.812014 287.466177,136.879196 C287.864755,140.546657 287.814936,144.199269 287.299624,147.808127 L287.274748,147.982337 L287.080408,149.084496 L287.046413,149.247593 C286.905684,149.922765 286.779792,150.639975 286.665072,151.416069 L286.643214,151.563947 L286.440741,152.712227 L286.387054,152.95208 C284.708783,160.449989 281.469732,167.407461 276.786198,173.939217 C273.192892,178.933269 268.970294,183.264892 264.132824,186.869977 C257.456397,191.85445 250.240654,195.127072 242.394175,196.486009 C237.08349,197.406234 231.853575,197.319332 226.732165,196.121212 C218.706698,194.234019 212.004731,189.904423 207.052451,183.340105 C203.163871,178.179819 200.852833,172.219558 199.943496,165.619692 C199.645845,163.480403 199.503188,161.332105 199.511589,159.178704 L203.314911,159.849332 C203.322992,159.868604 203.33109,159.887913 203.339208,159.907265 C205.872514,165.937091 207.92585,170.366976 210.165576,174.474194 C212.596925,178.937037 215.402347,183.151557 218.582093,187.11799 C223.546677,193.312224 227.638236,199.876868 230.845417,206.89638 C233.780855,213.367492 235.790388,219.890434 236.815339,226.568314 C237.685297,232.233341 237.810225,237.781811 237.131032,243.256788 C236.022511,252.253297 232.897064,260.371942 227.634401,267.43182 C222.712976,274.04109 216.34054,279.108755 208.694934,282.662015 C202.999615,285.307936 197.201935,286.893941 191.246516,287.304824 C189.251307,287.448606 187.266687,287.463848 185.316927,287.346592 L184.72656,287.606535 L173.776312,285.675711 L173.580397,285.471687 C170.379206,284.664518 167.376788,283.536878 162.984955,281.665313 C160.027022,280.399823 157.732921,279.329757 152.733476,276.931573 L152.698286,276.914692 C149.217879,275.245174 147.681052,274.518663 145.792283,273.664732 C141.177331,271.583411 137.015157,269.986219 132.975899,268.786608 C130.438755,268.032001 127.637676,267.461425 124.267786,266.986145 C122.456,266.729081 120.418462,266.641943 117.546344,266.671301 C113.448102,266.720653 110.019267,266.968514 102.361804,267.679283 L102.251473,267.689525 C102.090102,267.704504 102.090102,267.704504 101.945888,267.717873 C93.024205,268.56035 88.7524918,268.846533 83.3469087,268.781708 C79.8048096,268.730646 77.3375254,268.566818 74.6294308,268.075117 C74.6120092,268.073206 74.5911262,268.070924 74.5661257,268.068202 C73.87127,267.992545 73.4866717,267.941821 72.858464,267.815612 L72.7764291,267.799131 C72.7671534,267.797772 72.7569451,267.796278 72.7457393,267.79464 C72.2207395,267.717894 71.9389274,267.672024 71.4740649,267.572823 C71.0003102,267.471724 70.5307697,267.34882 70.0572503,267.195369 C69.9665944,267.173172 69.8623313,267.147685 69.7371241,267.117098 C69.380607,267.030005 69.2249337,266.991877 69.0226134,266.941933 C68.3377588,266.77287 67.7859529,266.631605 67.2012205,266.47259 C59.5196387,264.359683 52.8321578,260.47428 47.3832573,254.835296 C38.3202976,245.454299 33.4263947,234.033847 33.0085593,221.048342 C32.8601411,216.263345 33.3873574,211.484443 34.5403515,206.709311 C35.804594,201.422909 37.7804644,196.346734 40.4412194,191.439734 C44.3923793,184.156988 49.5686383,177.643782 55.9219074,171.787981 C60.437565,167.625744 65.4024423,163.945015 70.796315,160.729138 C74.4429789,158.552091 78.0632581,155.931464 81.8229453,152.786961 C85.6590083,149.572278 89.2005212,146.236228 94.7624847,140.708611 Z M181.694224,286.988225 L181.686342,286.986322 C181.69462,286.988395 181.703961,286.990681 181.714293,286.993157 C181.707436,286.99148 181.700745,286.989836 181.694224,286.988225 Z M181.164523,286.888989 C181.167126,286.889735 181.175675,286.891918 181.185574,286.894384 C181.178335,286.892542 181.171316,286.890742 181.164523,286.888989 Z M177.713801,286.272368 L177.707224,286.27173 C177.694466,286.27057 177.681249,286.269338 177.667589,286.268032 C177.68958,286.270317 177.705486,286.271793 177.713801,286.272368 Z M74.4363694,268.039585 C74.4432802,268.040889 74.4500866,268.042163 74.4567899,268.043408 C74.4497831,268.042085 74.4430771,268.040836 74.4363694,268.039585 Z M22.0142883,101.081423 C22.0063254,101.11307 21.9986718,101.144122 21.9913056,101.174626 C21.9988558,101.143305 22.0064795,101.112486 22.0142883,101.081423 Z"
                            id="ugid2039"></path>
                    </g>
                    <g fill="#FFFFFF">
                        <path
                            d="M94.7624847,140.708611 L98.0766795,141.292993 C97.7045064,142.286046 97.3002186,143.265695 96.8631646,144.232048 C94.1056493,150.33153 90.3132357,155.441633 85.2965742,159.454416 C78.9941962,164.493475 71.6098728,167.072217 63.5860338,166.967198 C57.8707928,166.893219 52.391206,165.388587 47.1769888,162.623608 C41.0379127,159.354235 35.8977421,154.726001 31.6195012,148.881242 C27.7987942,143.676572 24.9617206,137.864676 23.0635302,131.508692 C21.2327458,125.373762 20.3719439,119.142155 20.5323776,112.832741 C20.5489527,112.242885 20.5666191,111.808214 20.6109423,110.816996 C20.622406,110.56063 20.6301806,110.384895 20.6365915,110.235081 C20.6370553,110.007702 20.6434454,109.784779 20.6547886,109.563542 L20.4511846,109.045355 L22.1330915,99.5067866 L22.586768,99.0410143 C23.2627041,96.563419 24.1820486,94.1281887 25.3292844,91.6884076 C28.0798354,85.8227354 31.8089789,80.892946 36.6843604,77.0079119 C42.6369939,72.2721658 49.5648784,69.7163595 57.128779,69.5484606 C63.0873478,69.4218921 68.8211291,70.844895 74.2644142,73.6382172 C79.832931,76.5008188 84.63689,80.525232 88.6924086,85.5494809 C94.0233199,92.1309112 97.6541517,99.7069476 99.7086297,108.187499 L98.7831071,113.436398 C93.9266601,109.075702 90.0911183,103.766398 87.1250982,97.5659044 C83.7979862,90.5989976 81.8593265,83.1081713 81.2104853,75.1320145 C80.8671752,70.9278046 80.9122747,66.7053941 81.3354523,62.5302368 C81.5362775,60.4477902 81.6929614,59.1685302 81.9630418,57.9126316 C83.4054885,50.0364417 85.8513146,43.2078732 89.609063,36.9600397 C92.8117286,31.6253939 96.7007872,27.1457675 101.426116,23.581026 C107.201996,19.2127043 113.648461,16.6328006 120.676701,16.1134327 C127.839283,15.5760778 134.687171,17.2211284 141.002544,20.858684 C146.030763,23.7597734 150.313399,27.6715175 153.930339,32.480415 C159.020568,39.2368619 162.386896,46.9838783 164.235567,55.6766549 C165.338799,60.8720133 165.814465,66.1547218 165.671647,71.5091899 C165.590904,74.5157291 165.3213,77.5039911 164.855863,80.5034225 C164.23683,84.4076015 163.310691,88.1434175 162.047817,91.7154799 C161.228119,94.0410891 160.299523,96.2669936 159.254732,98.3924515 L155.699315,97.7655356 C155.479316,94.9640132 155.466519,92.1246289 155.650498,89.2466476 C155.843983,86.1444581 156.247084,83.1093223 156.867352,80.151243 C158.311627,73.2282488 160.758928,66.6428288 164.182006,60.4483837 C167.94047,53.6332289 172.602096,47.7240946 178.246021,42.773705 C183.481911,38.1822728 189.176864,34.7504069 195.449068,32.5878818 C200.586217,30.8137059 205.848049,30.0557495 211.182736,30.3844235 L211.283847,30.3911321 C214.124438,30.593069 215.685099,30.8711235 218.460624,31.6432707 L218.580129,31.6765171 L218.698836,31.7125155 C228.970634,34.8275026 236.592122,41.6880422 241.394359,51.5416471 C244.276744,57.4594095 245.801245,63.863548 246.202833,70.8701972 C246.504289,76.3075422 246.057137,81.7669873 244.903771,87.2567973 C242.867919,96.9421805 238.937047,105.852129 233.157481,113.906162 C228.962983,119.753752 224.026685,124.685472 218.288317,128.636849 C215.241105,130.729997 212.10324,132.453918 208.853403,133.785021 L209.86791,128.031466 C211.622719,125.528355 213.587207,123.125163 215.755451,120.823271 C218.381948,118.027559 221.278616,115.517981 224.441791,113.296512 C231.267345,108.522762 238.531363,105.49497 246.414241,104.411079 C251.489456,103.725191 256.446241,103.952733 261.253164,105.193298 C269.045525,107.19932 275.539621,111.536512 280.32906,117.986638 C284.401751,123.472799 286.69764,129.812014 287.466177,136.879196 C287.864755,140.546657 287.814936,144.199269 287.299624,147.808127 L287.274748,147.982337 L287.080408,149.084496 L287.046413,149.247593 C286.905684,149.922765 286.779792,150.639975 286.665072,151.416069 L286.643214,151.563947 L286.440741,152.712227 L286.387054,152.95208 C284.708783,160.449989 281.469732,167.407461 276.786198,173.939217 C273.192892,178.933269 268.970294,183.264892 264.132824,186.869977 C257.456397,191.85445 250.240654,195.127072 242.394175,196.486009 C237.08349,197.406234 231.853575,197.319332 226.732165,196.121212 C218.706698,194.234019 212.004731,189.904423 207.052451,183.340105 C203.163871,178.179819 200.852833,172.219558 199.943496,165.619692 C199.645845,163.480403 199.503188,161.332105 199.511589,159.178704 L203.314911,159.849332 C203.322992,159.868604 203.33109,159.887913 203.339208,159.907265 C205.872514,165.937091 207.92585,170.366976 210.165576,174.474194 C212.596925,178.937037 215.402347,183.151557 218.582093,187.11799 C223.546677,193.312224 227.638236,199.876868 230.845417,206.89638 C233.780855,213.367492 235.790388,219.890434 236.815339,226.568314 C237.685297,232.233341 237.810225,237.781811 237.131032,243.256788 C236.022511,252.253297 232.897064,260.371942 227.634401,267.43182 C222.712976,274.04109 216.34054,279.108755 208.694934,282.662015 C202.999615,285.307936 197.201935,286.893941 191.246516,287.304824 C189.251307,287.448606 187.266687,287.463848 185.316927,287.346592 L184.72656,287.606535 L173.776312,285.675711 L173.580397,285.471687 C170.379206,284.664518 167.376788,283.536878 162.984955,281.665313 C160.027022,280.399823 157.732921,279.329757 152.733476,276.931573 L152.698286,276.914692 C149.217879,275.245174 147.681052,274.518663 145.792283,273.664732 C141.177331,271.583411 137.015157,269.986219 132.975899,268.786608 C130.438755,268.032001 127.637676,267.461425 124.267786,266.986145 C122.456,266.729081 120.418462,266.641943 117.546344,266.671301 C113.448102,266.720653 110.019267,266.968514 102.361804,267.679283 L102.251473,267.689525 C102.090102,267.704504 102.090102,267.704504 101.945888,267.717873 C93.024205,268.56035 88.7524918,268.846533 83.3469087,268.781708 C79.8048096,268.730646 77.3375254,268.566818 74.6294308,268.075117 C74.6120092,268.073206 74.5911262,268.070924 74.5661257,268.068202 C73.87127,267.992545 73.4866717,267.941821 72.858464,267.815612 L72.7764291,267.799131 C72.7671534,267.797772 72.7569451,267.796278 72.7457393,267.79464 C72.2207395,267.717894 71.9389274,267.672024 71.4740649,267.572823 C71.0003102,267.471724 70.5307697,267.34882 70.0572503,267.195369 C69.9665944,267.173172 69.8623313,267.147685 69.7371241,267.117098 C69.380607,267.030005 69.2249337,266.991877 69.0226134,266.941933 C68.3377588,266.77287 67.7859529,266.631605 67.2012205,266.47259 C59.5196387,264.359683 52.8321578,260.47428 47.3832573,254.835296 C38.3202976,245.454299 33.4263947,234.033847 33.0085593,221.048342 C32.8601411,216.263345 33.3873574,211.484443 34.5403515,206.709311 C35.804594,201.422909 37.7804644,196.346734 40.4412194,191.439734 C44.3923793,184.156988 49.5686383,177.643782 55.9219074,171.787981 C60.437565,167.625744 65.4024423,163.945015 70.796315,160.729138 C74.4429789,158.552091 78.0632581,155.931464 81.8229453,152.786961 C85.6590083,149.572278 89.2005212,146.236228 94.7624847,140.708611 Z M181.694224,286.988225 L181.686342,286.986322 C181.69462,286.988395 181.703961,286.990681 181.714293,286.993157 C181.707436,286.99148 181.700745,286.989836 181.694224,286.988225 Z M181.164523,286.888989 C181.167126,286.889735 181.175675,286.891918 181.185574,286.894384 C181.178335,286.892542 181.171316,286.890742 181.164523,286.888989 Z M177.713801,286.272368 L177.707224,286.27173 C177.694466,286.27057 177.681249,286.269338 177.667589,286.268032 C177.68958,286.270317 177.705486,286.271793 177.713801,286.272368 Z M74.4363694,268.039585 C74.4432802,268.040889 74.4500866,268.042163 74.4567899,268.043408 C74.4497831,268.042085 74.4430771,268.040836 74.4363694,268.039585 Z M22.0142883,101.081423 C22.0063254,101.11307 21.9986718,101.144122 21.9913056,101.174626 C21.9988558,101.143305 22.0064795,101.112486 22.0142883,101.081423 Z"
                            id="ugid2039"></path>
                    </g>
                </g>
                <path
                    d="M73.1489435,256.88189 C72.1169894,256.625536 71.0796131,256.383104 70.0517301,256.103663 C64.2952867,254.520287 59.2653966,251.660491 55.1097438,247.359869 C47.9404604,239.939001 44.0824618,231.072572 43.7490802,220.711904 C43.6283393,216.819224 44.0777725,212.991373 44.9908974,209.209575 C46.0527205,204.769584 47.7122518,200.574844 49.8845229,196.568712 C53.3530744,190.175506 57.864727,184.61493 63.2008122,179.696666 C67.222394,175.989836 71.6044174,172.76316 76.2998357,169.963707 C80.6941822,167.340296 84.7979816,164.311545 88.7207178,161.030665 C93.65801,156.893134 98.2581827,152.395615 102.818416,147.855344 C106.849752,143.84076 110.831497,139.787676 115.034438,135.961063 C118.196553,133.072765 121.477804,130.333429 125.021016,127.925952 C129.453246,124.919403 134.177639,122.544633 139.454544,121.395077 C143.414043,120.531 147.391744,120.40513 151.398142,121.025271 C155.929001,121.717058 160.307985,122.950425 164.506964,124.800756 C170.932386,127.638809 176.173916,131.940455 180.34367,137.591557 C183.193669,141.471512 185.441192,145.688614 187.453851,150.042845 C189.589332,154.659765 191.465241,159.385652 193.433261,164.077193 C195.652994,169.360648 197.983807,174.586321 200.73065,179.62349 C203.465647,184.643691 206.623306,189.387286 210.19889,193.847487 C214.523468,199.243197 218.182906,205.045348 221.060526,211.343469 C223.509281,216.741699 225.293981,222.338263 226.194346,228.20442 C226.896057,232.773851 227.036545,237.345497 226.46614,241.943555 C225.605594,248.927554 223.247295,255.335009 219.018501,261.007951 C215.103219,266.266011 210.090504,270.158138 204.172262,272.908614 C199.821799,274.929744 195.280776,276.24774 190.477507,276.579172 C188.776358,276.701764 187.069664,276.704349 185.36911,276.571135 C185.131929,276.553119 184.89982,276.556828 184.669238,276.551878 C184.428636,276.637409 184.203177,276.502432 183.967857,276.490695 C183.773336,276.483177 183.587149,276.361077 183.384469,276.450318 L179.096405,275.694217 C178.948491,275.54018 178.740406,275.59276 178.56317,275.537703 L177.659511,275.378364 C174.02257,274.615069 170.606099,273.224092 167.211318,271.777425 C161.461098,269.317314 155.906729,266.436455 150.209539,263.860715 C145.594334,261.779281 140.898128,259.92162 136.039764,258.478745 C132.673273,257.477471 129.236066,256.826763 125.778995,256.339192 C123.014321,255.946928 120.211272,255.890103 117.419875,255.918652 C111.90666,255.985044 106.423596,256.503108 100.939181,257.012006 C95.1363026,257.559974 89.3349509,258.099283 83.5045177,258.029397 C81.1336788,257.99522 78.7691218,257.908587 76.4305863,257.472435 C75.9509955,257.381919 75.4605431,257.369831 74.9762143,257.272528 C74.3635734,257.128795 73.7341223,257.130882 73.1489435,256.88189 Z M215.579981,42.0038572 C223.128882,44.2931085 228.326845,49.2625574 231.734809,56.2552838 C234.07034,61.0503116 235.169379,66.1599635 235.473665,71.4687092 C235.727075,76.0394366 235.329887,80.5638875 234.388252,85.0459 C232.657258,93.2809472 229.330362,100.806093 224.428554,107.63694 C221.033026,112.370677 217.004709,116.469112 212.208726,119.771581 C207.937692,122.705379 203.315638,124.836332 198.195577,125.769536 C194.599463,126.423924 191.019822,126.429537 187.46011,125.581662 C181.295955,124.122792 176.446894,120.708667 172.767755,115.590429 C169.632823,111.222805 167.840107,106.294361 166.926164,101.026901 C166.287808,97.3434979 166.137377,93.6360281 166.375321,89.9137195 C166.534482,87.3618493 166.863948,84.8370326 167.386233,82.3462152 C168.613103,76.4653298 170.687375,70.894552 173.589744,65.642381 C176.673717,60.0502686 180.524739,55.072496 185.326788,50.8605313 C189.366936,47.317663 193.852936,44.5110406 198.952284,42.7528903 C202.699798,41.4586413 206.550852,40.873012 210.519624,41.1175311 C212.696076,41.2722545 213.55524,41.4405768 215.579981,42.0038572 Z M32.6673729,103.007592 C33.2045044,100.668178 34.0361818,98.425335 35.0569407,96.2545169 C37.0352685,92.0356451 39.7070314,88.3437402 43.3701106,85.4247475 C47.4636603,82.1680356 52.1228316,80.41559 57.3540128,80.299468 C61.6013939,80.2092476 65.5890184,81.2724334 69.3523665,83.2036628 C73.6783619,85.4275228 77.2997716,88.5507871 80.3439931,92.3221549 C85.0764283,98.1647193 88.0285777,104.847944 89.5968343,112.176887 C90.4157793,116.014136 90.76626,119.899714 90.6474341,123.821569 C90.5907495,125.724951 90.3910125,127.615012 90.0976562,129.497492 C89.5358958,133.070456 88.5612623,136.511106 87.0730294,139.80168 C85.08821,144.191998 82.373227,148.028043 78.5904178,151.053879 C74.2482654,154.525642 69.2877404,156.28744 63.7278465,156.21467 C59.648119,156.161862 55.8254113,155.038484 52.2271211,153.130407 C47.3904729,150.554644 43.4988712,146.9106 40.2801468,142.513323 C37.1385823,138.2338 34.8768423,133.508321 33.3599649,128.429143 C31.8733586,123.447549 31.1413556,118.343101 31.2738249,113.132197 C31.299702,112.211316 31.3486021,111.294495 31.3854819,110.37853 C31.3627716,109.951976 31.4739712,109.540106 31.4478741,109.115931 C31.4318514,108.937539 31.4862495,108.780491 31.5086572,108.602925 C31.515166,108.380895 31.6537245,108.16727 31.5595069,107.927479 L32.1396247,104.637468 C32.3968782,104.373355 32.3551814,104.020822 32.4346897,103.704538 C32.4941938,103.468047 32.478539,103.203425 32.6673729,103.007592 Z M92.4990652,60.0333595 C93.6765509,53.5069657 95.6418474,47.7800903 98.8198449,42.496176 C101.218803,38.5002578 104.166125,34.9789453 107.903661,32.1593768 C111.930267,29.1140386 116.411218,27.2111398 121.477252,26.8367688 C126.544304,26.4566258 131.248015,27.6490528 135.633501,30.1750214 C139.495787,32.4034124 142.678757,35.4047323 145.349412,38.9554937 C149.615154,44.6175693 152.256401,51.0108932 153.724578,57.9145175 C154.656765,62.3043857 155.049382,66.741947 154.929858,71.2231106 C154.861614,73.7642306 154.634401,76.2981501 154.242973,78.8209682 C153.739926,81.9936381 152.985659,85.1101084 151.914157,88.1408846 C149.681502,94.475272 146.402465,100.16392 141.517979,104.843413 C138.48114,107.744873 135.022298,109.976783 131.023021,111.318886 C126.554228,112.816257 122.025112,112.972853 117.469191,111.800534 C113.34985,110.74388 109.740433,108.696959 106.525388,105.928039 C102.33073,102.31983 99.1992026,97.8992431 96.8207307,92.9270285 C94.0012155,87.0230193 92.4507076,80.7714352 91.9204806,74.2533987 C91.6293147,70.6877529 91.6706506,67.121222 92.0314501,63.5604343 C92.1604019,62.2232756 92.3052697,60.8799962 92.4990652,60.0333595 Z M276.035084,149.845238 L275.90125,150.604249 C274.503095,156.850701 271.777174,162.482142 268.066433,167.657241 C265.149911,171.710684 261.712628,175.267607 257.70873,178.251483 C252.569228,182.088521 246.91477,184.790287 240.563516,185.890264 C236.758826,186.549534 232.963167,186.534912 229.19286,185.652878 C223.628307,184.34437 219.08178,181.435897 215.6327,176.864094 C212.785544,173.085815 211.226925,168.781886 210.586526,164.133995 C210.006742,159.966953 210.208095,155.812667 211.067328,151.697014 C212.950967,142.646759 217.278665,134.881483 223.583569,128.187939 C225.713263,125.921037 228.055853,123.894022 230.595931,122.110129 C235.818664,118.457382 241.496761,115.941302 247.84963,115.067763 C251.460925,114.579716 255.042725,114.696488 258.573465,115.607696 C263.966661,116.99609 268.369452,119.911951 271.702591,124.40082 C274.709472,128.451272 276.24242,133.069074 276.783499,138.044634 C277.082222,140.793294 277.053691,143.54674 276.662018,146.289717 L276.527166,147.0545 C276.33453,147.97871 276.17355,148.908501 276.035084,149.845238 Z"
                    fill="#000000" id="ugid2046"></path>
            </g>
        </g>
    </g>
</svg>
