<svg width="100%" height="100%" viewBox="0 0 170 118" xmlns="http://www.w3.org/2000/svg">
    <g>
        <path
            d="M115.859,13.073c-0.794,0 -1.354,0.096 -1.919,0.235l0,0.095l0.091,-0c0.378,0.747 1.034,1.265 1.498,1.919c0.377,0.75 0.705,1.496 1.079,2.245c0.046,-0.045 0.091,-0.094 0.091,-0.094c0.66,-0.467 0.987,-1.216 0.987,-2.341c-0.283,-0.328 -0.327,-0.654 -0.563,-0.982c-0.28,-0.467 -0.889,-0.702 -1.264,-1.077Z"
            style="fill:#5e89a3;" />
        <path
            d="M41.397,105.458l-6.483,-0c-0.229,-10.943 -0.861,-21.233 -1.894,-30.872l-0.056,-0l-9.872,30.872l-4.936,-0l-9.812,-30.872l-0.057,-0c-0.728,9.257 -1.186,19.547 -1.376,30.872l-5.911,-0c0.382,-13.774 1.338,-26.685 2.868,-38.735l8.035,-0l9.354,28.46l0.057,0l9.411,-28.46l7.689,-0c1.683,14.113 2.678,27.029 2.983,38.735Z"
            style="fill:#0c7691;fill-rule:nonzero;" />
        <path
            d="M69.516,76.878c-2.64,14.326 -6.123,24.735 -10.445,31.23c-3.368,5.004 -7.058,7.506 -11.075,7.506c-1.071,-0 -2.392,-0.323 -3.959,-0.964l-0,-3.453c0.765,0.112 1.664,0.172 2.697,0.172c1.874,-0 3.385,-0.518 4.534,-1.552c1.376,-1.26 2.065,-2.676 2.065,-4.245c-0,-1.072 -0.537,-3.271 -1.607,-6.598l-7.115,-22.096l6.369,0l5.107,16.526c1.147,3.751 1.626,6.372 1.434,7.863c2.793,-7.459 4.744,-15.59 5.855,-24.389l6.14,0Z"
            style="fill:#0c7691;fill-rule:nonzero;" />
        <path d="M155.82,105.458l-18.419,-0l0,-38.735l6.198,-0l0,33.971l12.221,-0l-0,4.764Z"
            style="fill:#f3921f;fill-rule:nonzero;" />
        <path
            d="M109.513,97.709c-1.569,-2.526 -2.355,-6.577 -2.355,-12.165c-0,-9.753 2.966,-14.633 8.895,-14.633c3.1,-0 5.375,1.167 6.83,3.499c1.567,2.526 2.353,6.543 2.353,12.051c-0,9.833 -2.966,14.75 -8.895,14.75c-3.099,0 -5.375,-1.166 -6.828,-3.502Zm23.068,8.683l-7.12,-3.511c0.634,-0.519 1.236,-1.081 1.781,-1.73c3.023,-3.554 4.536,-8.815 4.536,-15.778c0,-12.815 -5.031,-19.226 -15.092,-19.226c-4.935,-0 -8.781,1.625 -11.535,4.88c-3.024,3.558 -4.534,8.798 -4.534,15.723c-0,6.808 1.338,11.804 4.016,14.977c2.449,2.868 6.141,4.304 11.077,4.304c1.843,-0 3.534,-0.227 5.071,-0.681l9.272,5.396l2.528,-4.354Z"
            style="fill:#f3921f;" />
        <path
            d="M97.916,94.721c0,3.285 -1.207,5.982 -3.613,8.092c-2.408,2.1 -5.643,3.154 -9.694,3.154c-3.789,-0 -7.461,-1.212 -11.018,-3.617l1.664,-3.327c3.061,1.531 5.831,2.293 8.318,2.293c2.333,0 4.159,-0.518 5.48,-1.544c1.318,-1.034 2.108,-2.474 2.108,-4.302c-0,-2.301 -1.604,-4.266 -4.547,-5.915c-2.717,-1.491 -8.147,-4.604 -8.147,-4.604c-2.942,-2.146 -4.417,-4.449 -4.417,-8.243c-0,-3.138 1.1,-5.675 3.297,-7.604c2.202,-1.934 5.043,-2.9 8.522,-2.9c3.596,-0 6.866,0.96 9.811,2.871l-1.496,3.325c-2.52,-1.068 -5.005,-1.605 -7.455,-1.605c-1.988,0 -3.52,0.478 -4.588,1.438c-1.074,0.951 -1.738,2.177 -1.738,3.67c0,2.294 1.639,4.284 4.665,5.965c2.751,1.492 8.314,4.665 8.314,4.665c3.025,2.142 4.534,4.426 4.534,8.188Z"
            style="fill:#f3921f;fill-rule:nonzero;" />
        <path
            d="M163.598,53.747c-3.746,-0.094 -6.647,0.28 -9.08,1.311c-0.702,0.279 -1.824,0.279 -1.92,1.169c0.377,0.374 0.422,0.982 0.752,1.499c0.56,0.936 1.541,2.197 2.432,2.855c0.983,0.749 1.966,1.494 2.997,2.15c1.824,1.128 3.884,1.781 5.66,2.905c1.033,0.654 2.059,1.495 3.092,2.2c0.513,0.374 0.838,0.983 1.496,1.215l-0,-0.143c-0.33,-0.42 -0.422,-1.028 -0.748,-1.499c-0.467,-0.464 -0.936,-0.887 -1.405,-1.353c-1.358,-1.825 -3.045,-3.415 -4.866,-4.726c-1.499,-1.033 -4.777,-2.437 -5.383,-4.163c0,-0 -0.049,-0.051 -0.095,-0.096c1.03,-0.095 2.249,-0.47 3.231,-0.754c1.589,-0.42 3.04,-0.326 4.678,-0.745c0.75,-0.188 1.499,-0.424 2.251,-0.654l0,-0.425c-0.847,-0.84 -1.453,-1.965 -2.342,-2.76c-2.385,-2.058 -5.009,-4.069 -7.723,-5.757c-1.453,-0.936 -3.325,-1.542 -4.87,-2.339c-0.559,-0.281 -1.494,-0.42 -1.823,-0.891c-0.843,-1.029 -1.313,-2.385 -1.92,-3.604c-1.356,-2.571 -2.669,-5.424 -3.837,-8.143c-0.842,-1.826 -1.357,-3.649 -2.387,-5.334c-4.823,-7.958 -10.063,-12.776 -18.113,-17.505c-1.732,-0.985 -3.791,-1.405 -5.989,-1.92c-1.172,-0.05 -2.341,-0.14 -3.511,-0.186c-0.75,-0.329 -1.5,-1.219 -2.154,-1.64c-2.669,-1.683 -9.546,-5.334 -11.513,-0.515c-1.264,3.045 1.872,6.04 2.949,7.584c0.795,1.075 1.826,2.294 2.385,3.509c0.328,0.797 0.422,1.639 0.751,2.482c0.748,2.058 1.449,4.352 2.434,6.273c0.513,0.982 1.074,2.014 1.729,2.898c0.378,0.519 1.031,0.749 1.172,1.594c-0.653,0.934 -0.704,2.34 -1.078,3.511c-1.684,5.289 -1.03,11.84 1.358,15.725c0.747,1.169 2.528,3.745 4.915,2.759c2.106,-0.841 1.638,-3.509 2.246,-5.847c0.14,-0.566 0.046,-0.938 0.326,-1.312l-0,0.095c0.655,1.309 1.312,2.569 1.92,3.885c1.453,2.291 3.978,4.678 6.086,6.267c1.12,0.847 2.01,2.294 3.414,2.812l-0,-0.143l-0.092,0c-0.282,-0.419 -0.702,-0.607 -1.077,-0.933c-0.842,-0.844 -1.776,-1.874 -2.434,-2.809c-1.965,-2.621 -3.699,-5.524 -5.24,-8.518c-0.751,-1.455 -1.405,-3.045 -2.014,-4.495c-0.28,-0.558 -0.28,-1.403 -0.749,-1.683c-0.704,1.028 -1.731,1.919 -2.245,3.178c-0.89,2.015 -0.983,4.495 -1.313,7.071c-0.186,0.048 -0.092,-0 -0.186,0.092c-1.496,-0.374 -2.011,-1.918 -2.574,-3.225c-1.404,-3.326 -1.64,-8.663 -0.421,-12.5c0.326,-0.98 1.734,-4.069 1.17,-5.005c-0.283,-0.894 -1.218,-1.403 -1.732,-2.108c-0.607,-0.889 -1.266,-2.012 -1.683,-2.996c-1.124,-2.62 -1.689,-5.522 -2.902,-8.142c-0.562,-1.22 -1.547,-2.484 -2.34,-3.604c-0.891,-1.266 -1.873,-2.154 -2.576,-3.65c-0.232,-0.517 -0.56,-1.358 -0.187,-1.918c0.092,-0.375 0.282,-0.517 0.657,-0.612c0.605,-0.513 2.339,0.14 2.946,0.422c1.733,0.699 3.184,1.358 4.633,2.339c0.656,0.47 1.358,1.358 2.199,1.595l0.985,-0c1.497,0.323 3.183,0.09 4.588,0.513c2.479,0.794 4.725,1.966 6.739,3.229c6.129,3.885 11.184,9.409 14.599,16.007c0.563,1.075 0.799,2.058 1.313,3.18c0.983,2.299 2.201,4.639 3.182,6.883c0.982,2.2 1.92,4.444 3.326,6.271c0.7,0.983 3.509,1.497 4.773,2.013c0.934,0.419 2.387,0.794 3.23,1.308c1.591,0.982 3.179,2.107 4.679,3.185c0.747,0.562 3.088,1.73 3.229,2.668Z"
            style="fill:#0c7691;" />
        <path
            d="M160.244,105.454l1.027,-0l-0,-3.941l1.344,-0l-0,-0.804l-3.767,-0l-0,0.804l1.396,-0l0,3.941Zm7.815,-0l0.968,-0l-0,-4.745l-1.456,-0l-1.185,3.234l-1.29,-3.234l-1.403,-0l-0,4.745l0.916,-0l-0,-3.612l0.052,-0l1.351,3.612l0.698,-0l1.349,-3.612l-0,3.612Z"
            style="fill:#f3921f;fill-rule:nonzero;" />
    </g>
</svg>
