<svg width="2786" height="400" viewBox="0 0 2786 400" xmlns="http://www.w3.org/2000/svg">
   <g id="g4138">
      <path id="path4150" fill="#fbc02d" stroke="none"
         d="M -6.561563 194.457001 L -6.561563 0.125549 L 42.063084 0.125549 C 75.435112 0.125549 91.90197 3.176025 94.55838 9.850372 C 104.547394 34.948578 270.241608 249.715546 277.744019 247.289246 C 283.58078 245.401611 286.265991 206.025452 286.265991 122.321838 L 286.265991 0.110474 L 329.999908 0.1185 L 373.733917 0.126526 L 373.733917 194.457993 L 373.733917 388.789398 L 320.760162 388.789398 C 274.476929 388.789398 266.690277 386.814728 259.107666 373.154388 C 235.549438 330.713257 97.337158 153.735779 89.684387 156.211914 C 83.549988 158.196823 80.906425 193.648026 80.906425 273.928772 L 80.906425 388.805389 L 37.172432 388.797333 L -6.561563 388.789307 L -6.561563 194.457886 Z M 476.413635 194.457001 L 476.413635 0.125549 L 523.950623 0.125549 L 571.487549 0.125549 L 571.487549 194.457001 L 571.487549 388.788422 L 523.950623 388.788422 L 476.413635 388.788422 L 476.413635 194.457001 Z M 666.56134 194.457001 L 666.56134 0.125549 L 714.098328 0.125549 L 761.635254 0.125549 L 761.635254 84.458069 C 761.635254 130.840942 763.750366 168.790588 766.33551 168.790588 C 773.220276 168.790588 817.425171 131.131042 892.615723 61.208527 L 958.945923 -0.474487 L 1019.08905 1.658844 L 1079.232056 3.792175 L 996.789001 73.458191 C 951.445251 111.774475 914.212463 148.523254 914.049561 155.122162 C 913.88678 161.721039 953.263428 216.995483 1001.553406 277.954285 L 1089.353394 388.788422 L 1029.524902 388.788422 L 969.696411 388.788422 L 909.399719 302.62262 C 876.236633 255.231415 844.981384 216.456787 839.943665 216.456787 C 834.906006 216.456787 815.225708 228.995895 796.209656 244.321503 L 761.635254 272.186218 L 761.635254 330.487335 L 761.635254 388.788422 L 714.098328 388.788422 L 666.56134 388.788422 L 666.56134 194.457001 Z M 1133.959961 331.955658 C 1149.328003 300.697632 1190.778931 213.280945 1226.073608 137.696411 L 1290.24585 0.269928 L 2041.329102 0.197784 L 2792.412598 0.125549 L 2792.412598 194.457001 L 2792.412598 388.788391 L 2134.712891 388.788391 L 1477.013428 388.788391 L 1460.522949 351.829437 C 1451.453247 331.502014 1437.892456 311.702209 1430.387939 307.829895 C 1412.519897 298.609924 1266.655518 298.709564 1248.740112 307.953949 C 1241.103271 311.894501 1228.672852 331.694336 1221.116821 351.953522 L 1207.378784 388.788391 L 1156.698608 388.788391 L 1106.018555 388.788391 L 1133.959961 331.955627 Z M 1397.140747 232.731873 C 1401.730713 221.199402 1351.477661 107.80365 1340.165771 104.168182 C 1331.546387 101.398102 1288.250244 187.790558 1281.135132 221.956726 L 1276.935425 242.123199 L 1335.169189 242.123199 C 1375.483154 242.123199 1394.553101 239.233276 1397.140747 232.731873 Z" />
      <text xml:space="preserve"
         style="font-style:normal;font-weight:normal;font-size:397.18811035px;line-height:125%;font-family:sans-serif;letter-spacing:0px;word-spacing:0px;fill:#000000;fill-opacity:1;stroke:none;stroke-width:1px;stroke-linecap:butt;stroke-linejoin:miter;stroke-opacity:1"
         x="246" y="309" transform="scale(0.95881214,1.0429572)">
         <tspan id="tspan4168" x="246" y="309"
            style="font-style:normal;font-variant:normal;font-weight:normal;font-stretch:normal;font-family:Ubuntu;-inkscape-font-specification:Ubuntu">
            MEBEL</tspan>
      </text>
   </g>
</svg>
