<svg width="500" height="500" viewBox="0 0 500 500" xmlns="http://www.w3.org/2000/svg">
    <path id="background" fill="#690dd3" fill-rule="evenodd" stroke="none"
        d="M 0.069122 372.51593 C 0.030947 442.923401 57.076538 500.030884 127.484016 500.069061 L 372.5159 500.201904 C 442.923401 500.240082 500.030884 443.194489 500.069061 372.787018 L 500.201904 127.755127 C 500.240082 57.347626 443.194489 0.240143 372.787018 0.201965 L 127.755112 0.069122 C 57.347641 0.030945 0.240155 57.076538 0.201979 127.484009 Z" />
    <path id="logo" fill="#ffffff" stroke="none"
        d="M 283.770203 372.927277 L 283.770203 291.39093 L 215.421585 291.39093 L 215.421585 372.927277 L 163.171692 372.927277 L 226.561813 437.199188 C 239.274796 450.114655 259.916992 450.114655 272.651825 437.199188 L 336.020111 372.927277 L 283.770203 372.927277 Z M 129.008301 338.267273 L 129.008301 162.956482 L 65.618172 227.228394 C 52.905197 240.144043 52.905197 261.079895 65.618172 273.995392 L 129.008301 338.267273 Z M 215.421585 128.274658 L 215.421585 209.832855 L 283.770203 209.832855 L 283.770203 128.274658 L 336.020111 128.274658 L 272.651825 63.980927 C 259.916992 51.08728 239.274796 51.08728 226.561813 63.980927 L 163.171692 128.274658 L 215.421585 128.274658 Z M 433.573639 227.206543 L 370.183502 162.912811 L 370.183502 338.223602 L 433.573639 273.929871 C 446.286591 261.036255 446.286591 240.100189 433.573639 227.184723" />
</svg>
