<svg width="100%" height="100%" viewBox="0 0 105 105" version="1.1" xmlns="http://www.w3.org/2000/svg" xmlns:xlink="http://www.w3.org/1999/xlink" xml:space="preserve" xmlns:serif="http://www.serif.com/" style="fill-rule:evenodd;clip-rule:evenodd;stroke-linejoin:round;stroke-miterlimit:2;">
    <g transform="matrix(4.16667,0,0,4.16667,0,0)">
        <g>
            <g transform="matrix(1.09414,0,0,1.07684,0,-0.878096)">
                <path d="M17.21,0.833L5.644,0.833C2.527,0.833 0,3.395 0,6.555L0,18.282C0,21.442 2.527,24.004 5.644,24.004L17.211,24.004C20.327,24.004 22.854,21.442 22.854,18.282L22.854,6.555C22.854,3.395 20.327,0.833 17.211,0.833" style="fill:rgb(105,13,211);fill-rule:nonzero;"/>
            </g>
            <g transform="matrix(1.07628,0,0,1.07628,0.187734,-0.882913)">
                <path d="M12.991,18.015L12.991,14.284L9.862,14.284L9.862,18.015L7.47,18.015L10.372,20.956C10.954,21.547 11.899,21.547 12.482,20.956L15.383,18.015L12.991,18.015ZM5.906,16.429L5.906,8.407L3.004,11.348C2.422,11.939 2.422,12.897 3.004,13.488L5.906,16.429ZM9.862,6.82L9.862,10.552L12.991,10.552L12.991,6.82L15.383,6.82L12.482,3.878C11.899,3.288 10.954,3.288 10.372,3.878L7.47,6.82L9.862,6.82ZM19.849,11.347L16.947,8.405L16.947,16.427L19.849,13.485C20.431,12.895 20.431,11.937 19.849,11.346" style="fill:white;fill-rule:nonzero;"/>
            </g>
        </g>
    </g>
</svg>
