<svg width="100%" height="100%" viewBox="0 0 500 84" xmlns="http://www.w3.org/2000/svg">
    <g fill="#5bba47" fill-rule="nonzero">
        <path d="M93.431,71.582l-12.147,-0l0,-42.954l43.734,0l-0,42.954l-12.144,-0l0,-34.609l-19.443,0l-0,34.609Z" />
        <path
            d="M130.912,40.409l0,42.527l11.193,-0l0,-14.543c3.755,4.051 9.864,4.354 11.339,4.354c10.678,-0 17.23,-6.811 17.23,-16.69c-0,-10.309 -6.479,-16.814 -17.006,-16.814c-2.655,0 -7.808,0.43 -12.08,4.91l-0.221,0l0.072,-3.744l-10.527,-0Zm10.676,15.524c-0,-8.711 5.377,-10.428 8.765,-10.428c3.315,-0 8.689,1.717 8.689,10.428c-0,5.403 -2.283,10.559 -8.689,10.559c-6.552,-0 -8.765,-5.156 -8.765,-10.559Z" />
        <path
            d="M198.431,67.84c-4.121,3.865 -8.093,4.907 -12.516,4.907c-12.074,-0 -12.516,-9.081 -12.516,-12.823l-0,-19.515l11.189,-0l0,18.041c0,6.201 2.141,8.042 6.262,8.042c7.066,-0 7.581,-6.321 7.581,-8.595l-0,-17.488l11.199,-0l-0,31.173l-11.199,-0l-0,-3.742Z" />
        <path
            d="M225.682,58.45l6.849,-0c5.298,-0 6.403,1.598 6.403,3.685c-0,1.348 -0.739,3.189 -6.265,3.189l-6.987,-0l0,-6.874Zm-11.193,-18.041l0,31.173l22.238,-0c8.098,-0 13.693,-1.598 13.693,-7.979c0,-4.907 -2.728,-7.054 -8.91,-8.159l0,-0.186c4.051,-0.55 7.587,-3.066 7.587,-7.3c0,-7.549 -8.837,-7.549 -12.298,-7.549l-22.31,-0Zm11.193,6.261l6.034,-0c3.167,-0 5.888,0.489 5.888,3.065c0,2.826 -4.268,2.886 -6.109,2.886l-5.813,0l0,-5.951Z" />
        <path
            d="M264.556,50.474c0,-4.603 4.859,-4.969 6.849,-4.969c1.253,-0 5.888,0.06 6.04,4.111l-0,0.858c-0.221,3.066 -3.167,2.454 -11.411,3.496c-6.779,0.922 -13.921,2.639 -13.921,9.759c-0,2.577 1.105,9.018 13.034,9.018c4.568,-0 9.576,-1.165 12.516,-4.231l0.227,-0l0.953,3.066l11.781,-0l-0,-0.55c-2.135,-0.432 -2.283,-2.516 -2.211,-5.895l0.222,-14.236c0.075,-3.616 -0.294,-11.658 -17.155,-11.658c-4.051,0 -17.084,0.367 -17.599,11.231l10.675,0Zm12.961,8.222c0,6.258 -5.449,7.796 -8.171,7.796c-2.065,-0 -5.747,-0.679 -5.747,-3.622c0,-3.498 4.197,-4.174 6.555,-4.48c4.345,-0.616 3.975,-0.429 7.363,-1.658l0,1.964Z" />
        <path d="M289.888,46.67l-0,-6.261l35.931,-0l0,6.261l-12.37,-0l-0,24.912l-11.19,-0l-0,-24.912l-12.371,-0Z" />
        <path
            d="M340.107,36.973l27.905,0l-0,-8.345l-40.058,0l-0,42.954l24.593,-0c11.932,-0 19.585,-4.171 19.585,-12.949c0,-13.741 -15.313,-14.05 -19.585,-14.05l-12.44,-0l-0,-7.61Zm-0,15.955l10.084,-0c2.953,-0 8.838,0.309 8.838,5.462c-0,4.048 -4.272,4.847 -9.056,4.847l-9.866,-0l-0,-10.309Z" />
        <path
            d="M386.716,50.474c0,-4.603 4.863,-4.969 6.846,-4.969c1.253,-0 5.894,0.06 6.043,4.111l-0,0.858c-0.224,3.066 -3.167,2.454 -11.421,3.496c-6.769,0.922 -13.911,2.639 -13.911,9.759c-0,2.577 1.102,9.018 13.031,9.018c4.565,-0 9.573,-1.165 12.519,-4.231l0.218,-0l0.959,3.066l11.781,-0l-0,-0.55c-2.128,-0.432 -2.283,-2.516 -2.207,-5.895l0.221,-14.236c0.072,-3.616 -0.297,-11.658 -17.161,-11.658c-4.045,0 -17.081,0.367 -17.596,11.231l10.678,0Zm12.958,8.222c0,6.258 -5.449,7.796 -8.171,7.796c-2.062,-0 -5.743,-0.679 -5.743,-3.622c-0,-3.498 4.193,-4.174 6.548,-4.48c4.348,-0.616 3.978,-0.429 7.366,-1.658l0,1.964Z" />
        <path
            d="M426.771,71.582l-11.193,-0l0,-31.173l11.193,-0l0,11.72l13.476,-0l-0,-11.72l11.193,-0l-0,31.173l-11.193,-0l-0,-13.192l-13.476,-0l0,13.192Z" />
        <path
            d="M479.715,40.409l12.44,-0l-15.386,14.603l16.125,16.57l-13.11,-0l-12.074,-13.621l-0.218,-0l0,13.621l-11.19,-0l0,-31.173l11.19,-0l0,12.519l0.218,-0l12.005,-12.519Z" />
        <path
            d="M56.912,14.821l0,42.057l-5.721,-0c-2.469,-20.798 -15.534,-33.864 -36.339,-36.333l0,-5.724l42.06,-0Zm-56.884,-14.821l0,34.896l7.414,-0c19.51,-0 29.402,9.889 29.402,29.392l-0,7.41l34.889,0l0,-71.698l-71.705,0Z" />
    </g>
    <rect fill="#231f20" fill-rule="nonzero" x="0" y="43.661" width="28.035" height="28.031" />
</svg>
