<svg width="492" height="492" viewBox="0 0 492 492" xmlns="http://www.w3.org/2000/svg">
    <g id="Group">
        <path id="Path" fill="#E60C2A" stroke="none" d="M 0 246 L 0 492 L 492 492 L 492 0 L 0 0 Z M 412.700012 181.5 C 417.700012 184.599976 422.099976 187.400024 422.400024 187.900024 C 422.700012 188.299988 421.700012 190.700012 420.099976 193.200012 C 416.700012 198.599976 408.900024 203.900024 398.299988 208.099976 C 386.200012 212.900024 377.099976 218 374.400024 221.5 C 373.099976 223.299988 372 224.900024 372 225.200012 C 372 225.5 374.5 224.400024 377.5 222.900024 C 397 213.099976 421.099976 223.799988 427.400024 245 C 431.299988 258.100006 427.299988 273.799988 417.5 283.5 C 409.599976 291.5 399.700012 295.200012 386.599976 295.099976 C 365.700012 295.099976 349 283 343.5 263.799988 C 341.099976 255.799988 341.099976 240.100006 343.299988 231.299988 C 348.099976 212.900024 357.900024 202.400024 381 191.099976 C 388.900024 187.200012 393.799988 184.099976 397 180.900024 C 399.5 178.400024 401.900024 176.200012 402.5 176.200012 C 403 176.099976 407.599976 178.5 412.700012 181.5 M 149.799988 249.700012 L 149.5 291.5 L 125.5 291.5 L 125.200012 261.200012 L 125 231 L 96 231 L 95.799988 261.200012 L 95.5 291.5 L 71.5 291.5 L 71.200012 249.700012 L 71 208 L 150 208 Z M 190.399994 229.700012 C 196.399994 241.700012 201.5 250.899994 201.700012 250.299988 C 202 249.600006 205 239.899994 208.399994 228.799988 L 214.700012 208.5 L 227.799988 208.200012 C 235.100006 208.099976 241 208.200012 241 208.599976 C 241 209.599976 214.399994 282.900024 212.100006 288.299988 C 207.5 299 199.799988 307.5 190.5 312 C 184.100006 315.200012 170.399994 317.799988 168.899994 316.299988 C 168.299988 315.700012 168.100006 310.200012 168.200012 303.900024 C 168.5 292.5 168.5 292.5 173.899994 291.799988 C 181.299988 290.700012 185.399994 288.5 187.600006 284.400024 C 189.5 281 189.5 281 171.200012 244.5 L 153 208 L 179.5 208 Z M 279.5 224.200012 L 289.5 239.899994 L 293.400024 233.700012 C 311.200012 205.799988 308.700012 208 322 208 L 334 208 L 333.799988 249.700012 L 333.5 291.5 L 310.5 291.5 L 310.200012 269.599976 L 310 247.700012 L 300.900024 261.100006 C 295.900024 268.5 291.200012 275.099976 290.5 275.799988 C 289.5 277 287.5 274.700012 279.400024 262.899994 L 269.5 248.600006 L 269 270.099976 L 268.5 291.5 L 245.5 291.5 L 245.200012 249.700012 L 245 207.900024 L 257.200012 208.200012 C 269.400024 208.5 269.400024 208.5 279.5 224.200012"/>
        <path id="path1" fill="#bf0000" stroke="none" d="M 375.599976 241.299988 C 366.099976 246.600006 364.900024 260 373.200012 267.700012 C 378.400024 272.599976 388.700012 273.5 395.5 269.700012 C 400 267.200012 404 260.5 404 255.5 C 404 250.100006 400 243.799988 395 241.200012 C 389 238.200012 380.900024 238.200012 375.599976 241.299988"/>
    </g>
</svg>
