<svg xmlns="http://www.w3.org/2000/svg" height="47.13mm" viewBox="0 0 256.21217 166.99535" width="72.309mm">
    <g transform="translate(-11.894 -15.591)">
        <path id="text"
            d="m40.399 158.06c0 5.8938-2.5702 9.6062-7.7124 11.138l9.3462 12.979h-7.6631l-8.5292-12.005h-7.918v12.005h-6.0293v-35.715h13.282c5.4492 0 9.3516.92 11.701 2.76 2.3481 1.84 3.5234 4.7838 3.5234 8.8388zm-14.97 6.645c3.4096 0 5.7255-.53 6.9486-1.585 1.2286-1.055 1.8409-2.75 1.8409-5.0825s-.62887-3.9338-1.8896-4.805c-1.2608-.86625-3.5122-1.2988-6.7431-1.2988h-7.6636v12.771h7.5069zm29.198 10.3c1.6176 1.65 3.6689 2.4788 6.1532 2.4788 2.4892 0 4.54-.82875 6.1588-2.4788 1.6181-1.6562 2.4248-3.7888 2.4248-6.4138s-.80662-4.7625-2.4248-6.4138c-1.6188-1.65-3.6695-2.4788-6.1588-2.4788-2.4844 0-4.5356.82875-6.1532 2.4788-1.6188 1.6512-2.4254 3.7888-2.4254 6.4138s.80662 4.7575 2.4254 6.4138zm16.371 3.5225c-2.7226 2.7062-6.1259 4.0638-10.218 4.0638-4.0864 0-7.4908-1.3575-10.218-4.0638-2.7221-2.7062-4.0859-6.0188-4.0859-9.9362 0-3.9188 1.3638-7.2312 4.0859-9.9362 2.7275-2.7075 6.1319-4.065 10.218-4.065 4.0919 0 7.4951 1.3575 10.218 4.065 2.7276 2.705 4.0919 6.0175 4.0919 9.9362 0 3.9175-1.3642 7.23-4.0919 9.9362zm16.94-3.52c1.6186 1.65 3.6699 2.4788 6.1538 2.4788 2.4889 0 4.5406-.82875 6.1592-2.4788 1.6181-1.6562 2.4242-3.7888 2.4242-6.4138s-.80612-4.7625-2.4242-6.4138c-1.6186-1.65-3.6704-2.4788-6.1592-2.4788-2.4839 0-4.5351.82875-6.1538 2.4788-1.6181 1.6512-2.4244 3.7888-2.4244 6.4138s.80625 4.7575 2.4244 6.4138zm16.371 3.5225c-2.7218 2.7062-6.126 4.0638-10.217 4.0638-4.0859 0-7.4901-1.3575-10.218-4.0638-2.7226-2.7062-4.0854-6.0188-4.0854-9.9362 0-3.9188 1.3628-7.2312 4.0854-9.9362 2.7281-2.7075 6.1324-4.065 10.218-4.065 4.0914 0 7.4956 1.3575 10.217 4.065 2.7285 2.705 4.0922 6.0175 4.0922 9.9362 0 3.9175-1.3638 7.23-4.0922 9.9362zm16.302-11.062v14.716h-5.7212v-27.18h5.7212v4.9575c.81688-1.6725 2.0508-2.9812 3.7016-3.935 1.6558-.9525 3.4311-1.4338 5.3412-1.4338 4.292 0 7.2036 1.775 8.7361 5.3138 2.6888-3.5388 6.045-5.3138 10.066-5.3138 3.0625 0 5.5412.93625 7.43 2.8138 1.8938 1.8725 2.8362 4.5788 2.8362 8.1238v16.654h-5.72v-14.916c0-5.0112-2.0788-7.5125-6.2362-7.5125-1.9425 0-3.6362.6225-5.0812 1.8625-1.45 1.2438-2.2075 3.0575-2.2725 5.445v15.121h-5.7215v-14.916c0-2.5925-.45937-4.4925-1.3794-5.6988-.92038-1.2062-2.3711-1.8138-4.3461-1.8138-1.9751 0-3.6964.65625-5.1578 1.9662-1.4668 1.3138-2.1968 3.23-2.1968 5.7462zm71.368 3.6312h-21.301c.13625 1.9762 1.0388 3.5662 2.7062 4.7738 1.6725 1.2125 3.5762 1.8125 5.7262 1.8125 3.4038 0 5.9912-1.0712 7.76-3.2138l3.275 3.5712c-2.9338 3.0312-6.7438 4.5512-11.446 4.5512-3.815 0-7.0575-1.2712-9.7312-3.8088-2.6738-2.5388-4.01-5.9438-4.01-10.219 0-4.275 1.3588-7.6688 4.0863-10.191 2.7212-2.5212 5.9312-3.7825 9.6275-3.7825 3.6962 0 6.84 1.12 9.4275 3.35s3.88 5.3038 3.88 9.2225v3.9338zm-21.301-4.4975h15.581c0-2.2825-.715-4.0362-2.1425-5.265-1.4338-1.2238-3.1938-1.835-5.2888-1.835-2.0938 0-3.9775.63875-5.6438 1.9162-1.6725 1.2775-2.5062 3.0038-2.5062 5.1838zm41.841-6.2338c-2.8262 0-4.9525.92-6.3875 2.76-1.4275 1.84-2.1425 4.3075-2.1425 7.4088v11.648h-5.72v-27.18h5.72v5.4662c.92-1.705 2.17-3.1012 3.7562-4.1888 1.58-1.0875 3.2575-1.65 5.0325-1.6888l.0487 5.775h-.3075zm6.8512-13.899h6.0288v35.715h-6.0288zm42.706 0h6.03v35.715h-6.5388l-20.23-26.054v26.054h-6.0288v-35.715h6.0288l20.739 26.671v-26.671"
            fill="currentColor" />
        <path
            d="m212.18 145.2v.2875c-54.754-7.425-109.24-7.22-163.48.86v-.2875c.1895-.0913.37887-.19375.57912-.29125.0869-.0925.189-.19.28175-.28125 3.3384-1.6838 6.748-3.1075 10.304-4.2925.90963-.0975 1.7378-.22125 2.5116-.37875-4.0375-6.2288-7.1929-12.956-9.374-19.96-2.4296-7.7825-3.6904-15.932-3.6904-24.164 0-22.385 9.0859-42.664 23.753-57.336l.0108-.01c14.672-14.668 34.951-23.755 57.335-23.755 22.385 0 42.663 9.0875 57.336 23.755l.0112.01c14.666 14.672 23.754 34.951 23.754 57.336 0 8.02-1.2025 15.981-3.5188 23.601-2.0838 6.8625-5.0925 13.455-8.9412 19.576 4.2712 1.4338 8.2912 2.765 12.265 4.7612.2.0875.39.19.57875.28125.0913.0975.18875.19625.28125.2875zm-142.59-7.31c-3.7392-5.515-6.6948-11.506-8.8051-17.762-2.5225-7.5062-3.8476-15.43-3.8476-23.434 0-20.28 8.2314-38.659 21.523-51.951s31.672-21.524 51.95-21.524c20.28 0 38.658 8.2312 51.95 21.524 13.294 13.292 21.525 31.671 21.525 51.951 0 7.62-1.2012 15.185-3.5012 22.384v.005c-2.0088 6.2512-4.85 12.236-8.4588 17.774l1.995 1.0338c3.865-5.96 6.8638-12.421 8.9088-19.164 2.1488-7.08 3.27-14.516 3.27-22.033 0-20.891-8.4812-39.822-22.168-53.521-13.699-13.686-32.63-22.168-53.521-22.168-20.89 0-39.822 8.4812-53.52 22.168-13.687 13.699-22.168 32.63-22.168 53.521 0 7.695 1.1796 15.305 3.4424 22.561 2.1752 6.9762 5.3628 13.634 9.476 19.744.66563-.34125 1.3048-.7025 1.9482-1.1088zm119.72-1.9538c3.6588-5.5 6.5212-11.452 8.5138-17.676 2.2075-6.9112 3.36-14.19 3.36-21.566 0-19.532-7.9288-37.23-20.734-50.035s-30.502-20.734-50.035-20.734c-19.532 0-37.229 7.9288-50.035 20.734-12.805 12.805-20.733 30.502-20.733 50.035 0 7.7325 1.272 15.369 3.6962 22.578 2.2402 6.6475 5.4771 12.968 9.606 18.721 2.8794-.28125 7.5874-3.675 9.8238-3.675 1.9155 0 3.6636 1.5962 5.731.57875 2.0346-2.035 5.4824-3.155 8.3022-3.155.18888-.0925.3725-.18375.57313-.28625h1.148c0 2.3862 1.2989-.5575 2.8516-.5575.292.0862.58.17375.86075.27625 2.4034 0 5.5528-2.625 7.7285-3.7238.45463-.45.66025-.255 1.147 0 .0976.0975 4.0542.21125 4.1568.3025 2.0186 0 4.1782.24375 6.4405-.87125.50875 0 .687-.065 1.1474-.28625.84963 0 2.5381.28625 3.106.28625 2.8632-2.6688-1.4718-8.48-2.5376-13.172-.0703-.2925-.13575-.6-.28225-.855-.14013-.23875-.38913-.385-.57275-.57375-.0976-.0925-.18988-.195-.28713-.2875-.103-.1025-.19475-.195-.29237-.2925-1.8995-1.7262-4.4215-3.615-8.8488-3.49-.19525.005-.4115-.0213-.601.0587-1.7046.775-3.5771 2.7775-5.439 2.8688-.21087.006-.37837.19-.57375.28125-.18937.0975-.36275.2175-.56837.28125-.0971.0275-.2055.045-.28663 0-.11912-.0587-.17275-.21-.2865-.28125-.17337-.11875-.379-.215-.56837-.28125-.0919-.0325-.19538-.0325-.28175 0-.2105.0663-.41113.1625-.57863.28125-.11375.0713-.168.2175-.28712.28125-1.2602.6825-3.1445 1.635-4.5894 1.7162-.206.0163-.35737.2275-.55712.2925-.0976.0312-.21188.0375-.29788 0-1.1474-.53125-1.3154-1.2938-2.8579-.58-.0864.0487-.25438.0925-.292 0-.0917-.265-.0489-.5725 0-.84875.0489-.20625.20562-.38375.292-.58.11912-.275.47075-.5675.3355-.84375-.0973-.21125-.45413.11375-.6275.28125-1.9048 1.7962-2.6952 0-3.4311-1.7212-.11912-.27.2055-.66 0-.86-.20562-.20625-.66062-.20625-.86087 0-.20013.2.0704.57875 0 .86-.0591.20625-.292.33625-.34075.5425-.0489.19375.249.58375.0541.605-1.0449.0975-2.1001-.11875-3.1552-.28625-.124-.0225-.21638-.17375-.28125-.2925-.80125-1.52.22162-2.2512.86625-3.4362.059-.11375.19962-.17375.27537-.2825.13575-.1775.52488-.465.33588-.5625-.27588-.135-.60588.17875-.89888.27625-.29737.0975-.59525.1575-.86037.28625-2.165 1.0338-6.4404-1.97-4.0098-3.155 3.4042-1.6388 3.9068-3.82 6.5864-5.4388.23788-.14.5845.0537.86038 0 .20562-.0375.3575-.28125.56787-.28625 3.0092-.0875 4.9521-2.5438 7.7398-2.29.37838.0375.54638.325.8545.56875.69288.57875 1.0556 1.2925 1.7162.57875 4.4166-4.7512 10.336.74125 14.314-2.0025 1.1578-.795-1.2011-1.26-2.0131-.86-.50838.265-1.0879.61625-1.4234 0-3.436-6.4362-7.6957 1.2775-11.101.68125-.71388-.11875-1.1362-.61125-1.4936-1.25-.0702-.11875-.16212-.28125-.29737-.2925-1.748-.0913-2.793 1.5162-4.8604 1.4288-.29787-.005-.56787-.21125-.86037-.28125-.77925-.21125-1.4184-.065-1.142-.855.13038-.38875.73625-.28125.9145-.65 2.0948-4.1288-7.041 2.5988-3.2036-2.2125.69825-.88875.40575-1.9825.28712-2.8688-.2925-2.1588 1.2671-.71 2.5758-1.9975.37938-.39.82763-.72 1.142-1.1475.71975-1.0012.2705-2.5162.28663-3.7288.022-1.385.5845-1.4075 1.5865-2.3862.0805-.065-.0978-.30875-.16263-.2325-.71437.71875-5.5151-3.0912-3.5615 1.0825 1.1586 2.4838-.8335 1.4988-2.1539 3.5438-.50875.77375-.83888.325-1.1528-.28625-.60113-1.2175-1.2018-3.5725-2.5386-3.5725-.94675-.01-1.2178 2.3988-2.0292 1.8512-.93125-.60625-1.813-2.0838-1.732-3.15.0166-.135.168-.21625.293-.28125.50288-.2925 1.228-.3575.94188-.87125-.4175-.73-1.5269-.77375-2.0899-1.4238-.0595-.075-.0815-.2425 0-.28625.74713-.34125 6.5538-1.18 5.7208-2.0025-.124-.135-.40037.0925-.563 0-2.4355-1.4175-5.2441.80625-4.584-3.7288.103-.65 1.7369.6225 2.0132 0 .35688-.82875-1.2446-1.645-.57962-2.2788.6885-.66 2.626.92 2.8632 0 .314-1.2062-2.9439-1.8775-2.0078-2.5812 1.2344-.92625 3.1064-.1675 4.5849.28125.459.14625.95225.44875 1.4282.335.211-.06-.26512-.39-.28125-.61625-.0702-.79625.1675-1.245.99563-1.0175 4.8008 1.3575 7.2954-.56875 11.603-2.1325.19437-.0713.52975-.50875.32475-.5625-3.4751-.74125-6.4674-.0487-10.067.5625-.0919.0113-.065-.21125 0-.28125.80075-.8925 1.4018-1.2938 2.5766-1.7162 4.9516-1.8012-10.63.89875-6.5806-3.1488.0967-.0987.24275-.16375.28663-.2925.0596-.185.0596-.39 0-.57375-.0439-.13-.18988-.18875-.28663-.27625-.1035-.1075-.17325-.2375-.29287-.2975-1.8506-.96875 1.8182-.73625 2.3008-.57375.687.24375 2.1211.595 2.8569.57375.69825-.0275.0215-1.0988 0-1.4338-.1245-2.0525 2.2461-.845 4.0108-1.1375.29688-.0538-.27637-.5575-.28125-.86625-.0874-2.9162 10.569-4.2262 8.8642-5.1512-.97412-.53625-4.0918.01-3.9995-1.435.005-.135.17388-.2225.28713-.28125 2.019-1.0612 4.7896-.2925 6.8681-1.1475 2.0455-.84375-1.7534-.70875-2.2949-2.0025-.915-2.23 5.2817-1.2988 6.8681-.86 1.5855.4275 4.6759-.06 6.3048.2875 1.0229.215 1.8515.1125 2.8632.29125 1.3799.23875 1.6235.30375.57375 1.4288-.15188.1575-.54738.54125-.336.5525 5.3741.21625.67637 2.1488 3.7666 3.1662.37938.11875 1.0235.7075 1.1368.33.25975-.76875-.47612-1.51-.5625-2.3325-.168-1.5588 1.586-1.2338 2.8628-1.7162.4815-.18375-.38962-1.39-.56837-1.72-1.5102-2.7725 4.4864-.67125 5.7256-.2875 1.5912.4975 3.7138-.465 4.5788.57875.125.14-.0425.38375 0 .56875.0488.19875.1675.4.28125.56875.0813.1125.19.21.2975.29125.16375.13.33.2975.54125.34625 6.5762 1.515 13.661.1675 12.914 5.0925-.01.0925 0 .19 0 .2775 0 .0962.0275.2 0 .29125-.0863.2925-.585.66625-.34125.85625.39625.29125 1.0225.18375 1.4838.004 1.5362-.5675 3.55-.94625 5.1575-.86.135.0112.24875.1575.28125.2925.065.275.11375.59 0 .855-.4875 1.2012-1.6662 2.1212-1.77 3.425-.0325.40625.79-.2325 1.1962-.28125.47125-.0425.99-.1725 1.4338 0 .17375.0762.055.39625 0 .575-.0425.135-.18875.2-.28125.29125-.1025.0975-.2325.17375-.2925.2875-.0375.0813-.08.2375 0 .28125 1.185.68125 2.62.8875 3.7238 1.4288.19.0975.4225.14.56875.2925.075.07.075.22125 0 .2925-.14625.14-.36875.22125-.56875.27625-.18875.0475-.38875-.0387-.57875 0-.2.0525-.37875.19375-.5625.28625-.195.1025-.36875.24875-.57375.2925-.2875.0537-.66-.20625-.86125 0-.205.2-.2325.6925 0 .86.30375.22625.8075-.1675 1.1425 0 1.5588.77375 3.82.1675 3.7288 2.8575 0 .13-.1575.27125-.2925.2925-.7575.0813-1.5262.065-2.2888 0-.30375-.0275-.59-.18-.855-.2925-.2-.0925-.34125-.31875-.55875-.34125-.5725-.07-1.1788.2175-1.7312.06-.18375-.06-.0487-.39 0-.58.065-.28625.47125-.5625.33-.84375-.0975-.205-.44375.13-.6225.28125-.5025.40625-.985 1.0012-1.4338.5625-.925-.8925-1.64-2.5538-2.565-3.435-.1625-.1475-.41125-.47125-.56875-.32625-.15625.1575.27125.385.27625.6125.0812 2.37.93 3.8038-1.1475 5.7262-.135.13-.395.0537-.5675 0-.125-.0438-.2-.19-.2925-.27625-.84375-.83875-1.3375-1.1962-2.0025-2.3012-.11375-.1825-.46-.51875-.5575-.32375-.2225.4375.065.985-.0162 1.4775-.0225.13-.15125.275-.2875.28125-1.9.0913-2.835-1.1362-4.5725-1.1362-.855 0-1.1588.28125-1.7212.855-.10375.0925-.195.18375-.2925.28125-.0863.0913-.1725.21625-.28125.28125-.21125.14625-.4925.56375-.67125.385-4.6438-4.6-5.92.38875-1.0825-.23875.585-.07 1.1638.135 1.7538.15125 1.2662.0325 2.8475-.4825 3.7238.56375.11875.14.0588.4 0 .57375-.0488.12375-.2225.1725-.2925.28125-.14125.275-.61125.71875-.33.855.44375.2275.985-.24375 1.4775-.27625 1.1475-.06 2.425-.5475 3.4362 0 .8275.44375-.21 1.06-.0537 1.9912.0812.48625 1.0175.185 1.4825.0113 1.5212-.5625 2.4188-1.2025 4.01-2.0025 1.105-.5575 1.4138.6275 2.0088 1.7212.06.11375.14625.27625.28125.28125 1.8512.0925 12.312 2.2025 5.1525 2.295-.20125.004-.3625.2425-.57375.28125-.28125.0537-.65-.2-.855 0-.15125.15625.11875.44875.28625.57375.24375.18375.64875.075.86125.28125.12875.14.0587.4 0 .57875-.06.20625-.3475.33-.3475.5525-.005 1.585-.005 2.2075 1.7812 2.5975 4.5838.99 5.2012 7.7775 4.005 6.5812-.47625-.47125-.9575-.9525-1.4288-1.4238-.0975-.0975-.1525-.28125-.2875-.2925-1.1412-.0862 1.9 3.7188-3.415 4.8162-1.0975.2175-1.78.0387-1.1688-1.0925.065-.11375.19-.195.28125-.29125.10875-.0975.395-.20625.2875-.2825-5.57-4.1725-9.1675 3.2912-9.445 1.7212-.34625-1.9488-4.0912-1.255-6.2988-1.4388-4.3038-.3525 5.3412 3.35 5.445 3.4462 1.2012 1.2125-1.56 1.8188-.58 2.285 2.035.97875 2.3925-.006 4.01-.56875 2.1438-.7525 5.2012.93625 7.1612.855.2-.005.38875.1675.57375.2925.11375.065.21.1675.28125.28125.11875.1725.21625.37375.28625.5675.0325.0987.0488.2125 0 .2925-.0588.11875-.195.185-.28625.28125-.785.785-2.29 1.9812-.57375 2.0088.19 0 .39.0425.57375 0 .205-.0488.3675-.26625.57875-.28125.985-.0813 1.4988-.38 2.0025-1.1525.87625-1.3488 6.96-1.2612 6.8675 1.1525-.005.205-.1675.39-.28125.5625-.075.11375-.21125.18375-.28125.2925-.135.1725-.55125.54625-.34625.5525 5.185.22125.74625 2.9975-1.0938 1.1625-.9625-.9575-2.2675-1.7538-4.2638-1.775-1.96-.0112-.98625 1.37.97375 2.0138 1.3962.465 1.9425.6925 3.29 1.19.11875.0487.27625.1625.2825.2925.0863 1.9425-.6125 2.8088 2.8625 2.57.135-.004.27.1575.2925.2925.0763.47125.0763.96375 0 1.435-.0225.12375-.17375.20625-.2925.28125-.17375.11875-.37875.19-.56875.28125-2.2462 1.115.2225 2.9113-1.4338 3.155-1.9488.2875-.80125 1.375-1.7162 3.15-.55125 1.0775-2.1812.39-3.15 1.1425-.075.0537-.2275.0637-.28625 0-.15125-.14625-.18875-.38-.28125-.56875-.0975-.2-.2175-.37375-.2875-.57375-1.4175-4.1512-2.44 2.0788-4.015 2.5812-.0875.0225-.195.0325-.2875 0-1.5425-.73-1.9525-1.4712-2.8575-2.8675-.48125-.73625-1.6288-1.435-1.1475.28625.33625 1.1912-.59 2.3225-1.1475 3.4312-.31875.66125-.4375.63375-1.1475.86-.28125.10375-.55625.27625-.86.2875-2.0238.0813-1.5038-1.58-3.1438-1.9975-1.105-.28125.89875-.99.2925-2.0075-.11375-.18375-.34125-.34625-.5525-.34625-4.5512-.0375-3.085-.2175-2.89-3.1012.065-.915 1.255.5575 1.4238-.22125.34625-1.6025-.2225-1.6575-1.705-.915-1.8562.925-5.6075 1.6938-6.8788-.57875-.0987-.17875-.3575-.27625-.56375-.27625-3.1438-.0975-5.8125 1.585-4.9188 3.9888.57875 1.6225 2.44-2.0675 4.3075-1.0988.11375.065.17875.18875.28125.28625.0875.0975.1575.2325.28125.28625 4.8662 1.9538.76375.6075 1.1912 3.3988.61125 4.0388-1.6888.29875-3.155.29875-2.03 0-5.2012-1.5488-6.8682 0-5.4824 5.0662-2.289 11.718-2.289 17.741.92475 1.8725 3.561 1.1525 5.146 1.1525.1025.18875.195.37375.2925.5625 0 1.0062-.075.8875.86125.57875.74625 0 2.3488-.6325 2.8575-1.1412h.2975c.0913.0962.19.18875.28125.28625.0913.27625.19.56875.28125.855.39.385.60625.28125 1.1525.28125.5475-.275.80125-.28125 1.4238-.28125v.86125c1.7912-.90375 1.045-1.44 3.4425-1.44.18375-.0975.3775-.18875.5725-.27625.2825-.0975.56875-.19.85625-.28625h.28625c2.0138.80125 3.615 2.7762 5.7212 2.57.90875 0 .57875-.28125 1.1525-.28125.0913.0975.195.19.28125.28125.19.10375.37875.195.57375.2875.0925.0975.195.19375.28625.28625 1.97 0 4.3625-.28625 5.7212-.28625.0975.19375.2.38375.2925.57375.0975.0962.18875.18875.28625.29125.17875.10875.3675.2225.5525.34625.8275-.0425 3.9338.13125 4.0312.23375.055.195.115.4.1675.62125 3.3938-1.6988.56875.79625 2.9775.79625 2.0675 0 2.0025.76375 4.2912 0h.2875c.1025.10375.19375.2.2925.2975.0913.28125.18875.5575.28125.855.38375 0 2.4088-.21125 2.575 0 .37375.44375.19 1.1425.29375 1.7162.0913-.0913.18875-.185.28125-.2875.1025-.19375.195-.38875.28625-.57875.7575-1.5212 4.8338 1.3962 5.7262 2.3.0975.0975.18875.19.28125.2875 1.2612.35625.525-.67625 1.6188-.9525l.135-.0162zm-69.291-32.198v.28125.29375c.40575 1.3412-.292.84375-.8555.28125-.18413-.195-.38475-.385-.57325-.575-.0981-.0962-.1895-.18875-.29301-.28125-.0913-.0962-.18887-.18875-.28125-.28625-.39449-.4-.28125-.535-.7685-.77875-.31887-.325-1.0605.0537-1.2334-.36875-.43313-1.0225 2.7495-2.3438 4.0049 1.4338zm18.292-2.3425c-.8925.8925-2.2999.005-1.4225-.855 1.1412-.585 3.29-1.0175 1.4225.855zm-7.5548-2.29c.0269-.21125.37937-.19375.57325-.28625 1.3315.0325 3.1939-.335 1.7164.86-.74712.61125-2.4682.8925-2.2896-.57375zm-28.797-9.1562c.57275-.57375.61625-.57375 1.4282-.57375.47563.46.438 1.2712 0 1.715-.103.0925-.1895.185-.28662.2875-1.0288.51875-1.1416-.57375-1.1416-1.4288zm11.44.5625c-1.8291 0-.65537-1.6025.86075-1.7588.66025 1.1038.8765 1.7588-.86075 1.7588zm4.8764-.855h1.4341l.56838.2925.28662.28125v.57375c-.95262.86-1.7159.57375-2.2891-.855zm27.201-3.15.005-.61125 1.1312.325.2975.28625.28125.57375.27625 1.19-.5575-.33h-.57875l-.855-.2925v-1.1412zm-4.7575-7.5888c1.4125.0338 1.4012.0225 1.4288 1.4188-1.58 0-1.4288.1525-1.4288-1.4188zm-3.6912-4.6262c2.5875-3.9562 2.6262 1.8512-.005 1.05 0-.35125.005-.6925.005-1.05zm-34.496-.9525c-.1025-.195-.20012-.37875-.292-.58375-.0546-.56875-.021-.645.292-1.1325.0924-.0975.19-.19375.28713-.28625.69825-.3575.63862-.48125.855.28625v1.1325.29625c0 .7475-.71975.715-1.1421.2875zm22.899-2.0025c0 .64875-.19487.855-.855.855-.94725 0-1.0069-.66-.6445-1.4338.7035-.385 1.4995-.60625 1.4995.57875zm-31.779-1.7162h.57275c.55225.26625.93125.69875.93125 1.4075-1.0558.26-1.504.30375-1.504-.83875zm39.513.27625c-.0924.0975-.19538.195-.28763.2925-1.1089 0-1.2226.2375-.85987-.86625.28125-.55625 1.7154-1.9375 1.7154-.5625 0 .64375-.108.67125-.56787 1.1362zm12.031-13.098 1.0338-.52375 1.0275 1.65-2.0612-.60625v-.52"
            fill="#859310" fill-rule="evenodd" />
    </g>
</svg>
