<svg xmlns="http://www.w3.org/2000/svg" height="70" viewBox="0 0 140 70" width="140">
	<g transform="translate(-6.8147 -9.0819)">
		<g id="text2" transform="scale(.97542 1.0252)" class="secondary" fill="currentColor">
			<path
				d="m92.9 69.248v6.6172h0.86914v-5.8105l1.707 4.5391h0.89844l1.707-4.5391v5.8105h0.87305v-6.6172h-1.334l-1.6973 4.5039-1.6895-4.5039h-1.334zm8.0996 0v0.67383l-0.36328 1.4141h0.57226l0.72657-1.4141v-0.67383h-0.93555zm4.8672 0c-0.7625 0-1.3365 0.16509-1.7207 0.49609-0.3842 0.33101-0.57617 0.80134-0.57617 1.4102 0 0.63542 0.19007 1.0769 0.56836 1.3281 0.3783 0.24826 0.71423 0.41144 1.0098 0.48828l-1.8086 2.8945h0.97657l1.7461-2.7969h1.1973v2.7969h0.89453v-6.6172h-2.2871zm4.0742 0v6.6172h0.89453v-2.1719l1.2109-1.2363 2.2969 3.4082h0.97461l-2.6914-4.002 2.5586-2.6152h-1.1484l-3.2012 3.2715v-3.2715h-0.89453zm6.4551 0v6.6172h0.89454v-6.6172h-0.89454zm5.5684 0v6.6172h0.86719v-5.8105l1.707 4.5391h0.90039l1.707-4.5391v5.8105h0.87305v-6.6172h-1.334l-1.6973 4.5039-1.6894-4.5039h-1.334zm7.8379 0v6.6172h4.2637v-0.75391h-3.3691v-2.3984h3.1523v-0.75195h-3.1523v-1.9609h3.2891v-0.75195h-4.1836zm5.7442 0v6.6172h2.377c0.76841 0 1.3453-0.16028 1.7324-0.48242 0.39011-0.32214 0.58594-0.80974 0.58594-1.4629 0-0.6561-0.20158-1.1447-0.60352-1.4668-0.40194-0.32214-0.97303-0.48438-1.7148-0.48438h-1.4805v-1.9863h3.334v-0.73438h-4.2305zm7.3281 0v1.125c0 1.7733-0.12764 3.0402-0.38477 3.8027-0.18323 0.48469-0.59695 0.79664-1.2383 0.93555v0.75391c1.0846-0.1655 1.7729-0.62142 2.0625-1.3691 0.30146-0.78023 0.45117-2.0069 0.45117-3.6797v-0.81641h2.1504v5.8652h0.89648v-6.6172h-3.9375zm5.7227 0v6.6172h0.89648v-6.6172h-0.89648zm-42.73 0.73438h1.3926v2.3496h-1.3926c-0.4315 0-0.75882-0.09886-0.98047-0.29688-0.21871-0.20097-0.32813-0.4937-0.32813-0.88086s0.10942-0.67994 0.32813-0.875c0.22165-0.19801 0.54897-0.29688 0.98047-0.29688zm30.576 2.7227h1.4356c0.48173 0 0.83783 0.09981 1.0684 0.30078 0.23348 0.19801 0.34961 0.50326 0.34961 0.91406 0 0.40785-0.11613 0.71114-0.34961 0.91211-0.23053 0.19801-0.58663 0.29688-1.0684 0.29688h-1.4356v-2.4238z" />
		</g>
		<g id="text" fill-rule="evenodd" fill="currentColor">
			<path d="m7.8529 13.579 10.334 53.973 9.266-53.432-4.698-0.911-4.827 27.181-5.065-27.441z" />
			<path d="m29.976 14.193 5.6143 0.0078 0.0016 49.254h-5.6174z" />
			<path
				d="m40.963 9.1265 0.16794 54.232h4.5635l0.03094-34.32 5.7827 11.371 0.06464 22.964 4.9617-0.0025 0.06742-49.206-5.1016-0.01142 0.0078 15.826z" />
			<path
				d="m91.187 12.249c-3.2277-0.01485-7.3719 1.8325-8.5295 6.5905l-0.14125 29.34-8.5745-0.0221 4.0234 4.6366 4.4824 0.02344 0.05079 10.346 5.0078-0.0078-0.03125-10.266 6.9805 0.0039 0.1133 10.215 4.9375 0.0625-0.0763-44.19c-1.193-4.222-4.886-6.644-8.243-6.733zm-0.16268 5.1968c1.4393-0.04164 3.1243 1.2721 3.5139 3.2197l-0.0221 27.492-7.0498 0.0221 0.0221-27.514c0.32674-1.8592 1.8517-3.1709 3.536-3.2197z" />
			<path
				d="m120.91 12.06 0.0102 5.6647c-23.412 15.16-7.9187 37.266-4.9107 38.825l-0.013-17.439 4.9237-0.0071-0.16019 26.188c-17.95-5.21-27.945-39.21 0.15-53.232z" />
			<path
				d="m145.88 14.32-15.088 0.01074-0.0157 33.77h-7.8875l3.3781 4.8656 4.5094-0.0078 0.15928 10.343 15 0.000003 0.0111-4.9681-9.8592 0.01105 0.004-5.3952 9.8032-0.06719-0.001-4.7921-9.6203 0.02813-0.0172-28.709 9.625-0.07684z" />
		</g>
		<g fill="#f28e1e" class="primary">
			<path
				d="m65.996 63.206-0.03125-43.389-5.129 0.03125-0.084-5.6114h16.328l-0.0098 5.5997-4.9277 0.03125 0.07225 43.369z"
				fill-rule="evenodd" />
		</g>
	</g>
</svg>
