<svg
   xmlns:dc="http://purl.org/dc/elements/1.1/"
   xmlns:cc="http://creativecommons.org/ns#"
   xmlns:rdf="http://www.w3.org/1999/02/22-rdf-syntax-ns#"
   xmlns:svg="http://www.w3.org/2000/svg"
   xmlns="http://www.w3.org/2000/svg"
   xmlns:sodipodi="http://sodipodi.sourceforge.net/DTD/sodipodi-0.dtd"
   xmlns:inkscape="http://www.inkscape.org/namespaces/inkscape"
   id="svg2"
   xml:space="preserve"
   height="92"
   viewBox="0 0 93 92"
   width="93"
   version="1.1"
   inkscape:version="0.91 r13725"
   sodipodi:docname="vodafone.svg"><defs
     id="defs10" /><sodipodi:namedview
     pagecolor="#ffffff"
     bordercolor="#666666"
     borderopacity="1"
     objecttolerance="10"
     gridtolerance="10"
     guidetolerance="10"
     inkscape:pageopacity="0"
     inkscape:pageshadow="2"
     inkscape:window-width="1860"
     inkscape:window-height="1039"
     id="namedview8"
     showgrid="false"
     inkscape:showpageshadow="false"
     borderlayer="false"
     inkscape:zoom="5.1304348"
     inkscape:cx="27.541904"
     inkscape:cy="63.291542"
     inkscape:window-x="0"
     inkscape:window-y="0"
     inkscape:window-maximized="1"
     inkscape:current-layer="g10" /><metadata
     id="metadata8"><rdf:RDF><cc:Work
         rdf:about=""><dc:format>image/svg+xml</dc:format><dc:type
           rdf:resource="http://purl.org/dc/dcmitype/StillImage" /><dc:title></dc:title></cc:Work></rdf:RDF></metadata><g
     id="g10"
     transform="matrix(1.25,0,0,-1.25,0,92)"><ellipse
       style="fill:#ffffff;fill-rule:evenodd"
       cx="37.228008"
       cy="-36.655998"
       ry="35.790001"
       transform="matrix(0.99999975,7.0145983e-4,0,-1,0,0)"
       rx="36.683006"
       id="path4925" /><path
       style="fill:#ed192d;fill-rule:evenodd"
       inkscape:connector-curvature="0"
       d="m 51.289068,69.865932 c -6.492,-1.429 -11.382,-7.25 -11.382,-14.218 0,-0.15 0.0364,-0.327 0.0418,-0.477 10.266,-2.2 15.444,-9.168 15.444,-18.365 0,-10.329 -8.386,-18.705 -18.638,-18.705 -10.25,0 -19.828,8.6183 -19.828,21.395 0,15.6 13.271,30.234 32.183,30.698 0.34,0.007 0.881,-0.006 1.433,-0.03 -4.156,1.59 -8.683,2.464 -13.417,2.464 -20.294,0 -36.7480002,-16.038 -36.7480002,-35.822 0,-19.784 16.4540002,-35.8219998 36.7480002,-35.8219998 20.29,0 36.742,16.0379998 36.742,35.8219998 0,14.888 -9.318,27.656 -22.578,33.06"
       id="path32" /></g></svg>
