<svg width="100%" height="100%" viewBox="0 0 1000 1000" version="1.1" xmlns="http://www.w3.org/2000/svg">
    <path
        d="M1000,100l0,800c0,55.192 -44.808,100 -100,100l-800,0c-55.192,0 -100,-44.808 -100,-100l0,-800c0,-55.192 44.808,-100 100,-100l800,0c55.192,0 100,44.808 100,100Z"
        fill="#87ea5c" />
    <path
        d="M266.667,232.083c-0,1.667 54.375,102.5 66.458,123.125c4.792,7.917 8.542,15.209 8.542,16.042c-0,0.833 4.791,9.792 10.416,19.792c5.834,10 10.417,18.75 10.417,19.583c0,0.833 -5.417,7.917 -11.875,16.042c-6.667,7.916 -19.167,23.125 -27.708,33.75c-8.542,10.416 -20.834,25.416 -27.084,33.125c-20,24.166 -27.916,33.958 -51.041,62.708c-12.5,15.417 -23.334,28.542 -23.959,29.167c-0.625,0.625 -4.791,5.625 -9.166,11.458l-7.917,10.417l142.292,0.625c78.125,0.208 142.5,-0 143.125,-0.417c0.416,-0.625 7.708,-21.042 15.833,-45.417l15,-44.375l-61.042,0.625c-52.5,0.417 -61.041,0.209 -61.041,-2.5c-0,-1.666 1.041,-3.75 2.083,-4.375c1.25,-0.833 6.042,-6.666 10.833,-13.125c4.792,-6.458 13.542,-17.083 19.167,-23.541c10,-11.042 24.792,-28.959 37.083,-45c6.667,-8.542 6.25,-10 -8.541,-34.792c-5.625,-9.375 -14.375,-24.792 -19.375,-34.583c-5.209,-9.792 -11.042,-20.417 -13.125,-23.542l-3.542,-5.625l112.708,-0c61.875,-0 112.709,0.833 112.709,1.667c-0,1.041 -5,15.625 -11.25,32.916c-6.042,17.084 -15,42.292 -19.584,56.042c-4.583,13.75 -16.458,48.333 -26.458,77.083c-10,28.542 -23.542,67.917 -30.208,87.5c-6.667,19.375 -20.417,58.75 -30.209,87.5c-21.25,61.25 -53.125,153.959 -53.125,154.584c0,0.416 26.042,0.625 58.125,0.625l58.125,-0l2.5,-10c1.25,-5.417 8.334,-26.25 15.417,-46.25c7.292,-20 17.083,-48.125 21.875,-62.5c8.75,-25.417 24.375,-70.417 59.583,-171.875c9.375,-27.5 20.417,-58.959 23.959,-69.792c3.75,-10.833 13.333,-37.917 21.041,-60c7.917,-22.083 14.375,-41.042 14.375,-42.292c0,-1.041 6.875,-21.458 15.417,-45.208c13.75,-38.333 26.667,-76.042 29.792,-86.458c1.041,-3.334 -12.5,-3.542 -264.792,-3.542c-146.25,-0 -265.833,0.417 -265.833,0.833"
        fill="#163300" />
</svg>
