<svg width="100%" height="100%" viewBox="0 0 265 48" xmlns="http://www.w3.org/2000/svg">
   <g id="mail" fill="#7f19ff">
      <path
         d="M176.36,38.543l-9.345,0l0,-25.836l9.208,-0l-0,3.161c-0,-0 2.059,-3.856 6.887,-3.856c5.091,-0 7.01,4.173 7.01,4.173c0,-0 2.29,-4.173 7.983,-4.173c5.611,-0 9.041,3.659 9.041,10.29l0,16.241l-9.345,0l0,-14.43c0,-1.693 -0.993,-3.457 -3.001,-3.457c-2.084,-0 -3.046,1.969 -3.046,3.987l0,13.9l-9.345,0l0,-14.155c0,-2.016 -1.031,-3.732 -3.058,-3.732c-1.88,-0 -2.989,1.64 -2.989,4.007l0,13.88Z" />
      <path
         d="M221.685,12.012c-7.189,-0 -12.008,6.153 -12.008,13.656c-0,8.454 5.55,13.577 11.894,13.577c5.178,0 7.424,-3.313 7.424,-3.313l0,2.611l9.208,0l-0,-25.836l-9.208,-0l0,2.611c0,0 -2.472,-3.306 -7.31,-3.306Zm2.343,8.503c3.128,-0 5.258,2.506 5.258,5.136c-0,2.637 -2.128,5.223 -5.241,5.223c-2.546,0 -5.223,-2.051 -5.223,-5.154c-0,-2.992 2.35,-5.205 5.206,-5.205Z" />
      <rect x="242.078" y="12.707" width="9.345" height="25.836" />
      <circle cx="246.758" cy="5.259" r="5.259" />
      <rect x="255.238" y="1.3" width="9.345" height="37.243" />
   </g>
   <g id="yahoo" fill="#35007d">
      <path
         d="M0,12.844l9.928,0l5.781,14.79l5.856,-14.79l9.667,0l-14.556,35.013l-9.728,0l3.985,-9.278l-10.933,-25.735Z" />
      <path
         d="M41.302,12.255c-7.459,0 -12.175,6.69 -12.175,13.352c-0,7.497 5.17,13.441 12.034,13.441c5.119,0 7.05,-3.119 7.05,-3.119l-0,2.43l8.659,-0l0,-25.515l-8.659,0l-0,2.32c-0,-0 -2.154,-2.909 -6.909,-2.909Zm1.842,8.2c3.442,-0 5.218,2.723 5.218,5.181c-0,2.646 -1.903,5.243 -5.218,5.243c-2.748,-0 -5.231,-2.246 -5.231,-5.131c0,-2.926 1.998,-5.293 5.231,-5.293Z" />
      <path
         d="M59.852,38.358l0,-36.78l9.057,0l0,13.674c0,0 2.152,-2.993 6.657,-2.993c5.511,-0 8.74,4.106 8.74,9.974l0,16.125l-8.99,0l-0,-13.916c-0,-1.986 -0.946,-3.905 -3.089,-3.905c-2.181,0 -3.318,1.948 -3.318,3.905l0,13.916l-9.057,0Z" />
      <path
         d="M99.748,12.258c-8.542,0 -13.629,6.496 -13.629,13.456c0,7.92 6.159,13.334 13.662,13.334c7.272,0 13.635,-5.169 13.635,-13.201c-0,-8.79 -6.663,-13.589 -13.668,-13.589Zm0.082,8.272c3.017,-0 5.105,2.513 5.105,5.193c0,2.286 -1.945,5.106 -5.105,5.106c-2.896,-0 -5.068,-2.323 -5.068,-5.131c-0,-2.705 1.806,-5.168 5.068,-5.168Z" />
      <path
         d="M128.504,12.258c-8.542,0 -13.629,6.496 -13.629,13.456c0,7.92 6.159,13.334 13.662,13.334c7.272,0 13.635,-5.169 13.635,-13.201c-0,-8.79 -6.663,-13.589 -13.668,-13.589Zm0.082,8.272c3.017,-0 5.105,2.513 5.105,5.193c0,2.286 -1.945,5.106 -5.105,5.106c-2.895,-0 -5.068,-2.323 -5.068,-5.131c-0,-2.705 1.806,-5.168 5.068,-5.168Z" />
      <circle cx="149.319" cy="32.886" r="6.014" />
      <path d="M157.309,24.662l-10.827,0l9.609,-23.084l10.787,0l-9.569,23.084Z" />
   </g>
</svg>
