<svg xmlns="http://www.w3.org/2000/svg" viewBox="0 0 512 512" width="100%" height="100%">
    <g id="logo">
        <path id="path1240"
            d="M75.548,437.007l-74.789,-74.989l-0,-211.97l149.579,-149.979l211.37,-0l149.579,149.979l0,211.97l-149.379,149.979l-211.37,-0l-74.99,-74.99Z"
            style="fill-rule:nonzero;" />
        <path id="path1244"
            d="M152.137,504.298l-145.379,-145.38l-0,-205.771l145.379,-145.38l205.772,0l145.379,145.38l0,205.771l-145.379,145.38l-205.772,-0Z"
            style="fill:#fdbe36;fill-rule:nonzero;" />
        <path id="path1867"
            d="M162.636,172.944c-1.7,-0.1 -5.599,-0.4 -7.399,-0.6c-16.698,-2.099 -27.796,-8.798 -31.996,-19.397c-0.8,-2.1 -1.099,-3.199 -0.999,-5.099c-0,-1.3 0.1,-1.7 0.299,-2.6c2.2,-8.199 13.599,-15.598 34.996,-22.797c12.098,-3.999 24.596,-7.299 53.592,-13.998c11.998,-2.799 18.497,-4.299 23.297,-5.699l1.7,-0.5l0.4,-1c1.199,-2.799 3.099,-6.199 3.899,-6.899l0.6,-0.5l-0.5,-1.499c-1.9,-5.5 -1.7,-11.399 0.4,-16.798c2,-5.099 5.899,-9.399 10.498,-11.698c0.4,-0.2 0.7,-0.4 0.7,-0.4c0,-0.1 -5.899,-20.597 -5.899,-20.597c0,-0 -3.499,-0.2 -7.799,-0.3c-9.998,-0.4 -9.798,-0.4 -10.098,-0.7c-0.6,-0.5 -0.3,-1.5 0.4,-1.7c0.5,-0.1 18.397,0.6 18.697,0.7c0.2,0.1 0.5,0.8 1,1.7c0.4,0.899 2.699,5.599 5.099,10.398l4.3,8.799l5.399,-0l4.999,-10.299c3.4,-6.999 5.099,-10.398 5.299,-10.498c0.2,-0.1 1.8,-0.2 8.899,-0.5c10.799,-0.4 9.899,-0.4 10.299,-0c0.5,0.5 0.4,1.2 -0.1,1.6c-0.2,0.1 -2.5,0.2 -8.899,0.5c-4.799,0.2 -8.699,0.4 -8.799,0.4c-0.1,0.1 -5.899,20.397 -5.899,20.497c-0,-0 0.3,0.2 0.7,0.4c3.899,1.999 7.499,5.699 9.599,9.898c1.699,3.5 2.499,6.799 2.499,10.799c0,3.099 -0.5,5.799 -1.4,8.299l-0.4,0.899l0.6,0.5c0.7,0.6 2,2.7 3.4,5.6c0.6,1.099 1.1,2.099 1.2,2.099c0.2,0.1 3.999,1.1 7.599,2c3.799,1 8.598,2.1 17.897,4.199c26.596,6.1 39.395,9.499 51.293,13.399c21.497,7.199 32.895,14.598 35.095,22.796c0.2,0.9 0.3,1.4 0.3,2.6c-0,2.3 -0.4,3.799 -1.8,6.699c-2.599,5.299 -6.899,9.599 -12.998,12.698c-2.2,1.1 -3.299,1.5 -5.799,2.4c-4.699,1.6 -9.399,2.5 -15.598,3.1c-2.6,0.199 -10.598,0.299 -13.598,0.199c-11.798,-0.699 -22.997,-3.099 -29.396,-6.199c-1.7,-0.9 -2.1,-1.099 -4.399,-2.999c-12.299,-10.099 -23.097,-20.097 -29.496,-27.096c-0.8,-0.9 -1.5,-1.6 -1.5,-1.6l-0.7,1.4c-0.3,0.799 -0.7,1.499 -0.8,1.599c-0.3,0.3 -5.899,1.3 -9.798,1.7c-9.799,1.1 -20.098,0.9 -29.996,-0.6c-1.6,-0.2 -2,-0.3 -2.2,-0.5c-0.1,-0.1 -0.6,-1 -1.1,-1.999c-0.8,-1.7 -0.9,-1.7 -1,-1.5c-0.1,0.1 -0.799,0.9 -1.599,1.8c-1.8,1.999 -9.199,9.398 -12.099,12.098c-7.499,6.899 -18.497,16.298 -20.597,17.497c-4.899,2.9 -14.798,5.6 -25.196,6.599c-5.2,0.7 -10.499,0.9 -15.098,0.7"
            style="fill-rule:nonzero;" />
        <path id="path1865"
            d="M257.623,183.443c-9.999,-0.5 -18.598,-2 -25.897,-4.399l-1.8,-0.6l0,-0.4c0,-1 0.5,-5 1,-7.699c0.3,-1.8 1,-5.1 1.1,-5.2c0,0 0.7,0.1 1.5,0.3c6.199,1.7 14.498,2.9 22.697,3.4c2.799,0.2 9.998,0.2 12.698,-0c6.599,-0.4 12.798,-1.3 17.997,-2.6c0.8,-0.2 1.6,-0.4 1.7,-0.4c0.3,0 1.7,7.799 2,11.499c0.1,0.8 0.1,1.5 0.2,1.7c-0,0.199 -0.1,0.299 -0.8,0.499c-5.199,1.8 -11.898,3.1 -19.597,3.7c-2.5,0.2 -10.199,0.3 -12.798,0.2"
            style="fill-rule:nonzero;" />
        <path id="path1863"
            d="M257.823,230.136c-1.7,-0.2 -3.5,-0.8 -5.2,-1.699c-1.2,-0.6 -4.899,-3.1 -6.699,-4.6c-1.8,-1.4 -5.299,-4.799 -6.599,-6.499c-1.2,-1.5 -2.2,-2.999 -2.999,-4.199c-0.3,-0.5 -0.7,-1.1 -0.8,-1.2c-0.2,-0.2 -0.1,-0.2 1.199,0.1c11.599,2.799 26.097,3.499 38.695,2.1c2,-0.2 4.899,-0.7 6.599,-1c0.7,-0.2 1.4,-0.3 1.4,-0.3c0.1,-0 -1,1.6 -1.8,2.699c-2.299,3.2 -5.699,6.599 -8.999,9.099c-1.899,1.4 -4.899,3.4 -5.999,3.9c-1.3,0.599 -2.499,0.999 -3.899,1.299c-0.9,0.4 -3.8,0.5 -4.899,0.3"
            style="fill-rule:nonzero;" />
        <path id="path1861"
            d="M282.919,343.62c-1.3,-0.2 -2.1,-0.999 -2.3,-2.399c-0.1,-0.8 -1.499,-79.689 -1.399,-80.689c0.1,-1.3 0.699,-2.1 1.699,-2.5c0.6,-0.2 4,-0.399 11.499,-0.399l5.399,-0l0.5,0.299c0.3,0.1 0.7,0.4 0.8,0.6c0.7,0.9 0.6,-1.599 1.3,39.195c0.799,43.994 0.799,43.294 0.5,43.994c-0.4,1 -1.2,1.5 -2.5,1.699c-0.5,0.1 -3.3,0.1 -6.299,0.2c-3,0 -6.199,0.1 -6.999,0.1c-0.8,0 -1.8,-0.1 -2.2,-0.1"
            style="fill-rule:nonzero;" />
        <path id="path1859"
            d="M228.227,344.52c-1.5,-0.4 -2.1,-1.1 -2.2,-2.899c-0.1,-0.6 -0.4,-18.898 -0.8,-40.695c-0.7,-42.994 -0.7,-40.194 -0.1,-41.194c0.4,-0.6 1.1,-0.9 2.3,-1c1.6,-0.2 14.698,-0.3 15.398,-0.2c1.699,0.3 2.299,1.2 2.299,3.7c0,0.8 0.4,19.097 0.7,40.494c0.6,35.395 0.7,38.995 0.5,39.595c-0.2,0.9 -0.6,1.399 -1.4,1.699c-0.6,0.3 -0.7,0.3 -3.699,0.4c-4.4,0.1 -12.798,0.2 -12.998,0.1"
            style="fill-rule:nonzero;" />
        <path id="path1857"
            d="M350.21,449.706c-0.6,-0.2 -1,-0.5 -1.3,-1.1l-0.2,-0.5l-0,-43.794l-6.999,-0c-6.799,-0 -6.999,-0 -7.499,-0.3c-0.6,-0.3 -1,-0.6 -1.2,-1.3c-0.2,-0.5 -0.2,-1.1 -0.2,-6.099c0,-3.599 0,-5.899 0.1,-6.499c0.2,-1.1 0.5,-1.7 1.2,-2.1l0.5,-0.3l48.393,0l0.5,0.3c1.2,0.7 1.2,1 1.2,8.299c-0,5.699 -0,5.899 -0.3,6.399c-0.3,0.6 -0.6,0.9 -1.2,1.2c-0.4,0.2 -1,0.2 -7.399,0.2l-6.999,-0l0,21.697c0,23.897 0,22.497 -0.7,23.197c-0.8,0.7 -0.5,0.7 -9.299,0.7c-6.499,0.2 -8.198,0.1 -8.598,-0"
            style="fill-rule:nonzero;" />
        <path id="path1855"
            d="M293.418,449.706c-0.7,-0.2 -1,-0.5 -1.3,-1.1l-0.3,-0.6l-0,-43.794l-6.699,-0c-4.1,-0 -6.899,-0 -7.199,-0.1c-0.7,-0.2 -1.3,-0.6 -1.6,-1.2l-0.3,-0.5l-0,-6.399c-0,-7.099 -0,-7.099 0.7,-7.799c0.8,-0.7 -0.9,-0.7 25.196,-0.7c15.598,0 23.897,0 24.097,0.1c0.7,0.2 1.1,0.6 1.5,1.2l0.3,0.6l-0,12.798l-0.3,0.6c-0.3,0.6 -0.4,0.7 -1,1l-0.6,0.3l-13.998,-0l-0,43.994l-0.3,0.5c-0.2,0.3 -0.5,0.6 -0.8,0.8l-0.5,0.3l-8.199,-0c-6.899,0.2 -8.398,0.1 -8.698,-0"
            style="fill-rule:nonzero;" />
        <path id="path1853"
            d="M143.938,449.706c-0.699,-0.2 -0.999,-0.5 -1.299,-1.1l-0.3,-0.6l-0,-28.896c-0,-19.997 -0,-29.096 0.1,-29.496c0.2,-0.8 0.6,-1.4 1.2,-1.7l0.499,-0.3l7.999,0c8.899,0 8.699,0 9.699,0.7c0.3,0.2 0.7,0.6 0.9,0.9c0.2,0.3 2.3,3.9 4.599,8.099c2.3,4.099 4.3,7.699 4.6,7.999l0.4,0.5l1.799,-0l0.4,-0.5c0.2,-0.3 2.2,-3.8 4.4,-7.899c2.199,-4.099 4.199,-7.699 4.399,-7.999c0.2,-0.3 0.7,-0.8 1,-1.1c1,-0.8 0.8,-0.8 9.798,-0.8l8.099,0l0.5,0.3c0.6,0.3 0.9,0.7 1.1,1.4c0.1,0.5 0.2,4.1 0.2,29.396c0,25.296 0,28.896 -0.2,29.396c-0.2,0.7 -0.5,1.1 -1.1,1.4l-0.5,0.3l-7.799,-0c-8.598,-0 -8.498,-0 -9.198,-0.7c-0.7,-0.8 -0.7,0.1 -0.7,-17.098c-0,-8.999 -0,-15.598 -0.1,-15.598c-0.1,0 -1.3,2.3 -2.8,5c-2.399,4.399 -2.799,5.099 -3.399,5.699c-0.5,0.5 -0.9,0.8 -1.4,1c-0.7,0.3 -0.8,0.3 -3.8,0.3c-3.499,-0 -3.899,-0.1 -4.899,-0.9c-0.8,-0.6 -1.1,-1.1 -3.999,-6.499l-2.6,-4.7l-0.2,31.596l-0.3,0.7c-0.2,0.5 -0.4,0.7 -0.9,1l-0.5,0.3l-7.599,-0c-6.299,0.1 -7.699,-0 -8.099,-0.1"
            style="fill-rule:nonzero;" />
        <path id="path1849"
            d="M234.026,457.605c-0.7,-0.2 -1.2,-0.5 -1.5,-1.1l-0.3,-0.5l0,-3c0,-2.999 0,-2.999 -0.3,-3.099c-0.1,-0 -1,-0.2 -2,-0.4c-4.099,-0.8 -6.999,-1.9 -9.298,-3.6c-2.5,-1.8 -4.3,-4.999 -5.2,-8.999l-0.299,-1.199l-0,-17.098c-0,-16.098 -0,-17.198 0.199,-18.297c0.9,-5.3 3.4,-8.499 8.099,-10.799c4.7,-2.2 11.699,-3.3 20.198,-3.1c5.599,0.1 9.298,0.6 12.898,1.6c7.899,2.3 11.598,6.399 12.198,13.898c0.2,1.8 0.2,31.596 0,33.296c-0.6,5.999 -3,9.598 -8.099,12.198c-2,1 -4.299,1.7 -7.099,2.2c-0.8,0.1 -1.5,0.3 -1.6,0.3c-0.2,0.1 -0.2,0.1 -0.3,2.999c0,2.9 0,3 -0.3,3.5c-0.3,0.6 -0.899,1 -1.599,1.2c-0.7,0.099 -15.098,0.099 -15.698,-0"
            style="fill-rule:nonzero;" />
        <path id="path1847"
            d="M430.698,431.608l72.69,-72.69l0,-205.771l-145.379,-145.38l-205.872,0l-145.379,145.38l-0,205.771l145.579,145.58l205.772,-0l72.589,-72.89Z"
            style="fill:#fdbe36;fill-rule:nonzero;" />
        <path id="path1492"
            d="M269.121,161.646c6.299,-0.4 10.399,-1 15.398,-2.2c1.3,-0.3 2.1,-0.6 2.1,-0.7c-0,-0.2 -1.1,-3.499 -1.8,-5.299c-1,-2.7 -3.1,-7.499 -3.3,-7.799c-0.1,-0.1 -0.4,-0.1 -0.8,0c-5.499,1.1 -10.498,1.7 -16.097,2c-2.8,0.1 -9.799,0.1 -12.499,-0c-4.199,-0.2 -9.298,-0.8 -12.498,-1.3c-0.5,-0.1 -1,-0.1 -1.1,-0.1c-0.5,0.5 -4.799,11.598 -4.599,11.798c0.2,0.2 4.899,1.3 7.499,1.8c4.999,0.9 11.298,1.6 15.998,1.8c3.199,0.2 9.298,0.1 11.698,-0Z"
            style="fill:#fff;fill-rule:nonzero;stroke:#fff;stroke-width:0.75px;" />
        <path id="path1486"
            d="M271.021,206.34c6.599,-0.5 11.898,-1.4 16.397,-2.8l1.4,-0.4l0.4,-1.2c0.7,-2.399 1.3,-5.199 1.7,-7.499c0.2,-1.499 0.5,-4.599 0.5,-5.399l-0,-0.5l-1.3,0.4c-16.698,4.799 -40.694,4.499 -58.692,-0.9l-1.5,-0.5l0.1,1.4c0.2,3.5 0.7,7.099 1.6,10.499c0.7,2.799 0.4,2.499 2.5,3.099c7.499,2.3 16.398,3.7 25.896,4c2,0.1 8.699,-0 10.999,-0.2"
            style="fill:#fff;fill-rule:nonzero;" />
        <path id="path1490"
            d="M171.835,172.944c6.299,-0.4 11.898,-1.099 16.997,-2.199c7.599,-1.7 12.498,-3.6 15.598,-5.999c4.399,-3.4 14.198,-11.899 20.397,-17.698c2.7,-2.5 8.599,-8.399 10.299,-10.399c0.8,-0.899 1.599,-1.799 1.799,-1.999l0.4,-0.4l2,3.799l0.7,0.1c1,0.2 4.499,0.7 6.399,0.9c8.599,0.9 17.998,0.9 26.196,-0.2c3.6,-0.5 8.699,-1.4 8.799,-1.6c1,-2.299 1.3,-2.899 1.3,-2.899c0,-0 0.5,0.5 1.1,1.2c6.599,7.299 15.898,15.897 28.296,26.196c3.999,3.399 4.699,3.799 6.899,4.799c8.499,3.8 23.197,6.199 35.995,5.899c17.697,-0.4 30.696,-5.199 37.595,-13.798c1.599,-1.999 2.999,-4.599 3.899,-6.899c0.7,-1.899 0.8,-2.399 0.8,-4.499c0,-1.7 0,-2 -0.3,-2.9c-0.6,-1.999 -1.6,-3.699 -3.199,-5.599c-6.2,-7.299 -19.698,-13.698 -42.795,-20.397c-9.098,-2.6 -21.996,-5.799 -39.794,-9.899c-14.698,-3.399 -25.996,-6.099 -26.396,-6.499l-1,-1.999c-1.4,-2.8 -2.7,-4.9 -3.4,-5.6l-0.6,-0.5l0.4,-1.199c1.6,-4.5 1.8,-9.499 0.6,-14.198c-1.599,-6.3 -5.699,-11.699 -11.198,-14.598l-0.9,-0.5l3,-10.299c1.599,-5.699 2.999,-10.298 2.999,-10.298c0,-0 3.9,-0.2 8.699,-0.3c5.799,-0.2 8.699,-0.4 8.899,-0.4c0.2,-0.1 0.4,-0.3 0.5,-0.6l0.2,-0.4l-0.2,-0.4c-0.2,-0.3 -0.3,-0.5 -0.6,-0.6c-0.3,-0.1 -2.5,-0.1 -9.199,0.2c-4.899,0.2 -8.999,0.4 -9.199,0.4c-0.2,-0 -0.5,0.2 -0.6,0.3c-0.1,0.1 -2.499,4.899 -5.199,10.498l-4.999,10.199l-0.8,-0.1c-0.5,-0 -1.3,-0.1 -1.8,-0.1c-0.5,-0 -1.3,-0 -1.8,0.1l-0.799,0.1l-5,-10.299c-2.799,-5.599 -5.099,-10.398 -5.299,-10.498c-0.3,-0.3 0.5,-0.3 -10.199,-0.7c-9.098,-0.3 -8.998,-0.3 -9.398,0.2c-0.3,0.4 -0.2,0.8 0.1,1.3c0.4,0.4 -0.7,0.4 9.898,0.8l7.999,0.3l2.9,9.998c1.6,5.499 2.899,10.099 2.899,10.299c0.1,0.4 0.1,0.4 -0.7,0.8c-4.899,2.499 -8.898,7.299 -10.798,12.898c-0.9,2.699 -1.2,4.699 -1.2,7.799c0,2.899 0.4,5.299 1.3,7.999l0.4,1.199l-0.6,0.6c-0.9,0.8 -2.6,3.8 -3.799,6.699l-0.5,1.2l-1.4,0.4c-5.899,1.6 -11.799,3.1 -23.997,5.899c-20.697,4.7 -31.495,7.399 -40.894,10.099c-23.597,6.699 -37.595,13.298 -43.994,20.697c-1.6,1.9 -2.6,3.6 -3.199,5.599c-0.4,1.4 -0.5,3.6 -0.2,5.1c0.699,3.699 3.299,8.198 6.599,11.498c6.799,6.799 18.097,10.698 32.795,11.498c1.8,0 8.599,0 10.299,-0.1"
            style="fill-rule:nonzero;" />
        <path id="path1488"
            d="M269.821,183.343c7.599,-0.5 13.598,-1.5 19.397,-3.4c1.4,-0.5 1.8,-0.6 1.8,-0.8c-0,-0.399 -0.4,-3.699 -0.6,-5.299c-0.3,-2.399 -1.4,-7.899 -1.5,-8.099c0,0 -0.6,0.1 -1.3,0.3c-11.698,3.1 -28.396,3.7 -42.894,1.5c-3.899,-0.6 -8.598,-1.5 -11.398,-2.3c-0.7,-0.2 -1.2,-0.3 -1.3,-0.3c-0.2,0.3 -1.3,5.9 -1.6,8.399c-0.2,1.4 -0.6,4.6 -0.6,4.9c0,0.3 6.8,2.199 10.599,2.999c4.699,1 12.098,1.9 16.798,2c2.999,0.3 10.298,0.3 12.598,0.1"
            style="fill-rule:nonzero;" />
        <path id="path1484"
            d="M262.822,230.036c2.999,-0.6 5.599,-1.899 9.998,-5.199c3.1,-2.4 6.4,-5.599 8.699,-8.499c0.7,-0.9 2.3,-3.299 2.3,-3.399c-0,-0 -0.4,-0 -0.8,0.1c-1.8,0.4 -5.799,1 -8.899,1.3c-7.199,0.699 -15.798,0.699 -23.296,-0c-4.8,-0.5 -9.999,-1.3 -13.999,-2.3c-0.699,-0.2 -1.299,-0.3 -1.299,-0.2c-0,-0 0.2,0.5 0.6,1.1c2.699,4.399 6.199,8.199 10.398,11.398c1.8,1.4 5.099,3.6 6.299,4.2c1.3,0.599 3.1,1.299 4.3,1.499c1.299,0.3 4.299,0.3 5.699,0"
            style="fill-rule:nonzero;" />
        <path id="path1482"
            d="M296.517,343.52c2.3,-0.1 2.6,-0.1 3.1,-0.299c1,-0.4 1.499,-1.2 1.599,-2.5c0.1,-1.2 -1.299,-79.889 -1.399,-80.689c-0.2,-1.6 -1,-2.3 -2.5,-2.499c-0.4,-0 -3.999,-0 -8.099,0.1c-8.099,0.099 -8.099,0.199 -8.999,0.799c-0.5,0.4 -0.799,1.1 -0.899,2c-0.1,1.1 1.299,80.889 1.399,81.289c0.2,0.7 0.6,1.3 1,1.5c0.9,0.499 1,0.599 6.899,0.499c3,-0.1 6.599,-0.2 7.899,-0.2"
            style="fill-rule:nonzero;" />
        <path id="path1480"
            d="M238.525,344.52c3,-0.1 5.699,-0.2 5.899,-0.2c0.8,-0.2 1.5,-0.7 1.8,-1.299c0.3,-0.5 0.3,-0.7 0.3,-2.3c0,-1 -0.3,-19.297 -0.7,-40.694c-0.8,-43.494 -0.6,-39.795 -1.5,-40.695c-0.3,-0.3 -0.699,-0.5 -1.199,-0.7c-0.6,-0.2 -1.2,-0.2 -8.399,-0.1c-8.199,0.1 -8.499,0.2 -9.299,0.7c-0.2,0.1 -0.5,0.5 -0.7,0.8c-0.3,0.5 -0.3,0.7 -0.4,2.3c0,1 0.3,19.297 0.6,40.694c0.6,32.296 0.7,39.095 0.9,39.495c0.4,1.299 1.1,1.799 2.5,1.999c0.9,0.2 1.399,0.2 10.198,0"
            style="fill-rule:nonzero;" />
        <path id="path1478"
            d="M367.407,449.606c0.7,-0.4 1.2,-1 1.3,-1.9c0.1,-0.4 0.1,-8.599 0.1,-22.097l0,-21.397l6.799,-0c4.199,-0 6.999,-0 7.199,-0.1c0.6,-0.2 1.2,-0.6 1.5,-1.1l0.3,-0.5l-0,-6.299c-0,-6.899 -0,-7.099 -0.6,-7.799c-0.2,-0.2 -0.5,-0.4 -0.8,-0.6l-0.5,-0.2l-23.997,0c-19.697,0 -23.996,0 -24.396,0.2c-0.6,0.2 -1.1,0.6 -1.4,1.2c-0.3,0.5 -0.3,0.5 -0.3,6.999l0,6.499l0.3,0.6c0.2,0.4 0.5,0.7 0.8,0.9l0.6,0.3l13.998,-0l-0,43.594l0.3,0.6c0.4,0.8 0.9,1.2 1.9,1.4l16.197,-0l0.7,-0.3Z"
            style="fill-rule:nonzero;" />
        <path id="path1476"
            d="M310.515,449.706c0.3,-0.1 0.7,-0.4 0.8,-0.6c0.7,-0.8 0.7,0.5 0.7,-23.197l-0,-21.697l6.799,-0c4.199,-0 6.999,-0 7.199,-0.1c0.6,-0.2 1.2,-0.6 1.5,-1.1l0.3,-0.5l-0,-12.998l-0.3,-0.6c-0.2,-0.5 -0.4,-0.6 -1,-0.9l-0.7,-0.3l-23.997,0c-26.096,0 -24.396,0 -25.196,0.6c-0.8,0.7 -0.8,0.7 -0.8,7.799c0,6.999 0,6.799 0.7,7.599c0.7,0.7 0.8,0.7 8.299,0.7l6.799,-0l-0,21.197c-0,12.998 -0,21.497 0.1,21.997c0.2,1.4 0.8,2.1 2,2.4c0.199,-0 3.899,0.1 8.298,0.1c7.799,-0.2 7.999,-0.2 8.499,-0.4"
            style="fill-rule:nonzero;" />
        <path id="path1474"
            d="M159.936,449.706c0.6,-0.3 0.9,-0.6 1.2,-1.2l0.2,-0.5l0.2,-31.596l2.7,5c3.799,7.099 3.799,7.099 7.999,7.199c3.399,0.1 4.599,-0.1 5.699,-1c0.7,-0.6 1,-1 3.799,-6.299l2.5,-4.7l0.1,15.798c0.1,14.898 0.1,15.798 0.3,16.198c0.3,0.6 0.7,1 1.3,1.3c0.5,0.2 1.099,0.2 8.298,0.2l7.799,-0l0.6,-0.3c0.4,-0.2 0.7,-0.5 0.9,-0.8l0.3,-0.6l0,-58.992l-0.3,-0.5c-0.2,-0.4 -0.5,-0.6 -1,-0.9l-0.7,-0.3l-16.197,0l-0.6,0.3c-0.7,0.3 -1.7,1.2 -2.2,2.1c-0.2,0.3 -2.1,3.799 -4.299,7.799c-2.2,3.999 -4.1,7.399 -4.3,7.599c-0.3,0.4 -0.4,0.4 -1.2,0.4c-0.899,-0 -1.099,-0.1 -1.499,-0.7c-0.1,-0.2 -2,-3.6 -4.2,-7.499c-2.199,-3.9 -4.199,-7.499 -4.499,-7.899c-0.6,-0.9 -1.1,-1.3 -1.9,-1.7l-0.5,-0.3l-16.198,0l-0.699,0.3c-0.5,0.2 -0.7,0.4 -1,0.9l-0.3,0.5l-0,29.496c-0,28.396 -0,29.496 0.2,29.896c0.4,0.7 0.9,1 1.699,1.3c0.2,-0 3.7,0.1 7.699,0.1c7.099,-0.4 7.699,-0.4 8.099,-0.6"
            style="fill-rule:nonzero;" />
        <path id="path1470"
            d="M242.925,386.314l-2.4,0c-5.599,0.1 -8.599,0.4 -12.098,1.3c-6.899,1.7 -10.899,4.9 -12.499,9.699c-0.5,1.4 -0.799,3.1 -0.899,4.699c-0.2,1.9 -0.2,31.196 -0,32.696c0.499,5.199 2.699,9.298 6.099,11.498c2.199,1.5 5.699,2.7 9.698,3.4l1.1,0.2l0,5.799l0.3,0.7c0.4,0.8 1,1.2 2,1.3c0.4,0.099 3.899,0.099 7.899,0.099c6.599,0 7.199,0 7.699,-0.199c0.6,-0.2 1.299,-0.9 1.499,-1.5c0.1,-0.3 0.2,-1.6 0.2,-3.3c0,-1.6 0.1,-2.899 0.1,-2.899l1.4,-0.2c8.199,-1.4 13.098,-5 14.798,-10.699c0.7,-2.5 0.7,-1.3 0.7,-19.797c0,-11.498 0,-17.098 -0.1,-17.798c-0.4,-2.999 -1.1,-5.099 -2.2,-6.899c-2.099,-3.299 -5.699,-5.499 -11.098,-6.799c-3.5,-0.9 -6.899,-1.3 -12.198,-1.3m-0.6,16.998c1.3,0 2.599,0.1 3.099,0.2c2.2,0.4 3.4,1.5 3.7,3.3c0.1,0.8 0.1,23.696 -0,24.696c-0.1,0.9 -0.5,1.6 -1.1,2.2c-0.5,0.6 -1.1,0.8 -2.2,1.1c-0.6,0.1 -1.5,0.2 -3.599,0.2c-3,-0 -4.2,-0.1 -5.4,-0.5c-0.899,-0.3 -1.799,-1.2 -2.099,-2.1c-0.2,-0.6 -0.2,-0.7 -0.2,-13.198c-0,-12.398 -0,-12.598 0.2,-13.198c0.5,-1.3 1.5,-2 3.199,-2.4c0.8,-0.3 2.7,-0.3 4.4,-0.3"
            style="fill-rule:nonzero;" />
    </g>
</svg>
