<svg width="100%" height="100%" viewBox="0 0 564 369" xmlns="http://www.w3.org/2000/svg">
	<g>
		<path d="M564,369l0,-369l-564,0l0,369l564,0" style="fill:#ffd500;fill-rule:nonzero;" />
		<path d="M552,357l0,-345l-540,0l0,345l540,0" style="fill:#fff;fill-rule:nonzero;" />
	</g>
	<g>
		<path fill="#000"
			d="M288.832,234.233c-0.109,-0.009 -0.22,-0.02 -0.332,-0.033l0.4,2.5l1.7,10.2c0.5,2.3 2.4,3 5.7,2.1c3.3,-0.9 3.4,-3 0.5,-6.3c5.2,-1.3 8.2,0.9 8.9,6.6c1.9,-0.1 3.7,0.7 5.3,2.4c1.9,2.1 3.7,3.2 5.4,3.4c1.6,0.1 2,-1.1 1.1,-3.5c2.2,1 3.4,2.3 3.7,3.6c0.1,1.1 -0.2,2.2 -1,3.4c2.2,1.3 3.4,2.7 3.8,4.3c0.5,2.6 -2,5.6 -7.5,8.8c0.8,-5 0,-7.9 -2.6,-8.8c-1.3,-0.6 -2.5,-0.3 -3.7,0.6c-1.6,1.6 -2.2,3.5 -1.8,5.7c-0.2,-0.7 -0.8,-1.7 -1.7,-3c-0.8,-1.3 -2,-2.1 -3.4,-2.4c-1.5,-0.3 -3.7,-1.2 -6.8,-2.7c-2.9,-1.4 -6,-4.6 -9.4,-9.5c-2,11.3 1.6,17.7 10.9,19.2c-2.3,3.3 -5.4,4.3 -9.4,2.7c1.5,3.7 1.4,6.4 -0.3,7.8c-1.9,1.4 -3.1,4 -3.9,7.6c-1.4,-4.2 -2.8,-6.9 -4.4,-8c-1.6,-1.2 -1.7,-3.7 -0.2,-7.4c-3.9,1.6 -7,0.6 -9.3,-2.7c9.2,-1.5 12.8,-7.9 10.8,-19.2c-3.3,4.9 -6.4,8.1 -9.3,9.5c-3.1,1.5 -5.3,2.4 -6.7,2.7c-1.5,0.3 -2.7,1.1 -3.5,2.4c-0.9,1.3 -1.5,2.3 -1.7,3c0.4,-2.2 -0.2,-4.1 -1.7,-5.7c-1.2,-0.9 -2.5,-1.2 -3.8,-0.6c-2.6,0.9 -3.5,3.8 -2.6,8.8c-5.5,-3.2 -8,-6.2 -7.4,-8.8c0.3,-1.6 1.5,-3 3.8,-4.3c-0.9,-1.2 -1.3,-2.3 -1.1,-3.4c0.3,-1.3 1.5,-2.6 3.7,-3.6c-0.9,2.4 -0.6,3.6 1.1,3.5c1.7,-0.2 3.5,-1.3 5.4,-3.4c1.6,-1.7 3.4,-2.5 5.4,-2.4c0,-0.2 0.1,-0.3 0.1,-0.4c0.9,-4.6 3.7,-6.7 8.7,-6.2c-3,3.3 -2.8,5.4 0.5,6.3c3.3,0.9 5.2,0.2 5.7,-2.1l2.2,-12.7c-5.3,0.6 -8.5,-2.4 -9.8,-9c4.7,1.6 7.6,0.7 8.7,-2.6c0.2,-0.5 0.3,-1 0.3,-1.5c0.2,-1.3 0.1,-2.4 -0.3,-3.3c-0.5,-1 -1.4,-1.7 -2.6,-2.3c-2.8,-1.4 -5,-0.9 -6.8,1.3c-1.8,2.3 -1.9,4.9 -0.4,7.7c-1.4,0.6 -2.7,0.5 -4.1,-0.2c-1.1,2 -0.8,4.2 1.1,6.8c-0.8,0.2 -1.4,0.3 -1.7,0.3c-0.1,-0.1 -0.1,-0.1 -0.2,-0c-2.457,-0.182 -4.749,-0.944 -6.8,-2.21c-0.202,-0.125 -0.402,-0.255 -0.6,-0.39c0,-0 -0.39,-0.34 -0.594,-0.5c-0.833,-0.655 -2.006,-2 -2.806,-3.2c-0.1,0.4 -0.7,0.8 -2,1.1c-1.3,0.3 -2.1,0.3 -2.4,0.3c-1.4,-0 -2.8,-0.5 -4.1,-1.5c2.9,-0.9 4.3,-3.1 4.3,-6.7c0,-2.1 -0.8,-3.7 -2.4,-4.7c-0.3,-0.2 -0.7,-0.4 -1.1,-0.6c2,-0.4 3.1,-1.5 3.1,-3.4c0,-2.5 0.9,-4.7 2.9,-6.8c3.4,-3.6 6.4,-3.7 9.1,-0.2c2.6,3.4 5.1,4.8 7.4,4.3c1.6,-0.5 2.6,-1.2 3.1,-2.2c0.3,-0.7 0.3,-1.5 0,-2.5c-0.7,-2.2 -1.5,-3.8 -2.5,-4.7c-0.2,-0.2 -0.4,-0.4 -0.6,-0.5c2,-1.8 2.4,-3.2 1.2,-4.4c-1.3,-1.1 -2.8,-1.3 -4.5,-0.6c-0.2,0.2 -0.3,0.2 -0.5,0.3c-0.6,0.4 -1,1 -1.2,1.9c-0.3,0.9 -0.1,2 0.6,3.1c-2,-1.9 -3.6,-3.3 -4.8,-4.2c-2.3,3.4 -5.3,5.1 -8.8,5.1c1.1,-1.8 1.1,-3.6 0,-5.4c-4.8,4.1 -10.9,6.2 -18,6.2c1.4,-2.5 1.4,-5.1 0,-7.6c-6,3.6 -12.9,3.9 -20.8,0.9c2.8,-1.1 4.4,-2.6 4.9,-4.4c-6.8,-0.6 -11.9,-3.8 -15.3,-9.4c3.7,0.2 6.5,-0.5 8.5,-2c-7.7,-5.2 -12.3,-11.5 -13.7,-18.8c2.7,1.2 5.8,1.2 9.3,-0c-5.4,-6.7 -8,-13.4 -7.8,-20.2c2.7,1.8 5.3,2.4 7.9,1.7c-4.4,-5.7 -6.6,-11.8 -6.4,-18.3c1.5,1.6 3.8,2.3 6.5,2.4c-2.4,-6.8 -3,-13.2 -1.9,-19.2c2,1.8 4.2,3 6.5,3.8c-0.8,-6 -0.4,-11.8 1.2,-17.6c1.2,2.9 2.9,4.9 5,6.2c-1.2,-7.6 1.4,-14 7.7,-19.1c-0.5,6.5 0.5,12.6 3,18.5l1.7,-5.4l10.5,20.7c0.5,-1 1.1,-2 1.7,-3c0.6,5.1 2.6,9.9 5.9,14.6l5.7,7.4c0.1,0.2 0.2,0.4 0.4,0.6c0.6,0.7 1.3,1.3 2,1.8c0.7,0.6 1.2,1.4 1.6,2.4c0.3,0.9 0.4,1.9 0.3,3c-0.1,1 -0.6,1.9 -1.4,2.6c-0.8,0.6 -1.6,1.1 -2.4,1.5c-0.9,0.3 -1.8,0.6 -2.6,1c-0.8,0.4 -1.6,0.9 -2.5,1.6c-0.8,0.7 -0.9,1.5 -0.4,2.6c0.5,0.7 1,1.4 1.7,2.1l2,2c0.6,0.7 1.2,1.3 1.9,1.9c0.7,0.6 1.4,1.2 2,1.7c0.7,0.7 1.6,0.8 2.6,0.4c1,-0.2 1.7,-0.8 2.2,-1.5c0.6,-0.7 1,-1.3 1.3,-1.8c0.3,-0.6 0.6,-0.9 0.9,-1.1c0.3,-0.2 0.7,-0.4 1.2,-0.5c0.5,-0.2 1.3,-0.1 2.5,0.2c1.2,0.3 2.2,0.7 2.9,1.4c0.6,0.5 1.3,0.5 2.2,-0c-1.1,-0.4 -2.3,-1.2 -3.5,-2.5c1.848,-0 3.399,-0.771 4.7,-2.266c0.389,-0.447 0.755,-0.959 1.1,-1.534c0.735,-1.487 1.342,-3.154 1.901,-4.498l-0.001,-0.002c0.3,-1.2 0.6,-2.4 0.8,-3.8c-1.2,0.6 -2.5,0.2 -3.8,-1c2.9,-1.2 4.7,-3.1 5.4,-5.7c-1.2,1 -2.3,1 -3.5,-0c1.5,-1.1 2.3,-2.2 2.2,-3.3c1.6,-1.5 2.4,-3 2.4,-4.6c-1.3,-1.7 -2.3,-3.8 -2.9,-6.3c-0.6,-2.6 -1.6,-4.6 -3.1,-6c-0.2,-0.1 -0.4,-0.2 -0.5,-0.3c-0.2,-0.2 -0.2,-0.5 -0.2,-0.9c0.2,-0.6 0.5,-1.2 0.8,-1.5l19.7,-0c0.3,0.3 0.6,0.7 0.8,1.1c0.2,0.4 0.5,0.7 1,1c0.4,0.2 0.9,0.4 1.6,0.4c0.7,-0 1.2,-0.3 1.5,-0.5l0.2,-0.1c0,0.3 0,0.7 -0.1,1.1c-0.1,0.5 -0.4,0.9 -0.8,1.1c-0.5,0.2 -1,0.4 -1.6,0.4l-1.8,-0c0.4,0.1 0.8,0.5 1,1c0.1,0.5 0.2,1.1 0.2,1.6l-0.3,1.5c-0.2,0.5 -0.5,1 -0.7,1.6c-0.3,0.7 -0.2,1.1 0.2,1.5c0.3,0.4 0.9,0.7 1.6,0.8c-1,0.3 -1.8,0.4 -2.4,0.3c-0.5,-0.1 -0.9,-0.4 -1.3,-0.8c-0.4,-0.5 -0.7,-0.8 -0.8,-1c0.4,2.9 1.6,5.1 3.7,6.6c-1,0.6 -2.1,0.6 -3.1,-0c0,2.7 1.4,4.4 4.3,5.3c-1.3,0.9 -2.6,0.9 -4,-0c1.1,3.2 3.3,5.3 6.7,6.5c-1.7,0.9 -3.3,1 -4.9,0.2c0,6.9 2.8,10.9 8.2,12c-1.2,1.4 -2.4,2.3 -3.6,2.7c0.8,0.4 1.5,0.3 2.1,-0.1c0.7,-0.7 1.7,-1.1 2.9,-1.4c1.1,-0.3 2,-0.4 2.5,-0.2c0.4,0.1 0.8,0.3 1.2,0.5c0.3,0.2 0.6,0.5 0.9,1.1c0.3,0.5 0.7,1.1 1.2,1.8c0.5,0.7 1.3,1.3 2.3,1.5c1,0.4 1.9,0.3 2.6,-0.4c0.6,-0.5 1.3,-1.1 2,-1.7c0.6,-0.6 1.3,-1.2 1.9,-1.9c0.6,-0.6 1.3,-1.3 1.9,-2c0.7,-0.7 1.3,-1.4 1.7,-2.1c0.6,-1.1 0.5,-1.9 -0.3,-2.6c-0.9,-0.7 -1.7,-1.2 -2.5,-1.6c-0.9,-0.4 -1.7,-0.7 -2.6,-1c-0.9,-0.4 -1.7,-0.9 -2.4,-1.5c-0.8,-0.7 -1.3,-1.6 -1.4,-2.6c-0.1,-1.1 0,-2.1 0.3,-3c0.3,-1 0.8,-1.8 1.6,-2.4c0.7,-0.5 1.4,-1.1 2,-1.8c0.2,-0.2 0.3,-0.4 0.4,-0.6l5.6,-7.4c0.325,-0.449 0.637,-0.899 0.936,-1.35c2.832,-4.27 4.512,-8.637 4.964,-13.25c0.7,1 1.3,2 1.7,3l10.6,-20.7c0.6,2.7 0.8,5.3 0.6,7.9c3.2,-6.6 4.6,-13.7 4.1,-21.1c6.3,4.6 8.8,10.9 7.7,19.2c2.1,-1.3 3.7,-3.3 4.9,-6.2c1.7,5.8 2.1,11.6 1.3,17.6c2.3,-0.8 4.5,-2 6.5,-3.8c1.1,6 0.4,12.4 -1.9,19.2c2.7,-0.1 4.9,-0.8 6.5,-2.4c0.2,6.5 -2,12.6 -6.5,18.3c2.6,0.7 5.3,0.1 7.9,-1.7c0.2,6.8 -2.4,13.5 -7.7,20.2c3.4,1.2 6.5,1.2 9.2,-0c-1.4,7.3 -5.9,13.6 -13.6,18.8c1.9,1.5 4.7,2.2 8.4,2c-3.4,5.6 -8.4,8.8 -15.2,9.4c0.4,1.8 2,3.3 4.8,4.4c-7.8,3 -14.7,2.7 -20.7,-0.9c-1.4,2.5 -1.4,5.1 0,7.6c-1.416,-0 -2.786,-0.081 -4.11,-0.243l0,0.008c-5.373,-0.65 -10.066,-2.636 -13.924,-5.909c-1.066,1.781 -1.055,3.563 0.034,5.344c-0.033,0 -0.067,-0 -0.101,-0.001c0,0 0.001,0.001 0.001,0.001c-3.369,-0 -6.275,-1.575 -8.539,-4.725c-1.781,1.33 -4.404,3.268 -4.961,3.825c0.047,-0.073 0.091,-0.147 0.132,-0.22c-0.077,0.073 -0.154,0.146 -0.232,0.22c0.7,-1.1 0.9,-2.2 0.6,-3.1c-0.2,-0.9 -0.6,-1.5 -1.2,-1.9c-0.2,-0.1 -0.3,-0.1 -0.5,-0.3c-0.643,-0.265 -1.257,-0.401 -1.843,-0.408c-0.924,0.012 -1.777,0.348 -2.557,1.008c-1.3,1.2 -0.9,2.6 1.2,4.4c-0.2,0.1 -0.4,0.3 -0.7,0.5c-1,0.9 -1.8,2.5 -2.4,4.7c-0.4,1 -0.3,1.8 0,2.5c0.4,1 1.4,1.7 3.1,2.2c0.286,0.062 0.573,0.095 0.863,0.098c2.029,-0.022 4.196,-1.467 6.437,-4.398c2.7,-3.5 5.7,-3.4 9.1,0.2c2,2.1 2.9,4.3 2.9,6.8c0,1.9 1.1,3 3.1,3.4c-0.4,0.2 -0.8,0.4 -1.1,0.6c-0.543,0.339 -0.994,0.748 -1.352,1.221l0.052,0.079c-0.7,0.9 -1,2 -1,3.4c0,3.6 1.4,5.8 4.3,6.7c-1.4,1 -2.8,1.5 -4.2,1.5c-0.3,-0 -1.1,-0 -2.4,-0.3c-1.194,-0.276 -1.798,-0.635 -1.966,-1.002c-0.783,1.162 -1.667,2.226 -2.834,3.102c-0.1,0.1 -0.3,0.2 -0.4,0.4c-0.1,-0 -0.1,-0 -0.1,0.1c-0.039,-0 -0.079,-0 -0.118,0.012c-0.035,0.024 -0.071,0.048 -0.107,0.072c-0.025,0.028 -0.05,0.066 -0.075,0.116c-0.042,-0 -0.101,0.017 -0.17,0.045c-0.077,0.049 -0.153,0.097 -0.23,0.145c-0.098,0.06 -0.197,0.12 -0.296,0.178c-0.003,0.009 -0.004,0.02 -0.004,0.032c-2,1.2 -4.1,1.8 -6.4,2c-0.002,-0.002 -0.005,-0.005 -0.007,-0.007c-0.031,0.002 -0.062,0.005 -0.093,0.007c-0.032,-0.032 -0.054,-0.054 -0.072,-0.066c-0.018,0.012 -0.028,0.034 -0.028,0.066c-0.032,-0 -0.065,-0.001 -0.098,-0.002c-0.001,0.001 -0.001,0.001 -0.002,0.002c-0.3,-0 -0.9,-0.1 -1.7,-0.3c1.9,-2.6 2.2,-4.8 1.1,-6.8c-0.739,0.398 -1.479,0.602 -2.237,0.594c-0.613,0.006 -1.228,-0.122 -1.863,-0.394c1.5,-2.8 1.4,-5.4 -0.4,-7.7c-1.116,-1.364 -2.387,-2.075 -3.859,-2.084c-0.888,0.005 -1.837,0.263 -2.841,0.784c-1.2,0.6 -2.1,1.3 -2.6,2.3c-0.4,0.9 -0.6,1.9 -0.4,3.1c0.1,0.6 0.2,1.1 0.4,1.7c0.678,2.237 2.228,3.371 4.621,3.371c1.138,0 2.465,-0.256 3.979,-0.771c-1.104,6.072 -3.901,9.097 -8.469,9.075c-0.292,0.001 -0.592,-0.01 -0.899,-0.034l0,-0.008Z" />
		<path
			d="M276.1,127.5c0.1,1.1 -0.7,2.2 -2.2,3.3c1.2,1 2.3,1 3.5,0c-0.7,2.6 -2.5,4.5 -5.4,5.7c1.3,1.2 2.6,1.6 3.8,1c-0.2,1.4 -0.5,2.6 -0.8,3.8l-1.9,4.5c-1.5,2.5 -3.4,3.8 -5.8,3.8c1.2,1.3 2.4,2.1 3.5,2.5c-0.9,0.5 -1.6,0.5 -2.2,-0c-0.7,-0.7 -1.7,-1.1 -2.9,-1.4c-1.2,-0.3 -2,-0.4 -2.5,-0.2c-0.5,0.1 -0.9,0.3 -1.2,0.5c-0.3,0.2 -0.6,0.5 -0.9,1.1c-0.3,0.5 -0.7,1.1 -1.3,1.8c-0.5,0.7 -1.2,1.3 -2.2,1.5c-1,0.4 -1.9,0.3 -2.6,-0.4c-0.6,-0.5 -1.3,-1.1 -2,-1.7c-0.7,-0.6 -1.3,-1.2 -1.9,-1.9l-2,-2c-0.7,-0.7 -1.2,-1.4 -1.7,-2.1c-0.5,-1.1 -0.4,-1.9 0.4,-2.6c0.9,-0.7 1.7,-1.2 2.5,-1.6c0.8,-0.4 1.7,-0.7 2.6,-1c0.8,-0.4 1.6,-0.9 2.4,-1.5c0.8,-0.7 1.3,-1.6 1.4,-2.6c0.1,-1.1 -0,-2.1 -0.3,-3c-0.4,-1 -0.9,-1.8 -1.6,-2.4c-0.7,-0.5 -1.4,-1.1 -2,-1.8c-0.2,-0.2 -0.3,-0.4 -0.4,-0.6l-5.7,-7.4c-3.3,-4.7 -5.3,-9.5 -5.9,-14.6c-0.6,1 -1.2,2 -1.7,3l-7,-13.8l-1.9,-3.7l-1.6,-3.2c-0.4,1.6 -1.326,6.9 -1.326,6.9c-0,-0 -1.426,-3.124 -2.382,-7.725c-0.827,-3.982 -1.224,-9.26 -0.992,-12.275c-6.3,5.1 -8.9,11.5 -7.7,19.1c-2.1,-1.3 -3.8,-3.3 -5,-6.2c-1.6,5.8 -2,11.6 -1.2,17.6c-2.3,-0.8 -4.5,-2 -6.5,-3.8c-1.1,6 -0.5,12.4 1.9,19.2c-2.7,-0.1 -5,-0.8 -6.5,-2.4c-0.2,6.5 2,12.6 6.4,18.3c-2.6,0.7 -5.2,0.1 -7.9,-1.7c-0.2,6.8 2.4,13.5 7.8,20.2c-3.5,1.2 -6.6,1.2 -9.3,-0c1.4,7.3 6,13.6 13.7,18.8c-2,1.5 -4.8,2.2 -8.5,2c3.4,5.6 8.5,8.8 15.3,9.4c-0.5,1.8 -2.1,3.3 -4.9,4.4c7.9,3 14.8,2.7 20.8,-0.9c1.4,2.5 1.4,5.1 -0,7.6c7.1,-0 13.2,-2.1 18,-6.2c1.1,1.8 1.1,3.6 -0,5.4c3.5,-0 6.5,-1.7 8.8,-5.1c1.2,0.9 2.8,2.3 4.8,4.2c-0.7,-1.1 -0.9,-2.2 -0.6,-3.1c0.2,-0.9 0.6,-1.5 1.2,-1.9c0.2,-0.1 0.3,-0.1 0.5,-0.3c1.7,-0.7 3.2,-0.5 4.5,0.6c1.2,1.2 0.8,2.6 -1.2,4.4c0.2,0.1 0.4,0.3 0.6,0.5c1,0.9 1.8,2.5 2.5,4.7c0.3,1 0.3,1.8 -0,2.5c-0.5,1 -1.5,1.7 -3.1,2.2c-2.3,0.5 -4.8,-0.9 -7.4,-4.3c-2.7,-3.5 -5.7,-3.4 -9.1,0.2c-2,2.1 -2.9,4.3 -2.9,6.8c-0,1.117 -0.38,1.958 -1.1,2.542c-0.505,0.409 -1.176,0.693 -2,0.858c0.4,0.2 0.8,0.4 1.1,0.6c1.6,1 2.4,2.6 2.4,4.7c-0,3.6 -1.4,5.8 -4.3,6.7c1.3,1 2.7,1.5 4.1,1.5c-0,-0 1.829,-0.098 2.469,-0.228c0.487,-0.099 1.231,-0.486 1.231,-0.486l0.705,-0.586l1.45,1.69c-0,0 1.439,1.578 2.334,2.135c1.547,0.964 4.311,2.175 7.011,2.375l0.2,0c0.3,0 0.9,-0.1 1.7,-0.3c-1.9,-2.6 -2.2,-4.8 -1.1,-6.8c1.4,0.7 2.7,0.8 4.1,0.2c-1.5,-2.8 -1.4,-5.4 0.4,-7.7c1.8,-2.2 4,-2.7 6.8,-1.3c1.2,0.6 2.1,1.3 2.6,2.3c0.4,0.9 0.5,2 0.3,3.3c-0,0.5 -0.1,1 -0.3,1.5c-1.1,3.3 -4,4.2 -8.7,2.6c1.3,6.6 4.5,9.6 9.8,9l-2.2,12.7c-0.5,2.3 -2.4,3 -5.7,2.1c-3.3,-0.9 -3.5,-3 -0.5,-6.3c-5,-0.5 -7.8,1.6 -8.7,6.2c-0,0.1 -0.1,0.2 -0.1,0.4c-2,-0.1 -3.8,0.7 -5.4,2.4c-1.9,2.1 -3.7,3.2 -5.4,3.4c-1.7,0.1 -2,-1.1 -1.1,-3.5c-2.2,1 -3.4,2.3 -3.7,3.6c-0.2,1.1 0.2,2.2 1.1,3.4c-2.3,1.3 -3.5,2.7 -3.8,4.3c-0.6,2.6 1.9,5.6 7.4,8.8c-0.9,-5 -0,-7.9 2.6,-8.8c1.3,-0.6 2.6,-0.3 3.8,0.6c1.5,1.6 2.1,3.5 1.7,5.7c0.2,-0.7 0.8,-1.7 1.7,-3c0.8,-1.3 2,-2.1 3.5,-2.4c1.4,-0.3 3.6,-1.2 6.7,-2.7c2.9,-1.4 6,-4.6 9.3,-9.5c2,11.3 -1.6,17.7 -10.8,19.2c2.3,3.3 5.4,4.3 9.3,2.7c-1.5,3.7 -1.4,6.2 0.2,7.4c1.6,1.1 3,3.8 4.4,8c0.8,-3.6 2,-6.2 3.9,-7.6c1.7,-1.4 1.8,-4.1 0.3,-7.8c4,1.6 7.1,0.6 9.4,-2.7c-9.3,-1.5 -12.9,-7.9 -10.9,-19.2c3.4,4.9 6.5,8.1 9.4,9.5c3.1,1.5 5.3,2.4 6.8,2.7c1.4,0.3 2.6,1.1 3.4,2.4c0.9,1.3 1.5,2.3 1.7,3c-0.4,-2.2 0.2,-4.1 1.8,-5.7c1.2,-0.9 2.4,-1.2 3.7,-0.6c2.6,0.9 3.4,3.8 2.6,8.8c5.5,-3.2 8,-6.2 7.5,-8.8c-0.4,-1.6 -1.6,-3 -3.8,-4.3c0.8,-1.2 1.1,-2.3 1,-3.4c-0.3,-1.3 -1.5,-2.6 -3.7,-3.6c0.9,2.4 0.5,3.6 -1.1,3.5c-1.7,-0.2 -3.5,-1.3 -5.4,-3.4c-1.6,-1.7 -3.4,-2.5 -5.3,-2.4c-0.7,-5.7 -3.7,-7.9 -8.9,-6.6c2.9,3.3 2.8,5.4 -0.5,6.3c-3.3,0.9 -5.2,0.2 -5.7,-2.1l-1.7,-10.2l-0.4,-2.5c5.3,0.6 8.5,-2.4 9.7,-9c-4.7,1.6 -7.6,0.7 -8.6,-2.6c-0.2,-0.6 -0.3,-1.1 -0.4,-1.7c-0.2,-1.2 -0,-2.2 0.4,-3.1c0.5,-1 1.4,-1.7 2.6,-2.3c2.7,-1.4 5,-0.9 6.8,1.3c1.8,2.3 1.9,4.9 0.4,7.7c1.4,0.6 2.7,0.5 4,-0.2c1.2,2 0.9,4.2 -1,6.8c0.8,0.2 1.322,0.136 1.961,0c1.189,-0.253 4.356,-0.789 6.149,-1.784c1.793,-0.995 4.61,-4.187 4.61,-4.187c-0,0 1.055,0.689 1.649,0.873c0.739,0.228 1.85,0.635 2.783,0.498c1.138,-0.167 2.648,-0.5 4.048,-1.5c-2.9,-0.9 -4.3,-3.1 -4.3,-6.7c-0,-0.767 0.224,-2.087 0.764,-2.991c0.531,-0.891 1.573,-1.784 2.188,-2.235c-2.072,-0.798 -2.514,-2.129 -2.514,-2.129c-0.708,-2.097 -0.727,-5.314 -2.493,-7.488c-1.574,-1.938 -3.759,-3.816 -6.422,-3.286c-0.9,0.4 -2.323,1.329 -3.123,2.429c-2.7,3.4 -5.1,4.8 -7.4,4.3c-1.7,-0.5 -2.7,-1.2 -3.1,-2.2c-0.3,-0.7 -0.4,-1.5 -0,-2.5c0.6,-2.2 1.4,-3.8 2.4,-4.7c0.3,-0.2 0.5,-0.4 0.7,-0.5c-2.1,-1.8 -2.5,-3.2 -1.2,-4.4c1.3,-1.1 2.8,-1.3 4.5,-0.6c0.1,0.2 0.3,0.2 0.5,0.3c0.6,0.4 0.9,1 1.2,1.9c0.2,0.9 0.1,2 -0.6,3.1c0.8,-0.8 4.628,-4.004 4.628,-4.004c2.709,3.629 6.872,4.904 8.972,4.904c-1.1,-1.8 -1.1,-3.6 -0,-5.4c4.8,4.1 10.8,6.2 18,6.2c-1.4,-2.5 -1.4,-5.1 -0,-7.6c6,3.6 12.9,3.9 20.7,0.9c-2.8,-1.1 -4.4,-2.6 -4.8,-4.4c6.8,-0.6 11.8,-3.8 15.2,-9.4c-3.7,0.2 -6.5,-0.5 -8.4,-2c7.7,-5.2 12.2,-11.5 13.6,-18.8c-2.7,1.2 -5.8,1.2 -9.2,0c5.3,-6.7 7.9,-13.4 7.7,-20.2c-2.6,1.8 -5.3,2.4 -7.9,1.7c4.5,-5.7 6.7,-11.8 6.5,-18.3c-1.6,1.6 -3.8,2.3 -6.5,2.4c2.3,-6.8 3,-13.2 1.9,-19.2c-2,1.8 -4.2,3 -6.5,3.8c0.8,-6 0.4,-11.8 -1.3,-17.6c-1.2,2.9 -2.8,4.9 -4.9,6.2c1.1,-8.3 -1.4,-14.6 -7.7,-19.2c0.5,7.4 -0.9,14.5 -4.1,21.1c0.2,-2.6 -0,-5.2 -0.6,-7.9l-10.6,20.7c-0.4,-1 -1,-2 -1.7,-3c-0.5,5.1 -2.5,9.9 -5.9,14.6l-5.6,7.4c-0.1,0.2 -0.2,0.4 -0.4,0.6c-0.6,0.7 -1.3,1.3 -2,1.8c-0.8,0.6 -1.3,1.4 -1.6,2.4c-0.3,0.9 -0.4,1.9 -0.3,3c0.1,1 0.6,1.9 1.4,2.6c0.7,0.6 1.5,1.1 2.4,1.5c0.9,0.3 1.7,0.6 2.6,1c0.8,0.4 1.6,0.9 2.5,1.6c0.8,0.7 0.9,1.5 0.3,2.6c-0.4,0.7 -1,1.4 -1.7,2.1c-0.6,0.7 -1.3,1.4 -1.9,2c-0.6,0.7 -1.3,1.3 -1.9,1.9c-0.7,0.6 -1.4,1.2 -2,1.7c-0.7,0.7 -1.6,0.8 -2.6,0.4c-1,-0.2 -1.8,-0.8 -2.3,-1.5c-0.5,-0.7 -0.9,-1.3 -1.2,-1.8c-0.3,-0.6 -0.6,-0.9 -0.9,-1.1c-0.4,-0.2 -0.8,-0.4 -1.2,-0.5c-0.5,-0.2 -1.4,-0.1 -2.5,0.2c-1.2,0.3 -2.2,0.7 -2.9,1.4c-0.6,0.4 -1.3,0.5 -2.1,0.1c1.2,-0.4 2.4,-1.3 3.6,-2.7c-5.4,-1.1 -8.2,-5.1 -8.2,-12c1.6,0.8 3.2,0.7 4.9,-0.2c-3.4,-1.2 -5.6,-3.3 -6.7,-6.5c1.4,0.9 2.7,0.9 4,0c-2.9,-0.9 -4.3,-2.6 -4.3,-5.3c1,0.6 2.1,0.6 3.1,0c-2.1,-1.5 -3.3,-3.7 -3.7,-6.6c0.1,0.2 0.4,0.5 0.8,1c0.4,0.4 0.8,0.7 1.3,0.8c0.6,0.1 1.4,0 2.4,-0.3c-0.7,-0.1 -1.3,-0.4 -1.6,-0.8c-0.4,-0.4 -0.5,-0.8 -0.2,-1.5c0.2,-0.6 0.5,-1.1 0.7,-1.6l0.3,-1.5c0,-0.5 -0.1,-1.1 -0.2,-1.6c-0.111,-0.277 -1.067,-0.91 -1.067,-0.91l-1.433,-0.49c-0,0 -0.342,-0.247 -0.646,-0.745c0,-0 0.346,0.545 0.646,0.745c0.4,0.2 0.9,0.4 1.5,0.4l1.8,0c-0,0 1.1,-0.2 1.6,-0.4c0.4,-0.2 0.7,-0.6 0.8,-1.1c0.1,-0.4 0.1,-0.8 0.1,-1.1c-0,-0.2 -0,-0.3 -0.1,-0.4c-0,0.2 -0,0.3 -0.1,0.5c-0.3,0.2 -0.8,0.5 -1.5,0.5c-0.7,0 -1.2,-0.2 -1.6,-0.4c-0.5,-0.3 -0.8,-0.6 -1,-1c-0.2,-0.4 -0.5,-0.8 -0.8,-1.1"
			style="fill:none;fill-rule:nonzero;stroke:#666;stroke-width:1px;" />
		<g>
			<path d="M340.3,152.1c-2.6,0.6 -5,0.6 -7.3,0"
				style="fill:none;fill-rule:nonzero;stroke:#666;stroke-width:1px;" />
			<path d="M321.8,122.8c0.9,2.5 0.9,4.8 -0.1,6.7"
				style="fill:none;fill-rule:nonzero;stroke:#666;stroke-width:1px;" />
			<path d="M328.3,125.5c1.7,-2.1 3.5,-4.9 5.3,-8.4"
				style="fill:none;fill-rule:nonzero;stroke:#666;stroke-width:1px;" />
			<path d="M333.6,117.1c2.2,-1.4 4.5,-3 6.7,-4.7"
				style="fill:none;fill-rule:nonzero;stroke:#666;stroke-width:1px;" />
			<path d="M330.5,114.9c0.2,2.8 -0.5,6.4 -2.2,10.6"
				style="fill:none;fill-rule:nonzero;stroke:#666;stroke-width:1px;" />
			<path d="M337.3,127.4c0.9,-0.1 1.8,-0.3 2.7,-0.5"
				style="fill:none;fill-rule:nonzero;stroke:#666;stroke-width:1px;" />
			<path d="M326.8,129c-2,-0.1 -3.7,0.1 -5.2,0.8c0.1,-0.1 0.1,-0.2 0.1,-0.2l0,-0.1"
				style="fill:none;fill-rule:nonzero;stroke:#666;stroke-width:1px;" />
			<path d="M333.2,139.8c0.2,0.1 0.2,0.1 0.3,0.2c-0.7,2 -1.3,3.4 -2,4.5"
				style="fill:none;fill-rule:nonzero;stroke:#666;stroke-width:1px;" />
			<path d="M321.7,129.5l6,-11.5" style="fill:none;fill-rule:nonzero;stroke:#666;stroke-width:1px;" />
			<path d="M331.6,149.4c-0.6,-1.1 -1.2,-2.1 -2,-3.2c0.7,-0.2 1.2,-0.8 1.9,-1.7"
				style="fill:none;fill-rule:nonzero;stroke:#666;stroke-width:1px;" />
			<path d="M331.5,144.5c3.4,-0.2 6.8,-1 10.2,-2.5"
				style="fill:none;fill-rule:nonzero;stroke:#666;stroke-width:1px;" />
			<path d="M330.4,137.6c-0.6,-0.3 -1.2,-0.6 -1.8,-0.8"
				style="fill:none;fill-rule:nonzero;stroke:#666;stroke-width:1px;" />
			<path d="M333.2,139.8c-0.9,-0.9 -1.8,-1.7 -2.8,-2.2"
				style="fill:none;fill-rule:nonzero;stroke:#666;stroke-width:1px;" />
			<path d="M328.6,136.8c-0.4,-0.2 -0.8,-0.3 -1.2,-0.3c1,-1.9 1.4,-3.8 1.4,-5.9"
				style="fill:none;fill-rule:nonzero;stroke:#666;stroke-width:1px;" />
			<path d="M328.8,130.6c0,-0.4 0,-0.9 -0.1,-1.5c-0.7,-0.1 -1.3,-0.1 -1.9,-0.1"
				style="fill:none;fill-rule:nonzero;stroke:#666;stroke-width:1px;" />
			<path d="M330.4,137.6c2.7,-1.2 5.3,-3.2 7.9,-5.8"
				style="fill:none;fill-rule:nonzero;stroke:#666;stroke-width:1px;" />
			<path d="M340.8,136.5c-2.6,1.9 -5,3 -7.6,3.3"
				style="fill:none;fill-rule:nonzero;stroke:#666;stroke-width:1px;" />
			<path d="M333.7,123.8c-1.7,3.4 -3.3,5.7 -4.9,6.8"
				style="fill:none;fill-rule:nonzero;stroke:#666;stroke-width:1px;" />
			<path d="M328.3,125.5c-0.4,1.1 -1,2.3 -1.5,3.5"
				style="fill:none;fill-rule:nonzero;stroke:#666;stroke-width:1px;" />
			<path d="M328.6,136.8c2.7,-2.6 5.6,-5.8 8.7,-9.4"
				style="fill:none;fill-rule:nonzero;stroke:#666;stroke-width:1px;" />
			<path d="M350.1,127.4c-0.1,0.1 -0.1,0.3 -0.2,0.5c-1.6,2.8 -4.7,5.7 -9.1,8.6"
				style="fill:none;fill-rule:nonzero;stroke:#666;stroke-width:1px;" />
			<path d="M333.6,117.1c4.2,-6.2 6.6,-12.4 7,-18.7"
				style="fill:none;fill-rule:nonzero;stroke:#666;stroke-width:1px;" />
			<path d="M334.8,107l-4.3,7.9" style="fill:none;fill-rule:nonzero;stroke:#666;stroke-width:1px;" />
			<path d="M340.3,112.4c1.5,-1.2 2.9,-2.5 4.4,-3.8c0.2,6.3 -2.2,12.6 -7.4,18.8"
				style="fill:none;fill-rule:nonzero;stroke:#666;stroke-width:1px;" />
			<path d="M333,152.1c0.1,0.5 0.3,0.9 0.5,1.4c-2.8,1.7 -5.5,2.3 -8.2,1.9c0.1,0.3 0.1,0.6 0.2,0.9"
				style="fill:none;fill-rule:nonzero;stroke:#666;stroke-width:1px;" />
			<path d="M339.7,148.4c-2.6,0.8 -5.3,1.1 -8.1,1"
				style="fill:none;fill-rule:nonzero;stroke:#666;stroke-width:1px;" />
			<path d="M345.4,124.9c2,-1 3.9,-2.2 5.8,-3.6c0.2,0.9 0.2,1.8 0.1,2.7c-0.2,1.1 -0.5,2.3 -1.2,3.4"
				style="fill:none;fill-rule:nonzero;stroke:#666;stroke-width:1px;" />
			<path d="M348.1,136.8c2,-0.2 4.1,-0.6 6.1,-1.1c-0.4,1.3 -1.1,2.6 -1.8,3.8"
				style="fill:none;fill-rule:nonzero;stroke:#666;stroke-width:1px;" />
			<path d="M348.1,136.8c4.3,-3.8 7.9,-9.1 10.7,-15.9"
				style="fill:none;fill-rule:nonzero;stroke:#666;stroke-width:1px;" />
			<path d="M363.2,123.3c-3.4,6.5 -7,11.9 -10.8,16.2"
				style="fill:none;fill-rule:nonzero;stroke:#666;stroke-width:1px;" />
			<path d="M345.1,149.2c1,0.1 2,0.1 3,0.1c1.1,-0 2.3,-0.1 3.4,-0.2"
				style="fill:none;fill-rule:nonzero;stroke:#666;stroke-width:1px;" />
			<path d="M351.5,149.1l3.3,-0.6c-2.6,6.8 -7.8,10 -15.6,9.8"
				style="fill:none;fill-rule:nonzero;stroke:#666;stroke-width:1px;" />
			<path d="M361,136c-5.5,6.3 -10.9,10.7 -15.9,13.2"
				style="fill:none;fill-rule:nonzero;stroke:#666;stroke-width:1px;" />
			<path d="M351.5,149.1c5.6,-2.9 9.5,-6.2 11.7,-9.9"
				style="fill:none;fill-rule:nonzero;stroke:#666;stroke-width:1px;" />
			<path d="M346.6,95.6c-0.9,7.4 -2.9,12.9 -6.3,16.8"
				style="fill:none;fill-rule:nonzero;stroke:#666;stroke-width:1px;" />
			<path d="M340,126.9c6.6,-9.4 10.7,-19.5 12.4,-30.4"
				style="fill:none;fill-rule:nonzero;stroke:#666;stroke-width:1px;" />
			<path d="M350.1,127.4c4.5,-6.9 7.3,-13.4 8.5,-19.5"
				style="fill:none;fill-rule:nonzero;stroke:#666;stroke-width:1px;" />
			<path d="M353.9,108.1c-2.1,7.1 -4.9,12.7 -8.5,16.8"
				style="fill:none;fill-rule:nonzero;stroke:#666;stroke-width:1px;" />
			<path d="M352.4,139.5c-2.7,4.4 -6.9,7.3 -12.7,8.9"
				style="fill:none;fill-rule:nonzero;stroke:#666;stroke-width:1px;" />
			<path d="M340,126.9c1.8,-0.5 3.6,-1.1 5.4,-2"
				style="fill:none;fill-rule:nonzero;stroke:#666;stroke-width:1px;" />
			<path d="M331.6,149.4c0.5,0.9 1,1.8 1.4,2.7"
				style="fill:none;fill-rule:nonzero;stroke:#666;stroke-width:1px;" />
			<path d="M339.7,148.4c1.8,0.4 3.6,0.7 5.4,0.8"
				style="fill:none;fill-rule:nonzero;stroke:#666;stroke-width:1px;" />
			<path d="M340.8,136.5c2.4,0.3 4.9,0.4 7.3,0.3"
				style="fill:none;fill-rule:nonzero;stroke:#666;stroke-width:1px;" />
			<path d="M329.4,111.2c0.6,1 1,2.3 1.1,3.7"
				style="fill:none;fill-rule:nonzero;stroke:#666;stroke-width:1px;" />
			<path d="M330.6,179c5.3,3.8 12.5,6.7 21.6,8.9"
				style="fill:none;fill-rule:nonzero;stroke:#666;stroke-width:1px;" />
			<path d="M318.9,177.3c0.1,2.5 0.7,5.2 1.9,8"
				style="fill:none;fill-rule:nonzero;stroke:#666;stroke-width:1px;" />
			<path d="M339.2,158.3c0.6,0.7 1.3,1.5 2,2.2"
				style="fill:none;fill-rule:nonzero;stroke:#666;stroke-width:1px;" />
			<path d="M320.1,162.4c-1.5,-0.5 -2.5,-1.3 -3.2,-2.4c-0.3,1.6 -0.8,3.1 -1.5,4.5"
				style="fill:none;fill-rule:nonzero;stroke:#666;stroke-width:1px;" />
			<path d="M325.2,161.5c-0.1,0.5 -0.2,1 -0.3,1.6c-2,0 -3.6,-0.3 -4.8,-0.7"
				style="fill:none;fill-rule:nonzero;stroke:#666;stroke-width:1px;" />
			<path d="M325.5,158c0,1.1 -0.1,2.3 -0.3,3.5"
				style="fill:none;fill-rule:nonzero;stroke:#666;stroke-width:1px;" />
			<path d="M325.5,156.3l0,1.7" style="fill:none;fill-rule:nonzero;stroke:#666;stroke-width:1px;" />
			<path d="M318.9,177.3c-0.1,-1.7 -0,-3.3 0.4,-4.8"
				style="fill:none;fill-rule:nonzero;stroke:#666;stroke-width:1px;" />
			<path d="M319.3,172.5c1.4,1.6 3,2.9 4.7,4"
				style="fill:none;fill-rule:nonzero;stroke:#666;stroke-width:1px;" />
			<path d="M333.1,168.7c0,2.5 0.7,5.1 2.2,7.7"
				style="fill:none;fill-rule:nonzero;stroke:#666;stroke-width:1px;" />
			<path d="M336.3,169.6c-1,-0.2 -2.1,-0.5 -3.2,-0.9"
				style="fill:none;fill-rule:nonzero;stroke:#666;stroke-width:1px;" />
			<path d="M315.4,164.5c0.5,2.6 1.8,5.3 3.9,8"
				style="fill:none;fill-rule:nonzero;stroke:#666;stroke-width:1px;" />
			<path d="M335.8,163.2c-3.7,-1 -7.1,-2.7 -10.3,-5.2"
				style="fill:none;fill-rule:nonzero;stroke:#666;stroke-width:1px;" />
			<path d="M326.9,170.8c-4,-3 -6.3,-5.8 -6.8,-8.4"
				style="fill:none;fill-rule:nonzero;stroke:#666;stroke-width:1px;" />
			<path d="M330.6,179c-2.4,-0.4 -4.6,-1.3 -6.6,-2.5"
				style="fill:none;fill-rule:nonzero;stroke:#666;stroke-width:1px;" />
			<path d="M325.5,156.3c4.5,1.4 9.1,2.1 13.7,2"
				style="fill:none;fill-rule:nonzero;stroke:#666;stroke-width:1px;" />
			<path d="M333.1,168.7c-3.2,-1.8 -5.9,-4.2 -7.9,-7.2"
				style="fill:none;fill-rule:nonzero;stroke:#666;stroke-width:1px;" />
			<path d="M315.4,164.5c-0.4,0.9 -1,1.8 -1.7,2.7c-0.4,-0.1 -0.8,-0.2 -1.1,-0.4"
				style="fill:none;fill-rule:nonzero;stroke:#666;stroke-width:1px;" />
			<path d="M314.3,173.9c-1.2,-2.4 -1.8,-4.7 -1.7,-7.1"
				style="fill:none;fill-rule:nonzero;stroke:#666;stroke-width:1px;" />
			<path d="M347.2,164.9c5.4,-0.6 10.7,-3 16.2,-7.2"
				style="fill:none;fill-rule:nonzero;stroke:#666;stroke-width:1px;" />
			<path d="M347.2,164.9c1.5,0.8 3.3,1.5 5.1,2.1c-5.5,2.8 -10.8,3.6 -16,2.6"
				style="fill:none;fill-rule:nonzero;stroke:#666;stroke-width:1px;" />
			<path d="M337.3,179.4c4.8,2.1 10.4,2.8 16.8,2.2"
				style="fill:none;fill-rule:nonzero;stroke:#666;stroke-width:1px;" />
			<path d="M362.2,150c-4.3,6.5 -11.4,10 -21,10.5"
				style="fill:none;fill-rule:nonzero;stroke:#666;stroke-width:1px;" />
			<path d="M361.7,167.9c-8.9,4.7 -17.4,5.2 -25.4,1.7"
				style="fill:none;fill-rule:nonzero;stroke:#666;stroke-width:1px;" />
			<path d="M335.3,176.4c7.9,2 15.8,2 23.7,0.1"
				style="fill:none;fill-rule:nonzero;stroke:#666;stroke-width:1px;" />
			<path d="M341.2,160.5c1.6,1.8 3.6,3.2 6,4.4"
				style="fill:none;fill-rule:nonzero;stroke:#666;stroke-width:1px;" />
			<path d="M320.8,185.3c1,2.8 3.3,5.5 6.8,8.3"
				style="fill:none;fill-rule:nonzero;stroke:#666;stroke-width:1px;" />
			<path d="M312.5,182c2.1,2 4.9,3.1 8.3,3.3"
				style="fill:none;fill-rule:nonzero;stroke:#666;stroke-width:1px;" />
			<path d="M336.3,191.4c-8.1,-3.8 -13.9,-8.5 -17.4,-14.1"
				style="fill:none;fill-rule:nonzero;stroke:#666;stroke-width:1px;" />
			<path d="M324,176.5c3.5,4.9 9.7,9.2 18.5,12.8"
				style="fill:none;fill-rule:nonzero;stroke:#666;stroke-width:1px;" />
			<path d="M312.5,182c0.7,3.6 2.6,7.2 5.8,10.8"
				style="fill:none;fill-rule:nonzero;stroke:#666;stroke-width:1px;" />
			<path d="M335.3,176.4c0.5,1 1.2,2 2,3" style="fill:none;fill-rule:nonzero;stroke:#666;stroke-width:1px;" />
			<path d="M337.3,179.4c-2.4,0.2 -4.6,0 -6.7,-0.4"
				style="fill:none;fill-rule:nonzero;stroke:#666;stroke-width:1px;" />
			<path d="M270.9,166c-1.5,-0.9 -2.7,-2.9 -3.4,-6"
				style="fill:none;fill-rule:nonzero;stroke:#666;stroke-width:1px;" />
			<path d="M267.5,160c-0.3,4.8 -1.7,8.2 -4,10.3"
				style="fill:none;fill-rule:nonzero;stroke:#666;stroke-width:1px;" />
			<path d="M261.7,167.3c-0.5,-1.6 -0.9,-3.3 -1.3,-5.3c-1.2,2.4 -2.6,4 -4.4,4.8"
				style="fill:none;fill-rule:nonzero;stroke:#666;stroke-width:1px;" />
			<path d="M254.3,173.9c1.2,-2.4 1.7,-4.7 1.7,-7.1"
				style="fill:none;fill-rule:nonzero;stroke:#666;stroke-width:1px;" />
			<path d="M267.5,169.2l0,-9.2" style="fill:none;fill-rule:nonzero;stroke:#666;stroke-width:1px;" />
			<path d="M270.9,179.2c0.029,-3.954 -0.067,-12.425 0,-13"
				style="fill:none;fill-rule:nonzero;stroke:#666;stroke-width:1px;" />
			<path d="M279.8,167.1l0,-0.3" style="fill:none;fill-rule:nonzero;stroke:#666;stroke-width:1px;" />
			<path d="M272.2,188.5c2,-2.3 3.2,-5.8 3.6,-10.4c0.2,1.1 0.4,2.1 0.7,3.1l0,0.2"
				style="fill:none;fill-rule:nonzero;stroke:#666;stroke-width:1px;" />
			<path d="M279.8,167.1l0,12.3" style="fill:none;fill-rule:nonzero;stroke:#666;stroke-width:1px;" />
			<path d="M263.5,170.3c0.5,3.5 1.7,5.9 3.8,7.2"
				style="fill:none;fill-rule:nonzero;stroke:#666;stroke-width:1px;" />
			<path d="M274.9,155.9l-0,11.957" style="fill:none;fill-rule:nonzero;stroke:#666;stroke-width:1px;" />
			<path d="M274.9,155.9c0.9,4.9 2.6,8.5 4.9,10.9"
				style="fill:none;fill-rule:nonzero;stroke:#666;stroke-width:1px;" />
			<path d="M260.1,175.8c-1,2.6 -2.3,4.6 -4,6.2"
				style="fill:none;fill-rule:nonzero;stroke:#666;stroke-width:1px;" />
			<path d="M263.5,170.3c-0.9,-1 -1.5,-2 -1.8,-3"
				style="fill:none;fill-rule:nonzero;stroke:#666;stroke-width:1px;" />
			<path d="M270.5,158.7c-0.3,-2.1 0.2,-4.2 1.5,-6.3"
				style="fill:none;fill-rule:nonzero;stroke:#666;stroke-width:1px;" />
			<path d="M274.9,155.8c-0.8,5.6 -2.2,9 -4,10.2"
				style="fill:none;fill-rule:nonzero;stroke:#666;stroke-width:1px;" />
			<path d="M279.8,166.8c1.7,-1.4 2.9,-3.4 3.5,-6l0.573,-2.001l0.18,-2.184"
				style="fill:none;fill-rule:nonzero;stroke:#666;stroke-width:1px;" />
			<path d="M267.3,177.5c1.5,-2 2.5,-4.6 3.2,-8.1c0.1,-1.1 0.2,-2.2 0.4,-3.4"
				style="fill:none;fill-rule:nonzero;stroke:#666;stroke-width:1px;" />
			<path d="M273.9,151.9l1.122,4.573" style="fill:none;fill-rule:nonzero;stroke:#666;stroke-width:1px;" />
			<path d="M279.8,166.8c-0.3,4.6 -1.7,8.4 -4.2,11.3c-2.5,-2.8 -4.1,-6.8 -4.7,-11.9"
				style="fill:none;fill-rule:nonzero;stroke:#666;stroke-width:1px;" />
			<path d="M283.7,197.9c-1.8,-2.6 -3,-5.6 -3.4,-9.2c-0.1,-0.1 -0.1,-0.2 -0.1,-0.2l0,0.2"
				style="fill:none;fill-rule:nonzero;stroke:#666;stroke-width:1px;" />
			<path d="M261.7,167.3c0.1,2.8 -0.4,5.7 -1.6,8.5"
				style="fill:none;fill-rule:nonzero;stroke:#666;stroke-width:1px;" />
			<path d="M263.3,181.1c-0.6,-1.4 -1.3,-2.7 -2.1,-4c-0.4,-0.4 -0.7,-0.9 -1.1,-1.3"
				style="fill:none;fill-rule:nonzero;stroke:#666;stroke-width:1px;" />
			<path d="M267.3,177.5c0.1,1.3 0.2,2.5 0.5,3.5"
				style="fill:none;fill-rule:nonzero;stroke:#666;stroke-width:1px;" />
			<path d="M267.8,181c-0.7,0.8 -1.4,1.6 -2.2,2.3c-0.4,0.4 -0.9,0.8 -1.3,1.2c-0.3,-1.2 -0.6,-2.3 -1,-3.4"
				style="fill:none;fill-rule:nonzero;stroke:#666;stroke-width:1px;" />
			<path d="M280.2,188.7c-0.925,4.487 -1.97,7.599 -3.3,9.4c-0.2,-0.1 -0.4,-0.2 -0.5,-0.3"
				style="fill:none;fill-rule:nonzero;stroke:#666;stroke-width:1px;" />
			<path d="M279.607,159.259l-0.029,-4.893"
				style="fill:none;fill-rule:nonzero;stroke:#666;stroke-width:1px;" />
			<path d="M288.9,159.4l-0,-5.1" style="fill:none;fill-rule:nonzero;stroke:#666;stroke-width:1px;" />
			<path d="M293.7,155.8c-0.7,3.5 -2.602,9.29 -4.826,11.1"
				style="fill:none;fill-rule:nonzero;stroke:#666;stroke-width:1px;" />
			<path d="M284.083,156.886c0.483,2.415 1.552,4.978 2.797,7.242c0.559,1.017 1.611,2.194 2.045,2.876"
				style="fill:none;fill-rule:nonzero;stroke:#666;stroke-width:1px;" />
			<path
				d="M270.8,152.1c0.197,0.098 1.099,0.275 1.2,0.3c0.3,0 0.7,0 1,-0.1c0.3,-0.1 0.6,-0.2 0.9,-0.4l0.896,-1.867c0,0 0.398,1.016 0.667,1.459c0.899,1.484 2.273,2.48 4.121,2.942c1.7,-0.6 3.073,-1.841 3.689,-2.653c0.393,-0.518 0.727,-1.581 0.727,-1.581c0.478,1.094 0.492,1.207 0.973,1.609c0.817,0.683 2.227,1.891 3.927,2.491c2.4,-0.6 4,-2.1 4.8,-4.4c0.7,1.3 1.3,2 1.8,2.2c0.4,0.1 0.7,0.2 1.1,0.2c0.4,-0 0.9,-0 1.3,-0.1"
				style="fill:none;fill-rule:nonzero;stroke:#666;stroke-width:1px;" />
			<path d="M276.5,181.4c0.8,3 2,5.4 3.8,7c0,0.1 0,0.1 0.1,0.1c1.5,-1.4 2.7,-4.5 3.5,-9.4l0,-2"
				style="fill:none;fill-rule:nonzero;stroke:#666;stroke-width:1px;" />
			<path
				d="M292.235,180.541c-0.7,3.4 -2.035,6.159 -3.935,7.859c0,0.1 0,0.1 -0.1,0.1c-1.6,-1.4 -2.8,-4.5 -3.6,-9.4l0,-2"
				style="fill:none;fill-rule:nonzero;stroke:#666;stroke-width:1px;" />
			<path d="M267.8,181c0.8,3.8 2.3,6.3 4.4,7.5"
				style="fill:none;fill-rule:nonzero;stroke:#666;stroke-width:1px;" />
			<path
				d="M297.3,168.7c-0.3,1.3 -0.618,2.507 -1.1,3.7c-0.803,1.989 -2.9,5.3 -3.3,5.7c-2,-2.4 -3.939,-8.04 -4.02,-11.714"
				style="fill:none;fill-rule:nonzero;stroke:#666;stroke-width:1px;" />
			<path d="M289,179.8l-0.274,-10.85" style="fill:none;fill-rule:nonzero;stroke:#666;stroke-width:1px;" />
			<path d="M284.6,177.1c2.2,-2.5 4.228,-7.221 4.316,-10.619"
				style="fill:none;fill-rule:nonzero;stroke:#666;stroke-width:1px;" />
			<path d="M294,168.4l0,-10.7" style="fill:none;fill-rule:nonzero;stroke:#666;stroke-width:1px;" />
			<path d="M284.2,167.636c0.056,-3.167 -0.053,-8.293 -0.184,-8.358"
				style="fill:none;fill-rule:nonzero;stroke:#666;stroke-width:1px;" />
			<path d="M283.9,177.1c-2.4,-2.9 -3.8,-6.3 -4.1,-10"
				style="fill:none;fill-rule:nonzero;stroke:#666;stroke-width:1px;" />
			<path d="M288.4,198.7l-0,-10" style="fill:none;fill-rule:nonzero;stroke:#666;stroke-width:1px;" />
			<path d="M288,205.4c-0.6,3.8 -1.9,6.4 -3.7,7.8c-1.9,-1.4 -3.1,-4 -3.7,-7.8"
				style="fill:none;fill-rule:nonzero;stroke:#666;stroke-width:1px;" />
			<path d="M268.9,197.5c3,-0.9 4.4,-2.8 4.1,-5.8"
				style="fill:none;fill-rule:nonzero;stroke:#666;stroke-width:1px;" />
			<path d="M272.5,205.4c1.6,-1.9 2.7,-4.6 3.2,-8.2"
				style="fill:none;fill-rule:nonzero;stroke:#666;stroke-width:1px;" />
			<path d="M276.4,197.8c0.8,3.4 2.1,5.9 4,7.7l-0,0.1l0.2,-0.2"
				style="fill:none;fill-rule:nonzero;stroke:#666;stroke-width:1px;" />
			<path d="M275.911,189.9l-0.005,-8.829" style="fill:none;fill-rule:nonzero;stroke:#666;stroke-width:1px;" />
			<path d="M292.662,180.7l-0.462,9.2" style="fill:none;fill-rule:nonzero;stroke:#666;stroke-width:1px;" />
			<path d="M284.4,177.4l-0,12.5" style="fill:none;fill-rule:nonzero;stroke:#666;stroke-width:1px;" />
			<path d="M280.6,205.4c1.3,-1.2 2.3,-3.7 3,-7.3c0.1,-0.1 0.1,-0.2 0.1,-0.2"
				style="fill:none;fill-rule:nonzero;stroke:#666;stroke-width:1px;" />
			<path d="M275.7,197.2c-1.1,-1.1 -2,-2.9 -2.7,-5.5"
				style="fill:none;fill-rule:nonzero;stroke:#666;stroke-width:1px;" />
			<path d="M283.7,197.9l0.1,0" style="fill:none;fill-rule:nonzero;stroke:#666;stroke-width:1px;" />
			<path d="M273,191.7c-0.3,-1 -0.5,-2 -0.8,-3.2"
				style="fill:none;fill-rule:nonzero;stroke:#666;stroke-width:1px;" />
			<path d="M283.993,157.482c0.013,-1.263 0.013,-5.503 0.007,-7.282"
				style="fill:none;fill-rule:nonzero;stroke:#666;stroke-width:1px;" />
			<path d="M283.9,177.1c0.1,0.1 0.3,0.2 0.5,0.3"
				style="fill:none;fill-rule:nonzero;stroke:#666;stroke-width:1px;" />
			<path d="M296.3,188.5c-2,-2.3 -3.2,-5.8 -3.6,-10.4c-0.1,0.9 -0.3,1.7 -0.5,2.6"
				style="fill:none;fill-rule:nonzero;stroke:#666;stroke-width:1px;" />
			<path d="M288.4,188.7l-0,-0.2c-0.1,-0 -0.1,0.1 -0.1,0.2c-0.5,3.6 -1.6,6.6 -3.5,9.2"
				style="fill:none;fill-rule:nonzero;stroke:#666;stroke-width:1px;" />
			<path d="M288,205.4c-1.3,-1.2 -2.3,-3.7 -3.1,-7.3c0,-0.1 0,-0.2 -0.1,-0.2"
				style="fill:none;fill-rule:nonzero;stroke:#666;stroke-width:1px;" />
			<path d="M292.2,197.8c-0.2,0.1 -0.3,0.2 -0.5,0.3c-1.8,-1.7 -2.9,-4.8 -3.3,-9.4"
				style="fill:none;fill-rule:nonzero;stroke:#666;stroke-width:1px;" />
			<path d="M292.2,197.8c-0.8,3.4 -2.1,5.9 -4,7.7l-0.1,0.1c0,-0.1 -0.1,-0.1 -0.1,-0.2"
				style="fill:none;fill-rule:nonzero;stroke:#666;stroke-width:1px;" />
			<path
				d="M276.6,213.2c0.8,1.6 1.6,3.2 2.5,4.6c0.8,1.4 1.8,2.7 2.8,4c1.1,-1.3 1.9,-4.2 2.4,-8.6c0.5,4.4 1.3,7.3 2.3,8.6c1.1,-1.3 2,-2.6 2.9,-4c0.9,-1.4 1.7,-3 2.4,-4.6"
				style="fill:none;fill-rule:nonzero;stroke:#666;stroke-width:1px;" />
			<path d="M288,205.4c0.6,2.9 1.9,5.5 3.9,7.8"
				style="fill:none;fill-rule:nonzero;stroke:#666;stroke-width:1px;" />
			<path d="M296.1,205.4c-1.6,-1.9 -2.7,-4.6 -3.2,-8.2"
				style="fill:none;fill-rule:nonzero;stroke:#666;stroke-width:1px;" />
			<path d="M299.6,197.5c-3,-0.9 -4.3,-2.8 -4,-5.8"
				style="fill:none;fill-rule:nonzero;stroke:#666;stroke-width:1px;" />
			<path
				d="M301.3,177.5c0,0.7 -0.022,1.622 -0.129,2.423c-0.261,1.952 -0.688,3.771 -1.5,5.2c-0.785,1.383 -1.971,2.577 -3.371,3.377"
				style="fill:none;fill-rule:nonzero;stroke:#666;stroke-width:1px;" />
			<path d="M291.9,213.2c2.3,-1.3 3.7,-3.9 4.2,-7.8"
				style="fill:none;fill-rule:nonzero;stroke:#666;stroke-width:1px;" />
			<path d="M284.194,206.055c0.076,-2.533 0.054,-5.193 0.016,-7.978"
				style="fill:none;fill-rule:nonzero;stroke:#666;stroke-width:1px;" />
			<path d="M276.6,213.2c2.1,-2.3 3.4,-4.9 4,-7.8"
				style="fill:none;fill-rule:nonzero;stroke:#666;stroke-width:1px;" />
			<path d="M280.2,198.216l0,-9.516" style="fill:none;fill-rule:nonzero;stroke:#666;stroke-width:1px;" />
			<path d="M263.3,181.1c-0.3,4 -1.7,8 -4.2,12"
				style="fill:none;fill-rule:nonzero;stroke:#666;stroke-width:1px;" />
			<path d="M276.4,197.8c-0.2,-0.2 -0.5,-0.4 -0.7,-0.6"
				style="fill:none;fill-rule:nonzero;stroke:#666;stroke-width:1px;" />
			<path
				d="M283.8,197.9c0,0 0,0.2 0.1,0.3c0.1,0.1 0.2,0.2 0.3,0.3c0.2,-0.1 0.4,-0.2 0.4,-0.3l0.1,-0.1c0.1,-0.1 0.1,-0.2 0.1,-0.2"
				style="fill:none;fill-rule:nonzero;stroke:#666;stroke-width:1px;" />
			<path d="M295.6,191.7c-0.7,2.6 -1.6,4.4 -2.7,5.5"
				style="fill:none;fill-rule:nonzero;stroke:#666;stroke-width:1px;" />
			<path d="M295.6,191.7c0.2,-1 0.5,-2 0.7,-3.2"
				style="fill:none;fill-rule:nonzero;stroke:#666;stroke-width:1px;" />
			<path d="M292.9,197.2c-0.3,0.2 -0.5,0.4 -0.7,0.6"
				style="fill:none;fill-rule:nonzero;stroke:#666;stroke-width:1px;" />
			<path d="M297.2,204.7c-0.3,0.3 -0.7,0.5 -1.1,0.7"
				style="fill:none;fill-rule:nonzero;stroke:#666;stroke-width:1px;" />
			<path d="M284.5,234c-2.5,-3.5 -4.2,-7.8 -5.2,-12.9"
				style="fill:none;fill-rule:nonzero;stroke:#666;stroke-width:1px;" />
			<path d="M284.5,234c2.3,-3.3 3.9,-7.7 4.7,-13.1"
				style="fill:none;fill-rule:nonzero;stroke:#666;stroke-width:1px;" />
			<path d="M256.8,219.7c-0.3,2.6 -1.697,4.239 -3.295,5.476"
				style="fill:none;fill-rule:nonzero;stroke:#666;stroke-width:1px;" />
			<path d="M303.4,224.3c0.3,-0.1 0.6,-0.3 0.8,-0.5c2.3,-2.2 3.2,-5.2 2.8,-9c0.4,2.6 2,4.2 4.8,4.9"
				style="fill:none;fill-rule:nonzero;stroke:#666;stroke-width:1px;" />
			<path d="M272.5,205.4c0.5,3.9 1.9,6.5 4.1,7.8"
				style="fill:none;fill-rule:nonzero;stroke:#666;stroke-width:1px;" />
			<path d="M256.8,219.7c-0.6,0.1 -1.3,0.2 -2,0.3c-1,-2.8 -0.7,-6.4 1,-10.9c-3,4.2 -5.9,5.7 -8.9,4.5"
				style="fill:none;fill-rule:nonzero;stroke:#666;stroke-width:1px;" />
			<path d="M315.1,225.1c-1.9,-1 -3,-2.8 -3.3,-5.4"
				style="fill:none;fill-rule:nonzero;stroke:#666;stroke-width:1px;" />
			<path d="M311.8,219.7c0.6,0.1 1.2,0.2 2,0.3c1,-2.8 0.7,-6.4 -1,-10.9c2.3,3.3 4.6,4.9 6.9,4.9"
				style="fill:none;fill-rule:nonzero;stroke:#666;stroke-width:1px;" />
			<path d="M265.1,224.3c-0.2,-0.1 -0.5,-0.3 -0.8,-0.5c-2.2,-2.2 -3.1,-5.2 -2.7,-9c-0.4,2.6 -2,4.2 -4.8,4.9"
				style="fill:none;fill-rule:nonzero;stroke:#666;stroke-width:1px;" />
			<path d="M271.4,204.7c0.3,0.3 0.7,0.5 1.1,0.7"
				style="fill:none;fill-rule:nonzero;stroke:#666;stroke-width:1px;" />
			<path d="M278.1,109.7c0.1,0.5 0,0.9 -0.1,1.4c-0.1,0.5 -0.5,0.8 -1.2,0.9c-0.7,0.1 -1.1,-0.5 -1.2,-1.8"
				style="fill:none;fill-rule:nonzero;stroke:#666;stroke-width:1px;" />
			<path
				d="M293.3,137.5l-1.8,-1.6c-0.1,2.5 -0.6,4.8 -1.5,6.9c-3,-0.9 -4.7,-3 -5.2,-6.3c-0.4,2.2 -2.2,4.4 -5.3,6.5c-1.1,-2.2 -1.6,-4.5 -1.5,-6.7l-2.2,1.2"
				style="fill:none;fill-rule:nonzero;stroke:#666;stroke-width:1px;" />
			<path
				d="M291.5,130.8l-1.7,-2.6c-1.1,1.2 -1.6,2.7 -1.3,4.6c-2,-0.9 -3.3,-2.5 -4,-4.7c-0.3,2.2 -1.7,3.9 -3.9,4.9l-1.2,-3.7l-2,1.5"
				style="fill:none;fill-rule:nonzero;stroke:#666;stroke-width:1px;" />
			<path d="M293.7,155.8c0.5,-2 0.5,-3.9 0,-5.9"
				style="fill:none;fill-rule:nonzero;stroke:#666;stroke-width:1px;" />
			<path d="M297.7,166c-1.6,-1 -2.9,-3.8 -3.7,-8.3"
				style="fill:none;fill-rule:nonzero;stroke:#666;stroke-width:1px;" />
			<path d="M298,158c0.2,-1.9 -0.2,-3.8 -1.4,-5.7"
				style="fill:none;fill-rule:nonzero;stroke:#666;stroke-width:1px;" />
			<path d="M306.9,167.3c-0.2,2.8 0.3,5.7 1.5,8.5"
				style="fill:none;fill-rule:nonzero;stroke:#666;stroke-width:1px;" />
			<path d="M305.1,170.3c-0.5,3.5 -1.8,5.9 -3.8,7.2"
				style="fill:none;fill-rule:nonzero;stroke:#666;stroke-width:1px;" />
			<path d="M301.1,168.6l0,-8.6" style="fill:none;fill-rule:nonzero;stroke:#666;stroke-width:1px;" />
			<path d="M297.7,166c0.1,1.2 0.3,2.3 0.4,3.4c0.6,3.5 1.7,6.1 3.2,8.1"
				style="fill:none;fill-rule:nonzero;stroke:#666;stroke-width:1px;" />
			<path d="M297.7,166c-0.1,1 -0.2,1.8 -0.4,2.7"
				style="fill:none;fill-rule:nonzero;stroke:#666;stroke-width:1px;" />
			<path d="M312.6,166.8c-1.8,-0.8 -3.3,-2.4 -4.5,-4.8c-0.3,2 -0.7,3.7 -1.2,5.3"
				style="fill:none;fill-rule:nonzero;stroke:#666;stroke-width:1px;" />
			<path d="M305.1,170.3c-2.4,-2.1 -3.7,-5.5 -4,-10.3"
				style="fill:none;fill-rule:nonzero;stroke:#666;stroke-width:1px;" />
			<path d="M301.1,160c-0.8,3.1 -1.9,5.1 -3.4,6"
				style="fill:none;fill-rule:nonzero;stroke:#666;stroke-width:1px;" />
			<path d="M313.2,191.9c-3.2,-4.9 -5.1,-9.8 -5.8,-14.8"
				style="fill:none;fill-rule:nonzero;stroke:#666;stroke-width:1px;" />
			<path d="M305.3,181.1c0.1,2.3 1.36,8.443 3.719,11.975"
				style="fill:none;fill-rule:nonzero;stroke:#666;stroke-width:1px;" />
			<path d="M294,157.7c-0.1,-0.6 -0.2,-1.2 -0.3,-1.9"
				style="fill:none;fill-rule:nonzero;stroke:#666;stroke-width:1px;" />
			<path d="M297.316,179.494c-0,-2 -0.088,-8.352 -0.016,-10.794"
				style="fill:none;fill-rule:nonzero;stroke:#666;stroke-width:1px;" />
			<path d="M306.9,167.3c-0.3,1 -0.9,2 -1.8,3"
				style="fill:none;fill-rule:nonzero;stroke:#666;stroke-width:1px;" />
			<path d="M308.4,175.8c1,2.6 2.4,4.6 4.1,6.2"
				style="fill:none;fill-rule:nonzero;stroke:#666;stroke-width:1px;" />
			<path d="M305.3,181.1c0.5,-1.4 1.2,-2.7 2.1,-4"
				style="fill:none;fill-rule:nonzero;stroke:#666;stroke-width:1px;" />
			<path
				d="M301.111,180.544c1.139,1.598 2.792,3.464 2.792,3.464c0,-0 0.097,-0.185 0.624,-1.363c0.213,-0.475 0.761,-1.37 0.916,-2.027"
				style="fill:none;fill-rule:nonzero;stroke:#666;stroke-width:1px;" />
			<path d="M307.4,177.1c0.3,-0.4 0.6,-0.9 1,-1.3"
				style="fill:none;fill-rule:nonzero;stroke:#666;stroke-width:1px;" />
			<path
				d="M272.6,107.9c-0.3,0.3 -0.6,0.9 -0.8,1.5c0,0.4 0,0.7 0.2,0.9l0.5,0.3l1.1,0c0.2,-0.1 0.5,-0.1 0.8,-0.2c0.4,0 0.8,-0.1 1.2,-0.2c0.3,-0.1 0.6,-0.2 0.9,-0.3c0.6,-0.2 1.1,-0.3 1.6,-0.2c0.4,0.1 0.8,0.2 1.2,0.4c0.4,0.3 0.9,0.5 1.5,0.7c0.5,0.1 1.2,0.2 1.9,0.2"
				style="fill:none;fill-rule:nonzero;stroke:#666;stroke-width:1px;" />
			<path d="M284.5,272.6l0,-9.2" style="fill:none;fill-rule:nonzero;stroke:#666;stroke-width:1px;" />
			<path d="M284.5,263.4l0,-27.2" style="fill:none;fill-rule:nonzero;stroke:#666;stroke-width:1px;" />
			<path d="M266.4,249.8c0.9,3.2 4.3,4 10,2.4"
				style="fill:none;fill-rule:nonzero;stroke:#666;stroke-width:1px;" />
			<path d="M272.1,254.5c1.5,-0.6 2.9,-1.3 4.3,-2.3"
				style="fill:none;fill-rule:nonzero;stroke:#666;stroke-width:1px;" />
			<path d="M253.4,259.2c2.3,-2.2 5.6,-3.3 9.7,-3.2l0.1,0c3.2,0.1 6.2,-0.4 8.9,-1.5"
				style="fill:none;fill-rule:nonzero;stroke:#666;stroke-width:1px;" />
			<path d="M276.4,252.2c4.5,-2.1 7.2,-7.4 8.1,-16"
				style="fill:none;fill-rule:nonzero;stroke:#666;stroke-width:1px;" />
			<path d="M284.5,236.2l0,-2.2" style="fill:none;fill-rule:nonzero;stroke:#666;stroke-width:1px;" />
			<path d="M297.3,254.5c-1.5,-0.6 -2.9,-1.3 -4.2,-2.3"
				style="fill:none;fill-rule:nonzero;stroke:#666;stroke-width:1px;" />
			<path d="M316.1,259.2c-2.4,-2.2 -5.7,-3.3 -9.8,-3.2c-3.2,0.1 -6.2,-0.4 -9,-1.5"
				style="fill:none;fill-rule:nonzero;stroke:#666;stroke-width:1px;" />
			<path d="M293.1,252.2c-4.6,-2.1 -7.2,-7.4 -8,-16"
				style="fill:none;fill-rule:nonzero;stroke:#666;stroke-width:1px;" />
			<path d="M293.1,252.2c5.7,1.6 9,0.8 10,-2.4"
				style="fill:none;fill-rule:nonzero;stroke:#666;stroke-width:1px;" />
			<path d="M289,268.8c-2.7,-1.8 -4.2,-4.2 -4.3,-7.2c0,0.6 -0.1,1.2 -0.2,1.8"
				style="fill:none;fill-rule:nonzero;stroke:#666;stroke-width:1px;" />
			<path d="M297.3,254.5c0.6,1.6 3.1,3.4 7.4,5.3"
				style="fill:none;fill-rule:nonzero;stroke:#666;stroke-width:1px;" />
			<path d="M284.5,263.4c-0.5,2.1 -1.8,4 -4.1,5.4"
				style="fill:none;fill-rule:nonzero;stroke:#666;stroke-width:1px;" />
			<path d="M272.1,254.5c-0.5,1.6 -3,3.4 -7.3,5.3"
				style="fill:none;fill-rule:nonzero;stroke:#666;stroke-width:1px;" />
			<path d="M232.2,169.6c-8,3.5 -16.4,3 -25.3,-1.7"
				style="fill:none;fill-rule:nonzero;stroke:#666;stroke-width:1px;" />
			<path d="M233.3,176.4c-7.9,2 -15.8,2 -23.7,0.1"
				style="fill:none;fill-rule:nonzero;stroke:#666;stroke-width:1px;" />
			<path d="M231.3,179.4c-4.9,2.1 -10.4,2.8 -16.9,2.2"
				style="fill:none;fill-rule:nonzero;stroke:#666;stroke-width:1px;" />
			<path d="M206.3,150c4.4,6.5 11.4,10 21.1,10.5"
				style="fill:none;fill-rule:nonzero;stroke:#666;stroke-width:1px;" />
			<path d="M231.3,127.4c-5.2,-6.2 -7.7,-12.5 -7.4,-18.8c1.4,1.3 2.9,2.6 4.4,3.8"
				style="fill:none;fill-rule:nonzero;stroke:#666;stroke-width:1px;" />
			<path d="M218.4,127.4c-4.5,-6.9 -7.2,-13.4 -8.4,-19.5"
				style="fill:none;fill-rule:nonzero;stroke:#666;stroke-width:1px;" />
			<path d="M238.1,114.9c0.1,-1.4 0.5,-2.7 1,-3.7"
				style="fill:none;fill-rule:nonzero;stroke:#666;stroke-width:1px;" />
			<path d="M223.5,149.2c1.8,-0.1 3.5,-0.4 5.3,-0.8"
				style="fill:none;fill-rule:nonzero;stroke:#666;stroke-width:1px;" />
			<path d="M220.4,136.8c2.5,0.1 5,0 7.4,-0.3"
				style="fill:none;fill-rule:nonzero;stroke:#666;stroke-width:1px;" />
			<path d="M228.8,148.4c-5.8,-1.6 -10,-4.5 -12.6,-8.9"
				style="fill:none;fill-rule:nonzero;stroke:#666;stroke-width:1px;" />
			<path d="M228.6,126.9c-1.9,-0.5 -3.7,-1.1 -5.5,-2"
				style="fill:none;fill-rule:nonzero;stroke:#666;stroke-width:1px;" />
			<path d="M221.4,164.9c2.3,-1.2 4.3,-2.6 6,-4.4"
				style="fill:none;fill-rule:nonzero;stroke:#666;stroke-width:1px;" />
			<path d="M256,166.8c-0.4,0.2 -0.7,0.3 -1.1,0.4c-0.7,-0.9 -1.3,-1.8 -1.8,-2.7"
				style="fill:none;fill-rule:nonzero;stroke:#666;stroke-width:1px;" />
			<path d="M229.4,158.3c4.5,0.1 9.1,-0.6 13.7,-2"
				style="fill:none;fill-rule:nonzero;stroke:#666;stroke-width:1px;" />
			<path d="M243,158c-3.1,2.5 -6.6,4.2 -10.2,5.2"
				style="fill:none;fill-rule:nonzero;stroke:#666;stroke-width:1px;" />
			<path d="M244.6,176.5c-2,1.2 -4.2,2.1 -6.6,2.5"
				style="fill:none;fill-rule:nonzero;stroke:#666;stroke-width:1px;" />
			<path d="M249.7,177.3c0.1,-1.7 -0,-3.3 -0.4,-4.8"
				style="fill:none;fill-rule:nonzero;stroke:#666;stroke-width:1px;" />
			<path d="M249.3,172.5c-1.5,1.6 -3,2.9 -4.7,4"
				style="fill:none;fill-rule:nonzero;stroke:#666;stroke-width:1px;" />
			<path d="M241.6,170.8c4.1,-3 6.4,-5.8 6.9,-8.4"
				style="fill:none;fill-rule:nonzero;stroke:#666;stroke-width:1px;" />
			<path d="M253.1,164.5c-0.5,2.6 -1.7,5.3 -3.8,8"
				style="fill:none;fill-rule:nonzero;stroke:#666;stroke-width:1px;" />
			<path d="M233.8,107l4.3,7.9" style="fill:none;fill-rule:nonzero;stroke:#666;stroke-width:1px;" />
			<path d="M234.9,117.1c-3.8,-5.7 -6.1,-11.3 -6.8,-17"
				style="fill:none;fill-rule:nonzero;stroke:#666;stroke-width:1px;" />
			<path d="M223.1,124.9c-3.6,-4.1 -6.4,-9.7 -8.4,-16.9"
				style="fill:none;fill-rule:nonzero;stroke:#666;stroke-width:1px;" />
			<path d="M235.6,152.1c0.4,-0.9 0.8,-1.8 1.3,-2.7"
				style="fill:none;fill-rule:nonzero;stroke:#666;stroke-width:1px;" />
			<path d="M243.1,156.3c0,0.5 -0.1,1.1 -0.1,1.7"
				style="fill:none;fill-rule:nonzero;stroke:#666;stroke-width:1px;" />
			<path d="M243,158c0,1.1 0.1,2.3 0.3,3.5"
				style="fill:none;fill-rule:nonzero;stroke:#666;stroke-width:1px;" />
			<path d="M240.3,125.5c-1.8,-2.1 -3.5,-4.9 -5.4,-8.4"
				style="fill:none;fill-rule:nonzero;stroke:#666;stroke-width:1px;" />
			<path d="M239.9,136.8c0.4,-0.2 0.9,-0.3 1.3,-0.3c-1,-1.9 -1.5,-3.8 -1.4,-5.9"
				style="fill:none;fill-rule:nonzero;stroke:#666;stroke-width:1px;" />
			<path d="M238.2,137.6c-1,0.5 -1.9,1.3 -2.9,2.2"
				style="fill:none;fill-rule:nonzero;stroke:#666;stroke-width:1px;" />
			<path d="M228.3,112.4c2.2,1.7 4.4,3.3 6.6,4.7"
				style="fill:none;fill-rule:nonzero;stroke:#666;stroke-width:1px;" />
			<path d="M228.6,126.9c0.8,0.2 1.8,0.4 2.7,0.5"
				style="fill:none;fill-rule:nonzero;stroke:#666;stroke-width:1px;" />
			<path d="M237.1,144.5c-0.7,-1.1 -1.4,-2.5 -2,-4.5c0,-0.1 0.1,-0.1 0.2,-0.2"
				style="fill:none;fill-rule:nonzero;stroke:#666;stroke-width:1px;" />
			<path d="M226.9,142c3.3,1.5 6.8,2.3 10.2,2.5"
				style="fill:none;fill-rule:nonzero;stroke:#666;stroke-width:1px;" />
			<path d="M237.1,144.5c0.6,0.9 1.2,1.5 1.8,1.7c-0.7,1.1 -1.4,2.1 -2,3.2"
				style="fill:none;fill-rule:nonzero;stroke:#666;stroke-width:1px;" />
			<path d="M230.2,131.8c2.7,2.6 5.3,4.6 8,5.8"
				style="fill:none;fill-rule:nonzero;stroke:#666;stroke-width:1px;" />
			<path d="M235.3,139.8c-2.5,-0.3 -5,-1.4 -7.5,-3.3"
				style="fill:none;fill-rule:nonzero;stroke:#666;stroke-width:1px;" />
			<path d="M241.8,129c-0.6,-1.2 -1.1,-2.4 -1.5,-3.5"
				style="fill:none;fill-rule:nonzero;stroke:#666;stroke-width:1px;" />
			<path d="M240.9,118l6,11.5" style="fill:none;fill-rule:nonzero;stroke:#666;stroke-width:1px;" />
			<path d="M239.8,130.6c0,-0.4 0,-0.9 0.1,-1.5c0.6,-0.1 1.3,-0.1 1.9,-0.1"
				style="fill:none;fill-rule:nonzero;stroke:#666;stroke-width:1px;" />
			<path d="M241.8,129c2,-0.1 3.7,0.1 5.2,0.8c-0.1,-0.1 -0.1,-0.2 -0.1,-0.2l0,-0.1"
				style="fill:none;fill-rule:nonzero;stroke:#666;stroke-width:1px;" />
			<path d="M256.1,182c-2.2,2 -4.9,3.1 -8.3,3.3"
				style="fill:none;fill-rule:nonzero;stroke:#666;stroke-width:1px;" />
			<path d="M247.8,185.3c1.1,-2.8 1.8,-5.5 1.9,-8"
				style="fill:none;fill-rule:nonzero;stroke:#666;stroke-width:1px;" />
			<path d="M256.1,182c-0.7,3.6 -2.7,7.2 -5.8,10.8"
				style="fill:none;fill-rule:nonzero;stroke:#666;stroke-width:1px;" />
			<path d="M249.7,177.3c-3.5,5.6 -9.3,10.3 -17.4,14.1"
				style="fill:none;fill-rule:nonzero;stroke:#666;stroke-width:1px;" />
			<path d="M238,179c-5.3,3.8 -12.6,6.7 -21.6,8.9"
				style="fill:none;fill-rule:nonzero;stroke:#666;stroke-width:1px;" />
			<path d="M221.4,164.9c-5.4,-0.6 -10.8,-3 -16.2,-7.2"
				style="fill:none;fill-rule:nonzero;stroke:#666;stroke-width:1px;" />
			<path d="M232.2,169.6c-5.1,1 -10.4,0.2 -15.9,-2.6c1.8,-0.6 3.5,-1.3 5.1,-2.1"
				style="fill:none;fill-rule:nonzero;stroke:#666;stroke-width:1px;" />
			<path d="M223.5,149.2c-5.1,-2.5 -10.4,-6.9 -15.9,-13.2"
				style="fill:none;fill-rule:nonzero;stroke:#666;stroke-width:1px;" />
			<path d="M246.9,129.5c-1,-1.9 -1,-4.2 -0.2,-6.7"
				style="fill:none;fill-rule:nonzero;stroke:#666;stroke-width:1px;" />
			<path d="M234.9,123.8c1.6,3.4 3.2,5.7 4.9,6.8"
				style="fill:none;fill-rule:nonzero;stroke:#666;stroke-width:1px;" />
			<path d="M231.3,127.4c3.1,3.6 6,6.8 8.6,9.4"
				style="fill:none;fill-rule:nonzero;stroke:#666;stroke-width:1px;" />
			<path d="M247.8,185.3c-1.1,2.8 -3.4,5.5 -6.9,8.3"
				style="fill:none;fill-rule:nonzero;stroke:#666;stroke-width:1px;" />
			<path d="M238.1,114.9c-0.2,2.8 0.5,6.4 2.2,10.6"
				style="fill:none;fill-rule:nonzero;stroke:#666;stroke-width:1px;" />
			<path d="M235.6,152.1c-0.2,0.5 -0.4,0.9 -0.5,1.4c2.8,1.7 5.5,2.3 8.1,1.9c0,0.3 -0.1,0.6 -0.1,0.9"
				style="fill:none;fill-rule:nonzero;stroke:#666;stroke-width:1px;" />
			<path d="M228.3,152.1c2.6,0.6 5,0.6 7.3,0"
				style="fill:none;fill-rule:nonzero;stroke:#666;stroke-width:1px;" />
			<path d="M244.6,176.5c-3.6,4.9 -9.8,9.2 -18.5,12.8"
				style="fill:none;fill-rule:nonzero;stroke:#666;stroke-width:1px;" />
			<path d="M261.2,177.1c-0.8,5 -2.7,9.9 -5.8,14.8"
				style="fill:none;fill-rule:nonzero;stroke:#666;stroke-width:1px;" />
			<path d="M236.9,149.4c-2.7,0.1 -5.5,-0.2 -8.1,-1"
				style="fill:none;fill-rule:nonzero;stroke:#666;stroke-width:1px;" />
			<path d="M238,179c-2.1,0.4 -4.3,0.6 -6.7,0.4"
				style="fill:none;fill-rule:nonzero;stroke:#666;stroke-width:1px;" />
			<path d="M233.3,176.4c1.4,-2.6 2.1,-5.2 2.1,-7.7"
				style="fill:none;fill-rule:nonzero;stroke:#666;stroke-width:1px;" />
			<path d="M222,95.6c0.1,1.2 0.3,2.3 0.4,3.4l1.1,4.2c1.1,3.7 2.7,6.8 4.8,9.2"
				style="fill:none;fill-rule:nonzero;stroke:#666;stroke-width:1px;" />
			<path
				d="M216.2,96.5c-0,0.3 -0,0.6 0.1,0.9c-0,0 0.733,3.472 1.138,5.104c0.433,1.75 1.462,5.396 1.462,5.396c2.2,6.6 5.4,12.9 9.7,19"
				style="fill:none;fill-rule:nonzero;stroke:#666;stroke-width:1px;" />
			<path d="M218.4,127.4c-0.6,-1.1 -1,-2.3 -1.1,-3.4c-0.1,-0.9 -0.1,-1.8 0.1,-2.7c1.8,1.4 3.8,2.6 5.7,3.6"
				style="fill:none;fill-rule:nonzero;stroke:#666;stroke-width:1px;" />
			<path d="M227.8,136.5c-4.5,-2.9 -7.5,-5.8 -9.1,-8.6c-0.1,-0.2 -0.2,-0.4 -0.3,-0.5"
				style="fill:none;fill-rule:nonzero;stroke:#666;stroke-width:1px;" />
			<path d="M216.2,139.5c-0.8,-1.2 -1.4,-2.5 -1.9,-3.8c2.1,0.5 4.1,0.9 6.1,1.1"
				style="fill:none;fill-rule:nonzero;stroke:#666;stroke-width:1px;" />
			<path d="M220.4,136.8c-4.2,-3.8 -7.8,-9.1 -10.6,-15.9"
				style="fill:none;fill-rule:nonzero;stroke:#666;stroke-width:1px;" />
			<path d="M216.2,139.5c-3.8,-4.3 -7.4,-9.7 -10.8,-16.2"
				style="fill:none;fill-rule:nonzero;stroke:#666;stroke-width:1px;" />
			<path d="M229.4,158.3c-7.8,0.2 -13,-3 -15.7,-9.8l3.3,0.6"
				style="fill:none;fill-rule:nonzero;stroke:#666;stroke-width:1px;" />
			<path d="M243.3,161.5c-2,3 -4.6,5.4 -7.9,7.2"
				style="fill:none;fill-rule:nonzero;stroke:#666;stroke-width:1px;" />
			<path d="M217,149.1c-5.6,-2.9 -9.4,-6.2 -11.7,-9.9"
				style="fill:none;fill-rule:nonzero;stroke:#666;stroke-width:1px;" />
			<path d="M238.2,137.6c0.6,-0.3 1.2,-0.6 1.7,-0.8"
				style="fill:none;fill-rule:nonzero;stroke:#666;stroke-width:1px;" />
			<path d="M227.4,160.5c0.7,-0.7 1.4,-1.5 2,-2.2"
				style="fill:none;fill-rule:nonzero;stroke:#666;stroke-width:1px;" />
			<path d="M231.3,179.4c0.8,-1 1.4,-2 2,-3"
				style="fill:none;fill-rule:nonzero;stroke:#666;stroke-width:1px;" />
			<path d="M235.4,168.7c-1,0.4 -2.1,0.7 -3.2,0.9"
				style="fill:none;fill-rule:nonzero;stroke:#666;stroke-width:1px;" />
			<path d="M217,149.1c1.2,0.1 2.3,0.2 3.4,0.2c1,0 2,0 3.1,-0.1"
				style="fill:none;fill-rule:nonzero;stroke:#666;stroke-width:1px;" />
			<path d="M253.1,164.5c-0.7,-1.4 -1.2,-2.9 -1.4,-4.5c-0.7,1.1 -1.7,1.9 -3.2,2.4"
				style="fill:none;fill-rule:nonzero;stroke:#666;stroke-width:1px;" />
			<path d="M248.5,162.4c-1.2,0.4 -2.8,0.7 -4.8,0.7c-0.2,-0.6 -0.3,-1.1 -0.4,-1.6"
				style="fill:none;fill-rule:nonzero;stroke:#666;stroke-width:1px;" />
		</g>
		<g>
			<path
				d="M268.7,97.9c-0.6,-1 -1.4,-2.2 -2.3,-3.2c0.1,0 0.3,0.1 0.6,0.2c0.3,0.1 0.6,0 1.1,-0.1c0.3,-0.1 0.6,-0.1 0.8,0c1,0.6 1.3,1.2 0.9,2.1c0.4,-0.7 0.9,-1 1.4,-1.3c0.4,-0.1 0.9,-0.1 1.3,0.1c0.4,0.3 0.7,0.4 0.9,0.5c0.1,0.1 0.3,0.1 0.7,-0.1c-0.3,0.3 -0.4,0.4 -0.5,0.6c0,0.2 0,0.7 -0.1,1.2c-0.1,0.5 -0.5,1 -1.1,1.3c-0.6,0.3 -0.7,0.9 -0.1,1.9c0.5,0.9 1.4,1.3 2.6,1.1c0.8,-0.3 1.2,-1 1.1,-1.8c-0.3,0 -0.533,-0.233 -0.7,-0.4c-0.158,-0.158 -0.3,-0.4 -0.3,-0.6c0,-0.3 0.1,-0.5 0.3,-0.7c0.1,-0.2 0.4,-0.3 0.7,-0.3c0.2,0 0.5,0.1 0.6,0.3c0.2,0.2 0.3,0.4 0.3,0.7c0,0.2 -0.3,0.7 -0.4,0.8c0.4,1.3 1.2,1.8 2.4,1.7c1.3,-0.3 2,-1.1 2.1,-2.7c0.1,-1.5 -0.3,-2.3 -1,-2.2c-0.7,0 -1.2,-0.2 -1.6,-0.6c-0.3,-0.5 -0.5,-0.8 -0.7,-0.9c-0.1,-0.1 -0.3,-0.3 -0.6,-0.3c0.3,0 0.5,-0.1 0.6,-0.3c0.1,-0.2 0.3,-0.5 0.6,-0.9c0.2,-0.4 0.5,-0.6 1,-0.6c0.6,-0.2 1,0 1.5,0.1c-0.2,-0.2 -0.3,-0.5 -0.3,-0.8c-0.1,-0.7 0,-1.1 0.4,-1.3c0.2,-0.2 0.4,-0.3 0.7,-0.4c0.4,-0.1 0.7,-0.6 0.8,-1.1c0.1,0.5 0.4,1 0.8,1.1c0.3,0.1 0.4,0.2 0.6,0.4c0.4,0.2 0.6,0.6 0.5,1.3c-0.1,0.3 -0.2,0.6 -0.3,0.8c0.4,-0.1 0.9,-0.3 1.4,-0.1c0.5,0 0.9,0.2 1.1,0.6c0.3,0.4 0.5,0.7 0.6,0.9c0,0.2 0.3,0.3 0.6,0.3c-0.3,0 -0.6,0.2 -0.7,0.3c-0.1,0.1 -0.3,0.4 -0.7,0.9c-0.3,0.4 -0.9,0.6 -1.6,0.6c-0.7,-0.1 -1,0.7 -0.9,2.2c0.1,1.6 0.8,2.4 2,2.7c1.2,0.1 2,-0.4 2.5,-1.7c-0.1,-0.1 -0.1,-0.1 -0.1,-0.2c-0.2,-0.1 -0.3,-0.4 -0.3,-0.6c-0,-0.3 0.1,-0.5 0.3,-0.7c0.1,-0.2 0.3,-0.3 0.6,-0.3c0.3,0 0.5,0.1 0.7,0.3c0.2,0.2 0.3,0.4 0.3,0.7c-0,0.2 -0.1,0.5 -0.3,0.6c-0.2,0.2 -0.4,0.4 -0.7,0.4c-0.2,0.8 0.2,1.5 1.1,1.8c1.2,0.2 2,-0.2 2.6,-1.1c0.5,-1 0.5,-1.6 -0.1,-1.9c-0.6,-0.3 -1,-0.8 -1.1,-1.3c-0.1,-0.5 -0.2,-1 -0.2,-1.2c0,-0.2 -0.1,-0.3 -0.3,-0.6c0.2,0.2 0.5,0.2 0.6,0.1c0.1,-0.1 0.5,-0.2 0.9,-0.5c0.4,-0.2 0.8,-0.2 1.3,-0.1c0.5,0.3 1,0.6 1.4,1.3c-0.4,-0.9 -0.1,-1.5 0.9,-2.1c0.2,-0.1 0.5,-0.1 0.8,0c0.5,0.1 0.8,0.2 1.1,0.1c0.3,-0.1 0.5,-0.2 0.6,-0.2c-1,1.2 -1.8,2.4 -2.6,3.6c0.2,0.1 0.3,0.3 0.3,0.5l-0,0.2c-0,0.2 -0.1,0.4 -0.2,0.5c-0.1,0.3 -0.3,0.4 -0.5,0.5c-0.2,0.1 -0.4,0.1 -0.6,0c-0.1,0.2 -0.2,0.3 -0.2,0.4c-0.1,0.2 -0.2,0.3 -0.2,0.5c-0.1,0.1 -0.1,0.2 -0.2,0.3c-0.4,0.9 -0.8,1.8 -1.1,2.7c-0.2,0.5 -0.3,0.8 -0.4,1.3c-0.1,0.9 -0.1,1.8 -0,2.7l-20.5,0c0.2,-1 0.2,-1.8 -0.1,-2.7c-0.1,-0.5 -0.3,-0.8 -0.4,-1.3c-0.3,-1 -0.7,-1.9 -1.2,-2.8l0,-0.2c-0.2,-0.2 -0.2,-0.3 -0.3,-0.5c-0.1,-0.3 -0.2,-0.5 -0.3,-0.8c0,0 -0,0.1 -0.1,0.1c-0.1,0.2 -0.4,0.2 -0.7,0c-0.2,-0.1 -0.4,-0.3 -0.5,-0.5c-0.1,-0.2 -0.2,-0.7 -0.2,-0.8c0.1,-0.2 0.2,-0.4 0.3,-0.5Z"
				style="fill:#ffd500;" />
			<g>
				<path
					d="M270.5,101.1c1,1.3 2,2.2 3.1,2.6l0.4,-0c1.3,-0 2.2,-0.6 2.5,-1.5c1,1.3 2.3,1.7 3.8,1c1.4,-0.7 2.2,-1.8 2.1,-3.3"
					style="fill:none;fill-rule:nonzero;stroke:#b99d62;stroke-width:0.25px;" />
				<path d="M292.7,96.9c1.1,0.5 1.8,1 2.1,1.6"
					style="fill:none;fill-rule:nonzero;stroke:#b99d62;stroke-width:0.25px;" />
				<path d="M292.7,105.2l-20.6,0"
					style="fill:none;fill-rule:nonzero;stroke:#b99d62;stroke-width:0.25px;" />
				<path d="M282.4,92l-0,2.7" style="fill:none;fill-rule:nonzero;stroke:#b99d62;stroke-width:0.25px;" />
				<path d="M285.7,94.9c-0.3,-0.2 -0.8,-0.3 -1.4,-0.1c-0.4,0.1 -0.8,0.2 -1.1,0.3"
					style="fill:none;fill-rule:nonzero;stroke:#b99d62;stroke-width:0.25px;" />
				<path d="M279.1,94.9c0.3,-0.2 0.8,-0.3 1.3,-0.1c0.5,0.1 0.9,0.2 1.2,0.3"
					style="fill:none;fill-rule:nonzero;stroke:#b99d62;stroke-width:0.25px;" />
				<path d="M272.1,96.9c-1.1,0.5 -1.8,1 -2.1,1.7"
					style="fill:none;fill-rule:nonzero;stroke:#b99d62;stroke-width:0.25px;" />
				<path d="M282.4,99.9l-0,-3.2" style="fill:none;fill-rule:nonzero;stroke:#b99d62;stroke-width:0.25px;" />
				<path
					d="M282.4,99.9c0.2,2 1,3.2 2.7,3.5c1.6,0.3 2.7,-0.1 3.3,-1.2c-0.1,1 0.5,1.6 1.8,1.7l0.4,0c1.6,-0.3 2.8,-1.2 3.6,-2.7"
					style="fill:none;fill-rule:nonzero;stroke:#b99d62;stroke-width:0.25px;" />
			</g>
			<g>
				<path
					d="M269.878,99.926l0.761,1.461c0.497,0.862 0.895,1.724 1.193,2.682c0.099,0.479 0.298,0.766 0.398,1.245c0.298,0.862 0.298,1.628 0.099,2.586l20.382,0c-0.099,-0.862 -0.099,-1.724 -0,-2.586c0.099,-0.479 0.199,-0.766 0.398,-1.245c0.298,-0.862 0.696,-1.724 1.093,-2.586c0.1,-0.096 0.462,-1.028 0.562,-1.22"
					style="fill:none;fill-rule:nonzero;stroke:#b99d62;stroke-width:0.98px;" />
				<path
					d="M295.8,98.3c0.8,-1.2 1.6,-2.4 2.6,-3.6c-0.1,0 -0.3,0.1 -0.6,0.2c-0.3,0.1 -0.6,0 -1.1,-0.1c-0.3,-0.1 -0.6,-0.1 -0.8,0c-1,0.6 -1.3,1.2 -0.9,2.1c-0.4,-0.7 -0.9,-1 -1.4,-1.3c-0.5,-0.1 -0.9,-0.1 -1.3,0.1c-0.4,0.3 -0.8,0.4 -0.9,0.5c-0.1,0.1 -0.4,0.1 -0.6,-0.1c0.2,0.3 0.3,0.4 0.3,0.6c0,0.2 0.1,0.7 0.2,1.2c0.1,0.5 0.5,1 1.1,1.3c0.6,0.3 0.6,0.9 0.1,1.9c-0.6,0.9 -1.4,1.3 -2.6,1.1c-0.9,-0.3 -1.3,-1 -1.1,-1.8c0.3,0 0.5,-0.2 0.7,-0.4c0.2,-0.1 0.3,-0.4 0.3,-0.6c0,-0.3 -0.1,-0.5 -0.3,-0.7c-0.2,-0.2 -0.4,-0.3 -0.7,-0.3c-0.3,0 -0.486,0.139 -0.641,0.3c-0.161,0.167 -0.324,0.4 -0.324,0.7c0,0.2 0.365,0.7 0.465,0.8c-0.5,1.3 -1.3,1.8 -2.5,1.7c-1.2,-0.3 -1.9,-1.1 -2,-2.7c-0.1,-1.5 0.2,-2.3 0.9,-2.2c0.7,0 1.3,-0.2 1.6,-0.6c0.4,-0.5 0.6,-0.8 0.7,-0.9c0.1,-0.1 0.4,-0.3 0.7,-0.3c-0.3,0 -0.6,-0.1 -0.6,-0.3c-0.1,-0.2 -0.3,-0.5 -0.6,-0.9c-0.2,-0.4 -0.6,-0.6 -1.1,-0.6c-0.5,-0.2 -1,0 -1.4,0.1c0.1,-0.2 0.2,-0.5 0.3,-0.8c0.1,-0.7 -0.1,-1.1 -0.5,-1.3c-0.2,-0.2 -0.3,-0.3 -0.6,-0.4c-0.4,-0.1 -0.7,-0.6 -0.8,-1.1c-0.1,0.5 -0.4,1 -0.8,1.1c-0.3,0.1 -0.5,0.2 -0.7,0.4c-0.4,0.2 -0.5,0.6 -0.4,1.3c0,0.3 0.1,0.6 0.3,0.8c-0.5,-0.1 -0.9,-0.3 -1.5,-0.1c-0.5,0 -0.8,0.2 -1,0.6c-0.3,0.4 -0.5,0.7 -0.6,0.9c-0.1,0.2 -0.3,0.3 -0.6,0.3c0.3,0 0.5,0.2 0.6,0.3c0.2,0.1 0.4,0.4 0.7,0.9c0.4,0.4 0.9,0.6 1.6,0.6c0.7,-0.1 1.1,0.7 1,2.2c-0.1,1.6 -0.8,2.4 -2.1,2.7c-1.2,0.1 -2,-0.4 -2.4,-1.7c0.1,-0.1 0.403,-0.6 0.403,-0.8c0,-0.3 -0.113,-0.533 -0.264,-0.7c-0.15,-0.166 -0.439,-0.3 -0.639,-0.3c-0.3,0 -0.7,0.3 -0.7,0.3c0,0 -0.268,0.4 -0.268,0.7c0,0.2 0.128,0.479 0.268,0.619c0.167,0.166 0.4,0.381 0.7,0.381c0.1,0.8 -0.3,1.5 -1.1,1.8c-1.2,0.2 -2.1,-0.2 -2.6,-1.1c-0.6,-1 -0.5,-1.6 0.1,-1.9c0.6,-0.3 1,-0.8 1.1,-1.3c0.1,-0.5 0.1,-1 0.1,-1.2c0.1,-0.2 0.2,-0.3 0.5,-0.6c-0.4,0.2 -0.6,0.2 -0.7,0.1c-0.2,-0.1 -0.5,-0.2 -0.9,-0.5c-0.4,-0.2 -0.9,-0.2 -1.3,-0.1c-0.5,0.3 -1,0.6 -1.4,1.3c0.4,-0.9 0.1,-1.5 -0.9,-2.1c-0.2,-0.1 -0.5,-0.1 -0.8,0c-0.5,0.1 -0.8,0.2 -1.1,0.1c-0.3,-0.1 -0.5,-0.2 -0.6,-0.2c0.9,1 1.7,2.2 2.3,3.2"
					style="fill:none;fill-rule:nonzero;stroke:#b99d62;stroke-width:1px;" />
				<path
					d="M282.4,94.7c-0.3,0 -0.5,0.1 -0.7,0.2c-0.1,0.1 -0.1,0.2 -0.1,0.2c-0.1,0.3 -0.2,0.4 -0.2,0.6c-0,0.3 0.1,0.5 0.3,0.7c0.2,0.2 0.4,0.3 0.7,0.3c0.3,0 0.6,-0.1 0.7,-0.3c0.3,-0.2 0.4,-0.4 0.4,-0.7c-0,-0.2 -0.1,-0.3 -0.3,-0.6c-0,0 -0,-0.1 -0.1,-0.2c-0.1,-0.1 -0.4,-0.2 -0.7,-0.2"
					style="fill:none;fill-rule:nonzero;stroke:#b99d62;stroke-width:1px;" />
				<path
					d="M294.8,100c-0.2,-0.1 -0.359,-0.3 -0.4,-0.5c-0.041,-0.2 0.049,-0.596 0.172,-0.796c0.121,-0.198 0.36,-0.408 0.565,-0.476c0.204,-0.067 0.463,-0.028 0.663,0.072c0.2,0.1 0.281,0.307 0.3,0.5c0.02,0.2 -0.078,0.553 -0.181,0.7c-0.116,0.167 -0.319,0.4 -0.519,0.5c-0.2,0.1 -0.4,0.1 -0.6,0Z"
					style="fill:none;fill-rule:nonzero;stroke:#b99d62;stroke-width:1px;" />
				<path
					d="M269.923,99.569c0.077,-0.133 0.159,-0.317 0.177,-0.469c0.022,-0.183 0.017,-0.5 -0.1,-0.7c-0.117,-0.2 -0.384,-0.417 -0.6,-0.5c-0.216,-0.083 -0.495,-0.1 -0.695,-0l-0.005,0c-0.1,0.1 -0.26,0.376 -0.284,0.592c-0.024,0.211 -0,0.443 0.184,0.708c0.128,0.184 0.236,0.4 0.436,0.5c0.3,0.2 0.81,0.002 0.887,-0.131Z"
					style="fill:none;fill-rule:nonzero;stroke:#b99d62;stroke-width:1px;" />
			</g>
		</g>
		<g>
			<g>
				<path
					d="M268.5,111.9c0,-0.6 0.1,-1 0.3,-1.3c0.4,-0.2 0.8,-0.5 1.3,-0.5c0.6,-0.1 1.2,0 1.9,0.2c0.1,0.1 0.3,0.2 0.5,0.3c1.5,1.4 2.5,3.4 3.1,6c0.6,2.5 1.6,4.6 2.9,6.3c-0,1.6 -0.8,3.1 -2.4,4.6l-0.6,0.6c-1.3,0.5 -2.6,0.6 -3.9,0.1c-1.4,-0.5 -2.3,-1.6 -3,-3.2c4.1,2.2 6.7,1.7 7.9,-1.7c-0.1,-0.2 -0.2,-0.5 -0.2,-0.6c-0.1,-0.1 -0.1,-0.1 -0.1,-0.2c-0.2,-0.9 -0.5,-1.7 -0.7,-2.4l-0.2,-0.2c-1.2,-3 -2.8,-3.8 -4.6,-2.1c-2.7,-1.2 -4.3,-0.6 -4.9,1.7c-1.4,-4.5 -0.6,-7.1 2.7,-7.6Z"
					style="fill:#ffd500;" />
				<path
					d="M275.5,120.1l-0.2,-0.2c-0.4,-0.3 -0.8,-0.4 -1.3,-0.5c-0.4,-0.1 -0.8,-0.1 -1.2,-0.1c-0.4,-0.1 -0.9,0.1 -1.5,0.5c-0.6,0.3 -1.2,0.7 -1.8,1.2c-0.6,0.4 -1.1,0.6 -1.6,0.8l-1.2,-0c-0.3,-0.1 -0.6,-0.2 -0.8,-0.2c-0.1,-0.1 -0.4,-0.2 -0.8,-0.4c-0.3,-0.3 -0.6,-0.6 -0.9,-1.1c-0.4,-0.5 -0.6,-0.8 -0.7,-1c-0.3,1.1 -0.2,2.4 0.4,3.7c0.5,1.1 1.5,1.7 3,1.8c1.4,0.1 2.6,-0.3 3.5,-1.3c0.9,-1 1.9,-1.6 3,-1.8c1,-0.3 2,0.1 2.9,1.2c-0.1,-0.1 -0.1,-0.1 -0.1,-0.2c-0.2,-0.9 -0.5,-1.7 -0.7,-2.4"
					style="fill:#ef0000;fill-rule:nonzero;" />
			</g>
			<g>
				<path
					d="M268.5,111.9c-3.3,0.5 -4.1,3.1 -2.7,7.6c0.6,-2.3 2.2,-2.9 4.9,-1.7c1.8,-1.7 3.4,-0.9 4.6,2.1l0.2,0.2c0.2,0.7 0.5,1.5 0.7,2.4c0,0.1 0,0.1 0.1,0.2c0,0.1 0.1,0.4 0.2,0.6c-1.2,3.4 -3.8,3.9 -7.9,1.7c0.7,1.6 1.6,2.7 3,3.2c1.3,0.5 2.6,0.4 3.9,-0.1l0.6,-0.6c1.6,-1.5 2.4,-3 2.4,-4.6c-1.3,-1.7 -2.3,-3.8 -2.9,-6.3c-0.6,-2.6 -1.6,-4.6 -3.1,-6c-0.2,-0.1 -0.4,-0.2 -0.5,-0.3c-0.7,-0.2 -1.3,-0.3 -1.9,-0.2c-0.5,0 -0.9,0.3 -1.3,0.5c-0.2,0.3 -0.3,0.7 -0.3,1.3"
					style="fill:none;fill-rule:nonzero;stroke:#b99d62;stroke-width:1px;" />
				<path
					d="M275.3,119.9c-0.4,-0.3 -0.8,-0.4 -1.3,-0.5c-0.4,-0.1 -0.8,-0.1 -1.2,-0.1c-0.4,-0.1 -0.9,0.1 -1.5,0.5c-0.6,0.3 -1.2,0.7 -1.8,1.2c-0.6,0.4 -1.1,0.6 -1.6,0.8l-1.2,0c-0.3,-0.1 -0.6,-0.2 -0.8,-0.2c-0.1,-0.1 -0.4,-0.2 -0.8,-0.4c-0.3,-0.3 -0.6,-0.6 -0.9,-1.1c-0.4,-0.5 -0.6,-0.8 -0.7,-1c-0.3,1.1 -0.2,2.4 0.4,3.7c0.5,1.1 1.5,1.7 3,1.8c1.4,0.1 2.6,-0.3 3.5,-1.3c0.9,-1 1.9,-1.6 3,-1.8c1,-0.3 2,0.1 2.9,1.2"
					style="fill:none;fill-rule:nonzero;stroke:#d35435;stroke-width:1px;" />
				<path d="M270.3,111.5c-0.1,0 -0.3,0.1 -0.4,0.2c-0.5,0.4 -0.9,0.4 -1.4,0.2"
					style="fill:none;fill-rule:nonzero;stroke:#b99d62;stroke-width:1px;" />
				<path
					d="M270.3,111.5c0.3,0.6 0.7,1 1.3,1.1c0.5,0.2 0.7,0 0.6,-0.4l0,-0.3c-0.2,-0.3 -0.5,-0.5 -0.9,-0.5c-0.4,0 -0.7,0 -1,0.1"
					style="fill:none;fill-rule:nonzero;stroke:#b99d62;stroke-width:1px;" />
			</g>
			<path d="M280.8,110.8c-0.4,1.4 -1.1,2.4 -2.1,2.9c-1,0.4 -1.9,0.3 -2.8,-0.3c-0.9,-0.5 -1.4,-1.5 -1.5,-3"
				style="fill:none;fill-rule:nonzero;stroke:#d35435;stroke-width:1px;" />
			<path
				d="M275.6,110.2c-0.4,0.1 -0.8,0.2 -1.2,0.2c0.1,1.5 0.6,2.5 1.5,3c0.9,0.6 1.8,0.7 2.8,0.3c1,-0.5 1.7,-1.5 2.1,-2.9c-0.6,-0.2 -1.1,-0.4 -1.5,-0.7c-0.4,-0.2 -0.8,-0.3 -1.2,-0.4c0.1,0.5 0,0.9 -0.1,1.4c-0.1,0.5 -0.5,0.8 -1.2,0.9c-0.7,0.1 -1.1,-0.5 -1.2,-1.8"
				style="fill:#ef0000;fill-rule:nonzero;" />
		</g>
		<g>
			<g>
				<path
					d="M331.4,231.2l-0.4,-0.6l-10.7,-15.7l-0.6,-0.9l-9.4,-13.6l-3.4,-5.1l-7.3,-10.6l-5.6,-8.3l-5,-7.3l-0.4,-0.6l-5.3,-7.8l-7.5,-11l-2.7,-3.9l-35.7,-52.1l-5.3,3.7l-4,2.7l-4.6,3.1l-0.6,0.5l1.1,1.7c0.4,0.6 0.5,1.3 0.4,2c-0.1,0.5 -0.3,0.8 -0.5,1.2c-0.2,0.3 -0.5,0.4 -0.7,0.6c-0.6,0.4 -1.3,0.6 -2.1,0.4c-0.8,-0.1 -1.4,-0.5 -1.8,-1.1l0,-0.1l-0.4,-0.5l-0.3,-0.5l-0.8,0.5l-0.1,0c-0.6,0.5 -1.3,0.6 -2.1,0.5c-0.3,-0.1 -0.7,-0.2 -0.9,-0.4c-0.3,-0.1 -0.6,-0.5 -0.9,-0.8c-0.4,-0.7 -0.6,-1.3 -0.4,-2.1c0,-0.7 0.5,-1.3 1,-1.7l1,-0.7l-0.7,-1l0,-0.1c-0.5,-0.6 -0.6,-1.3 -0.5,-2.1c0.2,-0.7 0.6,-1.3 1.2,-1.8c0.3,-0.1 0.5,-0.3 0.9,-0.3c0.4,-0.2 0.8,-0.2 1.2,0c0.7,0 1.3,0.4 1.7,1l1.3,1.9l1.9,-1.3l4.5,-3.1l1,-0.7l2.3,-1.5l5,-3.4l-11.3,-16.4l-1.9,1.2c-0.6,0.4 -1.3,0.5 -2,0.4c-0.8,-0.1 -1.3,-0.6 -1.8,-1.2c-0.4,-0.7 -0.6,-1.4 -0.4,-2.1c0.1,-0.8 0.5,-1.3 1.1,-1.8l1.1,-0.7l-0.6,-1c-0.5,-0.6 -0.6,-1.3 -0.5,-1.9c0.2,-0.8 0.6,-1.4 1.3,-1.9c0.6,-0.4 1.3,-0.5 2.1,-0.4c0.8,0.1 1.4,0.5 1.8,1.2l0.6,0.8l1,-0.7l0.1,0c0.6,-0.5 1.3,-0.6 2.1,-0.5c0.7,0.1 1.3,0.5 1.8,1.2c0.4,0.6 0.5,1.4 0.4,2.1c-0.2,0.8 -0.5,1.3 -1,1.8l-1.8,1.1l11.3,16.5l15,-10.3l-1.4,-1.8c-0.4,-0.7 -0.5,-1.4 -0.3,-2c0.1,-0.8 0.5,-1.4 1.1,-1.9c0.7,-0.4 1.4,-0.5 2.2,-0.4c0.7,0.1 1.3,0.5 1.8,1.2l0,0.1l0.7,1l0.9,-0.7c0.6,-0.3 1.3,-0.5 2,-0.3c0.8,0 1.4,0.5 1.8,1.1c0.4,0.6 0.6,1.4 0.4,2.1c-0.1,0.5 -0.2,0.9 -0.5,1.2c-0.1,0.2 -0.4,0.4 -0.6,0.6l-0.1,0l-0.8,0.6l0.8,1l0,0.1c0.4,0.6 0.6,1.3 0.4,2.1c-0.1,0.8 -0.5,1.3 -1.1,1.8c-0.7,0.4 -1.4,0.6 -2.1,0.4c-0.8,0 -1.3,-0.5 -1.7,-1l-1.2,-1.8l-15,10.3l34.1,49.9l7.7,11.3l1.5,2.2l6.5,9.5l5.5,8.1l4.9,7.1l3.3,4.8l2.4,3.7l5.8,8.5l24.7,36c1.4,0.1 2.7,0 4,-0.5c1.7,-0.5 2.9,-0.2 3.5,1.2c0.1,0.3 0.1,0.7 0.2,1c1.9,-0.4 2.9,0.4 2.7,2.3l0.1,-0c0,0.5 -0.1,0.8 -0.1,1.2c2.3,-0.2 3.2,0.6 3,2.5c0,0 0,0.1 -0.1,0.3c-0.4,2 -0.7,3.7 -1,5.3c-0.1,1.1 -0.5,2.2 -1.2,3.1l5.7,8.3c-0.7,1.7 -1.8,2.4 -3.3,2.3l-5.9,-8.6c-2.4,1.7 -4.5,1.2 -6.4,-1.6c1.7,0.5 3.1,0.1 4.3,-1.5c0.1,-0.2 0.2,-0.5 0.4,-0.7c-0.1,-0.1 -0.2,-0.1 -0.2,-0.1c-0.2,-0 -0.5,-0 -0.6,-0.1c-0.1,0.1 -0.2,0.1 -0.2,0.1c-2.2,1.6 -4.2,1.4 -5.9,-0.7l-0.1,-0.1c-0.5,-0.1 -1,-0.2 -1.6,-0.3c-0.5,-0.1 -0.9,-0.3 -1.2,-0.5l0,-0.1c-0.1,-0 -0.1,-0 -0.1,0.1c-0.7,-0.5 -1.1,-1.1 -1.1,-1.9c0,-1.6 -0.1,-3.2 -0.3,-4.8c-0.2,-1.5 -0.7,-2.6 -1.5,-3.5c-9.7,-1.5 -16.2,-3.4 -19.7,-5.7l0.2,-0.2l-0.2,0.1c0,-0.1 0.1,-0.1 0.2,-0.2c0.2,-0.1 0.4,-0.2 0.5,-0.2c0.1,-0.2 0.2,-0.2 0.3,-0.2c0,-0.1 0,-0.1 0.1,-0.1c0.1,-0.2 0.3,-0.3 0.4,-0.4c1.2,-0.9 2.1,-2 2.9,-3.2c0,0.4 0.7,0.8 2,1.1c1.3,0.3 2.1,0.3 2.3,0.3c3.7,1.9 7.7,3.5 12,4.7Zm5.9,8.6l-1.4,-2c-0.1,1.2 0.2,1.8 1.1,2.1c0.1,-0.1 0.2,-0.1 0.3,-0.1Z"
					style="fill:#ffd500;" />
				<path
					d="M340,236.5c-0.9,-1.2 -1.7,-2.4 -2.5,-3.5l-0.2,-0.5l-24.7,-36l-5.8,-8.5l-2.4,-3.7l-3.3,-4.8l-3.285,-4.813l-7.115,-10.387l-8,-11.7l-7.7,-11.3l-34.1,-49.9l15,-10.3l1.2,1.8c0.4,0.5 0.9,1 1.7,1c0.7,0.2 1.4,-0 2.1,-0.4c0.6,-0.5 1,-1 1.1,-1.8c0.2,-0.8 0,-1.5 -0.4,-2.1l0,-0.1l-0.8,-1l0.8,-0.6l0.1,-0c0.2,-0.2 0.5,-0.4 0.6,-0.6c0.3,-0.3 0.4,-0.7 0.5,-1.2c0.2,-0.7 0,-1.5 -0.4,-2.1c-0.4,-0.6 -1,-1.1 -1.8,-1.1c-0.7,-0.2 -1.4,-0 -2,0.3l-0.9,0.7l-0.7,-1l0,-0.1c-0.5,-0.7 -1.1,-1.1 -1.8,-1.2c-0.8,-0.1 -1.5,-0 -2.2,0.4c-0.6,0.5 -1,1.1 -1.1,1.9c-0.2,0.6 -0.1,1.3 0.3,2l1.4,1.8l-15,10.3l-11.3,-16.5l1.8,-1.1c0.5,-0.5 0.8,-1 1,-1.8c0.1,-0.7 0,-1.5 -0.4,-2.1c-0.5,-0.7 -1.1,-1.1 -1.8,-1.2c-0.8,-0.1 -1.5,-0 -2.1,0.5l-0.1,-0l-1,0.7l-0.6,-0.8c-0.4,-0.7 -1,-1.1 -1.8,-1.2c-0.8,-0.1 -1.5,-0 -2.1,0.4c-0.7,0.5 -1.1,1.1 -1.3,1.9c-0.1,0.6 0,1.3 0.5,1.9l0.6,1l-1.1,0.7c-0.6,0.5 -1,1 -1.1,1.8c-0.2,0.7 0,1.4 0.4,2.1c0.5,0.6 1,1.1 1.8,1.2c0.7,0.1 1.4,-0 2,-0.4l1.9,-1.2l11.3,16.4l-5,3.4l-2.3,1.5l-1,0.7l-4.5,3.1l-1.9,1.3l-1.3,-1.9c-0.4,-0.6 -1,-1 -1.7,-1c-0.4,-0.2 -0.8,-0.2 -1.2,-0c-0.4,-0 -0.6,0.2 -0.9,0.3c-0.6,0.5 -1,1.1 -1.2,1.8c-0.1,0.8 0,1.5 0.5,2.1l0,0.1l0.7,1l-1,0.7c-0.5,0.4 -1,1 -1,1.7c-0.2,0.8 0,1.4 0.4,2.1c0.3,0.3 0.6,0.7 0.9,0.8c0.2,0.2 0.6,0.3 0.9,0.4c0.8,0.1 1.5,-0 2.1,-0.5l0.1,-0l0.8,-0.5l0.3,0.5l0.4,0.5l0,0.1c0.4,0.6 1,1 1.8,1.1c0.8,0.2 1.5,-0 2.1,-0.4c0.2,-0.2 0.5,-0.3 0.7,-0.6c0.2,-0.4 0.4,-0.7 0.5,-1.2c0.1,-0.7 0,-1.4 -0.4,-2l-1.1,-1.7l0.6,-0.5l4.6,-3.1l4,-2.7l5.3,-3.7l35.7,52.1l2.7,3.9l7.5,11l5.3,7.8l5.402,7.954l5.598,8.246l7.3,10.6l3.4,5.1l10,14.5l10.7,15.7"
					style="fill:none;fill-rule:nonzero;stroke:#b99d62;stroke-width:1px;" />
			</g>
			<g>
				<path
					d="M348.4,248.9c0.7,-0.9 1.1,-2 1.2,-3.1c0.3,-1.6 0.6,-3.3 1,-5.3c0.1,-0.2 0.1,-0.3 0.1,-0.3c0.2,-1.9 -0.7,-2.7 -3,-2.5"
					style="fill:none;fill-rule:nonzero;stroke:#b99d62;stroke-width:1px;" />
				<path d="M347.7,237.7c0,-0.4 0.1,-0.7 0.1,-1.2"
					style="fill:none;fill-rule:nonzero;stroke:#b99d62;stroke-width:1px;" />
				<path d="M345.1,236.5l0,-1.4c0,-0.3 0,-0.6 -0.1,-0.9"
					style="fill:none;fill-rule:nonzero;stroke:#b99d62;stroke-width:1px;" />
				<path d="M345,234.2c-0.1,-0.3 -0.1,-0.7 -0.2,-1c-0.6,-1.4 -1.8,-1.7 -3.5,-1.2c-1.3,0.5 -2.6,0.6 -4,0.5"
					style="fill:none;fill-rule:nonzero;stroke:#b99d62;stroke-width:1px;" />
				<path
					d="M347.7,237.7c0,0.8 0.1,1.5 0.1,2.5c0,0.6 0.1,1.2 0.1,1.9c0.1,1.8 -0.2,3.2 -1,4.2c-0.1,-0 -0.1,0.1 -0.1,0.1c-0.9,0.9 -2.1,1.2 -3.6,0.7"
					style="fill:none;fill-rule:nonzero;stroke:#b99d62;stroke-width:1px;" />
				<path
					d="M343.8,244c0.3,-0.2 0.6,-0.5 0.8,-0.7c0.5,-0.7 0.7,-1.6 0.6,-2.9l0,-0.2c-0.1,-1.3 -0.1,-2.6 -0.1,-3.7"
					style="fill:none;fill-rule:nonzero;stroke:#b99d62;stroke-width:1px;" />
				<path
					d="M339.8,244.8c0.8,-0.1 1.6,-0.1 2.3,0.1c0.7,0.2 1.3,0.6 2,1.1l0,-0.8c-0.1,-0.5 -0.2,-0.9 -0.3,-1.2"
					style="fill:none;fill-rule:nonzero;stroke:#b99d62;stroke-width:1px;" />
				<path d="M343.2,247.1c-0.1,-0.1 -0.2,-0.1 -0.2,-0.1c-0.2,0 -0.5,0 -0.6,-0.1"
					style="fill:none;fill-rule:nonzero;stroke:#b99d62;stroke-width:1px;" />
				<path d="M345.4,250.4c0.8,0.3 1.6,0.1 2.3,-0.7c0.3,-0.3 0.5,-0.5 0.7,-0.8"
					style="fill:none;fill-rule:nonzero;stroke:#b99d62;stroke-width:1px;" />
				<path d="M344.9,250.9c0.1,-0.1 0.3,-0.2 0.4,-0.3c-0,-0.1 -0,-0.1 0.1,-0.2"
					style="fill:none;fill-rule:nonzero;stroke:#b99d62;stroke-width:1px;" />
				<path
					d="M339.8,244.8c-0.1,0 -0.4,0.1 -0.5,0.1c-0.6,0 -0.9,-0.3 -1,-0.8c-0.2,-0.6 -0.1,-1.1 0.2,-1.6c0.3,-0.5 0.8,-0.8 1.4,-1"
					style="fill:none;fill-rule:nonzero;stroke:#b99d62;stroke-width:1px;" />
				<path
					d="M336.2,246.2l0.1,0.1c1.7,2.1 3.7,2.3 5.9,0.7c0,-0 0.1,-0 0.2,-0.1l0.1,-0.1l0,-0.2c0.1,-0.3 0,-0.6 -0.1,-1c-0.1,-0.3 -0.2,-0.5 -0.3,-0.7"
					style="fill:none;fill-rule:nonzero;stroke:#b99d62;stroke-width:1px;" />
				<path d="M337,239.9c0.1,-0.1 0.2,-0.1 0.3,-0.1"
					style="fill:none;fill-rule:nonzero;stroke:#b99d62;stroke-width:1px;" />
				<path d="M339.271,240.655c-0.1,-0.2 -0.811,-0.64 -0.871,-0.655c-0.4,-0.1 -0.8,-0.2 -1.1,-0.2"
					style="fill:none;fill-rule:nonzero;stroke:#b99d62;stroke-width:1px;" />
				<path
					d="M335.3,240.6c0.3,0 0.6,-0.1 0.8,-0.3c0.1,0 0.1,-0.1 0.2,-0.1c0.2,-0.2 0.639,-0.288 0.939,-0.388"
					style="fill:none;fill-rule:nonzero;stroke:#b99d62;stroke-width:1px;" />
				<path d="M341.7,236.1l0,0.4" style="fill:none;fill-rule:nonzero;stroke:#b99d62;stroke-width:1px;" />
				<path d="M339.9,241.5c2,0.1 3.3,0.8 3.9,2.5"
					style="fill:none;fill-rule:nonzero;stroke:#b99d62;stroke-width:1px;" />
				<path
					d="M341.7,236.5c0,0.3 -0.2,0.6 -0.4,0.7c-0.3,0.1 -0.4,0.2 -0.6,0.3c-0.9,0.6 -1.4,1.5 -1.6,2.7l0,0.3"
					style="fill:none;fill-rule:nonzero;stroke:#b99d62;stroke-width:1px;" />
				<path d="M342.8,247.8l0.2,-0.2c0.4,-0.1 0.8,0 1.2,0.4c0.4,0.3 0.8,0.8 1,1.4c0.1,0.3 0.2,0.7 0.2,1"
					style="fill:none;fill-rule:nonzero;stroke:#b99d62;stroke-width:1px;" />
				<path d="M331,230.6l0.4,0.6l0.5,0.7"
					style="fill:none;fill-rule:nonzero;stroke:#b99d62;stroke-width:1px;" />
				<path d="M335.9,237.8l-0.4,-0.6c-0.1,-0.2 -0.3,-0.5 -0.5,-0.7l-3.1,-4.6"
					style="fill:none;fill-rule:nonzero;stroke:#b99d62;stroke-width:1px;" />
				<path d="M331.9,231.9l-0.5,-0.7l-0.4,-0.6"
					style="fill:none;fill-rule:nonzero;stroke:#b99d62;stroke-width:1px;" />
				<path
					d="M333.271,245.386c0.3,0.2 0.829,0.414 1.329,0.514c0.6,0.1 1.1,0.2 1.6,0.3l0.1,0c0.8,0 1.6,-0.1 2.3,-0.4c0.5,-0.2 1,-0.6 1.2,-1"
					style="fill:none;fill-rule:nonzero;stroke:#b99d62;stroke-width:1px;" />
				<path
					d="M310.7,229.5c3.5,2.3 10,4.2 19.7,5.7c0.8,0.9 1.3,2 1.5,3.5c0.2,1.6 0.3,3.2 0.3,4.8c0,0.8 0.4,1.4 1.1,1.9"
					style="fill:none;fill-rule:nonzero;stroke:#b99d62;stroke-width:1px;" />
				<path d="M342.8,247.8c-1.2,1.6 -2.6,2 -4.3,1.5c1.9,2.8 4,3.3 6.4,1.6"
					style="fill:none;fill-rule:nonzero;stroke:#b99d62;stroke-width:1px;" />
				<path d="M337.3,239.8l-1.4,-2" style="fill:none;fill-rule:nonzero;stroke:#b99d62;stroke-width:1px;" />
				<path d="M337,239.9c-0.9,-0.3 -1.2,-0.9 -1.1,-2.1"
					style="fill:none;fill-rule:nonzero;stroke:#b99d62;stroke-width:1px;" />
				<path d="M339.1,240.5c0.3,0.2 0.6,0.6 0.8,1"
					style="fill:none;fill-rule:nonzero;stroke:#b99d62;stroke-width:1px;" />
				<path d="M343.2,247.1c-0.2,0.2 -0.3,0.5 -0.4,0.7"
					style="fill:none;fill-rule:nonzero;stroke:#b99d62;stroke-width:1px;" />
				<path d="M347.7,236.5c0.2,-1.9 -0.8,-2.7 -2.7,-2.3"
					style="fill:none;fill-rule:nonzero;stroke:#b99d62;stroke-width:1px;" />
				<path d="M344.9,250.9l5.9,8.6c1.5,0.1 2.6,-0.6 3.3,-2.3l-5.7,-8.3"
					style="fill:none;fill-rule:nonzero;stroke:#b99d62;stroke-width:1px;" />
				<path
					d="M310.105,229.723c0.1,-0.2 1.995,-1.323 2.095,-1.423c1.2,-0.9 2.1,-2 2.9,-3.2c-0,0.4 0.7,0.8 2,1.1c1.3,0.3 2.1,0.3 2.3,0.3c3.7,1.9 7.7,3.5 12,4.7"
					style="fill:none;fill-rule:nonzero;stroke:#b99d62;stroke-width:1px;" />
			</g>
		</g>
		<g>
			<path
				d="M223.3,242.3c-2.4,-0.4 -3.9,0.6 -4.6,3.2c-0.9,-3.5 0,-5.5 2.7,-6.3l0,-0.3c0.1,-0.6 0.4,-1.1 0.9,-1.4c0.4,-0.4 0.8,-0.6 1.5,-0.6c0.5,-0.1 1.1,0 1.7,0.1l3.6,0c1.3,-1.2 3.8,-2.1 7.5,-2.8c0.9,-0.2 1.8,-0.5 2.8,-0.7c3.5,-1.3 6.8,-3.6 9.7,-7c0.3,0 1.1,0 2.4,-0.3c1.3,-0.3 1.9,-0.7 2,-1.1c0.8,1.2 1.7,2.3 2.9,3.2c0.1,0.1 0.3,0.2 0.4,0.4c0.1,0 0.1,0 0.1,0.1c-4,2.6 -7.5,4.5 -10.7,5.7c-0.4,0.1 -0.8,0.3 -1.1,0.4c-3.3,1.1 -4,2.4 -2.2,3.9c0.1,0.1 0.2,0.2 0.4,0.3c0.4,0 0.8,-0.2 1.2,-0.6c0.4,-0.4 1,-0.5 1.7,-0.5c0.6,0 1.1,0.2 1.5,0.6c0.2,0 0.3,0.1 0.3,0.3c2.8,0.1 4.2,1.6 4.2,4.6c-1.3,-1.3 -2.9,-1.7 -4.9,-1.2c-0.2,0.4 -0.4,0.8 -0.7,1c-0.2,0 -0.3,0.1 -0.4,0.2l-1.6,0c-0.7,0 -1.2,-0.4 -1.5,-0.8c-0.1,0 -0.2,-0.1 -0.2,-0.2c-0.3,-0.3 -0.8,-0.5 -1.3,-0.5c-0.6,-0.2 -1.2,-0.2 -1.8,-0.2c-0.6,0 -1.1,0.2 -1.5,0.6c-0.5,0.4 -0.6,0.9 -0.3,1.5c0.3,0.6 0.6,1.1 0.8,1.6c0.1,0.5 0.3,1.1 0.3,1.7c-0,0.6 -0.1,1.1 -0.2,1.7c-0,0.1 -0.1,0.2 -0.1,0.3c-0.4,0.4 -0.6,0.8 -1,1.2c-1,1.9 -0.8,3.5 0.6,4.8c-3.5,-0.3 -5,-2 -4.5,-5.3c-0.1,0.1 -0.2,0.1 -0.3,0c-0.7,-0.3 -0.9,-0.7 -0.9,-1.3c0,-0.6 0.1,-1.1 0.4,-1.6c0.2,-0.5 0.6,-0.9 0.9,-1.3c0.4,-0.5 0.5,-1 0.5,-1.6c0.1,-0.6 -0.1,-1.1 -0.4,-1.7c-0.3,-0.6 -0.7,-1 -1,-1.3c-0.3,0.2 -0.7,0.5 -0.9,0.9c-0.3,0.5 -0.5,1 -0.5,1.6c0,0.6 0.1,1.2 0.2,1.9c0,0.6 -0.2,1.1 -0.5,1.7c-0.2,0.4 -0.7,0.7 -1.3,1c-0.5,0.1 -1.2,0.2 -1.8,0.1c-2.3,1.4 -3.1,3.2 -2.4,5.2c-2.5,-2.2 -3,-4.5 -1.6,-6.7c-0.1,-0.2 -0.1,-0.4 -0.1,-0.6c0,-0.6 0.2,-1.2 0.6,-1.6c0.4,-0.4 0.9,-0.6 1.4,-0.8c0.6,-0.3 1.1,-0.5 1.6,-0.9c0.4,-0.4 0.7,-0.8 1,-1.4c0.2,-0.3 0.4,-0.5 0.4,-0.9l-0.6,0c-0.7,-0.1 -1.3,0 -1.7,0.3c-0.5,0.2 -1,0.6 -1.2,1.1c-0.2,0.2 -0.4,0.3 -0.7,0.5c-0.6,0.1 -1.2,0 -1.7,-0.2Z"
				style="fill:#ffd500;" />
			<path
				d="M248,238.9c0,-0.2 -0.1,-0.3 -0.3,-0.3c-0.4,-0.4 -0.9,-0.6 -1.5,-0.6c-0.7,0 -1.3,0.1 -1.7,0.5c-0.4,0.4 -0.8,0.6 -1.2,0.6c-0.2,-0.1 -0.3,-0.2 -0.4,-0.3c-1.8,-1.5 -1.1,-2.8 2.2,-3.9c0.3,-0.1 0.7,-0.3 1.1,-0.4c3.2,-1.2 10.78,-5.732 10.78,-5.732c-0,0 -0.473,-0.359 -0.58,-0.468c-1.007,-1.022 -2.044,-1.929 -2.844,-3.129c-0.466,0.344 -0.756,0.729 -2.056,1.029c-1.3,0.3 -2.1,0.3 -2.4,0.3c-2.9,3.4 -6.2,5.7 -9.7,7c-1,0.2 -1.9,0.5 -2.8,0.7c-3.7,0.7 -6.2,1.6 -7.5,2.8l-3.6,0c-0.6,-0.1 -1.2,-0.2 -1.7,-0.1c-0.7,0 -1.1,0.2 -1.5,0.6c-0.5,0.3 -0.8,0.8 -0.9,1.4l0,0.3c-1.35,0.4 -2.25,1.1 -2.7,2.137c-0.45,1.038 -0.45,2.413 0,4.163c0.7,-2.6 2.2,-3.6 4.6,-3.2c0.5,0.2 1.1,0.3 1.7,0.2c0.3,-0.2 0.5,-0.3 0.7,-0.5c0.2,-0.5 0.7,-0.9 1.2,-1.1c0.29,-0.218 0.685,-0.33 1.148,-0.337c0.175,-0.003 1.052,-0 1.052,-0c0,0.4 -0.1,0.637 -0.3,0.937c-0.3,0.6 -0.6,1 -1,1.4c-0.5,0.4 -1,0.6 -1.6,0.9c-0.5,0.2 -1,0.4 -1.4,0.8c-0.4,0.4 -0.6,1 -0.6,1.6c0,0.2 0,0.4 0.1,0.6c-1.4,2.2 -0.9,4.5 1.6,6.7c-0.7,-2 0.1,-3.8 2.4,-5.2c0.6,0.1 1.3,-0 1.8,-0.1c0.6,-0.3 1.1,-0.6 1.3,-1c0.3,-0.6 0.5,-1.1 0.5,-1.7c-0.1,-0.7 -0.2,-1.3 -0.2,-1.9c0,-0.6 0.2,-1.1 0.5,-1.6c0.2,-0.4 0.6,-0.7 0.9,-0.9c0.3,0.3 0.7,0.7 1,1.3c0.3,0.6 0.5,1.1 0.4,1.7c0,0.6 -0.1,1.1 -0.5,1.6c-0.3,0.4 -0.7,0.8 -0.9,1.3c-0.3,0.5 -0.4,1 -0.4,1.6c0,0.328 0.06,0.596 0.228,0.821c0.14,0.187 0.872,0.579 0.972,0.479c-0.5,3.3 1,5 4.5,5.3c-1.4,-1.3 -1.6,-2.9 -0.6,-4.8c0.4,-0.4 1.1,-1.4 1.1,-1.5c0.1,-0.6 0.2,-1.1 0.2,-1.7c0,-0.6 -0.2,-1.2 -0.3,-1.7c-0.2,-0.5 -0.5,-1 -0.8,-1.6c-0.3,-0.6 -0.2,-1.1 0.3,-1.5c0.4,-0.4 0.9,-0.6 1.5,-0.6c0.6,-0 1.283,0.083 1.8,0.2c0.453,0.102 1.3,0.5 1.3,0.5l0.2,0.2c0,-0 0.8,0.8 1.5,0.8c0,-0 1.15,0.2 1.6,-0c0.45,-0.2 0.9,-0.8 1.1,-1.2c2,-0.5 3.6,-0.1 4.9,1.2c0,-2.677 -1.115,-4.159 -3.344,-4.519c-0.269,-0.043 -0.554,-0.07 -0.856,-0.081Z"
				style="fill:none;fill-rule:nonzero;" />
			<clipPath id="_clip1">
				<path
					d="M248,238.9c0,-0.2 -0.1,-0.3 -0.3,-0.3c-0.4,-0.4 -0.9,-0.6 -1.5,-0.6c-0.7,0 -1.3,0.1 -1.7,0.5c-0.4,0.4 -0.8,0.6 -1.2,0.6c-0.2,-0.1 -0.3,-0.2 -0.4,-0.3c-1.8,-1.5 -1.1,-2.8 2.2,-3.9c0.3,-0.1 0.7,-0.3 1.1,-0.4c3.2,-1.2 10.78,-5.732 10.78,-5.732c-0,0 -0.473,-0.359 -0.58,-0.468c-1.007,-1.022 -2.044,-1.929 -2.844,-3.129c-0.466,0.344 -0.756,0.729 -2.056,1.029c-1.3,0.3 -2.1,0.3 -2.4,0.3c-2.9,3.4 -6.2,5.7 -9.7,7c-1,0.2 -1.9,0.5 -2.8,0.7c-3.7,0.7 -6.2,1.6 -7.5,2.8l-3.6,0c-0.6,-0.1 -1.2,-0.2 -1.7,-0.1c-0.7,0 -1.1,0.2 -1.5,0.6c-0.5,0.3 -0.8,0.8 -0.9,1.4l0,0.3c-1.35,0.4 -2.25,1.1 -2.7,2.137c-0.45,1.038 -0.45,2.413 0,4.163c0.7,-2.6 2.2,-3.6 4.6,-3.2c0.5,0.2 1.1,0.3 1.7,0.2c0.3,-0.2 0.5,-0.3 0.7,-0.5c0.2,-0.5 0.7,-0.9 1.2,-1.1c0.29,-0.218 0.685,-0.33 1.148,-0.337c0.175,-0.003 1.052,-0 1.052,-0c0,0.4 -0.1,0.637 -0.3,0.937c-0.3,0.6 -0.6,1 -1,1.4c-0.5,0.4 -1,0.6 -1.6,0.9c-0.5,0.2 -1,0.4 -1.4,0.8c-0.4,0.4 -0.6,1 -0.6,1.6c0,0.2 0,0.4 0.1,0.6c-1.4,2.2 -0.9,4.5 1.6,6.7c-0.7,-2 0.1,-3.8 2.4,-5.2c0.6,0.1 1.3,-0 1.8,-0.1c0.6,-0.3 1.1,-0.6 1.3,-1c0.3,-0.6 0.5,-1.1 0.5,-1.7c-0.1,-0.7 -0.2,-1.3 -0.2,-1.9c0,-0.6 0.2,-1.1 0.5,-1.6c0.2,-0.4 0.6,-0.7 0.9,-0.9c0.3,0.3 0.7,0.7 1,1.3c0.3,0.6 0.5,1.1 0.4,1.7c0,0.6 -0.1,1.1 -0.5,1.6c-0.3,0.4 -0.7,0.8 -0.9,1.3c-0.3,0.5 -0.4,1 -0.4,1.6c0,0.328 0.06,0.596 0.228,0.821c0.14,0.187 0.872,0.579 0.972,0.479c-0.5,3.3 1,5 4.5,5.3c-1.4,-1.3 -1.6,-2.9 -0.6,-4.8c0.4,-0.4 1.1,-1.4 1.1,-1.5c0.1,-0.6 0.2,-1.1 0.2,-1.7c0,-0.6 -0.2,-1.2 -0.3,-1.7c-0.2,-0.5 -0.5,-1 -0.8,-1.6c-0.3,-0.6 -0.2,-1.1 0.3,-1.5c0.4,-0.4 0.9,-0.6 1.5,-0.6c0.6,-0 1.283,0.083 1.8,0.2c0.453,0.102 1.3,0.5 1.3,0.5l0.2,0.2c0,-0 0.8,0.8 1.5,0.8c0,-0 1.15,0.2 1.6,-0c0.45,-0.2 0.9,-0.8 1.1,-1.2c2,-0.5 3.6,-0.1 4.9,1.2c0,-2.677 -1.115,-4.159 -3.344,-4.519c-0.269,-0.043 -0.554,-0.07 -0.856,-0.081Z"
					clip-rule="nonzero" />
			</clipPath>
			<g clip-path="url(#_clip1)">
				<path
					d="M223.3,242.3c0.1,-0.2 0.1,-0.6 0.1,-0.9c0,-0.7 -0.1,-1.2 -0.5,-1.7c-0.5,-0.5 -0.9,-0.7 -1.5,-0.5"
					style="fill:none;fill-rule:nonzero;stroke:#b99d62;stroke-width:1px;" />
				<path
					d="M247.3,242.3c-0.5,-0.1 -0.8,-0.3 -0.9,-0.8c-0.2,-0.6 -0.1,-1.2 0.2,-1.6c0.3,-0.5 0.8,-0.9 1.4,-1"
					style="fill:none;fill-rule:nonzero;stroke:#b99d62;stroke-width:1px;" />
				<path
					d="M237.8,250.4c-0.2,-0.4 -0.5,-0.6 -1,-0.8c-0.6,-0.2 -1.2,-0.3 -1.7,-0.2c-0.4,0.1 -1.45,0.546 -1.45,0.546"
					style="fill:none;fill-rule:nonzero;stroke:#b99d62;stroke-width:1px;" />
				<path
					d="M228.3,248.3c0,-0.1 0.1,-0.3 0.1,-0.4c0,-0.7 -0.2,-1.2 -0.8,-1.4c-0.5,-0.2 -1.2,-0.3 -1.7,-0.3c-0.7,-0.1 -1.2,0.1 -1.6,0.6"
					style="fill:none;fill-rule:nonzero;stroke:#b99d62;stroke-width:1px;" />
			</g>
			<path
				d="M248,238.9c0,-0.2 -0.1,-0.3 -0.3,-0.3c-0.4,-0.4 -0.9,-0.6 -1.5,-0.6c-0.7,0 -1.3,0.1 -1.7,0.5c-0.4,0.4 -0.8,0.6 -1.2,0.6c-0.2,-0.1 -0.3,-0.2 -0.4,-0.3c-1.8,-1.5 -1.1,-2.8 2.2,-3.9c0.3,-0.1 0.7,-0.3 1.1,-0.4c3.2,-1.2 10.78,-5.732 10.78,-5.732c-0,0 -0.473,-0.359 -0.58,-0.468c-1.007,-1.022 -2.044,-1.929 -2.844,-3.129c-0.466,0.344 -0.756,0.729 -2.056,1.029c-1.3,0.3 -2.1,0.3 -2.4,0.3c-2.9,3.4 -6.2,5.7 -9.7,7c-1,0.2 -1.9,0.5 -2.8,0.7c-3.7,0.7 -6.2,1.6 -7.5,2.8l-3.6,0c-0.6,-0.1 -1.2,-0.2 -1.7,-0.1c-0.7,0 -1.1,0.2 -1.5,0.6c-0.5,0.3 -0.8,0.8 -0.9,1.4l0,0.3c-1.35,0.4 -2.25,1.1 -2.7,2.137c-0.45,1.038 -0.45,2.413 0,4.163c0.7,-2.6 2.2,-3.6 4.6,-3.2c0.5,0.2 1.1,0.3 1.7,0.2c0.3,-0.2 0.5,-0.3 0.7,-0.5c0.2,-0.5 0.7,-0.9 1.2,-1.1c0.29,-0.218 0.685,-0.33 1.148,-0.337c0.175,-0.003 1.052,-0 1.052,-0c0,0.4 -0.1,0.637 -0.3,0.937c-0.3,0.6 -0.6,1 -1,1.4c-0.5,0.4 -1,0.6 -1.6,0.9c-0.5,0.2 -1,0.4 -1.4,0.8c-0.4,0.4 -0.6,1 -0.6,1.6c0,0.2 0,0.4 0.1,0.6c-1.4,2.2 -0.9,4.5 1.6,6.7c-0.7,-2 0.1,-3.8 2.4,-5.2c0.6,0.1 1.3,-0 1.8,-0.1c0.6,-0.3 1.1,-0.6 1.3,-1c0.3,-0.6 0.5,-1.1 0.5,-1.7c-0.1,-0.7 -0.2,-1.3 -0.2,-1.9c0,-0.6 0.2,-1.1 0.5,-1.6c0.2,-0.4 0.6,-0.7 0.9,-0.9c0.3,0.3 0.7,0.7 1,1.3c0.3,0.6 0.5,1.1 0.4,1.7c0,0.6 -0.1,1.1 -0.5,1.6c-0.3,0.4 -0.7,0.8 -0.9,1.3c-0.3,0.5 -0.4,1 -0.4,1.6c0,0.328 0.06,0.596 0.228,0.821c0.14,0.187 0.872,0.579 0.972,0.479c-0.5,3.3 1,5 4.5,5.3c-1.4,-1.3 -1.6,-2.9 -0.6,-4.8c0.4,-0.4 1.1,-1.4 1.1,-1.5c0.1,-0.6 0.2,-1.1 0.2,-1.7c0,-0.6 -0.2,-1.2 -0.3,-1.7c-0.2,-0.5 -0.5,-1 -0.8,-1.6c-0.3,-0.6 -0.2,-1.1 0.3,-1.5c0.4,-0.4 0.9,-0.6 1.5,-0.6c0.6,-0 1.283,0.083 1.8,0.2c0.453,0.102 1.3,0.5 1.3,0.5l0.2,0.2c0,-0 0.8,0.8 1.5,0.8c0,-0 1.15,0.2 1.6,-0c0.45,-0.2 0.9,-0.8 1.1,-1.2c2,-0.5 3.6,-0.1 4.9,1.2c0,-2.677 -1.115,-4.159 -3.344,-4.519c-0.269,-0.043 -0.554,-0.07 -0.856,-0.081Z"
				style="fill:none;fill-rule:nonzero;stroke:#b99d62;stroke-width:1px;" />
		</g>
	</g>
</svg>