<svg width="100%" height="100%" xmlns="http://www.w3.org/2000/svg" viewBox="0 0 500 500">
   <g transform="translate(0,-700)" id="layer5" style="display:inline">
      <rect width="500" height="500" x="0" y="-1200" transform="scale(1,-1)" id="rect4249"
         style="fill:#FEC10D;fill-opacity:1;stroke:none" />
      <rect width="496.5" height="493" x="0" y="703.5" id="rect3382" style="fill:#004A8F;fill-opacity:1;stroke:none" />
      <path d="M 16.064685,703.5 0,750 32.12937,750 16.064685,703.5 z" id="path4703"
         style="fill:#FEC10D;fill-opacity:1;stroke:none" />
      <path d="M 32.12937,750 64.29021,750 48.20979,703.5 32.12937,750 z" id="path4701"
         style="fill:#FEC10D;fill-opacity:1;stroke:none" />
      <path d="M 64.29021,750 96.41958,750 80.354895,703.5 64.29021,750 z" id="path4699"
         style="fill:#FEC10D;fill-opacity:1;stroke:none" />
      <path d="m 96.41958,750 32.16084,0 L 112.5,703.5 96.41958,750 z" id="path4697"
         style="fill:#FEC10D;fill-opacity:1;stroke:none" />
      <path d="m 128.58042,750 32.12937,0 -16.06469,-46.5 -16.06468,46.5 z" id="path4695"
         style="fill:#FEC10D;fill-opacity:1;stroke:none" />
      <path d="m 160.70979,750 32.16084,0 -16.08042,-46.5 -16.08042,46.5 z" id="path4693"
         style="fill:#FEC10D;fill-opacity:1;stroke:none" />
      <path d="M 192.87063,750 225,750 208.93531,703.5 192.87063,750 z" id="path4691"
         style="fill:#FEC10D;fill-opacity:1;stroke:none" />
      <path d="m 225,750 32.16084,0 L 241.08042,703.5 225,750 z" id="path4689"
         style="fill:#FEC10D;fill-opacity:1;stroke:none" />
      <path d="m 257.16084,750 32.12937,0 -16.06469,-46.5 -16.06468,46.5 z" id="path4687"
         style="fill:#FEC10D;fill-opacity:1;stroke:none" />
      <path d="m 289.29021,750 32.1451,0 -16.06468,-46.5 -16.08042,46.5 z" id="path4685"
         style="fill:#FEC10D;fill-opacity:1;stroke:none" />
      <path d="m 321.43531,750 32.14511,0 -16.06469,-46.5 -16.08042,46.5 z" id="path4683"
         style="fill:#FEC10D;fill-opacity:1;stroke:none" />
      <path d="m 353.58042,750 32.1451,0 -16.06468,-46.5 -16.08042,46.5 z" id="path4681"
         style="fill:#FEC10D;fill-opacity:1;stroke:none" />
      <path d="m 385.72552,750 32.14511,0 -16.06469,-46.5 -16.08042,46.5 z" id="path4679"
         style="fill:#FEC10D;fill-opacity:1;stroke:none" />
      <path d="M 417.87063,750 450,750 433.93531,703.5 417.87063,750 z" id="rect3430"
         style="fill:#FEC10D;fill-opacity:1;stroke:none" />
      <path d="M 16.064685,1196.5 0,1150 l 32.12937,0 -16.064685,46.5 z" id="path4825"
         style="fill:#FEC10D;fill-opacity:1;stroke:none" />
      <path d="m 32.12937,1150 32.16084,0 -16.08042,46.5 -16.08042,-46.5 z" id="path4823"
         style="fill:#FEC10D;fill-opacity:1;stroke:none" />
      <path d="m 64.29021,1150 32.12937,0 -16.064685,46.5 L 64.29021,1150 z" id="path4821"
         style="fill:#FEC10D;fill-opacity:1;stroke:none" />
      <path d="m 96.41958,1150 32.16084,0 L 112.5,1196.5 96.41958,1150 z" id="path4819"
         style="fill:#FEC10D;fill-opacity:1;stroke:none" />
      <path d="m 128.58042,1150 32.12937,0 -16.06469,46.5 -16.06468,-46.5 z" id="path4817"
         style="fill:#FEC10D;fill-opacity:1;stroke:none" />
      <path d="m 160.70979,1150 32.16084,0 -16.08042,46.5 -16.08042,-46.5 z" id="path4815"
         style="fill:#FEC10D;fill-opacity:1;stroke:none" />
      <path d="M 192.87063,1150 225,1150 208.93531,1196.5 192.87063,1150 z" id="path4813"
         style="fill:#FEC10D;fill-opacity:1;stroke:none" />
      <path d="m 225,1150 32.16084,0 -16.08042,46.5 L 225,1150 z" id="path4811"
         style="fill:#FEC10D;fill-opacity:1;stroke:none" />
      <path d="m 257.16084,1150 32.12937,0 -16.06469,46.5 -16.06468,-46.5 z" id="path4809"
         style="fill:#FEC10D;fill-opacity:1;stroke:none" />
      <path d="m 289.29021,1150 32.1451,0 -16.06468,46.5 -16.08042,-46.5 z" id="path4807"
         style="fill:#FEC10D;fill-opacity:1;stroke:none" />
      <path d="m 321.43531,1150 32.14511,0 -16.06469,46.5 -16.08042,-46.5 z" id="path4805"
         style="fill:#FEC10D;fill-opacity:1;stroke:none" />
      <path d="m 353.58042,1150 32.1451,0 -16.06468,46.5 -16.08042,-46.5 z" id="path4803"
         style="fill:#FEC10D;fill-opacity:1;stroke:none" />
      <path d="m 385.72552,1150 32.14511,0 -16.06469,46.5 -16.08042,-46.5 z" id="path4801"
         style="fill:#FEC10D;fill-opacity:1;stroke:none" />
      <path d="M 417.87063,1150 450,1150 433.93531,1196.5 417.87063,1150 z" id="path4658"
         style="fill:#FEC10D;fill-opacity:1;stroke:none" />
      <path d="M 496.5,766.65918 450,750 l 0,33.31838 z" id="path4740"
         style="fill:#FEC10D;fill-opacity:1;stroke:none" />
      <path d="m 450,783.31838 0,33.35101 46.5,-16.67551 z" id="path4738"
         style="fill:#FEC10D;fill-opacity:1;stroke:none" />
      <path d="m 450,816.66939 0,33.31837 46.5,-16.65918 z" id="path4736"
         style="fill:#FEC10D;fill-opacity:1;stroke:none" />
      <path d="m 450,849.98776 0,33.35101 46.5,-16.6755 z" id="path4734"
         style="fill:#FEC10D;fill-opacity:1;stroke:none" />
      <path d="m 450,883.33877 0,33.31838 46.5,-16.65919 z" id="path4732"
         style="fill:#FEC10D;fill-opacity:1;stroke:none" />
      <path d="m 450,916.65715 0,33.35101 46.5,-16.6755 z" id="path4730"
         style="fill:#FEC10D;fill-opacity:1;stroke:none" />
      <path d="m 450,950.00816 0,33.31838 46.5,-16.65919 z" id="path4728"
         style="fill:#FEC10D;fill-opacity:1;stroke:none" />
      <path d="m 450,983.32653 0,33.35097 46.5,-16.6755 z" id="path4726"
         style="fill:#FEC10D;fill-opacity:1;stroke:none" />
      <path d="m 450,1016.6775 0,33.3184 46.5,-16.6592 z" id="path4724"
         style="fill:#FEC10D;fill-opacity:1;stroke:none" />
      <path d="m 450,1049.9959 0,33.3347 46.5,-16.6591 z" id="path4722"
         style="fill:#FEC10D;fill-opacity:1;stroke:none" />
      <path d="m 450,1083.3306 0,33.3347 46.5,-16.6591 z" id="path4720"
         style="fill:#FEC10D;fill-opacity:1;stroke:none" />
      <path d="m 450,1116.6653 0,33.3347 46.5,-16.6591 z" id="path4664"
         style="fill:#FEC10D;fill-opacity:1;stroke:none" />
      <path d="M 496.5,733.3125 466.07812,703.5 450.00781,749.98437 z" id="path4714"
         style="fill:#FEC10D;fill-opacity:1;stroke:none" />
      <path d="M 466.07812,1196.5 496.5,1166.6875 450.00781,1150.0156 z" id="path4716"
         style="fill:#FEC10D;fill-opacity:1;stroke:none" />
   </g>
   <g transform="matrix(0.81214864,0,0,0.81241368,35.020772,42.945122)" id="g55">
      <path
         d="m 404.191,189.216 6.582,225.24 h 7.844 v 39.614 h -53.943 v -39.614 h 3.947 C 369.48,331.125 316.212,256.857 237,230.954 157.789,256.857 104.518,331.125 105.379,414.456 h 3.948 V 454.07 H 55.383 v -39.614 h 7.843 l 6.581,-225.24 H 61.989 L 58.236,174.993 H 70.902 V 121.101 H 60.339 V 81.489 h 21.775 v 19.102 H 96.213 V 81.489 h 21.775 v 19.102 h 14.099 V 81.489 h 21.775 v 39.613 H 143.3 v 53.892 h 14.904 v -25.515 h 21.775 v 25.515 h 17.972 V 89.531 H 188.35 V 49.919 h 23.107 v 19.103 h 14.654 V 49.919 h 21.775 v 19.103 h 14.653 V 49.919 h 23.107 v 39.613 h -9.601 v 85.461 h 17.972 v -25.515 h 21.774 v 25.515 h 14.903 V 121.101 H 320.132 V 81.489 h 21.774 v 19.102 h 14.1 V 81.489 h 21.773 v 19.102 H 391.88 V 81.489 h 21.774 v 39.613 h -10.563 v 53.892 h 12.666 l -3.753,14.223 -7.813,-0.001 7.818,0.001 z"
         id="path2" />
      <path fill="#FEC10D"
         d="m 161.979,175.516 h 14.224 v -21.741 h -14.224 z m -56.766,0 V 162.474 H 100.67 V 150.457 H 74.677 v 25.06 z m 34.312,-28.834 v -25.06 H 74.677 v 25.06 H 100.67 V 130.89 h 12.862 v 15.792 z m 0,3.776 h -25.993 v 12.017 h -4.543 v 13.042 h 30.536 z M 59.158,450.817 h 46.393 V 418.754 H 59.158 Z M 312.02,175.516 h -14.226 v -21.741 h 14.226 z m 56.766,0 v -13.042 h 4.544 v -12.017 h 25.992 v 25.06 z m -34.311,-28.834 v -25.06 h 64.848 v 25.06 H 373.33 V 130.89 h -12.862 v 15.792 z m 0,3.776 h 25.992 v 12.017 h 4.543 v 13.042 h -30.535 z m 80.366,300.359 h -46.394 v -32.063 h 46.394 z M 95.591,189.739 h 50.411 v 21.284 H 95.591 Z m 27.117,25.059 h 54.55 v 25.138 h -54.55 z m 27.069,-25.059 h 52.969 v 21.284 H 149.777 Z M 95.591,243.71 h 50.411 v 24.628 H 95.591 Z m 228.632,-53.971 h -52.971 v 21.284 h 52.971 z m -117.701,21.284 h 60.955 V 189.739 H 206.522 Z M 73.584,189.739 h 18.232 v 21.284 H 72.962 Z m -0.732,25.059 h 46.081 v 25.138 H 72.117 Z m -0.845,28.912 h 19.81 v 24.628 H 71.288 Z m -0.83,28.404 h 47.755 v 26.08 H 70.415 Z m -0.872,29.855 h 21.512 v 24.632 H 69.585 Z m -0.83,28.408 h 39.765 c -3.741,8.47 -6.902,17.184 -9.461,26.083 H 68.713 Z m -0.872,29.856 h 23.214 v 24.048 H 67.9 Z m -0.813,27.823 h 25.544 c -1.098,8.931 -1.604,17.924 -1.518,26.921 H 67.003 Z m 27.801,-86.087 h 28.977 c -5.099,7.889 -9.648,16.119 -13.616,24.632 H 95.591 Z m 27.117,-29.855 h 23.295 v 2.207 c -6.896,7.476 -13.226,15.456 -18.934,23.874 h -4.361 z m 27.069,-28.404 h 31.78 c -10.691,7.25 -20.673,15.497 -29.809,24.628 h -1.971 z M 95.591,360.233 h 3.14 l -3.14,13.605 z M 378.408,189.739 h -50.411 v 21.284 h 50.411 z m -27.116,25.059 h -54.55 v 25.138 h 54.55 z m 27.116,28.912 h -50.411 v 24.628 h 50.411 z m 22.007,-53.971 h -18.231 v 21.284 h 18.854 z m 0.731,25.059 h -46.08 v 25.138 h 46.814 z m 0.846,28.912 h -19.809 v 24.628 h 20.527 z m 0.83,28.404 h -47.756 v 26.08 h 48.518 z m 0.871,29.855 h -21.51 v 24.632 h 22.229 z m 0.83,28.408 H 364.76 c 3.739,8.47 6.901,17.184 9.461,26.083 h 31.064 z m 0.873,29.856 h -23.213 v 24.048 H 406.1 Z M 378.408,301.969 H 349.43 c 5.1,7.889 9.648,16.119 13.616,24.632 h 15.361 z m -27.116,-29.855 h -23.295 v 2.207 c 6.896,7.476 13.226,15.456 18.935,23.874 h 4.36 z M 324.223,243.71 h -31.781 c 10.692,7.25 20.674,15.497 29.811,24.628 h 1.971 V 243.71 Z m 54.185,116.523 h -3.141 l 3.141,13.605 z m 27.801,27.823 h -25.544 c 1.097,8.931 1.604,17.924 1.519,26.921 h 24.813 z M 237,217.259 c 17.495,5.307 34.2,12.934 49.668,22.677 h 6.299 V 214.798 H 237 181.034 v 25.138 h 6.298 C 202.8,230.191 219.504,222.564 237,217.259 Z m 0,10.249 C 155.637,253.546 100.738,329.561 101.604,414.98 H 95.593 C 94.719,326.235 152.216,247.448 237,221.207 c 84.784,26.241 142.279,105.028 141.408,193.771 h -6.012 C 373.262,329.559 318.363,253.546 237,227.508 Z M 409.885,85.786 H 395.66 v 19.103 H 374.012 V 85.786 h -14.225 v 19.103 h -21.65 V 85.786 h -14.224 v 32.063 h 85.973 z m -0.776,100.154 1.748,-6.625 H 63.142 l 1.749,6.625 z M 212.353,145.771 h 49.293 V 117.913 H 243.43 v 15.736 h -12.862 v -15.736 h -18.215 z m 53.068,-27.859 h 6.853 v 27.858 h -6.853 z m -21.991,-3.774 h 28.844 V 90.054 h -33.387 v 12.011 h 4.543 z m -4.543,61.378 h 33.387 V 149.544 H 238.887 Z M 244.111,54.217 H 229.887 V 73.32 H 207.682 V 54.217 H 192.125 V 86.28 h 89.748 V 54.217 H 266.316 V 73.32 H 244.109 V 54.217 Z m -35.533,63.695 h -6.852 v 27.858 h 6.852 z m 21.99,-3.774 H 201.726 V 90.054 h 33.386 v 12.011 h -4.544 z m 4.544,61.378 h -33.386 v -25.972 h 33.386 z M 64.115,85.786 h 14.224 v 19.103 h 21.65 V 85.786 h 14.224 v 19.103 h 21.65 V 85.786 h 14.224 v 32.063 H 64.115 Z"
         id="path3" />
      <g id="g1" transform="matrix(0.97530883,0,0,0.97530883,5.5813459,11.499089)">
         <path
            d="m 242.148,272.353 c -3.988,-0.095 -8.071,1.678 -11.596,3.551 -0.462,-1.099 -1.635,-1.858 -2.827,-1.83 -7.546,-0.63 -15.462,-1.095 -20.917,4.575 -6.864,-0.634 -13.943,1.499 -19.316,5.816 -2.121,1.812 -2.104,4.949 -0.229,6.635 -0.627,4.976 2.027,9.614 6.243,11.471 -0.012,0.898 -0.1,1.796 -0.261,2.681 -4.564,2.094 -5.189,7.748 -1.7,10.571 -0.128,0.84 0.531,1.718 1.373,1.831 2.296,-0.118 4.597,-0.162 6.896,-0.131 0.945,0.972 0.824,2.467 -0.262,3.121 -4.659,2.266 -9.752,3.638 -14.919,4.019 0.493,2.118 1.927,3.999 3.84,5.034 -6.871,4.65 -14.075,8.811 -21.538,12.436 1.993,2.275 4.195,4.367 6.569,6.242 -6.827,7.678 -6.645,19.834 -16.439,23.139 1.776,1.835 3.601,3.623 5.474,5.359 -7.603,3.832 -16.08,5.915 -24.594,6.047 -3.236,-0.025 -5.534,-2.871 -5.05,-5.753 0.302,-4.731 -3.147,-8.658 -7.452,-9.035 -2.104,-1.979 -5.444,-2.508 -8.056,-1.274 0.46,1.36 1.16,2.638 2.059,3.758 -0.345,1.106 -0.501,2.273 -0.458,3.433 0.045,1.166 -1.094,2.23 -2.255,2.106 -1.347,-0.139 -2.746,0.339 -3.726,1.274 -2.178,0.246 -4.231,1.452 -5.507,3.235 1.337,1.569 3.188,2.692 5.197,3.154 -0.397,1.729 0.633,3.672 2.288,4.314 0.927,1.176 0.622,3.117 -0.621,3.953 -0.836,0.29 -1.525,0.979 -1.816,1.813 -0.291,0.834 -0.179,1.802 0.296,2.549 -1.144,1.625 -1.825,3.573 -1.944,5.558 2.435,0.914 5.36,0.356 7.289,-1.39 2.16,1.008 4.883,0.671 6.732,-0.833 0.467,-0.228 1.08,-0.104 1.423,0.285 0.343,0.39 0.385,1.014 0.098,1.447 -0.81,0.738 -1.275,1.839 -1.241,2.933 0.034,1.095 0.567,2.165 1.42,2.852 0.039,2.074 0.996,4.116 2.565,5.474 1.292,-1.129 2.359,-2.514 3.121,-4.052 0.504,0.3 3.731,0.659 5.106,-3.208 1.344,3.38 6.539,7.632 14.079,9.678 -0.461,-1.063 -2.527,-4.264 -2.27,-6.996 1.208,1.899 6.141,5.012 8.904,5.051 -0.661,-3.502 -2.554,-5.835 -2.009,-9.856 3.194,3.166 10.308,4.364 14.151,3.484 -1.804,2.3 -2.63,5.34 -2.239,8.236 1.54,-1.832 3.417,-3.379 5.507,-4.543 0.489,-0.398 1.257,-0.403 1.75,-0.009 0.493,0.394 0.657,1.145 0.375,1.708 -4.17,4.916 -7.93,10.18 -11.227,15.72 -3.273,3.761 -8.818,5.368 -13.596,3.938 -3.143,-1.38 -7.162,-0.359 -9.266,2.354 -4.282,1.333 -7.718,5.091 -8.661,9.478 2.04,-0.163 4.103,-0.048 6.112,0.343 2.014,0.386 3.555,2.453 3.35,4.493 -3.553,3.737 -2.867,9.517 0.948,12.189 0.542,-1.783 1.938,-3.285 3.677,-3.955 1.824,0.548 3.98,-0.478 4.706,-2.237 2.44,-0.585 5.192,0.528 6.537,2.646 0.84,2.61 2.635,4.901 4.968,6.341 1.097,-1.79 2.694,-4.349 2.255,-6.341 1.718,-0.944 3.009,-3.462 2.958,-5.065 3.398,2.943 3.315,4.881 4.951,6.814 2.004,-0.793 4.329,-4.578 4.36,-6.733 2.526,-3.007 3.535,-7.313 1.016,-10.979 4.136,-0.364 8.061,-2.656 10.41,-6.079 6.168,1.131 12.745,-0.13 18.057,-3.465 -2.904,0.397 -5.966,-1.381 -7.059,-4.102 4.697,1.563 10.16,0.583 14.021,-2.516 -1.565,-0.798 -2.67,-2.435 -2.827,-4.184 2.227,-0.593 4.676,-0.3 6.7,0.8 0.109,-2.777 -0.668,-5.582 -2.189,-7.909 7.859,0.257 15.736,0.005 23.563,-0.751 -0.859,-1.896 -2.794,-3.26 -4.869,-3.431 4.38,-3.169 10.182,-4.289 15.427,-2.975 -2.859,-1.798 -5.949,-3.229 -9.168,-4.249 9,-3.515 17.561,-8.147 25.428,-13.759 3.811,-3.078 8.788,-4.671 13.677,-4.379 l -9.478,9.984 c -3.84,3.623 -5.723,9.207 -4.857,14.415 2.873,10.494 9.93,11.614 16.803,17.072 1.133,0.905 1.383,2.728 0.541,3.905 -1.183,3.256 -3.22,6.197 -5.853,8.448 -1.154,0.981 -3.078,0.875 -4.117,-0.229 -5.763,-4.189 -12.95,-3.077 -16.587,2.386 -2.857,0.805 -5.186,3.263 -5.833,6.16 1.742,0.864 3.737,1.209 5.67,0.98 1.479,1.518 3.271,2.732 5.229,3.546 -0.291,0.929 -0.441,1.902 -0.441,2.876 -1.341,3.146 -1.218,6.883 0.327,9.936 1.868,-0.58 3.585,-1.643 4.937,-3.057 2.131,-0.426 4.103,-1.615 5.475,-3.301 0.576,0.868 1.354,1.6 2.255,2.125 0.174,3.469 1.959,6.823 4.737,8.906 2.392,-1.595 4.111,-4.161 4.676,-6.979 1.699,-1.67 3.045,-3.7 3.922,-5.915 2.629,1.473 4.148,4.699 3.611,7.664 6.77,-3.452 5.063,-7.334 7.123,-12.713 0.947,-1.549 0.513,-3.79 -0.946,-4.869 -0.778,-2.161 1.313,-3.987 3.138,-3.121 2.305,1.146 4.467,2.576 6.422,4.249 1.27,-3.146 0.871,-6.913 -1.029,-9.723 0.883,-0.376 1.957,-0.255 2.732,0.308 0.775,0.563 1.225,1.547 1.141,2.502 1.688,-2.878 1.293,-6.825 -0.932,-9.313 -0.513,-0.568 -0.389,-1.582 0.245,-2.01 2.478,-2.096 2.312,-5.784 0,-7.565 -6.173,2.274 -7.319,-9.137 -5.356,-10.428 4.555,6.944 13.592,14.306 21.879,14.873 5.979,1.008 11.295,5.318 13.514,10.964 1.004,3.211 -1.827,6.031 -4.705,5.409 -6.148,-1.66 -12.139,1.219 -14.35,6.667 -2.556,1.603 -3.195,4.894 -1.649,7.156 1.035,-0.812 2.442,-1.127 3.726,-0.833 1.848,1.054 4.25,1.054 6.096,0 -0.478,2.334 0.384,4.897 2.174,6.472 -1.102,1.868 -1.158,4.307 -0.146,6.226 2.116,-0.999 4.012,-2.465 5.508,-4.265 2.638,-1.053 4.996,-2.792 6.781,-5.001 -0.152,2.55 1.938,5.031 4.478,5.312 0.628,1.657 2.702,2.598 4.362,1.978 -0.412,-1.129 -0.586,-2.347 -0.506,-3.546 1.528,-0.977 3.281,-6.578 2.42,-8.174 2.453,0.724 2.582,2.479 4.574,4.333 2.127,-1.048 2.991,-5.36 1.834,-6.987 2.62,-7.938 2.914,-11.368 -1.617,-19.933 3.879,-0.072 7.35,-3.639 8.101,-7.444 -2.519,0.102 -5.06,-0.438 -7.32,-1.554 2.386,-1.501 3.812,-4.399 3.546,-7.206 -1.559,0.657 -4.918,0.693 -5.55,-0.361 0.06,-1.613 0.774,-3.943 -0.067,-5.704 -7.556,1.474 -12.297,-0.472 -15.435,-4.386 -1.849,-2.382 -2.694,-5.516 -2.3,-8.504 4.15,1.221 8.857,0.372 12.32,-2.223 -4.529,0.305 -6.178,-4.501 -9.869,-5.67 1.332,-1.821 3.42,-3.07 5.654,-3.382 -1.543,-1.632 -3.623,-2.75 -5.834,-3.138 0.069,-1.021 0.734,-1.98 1.668,-2.403 0.933,-0.423 2.092,-0.292 2.906,0.328 0.242,-1.336 -0.566,-2.788 -1.83,-3.284 -2.619,-1.303 -3.615,-4.379 -2.435,-6.766 18.368,-1.448 22.528,-16.91 12.714,-28.22 -8.118,-6.928 -17.732,-12.092 -27.993,-15.032 -0.739,-2.693 -2.998,-4.912 -5.703,-5.605 -7.144,-3.112 -5.411,-9.834 -0.604,-12.239 -1.502,-0.583 -3.223,-0.578 -4.723,0.018 -1.248,-4.604 -4.832,-8.543 -7.791,-10.943 4.266,2.38 9.965,-4.087 12.072,-3.73 -6.287,-4.737 -13.398,-3.69 -18.792,-9.689 -4.019,-3.969 -10.099,-3.168 -14.087,-2.271 -3.321,-1.955 -7.281,-2.804 -11.111,-2.385 -13.238,2.135 -15.527,16.52 -9.25,25.05 7.782,10.111 19.25,17.321 31.734,19.951 -3.482,1.749 -5.989,5.314 -6.454,9.184 4.065,-1.769 8.662,-2.298 13.024,-1.502 0.619,6.149 5.526,10.718 11.177,10.964 -1.71,-1.766 -2.527,-4.354 -2.142,-6.781 0.213,-1.294 1.521,-1.989 2.582,-1.389 2.459,0.93 5.305,0.777 7.648,-0.408 7.964,3.817 19.527,8.399 24.861,14.229 5.328,11.123 -10.493,11.767 -19.401,6.881 -23.862,-9.292 -47.603,-11.147 -72.329,-5.98 -1.027,0.099 -2.092,-0.336 -2.754,-1.127 -0.664,-0.791 -0.906,-1.915 -0.629,-2.909 2.206,1.049 4.722,1.436 7.141,1.095 -3.953,-4.661 -5.638,-11.162 -4.443,-17.157 3.275,2.257 7.781,2.594 11.356,0.85 -6.364,-6.112 -10.03,-14.938 -9.87,-23.759 2.609,0.17 5.204,-1.728 5.834,-4.266 -6.354,-3.048 -11.205,-9.062 -12.845,-15.916 -1.512,-1.188 -2.485,-1.804 -4.026,-2.671 -0.975,-4.063 -2.729,-9.314 -4.451,-11.356 z m 35.305,16.1 c 1.598,0 3.186,0.669 4.299,1.814 -0.825,3.372 -0.316,7.848 -3.416,9.559 3.221,1.254 7.014,0.924 9.969,-0.865 1.935,5.628 6.272,10.385 11.7,12.827 -1.059,-1.782 -2.591,-8.314 -2.448,-10.734 0.932,5.151 14.201,5.334 15.228,8.888 -3.447,1.352 -7.12,3.323 -7.614,7.026 -12.063,-2.659 -26.307,-10.501 -31.427,-17.374 -5.122,-6.874 -1.172,-11.155 3.709,-11.141 z m -71.166,13.809 c 0.997,4.276 -5.253,4.164 -7.436,3.021 0.056,-1.092 0.247,-2.356 0.18,-3.293 2.111,-1.4 6.122,-2.445 7.256,0.272 z"
            id="path4" />
         <path fill="#FEC10D"
            d="m 285.242,286.528 c 4.701,-5.404 8.859,-2.976 12.183,-0.917 5.087,4.174 10.517,7.21 16.604,8.086 -4.438,1.935 -8.9,1.716 -16.032,-1.134 7.392,5.888 7.828,8.713 10.965,12.455 -6.003,-2.564 -11.655,-6.058 -15.526,-10.943 1.537,3.602 1.521,6.858 1.834,10.188 -3.881,-5.071 -5.345,-9.816 -6.146,-14.825 -0.482,5.848 -3.193,6.272 -5.443,7.763 1.848,-3.767 -0.452,-8.149 1.561,-10.673 z m -3.056,-0.95 c 0.604,-1.222 0.779,-1.342 1.58,-2.051 -7.936,-3.522 -20.947,-0.751 -17.596,14.443 4.861,14.159 21.547,19.589 33.93,24.554 0.707,-0.697 1.717,-2.214 3.029,-2.71 -13.184,-5.339 -27.422,-8.942 -33.47,-22.447 -4.44,-12.272 8.208,-14.066 12.527,-11.789 z m 26.002,36.699 c 0.502,1.231 1.338,2.351 2.455,3.377 -2.437,0.555 -3.381,2.119 -4.604,3.685 -3.807,0.47 -4.534,-1.083 -8.137,-0.69 2.425,-3.139 6.11,-6.117 10.286,-6.372 z m 3.937,-8.972 c -0.857,6.008 5.809,8.434 8.88,12.118 -2.422,-0.35 -3.721,-0.533 -5.733,-0.235 -5.397,-1.742 -7.758,-8.302 -3.147,-11.883 z M 323,327.573 c -11.898,-2.128 -16.102,2.62 -13.225,9.024 1.339,-1.511 1.145,-4.491 3.857,-4.595 3.882,-0.15 6.089,0.027 9.368,-4.429 z m -39.296,56.918 c -3.313,3.591 -6.349,6.852 -10.981,12.093 -3.354,5.043 -8.009,10.979 1.65,19.232 4.867,3.347 10.268,6.326 13.172,10.981 -2.412,5.067 -5.387,10.664 -11.21,15.391 -8.821,-4.647 -17.265,-6.426 -16.326,1.57 0.163,1.83 1.228,2.924 2.351,2.348 2.912,-1.495 5.857,-2.191 7.619,-0.354 -1.612,0.399 -4.346,0.836 -5.653,2.357 -1.255,1.458 -2.177,2.633 0.735,5.683 6.991,6.527 4.779,-3.538 13.234,-5.899 -0.814,3.536 -6.329,8.84 0.588,10.164 5.715,1.137 3.303,-4.826 5.442,-7.385 5.284,2.612 6.12,0.298 9.543,0.571 3.161,-3.346 0.004,-5.697 -0.947,-7.777 -2.962,-2.817 -4.5,4.395 -8.399,4.198 4.838,-11.137 11.402,-18.194 20.052,-20.327 1.151,-1.557 0.343,-3.102 -0.539,-4.657 -4.409,-3.767 -4.149,-8.167 -3.448,-12.615 1.397,-7.61 -7.534,-22.571 -16.883,-25.574 z m 13.334,22.191 c -1.7,10.218 0.744,14.096 4.168,17.141 -9.331,-3.118 -12.5,-8.604 -4.168,-17.141 z m -88.864,4.183 c -1.76,2.599 -4.509,5.508 -6.949,7.768 3.796,0 8.875,-0.73 13.815,-0.076 -1.425,-3.084 -3.71,-5.65 -6.866,-7.692 z m -9.643,9.743 c 3.151,1.407 7.405,1.728 11.194,2.815 -4.298,0.792 -8.515,2.369 -15.37,0.365 z m -33.329,-41.311 c -1.496,5.197 -1.229,9.871 -0.768,15.364 -7.281,1.156 -14.599,1.971 -25.21,-1.313 -0.939,-0.05 -1.392,0.138 -1.765,0.824 4.652,2.252 8.896,9.414 6.111,13.509 -1.724,-1.838 -1.973,-4.823 -5.435,-6.702 -1.695,1.417 -1.984,2.953 -6.449,1.602 -5.076,-3.479 -1.793,-5.813 -2.615,-9.292 -3.663,1.331 -7.324,6.776 -10.986,3.296 -3.418,-6.998 3.402,-6.767 6.042,-9.339 -3.229,-0.957 -8.787,2.128 -8.515,-5.022 1.973,-7.131 7.141,-0.252 10.712,0.354 0.742,-4.317 -9.222,-4.271 -1.923,-9.611 4.89,-2.236 3.763,3.573 5.429,6.915 1.667,3.34 2.311,7.407 7.755,6.542 9.729,-0.848 19.687,-3.285 27.617,-7.127 z m 127.812,61.422 c -0.566,-1.133 2.226,-5.608 4.418,-5.456 2.402,0.167 6.756,4.806 6.756,4.806 -3.725,-0.454 -7.45,-0.925 -11.174,0.65 z m 6.496,-7.146 c 1.271,-0.937 2.951,-2.896 4.547,-3.508 2.76,1.751 2.34,2.974 3.248,4.417 -2.266,-1.081 -5.182,-0.865 -7.795,-0.909 z m -36.656,20.912 c 0.773,1.525 1.922,2.244 3.448,3.268 -1.644,0.616 -2.776,1.261 -3.79,2.76 -0.585,-2.362 -0.324,-3.793 0.342,-6.028 z m 13.007,4.74 c 0.984,0.782 2.476,1.596 4.369,1.618 -1.061,1.687 -1.16,2.375 -1.238,4.44 -1.414,-1.56 -3.721,-3.858 -3.131,-6.058 z m -17.756,-17.414 c -0.34,1.827 -0.674,1.923 0.117,3.75 -2.046,-0.951 -2.718,-0.988 -4.638,-0.691 1.812,-2.68 2.298,-2.405 4.521,-3.059 z m 31.894,12.496 c 0.804,-0.962 4.26,-1.441 4.396,-0.945 -0.117,1.814 -0.512,3.604 -2.127,5.292 -1.227,-1.449 -2.17,-2.897 -2.269,-4.347 z m 36.427,-125.815 c -0.088,0.84 -0.158,0.879 -1.422,3.22 9.465,4.163 14.793,6.544 22.463,12.174 12.84,11.259 -1.203,22.225 -15.156,16.487 -11.896,-5.019 -37.865,-15.556 -76.647,-8.186 0.769,1.904 1.426,2.278 2.879,4.689 -4.509,0.196 -8.39,-2.23 -11.119,-4.036 -1.044,2.468 0.155,4.347 0.679,6.798 -4.056,-0.083 -7.865,-2.271 -9.776,-5.688 -4.056,9.73 -10.454,16.895 -19.512,21.146 v -6.046 c -7.615,5.308 -10.979,11.688 -12.909,18.416 -3.356,-1.362 -5.442,-3.819 -7.142,-6.603 -0.325,2.629 -1.938,6.104 0.817,14.836 -3.324,0.708 -7.325,0.542 -10.41,-0.18 -1.912,9.457 -4.534,13.799 -12.044,20.214 -7.51,6.415 -7.043,13.825 -19.103,19.903 -5.469,1.063 -15.445,-4.345 -16.407,3.202 -0.426,2.471 1.477,4.18 3.157,2.854 2.718,-2.146 6.966,-2.415 9.476,-1.48 -2.315,1.331 -7.102,0.938 -8.797,4.233 -0.835,1.624 -1.734,2.95 0.283,6.028 9.047,5.211 6.4,-6.729 14.56,-9.347 1.258,4.561 -6.965,7.362 0.556,11.716 4.789,1.603 4.813,-4.946 6.585,-8.515 2.575,1.255 2.64,5.558 5.769,4.117 3.731,-0.764 2.304,-5.133 2.206,-8.791 4.859,-1.931 9.83,-3.339 14.005,-8.234 3.072,0.474 6.094,1.03 9.625,0.816 -3.089,-2.153 -5.169,-4.568 -6.128,-6.486 -5.254,3.392 -10.317,7.386 -15.279,7.582 15.828,-10.699 34.93,-24.734 34.595,-40.934 1.509,2.931 2.239,5.861 1.373,8.792 14.528,0.529 25.185,-7.506 36.54,-14.004 -10.902,10.83 -23.406,17.503 -37.161,16.21 -0.682,1.908 -1.888,3.885 -3.66,6.03 7.336,1.012 15.386,1.528 22.96,1.111 -1.494,-1.988 -2.295,-4.139 -1.651,-6.603 3.205,0.032 6.419,0.39 9.625,1.373 0,0 -2.511,-4.182 -3.709,-4.51 2.684,-1.104 18.926,-9.361 23.482,-13.139 17.647,-10.308 29.6,-7.637 35.443,1.716 20.998,40.982 22.912,28.265 42.635,39.136 4.444,7.576 9.451,15.417 -2.254,15.54 -12.568,-0.48 -12.513,2.479 -11.26,5.768 5.489,4.476 4.778,-3.509 11.814,-1.928 -2.338,2.346 -9.547,3.953 -3.481,9.281 6.433,5.374 6.148,-6.837 10.9,-9.82 0.175,3.973 -2.923,10.287 4.118,9.33 3.619,-0.791 2.434,-4.774 2.467,-7.958 1.107,-2.188 3.982,-1.219 7.615,-0.882 1.664,-10.875 -2.332,-12.419 -2.844,-18.955 2.273,0.65 6.344,-0.723 7.433,-3.073 -4.28,-1.264 -6.733,-1.288 -7.246,-4.559 2.187,-0.18 3.321,-2.96 3.792,-4.174 -1.371,-0.216 -3.001,1.013 -5.246,-0.291 0.271,-2.284 0.354,-3.142 0.354,-4.604 -16.279,2.864 -19.11,-9.499 -19.232,-22.255 0.76,-0.155 1.965,0.136 4.396,1.65 -1.562,-4.736 -4.123,-6.053 -5.476,-8.48 2.992,-1.032 4.29,0.664 5.638,0.931 -1.988,-4.854 -4.808,-6.131 -7.305,-7.843 0.572,15.274 -3.13,35.252 15.77,38.76 2.543,0.108 4.563,0.948 5.442,4.936 -1.069,5.572 -0.897,11.183 0.506,17.305 -5.013,-4.345 -6.207,-9.502 -3.317,-15.393 0.105,-1.901 -1.305,-2.476 -2.744,-3.022 -16.956,-5.588 -16.627,-12.73 -17.861,-20.604 -1.275,-8.142 1.839,-17.849 -2.373,-27.73 -0.474,-1.11 -0.049,-2.146 -0.059,-2.376 4.084,6.581 8.093,8.233 11.469,7.066 -2.495,-4.301 -5.402,-6.946 -8.188,-9.396 33.453,3.265 27.125,-18.563 18.662,-24.902 -7.769,-5.816 -14.182,-8.688 -23.171,-12.339 z m -37.509,41.914 c 8.819,-0.208 17.088,12.12 17.233,25.532 -13.008,-23.07 -10.646,-18.002 -18.101,-25.482 0.293,-0.029 0.577,-0.043 0.868,-0.05 z m -50.905,6.063 c 6.1,8.101 0.348,12.544 -5.159,15.484 3.058,-5.22 5.249,-7.984 5.159,-15.484 z m 7.453,0.277 c 3.293,2.225 3.389,11.517 -3.365,12.287 2.367,-3.663 3.539,-8.624 3.365,-12.287 z m -14.978,3.471 c 4.202,6.788 -0.232,12.42 -6.193,14.835 -0.183,-0.921 5.809,-8.336 6.193,-14.835 z m -86.363,16.733 c 2.655,0.632 5.07,0.827 8.045,1.142 -0.521,2.592 -0.239,5.36 0.437,9.149 -4.418,-3.205 -6.577,-6.939 -8.482,-10.291 z m 10.21,1.077 c 3.088,0.045 6.233,-0.021 9.536,-0.4 -0.97,1.302 -2.539,2.69 -3.022,4.943 -2.774,-1.073 -4.944,-2.267 -6.514,-4.543 z m 14.824,-1.048 c -1.997,0.353 -6.223,6.544 -5.792,7.2 2.247,0.356 4.015,-0.144 6.563,-0.688 0.36,-2.09 0.142,-4.425 -0.771,-6.512 z M 214.97,354.22 c -3.103,1.294 -4.75,4.488 -5.955,7.679 5.358,-2.446 4.684,-2.279 5.955,-7.679 z m 106.664,94.18 c 0.733,1.719 2.056,2.849 3.497,3.857 l -5.47,0.807 c 0.023,-2.19 0.756,-3.669 1.973,-4.664 z m 9.416,10.044 c 1.347,1.166 4.513,2.068 4.036,2.242 -0.988,0.359 -4.338,3.228 -4.036,3.228 -0.202,-1.891 -0.487,-3.809 0,-5.47 z m 14.977,0.179 c 1.408,0.156 2.592,-0.136 3.767,-0.447 l -1.076,4.215 c -1.432,-1.043 -2.452,-2.249 -2.691,-3.768 z m 7.476,-8.363 c 0.416,-1.059 2.172,-0.996 3.709,-1.115 0.458,1.491 0.829,2.991 -0.608,4.697 -0.95,-1.32 -1.963,-2.544 -3.101,-3.582 z M 140.035,437.668 c -0.351,1.71 0.082,2.444 0.447,3.918 -1.614,-0.369 -2.394,-0.04 -4.008,0.059 1.063,-2.152 1.307,-3.258 3.561,-3.977 z m 3.615,13.301 c 0.777,1.495 1.675,1.677 3.169,2.454 -1.276,0.538 -2.612,1.438 -4.126,2.689 -0.247,-1.997 -0.219,-4.093 0.957,-5.143 z m 15.724,3.411 c 1.734,0.417 2.633,1.076 4.606,0.775 l -1.588,3.859 c -1.659,-1.705 -2.793,-2.93 -3.018,-4.634 z m 12.077,-3.498 c 1.669,0.498 1.979,1.115 4.18,-0.906 0.275,2.221 -0.032,3.23 -1.667,5.212 z m 80.026,-124.544 c 0.424,5.805 0.121,10.042 4.608,16.412 -8.043,0.191 -7.065,-11.681 -4.608,-16.412 z m -4.773,9.873 c -8.125,4.481 -10.148,11.983 -2.642,18.742 -0.295,-2.781 -0.765,-5.57 1.918,-7.96 0.801,2.488 1.854,4.648 5.317,4.161 -2.942,-5.823 -3.611,-10.373 -4.593,-14.943 z m -51.712,-35.204 2.575,0.269 c -0.095,1.573 -0.065,3.253 -0.526,4.093 l -2.237,-0.254 z m 17.895,-17.056 c -5.025,-1.424 -3.861,3.396 -1.501,3.661 l 1.164,-1.344 c -0.264,-0.668 -0.108,-1.719 0.337,-2.317 z m 3.885,0.991 c 0.018,0.956 -0.098,2.298 -2.067,2.171 -0.432,0.492 -1.365,1.381 -2.617,3.104 4.924,0.946 6.428,-2.644 6.634,-4.654 z m -95.154,86.748 c 1.001,-1.396 2.003,-1.786 3.005,-2.312 -1.471,-1.051 -3.162,-1.224 -4.854,-1.387 z m -7.101,7.153 c -0.401,1.3 -1.24,2.093 -0.783,3.806 -1.965,-0.303 -2.571,-0.874 -3.41,-2.028 1.467,-1.284 2.438,-1.317 4.193,-1.778 z m 1.066,16.986 c 0.846,2.104 1.704,2.248 2.325,2.999 -1.42,0.537 -2.285,1.47 -4.547,0.957 0.175,-2.399 0.95,-2.651 2.222,-3.956 z m 13.141,7.967 c 0.93,1.229 1.23,1.47 3.492,2.033 -1.042,1.083 -1.807,2.783 -3.219,2.889 -0.639,-1.774 -1.354,-3.151 -0.273,-4.922 z M 240.693,274.651 c -6.045,0.905 -9.937,4.19 -13.318,8.056 0.738,-2.165 1.217,-3.881 -0.114,-6.046 -5.579,0.437 -11.789,0.074 -16.295,2.348 -1.504,0.896 -1.174,1.609 -0.667,2.505 1.856,-0.348 3.271,-0.397 4.615,0.1 0.562,1.657 2.778,2.519 4.85,1.937 2.9,7.085 -3.23,11.098 -8.562,8.438 -0.878,0.6 -1.894,1.021 -3.169,2.269 0.091,-2.207 0.712,-3.377 1.617,-4.564 -2.453,-1.131 -3.101,-4.446 -2.453,-8.827 -8.978,0.389 -13.75,1.624 -19.025,6.548 -0.532,0.89 -0.874,2.666 1.471,2.009 1.829,-1.571 3.645,-2.673 5.474,-3.349 0.796,0.313 2.355,-0.741 1.798,2.01 -7.261,1.688 -7.738,6.392 -3.187,11.26 2.313,0.517 5.434,0.641 6.585,0.098 1.056,-0.499 0.6,-1.075 0.588,-2.451 17.872,2.106 9.287,17.492 2.615,14.379 -0.244,-1.323 -0.57,-1.67 1.421,-1.943 1.752,0.581 1.035,-1.952 1.046,-2.843 -5.617,2.758 -9.201,-0.044 -12.942,-0.296 -1.32,3.178 -1.345,7.475 1.127,9.242 1.607,-0.617 3.096,-0.325 5.884,-0.287 9.439,-0.719 15.604,-3.822 16.456,-13.383 0.531,1.797 1.064,3.604 1.013,6.275 3.996,-1.151 7.944,-6.974 6.602,-17.583 4.168,2.134 7.99,13.129 -0.555,16.798 -8.545,3.669 -10.478,10.437 -18.924,10.522 -2.419,4.771 -7.365,7.54 -13.661,9.625 2.432,3.739 8.317,0.749 10.181,5.147 -19.387,-0.625 -17.988,7.114 -25.411,9.967 6.752,1.847 12.188,-2.614 17.469,-7.827 1.186,3.695 -0.506,7.384 -2.239,11.079 4.027,-0.325 7.527,-4.018 10.965,-8.17 -2.171,2.74 -3.95,6.624 -4.379,11.569 -4.579,1.354 -8.525,1.743 -12.207,0.85 l 0.604,-5.425 c -19.472,6.748 -11.89,20.635 -22.977,27.02 2.023,1.229 4.353,1.577 8.18,0.526 -2.933,7.167 -4.324,13.295 -2.852,20.462 l 3.514,-4.755 c -0.417,6.339 1.495,12.615 1.258,18.955 3.017,-3.759 2.565,-10.009 2.255,-15.441 4.5,3.013 5.183,9.841 4.756,17.778 l 5.376,-12.189 c -6.601,-2.71 -9.455,-8.597 -8.89,-17.37 l -3.726,0.212 2.826,-11.37 c -1.835,0.482 -3.67,1.018 -5.506,0.617 4.52,-16.452 13.205,-15.204 17.24,-16.16 -4.016,3.93 -9.776,7.261 -11.766,12.713 3.02,-1.083 6.049,-1.773 9.07,-4.314 -4.369,4.896 -5.423,9.404 -5.458,13.76 3.91,-4.487 6.759,-4.102 11.782,-10.131 -3.74,7.56 -7.839,13.067 -13.221,14.607 0.466,3.97 1.905,6.556 4.543,7.516 0.769,-9.339 6.959,-12.798 12.027,-16.226 -8.345,9.76 -11.42,16.979 -8.252,22.828 l 2.01,-7.435 c 0.724,2.521 3.285,4.652 6.749,6.078 0.396,-6.753 -2.523,-12.117 2.844,-19.102 1.551,4.374 2.786,6.57 4.886,9.297 2.21,-8.208 12.863,-9.334 13.433,-21.292 -1.876,1.21 -6.33,3.452 -9.919,11.995 -2.122,-13.26 2.775,-17.881 7.647,-22.534 l -15.638,10.524 c -1.25,-11.153 4.287,-18.478 13.204,-23.906 -1.126,4.238 -5.274,10.131 -9.625,16.128 7.813,-4.167 13.822,-10.131 18.351,-17.582 0.925,3.279 -1.533,8.427 -2.565,13.105 6.747,-2.786 10.432,-6.668 7.73,-16.13 -1.012,-5.768 2.627,-8.146 4.591,-11.747 -0.416,3.927 -2.033,7.513 -0.572,11.978 3.825,-11.611 11.25,-15.063 14.333,-23.628 6.389,10.161 11.229,18.067 17.256,17.697 -6.801,-10.316 -4.309,-16.356 -8.188,-19.298 -6.369,-4.832 -8.388,-7.73 -8.727,-13.399 4.892,8.581 11.158,9.571 14.771,8.285 -9.098,-6.799 -8.508,-13.157 -12.975,-15.671 -3.506,3.89 -6.549,5.898 -9.756,6.504 3.436,-0.659 1.428,-10.594 0.229,-11.324 -1.565,-0.956 -7.618,5.957 -7.942,5.262 3.292,-3.21 2.291,-6.416 11.422,-9.625 0.289,3.72 0.771,7.44 -0.049,11.16 6.263,-2.649 2.321,-12.476 1.048,-14.415 z m -6.046,25.638 c 7.234,6.965 6.63,10.207 -3.236,18.04 3.228,-5.772 5.501,-11.656 3.236,-18.04 z m -8.318,10.18 c 0.181,9.553 -5.852,21.261 -19.887,25.653 0.323,-9.091 5.265,-15.056 10.704,-18.17 -1.789,2.622 -4.756,6.782 -4.167,10.523 5.807,-2.218 9.76,-11.454 13.35,-18.006 z m 19.507,9.897 c -7.372,5.076 -6.979,12.19 -6.154,16.475 5.142,-3.972 8.932,-9.821 6.154,-16.475 z m -6.788,1.904 c -19.004,23.408 -6.379,33.867 -15.444,39.382 1.275,-5.075 0.153,-8.353 -0.596,-11.91 -2.107,4.604 -8.565,5.063 -0.396,19.452 11.772,-9.516 14.449,-19.181 13.888,-29.686 -0.336,-6.292 0.82,-11.212 2.548,-17.238 z"
            id="path52" />
      </g>
   </g>
</svg>
