<svg xmlns="http://www.w3.org/2000/svg" viewBox="0 0 800 400" height="100%" width="100%">
  <defs>
    <style>
      .cls-1 {
        fill: #29176d;
      }

      .cls-2 {
        fill: #f8c300;
      }

      .cls-3 {
        fill: #f6c315;
      }

      .cls-4 {
        fill: #2c276b;
      }
    </style>
  </defs>
  <g id="Layer_2" data-name="Layer 2">
    <g id="Layer_1-2" data-name="Layer 1">
      <g>
        <rect class="cls-1" width="800" height="200"/>
        <rect class="cls-2" y="200" width="800" height="200"/>
        <g id="g236">
          <g id="g238">
            <path id="path240" class="cls-3" d="M59,42.923c5.917-8.389,16.182-13.639,26.5-12.874,6.274.318,12.055,3.259,16.8,7.243,4.732-3.968,10.49-6.927,16.75-7.243a30.353,30.353,0,0,1,26.528,12.867c5.447-.391,11.316-.08,15.969,3.109a20.018,20.018,0,0,1,8.385,16.23,15.027,15.027,0,0,1-7.491,13.129c-2.358,1.542-5.851,2.63-6.12,5.926-1.149,8.643-1.16,17.414-1.518,26.123,2.1-1.918,3.955-5.05,7.158-5.036a9.9,9.9,0,0,1,9.012,8.351c.727,3.39-.805,6.689-2.841,9.306-5.438,7.33-10.552,14.9-16.061,22.161-2.043,2.866-5.744,2.609-8.8,2a31.623,31.623,0,0,1-18.514,18.227c-7.678,2.76-16.914,4.056-22.034,11.107h-.931c-4.373-6.8-13.073-8.085-20.182-10.48a32.122,32.122,0,0,1-20.358-18.908c-2.163.269-4.557,1-6.585-.179-2.155-1.238-3.436-3.465-4.883-5.407-4.851-7-10.036-13.758-14.815-20.8-3.729-5.6-.208-14.076,6.457-15.246,3.729-.97,6.113,2.656,8.365,4.939-.287-8.44-.437-16.9-1.359-25.307-.182-5.508-6.894-5.875-9.741-9.508-7.126-7.61-4.056-20.605,3.951-26.346C47.327,42.885,53.4,42.5,59,42.923m1.448,2.919c-4.056-.405-8.271-.692-12.2.6C39.287,49.26,34.2,61.4,39.534,69.421a11.857,11.857,0,0,0,16.612,3.038A7.8,7.8,0,0,0,58,62.049c-1.034-1.534-2.943-1.955-4.557-2.6,1.24,1.8,3.14,3.594,2.7,6a5.353,5.353,0,0,1-7.055,4.621C45.425,68.913,44.12,63.7,46.9,60.985A8.513,8.513,0,0,1,59.015,59.4c2.879,2.6,3.078,6.934,2.315,10.488-1.56,4.515-6.164,7.028-10.672,7.68C51.524,87,52.193,96.434,52.28,105.9c-.159,4.438-.819,9.425-4.2,12.653-1.99,1.965-4.9,2.258-7.516,2.663,4.318,5.892,8.543,11.855,12.8,17.791,1.067,1.429,2.378,3.186,4.391,3.036,2.361-.007,3.491-2.272,4.548-4.016,1.369,5.8,3.856,11.436,8.366,15.474a138.522,138.522,0,0,1,26.76-4.1c-1.735-5.544-5.137-10.34-8.064-15.3a47.092,47.092,0,0,1-7.388-18.537c-.47-2.512-.764-5.4-2.847-7.173-2.14-1.818-4.882-3.343-7.778-3.067-1.838.2-2.22,2.354-2.982,3.657.994,1.109,2.315,1.965,3.038,3.3.414,1.549-1.193,2.545-2.514,2.688-.469-1.32-3.156-3.661-.461-4.248-2.871-1.732-1.177-5.826,1.52-6.785,4.707-1.876,9.971.62,13.12,4.24-.588-9.248,5.048-16.947,7.872-25.343-1.8-2.491-3.547-5-5.185-7.6-3.712-.428-8.262.04-9.925,3.968,2.713-.414,4.453-3.619,7.373-2.934,2.512.915,4.111,3.427,4.826,5.925-1.63.859-3.022,2.223-4.8,2.775-1.719-.278-3.349-.884-5.05-1.233,1.8,2.662,6.091,1.043,7.539,3.858.08,3.181.136,6.644-1.948,9.273-1.32-.859-2.632-1.717-3.953-2.578-.405.159-1.217.485-1.622.653-.732-2.44-.645-5.252-2.346-7.285-2.918.508-.51,3.243-.04,4.868,1.186,2.471-.508,4.841-2.171,6.551-.293-.255-.873-.747-1.162-1-.929,1.36-1.931,2.663-2.983,3.926-1.629-1.594-2.138-3.987-3.888-5.465.676-3.287,2.25-6.235,3.588-9.267-1.576,1.154-2.068,3.26-3.579,4.415-2.092.554-4.208.992-6.3,1.516a23.667,23.667,0,0,0-1.081-4.754c.73-2.5.4-6.15,3.323-7.245,2.879-1.319,5.773.691,8.636,1.025-1.05-1.892-3.291-2.384-4.763-3.825-.978-1.558-.947-4.524,1.432-4.691.595-2.131,2.456-3.151,4.454-3.682.452,1.322.868,2.648,1.256,3.992.651-.262,1.3-.524,1.947-.787.175,1.463.327,2.934.477,4.405,1.963-3.317,5.638-4.589,9.3-4.8-3.594-5.273-9.279-8.318-14.846-11.077,4.644-.278,8.239,2.855,12.422,4.223-.748-1.9-1.575-3.771-2.274-5.678-.819-2.091-.294-4.39-.756-6.545-.82-2.169-2.8-3.579-4.309-5.247,1.8.7,3.841,1.343,4.9,3.109,3.069,4.278,1.247,10.433,5.392,14.155,1.247-5.591,1.39-11.619-.564-17.073,1.034,1.255,2.4,2.392,2.806,4.04a44.111,44.111,0,0,1-.255,13.534c-.644,4.454,2.013,8.452,4.566,11.833-.016-3.191-.772-6.41-.112-9.59.437-2.252,1.972-4.1,2.475-6.33.262-2.148.07-4.318.126-6.475a24.172,24.172,0,0,1,1.01,6.6c-.229,2.91-1.82,5.645-1.359,8.619a47.014,47.014,0,0,1,.214,11.189c2.308,2.641,4.5,5.448,7.453,7.413a70.316,70.316,0,0,0-1.224-8.995c-.493-3.092.311-6.178.954-9.184.787-3.633.684-7.409,1.624-11.021,1.294,5.137.47,10.371-.351,15.5-.779,4.484,1.114,8.691,2.608,12.794,2.162-2.021,4.12-4.255,6.069-6.48a46.87,46.87,0,0,1,.215-11.173c.468-3.006-1.153-5.766-1.368-8.707a26.2,26.2,0,0,1,1.017-6.623,64.617,64.617,0,0,0,.136,6.558c.5,2.212,2.012,4.049,2.456,6.276.679,3.205-.089,6.466-.112,9.685,2.531-3.42,5.233-7.427,4.574-11.9a43.959,43.959,0,0,1-.249-13.55c.408-1.632,1.767-2.751,2.8-3.991a27.2,27.2,0,0,0-.311,16.994,13.162,13.162,0,0,0,2.938-7.437c.3-4.261,2.5-8.874,7.082-9.763-1.416,1.542-3.114,2.878-4.1,4.754-.784,2.07-.093,4.384-.77,6.49s-1.644,4.136-2.449,6.218c4.2-1.35,7.8-4.515,12.455-4.214-5.591,2.728-11.274,5.8-14.878,11.077a15.283,15.283,0,0,1,8.024,2.807c-.447.4-.894.794-1.346,1.192-2.323-1.884-5.355-1.748-8.16-1.591-1.628,2.592-3.385,5.106-5.176,7.6,1.682,4.6,3.756,9.043,5.738,13.51a30.64,30.64,0,0,1,2.136,11.825c2.306-2.463,5.236-4.564,8.716-4.779,3.006-.6,6.918.931,7.4,4.285.548,1.353-.706,2.155-1.471,3.039,2.72.562.1,2.869-.43,4.134a2.36,2.36,0,0,1-2.609-2.576,25.785,25.785,0,0,1,3.1-3.31c-.73-1.535-1.47-3.937-3.647-3.7-4.319.269-8.948,3.279-9.5,7.864a51.67,51.67,0,0,1-4.6,15.333c-3.605,7.051-8.832,13.311-11.306,20.912a131.425,131.425,0,0,1,26.855,4.08c4.42-4.08,6.911-9.667,8.271-15.436.97,1.5,1.782,3.479,3.722,3.9,2.034.662,3.791-.908,4.865-2.459,4.4-6.066,8.7-12.205,13.143-18.24-2.606-.405-5.5-.692-7.491-2.641-3.387-3.214-4.063-8.2-4.22-12.645.086-9.469.755-18.923,1.614-28.356-3.16-.628-6.468-1.661-8.579-4.255-2.975-3.02-3.081-7.93-1.475-11.641,1.941-4.327,8.064-5.3,11.746-2.68,2.657,1.836,4.79,5.439,2.849,8.55-1.829,3.8-7.945,3.68-9.535-.264-1.535-2.885.413-5.75,2.3-7.856-1.628.645-3.555,1.041-4.606,2.583a7.8,7.8,0,0,0,1.853,10.482,11.868,11.868,0,0,0,16.3-2.68c5-6.8,1.853-16.992-4.732-21.558C155.36,45.024,149.4,45.327,144,45.788c-5.694-10.076-18.661-15.395-29.778-12.167-4.595,1.28-8.525,4.136-11.912,7.4-3.261-3.1-6.96-5.878-11.309-7.214C79.652,30.145,66.4,35.64,60.448,45.842m-11.1,15.945a3.486,3.486,0,0,0-.255,5.987,3.285,3.285,0,0,0,4.971-2.386c.5-2.5-2.417-4.866-4.716-3.6m103.2-.065c-2.634,1.018-2.746,5.24-.065,6.274,2.194,1.1,4.906-1.057,4.606-3.42a3.287,3.287,0,0,0-4.541-2.854M70.085,77.365a14.016,14.016,0,0,0,3.937,4.778c-2.068.722-4.158,1.377-6.186,2.212,1.661-.126,3.324-.341,4.971-.573A21.094,21.094,0,0,0,71.374,91a31.586,31.586,0,0,1,3.246-7.095q2.016,2.323,4.111,4.573l.311-.281c-1.448-1.852-3.093-3.689-3.561-6.066,1.477-.779,3.06-1.35,4.595-2-2.113.2-4.262.88-6.384.445a31.7,31.7,0,0,1-3.607-3.213m22.879,8.3a47.111,47.111,0,0,1-2.489,6.045,40.892,40.892,0,0,0-4.158,16.731c3.563-6.124,9.152-10.6,14.767-14.727-2.7-2.687-5.678-5.1-8.12-8.049m10.777,8.127c5.421,4.25,11.042,8.532,14.519,14.642a40.841,40.841,0,0,0-4.169-16.764,48.571,48.571,0,0,1-2.473-5.989c-2.279,3.048-5.659,5.065-7.877,8.111M87.113,117.111c-.1,10.657,7.482,19.022,13.541,27.007.034-1.951.055-3.889.1-5.833a21.609,21.609,0,0,0,3.135-3.677c0,3.172-.018,6.345.017,9.517a138.986,138.986,0,0,0,9.477-13.071,23.449,23.449,0,0,0-5.662-1.607c-.673-2.283-1.35-4.643-3.139-6.339-1.511,2.774,1.9,4.8,1.661,7.556a3.565,3.565,0,0,1-2.981,3.705c-.678,1.095-1.368,2.18-2.063,3.268-1.279-1.488-2.384-3.118-3.719-4.55.254-2.784.533-5.637,2.107-8.031-.255-.079-.755-.25-1.01-.328a19.209,19.209,0,0,1-1.448,3.722c-1.8.883-3.682,1.568-5.533,2.323a19.149,19.149,0,0,1-1.043-9.907c1.129-.908,2.173-2.269,3.763-2.238,1.781.112,3.529.491,5.3.648-1.137-1.481-2.988-2-4.469-3.042-.748-1.2-.676-2.709-.97-4.052.365-.018,1.1-.058,1.478-.072a6.022,6.022,0,0,1,3.507-4.342c.542,1.109,1.057,2.223,1.558,3.357.971-.072,1.941-.112,2.917-.161-1.008-.365-2.033-.658-3.076-.927.2-3.9.135-7.8.105-11.692-6.221,4.581-13.5,10.287-13.559,18.766m16.42-18.841c.175,2.768,3.984,2.564,4.438,5.226,1.685,4.639-1.808,8.6-3.739,12.455,2.076-1.153,3.442-3.955,6.076-3.794,2.162.77,3.633,2.767,4.667,4.739a39.665,39.665,0,0,0-3.085,3.357c-1.739-.126-3.482-.369-5.225-.5,2.179,1.847,5.44.741,7.515,2.807-.174.376-.519,1.128-.683,1.511a17.435,17.435,0,0,1,.191,6.786c1.334-3.16,2.96-6.26,3.489-9.689.827-4.642-.024-9.781-3.053-13.5a41.024,41.024,0,0,0-10.591-9.4m.543,3.332c-.341,4.463.175,9-1.044,13.379,1.488-2.555,3.482-5.154,3.206-8.279.037-1.949-1.116-3.571-2.162-5.1M36.447,114.684c.4,2.463,2.839,3.49,4.907,4.267-1.234-2.143-2.57-4.237-3.7-6.438,2.354-.476,5.273-.111,7.021-2.083,2.012-1.859.007-6.243-2.838-5.216a7.52,7.52,0,0,0-5.392,9.47m123.465-4.247c1.75,1.972,4.653,1.589,7.007,2.047-1.123,2.218-2.449,4.309-3.657,6.481,2.043-.794,4.469-1.818,4.867-4.263a7.523,7.523,0,0,0-5.411-9.5c-2.853-.992-4.825,3.392-2.806,5.233m-118.8,4.1a37.853,37.853,0,0,0,2.863,3.848c3.706-1.1,6.855-5.558,4.118-9.112a8.206,8.206,0,0,1-6.981,5.264m114.342-1.463c.536,2.752,2.953,4.4,5.369,5.4.863-1.331,1.712-2.648,2.576-3.961a7.733,7.733,0,0,1-6.785-5.179c-.379,1.237-1.754,2.389-1.16,3.74M98.848,114.8a19.7,19.7,0,0,0,4.074,3.89c-1.625.948-3.254,1.858-4.821,2.9,1.336-.4,2.663-.837,4-1.273a21.884,21.884,0,0,0-.356,6.679,45.136,45.136,0,0,1,1.884-6.672,42.385,42.385,0,0,0,4.84,4.087,35.275,35.275,0,0,1-4.506-5.813c1.327-.795,2.677-1.518,4.04-2.252-1.644.329-3.275.788-4.957.986-1.633-.3-2.779-1.73-4.2-2.528m34.5-44.84c2.074.635,3.957,1.788,4.4,4.08.462-.018,1.382-.041,1.854-.058-.123,1.464.337,3.118-.472,4.445-1.478,1.408-3.687,1.925-4.732,3.8,2.832-.341,5.7-2.33,8.555-1.057,2.992,1.065,2.664,4.739,3.4,7.261a23.378,23.378,0,0,0-1.082,4.756c-2.132-.517-4.277-.963-6.392-1.527-1.593-.971-1.45-3.881-3.729-3.825.777,1.256,1.628,2.465,2.469,3.675.359,1.7.867,3.359,1.328,5.027-1.715,1.5-2.251,3.854-3.858,5.458-1.055-1.261-2.058-2.564-2.989-3.927-.283.255-.849.757-1.135,1.01-1.668-1.693-3.382-4.056-2.2-6.534.471-1.626,2.91-4.463-.079-4.875-1.631,2.059-1.575,4.817-2.283,7.242-.412-.159-1.238-.47-1.654-.619q-1.969,1.276-3.919,2.57c-2.37-2.491-1.328-5.934-2.276-8.915,1.589-3.093,5.82-1.569,7.842-4.2a43.955,43.955,0,0,1-6.02,1.2,17.04,17.04,0,0,0-3.811-2.807c.7-2.473,2.3-4.938,4.771-5.869,2.467-.651,4.278,1.487,6.052,2.792.748-.493,1.5-.977,2.259-1.471.1-1.464.239-2.919.4-4.375.645.263,1.3.517,1.944.78.421-1.353.875-2.7,1.369-4.04m-2.42,10.6c-2.112.47-4.267-.231-6.382-.412a45.528,45.528,0,0,1,4.363,1.907c.024,2.6-2.367,4.51-3.569,6.7a44.444,44.444,0,0,0,4.674-4.842,35.821,35.821,0,0,1,3.207,7.095,21.177,21.177,0,0,0-1.446-7.214c1.638.224,3.282.43,4.943.517-2.026-.8-4.091-1.441-6.15-2.155a13.8,13.8,0,0,0,3.9-4.77,32.272,32.272,0,0,1-3.542,3.177M72.234,110.437c1.613.007,4.136.333,3.722,2.569-.191,1.9-2.308,1.568-3.675,1.8q-.048-2.185-.047-4.366m56.413,2.544c-.454-2.2,2.122-2.551,3.719-2.527-.011,1.464-.037,2.92-.086,4.381-1.353-.236-3.5.057-3.633-1.854m-52.08-1.83c1.072.409,2.777.051,3.4,1.27,1.312,1.7-1.273,4.277-2.976,2.941-.844-1.257-.309-2.817-.421-4.211m47.806,1.759c.386-1.661,2.395-1.389,3.654-1.757-.118,1.392.4,2.95-.429,4.206-1.571,1.158-3.771-.706-3.225-2.449m-61.309,1.229c1.011-1.718,3.945-2.841,4.669-.258,1.011,2.452-2.505,3.486-4.047,1.886-.47.867-.748,2.215-2,2.2-.828-.734-3.037-.973-2.417-2.474.131-1.977,2.416-2.038,3.8-1.352m75.06,2.367c-2.377-.611-1.524-4.331.751-4.166,1.232-.232,1.747,1.256,2.645,1.8,1.217-.4,2.967-.867,3.612.658,1.217,1.9-1.715,4.241-3.34,2.713-.222-.43-.676-1.3-.9-1.726-.929.215-1.764,1.242-2.767.723m-70.36-.375c1.542-.423,3.086-.82,4.644-1.185.143,1.368.779,3.515-1.146,3.974-1.893,1.011-2.853-1.483-3.5-2.789m5.376.089c.837-.254,1.679-.512,2.512-.758,1.418.812,3.2,1.965,1.479,3.533-2.075,1.645-3.912-.763-3.991-2.775m55.9-.891c.676.58,2.408.508,2.122,1.787.447,2.48-3.83,3.385-4.3.805-.8-1.343,1.593-1.7,2.18-2.592m3.154-.39q2.34.575,4.667,1.207c-.712,1.274-1.586,3.708-3.5,2.8-1.965-.455-1.327-2.6-1.17-4.011m-65.372,5.282c-.271-1.051-1.759-2.807-.286-3.476a25.993,25.993,0,0,1,2.822,3.172c-.637.072-1.911.222-2.536.3m68.411-.344c1.136-.77,1.829-3.476,3.572-2.76a14.337,14.337,0,0,1-1.051,3.136c-.627-.1-1.892-.278-2.521-.376m-77.359,1.94c-2.435-1.22-.271-5.136,2.1-3.79,2.632,1.382.468,5.483-2.1,3.79M61.9,118.59c1.48-.405,3.754-.351,3.729,1.725.177,2.306-2.5,2.433-4.1,1.876q.191-1.8.373-3.6m77.447.564c.795-1.328,2.408-.515,3.593-.515-.254,1.292.726,3.449-1.11,3.84-1.879.788-3.79-1.76-2.483-3.325m5.329-1.6c1.063.462,2.78.423,3.016,1.883a2.147,2.147,0,0,1-2.494,2.671c-1.341.1-1.413-1.654-2.1-2.433.384-.531,1.179-1.59,1.579-2.121M69.918,119.8c1.353-.279,2.7-.59,4.064-.866,0,2.037-.907,3.7-3,4.045-.264-.8-.8-2.38-1.06-3.179m56.413.041a41.625,41.625,0,0,1,4.374.365,3.679,3.679,0,0,1-2.266,2.211c2.133,0,1.772,2.061,1.969,3.572-.856-.255-1.712-.5-2.566-.751-.515-1.794-1.56-3.48-1.511-5.4m4.271-.9c1.36.269,2.7.58,4.066.859-.259.788-.767,2.355-1.02,3.143-2.162-.25-3-1.965-3.046-4m-63.9,4.379c-2.061-2.351,1.558-2.638,3.156-3,.818,2.042-1.042,4.788-3.156,3m7.147-3.114c1.5-.025,3.085-.638,4.557-.1a46.155,46.155,0,0,1-1.671,5.133c-.809.232-1.614.461-2.416.7.007-1.084.025-2.158.039-3.243.532.065,1.607.2,2.139.269a7.877,7.877,0,0,1-2.648-2.754m60.828.232c1.341.222,2.678.444,4.026.659-.362,1.338-1.139,3.442-2.954,2.64-1.484-.485-1.025-2.139-1.072-3.3m-73.4,2.821c1.623-.119,3.246-.239,4.868-.341-.374,1.3-.181,3.548-2.082,3.6-2,.412-2.434-1.854-2.786-3.263m9.09.3c1.3-.161,2.6-.322,3.895-.477-.627,1.579-1.176,3.722-3.221,2.208-.342,1.159-.707,2.316-1.074,3.476-1.01-.325-2-.706-2.966-1.12-.293-.948-.557-1.893-.788-2.859a17.034,17.034,0,0,1,5.464.082l-1.31-1.31m59.837-.487q2,.23,4,.476l-1.3,1.314a17.5,17.5,0,0,1,5.473-.075,3.86,3.86,0,0,1-3.759,3.984c-.362-1.157-.734-2.323-1.1-3.483-2.026,1.516-2.6-.706-3.31-2.216m8.209-.144c1.635.107,3.254.215,4.885.334-.358,1.416-.805,3.722-2.814,3.243-1.87-.069-1.7-2.3-2.071-3.577M72.487,127a2.178,2.178,0,0,1,2.768,2.8c-.4,1.958-3.84,2.013-4.151-.031A2.048,2.048,0,0,1,72.487,127m2.8-1.009c1.3.175,3.395.119,3.554,1.865.327,1.528-1.383,2.2-2.283,3.081-.421-1.656-.849-3.3-1.271-4.946m50.458,1.841c.221-1.668,2.068-1.93,3.435-1.686-.311,1.614-.726,3.2-1.105,4.8-.931-.871-2.681-1.54-2.33-3.11m4.689-.739c1.331-.624,3.436.344,3.142,1.982.233,1.757-2.148,2.87-3.465,1.805a2.233,2.233,0,0,1,.323-3.787m-63.093,5.137c-1.716-.468-1.161-2.439-1.208-3.736,1.567.276,3.142.573,4.709.89-.606,1.417-1.455,3.826-3.5,2.846m66.44-2.924c1.5-.25,2.992-.536,4.509-.669,1.185,2.3-.765,3.776-2.878,4.152q-.859-1.719-1.631-3.483m-62.852,1.9c1.036.365,2.061.723,3.086,1.095-.557,1.034-.541,2.753-2,2.968-1.479.59-2.22-1.1-3.118-1.883.508-.548,1.527-1.64,2.028-2.18m2.926,3.729c.667-1.177.3-3.7,2.258-3.469,2.05-.2,3.165,2.842,1.352,3.906-.987,1.153-2.465-.3-3.61-.437m52.789,0a2.19,2.19,0,0,1,1.787-3.483c1.975-.221,1.638,2.259,2.29,3.466-1.242.477-3.141,1.589-4.077.017m3.958-2.594c1.016-.429,2.033-.866,3.046-1.3.669,1.249,2.852,2.807.777,3.859-1.93,1.512-3.633-.727-3.823-2.556Z"/>
            <path id="path242" class="cls-4" d="M60.448,45.842c5.956-10.2,19.2-15.7,30.544-12.032,4.349,1.337,8.049,4.111,11.31,7.213,3.386-3.27,7.316-6.124,11.911-7.4,11.118-3.229,24.084,2.091,29.778,12.167,5.4-.461,11.367-.763,16.05,2.466,6.585,4.564,9.732,14.759,4.732,21.559a11.865,11.865,0,0,1-16.3,2.679,7.8,7.8,0,0,1-1.853-10.481c1.051-1.543,2.978-1.941,4.605-2.584-1.886,2.107-3.833,4.971-2.3,7.857,1.589,3.943,7.706,4.066,9.535.263,1.94-3.109-.191-6.712-2.849-8.549-3.68-2.617-9.8-1.647-11.746,2.679-1.607,3.712-1.5,8.621,1.474,11.641,2.112,2.594,5.422,3.628,8.579,4.255-.859,9.433-1.528,18.888-1.613,28.356.157,4.449.833,9.432,4.219,12.646,1.99,1.947,4.886,2.233,7.492,2.64-4.446,6.035-8.747,12.176-13.144,18.24-1.074,1.553-2.831,3.121-4.864,2.459-1.94-.419-2.753-2.4-3.722-3.9-1.361,5.769-3.851,11.357-8.272,15.437a131.278,131.278,0,0,0-26.854-4.08c2.473-7.6,7.7-13.862,11.306-20.913a51.727,51.727,0,0,0,4.595-15.333c.552-4.585,5.182-7.594,9.5-7.863,2.176-.233,2.917,2.169,3.647,3.7a25.438,25.438,0,0,0-3.1,3.31,2.361,2.361,0,0,0,2.609,2.576c.533-1.266,3.149-3.572.43-4.134.765-.884,2.019-1.685,1.47-3.039-.477-3.354-4.391-4.889-7.4-4.284-3.479.214-6.41,2.316-8.715,4.778-.093-4.015-.484-8.113-2.137-11.824-1.982-4.47-4.055-8.908-5.737-13.51,1.79-2.491,3.547-5,5.175-7.6,2.8-.159,5.837-.294,8.16,1.591.454-.4.9-.8,1.347-1.193a15.292,15.292,0,0,0-8.024-2.807c3.6-5.273,9.285-8.35,14.878-11.077-4.66-.3-8.253,2.863-12.456,4.215.806-2.082,1.761-4.1,2.449-6.218s-.014-4.421.77-6.491c.989-1.876,2.689-3.21,4.105-4.754-4.585.891-6.779,5.5-7.082,9.764a13.158,13.158,0,0,1-2.938,7.437,27.178,27.178,0,0,1,.311-16.995c-1.034,1.24-2.392,2.362-2.8,3.991a43.9,43.9,0,0,0,.25,13.55c.658,4.477-2.044,8.485-4.575,11.905.025-3.219.792-6.48.112-9.685-.443-2.225-1.954-4.064-2.455-6.275a64.649,64.649,0,0,1-.137-6.559,26.158,26.158,0,0,0-1.016,6.623c.215,2.942,1.835,5.7,1.367,8.707a46.924,46.924,0,0,0-.215,11.173,88.274,88.274,0,0,1-6.069,6.48c-1.493-4.1-3.387-8.31-2.608-12.794.821-5.129,1.646-10.362.351-15.5-.939,3.612-.836,7.388-1.624,11.021-.643,3.008-1.446,6.094-.954,9.184a70.189,70.189,0,0,1,1.225,9c-2.95-1.965-5.146-4.772-7.453-7.413a46.852,46.852,0,0,0-.215-11.188c-.461-2.973,1.13-5.71,1.359-8.62a24.153,24.153,0,0,0-1.01-6.6c-.055,2.155.137,4.324-.125,6.474-.5,2.234-2.037,4.079-2.475,6.33-.66,3.181.1,6.4.112,9.591-2.554-3.382-5.211-7.38-4.566-11.834a44.173,44.173,0,0,0,.255-13.534c-.405-1.647-1.773-2.784-2.807-4.04,1.956,5.455,1.813,11.482.564,17.073-4.144-3.722-2.323-9.877-5.392-14.154-1.058-1.766-3.1-2.411-4.9-3.109,1.511,1.669,3.492,3.077,4.309,5.246.463,2.156-.063,4.454.756,6.545.7,1.909,1.529,3.778,2.275,5.678-4.184-1.367-7.778-4.5-12.422-4.223,5.566,2.76,11.251,5.806,14.846,11.077-3.658.215-7.332,1.486-9.3,4.8-.152-1.471-.3-2.943-.476-4.405-.652.262-1.3.524-1.948.788-.389-1.345-.8-2.671-1.256-3.993-2,.533-3.856,1.551-4.454,3.682-2.377.168-2.41,3.132-1.432,4.691,1.473,1.441,3.713,1.934,4.763,3.825-2.863-.331-5.757-2.344-8.635-1.025-2.927,1.1-2.594,4.749-3.324,7.245a23.33,23.33,0,0,1,1.081,4.754c2.1-.524,4.215-.962,6.306-1.516,1.51-1.154,2-3.261,3.578-4.415-1.338,3.03-2.911,5.98-3.587,9.267C67.357,98.01,67.865,100.4,69.5,102c1.051-1.262,2.052-2.565,2.983-3.927.288.255.868.749,1.161,1,1.663-1.71,3.357-4.08,2.171-6.552-.469-1.624-2.876-4.359.041-4.868,1.7,2.033,1.614,4.844,2.345,7.285.406-.167,1.218-.494,1.623-.653l3.953,2.578c2.083-2.628,2.027-6.09,1.947-9.273-1.448-2.815-5.734-1.2-7.538-3.858,1.7.35,3.33.956,5.049,1.233,1.782-.55,3.172-1.916,4.8-2.775-.714-2.5-2.314-5.009-4.826-5.925-2.918-.684-4.66,2.521-7.372,2.935,1.663-3.928,6.211-4.4,9.924-3.969,1.639,2.594,3.389,5.106,5.186,7.6-2.824,8.4-8.462,16.1-7.872,25.344-3.149-3.619-8.414-6.117-13.121-4.241-2.7.959-4.391,5.053-1.519,6.786-2.7.586-.009,2.927.461,4.247,1.32-.143,2.927-1.138,2.513-2.688-.723-1.338-2.043-2.193-3.037-3.3.763-1.3,1.144-3.458,2.981-3.657,2.9-.276,5.638,1.249,7.778,3.067,2.084,1.778,2.377,4.664,2.847,7.173a47.1,47.1,0,0,0,7.388,18.537c2.928,4.964,6.33,9.76,8.064,15.3a138.557,138.557,0,0,0-26.76,4.1c-4.509-4.04-7-9.678-8.366-15.473-1.056,1.743-2.187,4.008-4.548,4.015-2.01.151-3.324-1.607-4.391-3.035-4.26-5.935-8.485-11.9-12.8-17.791,2.619-.406,5.528-.7,7.516-2.664,3.38-3.228,4.04-8.214,4.2-12.652-.087-9.462-.756-18.9-1.623-28.327,4.51-.651,9.114-3.165,10.672-7.68.763-3.554.564-7.889-2.314-10.488A8.514,8.514,0,0,0,46.9,60.983c-2.784,2.711-1.479,7.928,2.187,9.09a5.353,5.353,0,0,0,7.054-4.622c.437-2.408-1.463-4.206-2.7-6,1.614.645,3.523,1.066,4.557,2.6a7.8,7.8,0,0,1-1.853,10.41A11.856,11.856,0,0,1,39.53,69.419c-5.337-8.025-.246-20.159,8.716-22.974,3.931-1.3,8.146-1.008,12.2-.6m72.9,24.121c-.5,1.336-.949,2.688-1.368,4.04-.648-.262-1.3-.516-1.944-.781-.157,1.455-.3,2.911-.4,4.375-.759.494-1.511.978-2.259,1.471-1.774-1.3-3.586-3.443-6.052-2.791-2.473.931-4.073,3.395-4.772,5.868a17.046,17.046,0,0,1,3.812,2.807,44.38,44.38,0,0,0,6.02-1.2c-2.022,2.633-6.253,1.108-7.842,4.2.948,2.98-.1,6.424,2.276,8.915q1.955-1.29,3.919-2.57c.416.151,1.242.462,1.654.619.706-2.426.652-5.184,2.283-7.242,2.988.413.548,3.249.078,4.875-1.177,2.479.537,4.842,2.2,6.534.286-.255.852-.754,1.135-1.009.931,1.36,1.934,2.663,2.988,3.926,1.607-1.6,2.144-3.956,3.859-5.458-.461-1.668-.97-3.324-1.328-5.027-.842-1.209-1.692-2.419-2.469-3.675,2.279-.054,2.136,2.856,3.729,3.825,2.115.564,4.26,1.01,6.392,1.527a23.51,23.51,0,0,1,1.081-4.756c-.733-2.522-.405-6.2-3.4-7.261-2.852-1.273-5.723.716-8.555,1.057,1.045-1.876,3.254-2.393,4.732-3.8.809-1.329.347-2.981.471-4.445-.471.016-1.392.04-1.853.058-.442-2.292-2.324-3.446-4.4-4.08M72.234,110.437q0,2.186.047,4.366c1.367-.228,3.483.107,3.675-1.8.412-2.234-2.11-2.562-3.722-2.569m56.413,2.545c.137,1.91,2.28,1.617,3.633,1.853.048-1.46.076-2.917.086-4.381-1.6-.024-4.173.325-3.719,2.528m-52.08-1.831c.112,1.4-.421,2.954.421,4.21,1.7,1.338,4.288-1.246,2.976-2.942-.622-1.217-2.325-.859-3.4-1.268m47.807,1.759c-.547,1.743,1.654,3.605,3.224,2.449.826-1.256.311-2.814.429-4.206-1.259.369-3.269.1-3.653,1.757m-61.31,1.23c-1.383-.687-3.666-.624-3.8,1.35-.62,1.5,1.59,1.739,2.418,2.473,1.257.017,1.535-1.331,2-2.2,1.542,1.6,5.058.566,4.047-1.887-.723-2.581-3.657-1.46-4.667.261m75.061,2.366c1,.519,1.839-.508,2.766-.723.226.43.68,1.3.9,1.726,1.625,1.528,4.557-.812,3.34-2.713-.645-1.524-2.4-1.056-3.612-.658-.9-.543-1.413-2.03-2.644-1.8-2.276-.166-3.13,3.554-.751,4.165m-70.361-.375c.645,1.306,1.607,3.8,3.5,2.791,1.924-.461,1.289-2.606,1.145-3.974-1.558.364-3.1.76-4.644,1.183m5.376.089c.079,2.012,1.918,4.421,3.993,2.777,1.724-1.568-.063-2.723-1.479-3.533-.835.244-1.679.5-2.514.756m55.9-.891c-.587.891-2.981,1.249-2.18,2.592.472,2.58,4.749,1.675,4.3-.805.285-1.279-1.448-1.207-2.122-1.787m3.154-.389c-.157,1.413-.794,3.554,1.171,4.012,1.91.9,2.784-1.532,3.5-2.8-1.549-.419-3.107-.826-4.667-1.208m-65.372,5.281c.627-.082,1.9-.232,2.536-.3a25.984,25.984,0,0,0-2.822-3.171c-1.473.669.016,2.424.286,3.475m68.411-.344c.628.1,1.894.28,2.521.376a14.328,14.328,0,0,0,1.051-3.135c-1.743-.718-2.434,1.987-3.572,2.759m-77.359,1.941c2.568,1.692,4.732-2.409,2.1-3.79-2.37-1.347-4.534,2.569-2.1,3.79M61.9,118.59c-.119,1.2-.247,2.4-.374,3.6,1.6.556,4.279.43,4.1-1.876.024-2.078-2.252-2.132-3.729-1.727m77.446.564c-1.306,1.565.6,4.113,2.484,3.326,1.835-.393.855-2.549,1.109-3.841-1.184,0-2.8-.812-3.593.515m5.329-1.6c-.4.533-1.195,1.589-1.579,2.122.69.777.761,2.534,2.1,2.433a2.146,2.146,0,0,0,2.494-2.671c-.236-1.462-1.952-1.425-3.016-1.884M69.918,119.8c.264.8.8,2.384,1.058,3.179,2.1-.341,3-2.009,3-4.046-1.357.276-2.709.587-4.062.867m56.414.04c-.048,1.918,1,3.6,1.51,5.4.853.25,1.71.494,2.566.751-.2-1.511.164-3.572-1.968-3.572a3.678,3.678,0,0,0,2.265-2.211,41.629,41.629,0,0,0-4.373-.365m4.27-.9c.04,2.037.884,3.752,3.046,4,.253-.788.762-2.355,1.02-3.142-1.361-.28-2.705-.591-4.066-.86m-63.894,4.379c2.115,1.783,3.975-.962,3.156-3-1.6.367-5.217.653-3.156,3m7.147-3.114A7.856,7.856,0,0,0,76.5,122.96c-.533-.068-1.607-.2-2.14-.269-.014,1.085-.032,2.159-.039,3.244.8-.24,1.607-.469,2.416-.7a46.858,46.858,0,0,0,1.672-5.133c-1.473-.537-3.054.076-4.557.1m60.827.232c.047,1.16-.412,2.814,1.071,3.3,1.814.8,2.592-1.3,2.953-2.641-1.346-.215-2.683-.437-4.024-.659m-73.4,2.821c.352,1.409.788,3.675,2.785,3.261,1.9-.054,1.709-2.3,2.082-3.6-1.623.1-3.244.223-4.867.342m9.09.3,1.312,1.31a17.034,17.034,0,0,0-5.464-.082c.231.966.494,1.911.788,2.859.969.412,1.956.8,2.966,1.12.366-1.16.731-2.316,1.074-3.476,2.043,1.514,2.593-.627,3.22-2.208-1.3.157-2.6.316-3.9.477m59.837-.487c.713,1.51,1.282,3.732,3.31,2.218.368,1.159.74,2.326,1.1,3.482a3.859,3.859,0,0,0,3.759-3.984,17.53,17.53,0,0,0-5.473.076l1.3-1.314c-1.332-.168-2.67-.325-4-.478m8.209-.144c.368,1.282.2,3.508,2.071,3.579,2.009.477,2.456-1.829,2.814-3.243-1.631-.121-3.252-.231-4.885-.336M72.487,127a2.048,2.048,0,0,0-1.383,2.767c.311,2.044,3.753,1.989,4.151.031a2.178,2.178,0,0,0-2.768-2.8m2.8-1.009c.422,1.643.85,3.292,1.273,4.946.9-.877,2.608-1.552,2.283-3.081-.161-1.746-2.26-1.692-3.556-1.865m50.458,1.841c-.352,1.568,1.4,2.237,2.329,3.111.38-1.6.795-3.183,1.106-4.8-1.369-.244-3.214.018-3.435,1.686m4.689-.739a2.233,2.233,0,0,0-.325,3.787c1.317,1.063,3.7-.048,3.466-1.805.3-1.638-1.81-2.607-3.141-1.982m-63.093,5.137c2.044.98,2.9-1.429,3.5-2.845-1.567-.318-3.142-.615-4.709-.891.049,1.3-.507,3.268,1.21,3.736m66.44-2.924q.767,1.766,1.631,3.483c2.115-.376,4.063-1.853,2.878-4.152-1.517.134-3.011.421-4.509.669m-62.852,1.9c-.5.54-1.52,1.632-2.028,2.18.9.784,1.638,2.473,3.118,1.883,1.455-.215,1.439-1.934,2-2.968-1.027-.372-2.052-.73-3.086-1.095m2.926,3.729c1.145.137,2.623,1.59,3.61.437,1.813-1.064.7-4.108-1.352-3.906-1.955-.235-1.59,2.292-2.258,3.469m52.789,0c.934,1.572,2.835.461,4.077-.017-.652-1.207-.315-3.687-2.29-3.465a2.189,2.189,0,0,0-1.787,3.482m3.958-2.593c.19,1.828,1.893,4.066,3.823,2.555,2.075-1.052-.11-2.61-.777-3.858-1.013.436-2.03.873-3.046,1.3M49.346,61.787c2.3-1.265,5.217,1.105,4.716,3.6a3.285,3.285,0,0,1-4.971,2.386,3.486,3.486,0,0,1,.255-5.987m103.2-.065a3.287,3.287,0,0,1,4.541,2.856c.3,2.361-2.412,4.517-4.606,3.42-2.683-1.034-2.569-5.258.065-6.276M70.085,77.365a32.036,32.036,0,0,0,3.6,3.214c2.122.434,4.27-.249,6.383-.446-1.533.652-3.117,1.223-4.595,2,.47,2.375,2.114,4.214,3.561,6.066l-.31.281q-2.1-2.243-4.112-4.573A31.587,31.587,0,0,0,71.371,91,21.14,21.14,0,0,1,72.8,83.782c-1.647.232-3.31.447-4.971.573,2.028-.835,4.12-1.49,6.187-2.212a14.057,14.057,0,0,1-3.934-4.778m60.842,3.2a31.551,31.551,0,0,0,3.54-3.181,13.8,13.8,0,0,1-3.9,4.77c2.061.715,4.124,1.361,6.15,2.156-1.661-.088-3.306-.294-4.943-.517A21.147,21.147,0,0,1,133.218,91a35.835,35.835,0,0,0-3.206-7.094,44.251,44.251,0,0,1-4.674,4.841c1.2-2.187,3.592-4.1,3.568-6.7a46.187,46.187,0,0,0-4.363-1.908c2.115.187,4.272.886,6.384.416m-37.963,5.1c2.44,2.95,5.416,5.361,8.118,8.047-5.613,4.129-11.2,8.6-14.767,14.727a40.916,40.916,0,0,1,4.159-16.73,46.9,46.9,0,0,0,2.49-6.044m10.777,8.127c2.218-3.044,5.6-5.061,7.877-8.111a48.571,48.571,0,0,0,2.473,5.989,40.864,40.864,0,0,1,4.169,16.764c-3.477-6.109-9.1-10.394-14.519-14.642M87.113,117.111c.063-8.478,7.339-14.185,13.559-18.768.031,3.9.1,7.792-.105,11.692,1.043.269,2.068.563,3.076.928-.976.047-1.946.089-2.917.16-.5-1.132-1.018-2.248-1.558-3.357a6.023,6.023,0,0,0-3.507,4.342c-.374.014-1.113.054-1.478.072.294,1.345.222,2.849.97,4.052,1.479,1.045,3.332,1.563,4.469,3.043-1.773-.158-3.523-.537-5.3-.648-1.592-.032-2.634,1.331-3.763,2.237a19.147,19.147,0,0,0,1.043,9.907c1.853-.755,3.738-1.439,5.533-2.323a19.173,19.173,0,0,0,1.448-3.722c.255.078.757.25,1.01.328-1.574,2.395-1.853,5.247-2.107,8.031,1.335,1.432,2.44,3.064,3.719,4.55.693-1.088,1.385-2.173,2.063-3.268a3.563,3.563,0,0,0,2.981-3.7c.236-2.753-3.172-4.783-1.661-7.556,1.787,1.7,2.466,4.055,3.139,6.338a23.449,23.449,0,0,1,5.662,1.607,138.254,138.254,0,0,1-9.477,13.072c-.035-3.172-.017-6.346-.017-9.518a21.609,21.609,0,0,1-3.135,3.677c-.048,1.944-.07,3.883-.1,5.834-6.059-7.986-13.64-16.35-13.542-27.006m16.42-18.841a41.072,41.072,0,0,1,10.591,9.393c3.029,3.722,3.88,8.859,3.053,13.5-.529,3.429-2.155,6.529-3.489,9.689a17.513,17.513,0,0,0-.191-6.786c.165-.382.509-1.135.683-1.511-2.075-2.068-5.336-.962-7.515-2.806,1.743.132,3.486.375,5.225.5a39.486,39.486,0,0,1,3.085-3.357c-1.034-1.972-2.5-3.967-4.667-4.739-2.634-.16-4,2.641-6.076,3.794,1.93-3.858,5.423-7.816,3.739-12.455-.454-2.66-4.263-2.456-4.438-5.224m.543,3.332c1.048,1.529,2.2,3.153,2.162,5.1.276,3.124-1.718,5.723-3.206,8.278,1.217-4.377.7-8.918,1.044-13.379M36.447,114.685a7.521,7.521,0,0,1,5.392-9.471c2.845-1.027,4.851,3.357,2.838,5.216-1.748,1.972-4.667,1.607-7.021,2.084,1.128,2.2,2.465,4.294,3.7,6.438-2.067-.778-4.508-1.8-4.907-4.267m123.465-4.248c-2.019-1.843-.047-6.225,2.807-5.233a7.526,7.526,0,0,1,5.411,9.5c-.4,2.445-2.825,3.469-4.868,4.263,1.207-2.172,2.534-4.263,3.657-6.481-2.354-.456-5.257-.075-7.007-2.047m-118.8,4.1A8.2,8.2,0,0,0,48.1,109.27c2.737,3.554-.412,8.014-4.118,9.112a37.853,37.853,0,0,1-2.863-3.848m114.342-1.463c-.594-1.35.781-2.5,1.16-3.74a7.73,7.73,0,0,0,6.785,5.179c-.863,1.313-1.711,2.63-2.576,3.961-2.416-1-4.835-2.648-5.369-5.4M98.849,114.8c1.416.8,2.562,2.227,4.195,2.528,1.682-.2,3.311-.659,4.957-.985-1.361.733-2.713,1.456-4.04,2.251a35.246,35.246,0,0,0,4.506,5.813,42.385,42.385,0,0,1-4.84-4.087A45.136,45.136,0,0,0,101.743,127a21.884,21.884,0,0,1,.356-6.679c-1.334.436-2.662.873-4,1.273,1.565-1.038,3.2-1.948,4.821-2.9a19.67,19.67,0,0,1-4.073-3.89Z"/>
          </g>
          <rect id="rect244" class="cls-4" x="55.356" y="110.683" width="25.338" height="25.459"/>
          <rect id="rect246" class="cls-4" x="124.094" y="111.521" width="24.446" height="26.096"/>
          <rect id="rect248" class="cls-4" x="126.017" y="110.425" width="6.868" height="3.984"/>
          <rect id="rect250" class="cls-4" x="136.32" y="110.701" width="1.235" height="1.783"/>
          <path id="path252" class="cls-3" d="M73.792,110.332c.246-.355,2.214.887,2.034,1.928,1.057,2.28-3.4,4.384-3.741,1.682,1.066-.91-1.217-3.823.769-3.5-1.689,1.138,1.067.756.938-.114m-5.275.334c1.712-1.16,4.008,1.778,2.475,3.306-.5.692-2.564,1.327-2.52-.032a2.284,2.284,0,0,0-1.181-1.654c-.426-.651.5-1.255,1.015-1.507.134,1.1,1.891-.361.211-.113m8.845,1.18c.7-1.173,3.06.755,2.286,2.012.253,1.794-2.452,2.449-3.373,1.061.474-.945.133-2.406.785-3.074-.5,1.8,2.848-.636.3,0m-12.646.662c2.678-1.449,4.342,3.347,1.705,4.009-2.559,1.268-4.08-3.2-1.705-4.009M65,112.8c-.618-.044-1.512,1.36-.487.924.868-.914,3.794-1.143.487-.924m-4.532.842c.639-.116,2.966-.472,2.333.958-.592,1.225,1.555,2.453-.078,3.293-3,1.926-4.941-3.092-2.255-4.252m.271.29c-.619.187-1.1.627-.954,1.328.471-.409,2.7-1.771.954-1.328m10.238,1.181c1.684-.433,2.279,2.589.826,3.357-1.249,1.45-4.16,0-3.631-1.89.128-1.4,1.937-.73,2.8-1.467m4.236.273c1.009-.035,3.427,1.116,2.447,2.433a2.2,2.2,0,0,1-4.183.181c-.849-1.6.719-2.1,1.736-2.614m-8.255,1.958c.961.805,3.2,3.571-.019,3.009-.108-1.289-3.023-3.336.019-3.009m-7.685,4.684c-2.347.19-2.845-3.743-.569-3.947a11.23,11.23,0,0,0-.959,1.119,15.735,15.735,0,0,0,2.127-1.041c2.3.329,1.574,4.155-.6,3.869m4.328-3.523c1.328-.611,2.517,1.275,2.164,2.437.229,2.391-5.112,3-3.839-.123-.543-1.514.741-1.834,1.675-2.314m9.322.3c1.577.341,1.226,2.971-.285,3.626-1.863,1.174-1.635-1.409-2.288-2.354a5.986,5.986,0,0,0,2.573-1.272m4.539.83c1.576-.351.9,3.514-.466,3.077-.805-.726-3-.328-2.265-1.814-.034-1.417,1.862-.655,2.731-1.263m-7.837.849c1.478,1.282.1,4.185-1.891,3.572-.9.014-1.485-1.157-1.4-1.969.262-1.5,2.318-.774,3.294-1.6m3.595,2.559c1.5-.781.934,2.115-.021,2.5-1.345.894-2.038-1.18-2.685-1.993a5.054,5.054,0,0,0,2.706-.511m1.292-.144c.278.692.727.337,1.174.028a2.746,2.746,0,0,1,1.366,2.449c-.975.107-1.824.741-2.824.662a3.764,3.764,0,0,0,.284-3.139m-9.5.423c1.687-.637,1.422,2.641,0,2.81-1.743,1.214-4.3-.611-3.156-2.623,1.06-.04,2.19.374,3.161-.187m4.78,1.16c2.46.576,1.017,4.861-1.465,4.094-1.561-.3-2.36-2.531-1.071-3.593a11.842,11.842,0,0,0,2.536-.5m6.229,1.863c2.728-.908,3.682,2.832,1.539,3.831-1.717.766-.765-1.862-1.611-2.73-.183-.367-.435-.868.072-1.1m-3.38.337c1.927-.422,3.918,2.269,2.542,3.962-1.235,1.221-4.566,1.435-4.159-1.184a2.579,2.579,0,0,1,1.617-2.778M66.384,128.6c1.347-.025,2.353,1.259,3.839.611.87,1.621-.894,3.9-2.749,3.032-1.7-.314-1.605-2.361-1.09-3.643m4.7,3.165c.931.69,3.324.269,2.571,2.139a2.944,2.944,0,0,1-4.2.287c-.624-1.4.875-1.771,1.626-2.426m3.8-.051c2.165-1.106,4.429,1.535,2.707,3.311-.807,1.553-4.391.83-3.366-1.074.315-.73.063-1.657.659-2.237"/>
          <path id="path254" class="cls-3" d="M130.2,110.512a2.793,2.793,0,0,1,2.709.529c-.751,1.249.205,3.022-1.207,3.869-3.1,1.436-4.05-3.432-1.5-4.4m.262.3c-.454.4-1.126.669-1.273,1.31.779-.358,3.474-1.822,1.273-1.31m3.988-.29a2.44,2.44,0,0,1,3.009,1.6,5.364,5.364,0,0,0-1.488,2.807c-2.623.819-4.087-3.656-1.521-4.407m.26.29c-.48.361-1.249.59-1.27,1.3.833-.394,3.532-1.8,1.27-1.3m-8.782,1.095c2.948-1.4,3.4,5.131.089,3.446a1.835,1.835,0,0,1-.089-3.446m.29.25c-.262.115-.8.3-.618.691.435.273,1.54-.784.618-.691m12.172.606a2.088,2.088,0,0,1,2.651,2.387c-.253,1.693-3.421,2.3-3.991.474a2.239,2.239,0,0,1,1.34-2.861m3.472,2.941c.458-.365-.426-2.22.737-1.883-.908,1.286.212.908.744.061,1.354-.361,2.446,1.239,2.044,2.494a2.356,2.356,0,0,1-3.912,1.354c-.844-.573.165-1.388.387-2.026m-8.879-.43c1.177.491,3.533-.187,3.472,1.569.491,2.279-3.169,3.084-4.124,1.242a2.2,2.2,0,0,1,.652-2.811m-4.2.362c1.5-.222,3.8,1.371,1.879,3.006-1.113,2.37-4.339.1-3.677-1.925a10.033,10.033,0,0,0,1.8-1.081m8.764,1.918a12.832,12.832,0,0,1,1.857.279c-.884,1.2-1.607,3.923-3.357,2.173.262-.873,1.289-1.436,1.5-2.452m7.355.592c1.836-.594,3.684,1.671,2.374,3.238-.9,1.457-2.989.962-3.834-.283a2.376,2.376,0,0,1,1.46-2.955m-4.831.26c3.333-.77,3.954,5.708.286,4.684-2.251-.733-2.068-3.517-.286-4.684m-8.49.587c.87.112,1.621,1.331,2.756,1.135-.344.938-.559,2.176-1.5,2.678-1.906.185-2.761-2.8-1.259-3.813m-4.828.515c1.106-.078,1.794,1.286,3.032.914.956,1.682-2.494,3.028-3.117,1.341-.526-.686-.1-1.532.085-2.255m8.228,1.156c1.242.42,3.275,0,3.6,1.679.136,1.542-2.219,2.545-3.4,1.692a2.414,2.414,0,0,1-.2-3.371m-5.952,2.3c1.961-.744.419,2.162,1.579,3.025-.956.314-3.684-.014-3-1.607a2.411,2.411,0,0,1,1.417-1.418m1.968.243a6.519,6.519,0,0,1,3.043.546c-.723.888-1.31,3.057-2.739,1.887-.625-.54-1.116-1.892-.3-2.433m8.166.021c1.217.634,2.627.405,3.951.548.819,2.4-2.248,3.893-3.906,2.442a2.186,2.186,0,0,1-.045-2.99m-4.472,1.411c.917-.051,1.733.754,2.692.3,1.75,1.275-.5,4.882-2.438,3.562-2.051-.509-1.635-2.931-.254-3.862m-7.934,1.965c.691.194,1.821-.4,2.429.265a6.856,6.856,0,0,0-.837,3.958,2.391,2.391,0,0,1-1.592-4.223m.3.325c-.334.143-.778.543-.591.941.4.147,1.106-.747.591-.941m3.694,0c1.879-.812,3.612,1.515,2.654,3.111.147,1.928-2.944,2.19-3.8.7a2.551,2.551,0,0,1,1.143-3.81m6.8,2.026c1.47-.454,1.582,1.958.808,2.781-.983,1.715-4.782.777-4.036-1.488-.011-1.562,2.323-.409,3.228-1.293m-10.038,3.265c2.964-3.029,4.62,4.649.866,3.711-1.961.566-2.433-2.7-1.432-3.343-.157,1.6,1.378-.33,2.033-.655-.494.068-.978.175-1.467.287m5.79-.144c1.06-.375,2.627,1.5,1.535,2.371-.985,1.016-3.114.883-3.533-.6-1.031-1.888,1.111-1.226,2-1.766"/>
        </g>
      </g>
    </g>
  </g>
</svg>