<svg xmlns="http://www.w3.org/2000/svg" width="100%" height="100%" viewBox="0 0 506.234 506.243">
	<g>
		<rect x="0.625" y="0.627" fill="#F01414" width="504.987" height="504.99" />
		<path fill="#FFFFFF" d="M505.612,189.999H442.49v63.122L505.612,189.999z M253.119,505.617v-63.125h-63.125L253.119,505.617z
		 M316.243,505.617v-63.125h-63.124L316.243,505.617z M189.994,505.617v-63.125h-63.122L189.994,505.617z M63.748,505.617v-63.125
		H0.625L63.748,505.617z M379.365,505.617v-63.125h-63.122L379.365,505.617z M505.612,379.369l-63.122-63.124v63.124H505.612z
		 M442.49,505.617v-63.125h-63.125L442.49,505.617z M505.612,316.245l-63.122-63.124v63.124H505.612z M505.612,442.492
		l-63.122-63.123v63.123H505.612z M126.872,505.617v-63.125H63.748L126.872,505.617z M379.365,63.751h63.125V0.627L379.365,63.751z
		 M442.49,63.751v63.123l63.122-63.123H442.49z M316.243,63.751h63.122V0.627L316.243,63.751z M442.49,126.874v63.125l63.122-63.125
		H442.49z M253.119,63.751h63.124V0.627L253.119,63.751z M126.872,63.751h63.122V0.627L126.872,63.751z M63.748,63.751h63.124V0.627
		L63.748,63.751z M189.994,63.751h63.125V0.627L189.994,63.751z M0.625,63.751h63.123V0.627L0.625,63.751z M101.614,246.447
		c-3.962-6.754-9.39-4.342-6.27,2.865c19.358,44.718,67.039,74.813,108.783,94.109c-12.454,4.521-23.725,8.154-32.849,11.111
		c-2.895-8.643-4.97-14.871-5.691-16.85c-1.817-5.01-4.049-9.205-8.899-9.902c-3.542-0.51-7.788,1.34-8.581,5.326
		c-0.74,3.738,1.159,6.248,3.516,6.76c1.579,0.346,3.073-0.17,4.063-1.535c0.845-1.162,2.255-0.922,3.312,1.844
		c0.329,0.852,2.474,7.332,5.545,16.527c-10.409,3.328-19.79,6.248-27.485,8.799c-22.062,7.307-32.174,13.988-33.811,22.455
		c-1.639,8.469,2.728,13.354,8.438,13.516c4.874,0.139,8.513-3.17,8.302-8.145c-0.282-6.627,6.436-7.486,19.266-12.494
		c5.417-2.113,16.854-5.914,29.893-10.395c2.668,7.963,4.969,14.787,5.644,16.641c1.821,5.008,4.051,9.203,8.899,9.902
		c3.546,0.51,7.793-1.34,8.581-5.326c0.739-3.74-1.159-6.25-3.516-6.762c-1.579-0.344-3.073,0.17-4.064,1.537
		c-0.839,1.16-2.252,0.922-3.312-1.844c-0.306-0.807-2.689-7.914-5.547-16.465c9.976-3.482,26.664-8.992,45.984-16.977
		c19.323,7.986,36.013,13.496,45.989,16.979c-2.857,8.551-5.241,15.658-5.547,16.465c-1.06,2.766-2.473,3.004-3.312,1.844
		c-0.991-1.367-2.485-1.881-4.064-1.537c-2.356,0.512-4.255,3.021-3.516,6.762c0.788,3.986,5.035,5.836,8.581,5.326
		c4.849-0.699,7.078-4.895,8.899-9.902c0.675-1.854,2.976-8.678,5.644-16.641c13.038,4.48,24.476,8.281,29.893,10.395
		c12.83,5.008,19.548,5.867,19.266,12.494c-0.211,4.975,3.428,8.283,8.302,8.145c5.71-0.162,10.076-5.047,8.438-13.516
		c-1.637-8.467-11.749-15.148-33.811-22.455c-7.695-2.551-17.076-5.471-27.485-8.799c3.071-9.195,5.216-15.676,5.545-16.527
		c1.057-2.766,2.467-3.006,3.312-1.844c0.99,1.365,2.484,1.881,4.063,1.535c2.356-0.512,4.256-3.021,3.516-6.76
		c-0.793-3.986-5.039-5.836-8.581-5.326c-4.851,0.697-7.082,4.893-8.899,9.902c-0.722,1.979-2.797,8.207-5.691,16.85
		c-9.125-2.957-20.397-6.59-32.854-11.113c41.746-19.295,89.429-49.393,108.788-94.111c3.12-7.207-2.308-9.619-6.27-2.865
		c-26.565,45.263-77.271,72.884-120.205,90.211C178.882,319.328,128.178,291.708,101.614,246.447z M143.003,247.793
		c0,30.913,22.249,58.47,52.771,55.124c11.886-1.303,20.381-6.977,26.039-14.984c5.663,8.008,14.154,13.682,26.04,14.984
		c30.521,3.346,52.771-24.211,52.771-55.124c0-26.616-12.229-41.223-19.809-47.144c5.523,13.496,4.742,27.427-3.482,36.977
		c5.302-0.875,9.002-2.825,10.989-4.33c4.755,32.273-15.999,47.824-32.731,45.878c-11.697-1.361-23.943-11.079-23.943-37.999V173.27
		h57.517v-19.667h-57.517v-48.837h-19.668v48.837h-57.516v19.667h57.516v67.905c0,26.92-12.239,36.638-23.943,37.999
		c-16.729,1.946-37.485-13.604-32.73-45.878c1.992,1.505,5.688,3.455,10.993,4.33c-8.229-9.55-9.011-23.48-3.487-36.977
		C155.231,206.571,143.003,221.177,143.003,247.793z" />
		<path d="M506.234,0H0v506.243h506.234V0z M443.112,64.377h60.988l-60.988,60.988V64.377z M443.115,127.498h60.985l-60.988,60.991
		L443.115,127.498z M443.115,190.624h60.985l-60.985,60.985V190.624z M504.101,315.618h-60.985v-60.988L504.101,315.618z
		 M504.101,378.741l-60.985,0.003v-60.988L504.101,378.741z M379.99,1.25h60.99l-60.99,60.99V1.25z M441.864,2.137v60.99h-60.993
		L441.864,2.137z M316.866,1.25h60.989l-60.989,60.996V1.25z M378.737,2.135v60.992h-60.985L378.737,2.135z M253.745,1.25h60.989
		l-60.989,60.99V1.25z M315.618,2.135v60.992h-60.992L315.618,2.135z M190.62,1.25h60.991L190.62,62.241V1.25z M252.492,2.135
		v60.991h-60.99L252.492,2.135z M127.498,1.25h60.99l-60.99,60.989V1.25z M189.366,2.134v60.991h-60.985L189.366,2.134z
		 M64.374,1.25h60.989L64.374,62.238V1.25z M126.246,2.136v60.99H65.254L126.246,2.136z M1.248,1.25H62.24L1.248,62.245V1.25z
		 M63.121,2.136v60.99H2.134L63.121,2.136z M1.248,504.99v-60.991l60.989,60.991H1.248z M63.123,504.108L2.13,443.116h60.993
		V504.108z M64.373,504.99v-60.988l60.988,60.988H64.373z M126.245,504.107l-60.989-60.993l60.989,0.003V504.107z M127.497,504.99
		v-60.988l60.986,60.988H127.497z M189.368,504.106l-60.988-60.988h60.988V504.106z M190.619,504.99v-60.988l60.988,60.988H190.619z
		 M252.494,504.106l-60.993-60.991h60.993V504.106z M253.744,504.99v-60.988l60.988,60.988H253.744z M315.617,504.108
		l-60.992-60.992h60.992V504.108z M316.865,504.99v-60.991l60.988,60.991H316.865z M378.739,504.106l-60.988-60.989h60.988V504.106z
		 M379.989,504.99v-60.991l60.991,60.991H379.989z M441.863,504.108l-60.993-60.993h60.993V504.108z M441.865,441.866H1.248V64.376
		h440.617V441.866z M443.112,380.875l60.988,60.988h-60.988V380.875z M504.987,504.99h-61.872v-61.873h61.872V504.99z
		 M504.987,440.984l-60.99-60.99h60.99V440.984z M504.987,377.861l-60.989-60.99h60.989V377.861z M504.987,314.737l-61.614-61.618
		l61.614-61.612V314.737z M504.987,189.374h-60.989l60.989-60.993V189.374z M504.987,126.248h-60.989l60.989-60.99V126.248z
		 M504.987,63.125h-61.871V1.25h61.871V63.125z M346.918,241.832c-1.791,0.023-3.757,1.439-5.438,4.296
		c-26.38,44.983-76.836,72.534-119.661,89.851c-42.827-17.315-93.283-44.86-119.666-89.847l0.002-0.001
		c-1.69-2.855-3.654-4.273-5.446-4.297c-0.839-0.007-1.628,0.362-2.14,1.023c-0.52,0.657-0.78,1.555-0.78,2.621
		c0,1.157,0.309,2.521,0.981,4.081c19.282,44.462,66.247,74.449,107.725,93.79c-11.614,4.188-22.154,7.594-30.82,10.398
		c-2.793-8.34-4.787-14.324-5.499-16.277c-1.814-5.02-4.158-9.541-9.397-10.309c-0.415-0.061-0.837-0.092-1.262-0.092
		c-3.461-0.006-7.228,1.982-8.022,5.914c-0.118,0.598-0.175,1.168-0.175,1.713c-0.012,3.1,1.861,5.285,4.17,5.779
		c0.36,0.08,0.719,0.117,1.069,0.117c1.409,0.008,2.737-0.656,3.632-1.893c0.239-0.32,0.437-0.4,0.591-0.404
		c0.251-0.041,0.993,0.404,1.634,2.102c0.304,0.785,2.373,7.033,5.334,15.9c-10.166,3.248-19.333,6.105-26.888,8.607
		c-22.073,7.336-32.441,13.996-34.228,22.932c-0.244,1.26-0.36,2.447-0.36,3.561c-0.038,6.604,4.191,10.582,9.393,10.697
		c0.107,0.002,0.209,0.002,0.311,0.002c0.004,0,0.008,0,0.011,0c2.43,0,4.594-0.824,6.147-2.297c1.559-1.475,2.485-3.592,2.48-6.068
		c0-0.133,0-0.277-0.004-0.428c-0.005-0.137-0.013-0.258-0.013-0.371c0.031-2.873,1.404-4.371,4.581-6.004
		c3.161-1.59,7.99-3.055,14.3-5.516c5.3-2.066,16.482-5.787,29.272-10.182c2.583,7.709,4.785,14.232,5.448,16.061
		c1.819,5.016,4.16,9.539,9.397,10.309c0.418,0.059,0.84,0.086,1.263,0.086c3.463,0.006,7.227-1.984,8.021-5.912
		c0.119-0.598,0.173-1.17,0.173-1.713c0.013-3.102-1.864-5.289-4.17-5.779c-0.355-0.078-0.714-0.119-1.069-0.119
		c-1.411-0.008-2.744,0.654-3.634,1.9c-0.232,0.314-0.432,0.396-0.586,0.398c-0.254,0.043-0.999-0.406-1.634-2.1
		c-0.285-0.746-2.577-7.572-5.344-15.854c9.99-3.484,26.324-8.904,45.2-16.689c18.87,7.783,35.207,13.207,45.197,16.691
		c-2.769,8.281-5.06,15.109-5.343,15.857c-0.64,1.691-1.384,2.139-1.637,2.094c-0.154,0-0.352-0.08-0.583-0.395
		c-0.896-1.248-2.229-1.908-3.636-1.902c-0.357,0-0.713,0.041-1.068,0.119c-2.311,0.488-4.186,2.678-4.174,5.779
		c0,0.547,0.057,1.117,0.178,1.715c0.787,3.926,4.555,5.916,8.018,5.91c0.424,0,0.848-0.027,1.263-0.088
		c5.24-0.768,7.581-5.289,9.398-10.307c0.666-1.826,2.867-8.352,5.45-16.059c12.791,4.393,23.971,8.113,29.273,10.182
		c6.304,2.457,11.136,3.924,14.297,5.514c3.176,1.631,4.55,3.131,4.578,6.004c0,0.117-0.002,0.244-0.007,0.371
		c-0.012,0.141-0.012,0.293-0.012,0.43c-0.002,2.477,0.924,4.592,2.481,6.066c1.557,1.475,3.726,2.299,6.161,2.299
		c0.103,0,0.204-0.002,0.309-0.004c5.204-0.117,9.434-4.094,9.396-10.695c0-1.115-0.116-2.301-0.358-3.563
		c-1.787-8.934-12.154-15.596-34.228-22.93c-7.555-2.504-16.724-5.359-26.889-8.609c2.959-8.867,5.029-15.115,5.333-15.898
		c0.638-1.701,1.379-2.146,1.633-2.104c0.154,0.002,0.353,0.086,0.592,0.402c0.889,1.238,2.219,1.9,3.631,1.895
		c0.351,0,0.711-0.039,1.069-0.117c2.303-0.494,4.18-2.678,4.171-5.779c0-0.543-0.058-1.113-0.174-1.711
		c-0.801-3.934-4.563-5.922-8.023-5.916c-0.425,0-0.847,0.031-1.261,0.09c-5.237,0.768-7.581,5.291-9.396,10.309
		c-0.714,1.955-2.708,7.941-5.501,16.277c-8.662-2.803-19.206-6.215-30.814-10.398c41.475-19.341,88.438-49.332,107.721-93.792
		c0.671-1.559,0.977-2.925,0.977-4.08c0-1.067-0.263-1.966-0.78-2.623C348.545,242.195,347.758,241.825,346.918,241.832z
		 M95.917,249.062c-0.624-1.437-0.877-2.652-0.877-3.584c0.05-1.751,0.728-2.372,1.668-2.396c1.057-0.023,2.815,1.015,4.365,3.681
		l0.54-0.318l-0.537,0.318c26.404,44.954,76.391,72.506,119.072,89.887c-5.483,2.193-10.832,4.219-15.981,6.092
		C162.539,323.464,115.106,293.467,95.917,249.062z M272.161,355.128l0.588,0.191l0.196-0.586
		c2.894-8.641,4.973-14.879,5.688-16.834c1.82-5.002,3.939-8.871,8.401-9.5c0.354-0.053,0.716-0.078,1.081-0.078
		c3.038,0.006,6.178,1.729,6.796,4.91c0.104,0.518,0.149,1.006,0.149,1.467c-0.012,2.604-1.485,4.178-3.185,4.559
		c-0.275,0.061-0.545,0.088-0.804,0.088c-1.033-0.006-1.932-0.439-2.618-1.379c-0.38-0.523-0.938-0.918-1.604-0.918
		c-1.194,0.047-2.091,1.072-2.799,2.906c-0.346,0.898-2.479,7.346-5.555,16.551l-0.202,0.6l0.607,0.195
		c10.41,3.328,19.79,6.248,27.478,8.797c22.049,7.279,31.908,13.979,33.394,21.979c0.229,1.188,0.337,2.297,0.337,3.326
		c-0.041,6.068-3.612,9.279-8.179,9.445c-0.09,0.002-0.185,0.002-0.277,0.002c-4.309-0.029-7.367-2.801-7.394-7.113
		c0-0.133,0.002-0.254,0.01-0.361c0.007-0.162,0.009-0.303,0.009-0.439c0.028-3.4-1.948-5.496-5.268-7.121
		c-3.332-1.67-8.139-3.115-14.401-5.563c-5.451-2.125-16.881-5.922-29.917-10.404l-0.595-0.203l-0.202,0.598
		c-2.666,7.957-4.969,14.791-5.638,16.627c-1.824,4.998-3.94,8.867-8.4,9.496c-0.355,0.049-0.719,0.074-1.088,0.074
		c-3.046-0.006-6.184-1.732-6.792-4.902c-0.104-0.523-0.152-1.014-0.152-1.473c0.013-2.605,1.484-4.182,3.186-4.559
		c0.279-0.059,0.548-0.09,0.806-0.09c1.031,0.006,1.927,0.438,2.623,1.383c0.37,0.525,0.932,0.916,1.596,0.914
		c1.194-0.043,2.087-1.066,2.803-2.898c0.322-0.852,2.697-7.932,5.558-16.492l0.194-0.586l-0.581-0.201
		c-9.739-3.391-25.858-8.723-44.563-16.391c5.207-2.17,10.594-4.518,16.088-7.051C251.901,348.578,263.099,352.187,272.161,355.128z
		 M347.715,249.061c-31.464,72.808-138.866,106.905-172.092,118.47l-0.582,0.203l0.195,0.586c2.86,8.559,5.234,15.641,5.555,16.488
		c0.712,1.834,1.608,2.859,2.804,2.902c0.664,0.002,1.224-0.391,1.599-0.914c0.69-0.943,1.587-1.379,2.621-1.383
		c0.256,0,0.526,0.031,0.804,0.09c1.701,0.375,3.174,1.953,3.186,4.559c0,0.461-0.047,0.951-0.149,1.471
		c-0.614,3.174-3.752,4.898-6.795,4.904c-0.368,0.002-0.73-0.025-1.084-0.074c-4.46-0.629-6.578-4.498-8.401-9.498
		c-0.667-1.832-2.97-8.666-5.639-16.627l-0.201-0.598l-0.594,0.207c-13.038,4.48-24.467,8.277-29.917,10.402
		c-6.267,2.447-11.075,3.895-14.405,5.563c-3.32,1.625-5.296,3.723-5.271,7.121c0.003,0.145,0.008,0.285,0.012,0.422
		c0.005,0.113,0.005,0.244,0.005,0.377c-0.023,4.314-3.081,7.086-7.389,7.115c-0.092,0-0.187,0-0.279-0.002
		c-4.566-0.166-8.139-3.377-8.174-9.447c-0.003-1.027,0.106-2.135,0.337-3.322c1.487-8.002,11.345-14.701,33.395-21.982
		c7.686-2.547,17.066-5.467,27.479-8.797l0.602-0.195l-0.199-0.598c-3.076-9.205-5.208-15.652-5.557-16.553
		c-0.712-1.834-1.604-2.859-2.799-2.9c-0.003,0-0.005,0-0.007,0c-0.661,0-1.221,0.393-1.593,0.912
		c-0.694,0.939-1.591,1.377-2.623,1.381c-0.259,0-0.529-0.029-0.804-0.088c-1.703-0.379-3.174-1.955-3.186-4.559
		c0-0.459,0.047-0.947,0.151-1.469c0.614-3.178,3.753-4.9,6.796-4.908c0.365,0,0.729,0.027,1.081,0.08
		c4.465,0.627,6.583,4.494,8.402,9.496c0.714,1.957,2.794,8.195,5.688,16.834l0.194,0.586l0.591-0.189
		c42.655-13.84,132.306-42.345,171.087-108.366c1.546-2.666,3.304-3.705,4.359-3.681c0.941,0.025,1.622,0.645,1.672,2.397
		C348.59,246.407,348.336,247.624,347.715,249.061z M163.187,200.151c-0.225-0.17-0.541-0.167-0.763,0.007
		c-7.707,6.016-20.051,20.818-20.046,47.637c0,14.738,5.005,28.723,13.557,39.044c8.547,10.322,20.672,16.981,34.833,16.979
		c1.663,0,3.353-0.095,5.07-0.278c11.702-1.276,20.232-6.772,25.974-14.54c5.747,7.768,14.271,13.264,25.973,14.54
		c1.715,0.187,3.404,0.278,5.07,0.276c14.159,0.005,26.286-6.654,34.835-16.977c8.552-10.324,13.557-24.308,13.557-39.044
		c0.005-26.818-12.339-41.621-20.048-47.637c-0.225-0.174-0.536-0.177-0.763-0.007c-0.224,0.172-0.309,0.472-0.2,0.735
		c2.303,5.629,3.49,11.322,3.49,16.717c0,7.396-2.226,14.218-6.87,19.615c-0.169,0.197-0.197,0.486-0.068,0.715
		c0.128,0.229,0.388,0.352,0.646,0.309c4.731-0.781,8.222-2.4,10.409-3.846c0.37,2.793,0.543,5.451,0.543,7.98
		c-0.017,24.191-15.881,36.316-29.972,36.33c-0.927,0-1.848-0.052-2.754-0.153c-11.369-1.363-23.34-10.635-23.39-37.378v-67.281
		h56.892c0.168,0,0.323-0.064,0.441-0.182c0.118-0.119,0.184-0.276,0.184-0.441v-19.669c0-0.165-0.065-0.325-0.184-0.441
		c-0.116-0.115-0.276-0.185-0.441-0.185h-56.892v-48.209c0-0.166-0.066-0.326-0.184-0.443c-0.116-0.116-0.276-0.182-0.441-0.182
		h-19.666c-0.166,0-0.326,0.065-0.444,0.182c-0.115,0.115-0.184,0.277-0.184,0.443v48.209h-56.89c-0.165,0-0.325,0.069-0.44,0.185
		c-0.118,0.116-0.185,0.276-0.185,0.441v19.669c0,0.162,0.066,0.325,0.185,0.441c0.115,0.115,0.275,0.182,0.44,0.182h56.89v67.281
		c-0.05,26.743-12.014,36.015-23.39,37.378c-0.906,0.104-1.827,0.156-2.754,0.156c-14.091-0.015-29.955-12.144-29.972-36.336
		c0-2.528,0.173-5.187,0.545-7.977c2.189,1.442,5.678,3.063,10.414,3.845c0.26,0.043,0.517-0.08,0.646-0.309
		c0.13-0.231,0.102-0.515-0.071-0.715c-4.648-5.397-6.874-12.222-6.874-19.617c-0.002-5.396,1.188-11.088,3.493-16.715
		C163.495,200.625,163.413,200.323,163.187,200.151z M158.646,217.601c-0.003,7.049,1.964,13.672,6.089,19.089
		c-4.315-0.953-7.359-2.611-9.056-3.892c-0.177-0.135-0.408-0.163-0.613-0.08c-0.205,0.084-0.35,0.269-0.382,0.485
		c-0.478,3.219-0.699,6.274-0.699,9.17c-0.002,12.379,4.092,21.79,10.051,28.091c5.961,6.303,13.767,9.495,21.172,9.495
		c0.975,0,1.941-0.057,2.897-0.165c12.032-1.361,24.549-11.524,24.497-38.619v-67.904c0-0.166-0.066-0.326-0.183-0.443
		c-0.117-0.116-0.278-0.182-0.44-0.182h-56.895v-18.418h56.895c0.165,0,0.323-0.064,0.44-0.182c0.118-0.121,0.183-0.277,0.183-0.444
		V105.39h18.417v48.212c0,0.165,0.069,0.328,0.185,0.444c0.115,0.115,0.276,0.182,0.441,0.182h56.892v18.418h-56.892
		c-0.165,0-0.326,0.065-0.441,0.182c-0.115,0.115-0.185,0.277-0.185,0.443v67.904c-0.049,27.095,12.472,37.258,24.497,38.619
		c0.956,0.108,1.923,0.163,2.897,0.163c7.403,0,15.211-3.192,21.17-9.493c5.961-6.301,10.055-15.712,10.053-28.088
		c0-2.896-0.225-5.954-0.699-9.17c-0.032-0.22-0.177-0.404-0.38-0.488c-0.205-0.083-0.438-0.055-0.615,0.08
		c-1.69,1.28-4.737,2.938-9.05,3.891c4.118-5.416,6.083-12.039,6.083-19.086c0-4.852-0.928-9.908-2.721-14.935
		c7.445,6.628,17.739,20.775,17.743,45.126c0,14.453-4.92,28.168-13.271,38.246c-8.358,10.079-20.114,16.523-33.872,16.525
		c-1.618,0-3.264-0.087-4.934-0.271c-11.722-1.291-20.021-6.846-25.599-14.723c-0.118-0.168-0.308-0.265-0.51-0.265
		c-0.203,0-0.395,0.097-0.513,0.265c-5.573,7.877-13.877,13.432-25.596,14.723c-1.674,0.182-3.318,0.271-4.937,0.271
		c-13.758-0.002-25.514-6.446-33.872-16.525c-8.352-10.076-13.27-23.791-13.27-38.246c0.005-24.346,10.293-38.492,17.739-45.122
		C159.572,207.695,158.646,212.75,158.646,217.601z" />
	</g>
</svg>
