<svg height="100%" viewBox="0 0 26 16" width="100%" xmlns="http://www.w3.org/2000/svg" xmlns:xlink="http://www.w3.org/1999/xlink"><defs><g id="us-oh_a" fill="#fff" transform="matrix(.625 0 0 .625 3.944272 0)"><g id="us-oh_b"><g id="us-oh_c"><path id="us-oh_d" d="m1 0h-1v.5z" transform="matrix(.95105652 .30901699 -.30901699 .95105652 .048943 -.309017)"/><use transform="scale(1 -1)" xlink:href="#us-oh_d"/></g><use transform="matrix(.30901699 .95105652 -.95105652 .30901699 0 0)" xlink:href="#us-oh_c"/></g><use transform="matrix(.30901699 -.95105652 .95105652 .30901699 0 0)" xlink:href="#us-oh_c"/><use transform="matrix(-.80901699 .58778525 -.58778525 -.80901699 0 0)" xlink:href="#us-oh_b"/></g><clipPath id="us-oh_e"><path d="m0 16v-16l26 3-6 5 6 5z"/></clipPath></defs><g clip-path="url(#us-oh_e)" fill="#fff" stroke="#c1133d"><path d="m26 3-26-3v16l26-3" stroke-width="4"/><path d="m0 8h26" stroke-width="2"/></g><path d="m0 0v16l16-8z" fill="#001c5a"/><g transform="translate(4.944272 8)"><circle fill="#fff" r="3"/><circle fill="#c1133d" r="2"/><use x="4" xlink:href="#us-oh_a"/><g id="us-oh_f"><use xlink:href="#us-oh_a"/><use transform="matrix(.98584947 -.167633 .167633 .98584947 0 0)" x="2" xlink:href="#us-oh_a"/><use transform="matrix(.98584947 .167633 -.167633 .98584947 0 0)" x="2" xlink:href="#us-oh_a"/></g><g id="us-oh_g"><use transform="matrix(.44721359 .89442719 -.89442719 .44721359 0 0)" xlink:href="#us-oh_a"/><use transform="matrix(-.04494823 .99898932 -.99898932 -.04494823 0 0)" xlink:href="#us-oh_a"/><use transform="matrix(-.52573111 .85065081 -.85065081 -.52573111 0 0)" xlink:href="#us-oh_f"/><use transform="matrix(-.87342175 .48696452 -.48696452 -.87342175 0 0)" xlink:href="#us-oh_a"/></g><use transform="scale(-1)" xlink:href="#us-oh_a"/><use transform="scale(1 -1)" xlink:href="#us-oh_g"/></g></svg>